<svg xmlns="http://www.w3.org/2000/svg" xmlns:xlink="http://www.w3.org/1999/xlink" width="610" height="377.056" viewBox="0 0 610 377.056">
  <defs>
    <clipPath id="clip-path">
      <rect id="Rectángulo_35068" data-name="Rectángulo 35068" width="610" height="377.056" fill="none"/>
    </clipPath>
    <clipPath id="clip-path-3">
      <path id="Trazado_116111" data-name="Trazado 116111" d="M191.682,81.234l-45.248,45.25a4.025,4.025,0,0,0,0,5.679l.483.483a13.076,13.076,0,0,0,6.84,3.231s6.141.594,9.947,4.4a16.837,16.837,0,1,1-23.812,23.811c-3.808-3.809-4.407-9.954-4.407-9.954a13.058,13.058,0,0,0-3.226-6.839l-.481-.483a4.038,4.038,0,0,0-5.682,0L80.845,192.065a4.033,4.033,0,0,0,0,5.682L126.094,243a4.029,4.029,0,0,0,5.682,0l.5-.505a13.049,13.049,0,0,0,3.228-6.837s.6-6.143,4.4-9.951a16.838,16.838,0,1,1,23.815,23.809c-3.809,3.813-9.955,4.408-9.955,4.408a13.064,13.064,0,0,0-6.837,3.23l-.5.5a4.033,4.033,0,0,0,0,5.682l45.25,45.246a4.032,4.032,0,0,0,5.682,0l45.25-45.25a4.027,4.027,0,0,1,5.681,0l.035.032a13.088,13.088,0,0,1,3.226,6.837s.6,6.146,4.407,9.957a16.839,16.839,0,1,0,23.812-23.815c-3.808-3.8-9.952-4.405-9.952-4.405a13.015,13.015,0,0,1-6.835-3.228l-.037-.037a4.028,4.028,0,0,1,0-5.679l45.25-45.246a4.033,4.033,0,0,0,0-5.682l-45.251-45.251a4.024,4.024,0,0,1,0-5.676l.807-.807a13.033,13.033,0,0,1,6.839-3.226s6.144-.6,9.951-4.408a16.837,16.837,0,1,0-23.807-23.814c-3.811,3.808-4.408,9.954-4.408,9.954a13.059,13.059,0,0,1-3.226,6.837l-.81.81a4.03,4.03,0,0,1-5.681,0l-45.25-45.251a4.029,4.029,0,0,0-5.681,0" transform="translate(-79.674 -80.062)" fill="none"/>
    </clipPath>
    <clipPath id="clip-path-4">
      <path id="Trazado_116114" data-name="Trazado 116114" d="M338.786,81.24l-45.25,45.248a4.028,4.028,0,0,1-5.681,0l-.805-.809a13.02,13.02,0,0,1-3.228-6.835s-.6-6.144-4.41-9.954A16.839,16.839,0,1,0,255.6,132.7c3.809,3.808,9.954,4.407,9.954,4.407a13.024,13.024,0,0,1,6.84,3.225l.809.809a4.026,4.026,0,0,1,0,5.677l-45.25,45.254a4.023,4.023,0,0,0,0,5.676L273.2,243a4.03,4.03,0,0,0,5.681,0l.481-.481a13.049,13.049,0,0,0,3.229-6.84s.6-6.141,4.405-9.949A16.838,16.838,0,1,1,310.81,249.54c-3.811,3.809-9.954,4.408-9.954,4.408a13.047,13.047,0,0,0-6.842,3.23l-.48.48a4.027,4.027,0,0,0,0,5.681l45.25,45.248a4.029,4.029,0,0,0,5.682,0l45.253-45.248a4.031,4.031,0,0,0,0-5.681l-.5-.5a13.043,13.043,0,0,0-6.842-3.226s-6.143-.6-9.954-4.407a16.841,16.841,0,0,1,23.817-23.815c3.808,3.811,4.4,9.954,4.4,9.954a13.051,13.051,0,0,0,3.23,6.839l.5.5a4.038,4.038,0,0,0,5.682,0L455.3,197.75a4.028,4.028,0,0,0,0-5.679L410.05,146.82a4.03,4.03,0,0,1,0-5.677l.033-.035a13.077,13.077,0,0,1,6.837-3.223s6.149-.6,9.96-4.407a16.841,16.841,0,0,0-23.819-23.815c-3.8,3.809-4.4,9.952-4.4,9.952a13.044,13.044,0,0,1-3.229,6.839l-.035.035a4.029,4.029,0,0,1-5.677,0L344.468,81.24a4.029,4.029,0,0,0-5.682,0" transform="translate(-226.778 -80.068)" fill="none"/>
    </clipPath>
    <clipPath id="clip-path-5">
      <path id="Trazado_116119" data-name="Trazado 116119" d="M118.614,8.171,73.363,53.423a4.025,4.025,0,0,0,0,5.679l.478.481a13.063,13.063,0,0,0,6.842,3.228s6.144.6,9.954,4.4A16.839,16.839,0,1,1,66.825,91.031c-3.809-3.806-4.405-9.951-4.405-9.951a13.069,13.069,0,0,0-3.23-6.839l-.483-.483a4.025,4.025,0,0,0-5.681,0L7.777,119.007a4.03,4.03,0,0,0,0,5.682l45.248,45.246a4.029,4.029,0,0,1,0,5.682l-.805.805a13.075,13.075,0,0,1-6.84,3.231s-6.143.6-9.952,4.405a16.838,16.838,0,1,0,23.815,23.809c3.806-3.808,4.405-9.954,4.405-9.954a13.03,13.03,0,0,1,3.228-6.839l.805-.809a4.035,4.035,0,0,1,5.682,0l45.25,45.253a4.029,4.029,0,0,0,5.679,0l45.248-45.25a4.029,4.029,0,0,1,5.682,0l.035.032a13.059,13.059,0,0,1,3.228,6.84s.6,6.141,4.408,9.951a16.838,16.838,0,1,0,23.812-23.812c-3.809-3.806-9.955-4.405-9.955-4.405a13.044,13.044,0,0,1-6.84-3.226l-.032-.032a4.029,4.029,0,0,1,0-5.682l45.251-45.248a4.032,4.032,0,0,0,0-5.682l-45.25-45.25a4.032,4.032,0,0,0-5.682,0l-.5.5a13.052,13.052,0,0,0-3.226,6.839s-.6,6.143-4.41,9.955a16.838,16.838,0,1,1-23.812-23.814c3.811-3.812,9.954-4.408,9.954-4.408a13.038,13.038,0,0,0,6.839-3.23l.5-.5a4.026,4.026,0,0,0,0-5.679l-45.25-45.25a4.025,4.025,0,0,0-5.679,0" transform="translate(-6.605 -6.999)" fill="none"/>
    </clipPath>
    <clipPath id="clip-path-7">
      <path id="Trazado_116122" data-name="Trazado 116122" d="M265.232,7.682,219.985,52.933a4.032,4.032,0,0,1-5.682,0l-.033-.035a13.063,13.063,0,0,1-3.23-6.837s-.6-6.143-4.4-9.951a16.838,16.838,0,1,0-23.812,23.812c3.808,3.811,9.954,4.407,9.954,4.407a13.051,13.051,0,0,1,6.842,3.228l.03.03a4.03,4.03,0,0,1,0,5.682L154.4,118.519a4.028,4.028,0,0,0,0,5.681l45.251,45.25a4.027,4.027,0,0,0,5.681,0l.5-.5a13.05,13.05,0,0,0,3.228-6.837s.6-6.144,4.405-9.952a16.838,16.838,0,1,1,23.814,23.812c-3.808,3.809-9.951,4.405-9.951,4.405a13.046,13.046,0,0,0-6.839,3.226l-.5.5a4.02,4.02,0,0,0,0,5.677l45.246,45.25a4.032,4.032,0,0,0,5.682,0l45.248-45.251a4.025,4.025,0,0,0,0-5.679l-.477-.48a13.084,13.084,0,0,0-6.842-3.226s-6.148-.6-9.957-4.407A16.839,16.839,0,0,1,322.7,152.176c3.809,3.809,4.408,9.949,4.408,9.949a13.027,13.027,0,0,0,3.225,6.839l.484.485a4.023,4.023,0,0,0,5.677,0L381.75,124.2a4.035,4.035,0,0,0,0-5.682L336.5,73.269a4.033,4.033,0,0,1,0-5.681l.809-.81a13.09,13.09,0,0,1,6.837-3.228s6.145-.6,9.955-4.405a16.838,16.838,0,1,0-23.814-23.812c-3.809,3.809-4.407,9.955-4.407,9.955a13.049,13.049,0,0,1-3.228,6.837l-.805.807a4.034,4.034,0,0,1-5.684,0L270.914,7.683a4.031,4.031,0,0,0-5.682,0" transform="translate(-153.224 -6.511)" fill="none"/>
    </clipPath>
  </defs>
  <g id="Grupo_85437" data-name="Grupo 85437" transform="translate(-169.12 -2329)">
    <g id="Grupo_82666" data-name="Grupo 82666" transform="translate(169.12 2329)">
      <g id="Grupo_82665" data-name="Grupo 82665" clip-path="url(#clip-path)">
        <g id="Grupo_82635" data-name="Grupo 82635" transform="translate(126.566 127.182)">
          <g id="Grupo_82634" data-name="Grupo 82634" clip-path="url(#clip-path-3)">
            <rect id="Rectángulo_35051" data-name="Rectángulo 35051" width="230.477" height="230.083" transform="translate(-0.391)" fill="#13b770"/>
          </g>
        </g>
        <g id="Grupo_82644" data-name="Grupo 82644" transform="translate(360.246 127.191)">
          <g id="Grupo_82643" data-name="Grupo 82643" clip-path="url(#clip-path-4)">
            <rect id="Rectángulo_35056" data-name="Rectángulo 35056" width="230.478" height="230.081" transform="translate(-0.391 0)" fill="#79dfef"/>
          </g>
        </g>
        <g id="Grupo_82653" data-name="Grupo 82653" transform="translate(10.493 11.118)">
          <g id="Grupo_82652" data-name="Grupo 82652" clip-path="url(#clip-path-5)">
            <rect id="Rectángulo_35061" data-name="Rectángulo 35061" width="230.477" height="230.084" transform="translate(-0.391 0)" fill="#eecf52"/>
          </g>
        </g>
        <g id="Grupo_82660" data-name="Grupo 82660">
          <g id="Grupo_82659" data-name="Grupo 82659" clip-path="url(#clip-path)">
            <path id="Trazado_116121" data-name="Trazado 116121" d="M59.242,207.867c3.806-3.806,4.405-9.954,4.405-9.954a13.041,13.041,0,0,1,3.226-6.837l.807-.809a4.035,4.035,0,0,1,5.682,0l45.25,45.251a4.028,4.028,0,0,0,5.681,0l45.248-45.25a4.03,4.03,0,0,1,5.681,0l.035.033a13.053,13.053,0,0,1,3.228,6.84s.6,6.141,4.407,9.951a16.838,16.838,0,1,0,23.814-23.812c-3.809-3.808-9.955-4.407-9.955-4.407a13.042,13.042,0,0,1-6.84-3.225l-.032-.033a4.027,4.027,0,0,1,0-5.681l45.251-45.25a4.03,4.03,0,0,0,0-5.681l-45.25-45.25a4.03,4.03,0,0,0-5.681,0l-.5.5A13.035,13.035,0,0,0,180.47,81.1s-.6,6.144-4.41,9.955a16.838,16.838,0,1,1-23.812-23.812c3.811-3.812,9.954-4.408,9.954-4.408a13.061,13.061,0,0,0,6.84-3.23l.5-.5a4.028,4.028,0,0,0,0-5.681L124.295,8.172a4.024,4.024,0,0,0-5.681,0L73.363,53.421a4.027,4.027,0,0,0,0,5.681l.478.48a13.046,13.046,0,0,0,6.842,3.228s6.144.6,9.954,4.405A16.839,16.839,0,1,1,66.825,91.03c-3.811-3.8-4.405-9.949-4.405-9.949a13.069,13.069,0,0,0-3.23-6.839l-.483-.483a4.025,4.025,0,0,0-5.681,0L7.777,119.008a4.03,4.03,0,0,0,0,5.681l45.248,45.248a4.027,4.027,0,0,1,0,5.681l-.805.807a13.075,13.075,0,0,1-6.84,3.231s-6.143.594-9.952,4.405a16.837,16.837,0,1,0,23.815,23.807Z" transform="translate(3.888 4.119)" fill="none" stroke="#fff" stroke-linejoin="round" stroke-width="1"/>
          </g>
        </g>
        <g id="Grupo_82662" data-name="Grupo 82662" transform="translate(243.403 10.343)">
          <g id="Grupo_82661" data-name="Grupo 82661" clip-path="url(#clip-path-7)">
            <path id="Trazado_116132" data-name="Trazado 116132" d="M0,0H230.477V230.083H0Z" transform="translate(-0.391 0)" fill="#c5edf4"/>
          </g>
        </g>
      </g>
    </g>
    <path id="Trazado_119092" data-name="Trazado 119092" d="M10.327-10.613H6.733V-.865H3.845v-9.748H.316v-2.229H10.327ZM14.992-.7a4.575,4.575,0,0,1-3.315-1.222A4.218,4.218,0,0,1,10.41-5.1v-.23a5.466,5.466,0,0,1,.506-2.41,3.7,3.7,0,0,1,1.477-1.616,4.457,4.457,0,0,1,2.3-.572,3.853,3.853,0,0,1,2.961,1.164,4.574,4.574,0,0,1,1.086,3.245v1.078H13.231a2,2,0,0,0,.65,1.176,1.934,1.934,0,0,0,1.3.428,2.491,2.491,0,0,0,2.056-.921l1.267,1.5a3.541,3.541,0,0,1-1.468,1.139A4.962,4.962,0,0,1,14.992-.7Zm-.313-7.091q-1.217,0-1.448,1.612h2.8v-.214a1.373,1.373,0,0,0-.337-1.032A1.342,1.342,0,0,0,14.679-7.791Zm8.942,4.952a1.233,1.233,0,0,0,.9-.317,1.161,1.161,0,0,0,.313-.884h2.6a3.077,3.077,0,0,1-1.049,2.4,3.9,3.9,0,0,1-2.7.938,3.95,3.95,0,0,1-3.06-1.217,4.8,4.8,0,0,1-1.119-3.373v-.115a5.421,5.421,0,0,1,.5-2.381,3.624,3.624,0,0,1,1.435-1.588,4.28,4.28,0,0,1,2.221-.555,3.852,3.852,0,0,1,2.756.962,3.414,3.414,0,0,1,1.02,2.608h-2.6A1.522,1.522,0,0,0,24.5-7.421a1.164,1.164,0,0,0-.9-.37q-1.078,0-1.259,1.374a9.693,9.693,0,0,0-.058,1.2A3.807,3.807,0,0,0,22.6-3.357,1.111,1.111,0,0,0,23.621-2.839Zm7.535-6.926.09,1.045A3.018,3.018,0,0,1,33.788-9.93a2.539,2.539,0,0,1,2.077.831,3.955,3.955,0,0,1,.712,2.5V-.865H33.8V-6.483a1.5,1.5,0,0,0-.271-.991,1.256,1.256,0,0,0-.987-.317,1.322,1.322,0,0,0-1.209.642V-.865H28.556v-8.9ZM37.761-5.4a5.253,5.253,0,0,1,.518-2.373,3.706,3.706,0,0,1,1.489-1.6,4.484,4.484,0,0,1,2.279-.559A4.092,4.092,0,0,1,45.2-8.692a4.751,4.751,0,0,1,1.152,3.369v.1a4.609,4.609,0,0,1-1.156,3.3A4.1,4.1,0,0,1,42.063-.7,4.15,4.15,0,0,1,39.011-1.84a4.456,4.456,0,0,1-1.242-3.089Zm2.772.173a3.312,3.312,0,0,0,.387,1.81,1.288,1.288,0,0,0,1.143.576q1.481,0,1.514-2.279V-5.4q0-2.394-1.53-2.394-1.39,0-1.505,2.065Zm9.962,4.36h-2.78V-13.5h2.78ZM51.852-5.4a5.253,5.253,0,0,1,.518-2.373,3.706,3.706,0,0,1,1.489-1.6,4.484,4.484,0,0,1,2.279-.559,4.092,4.092,0,0,1,3.151,1.238A4.751,4.751,0,0,1,60.44-5.323v.1a4.609,4.609,0,0,1-1.156,3.3A4.1,4.1,0,0,1,56.154-.7,4.15,4.15,0,0,1,53.1-1.84,4.456,4.456,0,0,1,51.86-4.929Zm2.772.173a3.312,3.312,0,0,0,.387,1.81,1.288,1.288,0,0,0,1.143.576q1.481,0,1.514-2.279V-5.4q0-2.394-1.53-2.394-1.39,0-1.505,2.065ZM56.516-13.5h2.928l-2.287,2.583H54.9Zm4.82,8.119a6.01,6.01,0,0,1,.444-2.386,3.576,3.576,0,0,1,1.275-1.6,3.361,3.361,0,0,1,1.933-.563,2.672,2.672,0,0,1,2.172.938l.1-.773h2.517V-1.2A3.753,3.753,0,0,1,69.229.842a3.51,3.51,0,0,1-1.583,1.333,5.82,5.82,0,0,1-2.4.465,5.021,5.021,0,0,1-1.9-.37,3.423,3.423,0,0,1-1.4-.962l1.16-1.629a2.542,2.542,0,0,0,2.04.913A1.651,1.651,0,0,0,66.988-1.3v-.28a2.6,2.6,0,0,1-2.015.88A3.217,3.217,0,0,1,62.34-1.947a5.163,5.163,0,0,1-1-3.336Zm2.78.173a3.166,3.166,0,0,0,.411,1.732,1.3,1.3,0,0,0,1.152.638,1.472,1.472,0,0,0,1.308-.6V-7.182A1.435,1.435,0,0,0,65.7-7.791a1.306,1.306,0,0,0-1.16.662A3.611,3.611,0,0,0,64.117-5.208ZM74.276-.865H71.5v-8.9h2.78Zm-2.945-11.2a1.237,1.237,0,0,1,.428-.971,1.614,1.614,0,0,1,1.111-.378,1.614,1.614,0,0,1,1.111.378,1.237,1.237,0,0,1,.428.971,1.237,1.237,0,0,1-.428.971,1.614,1.614,0,0,1-1.111.378,1.614,1.614,0,0,1-1.111-.378A1.237,1.237,0,0,1,71.331-12.06Zm8.415,9.221a1.233,1.233,0,0,0,.9-.317,1.161,1.161,0,0,0,.313-.884h2.6a3.077,3.077,0,0,1-1.049,2.4,3.9,3.9,0,0,1-2.7.938,3.95,3.95,0,0,1-3.06-1.217,4.8,4.8,0,0,1-1.119-3.373v-.115a5.421,5.421,0,0,1,.5-2.381,3.624,3.624,0,0,1,1.435-1.588,4.28,4.28,0,0,1,2.221-.555,3.852,3.852,0,0,1,2.756.962,3.414,3.414,0,0,1,1.02,2.608h-2.6a1.522,1.522,0,0,0-.337-1.061,1.164,1.164,0,0,0-.9-.37q-1.078,0-1.259,1.374a9.694,9.694,0,0,0-.058,1.2,3.807,3.807,0,0,0,.321,1.859A1.111,1.111,0,0,0,79.746-2.839ZM84.386-5.4A5.253,5.253,0,0,1,84.9-7.771a3.706,3.706,0,0,1,1.489-1.6,4.484,4.484,0,0,1,2.279-.559,4.092,4.092,0,0,1,3.151,1.238,4.751,4.751,0,0,1,1.152,3.369v.1a4.609,4.609,0,0,1-1.156,3.3A4.1,4.1,0,0,1,88.688-.7,4.15,4.15,0,0,1,85.636-1.84a4.456,4.456,0,0,1-1.242-3.089Zm2.772.173a3.312,3.312,0,0,0,.387,1.81,1.288,1.288,0,0,0,1.143.576q1.481,0,1.514-2.279V-5.4q0-2.394-1.53-2.394-1.39,0-1.505,2.065Z" transform="translate(250.526 2507.692)" fill="#12263f"/>
    <path id="Trazado_119091" data-name="Trazado 119091" d="M10.634-4.92a4.374,4.374,0,0,1-.675,2.209A4.071,4.071,0,0,1,8.228-1.227,5.894,5.894,0,0,1,5.682-.7,4.7,4.7,0,0,1,1.964-2.239,6.351,6.351,0,0,1,.606-6.582v-.592a7.25,7.25,0,0,1,.613-3.081,4.643,4.643,0,0,1,1.764-2.04,4.923,4.923,0,0,1,2.665-.72,5.162,5.162,0,0,1,3.5,1.148A4.534,4.534,0,0,1,10.659-8.7H7.779a2.145,2.145,0,0,0-.551-1.571,2.267,2.267,0,0,0-1.579-.477,1.725,1.725,0,0,0-1.579.806,5.181,5.181,0,0,0-.526,2.575v.847a5.733,5.733,0,0,0,.481,2.739,1.761,1.761,0,0,0,1.658.823A2.217,2.217,0,0,0,7.2-3.431,1.99,1.99,0,0,0,7.763-4.92Zm.888-.477a5.253,5.253,0,0,1,.518-2.373,3.706,3.706,0,0,1,1.489-1.6,4.484,4.484,0,0,1,2.279-.559,4.092,4.092,0,0,1,3.151,1.238A4.751,4.751,0,0,1,20.11-5.323v.1a4.609,4.609,0,0,1-1.156,3.3A4.1,4.1,0,0,1,15.824-.7,4.15,4.15,0,0,1,12.773-1.84a4.456,4.456,0,0,1-1.242-3.089Zm2.772.173a3.312,3.312,0,0,0,.387,1.81,1.288,1.288,0,0,0,1.143.576q1.481,0,1.514-2.279V-5.4q0-2.394-1.53-2.394-1.39,0-1.505,2.065Zm9.583-4.541.09,1.045A3.018,3.018,0,0,1,26.51-9.93a2.539,2.539,0,0,1,2.077.831A3.955,3.955,0,0,1,29.3-6.6V-.865h-2.78V-6.483a1.5,1.5,0,0,0-.271-.991,1.256,1.256,0,0,0-.987-.317,1.322,1.322,0,0,0-1.209.642V-.865H21.278v-8.9Zm10.184-2.213v2.213h1.464v1.925H34.061v4.072a1.04,1.04,0,0,0,.181.7.971.971,0,0,0,.716.2,4.067,4.067,0,0,0,.691-.049V-.939A5.116,5.116,0,0,1,34.086-.7a2.9,2.9,0,0,1-2.114-.675,2.765,2.765,0,0,1-.683-2.048V-7.841H30.154V-9.765h1.135v-2.213ZM42-7.257l-.913-.066a1.64,1.64,0,0,0-1.678.823V-.865H36.636v-8.9h2.6l.09,1.143a2.147,2.147,0,0,1,1.95-1.308,2.7,2.7,0,0,1,.773.1ZM42.353-5.4a5.253,5.253,0,0,1,.518-2.373,3.706,3.706,0,0,1,1.489-1.6,4.484,4.484,0,0,1,2.279-.559,4.092,4.092,0,0,1,3.151,1.238,4.751,4.751,0,0,1,1.152,3.369v.1a4.609,4.609,0,0,1-1.156,3.3A4.1,4.1,0,0,1,46.655-.7,4.15,4.15,0,0,1,43.6-1.84a4.456,4.456,0,0,1-1.242-3.089Zm2.772.173a3.312,3.312,0,0,0,.387,1.81,1.288,1.288,0,0,0,1.143.576q1.481,0,1.514-2.279V-5.4q0-2.394-1.53-2.394-1.39,0-1.505,2.065Zm9.962,4.36h-2.78V-13.5h2.78Z" transform="translate(399.32 2600.349)" fill="#12263f"/>
    <path id="Trazado_119093" data-name="Trazado 119093" d="M3.854-3.086H8.88V-.865H.967V-12.842H3.854ZM14.276-.7a4.575,4.575,0,0,1-3.315-1.222A4.218,4.218,0,0,1,9.695-5.1v-.23a5.466,5.466,0,0,1,.506-2.41,3.7,3.7,0,0,1,1.477-1.616,4.457,4.457,0,0,1,2.3-.572,3.853,3.853,0,0,1,2.961,1.164,4.574,4.574,0,0,1,1.086,3.245v1.078H12.516a2,2,0,0,0,.65,1.176,1.934,1.934,0,0,0,1.3.428,2.491,2.491,0,0,0,2.056-.921l1.267,1.5a3.541,3.541,0,0,1-1.468,1.139A4.962,4.962,0,0,1,14.276-.7Zm-.313-7.091q-1.217,0-1.448,1.612h2.8v-.214a1.373,1.373,0,0,0-.337-1.032A1.342,1.342,0,0,0,13.964-7.791Zm4.853,2.41a6.01,6.01,0,0,1,.444-2.386,3.576,3.576,0,0,1,1.275-1.6,3.361,3.361,0,0,1,1.933-.563,2.672,2.672,0,0,1,2.172.938l.1-.773h2.517V-1.2A3.753,3.753,0,0,1,26.71.842a3.51,3.51,0,0,1-1.583,1.333,5.82,5.82,0,0,1-2.4.465,5.021,5.021,0,0,1-1.9-.37,3.423,3.423,0,0,1-1.4-.962l1.16-1.629a2.542,2.542,0,0,0,2.04.913A1.651,1.651,0,0,0,24.468-1.3v-.28a2.6,2.6,0,0,1-2.015.88,3.217,3.217,0,0,1-2.632-1.246,5.163,5.163,0,0,1-1-3.336Zm2.78.173a3.166,3.166,0,0,0,.411,1.732,1.3,1.3,0,0,0,1.152.638,1.472,1.472,0,0,0,1.308-.6V-7.182a1.436,1.436,0,0,0-1.291-.609,1.306,1.306,0,0,0-1.16.662A3.611,3.611,0,0,0,21.6-5.208ZM33.846-.865a3.13,3.13,0,0,1-.263-.8A2.578,2.578,0,0,1,31.444-.7a3.158,3.158,0,0,1-2.139-.761,2.422,2.422,0,0,1-.88-1.913,2.489,2.489,0,0,1,1.069-2.188A5.448,5.448,0,0,1,32.6-6.3h.855v-.469Q33.459-8,32.4-8a.865.865,0,0,0-.987.971H28.639a2.489,2.489,0,0,1,1.1-2.1,4.611,4.611,0,0,1,2.8-.806,4.046,4.046,0,0,1,2.69.831A2.889,2.889,0,0,1,36.24-6.821v3.94A4.035,4.035,0,0,0,36.618-1v.14ZM32.11-2.675a1.546,1.546,0,0,0,.86-.222,1.392,1.392,0,0,0,.489-.5V-4.822h-.806q-1.448,0-1.448,1.3a.794.794,0,0,0,.255.613A.923.923,0,0,0,32.11-2.675ZM40.7-.865h-2.78V-13.5H40.7Z" transform="translate(506.929 2459.023)" fill="#1a1a52"/>
    <path id="Trazado_119094" data-name="Trazado 119094" d="M4.759-12.842,7.432-4.509,10.1-12.842h3.8V-.865H11v-2.8l.28-5.725L8.387-.865H6.478L3.574-9.4l.28,5.733v2.8H.967V-12.842ZM19.911-.7A4.575,4.575,0,0,1,16.6-1.922,4.218,4.218,0,0,1,15.329-5.1v-.23a5.466,5.466,0,0,1,.506-2.41,3.7,3.7,0,0,1,1.477-1.616,4.457,4.457,0,0,1,2.3-.572,3.853,3.853,0,0,1,2.961,1.164,4.574,4.574,0,0,1,1.086,3.245v1.078H18.151a2,2,0,0,0,.65,1.176,1.934,1.934,0,0,0,1.3.428,2.491,2.491,0,0,0,2.056-.921l1.267,1.5a3.541,3.541,0,0,1-1.468,1.139A4.962,4.962,0,0,1,19.911-.7ZM19.6-7.791q-1.217,0-1.448,1.612h2.8v-.214a1.373,1.373,0,0,0-.337-1.032A1.342,1.342,0,0,0,19.6-7.791Zm10.562.535-.913-.066A1.64,1.64,0,0,0,27.57-6.5V-.865H24.8v-8.9h2.6l.09,1.143a2.147,2.147,0,0,1,1.95-1.308,2.7,2.7,0,0,1,.773.1Zm4.607,4.417a1.233,1.233,0,0,0,.9-.317,1.161,1.161,0,0,0,.313-.884h2.6a3.077,3.077,0,0,1-1.049,2.4,3.9,3.9,0,0,1-2.7.938,3.95,3.95,0,0,1-3.06-1.217,4.8,4.8,0,0,1-1.119-3.373v-.115a5.421,5.421,0,0,1,.5-2.381,3.623,3.623,0,0,1,1.435-1.588,4.28,4.28,0,0,1,2.221-.555,3.852,3.852,0,0,1,2.756.962,3.414,3.414,0,0,1,1.02,2.608h-2.6a1.522,1.522,0,0,0-.337-1.061,1.164,1.164,0,0,0-.9-.37q-1.078,0-1.259,1.374a9.693,9.693,0,0,0-.058,1.2,3.807,3.807,0,0,0,.321,1.859A1.111,1.111,0,0,0,34.767-2.839Zm10,1.974a3.13,3.13,0,0,1-.263-.8A2.578,2.578,0,0,1,42.368-.7a3.158,3.158,0,0,1-2.139-.761,2.422,2.422,0,0,1-.88-1.913,2.489,2.489,0,0,1,1.069-2.188,5.448,5.448,0,0,1,3.109-.74h.855v-.469Q44.383-8,43.322-8a.865.865,0,0,0-.987.971H39.563a2.489,2.489,0,0,1,1.1-2.1,4.611,4.611,0,0,1,2.8-.806,4.046,4.046,0,0,1,2.69.831,2.889,2.889,0,0,1,1.012,2.279v3.94A4.035,4.035,0,0,0,47.542-1v.14Zm-1.736-1.81a1.546,1.546,0,0,0,.86-.222,1.392,1.392,0,0,0,.489-.5V-4.822h-.806q-1.448,0-1.448,1.3a.794.794,0,0,0,.255.613A.923.923,0,0,0,43.034-2.675Zm5.314-2.706a5.437,5.437,0,0,1,.913-3.332,3.005,3.005,0,0,1,2.55-1.217,2.556,2.556,0,0,1,2.007.938V-13.5H56.6V-.865H54.106l-.14-.954A2.625,2.625,0,0,1,51.795-.7a3,3,0,0,1-2.517-1.217A5.609,5.609,0,0,1,48.348-5.381Zm2.772.173q0,2.369,1.382,2.369a1.364,1.364,0,0,0,1.316-.773V-7a1.328,1.328,0,0,0-1.3-.79q-1.283,0-1.39,2.073ZM62.48-.7a4.575,4.575,0,0,1-3.315-1.222A4.218,4.218,0,0,1,57.9-5.1v-.23a5.466,5.466,0,0,1,.506-2.41,3.7,3.7,0,0,1,1.477-1.616,4.457,4.457,0,0,1,2.3-.572,3.853,3.853,0,0,1,2.961,1.164,4.574,4.574,0,0,1,1.086,3.245v1.078H60.72a2,2,0,0,0,.65,1.176,1.934,1.934,0,0,0,1.3.428,2.491,2.491,0,0,0,2.056-.921l1.267,1.5a3.541,3.541,0,0,1-1.468,1.139A4.962,4.962,0,0,1,62.48-.7Zm-.313-7.091q-1.217,0-1.448,1.612h2.8v-.214a1.373,1.373,0,0,0-.337-1.032A1.342,1.342,0,0,0,62.168-7.791ZM67-5.4a5.253,5.253,0,0,1,.518-2.373A3.706,3.706,0,0,1,69-9.371a4.484,4.484,0,0,1,2.279-.559,4.092,4.092,0,0,1,3.151,1.238,4.751,4.751,0,0,1,1.152,3.369v.1a4.609,4.609,0,0,1-1.156,3.3A4.1,4.1,0,0,1,71.3-.7,4.15,4.15,0,0,1,68.247-1.84,4.456,4.456,0,0,1,67-4.929Zm2.772.173a3.312,3.312,0,0,0,.387,1.81,1.288,1.288,0,0,0,1.143.576q1.481,0,1.514-2.279V-5.4q0-2.394-1.53-2.394-1.39,0-1.505,2.065Z" transform="translate(604.266 2579.758)"/>
    <g id="gestion-de-proyectos" transform="translate(268.329 2432.051)">
      <g id="Grupo_82668" data-name="Grupo 82668" transform="translate(0 0.226)">
        <g id="Grupo_82667" data-name="Grupo 82667">
          <path id="Trazado_116123" data-name="Trazado 116123" d="M53.866,16.173h0l0,0-3.527-.5a.907.907,0,0,1-.416-1.623l2.851-2.138a.907.907,0,0,0,.181-1.269L49.689,6.285A.907.907,0,0,0,48.419,6.1l-2.85,2.138a.907.907,0,0,1-1.445-.853l.5-3.527a.907.907,0,0,0-.769-1.026h0l-5.382-.769a.907.907,0,0,0-1.026.769h0l-.5,3.527a.907.907,0,0,1-1.623.416L33.186,3.928a.907.907,0,0,0-1.269-.181L29.191,5.791a17.543,17.543,0,0,0-3.708,0,17.227,17.227,0,0,0-15.19,15.448c-.024.257-.034.511-.046.766H9.975a.907.907,0,0,0-.887.725l-.627,2.979-2.51-1.731a.907.907,0,0,0-1.156.105L2.075,26.8a.907.907,0,0,0-.105,1.155l1.723,2.505-2.98.627A.907.907,0,0,0,0,31.978v3.627a.907.907,0,0,0,.72.888l2.98.627L1.978,39.625a.907.907,0,0,0,.105,1.155L4.8,43.5a.907.907,0,0,0,1.156.105l2.505-1.727.627,2.98a.907.907,0,0,0,.887.725H13.6a.907.907,0,0,0,.888-.72l.627-2.98,2.505,1.723a.907.907,0,0,0,1.155-.105l1.408-1.413v2.584A3.615,3.615,0,0,0,22,47.8v5.038a3.627,3.627,0,0,0,3.627,3.627h3.627a3.627,3.627,0,0,0,3.627-3.627V47.8a3.615,3.615,0,0,0,1.813-3.123V41.084a4.443,4.443,0,0,1,2.1-3.7,17.4,17.4,0,0,0,2.134-1.632L37.716,34.4a15.436,15.436,0,0,1-1.91,1.461,6.245,6.245,0,0,0-2.925,5.224v3.589a1.813,1.813,0,0,1-1.813,1.813H23.814A1.813,1.813,0,0,1,22,44.672V41.008a6.1,6.1,0,0,0-2.876-5.117,15.368,15.368,0,0,1,8.121-28.38.986.986,0,0,0-.035.1.907.907,0,0,0,.173.672l2.137,2.85a.888.888,0,0,1,.054,1.006.9.9,0,0,1-.907.436l-3.527-.5a.907.907,0,0,0-1.026.769h0l-.77,5.385a.907.907,0,0,0,.769,1.026h0l3.527.5a.907.907,0,0,1,.416,1.623l-2.85,2.137a.907.907,0,0,0-.181,1.269l3.264,4.352a.907.907,0,0,0,1.269.181l2.851-2.137a.907.907,0,0,1,1.441.853l-.5,3.527a.907.907,0,0,0,.769,1.026h0l5.386.77a1.006,1.006,0,0,0,.128.008.907.907,0,0,0,.9-.778l.5-3.527a.907.907,0,0,1,1.623-.416l2.138,2.85a.907.907,0,0,0,1.269.181l4.352-3.264a.907.907,0,0,0,.181-1.269l-2.137-2.85a.891.891,0,0,1-.054-1.006.88.88,0,0,1,.907-.435l3.527.5a.907.907,0,0,0,1.026-.769h0l.769-5.386A.907.907,0,0,0,53.866,16.173ZM23.814,48.3h7.254v1.813H23.814Zm0,3.627h7.254v.907a1.813,1.813,0,0,1-1.813,1.813H25.627a1.813,1.813,0,0,1-1.813-1.813ZM16.6,36.29a17.136,17.136,0,0,0,1.55,1.129,4.426,4.426,0,0,1,1.827,2.32L18.027,41.68l-1.883-1.3a1.813,1.813,0,0,0-2.8,1.12l-.475,2.264H10.71l-.475-2.26a1.813,1.813,0,0,0-2.8-1.12L5.547,41.68,3.9,40.032l1.3-1.882a1.814,1.814,0,0,0-1.119-2.8l-2.26-.476V32.715l2.26-.476a1.813,1.813,0,0,0,1.12-2.8L3.9,27.552,5.547,25.9l1.885,1.3a1.813,1.813,0,0,0,2.8-1.121l.159-.754a17.267,17.267,0,0,0,.719,3.075A5.44,5.44,0,1,0,16.6,36.29Zm-1.408-1.278a3.621,3.621,0,1,1-3.4-4.847h.034A17.172,17.172,0,0,0,15.187,35.012ZM52.194,21.428l-2.629-.375A2.72,2.72,0,0,0,47,25.378L48.6,27.5l-2.9,2.176L44.1,27.555A2.72,2.72,0,0,0,39.232,28.8l-.367,2.633-3.59-.513.375-2.629a2.72,2.72,0,0,0-4.325-2.561L29.2,27.323l-2.176-2.9,2.124-1.594A2.72,2.72,0,0,0,27.9,17.959l-2.629-.375.513-3.59,2.629.375a2.72,2.72,0,0,0,2.561-4.325l-1.6-2.126,2.9-2.176,1.594,2.124A2.72,2.72,0,0,0,38.743,6.62l.375-2.629,3.59.512-.375,2.629a2.72,2.72,0,0,0,4.325,2.561L48.782,8.1,50.958,11l-2.124,1.594a2.72,2.72,0,0,0,1.247,4.869l2.629.375Z" transform="translate(0 -2.057)"/>
        </g>
      </g>
      <g id="Grupo_82670" data-name="Grupo 82670" transform="translate(31.735 8.626)">
        <g id="Grupo_82669" data-name="Grupo 82669">
          <path id="Trazado_116124" data-name="Trazado 116124" d="M287.254,76.171a7.254,7.254,0,1,0,7.254,7.254A7.254,7.254,0,0,0,287.254,76.171Zm0,12.694a5.44,5.44,0,1,1,5.44-5.44A5.44,5.44,0,0,1,287.254,88.865Z" transform="translate(-280 -76.171)"/>
        </g>
      </g>
      <g id="Grupo_82672" data-name="Grupo 82672" transform="translate(26.534 40.121)">
        <g id="Grupo_82671" data-name="Grupo 82671">
          <rect id="Rectángulo_35069" data-name="Rectángulo 35069" width="1.813" height="2.72"/>
        </g>
      </g>
      <g id="Grupo_82674" data-name="Grupo 82674" transform="translate(14.739 10.339)">
        <g id="Grupo_82673" data-name="Grupo 82673">
          <path id="Trazado_116125" data-name="Trazado 116125" d="M138.78,112.168a10.881,10.881,0,0,1-1.837-19.343l-.969-1.534a12.694,12.694,0,0,0,2.148,22.564,5.789,5.789,0,0,1,3.717,5.4h1.813A7.586,7.586,0,0,0,138.78,112.168Z" transform="translate(-130.044 -91.291)"/>
        </g>
      </g>
      <g id="Grupo_82676" data-name="Grupo 82676" transform="translate(44.668 33.774)">
        <g id="Grupo_82675" data-name="Grupo 82675">
          <rect id="Rectángulo_35070" data-name="Rectángulo 35070" width="6.347" height="1.813"/>
        </g>
      </g>
      <g id="Grupo_82678" data-name="Grupo 82678" transform="translate(43.181 38.517)">
        <g id="Grupo_82677" data-name="Grupo 82677" transform="translate(0 0)">
          <rect id="Rectángulo_35071" data-name="Rectángulo 35071" width="1.813" height="7.081" transform="matrix(0.64, -0.768, 0.768, 0.64, 0, 1.393)"/>
        </g>
      </g>
      <g id="Grupo_82680" data-name="Grupo 82680" transform="translate(39.228 41.028)">
        <g id="Grupo_82679" data-name="Grupo 82679">
          <rect id="Rectángulo_35072" data-name="Rectángulo 35072" width="1.813" height="6.347"/>
        </g>
      </g>
      <g id="Grupo_82682" data-name="Grupo 82682" transform="translate(0.926 13.853)">
        <g id="Grupo_82681" data-name="Grupo 82681" transform="translate(0 0)">
          <rect id="Rectángulo_35073" data-name="Rectángulo 35073" width="7.477" height="1.813" transform="translate(0 1.813) rotate(-14.035)"/>
        </g>
      </g>
      <g id="Grupo_82684" data-name="Grupo 82684" transform="translate(2.432 4.929)">
        <g id="Grupo_82683" data-name="Grupo 82683" transform="translate(0 0)">
          <rect id="Rectángulo_35074" data-name="Rectángulo 35074" width="1.813" height="7.8" transform="matrix(0.581, -0.814, 0.814, 0.581, 0, 1.475)"/>
        </g>
      </g>
      <g id="Grupo_82686" data-name="Grupo 82686" transform="translate(10.201 0)">
        <g id="Grupo_82685" data-name="Grupo 82685" transform="translate(0 0)">
          <rect id="Rectángulo_35075" data-name="Rectángulo 35075" width="1.813" height="7.487" transform="matrix(0.969, -0.248, 0.248, 0.969, 0, 0.449)"/>
        </g>
      </g>
    </g>
    <g id="_010---Quality-Assurance" data-name="010---Quality-Assurance" transform="translate(396.551 2518.417)">
      <path id="Shape" d="M26.782,51.563a25.625,25.625,0,0,0,14.231-4.3L54.178,60.391a5.087,5.087,0,1,0,6.627-7.679L46.6,42.245a25.77,25.77,0,1,0-19.823,9.317Zm32.8,2.812a3.005,3.005,0,0,1,.343,4.554,3.126,3.126,0,0,1-4.3,0L42.7,46.038a25.914,25.914,0,0,0,2.511-2.254ZM26.782,2.062A23.719,23.719,0,1,1,3.063,25.781,23.719,23.719,0,0,1,26.782,2.062Z" transform="translate(-0.997 -0.02)"/>
      <path id="Shape-2" data-name="Shape" d="M16,25.313A10.313,10.313,0,1,0,26.313,15,10.313,10.313,0,0,0,16,25.313Zm10.313-8.25a8.25,8.25,0,1,1-8.25,8.25A8.25,8.25,0,0,1,26.313,17.063Z" transform="translate(-0.528 0.448)"/>
      <path id="Shape-3" data-name="Shape" d="M17.887,13.619,14.1,15.063A2.077,2.077,0,0,0,12.756,16.9l-.195,4.05-2.219,3.39a2.071,2.071,0,0,0,0,2.277l2.222,3.392.195,4.05A2.076,2.076,0,0,0,14.1,35.9l3.788,1.434L20.421,40.5a2.08,2.08,0,0,0,2.166.7L26.5,40.132l3.911,1.07a2.079,2.079,0,0,0,2.166-.705l2.537-3.159,3.793-1.444a2.079,2.079,0,0,0,1.341-1.842L40.442,30l2.22-3.39a2.071,2.071,0,0,0,0-2.277L40.44,20.945l-.195-4.05A2.078,2.078,0,0,0,38.9,15.054l-3.791-1.434-2.529-3.159a2.077,2.077,0,0,0-2.166-.705L26.5,10.827,22.59,9.755a2.076,2.076,0,0,0-2.166.705Zm4.159-1.879,4.182,1.145a1.017,1.017,0,0,0,.545,0l4.2-1.14,2.71,3.384a1.031,1.031,0,0,0,.44.32L38.183,17l.206,4.331a1.043,1.043,0,0,0,.167.516l2.381,3.636v.01l-2.372,3.627a1.043,1.043,0,0,0-.167.516l-.217,4.342-4.055,1.535a1.031,1.031,0,0,0-.44.32l-2.726,3.388L26.78,38.071a1.045,1.045,0,0,0-.545,0l-4.2,1.141-2.71-3.384a1.031,1.031,0,0,0-.44-.32l-4.063-1.547-.206-4.331a1.043,1.043,0,0,0-.167-.516l-2.388-3.642,2.372-3.627a1.043,1.043,0,0,0,.167-.516l.217-4.342,4.055-1.536a1.018,1.018,0,0,0,.44-.32Z" transform="translate(-0.716 0.282)"/>
      <path id="Path" d="M26.657,47.313A21.657,21.657,0,1,0,26.657,4a1.031,1.031,0,0,0,0,2.063,19.587,19.587,0,1,1-5.878.9A1.031,1.031,0,1,0,20.16,5a21.657,21.657,0,0,0,6.5,42.317Z" transform="translate(-0.872 0.104)"/>
      <path id="Path-2" data-name="Path" d="M24.364,28.948a1.031,1.031,0,0,0,.729.3.869.869,0,0,0,.1,0,1.031,1.031,0,0,0,.756-.454l4.125-6.188a1.031,1.031,0,1,0-1.716-1.145L24.934,26.6,23.76,25.427A1.031,1.031,0,0,0,22.3,26.885Z" transform="translate(-0.34 0.636)"/>
    </g>
    <g id="subasta" transform="translate(502.27 2378.993)">
      <g id="Grupo_82688" data-name="Grupo 82688" transform="translate(10.698 18.21)">
        <g id="Grupo_82687" data-name="Grupo 82687">
          <path id="Trazado_116126" data-name="Trazado 116126" d="M102.518,171.731a1.062,1.062,0,1,0,0,1.5A1.063,1.063,0,0,0,102.518,171.731Z" transform="translate(-100.704 -171.42)"/>
        </g>
      </g>
      <g id="Grupo_82690" data-name="Grupo 82690" transform="translate(0 41.64)">
        <g id="Grupo_82689" data-name="Grupo 82689">
          <path id="Trazado_116127" data-name="Trazado 116127" d="M26.9,397.907a3.719,3.719,0,0,0-3-5.92H5.842a3.715,3.715,0,0,0-2.994,5.919A5.316,5.316,0,0,0,0,402.609v1.062a1.062,1.062,0,0,0,1.062,1.062H28.681a1.062,1.062,0,0,0,1.062-1.062v-1.062A5.315,5.315,0,0,0,26.9,397.907ZM4.715,394.578a1.583,1.583,0,0,1,1.127-.466H23.9a1.593,1.593,0,1,1,0,3.187H5.842a1.594,1.594,0,0,1-1.127-2.72Zm-2.591,8.032a3.19,3.19,0,0,1,3.187-3.187H24.432a3.19,3.19,0,0,1,3.187,3.187Z" transform="translate(0 -391.987)"/>
        </g>
      </g>
      <g id="Grupo_82692" data-name="Grupo 82692" transform="translate(0.002 0)">
        <g id="Grupo_82691" data-name="Grupo 82691">
          <path id="Trazado_116128" data-name="Trazado 116128" d="M53.419,44.63a6.689,6.689,0,0,0-1.28-1.469l-4.964-4.329a1.054,1.054,0,0,0-.423-.369l-3-2.618L29.858,23.725a3.181,3.181,0,0,0-.933-5.074l1.285-1.285a4.252,4.252,0,0,0,4.1-1.1,4.248,4.248,0,0,0,0-6.009L25.3,1.246a4.247,4.247,0,0,0-7.107,4.1L5.367,18.172a4.275,4.275,0,0,0-1.1-.144,4.249,4.249,0,0,0-3,7.253l9.013,9.013a4.248,4.248,0,0,0,7.107-4.1l1.283-1.283a3.188,3.188,0,0,0,5.075.931l14.8,17a1.067,1.067,0,0,0,.144.18c.019.019.039.036.059.054l4.41,5.066c.11.129.227.257.348.378a6.318,6.318,0,0,0,4.49,1.868,6.521,6.521,0,0,0,.894-.062,6.428,6.428,0,0,0,4.742-3.283A6.286,6.286,0,0,0,53.419,44.63ZM20.792,2.748a2.124,2.124,0,0,1,3,0l9.013,9.013a2.124,2.124,0,0,1-3,3L20.793,5.753h0A2.126,2.126,0,0,1,20.792,2.748ZM14.784,32.792a2.127,2.127,0,0,1-3,0L2.766,23.779a2.124,2.124,0,0,1,3-3.005l9.015,9.015A2.126,2.126,0,0,1,14.784,32.792Zm4.472-7.476-2.97,2.97L7.272,19.272,19.29,7.254,28.3,16.268l-2.976,2.976-.029.028-6.006,6.006Zm3.793,2.216-.006.006-.748.748A1.062,1.062,0,0,1,20.779,26.8l6.034-6.034a1.062,1.062,0,0,1,1.8.763,1.053,1.053,0,0,1-.311.751l-.744.744-.015.015Zm2.2.8,3.1-3.1L41.5,36.7l-4.8,4.8ZM38.1,43.1l5-5,1.6,1.4-5.21,5.21Zm13.675,6.905a4.321,4.321,0,0,1-3.18,2.217A4.221,4.221,0,0,1,45,51.019c-.082-.082-.16-.167-.233-.253l-.01-.012L40.9,46.314,46.313,40.9l4.435,3.869.01.009a4.573,4.573,0,0,1,.876,1.009A4.194,4.194,0,0,1,51.775,50.007Z" transform="translate(-0.021 -0.001)"/>
        </g>
      </g>
      <g id="Grupo_82694" data-name="Grupo 82694" transform="translate(13.702 10.698)">
        <g id="Grupo_82693" data-name="Grupo 82693">
          <path id="Trazado_116129" data-name="Trazado 116129" d="M135.306,101.018a1.062,1.062,0,0,0-1.5,0l-4.507,4.507a1.062,1.062,0,1,0,1.5,1.5l4.507-4.507A1.062,1.062,0,0,0,135.306,101.018Z" transform="translate(-128.985 -100.707)"/>
        </g>
      </g>
    </g>
    <g id="mercadeo-social" transform="translate(616.878 2499.836)">
      <path id="Trazado_116130" data-name="Trazado 116130" d="M174.164,150.692a2.673,2.673,0,0,0-2.623,2.177l-8.564,3.557h-3.1a2.406,2.406,0,0,0-2.466,2.336v4.019a2.342,2.342,0,0,0,1.5,2.151v5.246a2.524,2.524,0,1,0,5.047,0v-4.653l7.585,3.151a2.669,2.669,0,0,0,5.293-.493v-3.007a4.546,4.546,0,0,0,0-8.806v-3.007A2.673,2.673,0,0,0,174.164,150.692Zm-10.208,7.1,7.538-3.131v12.231l-7.538-3.131Zm-4.917.975a.777.777,0,0,1,.833-.7h2.451v5.426h-2.451a.777.777,0,0,1-.833-.7v-4.019Zm2.393,12.306a.891.891,0,0,1-.891-.891v-5.06h1.781v5.06a.891.891,0,0,1-.89.891Zm13.768-2.886a1.036,1.036,0,1,1-2.073,0V153.362a1.036,1.036,0,1,1,2.073,0Zm3.416-7.411a2.936,2.936,0,0,1-1.783,2.684v-5.367A2.936,2.936,0,0,1,178.616,160.772Z" transform="translate(-140.302 -134.317)" fill="#1a1a52"/>
      <path id="Trazado_116131" data-name="Trazado 116131" d="M48.146,41.781a6.316,6.316,0,0,0-3.886,1.325l-3.7-3.7a17.155,17.155,0,0,0,4.453-10.769h2.967a3.873,3.873,0,1,0,0-1.633H45.012a17.155,17.155,0,0,0-4.453-10.769l3.7-3.7a6.318,6.318,0,0,0,3.865,1.325h0a.817.817,0,0,0,0-1.633,4.732,4.732,0,1,1,3.362-1.386,4.771,4.771,0,0,1-.68.564.817.817,0,1,0,.921,1.348,6.406,6.406,0,0,0,.913-.758,6.365,6.365,0,1,0-9.541-.616l-3.7,3.7a17.155,17.155,0,0,0-10.769-4.453V7.658a3.873,3.873,0,1,0-1.633,0v2.967a17.155,17.155,0,0,0-10.769,4.453l-3.7-3.7a6.36,6.36,0,1,0-1.154,1.155l3.7,3.7A17.2,17.2,0,0,0,12.737,19.5a.817.817,0,0,0,1.43.79,15.591,15.591,0,1,1-1.219,2.847.817.817,0,0,0-1.558-.489A17.334,17.334,0,0,0,10.613,27H7.658a3.873,3.873,0,1,0,0,1.633h2.954A17.163,17.163,0,0,0,15.079,39.4l-3.7,3.7A6.365,6.365,0,1,0,7.491,54.511a.817.817,0,0,0,0-1.633,4.732,4.732,0,1,1,3.346-1.386,4.773,4.773,0,0,1-.743.607.817.817,0,0,0,.9,1.363,6.369,6.369,0,0,0,1.537-9.2l3.7-3.7A17.155,17.155,0,0,0,27,45.011v2.967a3.873,3.873,0,1,0,1.633,0V45.012A17.155,17.155,0,0,0,39.4,40.558l3.7,3.7a6.363,6.363,0,1,0,5.04-2.48ZM25.579,3.873a2.239,2.239,0,1,1,2.239,2.239A2.242,2.242,0,0,1,25.579,3.873ZM4.145,10.836a4.732,4.732,0,1,1,3.346,1.386A4.7,4.7,0,0,1,4.145,10.836ZM51.764,25.579a2.239,2.239,0,1,1-2.239,2.239A2.242,2.242,0,0,1,51.764,25.579ZM3.873,30.058a2.239,2.239,0,1,1,2.239-2.239A2.242,2.242,0,0,1,3.873,30.058ZM30.058,51.764a2.239,2.239,0,1,1-2.239-2.239A2.242,2.242,0,0,1,30.058,51.764Zm21.434-.272a4.732,4.732,0,1,1,1.386-3.346A4.7,4.7,0,0,1,51.492,51.492Z" transform="translate(0)" fill="#1a1a52"/>
    </g>
  </g>
</svg>
