<svg xmlns="http://www.w3.org/2000/svg" width="66.121" height="66.116" viewBox="0 0 66.121 66.116">
  <g id="_010---Quality-Assurance" data-name="010---Quality-Assurance" transform="translate(-0.997 -0.02)">
    <path id="Shape" d="M28.547,55.091A27.379,27.379,0,0,0,43.752,50.5L57.819,64.524a5.435,5.435,0,1,0,7.081-8.2L49.727,45.136a27.534,27.534,0,1,0-21.18,9.955Zm35.048,3a3.211,3.211,0,0,1,.367,4.866,3.34,3.34,0,0,1-4.589,0L45.557,49.188A27.688,27.688,0,0,0,48.24,46.78ZM28.547,2.2A25.343,25.343,0,1,1,3.2,27.544,25.343,25.343,0,0,1,28.547,2.2Z" transform="translate(0 0)"/>
    <path id="Shape-2" data-name="Shape" d="M16,26.019A11.019,11.019,0,1,0,27.019,15,11.019,11.019,0,0,0,16,26.019ZM27.019,17.2A8.815,8.815,0,1,1,18.2,26.019,8.815,8.815,0,0,1,27.019,17.2Z" transform="translate(1.528 1.526)"/>
    <path id="Shape-3" data-name="Shape" d="M18.427,13.889l-4.05,1.543A2.219,2.219,0,0,0,12.944,17.4l-.208,4.327-2.371,3.622a2.213,2.213,0,0,0,0,2.433l2.375,3.624.208,4.327A2.218,2.218,0,0,0,14.38,37.7l4.047,1.533,2.707,3.381a2.222,2.222,0,0,0,2.314.753l4.182-1.148,4.178,1.144a2.221,2.221,0,0,0,2.314-.754l2.711-3.375,4.053-1.543a2.221,2.221,0,0,0,1.432-1.968l.208-4.326L44.9,27.773a2.213,2.213,0,0,0,0-2.433l-2.375-3.624-.208-4.327a2.22,2.22,0,0,0-1.432-1.968l-4.05-1.533-2.7-3.375a2.219,2.219,0,0,0-2.314-.754L27.63,10.905,23.451,9.76a2.218,2.218,0,0,0-2.314.754Zm4.444-2.008L27.339,13.1a1.086,1.086,0,0,0,.582,0l4.485-1.218L35.3,15.5a1.1,1.1,0,0,0,.47.342L40.113,17.5l.22,4.628a1.114,1.114,0,0,0,.178.551l2.544,3.885v.011l-2.534,3.875a1.114,1.114,0,0,0-.179.551l-.231,4.639-4.333,1.64a1.1,1.1,0,0,0-.47.342L32.4,41.237l-4.468-1.223a1.116,1.116,0,0,0-.582,0l-4.485,1.219-2.9-3.615a1.1,1.1,0,0,0-.47-.342l-4.341-1.653L14.934,31a1.114,1.114,0,0,0-.179-.551L12.2,26.553l2.534-3.875a1.114,1.114,0,0,0,.179-.551l.231-4.639,4.333-1.641a1.088,1.088,0,0,0,.47-.342Z" transform="translate(0.917 0.984)"/>
    <path id="Path" d="M28.14,50.278A23.139,23.139,0,1,0,28.14,4a1.1,1.1,0,1,0,0,2.2,20.928,20.928,0,1,1-6.281.962,1.1,1.1,0,1,0-.661-2.1A23.139,23.139,0,0,0,28.14,50.278Z" transform="translate(0.407 0.405)"/>
    <path id="Path-2" data-name="Path" d="M24.525,29.492a1.1,1.1,0,0,0,.779.323.928.928,0,0,0,.11,0,1.1,1.1,0,0,0,.808-.485l4.407-6.611A1.1,1.1,0,1,0,28.8,21.5l-3.663,5.487L23.88,25.73a1.1,1.1,0,0,0-1.558,1.558Z" transform="translate(2.141 2.137)"/>
  </g>
</svg>
