<svg id="Grupo_82626" data-name="Grupo 82626" xmlns="http://www.w3.org/2000/svg" xmlns:xlink="http://www.w3.org/1999/xlink" width="210" height="155.418" viewBox="0 0 210 155.418">
  <defs>
    <clipPath id="clip-path">
      <rect id="Rectángulo_35046" data-name="Rectángulo 35046" width="210" height="155.418" fill="none"/>
    </clipPath>
  </defs>
  <g id="Grupo_82625" data-name="Grupo 82625" clip-path="url(#clip-path)">
    <path id="Trazado_116012" data-name="Trazado 116012" d="M193.309,166.988c22.347-16.992,32.3-64.109-3.986-87.213-24.022-15.293-38.962-6.569-65.986-16.686C90.347,50.742,85.429,13.436,45.3,31.793c-21.26,9.722-36,37.122-38.59,68.264-2.541,30.5,8.268,51.422,30.356,65.741C88.935,168,140.908,167.6,193.309,166.988" transform="translate(-3.359 -14.191)" fill="#79dfef"/>
    <path id="Trazado_116013" data-name="Trazado 116013" d="M207.946,18.776c-3.375,13.552,9.159,26.968,22.364,32.53s28.348,4.9,42.495,2.249c6.1-1.143,12.379-2.753,17.121-6.644s7.492-10.649,4.892-16.107c-2.293-4.814-7.877-7.28-13.2-8.545s-10.976-1.783-15.718-4.447c-4.5-2.527-7.687-6.71-11.6-10.023C247.075,1.676,236.924-1.354,227.53.58s-16.715,6.677-19.585,18.2" transform="translate(-109.801 0)" fill="#79dfef"/>
    <path id="Trazado_116014" data-name="Trazado 116014" d="M370.782,140.275V130.023h-3.888a19.893,19.893,0,0,0-2.09-5.039l2.749-2.753-7.25-7.25-2.753,2.749a19.9,19.9,0,0,0-5.04-2.091v-3.887H342.258v3.887a19.894,19.894,0,0,0-5.039,2.091l-2.753-2.749-7.25,7.25,2.749,2.753a20.048,20.048,0,0,0-2.091,5.039h-3.887v10.252h3.887a20.058,20.058,0,0,0,2.091,5.04l-2.749,2.753,7.25,7.25,2.753-2.749a20.065,20.065,0,0,0,5.039,2.09v3.888H352.51V154.66a20.068,20.068,0,0,0,5.04-2.09l2.753,2.749,7.25-7.25-2.749-2.753a19.9,19.9,0,0,0,2.09-5.04Zm-23.4,3.756a8.883,8.883,0,1,1,8.88-8.886,8.886,8.886,0,0,1-8.88,8.886" transform="translate(-171.532 -59.166)" fill="#05339e"/>
    <path id="Trazado_116017" data-name="Trazado 116017" d="M283.2,43A16.2,16.2,0,1,1,267,26.8,16.183,16.183,0,0,1,283.2,43" transform="translate(-132.784 -14.191)" fill="#13b770"/>
    <path id="Trazado_116019" data-name="Trazado 116019" d="M279.259,38.631a5.3,5.3,0,1,1-5.3,5.3,5.3,5.3,0,0,1,5.3-5.3" transform="translate(-145.044 -20.453)" fill="#fff"/>
    <path id="Trazado_116020" data-name="Trazado 116020" d="M283.968,70.727a16.21,16.21,0,0,1-20.09,0c1.036-4.558,1.989-8.494,2.981-9.491,1.4-1.4,5.122-2.218,7.059-2.218s5.833.992,6.552,1.712c1.469,1.464,2.734,5.507,3.5,10" transform="translate(-139.708 -31.247)" fill="#fff"/>
    <path id="Trazado_116021" data-name="Trazado 116021" d="M235.75,132.647v-8a3.952,3.952,0,0,1,3.953-3.953h25.2a3.952,3.952,0,0,1,3.953,3.953v8a3.952,3.952,0,0,1-3.953,3.953h-25.2a3.953,3.953,0,0,1-3.957-3.953" transform="translate(-124.816 -63.901)" fill="#eecf52"/>
    <path id="Trazado_116022" data-name="Trazado 116022" d="M244.647,145.205l-12.2,11.882,19.768-9.99" transform="translate(-123.069 -76.878)" fill="#eecf52"/>
    <path id="Trazado_116023" data-name="Trazado 116023" d="M242.25,127.966v-.042a.588.588,0,0,1,.588-.588H255.3a.588.588,0,0,1,.588.588v.042a.588.588,0,0,1-.588.588h-12.46a.588.588,0,0,1-.588-.588" transform="translate(-128.258 -67.417)" fill="#fff"/>
    <path id="Trazado_116024" data-name="Trazado 116024" d="M272.42,127.966v-.042a.588.588,0,0,1,.588-.588h10.875a.588.588,0,0,1,.588.588v.042a.588.588,0,0,1-.588.588H273.008a.588.588,0,0,1-.588-.588" transform="translate(-144.231 -67.417)" fill="#fff"/>
    <path id="Trazado_116025" data-name="Trazado 116025" d="M262.33,133.656v-.042a.588.588,0,0,1,.588-.588h15.622a.588.588,0,0,1,.588.588v.042a.588.588,0,0,1-.588.588H262.918a.588.588,0,0,1-.588-.588" transform="translate(-138.889 -70.429)" fill="#fff"/>
    <path id="Trazado_116026" data-name="Trazado 116026" d="M242.25,133.656v-.042a.588.588,0,0,1,.588-.588h6.978a.588.588,0,0,1,.588.588v.042a.588.588,0,0,1-.588.588h-6.978a.588.588,0,0,1-.588-.588" transform="translate(-128.258 -70.429)" fill="#fff"/>
    <path id="Trazado_116027" data-name="Trazado 116027" d="M266.94,139.346V139.3a.588.588,0,0,1,.588-.588h13.453a.588.588,0,0,1,.588.588v.042a.588.588,0,0,1-.588.588H267.528a.588.588,0,0,1-.588-.588" transform="translate(-141.33 -73.442)" fill="#fff"/>
    <path id="Trazado_116028" data-name="Trazado 116028" d="M242.25,139.346V139.3a.588.588,0,0,1,.588-.588h9.293a.588.588,0,0,1,.588.588v.042a.588.588,0,0,1-.588.588h-9.293a.588.588,0,0,1-.588-.588" transform="translate(-128.258 -73.442)" fill="#fff"/>
    <path id="Trazado_116029" data-name="Trazado 116029" d="M242.25,145.036v-.042a.588.588,0,0,1,.588-.588h3.449a.588.588,0,0,1,.588.588v.042a.588.588,0,0,1-.588.588h-3.449a.588.588,0,0,1-.588-.588" transform="translate(-128.258 -76.454)" fill="#fff"/>
    <path id="Trazado_116030" data-name="Trazado 116030" d="M254.67,145.036v-.042a.588.588,0,0,1,.588-.588h19.227a.588.588,0,0,1,.588.588v.042a.588.588,0,0,1-.588.588H255.258a.588.588,0,0,1-.588-.588" transform="translate(-134.833 -76.454)" fill="#fff"/>
    <path id="Trazado_116031" data-name="Trazado 116031" d="M50.438,75.947a15.585,15.585,0,1,1-9.041,20.1,15.585,15.585,0,0,1,9.041-20.1" transform="translate(-21.378 -39.671)" fill="#13b770"/>
    <path id="Trazado_116032" data-name="Trazado 116032" d="M64.857,121.7a3.777,3.777,0,1,1-1.77-5.039,3.776,3.776,0,0,1,1.77,5.039" transform="translate(-30.536 -61.567)" fill="#fff"/>
    <path id="Trazado_116033" data-name="Trazado 116033" d="M61.284,122.974l-.182-2.4,1.983-1.356,2.166,1.04.182,2.4-1.983,1.355Z" transform="translate(-32.35 -63.122)" fill="#0097d8"/>
    <path id="Trazado_116034" data-name="Trazado 116034" d="M80.467,89.187a3.777,3.777,0,1,1-1.77-5.039,3.776,3.776,0,0,1,1.77,5.039" transform="translate(-38.8 -44.354)" fill="#fff"/>
    <path id="Trazado_116035" data-name="Trazado 116035" d="M77.332,88.513l.13-3.045,2.3-2.006L81.922,84.5l-.13,3.045-2.3,2.006Z" transform="translate(-40.943 -44.189)" fill="#13b770"/>
    <path id="Trazado_116036" data-name="Trazado 116036" d="M68.011,107.125l-2.889-1.387,2.135-4.925q.2-.469.442-.921l2.509-4.746L73.1,96.533l-2.059,4.85q-.239.563-.529,1.1Z" transform="translate(-34.478 -50.374)" fill="#fff"/>
    <path id="Trazado_116037" data-name="Trazado 116037" d="M96.514,119.387c.557-.258,9.5.15,9.5.15l-6.446-5.918Z" transform="translate(-51.099 -60.155)" fill="#13b770"/>
    <path id="Trazado_116038" data-name="Trazado 116038" d="M133.176,6.579a15.318,15.318,0,1,1-15.226,15.409A15.318,15.318,0,0,1,133.176,6.579" transform="translate(-62.448 -3.483)" fill="#13b770"/>
    <rect id="Rectángulo_35043" data-name="Rectángulo 35043" width="1.023" height="12.864" transform="translate(70.309 5.36)" fill="#fff"/>
    <rect id="Rectángulo_35044" data-name="Rectángulo 35044" width="13.039" height="1.023" transform="matrix(0.822, -0.569, 0.569, 0.822, 59.517, 25.646)" fill="#fff"/>
    <path id="Trazado_116039" data-name="Trazado 116039" d="M150.327,37.545a1.41,1.41,0,1,1-1.41-1.41,1.41,1.41,0,0,1,1.41,1.41" transform="translate(-78.097 -19.131)" fill="#fff"/>
    <path id="Trazado_116045" data-name="Trazado 116045" d="M251.969,274.115A101.573,101.573,0,0,1,222.78,286.6" transform="translate(-117.949 -145.128)" fill="none" stroke="#6f8bbf" stroke-linecap="round" stroke-miterlimit="10" stroke-width="1"/>
    <path id="Trazado_116057" data-name="Trazado 116057" d="M369.926,229.1a125.117,125.117,0,0,0-5.576,31.057" transform="translate(-192.903 -121.298)" fill="none" stroke="#6f8bbf" stroke-linecap="round" stroke-miterlimit="10" stroke-width="1"/>
    <path id="Trazado_116058" data-name="Trazado 116058" d="M342.5,272.029c4.1-11.133,3.284-23.754-2.146-33.014a50.905,50.905,0,0,0-3.092,18.173c.1,6.992,2.452,12.489,5.237,14.841" transform="translate(-178.559 -126.545)" fill="#a2c7eb"/>
    <path id="Trazado_116059" data-name="Trazado 116059" d="M343.737,244.8a94.364,94.364,0,0,0,2.056,30.61" transform="translate(-181.763 -129.605)" fill="none" stroke="#6f8bbf" stroke-linecap="round" stroke-miterlimit="10" stroke-width="1"/>
    <path id="Trazado_116066" data-name="Trazado 116066" d="M93.044,226.441a35.684,35.684,0,0,1,9.886-30.625c.914,11.38-2.568,22.974-9.886,30.625" transform="translate(-49.022 -103.674)" fill="#a2c7eb"/>
    <path id="Trazado_116069" data-name="Trazado 116069" d="M101.387,205.307a68.515,68.515,0,0,1-8.41,26.623" transform="translate(-49.226 -108.698)" fill="none" stroke="#6f8bbf" stroke-linecap="round" stroke-miterlimit="10" stroke-width="1"/>
    <path id="Trazado_116074" data-name="Trazado 116074" d="M194.5,264.135s1.031,9.444,2.183,10.2c2.061,1.36,25.918,4.5,25.918,4.5l-.781,6.207s-32.675,2.936-34.064,1.3c-2.409-2.833-6.644-16.5-6.644-16.5Z" transform="translate(-95.888 -139.845)" fill="#e06a58"/>
    <path id="Trazado_116075" data-name="Trazado 116075" d="M176.08,205.333l2.64-6.338s7.162,3.364,9.524,7.52c2.527,4.442,5.618,28.059,5.618,28.059s-12.644,2.913-14.968,1.675-2.814-30.916-2.814-30.916" transform="translate(-93.224 -105.357)" fill="#eecf52"/>
    <path id="Trazado_116076" data-name="Trazado 116076" d="M103.634,148.658a13.979,13.979,0,0,0-5.788-1.12c-1.981.151-4,1.2-4.677,2.941-.48,1.233-.259,2.687-1.016,3.8a4.543,4.543,0,0,1-3.51,1.6c-1.351.094-2.71-.085-4.051.089-4.141.551-7.1,5.049-5.736,8.734.541,1.468,1.652,2.87,1.4,4.4-.268,1.638-1.986,2.715-2.692,4.235-.936,2.023.184,4.475,2.033,5.854a14.531,14.531,0,0,0,6.588,2.245,27.356,27.356,0,0,0,9.708.028,12.167,12.167,0,0,0,7.854-4.969,40.609,40.609,0,0,1,2.019-3.553c1.75-2.245,4.851-3.115,7.294-4.706,2.668-1.746,4.626-5.143,3.054-7.8-1.515-2.555-5.458-3.124-7.04-5.642a17.673,17.673,0,0,1-1.233-3.412c-.433-1.139-1.468-1.713-4.2-2.715" transform="translate(-40.885 -78.101)" fill="#0a2240"/>
    <path id="Trazado_116077" data-name="Trazado 116077" d="M140.144,185.011a2.776,2.776,0,0,0,1.779,1.176,2.666,2.666,0,0,0,2-1.063,20.253,20.253,0,0,0,5.153-9.882c-.663-.376-1.3-.739-1.882-1.078a2.858,2.858,0,0,1-1.172-1.289,2.477,2.477,0,0,1-.174-1.214,34.7,34.7,0,0,1,1.953-9.1c-5.9-1.332-11.467-2.913-14.667-5.586-.391,1.647-.852,4.87-1.835,8.065-1.049,3.383-2.687,6.729-5.463,8.169a58.545,58.545,0,0,1,14.314,11.8" transform="translate(-66.62 -83.109)" fill="#f9a07b"/>
    <path id="Trazado_116078" data-name="Trazado 116078" d="M151.99,171.671a2.469,2.469,0,0,0,.174,1.214c-3.492,4.235-11.3-1.3-14.724-7.835.983-3.2,1.445-6.418,1.835-8.065,3.2,2.673,8.766,4.259,14.667,5.585a34.66,34.66,0,0,0-1.953,9.1" transform="translate(-72.767 -83.115)" fill="#e06a58"/>
    <path id="Trazado_116079" data-name="Trazado 116079" d="M139.629,239.132c-.772,5.11,4.743,10.611,4.88,13.34-11.712,0-36.247.715-48.74-.983-.569-3.153,5.6-10.244,5.6-17.246,0-.927-.038-1.943-.113-3.035-.2-3.124-.659-6.842-1.172-10.653-1.393-10.225-3.247-21.161-1.878-23.429,2.682-4.419,8.955-7.421,12.065-8.71,1.068-.442,1.765-.682,1.816-.711,3.9,6.654,11.839,12.329,14.837,12.074.833-.066,3.3-.927,4.936-9.148.635.362,1.271.7,1.9,1.021,3.1,1.614,6.009,2.946,6.847,5.021,2.212,5.463,4.381,19.236,3.9,24.135-.485,4.941-2.47,8.715-3.863,13.674-.325,1.162-.621,2.4-.861,3.722-.061.3-.108.607-.155.927" transform="translate(-50.684 -99.379)" fill="#eecf52"/>
    <path id="Trazado_116080" data-name="Trazado 116080" d="M144.508,283.6c-11.712,0-36.247.715-48.74-.983-.569-3.153,5.6-10.244,5.6-17.246,0-.927-.038-1.943-.113-3.035-.2-3.125-.659-6.842-1.172-10.653,2.216,2.339,5.449-7.543,6.88-4.649,7.741,15.622,13.844,19.73,24.45,19.73a40.721,40.721,0,0,0,9.232-1.153c-.325,1.162-.621,2.4-.861,3.722q-.085.452-.155.932c-.772,5.1,4.743,10.6,4.88,13.336" transform="translate(-50.684 -130.506)" fill="#eecf52"/>
    <path id="Trazado_116081" data-name="Trazado 116081" d="M150.12,191.653c-.5,3.656-2,8.583-6.334,9.882-5.863,1.755-14.347-9.2-17.157-13.119,1.068-.442,1.765-.682,1.816-.711,3.9,6.654,11.839,12.329,14.837,12.074.833-.066,3.3-.927,4.936-9.148.635.358,1.271.692,1.9,1.021" transform="translate(-67.043 -99.379)" fill="#fce172"/>
    <path id="Trazado_116082" data-name="Trazado 116082" d="M181.623,313.528l-.042,4.08,72.936.433.151-4.626Z" transform="translate(-96.137 -165.936)" fill="#13b770"/>
    <path id="Trazado_116083" data-name="Trazado 116083" d="M312.172,234.06l-1.623-1.647-53.126-.348L230.77,270.608l1.393,1.12Z" transform="translate(-122.18 -122.865)" fill="#1a1a52"/>
    <path id="Trazado_116084" data-name="Trazado 116084" d="M260.016,235.1,233.73,273.332l50.208.249,29.8-37.917Z" transform="translate(-123.747 -124.47)" fill="#1a1a52"/>
    <path id="Trazado_116085" data-name="Trazado 116085" d="M309.974,274.545c3.228,0,5.844,1.308,5.844,2.922s-2.617,2.922-5.844,2.922-5.844-1.308-5.844-2.922,2.617-2.922,5.844-2.922" transform="translate(-161.02 -145.356)" fill="#3c738c"/>
    <path id="Trazado_116086" data-name="Trazado 116086" d="M183.728,146.869c.828-4.443,3.875-7.6,6.805-7.056s4.635,4.591,3.807,9.034-3.875,7.6-6.805,7.056-4.635-4.59-3.807-9.033" transform="translate(-97.163 -73.991)" fill="#13b770"/>
    <path id="Trazado_116087" data-name="Trazado 116087" d="M193.172,111.28c-.546,3.868-2.273,8.131-4.79,12.841-.885-3.859-1.449-8.559-2.23-13.26a54.86,54.86,0,0,0-3.562-13.27,23.036,23.036,0,0,0-1.289-2.419,8.586,8.586,0,0,1,3.1.278,10.374,10.374,0,0,1,4.235,2.31,14.849,14.849,0,0,1,4.127,6.743,15.133,15.133,0,0,1,.414,6.776" transform="translate(-95.988 -50.369)" fill="#0b2d50"/>
    <path id="Trazado_116088" data-name="Trazado 116088" d="M162.855,113.129c-.028.762-.08,1.539-.151,2.31-1.073,12.517-6.329,21.1-14.371,21.1-11.355,0-18.714-12.733-18.714-25.208,0-12.305,7.538-21.213,16.361-20.182,5.087.583,8.8,2.273,11.444,4.748a15.6,15.6,0,0,1,3.868,5.9,25.8,25.8,0,0,1,1.558,8.5c0,.009.009.019.009.028.038.913.028,1.845,0,2.8" transform="translate(-68.626 -48.218)" fill="#f9a07b"/>
    <path id="Trazado_116089" data-name="Trazado 116089" d="M168.706,123.369a12.579,12.579,0,0,0-1.529-3.449,35.731,35.731,0,0,1-22.243,3.572c-1.44,1.2-2.847,2.381-4.263,3.562.028-5.694.108-9.548,2.329-12.305,2.085-2.588,5.562-3.562,8.856-3.986a40.963,40.963,0,0,1,11.176.071,11.31,11.31,0,0,1,4.117,1.219,25.8,25.8,0,0,1,1.558,8.5c0,.009.009.019.009.028.033.9.024,1.835-.009,2.79" transform="translate(-74.477 -58.458)" fill="#e06a58"/>
    <path id="Trazado_116090" data-name="Trazado 116090" d="M160.706,103.1a20.976,20.976,0,0,1-5.7,3.294c-6.24,2.517-14.347,3.35-20.667,3.045-3.106,6.823-4.362,9.27-5.157,15.222-3.035-2.847-5.506-8.061-6.24-12.159a27.811,27.811,0,0,1,.485-12.385,18.523,18.523,0,0,1,9.449-11.364,17.762,17.762,0,0,1,2.033-.941,19.466,19.466,0,0,1,12.625-.151,15.036,15.036,0,0,1,5.713,3.322,28.22,28.22,0,0,1,6.465,9.75c.4.9.729,1.713,1,2.367" transform="translate(-64.839 -45.892)" fill="#0b2d50"/>
    <path id="Trazado_116091" data-name="Trazado 116091" d="M173.742,106.8a19.159,19.159,0,0,0-1.191-3.976,13.7,13.7,0,0,0-1.12-2.1,11.534,11.534,0,0,0-6.009-4.9,22.113,22.113,0,0,0-2.259-2.706,17.43,17.43,0,0,0-9.726-5.129,18.478,18.478,0,0,0-8.837.753,17.756,17.756,0,0,1,2.033-.941,19.466,19.466,0,0,1,12.625-.151,15.036,15.036,0,0,1,5.713,3.322,10.374,10.374,0,0,1,4.235,2.31,14.849,14.849,0,0,1,4.127,6.743,15.2,15.2,0,0,1,.409,6.776" transform="translate(-76.558 -45.887)" fill="#225570"/>
    <path id="Trazado_116092" data-name="Trazado 116092" d="M155.38,144.366a7.965,7.965,0,0,1,7.331-.626" transform="translate(-82.265 -75.78)" fill="none" stroke="#0b2d50" stroke-linecap="round" stroke-miterlimit="10" stroke-width="2"/>
    <path id="Trazado_116093" data-name="Trazado 116093" d="M185.92,144.385c1.8-1.341,4.461-1.478,5.849,0" transform="translate(-98.434 -75.884)" fill="none" stroke="#0b2d50" stroke-linecap="round" stroke-miterlimit="10" stroke-width="2"/>
    <path id="Trazado_116094" data-name="Trazado 116094" d="M180.9,160.115a8.613,8.613,0,0,1-.367,4" transform="translate(-95.58 -84.772)" fill="none" stroke="#cc454e" stroke-linecap="round" stroke-miterlimit="10" stroke-width="2"/>
    <path id="Trazado_116095" data-name="Trazado 116095" d="M165.266,155.675c.478,0,.866.611.866,1.365s-.388,1.365-.866,1.365-.866-.611-.866-1.365.388-1.365.866-1.365" transform="translate(-87.041 -82.421)" fill="#262d40"/>
    <path id="Trazado_116096" data-name="Trazado 116096" d="M189.316,154.325c.478,0,.866.611.866,1.365s-.388,1.365-.866,1.365-.866-.611-.866-1.365.388-1.365.866-1.365" transform="translate(-99.774 -81.706)" fill="#262d40"/>
    <path id="Trazado_116097" data-name="Trazado 116097" d="M171.117,170.479a6.651,6.651,0,0,1-.494.776,5.374,5.374,0,0,1-2.555,1.99h0a3.337,3.337,0,0,1-1.642.108c-1.769-.315-2.235-1.948-2.32-3.2a6.73,6.73,0,0,1-.014-.678,6.415,6.415,0,0,1,.066-.847,20.147,20.147,0,0,0,6.964,1.854" transform="translate(-86.873 -89.277)" fill="#cc454e"/>
    <path id="Trazado_116098" data-name="Trazado 116098" d="M171.12,170.479a6.651,6.651,0,0,1-.494.776,19.439,19.439,0,0,1-6.536-1.783,6.412,6.412,0,0,1,.066-.847,20.147,20.147,0,0,0,6.964,1.854" transform="translate(-86.876 -89.277)" fill="#fff"/>
    <path id="Trazado_116099" data-name="Trazado 116099" d="M168.082,174.951a3.336,3.336,0,0,1-1.642.108c-1.769-.315-2.235-1.948-2.32-3.2a4.818,4.818,0,0,1,3.962,3.1" transform="translate(-86.892 -90.988)" fill="#e8729b"/>
    <path id="Trazado_116100" data-name="Trazado 116100" d="M134.693,114.512a32.528,32.528,0,0,1,2.343-11.7A16.811,16.811,0,0,1,152.4,92.156a16.5,16.5,0,0,1,11.867,4.64,12.443,12.443,0,0,0-7.063-5.4,19.689,19.689,0,0,0-11.449.6c-3.84,1.558-8.625,5.882-10.357,10.451a61.58,61.58,0,0,0-2.569,11.684Z" transform="translate(-70.326 -48.086)" fill="#13b770"/>
    <path id="Trazado_116101" data-name="Trazado 116101" d="M127.3,137.168c3.125-.325,6.057,3.251,6.55,7.986s-1.642,8.838-4.767,9.162-6.057-3.251-6.55-7.986,1.642-8.838,4.767-9.162" transform="translate(-64.838 -72.612)" fill="#13b770"/>
    <path id="Trazado_116102" data-name="Trazado 116102" d="M126.205,143.058c2.017-.3,4.085,2.328,4.619,5.877s-.67,6.672-2.687,6.975-4.085-2.328-4.619-5.877.67-6.672,2.687-6.975" transform="translate(-65.329 -75.729)" fill="#3d86e0"/>
    <path id="Trazado_116103" data-name="Trazado 116103" d="M171.11,180.055c1.674,0,3.03.845,3.03,1.887s-1.357,1.887-3.03,1.887-3.03-.845-3.03-1.887,1.357-1.887,3.03-1.887" transform="translate(-88.989 -95.329)" fill="#13b770"/>
    <path id="Trazado_116104" data-name="Trazado 116104" d="M142.17,170.655a18.308,18.308,0,0,0,12.192,6.31" transform="translate(-75.271 -90.352)" fill="#13b770" stroke="#13b770" stroke-linecap="round" stroke-miterlimit="10" stroke-width="2"/>
    <path id="Trazado_116105" data-name="Trazado 116105" d="M136.133,269.089l-.292,7.524s-27.212,8.155-31.706,5.576c-2.193-1.261-4.24-8.2-5.769-14.968-1.6-7.115-2.626-14.041-2.626-14.041l15.952-3.125s.009,9.726.551,15.35c.193,2.094.471,3.619.842,3.868,1.407.927,23.048-.184,23.048-.184" transform="translate(-50.689 -132.39)" fill="#f9a07b"/>
    <path id="Trazado_116106" data-name="Trazado 116106" d="M112.242,265.39c-2.9.941-8.494,2.4-13.877,1.821-1.6-7.115-2.626-14.041-2.626-14.041l15.952-3.124s.009,9.722.551,15.345" transform="translate(-50.689 -132.385)" fill="#e06a58"/>
    <path id="Trazado_116107" data-name="Trazado 116107" d="M178.363,286.476c4.047-.866,10.9-2.946,13.74-3.661,2.019-.508,7.275,2.212,8.663,4.776.607,1.12,1.181,7.463-.922,6.809-1.054-.329-.88-3.049-1.209-4.16a4.9,4.9,0,0,0-2.428-2.532,14.346,14.346,0,0,1,.743,6.4,3.32,3.32,0,0,1-.3,1.506,1.081,1.081,0,0,1-1.27.569c-.48-.2-.645-.8-.753-1.318a42.835,42.835,0,0,1-.9-5.656c.038,2.009,0,4.023-.132,6.028-.094,1.534-.856,2.376-1.793,2.108-.419-.118-.588-.5-.767-1.012-.282.983-.988,2.07-1.9,1.656-.555-.249-.9-2.254-.8-4.315a12.074,12.074,0,0,1-6,1.652c-2.042.094-4.131-.287-5.36-1.675a36.1,36.1,0,0,1,1.393-7.181" transform="translate(-93.696 -149.702)" fill="#f9a07b"/>
    <path id="Trazado_116108" data-name="Trazado 116108" d="M206.479,305.506a14.387,14.387,0,0,0-.419-4.851" transform="translate(-109.097 -159.18)" fill="none" stroke="#cc454e" stroke-linecap="round" stroke-miterlimit="10" stroke-width="1"/>
    <path id="Trazado_116109" data-name="Trazado 116109" d="M107.179,205.338c-1.158-3.261-5.4-9.933-5.4-9.933s-6.47,2.692-8.766,7.261c-3.887,7.736-1.91,29.946-1.91,29.946,5.237,2.193,15.75,2.226,20.225,1.6,0,0-1.83-22.351-4.15-28.869" transform="translate(-47.969 -103.456)" fill="#eecf52"/>
    <path id="Trazado_116110" data-name="Trazado 116110" d="M127.58,219.415a143.872,143.872,0,0,1,3.012,24.041" transform="translate(-67.546 -116.168)" fill="none" stroke="#f2ae30" stroke-linecap="round" stroke-miterlimit="10" stroke-width="1"/>
    <rect id="Rectángulo_35045" data-name="Rectángulo 35045" width="185.531" height="4.654" transform="translate(12.987 150.764)" fill="#1a1a52"/>
  </g>
</svg>
