<svg id="_010---Quality-Assurance" data-name="010---Quality-Assurance" xmlns="http://www.w3.org/2000/svg" width="61.885" height="61.88" viewBox="0 0 61.885 61.88">
  <path id="Shape" d="M26.782,51.563a25.625,25.625,0,0,0,14.231-4.3L54.178,60.391a5.087,5.087,0,1,0,6.627-7.679L46.6,42.245a25.77,25.77,0,1,0-19.823,9.317Zm32.8,2.812a3.005,3.005,0,0,1,.343,4.554,3.126,3.126,0,0,1-4.3,0L42.7,46.038a25.914,25.914,0,0,0,2.511-2.254ZM26.782,2.062A23.719,23.719,0,1,1,3.063,25.781,23.719,23.719,0,0,1,26.782,2.062Z" transform="translate(-0.997 -0.02)"/>
  <path id="Shape-2" data-name="Shape" d="M16,25.313A10.313,10.313,0,1,0,26.313,15,10.313,10.313,0,0,0,16,25.313Zm10.313-8.25a8.25,8.25,0,1,1-8.25,8.25A8.25,8.25,0,0,1,26.313,17.063Z" transform="translate(-0.528 0.448)"/>
  <path id="Shape-3" data-name="Shape" d="M17.887,13.619,14.1,15.063A2.077,2.077,0,0,0,12.756,16.9l-.195,4.05-2.219,3.39a2.071,2.071,0,0,0,0,2.277l2.222,3.392.195,4.05A2.076,2.076,0,0,0,14.1,35.9l3.788,1.434L20.421,40.5a2.08,2.08,0,0,0,2.166.7L26.5,40.132l3.911,1.07a2.079,2.079,0,0,0,2.166-.705l2.537-3.159,3.793-1.444a2.079,2.079,0,0,0,1.341-1.842L40.442,30l2.22-3.39a2.071,2.071,0,0,0,0-2.277L40.44,20.945l-.195-4.05A2.078,2.078,0,0,0,38.9,15.054l-3.791-1.434-2.529-3.159a2.077,2.077,0,0,0-2.166-.705L26.5,10.827,22.59,9.755a2.076,2.076,0,0,0-2.166.705Zm4.159-1.879,4.182,1.145a1.017,1.017,0,0,0,.545,0l4.2-1.14,2.71,3.384a1.031,1.031,0,0,0,.44.32L38.183,17l.206,4.331a1.043,1.043,0,0,0,.167.516l2.381,3.636v.01l-2.372,3.627a1.043,1.043,0,0,0-.167.516l-.217,4.342-4.055,1.535a1.031,1.031,0,0,0-.44.32l-2.726,3.388L26.78,38.071a1.045,1.045,0,0,0-.545,0l-4.2,1.141-2.71-3.384a1.031,1.031,0,0,0-.44-.32l-4.063-1.547-.206-4.331a1.043,1.043,0,0,0-.167-.516l-2.388-3.642,2.372-3.627a1.043,1.043,0,0,0,.167-.516l.217-4.342,4.055-1.536a1.018,1.018,0,0,0,.44-.32Z" transform="translate(-0.716 0.282)"/>
  <path id="Path" d="M26.657,47.313A21.657,21.657,0,1,0,26.657,4a1.031,1.031,0,0,0,0,2.063,19.587,19.587,0,1,1-5.878.9A1.031,1.031,0,1,0,20.16,5a21.657,21.657,0,0,0,6.5,42.317Z" transform="translate(-0.872 0.104)"/>
  <path id="Path-2" data-name="Path" d="M24.364,28.948a1.031,1.031,0,0,0,.729.3.869.869,0,0,0,.1,0,1.031,1.031,0,0,0,.756-.454l4.125-6.188a1.031,1.031,0,1,0-1.716-1.145L24.934,26.6,23.76,25.427A1.031,1.031,0,0,0,22.3,26.885Z" transform="translate(-0.34 0.636)"/>
</svg>
