<svg id="gestion-de-proyectos" xmlns="http://www.w3.org/2000/svg" width="54.644" height="54.628" viewBox="0 0 54.644 54.628">
  <g id="Grupo_82668" data-name="Grupo 82668" transform="translate(0 0.226)">
    <g id="Grupo_82667" data-name="Grupo 82667">
      <path id="Trazado_116123" data-name="Trazado 116123" d="M53.866,16.173h0l0,0-3.527-.5a.907.907,0,0,1-.416-1.623l2.851-2.138a.907.907,0,0,0,.181-1.269L49.689,6.285A.907.907,0,0,0,48.419,6.1l-2.85,2.138a.907.907,0,0,1-1.445-.853l.5-3.527a.907.907,0,0,0-.769-1.026h0l-5.382-.769a.907.907,0,0,0-1.026.769h0l-.5,3.527a.907.907,0,0,1-1.623.416L33.186,3.928a.907.907,0,0,0-1.269-.181L29.191,5.791a17.543,17.543,0,0,0-3.708,0,17.227,17.227,0,0,0-15.19,15.448c-.024.257-.034.511-.046.766H9.975a.907.907,0,0,0-.887.725l-.627,2.979-2.51-1.731a.907.907,0,0,0-1.156.105L2.075,26.8a.907.907,0,0,0-.105,1.155l1.723,2.505-2.98.627A.907.907,0,0,0,0,31.978v3.627a.907.907,0,0,0,.72.888l2.98.627L1.978,39.625a.907.907,0,0,0,.105,1.155L4.8,43.5a.907.907,0,0,0,1.156.105l2.505-1.727.627,2.98a.907.907,0,0,0,.887.725H13.6a.907.907,0,0,0,.888-.72l.627-2.98,2.505,1.723a.907.907,0,0,0,1.155-.105l1.408-1.413v2.584A3.615,3.615,0,0,0,22,47.8v5.038a3.627,3.627,0,0,0,3.627,3.627h3.627a3.627,3.627,0,0,0,3.627-3.627V47.8a3.615,3.615,0,0,0,1.813-3.123V41.084a4.443,4.443,0,0,1,2.1-3.7,17.4,17.4,0,0,0,2.134-1.632L37.716,34.4a15.436,15.436,0,0,1-1.91,1.461,6.245,6.245,0,0,0-2.925,5.224v3.589a1.813,1.813,0,0,1-1.813,1.813H23.814A1.813,1.813,0,0,1,22,44.672V41.008a6.1,6.1,0,0,0-2.876-5.117,15.368,15.368,0,0,1,8.121-28.38.986.986,0,0,0-.035.1.907.907,0,0,0,.173.672l2.137,2.85a.888.888,0,0,1,.054,1.006.9.9,0,0,1-.907.436l-3.527-.5a.907.907,0,0,0-1.026.769h0l-.77,5.385a.907.907,0,0,0,.769,1.026h0l3.527.5a.907.907,0,0,1,.416,1.623l-2.85,2.137a.907.907,0,0,0-.181,1.269l3.264,4.352a.907.907,0,0,0,1.269.181l2.851-2.137a.907.907,0,0,1,1.441.853l-.5,3.527a.907.907,0,0,0,.769,1.026h0l5.386.77a1.006,1.006,0,0,0,.128.008.907.907,0,0,0,.9-.778l.5-3.527a.907.907,0,0,1,1.623-.416l2.138,2.85a.907.907,0,0,0,1.269.181l4.352-3.264a.907.907,0,0,0,.181-1.269l-2.137-2.85a.891.891,0,0,1-.054-1.006.88.88,0,0,1,.907-.435l3.527.5a.907.907,0,0,0,1.026-.769h0l.769-5.386A.907.907,0,0,0,53.866,16.173ZM23.814,48.3h7.254v1.813H23.814Zm0,3.627h7.254v.907a1.813,1.813,0,0,1-1.813,1.813H25.627a1.813,1.813,0,0,1-1.813-1.813ZM16.6,36.29a17.136,17.136,0,0,0,1.55,1.129,4.426,4.426,0,0,1,1.827,2.32L18.027,41.68l-1.883-1.3a1.813,1.813,0,0,0-2.8,1.12l-.475,2.264H10.71l-.475-2.26a1.813,1.813,0,0,0-2.8-1.12L5.547,41.68,3.9,40.032l1.3-1.882a1.814,1.814,0,0,0-1.119-2.8l-2.26-.476V32.715l2.26-.476a1.813,1.813,0,0,0,1.12-2.8L3.9,27.552,5.547,25.9l1.885,1.3a1.813,1.813,0,0,0,2.8-1.121l.159-.754a17.267,17.267,0,0,0,.719,3.075A5.44,5.44,0,1,0,16.6,36.29Zm-1.408-1.278a3.621,3.621,0,1,1-3.4-4.847h.034A17.172,17.172,0,0,0,15.187,35.012ZM52.194,21.428l-2.629-.375A2.72,2.72,0,0,0,47,25.378L48.6,27.5l-2.9,2.176L44.1,27.555A2.72,2.72,0,0,0,39.232,28.8l-.367,2.633-3.59-.513.375-2.629a2.72,2.72,0,0,0-4.325-2.561L29.2,27.323l-2.176-2.9,2.124-1.594A2.72,2.72,0,0,0,27.9,17.959l-2.629-.375.513-3.59,2.629.375a2.72,2.72,0,0,0,2.561-4.325l-1.6-2.126,2.9-2.176,1.594,2.124A2.72,2.72,0,0,0,38.743,6.62l.375-2.629,3.59.512-.375,2.629a2.72,2.72,0,0,0,4.325,2.561L48.782,8.1,50.958,11l-2.124,1.594a2.72,2.72,0,0,0,1.247,4.869l2.629.375Z" transform="translate(0 -2.057)"/>
    </g>
  </g>
  <g id="Grupo_82670" data-name="Grupo 82670" transform="translate(31.735 8.626)">
    <g id="Grupo_82669" data-name="Grupo 82669">
      <path id="Trazado_116124" data-name="Trazado 116124" d="M287.254,76.171a7.254,7.254,0,1,0,7.254,7.254A7.254,7.254,0,0,0,287.254,76.171Zm0,12.694a5.44,5.44,0,1,1,5.44-5.44A5.44,5.44,0,0,1,287.254,88.865Z" transform="translate(-280 -76.171)"/>
    </g>
  </g>
  <g id="Grupo_82672" data-name="Grupo 82672" transform="translate(26.534 40.121)">
    <g id="Grupo_82671" data-name="Grupo 82671">
      <rect id="Rectángulo_35069" data-name="Rectángulo 35069" width="1.813" height="2.72"/>
    </g>
  </g>
  <g id="Grupo_82674" data-name="Grupo 82674" transform="translate(14.739 10.339)">
    <g id="Grupo_82673" data-name="Grupo 82673">
      <path id="Trazado_116125" data-name="Trazado 116125" d="M138.78,112.168a10.881,10.881,0,0,1-1.837-19.343l-.969-1.534a12.694,12.694,0,0,0,2.148,22.564,5.789,5.789,0,0,1,3.717,5.4h1.813A7.586,7.586,0,0,0,138.78,112.168Z" transform="translate(-130.044 -91.291)"/>
    </g>
  </g>
  <g id="Grupo_82676" data-name="Grupo 82676" transform="translate(44.668 33.774)">
    <g id="Grupo_82675" data-name="Grupo 82675">
      <rect id="Rectángulo_35070" data-name="Rectángulo 35070" width="6.347" height="1.813"/>
    </g>
  </g>
  <g id="Grupo_82678" data-name="Grupo 82678" transform="translate(43.181 38.517)">
    <g id="Grupo_82677" data-name="Grupo 82677" transform="translate(0 0)">
      <rect id="Rectángulo_35071" data-name="Rectángulo 35071" width="1.813" height="7.081" transform="matrix(0.64, -0.768, 0.768, 0.64, 0, 1.393)"/>
    </g>
  </g>
  <g id="Grupo_82680" data-name="Grupo 82680" transform="translate(39.228 41.028)">
    <g id="Grupo_82679" data-name="Grupo 82679">
      <rect id="Rectángulo_35072" data-name="Rectángulo 35072" width="1.813" height="6.347"/>
    </g>
  </g>
  <g id="Grupo_82682" data-name="Grupo 82682" transform="translate(0.926 13.853)">
    <g id="Grupo_82681" data-name="Grupo 82681" transform="translate(0 0)">
      <rect id="Rectángulo_35073" data-name="Rectángulo 35073" width="7.477" height="1.813" transform="translate(0 1.813) rotate(-14.035)"/>
    </g>
  </g>
  <g id="Grupo_82684" data-name="Grupo 82684" transform="translate(2.432 4.929)">
    <g id="Grupo_82683" data-name="Grupo 82683" transform="translate(0 0)">
      <rect id="Rectángulo_35074" data-name="Rectángulo 35074" width="1.813" height="7.8" transform="matrix(0.581, -0.814, 0.814, 0.581, 0, 1.475)"/>
    </g>
  </g>
  <g id="Grupo_82686" data-name="Grupo 82686" transform="translate(10.201 0)">
    <g id="Grupo_82685" data-name="Grupo 82685" transform="translate(0 0)">
      <rect id="Rectángulo_35075" data-name="Rectángulo 35075" width="1.813" height="7.487" transform="matrix(0.969, -0.248, 0.248, 0.969, 0, 0.449)"/>
    </g>
  </g>
</svg>
