<svg id="subasta" xmlns="http://www.w3.org/2000/svg" width="54.389" height="54.389" viewBox="0 0 54.389 54.389">
  <g id="Grupo_82688" data-name="Grupo 82688" transform="translate(10.698 18.21)">
    <g id="Grupo_82687" data-name="Grupo 82687">
      <path id="Trazado_116126" data-name="Trazado 116126" d="M102.518,171.731a1.062,1.062,0,1,0,0,1.5A1.063,1.063,0,0,0,102.518,171.731Z" transform="translate(-100.704 -171.42)"/>
    </g>
  </g>
  <g id="Grupo_82690" data-name="Grupo 82690" transform="translate(0 41.64)">
    <g id="Grupo_82689" data-name="Grupo 82689">
      <path id="Trazado_116127" data-name="Trazado 116127" d="M26.9,397.907a3.719,3.719,0,0,0-3-5.92H5.842a3.715,3.715,0,0,0-2.994,5.919A5.316,5.316,0,0,0,0,402.609v1.062a1.062,1.062,0,0,0,1.062,1.062H28.681a1.062,1.062,0,0,0,1.062-1.062v-1.062A5.315,5.315,0,0,0,26.9,397.907ZM4.715,394.578a1.583,1.583,0,0,1,1.127-.466H23.9a1.593,1.593,0,1,1,0,3.187H5.842a1.594,1.594,0,0,1-1.127-2.72Zm-2.591,8.032a3.19,3.19,0,0,1,3.187-3.187H24.432a3.19,3.19,0,0,1,3.187,3.187Z" transform="translate(0 -391.987)"/>
    </g>
  </g>
  <g id="Grupo_82692" data-name="Grupo 82692" transform="translate(0.002 0)">
    <g id="Grupo_82691" data-name="Grupo 82691">
      <path id="Trazado_116128" data-name="Trazado 116128" d="M53.419,44.63a6.689,6.689,0,0,0-1.28-1.469l-4.964-4.329a1.054,1.054,0,0,0-.423-.369l-3-2.618L29.858,23.725a3.181,3.181,0,0,0-.933-5.074l1.285-1.285a4.252,4.252,0,0,0,4.1-1.1,4.248,4.248,0,0,0,0-6.009L25.3,1.246a4.247,4.247,0,0,0-7.107,4.1L5.367,18.172a4.275,4.275,0,0,0-1.1-.144,4.249,4.249,0,0,0-3,7.253l9.013,9.013a4.248,4.248,0,0,0,7.107-4.1l1.283-1.283a3.188,3.188,0,0,0,5.075.931l14.8,17a1.067,1.067,0,0,0,.144.18c.019.019.039.036.059.054l4.41,5.066c.11.129.227.257.348.378a6.318,6.318,0,0,0,4.49,1.868,6.521,6.521,0,0,0,.894-.062,6.428,6.428,0,0,0,4.742-3.283A6.286,6.286,0,0,0,53.419,44.63ZM20.792,2.748a2.124,2.124,0,0,1,3,0l9.013,9.013a2.124,2.124,0,0,1-3,3L20.793,5.753h0A2.126,2.126,0,0,1,20.792,2.748ZM14.784,32.792a2.127,2.127,0,0,1-3,0L2.766,23.779a2.124,2.124,0,0,1,3-3.005l9.015,9.015A2.126,2.126,0,0,1,14.784,32.792Zm4.472-7.476-2.97,2.97L7.272,19.272,19.29,7.254,28.3,16.268l-2.976,2.976-.029.028-6.006,6.006Zm3.793,2.216-.006.006-.748.748A1.062,1.062,0,0,1,20.779,26.8l6.034-6.034a1.062,1.062,0,0,1,1.8.763,1.053,1.053,0,0,1-.311.751l-.744.744-.015.015Zm2.2.8,3.1-3.1L41.5,36.7l-4.8,4.8ZM38.1,43.1l5-5,1.6,1.4-5.21,5.21Zm13.675,6.905a4.321,4.321,0,0,1-3.18,2.217A4.221,4.221,0,0,1,45,51.019c-.082-.082-.16-.167-.233-.253l-.01-.012L40.9,46.314,46.313,40.9l4.435,3.869.01.009a4.573,4.573,0,0,1,.876,1.009A4.194,4.194,0,0,1,51.775,50.007Z" transform="translate(-0.021 -0.001)"/>
    </g>
  </g>
  <g id="Grupo_82694" data-name="Grupo 82694" transform="translate(13.702 10.698)">
    <g id="Grupo_82693" data-name="Grupo 82693">
      <path id="Trazado_116129" data-name="Trazado 116129" d="M135.306,101.018a1.062,1.062,0,0,0-1.5,0l-4.507,4.507a1.062,1.062,0,1,0,1.5,1.5l4.507-4.507A1.062,1.062,0,0,0,135.306,101.018Z" transform="translate(-128.985 -100.707)"/>
    </g>
  </g>
</svg>
