<svg id="mercadeo-social" xmlns="http://www.w3.org/2000/svg" width="55.636" height="55.636" viewBox="0 0 55.636 55.636">
  <path id="Trazado_116130" data-name="Trazado 116130" d="M174.164,150.692a2.673,2.673,0,0,0-2.623,2.177l-8.564,3.557h-3.1a2.406,2.406,0,0,0-2.466,2.336v4.019a2.342,2.342,0,0,0,1.5,2.151v5.246a2.524,2.524,0,1,0,5.047,0v-4.653l7.585,3.151a2.669,2.669,0,0,0,5.293-.493v-3.007a4.546,4.546,0,0,0,0-8.806v-3.007A2.673,2.673,0,0,0,174.164,150.692Zm-10.208,7.1,7.538-3.131v12.231l-7.538-3.131Zm-4.917.975a.777.777,0,0,1,.833-.7h2.451v5.426h-2.451a.777.777,0,0,1-.833-.7v-4.019Zm2.393,12.306a.891.891,0,0,1-.891-.891v-5.06h1.781v5.06a.891.891,0,0,1-.89.891Zm13.768-2.886a1.036,1.036,0,1,1-2.073,0V153.362a1.036,1.036,0,1,1,2.073,0Zm3.416-7.411a2.936,2.936,0,0,1-1.783,2.684v-5.367A2.936,2.936,0,0,1,178.616,160.772Z" transform="translate(-140.302 -134.317)" fill="#1a1a52"/>
  <path id="Trazado_116131" data-name="Trazado 116131" d="M48.146,41.781a6.316,6.316,0,0,0-3.886,1.325l-3.7-3.7a17.155,17.155,0,0,0,4.453-10.769h2.967a3.873,3.873,0,1,0,0-1.633H45.012a17.155,17.155,0,0,0-4.453-10.769l3.7-3.7a6.318,6.318,0,0,0,3.865,1.325h0a.817.817,0,0,0,0-1.633,4.732,4.732,0,1,1,3.362-1.386,4.771,4.771,0,0,1-.68.564.817.817,0,1,0,.921,1.348,6.406,6.406,0,0,0,.913-.758,6.365,6.365,0,1,0-9.541-.616l-3.7,3.7a17.155,17.155,0,0,0-10.769-4.453V7.658a3.873,3.873,0,1,0-1.633,0v2.967a17.155,17.155,0,0,0-10.769,4.453l-3.7-3.7a6.36,6.36,0,1,0-1.154,1.155l3.7,3.7A17.2,17.2,0,0,0,12.737,19.5a.817.817,0,0,0,1.43.79,15.591,15.591,0,1,1-1.219,2.847.817.817,0,0,0-1.558-.489A17.334,17.334,0,0,0,10.613,27H7.658a3.873,3.873,0,1,0,0,1.633h2.954A17.163,17.163,0,0,0,15.079,39.4l-3.7,3.7A6.365,6.365,0,1,0,7.491,54.511a.817.817,0,0,0,0-1.633,4.732,4.732,0,1,1,3.346-1.386,4.773,4.773,0,0,1-.743.607.817.817,0,0,0,.9,1.363,6.369,6.369,0,0,0,1.537-9.2l3.7-3.7A17.155,17.155,0,0,0,27,45.011v2.967a3.873,3.873,0,1,0,1.633,0V45.012A17.155,17.155,0,0,0,39.4,40.558l3.7,3.7a6.363,6.363,0,1,0,5.04-2.48ZM25.579,3.873a2.239,2.239,0,1,1,2.239,2.239A2.242,2.242,0,0,1,25.579,3.873ZM4.145,10.836a4.732,4.732,0,1,1,3.346,1.386A4.7,4.7,0,0,1,4.145,10.836ZM51.764,25.579a2.239,2.239,0,1,1-2.239,2.239A2.242,2.242,0,0,1,51.764,25.579ZM3.873,30.058a2.239,2.239,0,1,1,2.239-2.239A2.242,2.242,0,0,1,3.873,30.058ZM30.058,51.764a2.239,2.239,0,1,1-2.239-2.239A2.242,2.242,0,0,1,30.058,51.764Zm21.434-.272a4.732,4.732,0,1,1,1.386-3.346A4.7,4.7,0,0,1,51.492,51.492Z" transform="translate(0)" fill="#1a1a52"/>
</svg>
