<svg xmlns="http://www.w3.org/2000/svg" width="40.523" height="51" viewBox="0 0 40.523 51">
  <g id="hoja-de-calculo" transform="translate(-52.59 0)">
    <path id="Trazado_114969" data-name="Trazado 114969" d="M341.454,19.071A11.571,11.571,0,0,0,329.883,7.5h-.649a5.062,5.062,0,0,1,5.062,5.062v.76a1.337,1.337,0,0,0,1.337,1.337h.76a5.062,5.062,0,0,1,5.062,5.062Z" transform="translate(-249.088 -6.753)" fill="#e2dfe2"/>
    <path id="Trazado_114970" data-name="Trazado 114970" d="M73.793,62.5H62.111a2.021,2.021,0,0,0-2.021,2.021v7.484a2.021,2.021,0,0,1,2.021-2.021H73.793a2.021,2.021,0,0,0,2.021-2.021V64.521A2.021,2.021,0,0,0,73.793,62.5Z" transform="translate(-6.753 -56.274)" fill="#13b770"/>
    <path id="Trazado_114971" data-name="Trazado 114971" d="M125.047,14.659h-.76a1.337,1.337,0,0,1-1.337-1.337v-.76A5.061,5.061,0,0,0,117.889,7.5H95.845a1.337,1.337,0,0,0-1.337,1.337v4.142h10.274A2.021,2.021,0,0,1,106.8,15v3.443a2.021,2.021,0,0,1-2.021,2.021H94.508V55.67a1.337,1.337,0,0,0,1.337,1.337h32.927a1.337,1.337,0,0,0,1.337-1.337V19.721A5.062,5.062,0,0,0,125.047,14.659Z" transform="translate(-37.743 -6.754)" fill="#f9f6f9"/>
    <path id="Trazado_114972" data-name="Trazado 114972" d="M125.088,79.364a5.04,5.04,0,0,1,1.036,3.069V109.77a9.95,9.95,0,0,1-9.95,9.95H94.508v.655a1.337,1.337,0,0,0,1.337,1.337h32.927a1.337,1.337,0,0,0,1.337-1.337V84.425A5.061,5.061,0,0,0,125.088,79.364Z" transform="translate(-37.743 -71.459)" fill="#efecef"/>
    <path id="Trazado_114973" data-name="Trazado 114973" d="M63.518,141.679H62.111a2.021,2.021,0,0,1,0-4.041h1.408Z" transform="translate(-6.753 -123.928)" fill="#86f1a7"/>
    <path id="Trazado_114974" data-name="Trazado 114974" d="M206.575,192.015V188.1a1,1,0,0,0-1-1h-21.72v4.916Z" transform="translate(-118.193 -168.462)" fill="#80e29d"/>
    <path id="Trazado_114975" data-name="Trazado 114975" d="M139.425,187.1h-3.92a1,1,0,0,0-1,1v3.92h4.916Z" transform="translate(-73.759 -168.462)" fill="#78d090"/>
    <path id="Trazado_114976" data-name="Trazado 114976" d="M134.508,236.449v21.72a1,1,0,0,0,1,1h3.92V236.449Z" transform="translate(-73.758 -212.896)" fill="#80e29d"/>
    <path id="Trazado_114977" data-name="Trazado 114977" d="M183.859,236.449v22.716h21.72a1,1,0,0,0,1-1v-21.72Z" transform="translate(-118.193 -212.896)" fill="#eecf52"/>
    <path id="Trazado_114978" data-name="Trazado 114978" d="M374.974,392.6a1,1,0,0,0,1-1V384.65a9.934,9.934,0,0,1-3.976,7.954Z" transform="translate(-287.588 -346.335)" fill="#86f1a7"/>
    <path id="Trazado_114979" data-name="Trazado 114979" d="M80.8,0H58.1a2.086,2.086,0,0,0-2.084,2.084V5.478h-.661A2.771,2.771,0,0,0,52.59,8.246v7.484A2.771,2.771,0,0,0,55.358,18.5h.661V48.916A2.086,2.086,0,0,0,58.1,51H91.029a2.086,2.086,0,0,0,2.084-2.084V40.33a.747.747,0,1,0-1.494,0v8.587a.59.59,0,0,1-.59.59H58.1a.59.59,0,0,1-.59-.59V14.457H60.75a.747.747,0,1,0,0-1.494H55.358a2.751,2.751,0,0,0-1.274.311V8.246a1.275,1.275,0,0,1,1.274-1.274H67.04a1.275,1.275,0,0,1,1.274,1.274v3.443a1.275,1.275,0,0,1-1.274,1.274h-2.8a.747.747,0,1,0,0,1.494h2.8a2.771,2.771,0,0,0,2.768-2.768V8.246A2.771,2.771,0,0,0,67.04,5.478H57.513V2.084a.59.59,0,0,1,.59-.59H80.146a4.319,4.319,0,0,1,4.314,4.314v.76a2.086,2.086,0,0,0,2.084,2.084h.76a4.319,4.319,0,0,1,4.314,4.314V36.843a.747.747,0,0,0,1.494,0V12.318A12.332,12.332,0,0,0,80.8,0ZM55.358,14.457h.661V17h-.661a1.273,1.273,0,1,1,0-2.547ZM87.3,7.158h-.76a.59.59,0,0,1-.59-.59v-.76A5.779,5.779,0,0,0,84.719,2.23a10.883,10.883,0,0,1,6.164,6.165A5.78,5.78,0,0,0,87.3,7.158Z" transform="translate(0 0)"/>
    <path id="Trazado_114980" data-name="Trazado 114980" d="M128.751,179.6a1.745,1.745,0,0,0-1.743,1.743v25.64a1.745,1.745,0,0,0,1.743,1.743h25.64a1.745,1.745,0,0,0,1.743-1.743v-25.64a1.745,1.745,0,0,0-1.743-1.743Zm16.228,6.41h2.089v3.049H140.99v-3.049h.5a.747.747,0,1,0,0-1.494h-.5v-3.422h6.078v3.422h-2.089a.747.747,0,1,0,0,1.494Zm-3.989,16.679v-3.049h6.078v3.049Zm6.078,1.494v3.049H140.99v-3.049ZM131.924,195.1v3.049H128.5V195.1ZM128.5,193.6v-3.049h3.422V193.6Zm4.916,1.494H139.5v3.049h-6.078Zm7.572,0h6.078v3.049H140.99Zm7.572,0h6.078v3.049h-6.078Zm0-1.494v-3.049h6.078V193.6Zm-1.494,0H140.99v-3.049h6.078Zm-7.572,0h-6.078v-3.049H139.5Zm-6.078-4.543v-3.049H139.5v3.049Zm0-4.543v-3.422H139.5v3.422Zm-1.494,4.543H128.5v-3.049h3.422ZM128.5,199.639h3.422v3.049H128.5Zm4.916,0H139.5v3.049h-6.078Zm15.144,0h6.078v3.049h-6.078Zm6.078-10.581h-6.078v-3.049h6.078ZM128.5,181.342a.249.249,0,0,1,.249-.249h3.173v3.422H128.5Zm0,25.64v-2.8h3.422v3.049h-3.173A.249.249,0,0,1,128.5,206.982Zm4.916-2.8H139.5v3.049h-6.078Zm20.973,3.049h-5.829v-3.049h6.078v2.8A.249.249,0,0,1,154.391,207.231Zm.249-25.889v3.173h-6.078v-3.422h5.829A.249.249,0,0,1,154.64,181.342Z" transform="translate(-67.005 -161.709)"/>
  </g>
</svg>
