<svg id="_10-Presentation" data-name="10-Presentation" xmlns="http://www.w3.org/2000/svg" width="54" height="54" viewBox="0 0 54 54">
  <path id="Trazado_114930" data-name="Trazado 114930" d="M44.875,1V4.375H1V1Z" transform="translate(-0.156 -0.156)" fill="#a37862"/>
  <path id="Trazado_114931" data-name="Trazado 114931" d="M44.875,3V4.688H1V3Z" transform="translate(-0.156 -0.469)" fill="#966857"/>
  <path id="Trazado_114932" data-name="Trazado 114932" d="M25.438,9v8.438H17A8.438,8.438,0,0,1,25.438,9Z" transform="translate(-2.656 -1.406)" fill="#ff7d81"/>
  <path id="Trazado_114933" data-name="Trazado 114933" d="M31.344,24.906l.059.059A8.438,8.438,0,0,1,17,19h8.438Z" transform="translate(-2.656 -2.969)" fill="#ffac5a"/>
  <path id="Trazado_114934" data-name="Trazado 114934" d="M27,9a8.438,8.438,0,0,1,5.965,14.4l-.059-.059L27,17.438Z" transform="translate(-4.219 -1.406)" fill="#80dbff"/>
  <path id="Trazado_114935" data-name="Trazado 114935" d="M43.5,5V20.188l-.008.051a6.834,6.834,0,0,0-.835-.051,6.75,6.75,0,0,0-6.75,6.75v2.531h-.844v1.688a1.693,1.693,0,0,0,1.688,1.688h.844v.844a5.015,5.015,0,0,0,1.485,3.577,4.853,4.853,0,0,0,1.046.8v2.371H31.688l-4.219-4.219L23.25,32l-1.687,1.688,1.688,1.688v1.688l1.688,1.688,1.688,1.688H3V5ZM31.688,16.813a8.437,8.437,0,1,0-2.472,5.965,8.438,8.438,0,0,0,2.472-5.965Z" transform="translate(-0.469 -0.781)" fill="#f0f0f0"/>
  <path id="Trazado_114936" data-name="Trazado 114936" d="M30.906,41.219,28.375,43.75l-1.687-1.687V40.375L25,38.688,26.688,37Z" transform="translate(-3.906 -5.781)" fill="#ffcdbe"/>
  <path id="Trazado_114937" data-name="Trazado 114937" d="M56.75,60.5H50V49.531L52.531,47l8.438,2.531V60.5Z" transform="translate(-7.813 -7.344)" fill="#80dbff"/>
  <path id="Trazado_114938" data-name="Trazado 114938" d="M52.531,47,50,49.531v1.688a5.991,5.991,0,0,1,5.96-1.5l5.008,1.5V49.531Z" transform="translate(-7.813 -7.344)" fill="#19cffc"/>
  <path id="Trazado_114939" data-name="Trazado 114939" d="M58.531,34v1.688a1.693,1.693,0,0,1-1.687,1.688H56V34Z" transform="translate(-8.75 -5.313)" fill="#e09380"/>
  <path id="Trazado_114940" data-name="Trazado 114940" d="M51.594,42.129a5.03,5.03,0,0,1-5.062,0,4.853,4.853,0,0,1-1.046-.8A5.015,5.015,0,0,1,44,37.75V33.531A2.479,2.479,0,0,0,46.531,31s0,2.531,7.594,2.531V37.75a5.05,5.05,0,0,1-2.531,4.379Z" transform="translate(-6.875 -4.844)" fill="#ffcdbe"/>
  <path id="Trazado_114941" data-name="Trazado 114941" d="M46.531,31A2.479,2.479,0,0,1,44,33.531v2.531a2.479,2.479,0,0,0,2.531-2.531s0,2.531,7.594,2.531V33.531C46.531,33.531,46.531,31,46.531,31Z" transform="translate(-6.875 -4.844)" fill="#faa68e"/>
  <path id="Trazado_114942" data-name="Trazado 114942" d="M52.063,44.19v2.371l-2.531,2.531L47,46.561V44.19A5.03,5.03,0,0,0,52.063,44.19Z" transform="translate(-7.344 -6.905)" fill="#e09380"/>
  <path id="Trazado_114943" data-name="Trazado 114943" d="M46.719,48.75V59.719h-6.75V50.438H34.906l-4.219-4.219L29,44.531,31.531,42l4.219,4.219h8.438Z" transform="translate(-4.531 -6.563)" fill="#b5efff"/>
  <path id="Trazado_114944" data-name="Trazado 114944" d="M44.188,46.219H35.75L31.531,42,29,44.531l.844.844a2.386,2.386,0,0,1,3.375,0l2.531,2.531h4.857a8.642,8.642,0,0,1,6.112,2.532V48.75Z" transform="translate(-4.531 -6.563)" fill="#80dbff"/>
  <path id="Trazado_114945" data-name="Trazado 114945" d="M43.531,34v3.375h-.844A1.693,1.693,0,0,1,41,35.688V34Z" transform="translate(-6.406 -5.313)" fill="#e09380"/>
  <g id="Grupo_82325" data-name="Grupo 82325" transform="translate(5.906 27)">
    <path id="Trazado_114946" data-name="Trazado 114946" d="M26,47h1.688v7.594H26Z" transform="translate(-9.969 -34.344)" fill="#848484"/>
    <path id="Trazado_114947" data-name="Trazado 114947" d="M7,32H8.688v1.688H7Z" transform="translate(-7 -32)" fill="#848484"/>
    <path id="Trazado_114948" data-name="Trazado 114948" d="M11,32H34.625v1.688H11Z" transform="translate(-7.625 -32)" fill="#848484"/>
    <path id="Trazado_114949" data-name="Trazado 114949" d="M7,36H19.656v1.688H7Z" transform="translate(-7 -32.625)" fill="#848484"/>
    <path id="Trazado_114950" data-name="Trazado 114950" d="M31,36h6.75v1.688H31Z" transform="translate(-10.75 -32.625)" fill="#848484"/>
    <path id="Trazado_114951" data-name="Trazado 114951" d="M7,40H19.656v1.688H7Z" transform="translate(-7 -33.25)" fill="#848484"/>
    <path id="Trazado_114952" data-name="Trazado 114952" d="M35,40h5.063v1.688H35Z" transform="translate(-11.375 -33.25)" fill="#848484"/>
  </g>
  <path id="Trazado_114953" data-name="Trazado 114953" d="M3,5H6.375V40.438H3Z" transform="translate(-0.469 -0.781)" fill="#d9d9d9"/>
  <path id="Trazado_114954" data-name="Trazado 114954" d="M47,5h3.375V24.406H47Z" transform="translate(-7.344 -0.781)" fill="#d9d9d9"/>
  <path id="Trazado_114955" data-name="Trazado 114955" d="M55.5,29.75v2.531H53.813c-7.594,0-7.594-2.531-7.594-2.531a2.479,2.479,0,0,1-2.531,2.531H42V29.75a6.75,6.75,0,1,1,13.5,0Z" transform="translate(-6.563 -3.594)" fill="#966857"/>
  <path id="Trazado_114956" data-name="Trazado 114956" d="M46.219,29a2.479,2.479,0,0,1-2.531,2.531H42v1.688h1.688a2.479,2.479,0,0,0,2.531-2.531s0,2.531,7.594,2.531H55.5V31.531H53.813C46.219,31.531,46.219,29,46.219,29Z" transform="translate(-6.563 -4.531)" fill="#8d5c4d"/>
  <path id="Trazado_114957" data-name="Trazado 114957" d="M25.438,11.531V9A8.438,8.438,0,0,0,17,17.438h2.531a5.906,5.906,0,0,1,5.906-5.906Z" transform="translate(-2.656 -1.406)" fill="#ff636e"/>
  <path id="Trazado_114958" data-name="Trazado 114958" d="M29.614,23.177A5.906,5.906,0,0,1,19.531,19H17a8.438,8.438,0,0,0,14.4,5.965l-.059-.059Z" transform="translate(-2.656 -2.969)" fill="#fc9942"/>
  <path id="Trazado_114959" data-name="Trazado 114959" d="M27,9v2.531a5.906,5.906,0,0,1,4.177,10.083l1.73,1.73.059.059A8.437,8.437,0,0,0,27,9Z" transform="translate(-4.219 -1.406)" fill="#19cffc"/>
  <ellipse id="Elipse_4749" data-name="Elipse 4749" cx="1.5" cy="2" rx="1.5" ry="2" transform="translate(21 46)" fill="#ff636e"/>
  <path id="Trazado_114960" data-name="Trazado 114960" d="M25.844,56.688a1.688,1.688,0,0,1,1.266-1.628,1.659,1.659,0,0,0-.422-.06,1.687,1.687,0,1,0,0,3.375,1.659,1.659,0,0,0,.422-.06A1.687,1.687,0,0,1,25.844,56.688Z" transform="translate(-3.906 -8.594)" fill="#ff475a"/>
  <path id="Trazado_114961" data-name="Trazado 114961" d="M53.4,41.379l-7.836-2.351V37.746a5.9,5.9,0,0,0,2.531-4.84,2.531,2.531,0,0,0,2.531-2.531V28.688a.844.844,0,0,0-.844-.844V26.156a7.594,7.594,0,1,0-15.187,0v1.687a.844.844,0,0,0-.844.844v1.688a2.531,2.531,0,0,0,2.531,2.531,5.9,5.9,0,0,0,2.531,4.84v1.066H31.568L27.6,34.841l-4.219-4.219a.844.844,0,0,0-1.193,0L20.5,32.31a.844.844,0,0,0,0,1.193l1.44,1.44v1.338a.844.844,0,0,0,.247.6l1.688,1.688.247.247H3.375V5.063H42.188V17.719h1.688V5.063h.844a.844.844,0,0,0,.844-.844V.844A.844.844,0,0,0,44.719,0H.844A.844.844,0,0,0,0,.844V4.219a.844.844,0,0,0,.844.844h.844V39.656a.844.844,0,0,0,.844.844H21.938v5.218a2.531,2.531,0,1,0,1.688,0V40.5h2.182l3.972,3.972a.844.844,0,0,0,.6.247h4.219v8.438a.844.844,0,0,0,.844.844H53.156A.844.844,0,0,0,54,53.156V42.188a.844.844,0,0,0-.6-.808ZM1.688,1.688H43.875V3.375H1.688Zm21.094,47.25a.844.844,0,1,1,.844-.844A.844.844,0,0,1,22.781,48.938ZM48.938,30.375a.844.844,0,0,1-.844.844V29.531h.844Zm-13.5,0v-.844h.844v1.688A.844.844,0,0,1,35.438,30.375Zm.844-2.531V26.156a5.906,5.906,0,0,1,11.813,0v1.687H47.25c-6.153,0-6.735-1.687-6.75-1.687a.844.844,0,0,0-1.687,0,1.588,1.588,0,0,1-1.687,1.688Zm1.688,5.063V29.425a3.324,3.324,0,0,0,2.025-1.39c1.018.725,2.911,1.393,6.413,1.485v3.386a4.219,4.219,0,0,1-8.437,0Zm4.219,5.906a5.869,5.869,0,0,0,1.688-.253V39.3L42.188,40.99,40.5,39.3v-.743A5.869,5.869,0,0,0,42.188,38.813Zm-19.9-5.906.494-.494,3.026,3.026-1.338,1.338-.844-.844V34.594a.844.844,0,0,0-.247-.6ZM35.438,43.031H30.724l-5.062-5.062L27,36.631l3.622,3.622a.844.844,0,0,0,.6.247h8.088l2.037,2.037v9.776H36.281V43.875A.844.844,0,0,0,35.438,43.031Zm16.875,9.281H49.781V46.406H48.094v5.906H43.031V42.537l1.928-1.927,7.353,2.206Z"/>
  <path id="Trazado_114962" data-name="Trazado 114962" d="M34.563,17.281a9.281,9.281,0,1,0-9.281,9.281A9.281,9.281,0,0,0,34.563,17.281Zm-1.687,0a7.55,7.55,0,0,1-1.666,4.734l-5.084-5.084V9.737a7.6,7.6,0,0,1,6.75,7.544ZM24.438,9.737v6.7h-6.7a7.6,7.6,0,0,1,6.7-6.7Zm-6.7,8.388h7.195l5.084,5.084a7.582,7.582,0,0,1-12.278-5.084Z" transform="translate(-2.5 -1.25)"/>
  <path id="Trazado_114963" data-name="Trazado 114963" d="M7,32H8.688v1.688H7Z" transform="translate(-1.094 -5)"/>
  <path id="Trazado_114964" data-name="Trazado 114964" d="M11,32H34.625v1.688H11Z" transform="translate(-1.719 -5)"/>
  <path id="Trazado_114965" data-name="Trazado 114965" d="M7,36H19.656v1.688H7Z" transform="translate(-1.094 -5.625)"/>
  <path id="Trazado_114966" data-name="Trazado 114966" d="M31,36h6.75v1.688H31Z" transform="translate(-4.844 -5.625)"/>
  <path id="Trazado_114967" data-name="Trazado 114967" d="M7,40H19.656v1.688H7Z" transform="translate(-1.094 -6.25)"/>
  <path id="Trazado_114968" data-name="Trazado 114968" d="M35,40h5.063v1.688H35Z" transform="translate(-5.469 -6.25)"/>
</svg>
