<svg xmlns="http://www.w3.org/2000/svg" width="45.84" height="52.403" viewBox="0 0 45.84 52.403">
  <g id="Grupo_85448" data-name="Grupo 85448" transform="translate(-311.08 -573)">
    <g id="texto" transform="translate(311.08 573)">
      <path id="Trazado_114922" data-name="Trazado 114922" d="M119.734,119.734H152.55v39.379H119.734Zm0,0" transform="translate(-107.48 -107.48)" fill="#e1dce0"/>
      <path id="Trazado_114923" data-name="Trazado 114923" d="M63.625,63.625H96.441V103H63.625Zm0,0" transform="translate(-57.113 -57.113)" fill="#f0edef"/>
      <path id="Trazado_114924" data-name="Trazado 114924" d="M7.516,7.516H40.332V46.895H7.516Zm0,0" transform="translate(-6.746 -6.746)" fill="#f7f6f7"/>
      <path id="Trazado_114925" data-name="Trazado 114925" d="M10.8,44.434V7.516H7.516V46.895H40.332V44.434Zm0,0" transform="translate(-6.746 -6.746)" fill="#e1dce0"/>
      <path id="Trazado_114926" data-name="Trazado 114926" d="M71.641,87.672v6.563l1.641-1.641h5.743V109l-1.641,1.641h8.2L83.947,109V92.594h5.743l1.641,1.641V87.672Zm0,0" transform="translate(-64.308 -78.699)" fill="#eecf52"/>
      <path id="Trazado_114927" data-name="Trazado 114927" d="M71.641,119.734v3.282l1.641-1.641h5.743v16.408l-1.641,1.641h3.282v-19.69Zm0,0" transform="translate(-64.308 -107.48)" fill="#e7576f"/>
      <path id="Trazado_114928" data-name="Trazado 114928" d="M45.071,11.486H40.1V6.512a.769.769,0,0,0-.769-.769H34.354V.769A.769.769,0,0,0,33.585,0H.769A.769.769,0,0,0,0,.769V40.148a.769.769,0,0,0,.769.769H5.743v4.974a.769.769,0,0,0,.769.769h4.974v4.974a.769.769,0,0,0,.769.769H45.071a.769.769,0,0,0,.769-.769V12.255A.769.769,0,0,0,45.071,11.486ZM7.281,40.918h26.3a.769.769,0,0,0,.769-.769V16.8a.769.769,0,0,0-1.538,0V39.379H1.538V1.538H32.816V13.178a.769.769,0,1,0,1.538,0v-5.9h4.2V45.122H7.281ZM44.3,50.865H13.024v-4.2h26.3a.769.769,0,0,0,.769-.769V13.024h4.2Zm0,0"/>
      <path id="Trazado_114929" data-name="Trazado 114929" d="M84.584,80.156H64.894a.769.769,0,0,0-.769.769v6.563a.775.775,0,0,0,1.313.544l1.416-1.415h4.655v15.32l-1.415,1.416a.776.776,0,0,0,.544,1.313h8.2a.775.775,0,0,0,.544-1.313l-1.415-1.416V86.617h4.655l1.416,1.415a.776.776,0,0,0,1.313-.544V80.925A.769.769,0,0,0,84.584,80.156Zm-.769,5.476-.328-.328a.768.768,0,0,0-.544-.225H77.2a.769.769,0,0,0-.769.769v16.408a.768.768,0,0,0,.225.544l.328.328H72.494l.328-.328a.768.768,0,0,0,.225-.544V85.848a.769.769,0,0,0-.769-.769H66.535a.769.769,0,0,0-.544.225l-.328.328V81.695H83.815Zm0,0" transform="translate(-57.562 -71.952)"/>
    </g>
  </g>
</svg>
