<svg xmlns="http://www.w3.org/2000/svg" width="113.84" height="112.264" viewBox="0 0 113.84 112.264">
  <g id="programador" transform="translate(0 -0.002)">
    <g id="Grupo_82445" data-name="Grupo 82445" transform="translate(14.689 11.276)">
      <g id="Grupo_82433" data-name="Grupo 82433" transform="translate(27.542)">
        <path id="Trazado_115452" data-name="Trazado 115452" d="M74.412,26.339H45.034a3.649,3.649,0,0,1-2.589-1.065,3.6,3.6,0,0,1-1.083-2.607l-5.986,2a7.321,7.321,0,0,0-5.031,6.959v5.729H28.508a5.518,5.518,0,0,0-3.525,1.267A23.114,23.114,0,0,1,46.117,6.142H58.639A23.114,23.114,0,0,1,79.773,38.623a5.518,5.518,0,0,0-3.525-1.267H74.412Z" transform="translate(-23 -6.142)" fill="#b27946"/>
      </g>
      <g id="Grupo_82434" data-name="Grupo 82434" transform="translate(78.954 31.214)">
        <path id="Trazado_115453" data-name="Trazado 115453" d="M56.362,24.409a5.515,5.515,0,0,1-3.525,9.75H51V23.142h1.836A5.518,5.518,0,0,1,56.362,24.409Z" transform="translate(-51 -23.142)" fill="#f0d0b4"/>
      </g>
      <g id="Grupo_82435" data-name="Grupo 82435" transform="translate(33.05 63.916)">
        <path id="Trazado_115454" data-name="Trazado 115454" d="M51.706,61.5H42.525a5.5,5.5,0,0,0-5.508,5.508v1.836H26V63.334c0-.624.018-1.23.073-1.836a7.339,7.339,0,0,0,7.271-7.345V46.112a23.923,23.923,0,0,1,8.226-5.16l.955,9.53,7.345-5.508,7.345,5.508.955-9.53a23.908,23.908,0,0,1,15.57,22.382v5.508a7.343,7.343,0,0,1-7.345,7.345H51.706a3.671,3.671,0,0,1-3.672-3.672V65.171A3.683,3.683,0,0,1,51.706,61.5Z" transform="translate(-26 -40.952)" fill="#fcd770"/>
      </g>
      <g id="Grupo_82436" data-name="Grupo 82436" transform="translate(34.886 16.525)">
        <path id="Trazado_115455" data-name="Trazado 115455" d="M71.067,40.848v1.836A18.368,18.368,0,0,1,52.706,61.045H45.361a18.275,18.275,0,0,1-13.073-5.472,7.3,7.3,0,0,0-3.213-4.407v-.018A18.261,18.261,0,0,1,27,42.684V39.012a3.671,3.671,0,0,0,3.672,3.672H41.689a3.671,3.671,0,0,0,3.672-3.672V29.831a3.683,3.683,0,0,0-3.672-3.672H30.672A3.683,3.683,0,0,0,27,29.831V24.1a7.321,7.321,0,0,1,5.031-6.959l5.986-2A3.6,3.6,0,0,0,39.1,17.749a3.649,3.649,0,0,0,2.589,1.065H71.067V29.831a3.683,3.683,0,0,0-3.672-3.672H56.378a3.683,3.683,0,0,0-3.672,3.672v9.181a3.671,3.671,0,0,0,3.672,3.672H67.395a3.671,3.671,0,0,0,3.672-3.672Z" transform="translate(-27 -15.142)" fill="#f0d0b4"/>
      </g>
      <g id="Grupo_82437" data-name="Grupo 82437" transform="translate(60.592 27.542)">
        <path id="Trazado_115456" data-name="Trazado 115456" d="M59.361,24.814v9.181a3.671,3.671,0,0,1-3.672,3.672H44.672A3.671,3.671,0,0,1,41,33.995V24.814a3.683,3.683,0,0,1,3.672-3.672H55.689A3.683,3.683,0,0,1,59.361,24.814Z" transform="translate(-41 -21.142)" fill="#69d6f4"/>
      </g>
      <g id="Grupo_82438" data-name="Grupo 82438" transform="translate(48.621 62.428)">
        <path id="Trazado_115457" data-name="Trazado 115457" d="M51.079,41.629l-.955,9.53L42.779,45.65l-7.345,5.508-.955-9.53a23.506,23.506,0,0,1,8.3-1.487A23.924,23.924,0,0,1,51.079,41.629Z" transform="translate(-34.48 -40.142)" fill="#ffc729"/>
      </g>
      <g id="Grupo_82439" data-name="Grupo 82439" transform="translate(44.067 84.462)">
        <path id="Trazado_115458" data-name="Trazado 115458" d="M37.508,52.142h9.181a3.683,3.683,0,0,0-3.672,3.672v3.672H32V57.65A5.5,5.5,0,0,1,37.508,52.142Z" transform="translate(-32 -52.142)" fill="#f0d0b4"/>
      </g>
      <g id="Grupo_82440" data-name="Grupo 82440" transform="translate(3.672 91.807)">
        <path id="Trazado_115459" data-name="Trazado 115459" d="M65.084,63.487H10V61.65a5.5,5.5,0,0,1,5.508-5.508h45.9v3.672A3.671,3.671,0,0,0,65.084,63.487Z" transform="translate(-10 -56.142)" fill="#969faa"/>
      </g>
      <g id="Grupo_82441" data-name="Grupo 82441" transform="translate(34.886 27.542)">
        <path id="Trazado_115460" data-name="Trazado 115460" d="M45.361,24.814v9.181a3.671,3.671,0,0,1-3.672,3.672H30.672A3.671,3.671,0,0,1,27,33.995V24.814a3.683,3.683,0,0,1,3.672-3.672H41.689A3.683,3.683,0,0,1,45.361,24.814Z" transform="translate(-27 -21.142)" fill="#69d6f4"/>
      </g>
      <g id="Grupo_82442" data-name="Grupo 82442" transform="translate(0 51.412)">
        <path id="Trazado_115461" data-name="Trazado 115461" d="M48.395,51.806v8.042a7.339,7.339,0,0,1-7.271,7.345H34.073l-2.2-11.017H24.525l-2.2,11.017H15.345A7.343,7.343,0,0,1,8,59.848V41.487a7.342,7.342,0,0,1,7.345-7.345H41.05a7.386,7.386,0,0,1,7.124,5.545,7.211,7.211,0,0,1,.22,1.8Z" transform="translate(-8 -34.142)" fill="#ccd1d9"/>
      </g>
      <g id="Grupo_82443" data-name="Grupo 82443" transform="translate(27.542 31.214)">
        <path id="Trazado_115462" data-name="Trazado 115462" d="M30.345,32.323v1.836H28.508a5.5,5.5,0,0,1-3.893-9.4c.11-.11.239-.239.367-.349a5.518,5.518,0,0,1,3.525-1.267h1.836Z" transform="translate(-23 -23.142)" fill="#f0d0b4"/>
      </g>
      <g id="Grupo_82444" data-name="Grupo 82444" transform="translate(12.853 73.445)">
        <path id="Trazado_115463" data-name="Trazado 115463" d="M28.22,57.159,29.689,64.5H15l1.469-7.345,2.2-11.017h7.345Z" transform="translate(-15 -46.142)" fill="#aab2bd"/>
      </g>
    </g>
    <g id="Grupo_82446" data-name="Grupo 82446" transform="translate(0 0.002)">
      <path id="Trazado_115464" data-name="Trazado 115464" d="M48.508,27.815a1.837,1.837,0,0,1,1.836,1.836h3.672a5.508,5.508,0,1,0-11.017,0h3.672A1.837,1.837,0,0,1,48.508,27.815Z" transform="translate(35.954 20.184)"/>
      <path id="Trazado_115465" data-name="Trazado 115465" d="M34.508,27.815a1.837,1.837,0,0,1,1.836,1.836h3.672a5.508,5.508,0,1,0-11.017,0h3.672A1.837,1.837,0,0,1,34.508,27.815Z" transform="translate(24.248 20.184)"/>
      <path id="Trazado_115466" data-name="Trazado 115466" d="M89.626,51.047A7.352,7.352,0,0,0,96.97,43.7a7.274,7.274,0,0,0-1.7-4.647A24.867,24.867,0,0,0,72.025,5.142H59.486a24.867,24.867,0,0,0-23.24,33.913,7.27,7.27,0,0,0-1.7,4.647,7.352,7.352,0,0,0,7.345,7.345,20.194,20.194,0,0,0,.823,5.591c-.275-.026-.54-.083-.823-.083H16.181A9.191,9.191,0,0,0,7,65.736V84.1a9.191,9.191,0,0,0,9.181,9.181h4.737l-.734,3.672H18.017a7.352,7.352,0,0,0-7.345,7.345v3.672H82.281a9.191,9.191,0,0,0,9.181-9.181V93.278a25.717,25.717,0,0,0-14.979-23.33,20.214,20.214,0,0,0,13.143-18.9ZM67.592,38.194V40.03H63.92V38.194a5.515,5.515,0,0,0-5.508-5.508H47.395a5.436,5.436,0,0,0-1.834.338v-.553a5.505,5.505,0,0,1,3.766-5.227l4.131-1.377a5.5,5.5,0,0,0,4.956,3.147H85.955v4.01a5.447,5.447,0,0,0-1.836-.338H73.1a5.514,5.514,0,0,0-5.51,5.508Zm-22.032-.007a1.838,1.838,0,0,1,1.834-1.831H58.412a1.837,1.837,0,0,1,1.836,1.836v9.181a1.837,1.837,0,0,1-1.836,1.836H47.395a1.839,1.839,0,0,1-1.836-1.834Zm25.7.007A1.837,1.837,0,0,1,73.1,36.358H84.118a1.837,1.837,0,0,1,1.836,1.836v9.181a1.837,1.837,0,0,1-1.836,1.836H73.1a1.837,1.837,0,0,1-1.836-1.836Zm18.361,9.181V40.03a3.672,3.672,0,1,1,0,7.345ZM59.486,8.814H72.025a21.25,21.25,0,0,1,20.163,28.03,7.284,7.284,0,0,0-2.561-.487V27.177a10.475,10.475,0,0,0-8.779-10.365l-3.773-.628-.6,3.623,3.771.628a6.816,6.816,0,0,1,5.464,4.906h-27.3a1.836,1.836,0,1,1,0-3.672h1.836V18H58.412A5.5,5.5,0,0,0,53.1,22.115L48.164,23.76a9.168,9.168,0,0,0-6.276,8.709v3.887h0a7.25,7.25,0,0,0-2.561.487A21.248,21.248,0,0,1,59.486,8.814ZM38.214,43.7a3.676,3.676,0,0,1,3.672-3.672v7.345A3.677,3.677,0,0,1,38.214,43.7Zm-22.034,45.9A5.515,5.515,0,0,1,10.672,84.1V65.736a5.515,5.515,0,0,1,5.508-5.508H41.886a5.515,5.515,0,0,1,5.508,5.508V84.1a5.515,5.515,0,0,1-5.508,5.508H36.415l-2.2-11.017H23.858l-2.2,11.017Zm21.7,7.345-.734-3.672h2.9V96.95ZM26.865,82.261H31.2L34.138,96.95H23.929Zm-8.848,18.361H62.084v1.836a5.446,5.446,0,0,0,.338,1.836H14.345a3.676,3.676,0,0,1,3.672-3.672Zm44.067-5.508V96.95H54.739a3.676,3.676,0,0,1,3.672-3.672h4.01A5.438,5.438,0,0,0,62.084,95.114ZM87.79,93.278v5.508a5.515,5.515,0,0,1-5.508,5.508H67.592a1.837,1.837,0,0,1-1.836-1.836V95.114a1.837,1.837,0,0,1,1.836-1.836H77.627l3.127,4.691,3.055-2.036-4.218-6.325H58.412a7.352,7.352,0,0,0-7.345,7.345H43.723V93.28c0-.062.007-.123.007-.187a9.2,9.2,0,0,0,7.337-9v-7.21a22.049,22.049,0,0,1,4.814-3.3l1.026,10.262,8.848-6.636L74.6,83.848l1.025-10.24A22.036,22.036,0,0,1,87.79,93.278ZM55,69.95a25.505,25.505,0,0,0-3.937,2.26V67.967A19.781,19.781,0,0,0,55,69.95ZM72.08,72.179,71.6,77l-5.841-4.379L59.914,77l-.483-4.835a21.991,21.991,0,0,1,12.649.011Zm-2.651-4.607H62.084a16.392,16.392,0,0,1-11.518-4.693,9.177,9.177,0,0,0-3.3-4.546,16.256,16.256,0,0,1-1.618-5.76,5.463,5.463,0,0,0,1.746.31H58.412a5.515,5.515,0,0,0,5.508-5.508V43.7h3.672v3.672A5.515,5.515,0,0,0,73.1,52.883H84.118a5.434,5.434,0,0,0,1.759-.314A16.542,16.542,0,0,1,69.428,67.572Z" transform="translate(5.853 4.296)"/>
      <path id="Trazado_115467" data-name="Trazado 115467" d="M42.345,36.815a3.676,3.676,0,0,1-3.672-3.672H35a7.345,7.345,0,0,0,14.689,0H46.017A3.677,3.677,0,0,1,42.345,36.815Z" transform="translate(29.265 27.709)"/>
      <path id="Trazado_115468" data-name="Trazado 115468" d="M0,0H25.967V3.674H0Z" transform="translate(14.708 25.707) rotate(-81.837)"/>
      <path id="Trazado_115469" data-name="Trazado 115469" d="M15.889,19.72l8.643-8.643L15.889,2.435l-2.6,2.6,6.046,6.046-6.046,6.046Z" transform="translate(11.115 2.033)"/>
      <path id="Trazado_115470" data-name="Trazado 115470" d="M0,28.142H33.05v3.672H0Z" transform="translate(0 23.527)"/>
      <path id="Trazado_115471" data-name="Trazado 115471" d="M0,24.142H33.05v3.672H0Z" transform="translate(0 20.183)"/>
      <path id="Trazado_115472" data-name="Trazado 115472" d="M0,20.142H33.05v3.672H0Z" transform="translate(0 16.838)"/>
      <path id="Trazado_115473" data-name="Trazado 115473" d="M12,16.142h3.672v3.672H12Z" transform="translate(10.034 13.494)"/>
      <path id="Trazado_115474" data-name="Trazado 115474" d="M16,16.142h3.672v3.672H16Z" transform="translate(13.378 13.494)"/>
      <path id="Trazado_115475" data-name="Trazado 115475" d="M8,16.142h3.672v3.672H8Z" transform="translate(6.689 13.494)"/>
      <path id="Trazado_115476" data-name="Trazado 115476" d="M0,16.142H3.672v3.672H0Z" transform="translate(0 13.494)"/>
      <path id="Trazado_115477" data-name="Trazado 115477" d="M4,16.142H7.672v3.672H4Z" transform="translate(3.345 13.494)"/>
      <path id="Trazado_115478" data-name="Trazado 115478" d="M11.825,17.124,5.779,11.078l6.046-6.046-2.6-2.6L.586,11.078,9.229,19.72Z" transform="translate(0.49 2.033)"/>
      <path id="Trazado_115479" data-name="Trazado 115479" d="M55,55.142H67.853v3.672H55Z" transform="translate(45.987 46.103)"/>
      <path id="Trazado_115480" data-name="Trazado 115480" d="M55,51.142H67.853v3.672H55Z" transform="translate(45.987 42.758)"/>
      <path id="Trazado_115481" data-name="Trazado 115481" d="M55,47.142H67.853v3.672H55Z" transform="translate(45.987 39.414)"/>
      <path id="Trazado_115482" data-name="Trazado 115482" d="M55,43.142H67.853v3.672H55Z" transform="translate(45.987 36.069)"/>
    </g>
  </g>
</svg>
