<svg xmlns="http://www.w3.org/2000/svg" width="109.049" height="94.14" viewBox="0 0 109.049 94.14">
  <g id="super-intelligence" transform="translate(0 -35)">
    <g id="Grupo_82447" data-name="Grupo 82447" transform="translate(13.326 37.13)">
      <path id="Trazado_115483" data-name="Trazado 115483" d="M85.414,52.96A14.649,14.649,0,0,0,72.826,74.78a16.331,16.331,0,0,0,0,30.32,14.649,14.649,0,0,0,12.588,21.82,9.219,9.219,0,0,0,18.352-1.25,9.219,9.219,0,0,0,18.352,1.25,14.649,14.649,0,0,0,12.588-21.82,16.331,16.331,0,0,0,0-30.319,14.649,14.649,0,0,0-12.588-21.82,9.219,9.219,0,0,0-18.352,1.25,9.219,9.219,0,0,0-18.352-1.25ZM90.2,76.38h27.139V103.5H90.2V76.38Z" transform="translate(-62.568 -45)" fill="#13b770" fill-rule="evenodd"/>
    </g>
    <g id="Grupo_82448" data-name="Grupo 82448" transform="translate(40.955 68.51)">
      <path id="Trazado_115484" data-name="Trazado 115484" d="M192.29,192.332h27.138v27.121H192.29Z" transform="translate(-192.29 -192.332)" fill="#eecf52" fill-rule="evenodd"/>
    </g>
    <g id="Grupo_82449" data-name="Grupo 82449" transform="translate(2.13 38.306)">
      <path id="Trazado_115485" data-name="Trazado 115485" d="M15.469,50.524a5.466,5.466,0,1,0,5.469,5.466A5.465,5.465,0,0,0,15.469,50.524Z" transform="translate(-10 -50.524)" fill="#ffe6b4" fill-rule="evenodd"/>
    </g>
    <g id="Grupo_82450" data-name="Grupo 82450" transform="translate(2.13 114.902)">
      <path id="Trazado_115486" data-name="Trazado 115486" d="M15.469,410.15a5.466,5.466,0,1,0,5.469,5.466A5.469,5.469,0,0,0,15.469,410.15Z" transform="translate(-10 -410.15)" fill="#ffe6b4" fill-rule="evenodd"/>
    </g>
    <g id="Grupo_82451" data-name="Grupo 82451" transform="translate(95.98 114.902)">
      <path id="Trazado_115487" data-name="Trazado 115487" d="M456.109,410.15a5.466,5.466,0,1,0,5.469,5.466A5.469,5.469,0,0,0,456.109,410.15Z" transform="translate(-450.64 -410.15)" fill="#ffe6b4" fill-rule="evenodd"/>
    </g>
    <g id="Grupo_82452" data-name="Grupo 82452" transform="translate(95.98 38.306)">
      <path id="Trazado_115488" data-name="Trazado 115488" d="M456.109,50.524a5.466,5.466,0,1,0,5.469,5.466A5.465,5.465,0,0,0,456.109,50.524Z" transform="translate(-450.64 -50.524)" fill="#ffe6b4" fill-rule="evenodd"/>
    </g>
    <g id="Grupo_82453" data-name="Grupo 82453" transform="translate(0 35)">
      <path id="Trazado_115489" data-name="Trazado 115489" d="M131.967,154.661a2.13,2.13,0,0,0,0,4.26h9.042v5.312h-5.345a2.13,2.13,0,0,0,0,4.26h5.345v1.859a2.13,2.13,0,0,0,2.13,2.13H145v5.34a2.13,2.13,0,1,0,4.26,0v-5.34h5.318v9.035a2.13,2.13,0,1,0,4.26,0v-9.035h5.318v5.34a2.13,2.13,0,1,0,4.26,0v-5.34h1.862a2.13,2.13,0,0,0,2.13-2.13v-1.859h5.344a2.13,2.13,0,1,0,0-4.26h-5.344V158.92h9.042a2.13,2.13,0,1,0,0-4.26h-9.042v-5.312h5.344a2.13,2.13,0,1,0,0-4.26h-5.344V143.23a2.13,2.13,0,0,0-2.13-2.13h-1.862v-5.34a2.13,2.13,0,1,0-4.26,0v5.34h-5.318v-9.028a2.13,2.13,0,0,0-4.26,0V141.1H149.26v-5.34a2.13,2.13,0,1,0-4.26,0v5.34h-1.862a2.13,2.13,0,0,0-2.13,2.13v1.859h-5.345a2.13,2.13,0,1,0,0,4.26h5.345v5.312Zm13.3-9.3h22.879v22.861H145.269Z" transform="translate(-102.184 -109.721)"/>
      <path id="Trazado_115490" data-name="Trazado 115490" d="M103.579,113.078v-9.053a2.13,2.13,0,0,0-2.13-2.13H89.28a16.779,16.779,0,0,0-.979-3.653,18.465,18.465,0,0,0,0-32.344,16.779,16.779,0,0,0,.979-3.648h12.171a2.13,2.13,0,0,0,2.13-2.13V51.062a7.6,7.6,0,1,0-4.26,0v6.929H89.379a16.788,16.788,0,0,0-14.77-14.923,11.349,11.349,0,0,0-20.084-3.335A11.349,11.349,0,0,0,34.44,43.067,16.788,16.788,0,0,0,19.67,57.991H9.729V51.062a7.6,7.6,0,1,0-4.26,0v9.059A2.13,2.13,0,0,0,7.6,62.25H19.77a16.773,16.773,0,0,0,.979,3.649,18.4,18.4,0,0,0-6.288,5.69,2.13,2.13,0,1,0,3.507,2.419,14.156,14.156,0,0,1,6.409-5.121,2.13,2.13,0,0,0,1.063-3.023A12.518,12.518,0,0,1,36.147,47.222a12.163,12.163,0,0,1,4.563,1.1,12.343,12.343,0,0,1,3.055,1.994,5.1,5.1,0,0,0,1.263,1.029,2.185,2.185,0,0,0,1.388.111,2.124,2.124,0,0,0,1.592-2.2,2.175,2.175,0,0,0-.623-1.37,15.641,15.641,0,0,0-1.348-1.227,16.477,16.477,0,0,0-7.124-3.369A7.089,7.089,0,0,1,52.395,46.34a2.13,2.13,0,1,0,4.26,0,7.089,7.089,0,0,1,13.481-3.056,16.486,16.486,0,0,0-8.5,4.622,2.13,2.13,0,0,0,3.041,2.982A12.25,12.25,0,0,1,72.9,47.222,12.518,12.518,0,0,1,83.61,65.864a2.13,2.13,0,0,0,1.062,3.023,14.2,14.2,0,0,1,0,26.366,2.13,2.13,0,0,0-1.064,3.023A12.518,12.518,0,0,1,72.9,116.919a12.163,12.163,0,0,1-4.563-1.1,12.285,12.285,0,0,1-3.66-2.57,2.13,2.13,0,1,0-3.041,2.982,16.485,16.485,0,0,0,8.5,4.622A7.089,7.089,0,0,1,56.654,117.8a2.13,2.13,0,1,0-4.26,0,7.089,7.089,0,0,1-13.481,3.056,16.485,16.485,0,0,0,8.5-4.622,2.13,2.13,0,0,0-3.041-2.982,12.25,12.25,0,0,1-8.223,3.667A12.518,12.518,0,0,1,25.439,98.276a2.13,2.13,0,0,0-1.063-3.023,14.229,14.229,0,0,1-6.412-5.119,2.13,2.13,0,1,0-3.5,2.428,18.5,18.5,0,0,0,6.285,5.679,16.778,16.778,0,0,0-.981,3.655H7.6a2.13,2.13,0,0,0-2.13,2.13v9.053a7.6,7.6,0,1,0,4.26,0v-6.923h9.942A16.787,16.787,0,0,0,34.44,121.072a11.349,11.349,0,0,0,20.084,3.335,11.349,11.349,0,0,0,20.084-3.335,16.787,16.787,0,0,0,14.769-14.917H99.32v6.923a7.6,7.6,0,1,0,4.26,0ZM98.11,43.772a3.34,3.34,0,1,1,3.339,3.336A3.342,3.342,0,0,1,98.11,43.772Zm-93.85,0A3.34,3.34,0,1,1,7.6,47.108,3.342,3.342,0,0,1,4.26,43.772Zm6.679,76.6A3.34,3.34,0,1,1,7.6,117.032,3.342,3.342,0,0,1,10.939,120.368Zm90.511,3.336a3.336,3.336,0,1,1,3.34-3.336A3.342,3.342,0,0,1,101.449,123.7Z" transform="translate(0 -35)"/>
      <path id="Trazado_115491" data-name="Trazado 115491" d="M56.828,248.13a2.13,2.13,0,0,0-4.26,0v.012a2.13,2.13,0,0,0,4.26-.012Z" transform="translate(-41.372 -201.06)"/>
    </g>
  </g>
</svg>
