<svg xmlns="http://www.w3.org/2000/svg" width="132" height="90.238" viewBox="0 0 132 90.238">
  <g id="mapas" transform="translate(0 -80.993)">
    <path id="Trazado_115412" data-name="Trazado 115412" d="M118.48,227.5H23.608L6.8,278.159h128.5Z" transform="translate(-5.044 -108.733)" fill="#ffdc64"/>
    <g id="Grupo_82424" data-name="Grupo 82424" transform="translate(11.743 118.764)">
      <path id="Trazado_115413" data-name="Trazado 115413" d="M369.537,334.788l-4.485-5.368a1.979,1.979,0,0,0-.168-.176,5.155,5.155,0,0,0-7.309-6.792,5.306,5.306,0,0,0-.536.393,5.159,5.159,0,0,0,4.913,8.861,2.094,2.094,0,0,0,.174.243l4.4,5.269a1.973,1.973,0,0,0,2.413.529A1.936,1.936,0,0,0,369.537,334.788Z" transform="translate(-275.359 -297.369)" fill="#efc03c"/>
      <path id="Trazado_115414" data-name="Trazado 115414" d="M59.758,339.8l-4.394-5.443a1.908,1.908,0,0,0-.167-.179,5.156,5.156,0,1,0-2.982,2.408,1.938,1.938,0,0,0,.14.2l4.394,5.443a1.934,1.934,0,1,0,3.009-2.429Z" transform="translate(-45.547 -300.981)" fill="#efc03c"/>
      <path id="Trazado_115415" data-name="Trazado 115415" d="M125.784,254.5l.541-1.708a146.789,146.789,0,0,0,4.123-16.183q.94-4.924,1.327-9.114H80.725a26.282,26.282,0,0,0,3.5,9.494c6.918,11.387,36.448,16.651,39.793,17.214Z" transform="translate(-71.656 -227.498)" fill="#efc03c"/>
    </g>
    <path id="Trazado_115416" data-name="Trazado 115416" d="M145.1,262.432l-5.39-16.243h-9.545L123.806,227.5H112.337l6.357,18.692H32.43l-5.39,16.243H53.491l-5.349,15.727H65.3l5.349-15.727h31.1l5.349,15.727h17.157L118.9,262.432Z" transform="translate(-20.068 -108.733)" fill="#79dfef"/>
    <g id="Grupo_82425" data-name="Grupo 82425" transform="translate(11.743 137.456)">
      <path id="Trazado_115417" data-name="Trazado 115417" d="M365.053,329.42a1.987,1.987,0,0,0-.168-.176,5.155,5.155,0,0,0-7.309-6.792,5.279,5.279,0,0,0-.536.393,5.159,5.159,0,0,0,4.913,8.861,2.084,2.084,0,0,0,.173.244l.349.417-.021-.063h5.009Z" transform="translate(-275.36 -316.061)" fill="#05acd3"/>
      <path id="Trazado_115418" data-name="Trazado 115418" d="M55.364,334.36a1.9,1.9,0,0,0-.167-.179,5.159,5.159,0,1,0-7.405,1.737h8.829Z" transform="translate(-45.547 -319.674)" fill="#05acd3"/>
      <path id="Trazado_115419" data-name="Trazado 115419" d="M169.245,308.016l1.767.3.541-1.708c.483-1.524,1.179-3.822,1.92-6.6h-31.81C152.779,305.109,166.986,307.635,169.245,308.016Z" transform="translate(-116.884 -300.001)" fill="#05acd3"/>
    </g>
    <path id="Trazado_115420" data-name="Trazado 115420" d="M178.067,149.79C175.5,147.573,153,127.741,153,114.418a26.427,26.427,0,1,1,52.854,0c0,6.049-4.425,14.014-13.152,23.676a146.743,146.743,0,0,1-11.926,11.69l-1.349,1.178Z" transform="translate(-113.551 -5.194)" fill="#13b770"/>
    <path id="Trazado_115421" data-name="Trazado 115421" d="M193.744,100.754a19.1,19.1,0,0,0-12.525-6.324,2.459,2.459,0,0,1-2.209-2.736l.236-2.046a1.332,1.332,0,0,0-1.405-1.481,26.461,26.461,0,0,0-24.845,26.38c0,13.323,22.505,33.155,25.071,35.372l1.356,1.171-1.316-15.767a2.453,2.453,0,0,1,2.312-2.666,19.168,19.168,0,0,0,13.327-31.9Z" transform="translate(-113.551 -5.323)" fill="#13b770"/>
    <path id="Trazado_115422" data-name="Trazado 115422" d="M220.987,163.971a11.989,11.989,0,1,1,11.989-11.989A12,12,0,0,1,220.987,163.971Z" transform="translate(-155.115 -43.789)" fill="#fff"/>
    <g id="Grupo_82426" data-name="Grupo 82426" transform="translate(19.258 100.965)">
      <path id="Trazado_115423" data-name="Trazado 115423" d="M91.052,170.578a6.059,6.059,0,1,1,6.059-6.059A6.066,6.066,0,0,1,91.052,170.578Z" transform="translate(-82.339 -158.46)" fill="#ff507d"/>
      <path id="Trazado_115424" data-name="Trazado 115424" d="M79.854,326.248a5.157,5.157,0,1,1,5.157-5.157A5.162,5.162,0,0,1,79.854,326.248Z" transform="translate(-74.697 -275.336)" fill="#ff507d"/>
      <path id="Trazado_115425" data-name="Trazado 115425" d="M390.244,321.115a5.255,5.255,0,0,1-.663-.042,5.157,5.157,0,0,1,.663-10.271,5.257,5.257,0,0,1,.663.042,5.157,5.157,0,0,1-.663,10.271Z" transform="translate(-305.065 -271.526)" fill="#ff507d"/>
    </g>
    <g id="Grupo_82427" data-name="Grupo 82427" transform="translate(19.258 100.965)">
      <path id="Trazado_115426" data-name="Trazado 115426" d="M89.533,162.919a6.044,6.044,0,0,1,1.946-4.444c-.141-.01-.283-.017-.427-.017a6.059,6.059,0,1,0,2.769,11.446.666.666,0,0,0-.1-1.224A6.067,6.067,0,0,1,89.533,162.919Z" transform="translate(-82.338 -158.459)" fill="#ef1846"/>
      <path id="Trazado_115427" data-name="Trazado 115427" d="M79.236,319.494a5.109,5.109,0,0,1,.929-2.941.389.389,0,0,0-.3-.617h-.008a5.156,5.156,0,1,0,3.223,9.172.39.39,0,0,0-.145-.675A5.16,5.16,0,0,1,79.236,319.494Z" transform="translate(-74.696 -275.336)" fill="#ef1846"/>
      <path id="Trazado_115428" data-name="Trazado 115428" d="M389.669,315.026a5.171,5.171,0,0,1,1.244-4.071c.028-.032.058-.063.087-.094-.031,0-.062-.012-.094-.016a5.3,5.3,0,0,0-.663-.042,5.157,5.157,0,0,0-.663,10.271,5.3,5.3,0,0,0,.663.042h0a5.154,5.154,0,0,0,3.4-1.288.273.273,0,0,0-.123-.468A5.137,5.137,0,0,1,389.669,315.026Z" transform="translate(-305.064 -271.527)" fill="#ef1846"/>
    </g>
    <path id="Trazado_115429" data-name="Trazado 115429" d="M229.585,146.788a13.794,13.794,0,1,0-13.794,13.794A13.809,13.809,0,0,0,229.585,146.788Zm-23.72,0a9.926,9.926,0,1,1,9.926,9.926A9.938,9.938,0,0,1,205.865,146.788Z" transform="translate(-149.92 -38.594)"/>
    <path id="Trazado_115430" data-name="Trazado 115430" d="M131.887,168.635,126.7,153l0-.011-5.3-15.974,0-.01-6.212-18.719a1.934,1.934,0,0,0-1.835-1.325H92.307a20.225,20.225,0,0,0,1.8-7.735,28.232,28.232,0,0,0-56.463,0,20.23,20.23,0,0,0,1.8,7.735H29.905v-2.312a7.864,7.864,0,1,0-3.867,0v2.312h-7.38a1.933,1.933,0,0,0-1.835,1.325L10.611,137l0,.01-5.3,15.974,0,.011L.114,168.635a2.006,2.006,0,0,0-.024,1.253,1.936,1.936,0,0,0,1.842,1.342H66.881a1.934,1.934,0,0,0,1.934-1.934h0a1.934,1.934,0,0,0-1.934-1.934H47.837l4.033-11.86H80.387l4.034,11.86H78.138A1.934,1.934,0,0,0,76.2,169.3h0a1.934,1.934,0,0,0,1.934,1.934H130.07a1.936,1.936,0,0,0,1.842-1.342A2.007,2.007,0,0,0,131.887,168.635Zm-19.94-47.809,4.92,14.825h-5.481l-5.042-14.825Zm-20.884,0,5.042,14.825H79.079a81.947,81.947,0,0,0,11.314-14.825ZM65.872,84.86a24.392,24.392,0,0,1,24.364,24.364c0,5.444-4.364,13.153-12.62,22.293a145.574,145.574,0,0,1-11.752,11.519c-7.812-6.75-24.357-23.243-24.357-33.812A24.392,24.392,0,0,1,65.872,84.86Zm-41.9,22.164a4,4,0,1,1,4,4A4,4,0,0,1,23.975,107.024Zm2.893,60.34H4.61L8.546,155.5H22.481v3.239a1.934,1.934,0,0,0,3.867,0V155.5H30.9Zm-5.548-20.643a3.094,3.094,0,1,1,3.094,3.094A3.1,3.1,0,0,1,21.321,146.721Zm75.5,7.472,4.48,13.171h-12.8l-4.9-14.416a1.934,1.934,0,0,0-1.831-1.311H50.487a1.934,1.934,0,0,0-1.83,1.311l-4.9,14.416h-12.8l4.48-13.171a1.937,1.937,0,0,0-.683-2.18,2,2,0,0,0-1.2-.376h-4.21a6.961,6.961,0,1,0-9.849,0H9.829l4.021-12.118h19.36a1.934,1.934,0,0,0,1.934-1.934h0a1.934,1.934,0,0,0-1.934-1.934H15.134l4.92-14.825h5.985v.3a1.987,1.987,0,0,0,1.874,2.014,1.934,1.934,0,0,0,1.993-1.933v-.378H41.35a81.929,81.929,0,0,0,11.314,14.825h-8.2a1.934,1.934,0,0,0-1.934,1.934h0a1.934,1.934,0,0,0,1.934,1.934h11.95c4.344,4.308,7.829,7.223,8.219,7.547a1.933,1.933,0,0,0,2.47,0c.39-.323,3.875-3.239,8.219-7.547H98.753a2,2,0,0,0,1.2-.376,1.937,1.937,0,0,0,.683-2.18l-5.488-16.136h7.111l5.911,17.381A1.934,1.934,0,0,0,110,139.519h8.148l4.021,12.118H107.533a6.967,6.967,0,1,0-6.181,0H98.71a2,2,0,0,0-1.2.376A1.937,1.937,0,0,0,96.826,154.193Zm7.208-5.727a3.095,3.095,0,1,1,3.472-3.473A3.1,3.1,0,0,1,104.033,148.466Zm1.357,18.9-4.034-11.86H102.5v1.853a1.973,1.973,0,0,0,1.513,1.953,1.936,1.936,0,0,0,2.354-1.889V155.5h17.085l3.936,11.86Z"/>
  </g>
</svg>
