<svg xmlns="http://www.w3.org/2000/svg" xmlns:xlink="http://www.w3.org/1999/xlink" width="399.201" height="331.001" viewBox="0 0 399.201 331.001">
  <defs>
    <clipPath id="clip-path">
      <rect id="Rectángulo_33934" data-name="Rectángulo 33934" width="330.318" height="294.391" fill="none"/>
    </clipPath>
    <clipPath id="clip-path-3">
      <rect id="Rectángulo_33857" data-name="Rectángulo 33857" width="167.841" height="13.672" fill="#e6e6e6"/>
    </clipPath>
    <clipPath id="clip-path-4">
      <path id="Trazado_113656" data-name="Trazado 113656" d="M25.467,283.292a7.823,7.823,0,0,0-7.591,7.994v50.6a7.823,7.823,0,0,0,7.591,7.994H78.194a7.824,7.824,0,0,0,7.592-7.994V300.855l14.038-10.926-14.136.081a7.751,7.751,0,0,0-7.494-6.719Z" transform="translate(-17.876 -283.292)" fill="none"/>
    </clipPath>
    <clipPath id="clip-path-5">
      <path id="Trazado_113657" data-name="Trazado 113657" d="M34.551,325.584a27.263,27.263,0,1,0,51.12-13.2L61.839,325.559l13.069-23.892a27.269,27.269,0,0,0-40.356,23.917" transform="translate(-34.551 -298.321)" fill="none"/>
    </clipPath>
    <clipPath id="clip-path-6">
      <path id="Trazado_113658" data-name="Trazado 113658" d="M106.768,326.739l23.613-13.633a27.4,27.4,0,0,0-9.98-9.98Z" transform="translate(-106.768 -303.126)" fill="none"/>
    </clipPath>
    <clipPath id="clip-path-8">
      <path id="Trazado_113660" data-name="Trazado 113660" d="M396.585,0A9.326,9.326,0,0,0,387.2,9.208V67.5a9.316,9.316,0,0,0,8.812,9.191l-2.248,13.47,13.014-13.452h64.16a9.327,9.327,0,0,0,9.386-9.209V9.208A9.327,9.327,0,0,0,470.937,0Z" transform="translate(-387.199 0.001)" fill="#1a144c"/>
    </clipPath>
    <clipPath id="clip-path-10">
      <rect id="Rectángulo_33865" data-name="Rectángulo 33865" width="53.656" height="64.867" fill="none"/>
    </clipPath>
    <clipPath id="clip-path-11">
      <path id="Trazado_113661" data-name="Trazado 113661" d="M473.05,19.784v3.79a26.828,26.828,0,1,1-11.966,0v-3.79h-.013a2.276,2.276,0,0,1-2.272-2.272V13.965a2.276,2.276,0,0,1,2.272-2.273h11.991a2.276,2.276,0,0,1,2.273,2.273v3.547a2.276,2.276,0,0,1-2.273,2.272Z" transform="translate(-440.239 -11.692)" fill="none" clip-rule="evenodd"/>
    </clipPath>
    <linearGradient id="linear-gradient" x1="-3.096" y1="4.324" x2="-3.089" y2="4.324" gradientUnits="objectBoundingBox">
      <stop offset="0" stop-color="#fd90da"/>
      <stop offset="1" stop-color="#8e6dfd"/>
    </linearGradient>
    <clipPath id="clip-path-12">
      <path id="Trazado_113663" data-name="Trazado 113663" d="M440.291,68.546a25.254,25.254,0,1,0,25.253-25.253,25.254,25.254,0,0,0-25.253,25.253" transform="translate(-440.291 -43.293)" fill="none"/>
    </clipPath>
    <clipPath id="clip-path-13">
      <path id="Trazado_113664" data-name="Trazado 113664" d="M449.556,74.094a21.535,21.535,0,1,0,21.535-21.535,21.535,21.535,0,0,0-21.535,21.535" transform="translate(-449.556 -52.559)" fill="none"/>
    </clipPath>
    <linearGradient id="linear-gradient-2" x1="-3.395" y1="5.355" x2="-3.387" y2="5.355" gradientUnits="objectBoundingBox">
      <stop offset="0" stop-color="#e5fff4"/>
      <stop offset="1" stop-color="#273088"/>
    </linearGradient>
    <clipPath id="clip-path-15">
      <path id="Trazado_113669" data-name="Trazado 113669" d="M62.958,53.977a7.343,7.343,0,0,0-7.125,7.5v47.489a7.342,7.342,0,0,0,7.125,7.5h52.111l12.369,16.085-1.075-16.085h.112a7.343,7.343,0,0,0,7.125-7.5V61.479a7.343,7.343,0,0,0-7.125-7.5Z" transform="translate(-55.833 -53.977)" fill="#13b770"/>
    </clipPath>
    <clipPath id="clip-path-17">
      <rect id="Rectángulo_33875" data-name="Rectángulo 33875" width="61.46" height="54.537" fill="none"/>
    </clipPath>
    <clipPath id="clip-path-18">
      <path id="Trazado_113670" data-name="Trazado 113670" d="M130.259,69.259V66.231a1.487,1.487,0,0,0-1.451-1.516h-.677a1.488,1.488,0,0,0-1.451,1.516v3.029h-3.747V66.231a1.487,1.487,0,0,0-1.451-1.516h-.677a1.488,1.488,0,0,0-1.451,1.516v3.029h-2.992V66.231a1.487,1.487,0,0,0-1.451-1.516h-.677a1.488,1.488,0,0,0-1.451,1.516v3.029h-3.746V66.231a1.487,1.487,0,0,0-1.451-1.516h-.676a1.488,1.488,0,0,0-1.452,1.516v3.029h-3.746V66.231a1.487,1.487,0,0,0-1.451-1.516h-.677a1.488,1.488,0,0,0-1.451,1.516v3.029H94.906V66.231a1.487,1.487,0,0,0-1.451-1.516h-.712a1.489,1.489,0,0,0-1.425,1.515v3.029H87.572V66.231a1.487,1.487,0,0,0-1.451-1.516h-.677a1.488,1.488,0,0,0-1.451,1.516v3.029c-.785,0-1.54-.014-2.323.045a6.547,6.547,0,0,0-5.522,6.6v36.7a6.548,6.548,0,0,0,5.522,6.6v.045h49.683a6.481,6.481,0,0,0,6.255-6.645V75.9c0-3.495-2.35-6.607-5.941-6.607Z" transform="translate(-76.148 -64.715)" fill="none" clip-rule="evenodd"/>
    </clipPath>
    <linearGradient id="linear-gradient-3" x1="-0.306" y1="3.545" x2="-0.301" y2="3.545" gradientUnits="objectBoundingBox">
      <stop offset="0" stop-color="#1c8ef4"/>
      <stop offset="1" stop-color="#00cfdd"/>
    </linearGradient>
    <clipPath id="clip-path-19">
      <path id="Trazado_113671" data-name="Trazado 113671" d="M87.434,78.725a5.441,5.441,0,0,0-5.227,5.6V119.8a5.441,5.441,0,0,0,5.227,5.6h46.594a5.441,5.441,0,0,0,5.226-5.6V84.329a5.441,5.441,0,0,0-5.226-5.6Z" transform="translate(-82.207 -78.725)" fill="none"/>
    </clipPath>
    <clipPath id="clip-path-21">
      <path id="Trazado_113676" data-name="Trazado 113676" d="M96.908,81.846a1.385,1.385,0,1,0,1.385-1.385,1.385,1.385,0,0,0-1.385,1.385" transform="translate(-96.908 -80.461)" fill="none"/>
    </clipPath>
    <linearGradient id="linear-gradient-4" x1="-13.83" y1="93.257" x2="-13.688" y2="93.257" gradientUnits="objectBoundingBox">
      <stop offset="0" stop-color="#005b90"/>
      <stop offset="1" stop-color="#00345a"/>
    </linearGradient>
    <clipPath id="clip-path-23">
      <path id="Trazado_113678" data-name="Trazado 113678" d="M114.547,81.846a1.385,1.385,0,1,0,1.385-1.385,1.385,1.385,0,0,0-1.385,1.385" transform="translate(-114.547 -80.461)" fill="none"/>
    </clipPath>
    <linearGradient id="linear-gradient-5" x1="-16.349" y1="93.244" x2="-16.206" y2="93.244" xlink:href="#linear-gradient-4"/>
    <clipPath id="clip-path-25">
      <path id="Trazado_113680" data-name="Trazado 113680" d="M132.187,81.846a1.385,1.385,0,1,0,1.385-1.385,1.385,1.385,0,0,0-1.385,1.385" transform="translate(-132.187 -80.461)" fill="none"/>
    </clipPath>
    <linearGradient id="linear-gradient-6" x1="-18.868" y1="93.257" x2="-18.725" y2="93.257" xlink:href="#linear-gradient-4"/>
    <clipPath id="clip-path-27">
      <path id="Trazado_113682" data-name="Trazado 113682" d="M149.827,81.846a1.385,1.385,0,1,0,1.385-1.385,1.385,1.385,0,0,0-1.385,1.385" transform="translate(-149.827 -80.461)" fill="none"/>
    </clipPath>
    <linearGradient id="linear-gradient-7" x1="-21.387" y1="93.27" x2="-21.244" y2="93.27" xlink:href="#linear-gradient-4"/>
    <clipPath id="clip-path-29">
      <path id="Trazado_113684" data-name="Trazado 113684" d="M167.466,81.846a1.385,1.385,0,1,0,1.385-1.385,1.385,1.385,0,0,0-1.385,1.385" transform="translate(-167.466 -80.461)" fill="none"/>
    </clipPath>
    <linearGradient id="linear-gradient-8" x1="-23.905" y1="93.257" x2="-23.763" y2="93.257" xlink:href="#linear-gradient-4"/>
    <clipPath id="clip-path-31">
      <path id="Trazado_113686" data-name="Trazado 113686" d="M185.1,81.846a1.385,1.385,0,1,0,1.385-1.385,1.385,1.385,0,0,0-1.385,1.385" transform="translate(-185.105 -80.461)" fill="none"/>
    </clipPath>
    <linearGradient id="linear-gradient-9" x1="-26.424" y1="93.257" x2="-26.281" y2="93.257" xlink:href="#linear-gradient-4"/>
    <clipPath id="clip-path-33">
      <path id="Trazado_113688" data-name="Trazado 113688" d="M202.744,81.846a1.385,1.385,0,1,0,1.385-1.385,1.385,1.385,0,0,0-1.385,1.385" transform="translate(-202.744 -80.461)" fill="none"/>
    </clipPath>
    <linearGradient id="linear-gradient-10" x1="-28.943" y1="93.257" x2="-28.8" y2="93.257" xlink:href="#linear-gradient-4"/>
    <clipPath id="clip-path-35">
      <path id="Trazado_113699" data-name="Trazado 113699" d="M571.9,300.125,595.176,323.4a32.921,32.921,0,0,0,0-46.556Z" transform="translate(-571.898 -276.847)" fill="none"/>
    </clipPath>
    <clipPath id="clip-path-36">
      <path id="Trazado_113700" data-name="Trazado 113700" d="M486.16,324.612a32.92,32.92,0,0,0,56.2,23.278l-23.278-23.278-31.8-8.522a32.966,32.966,0,0,0-1.116,8.522" transform="translate(-486.16 -316.09)" fill="none"/>
    </clipPath>
    <clipPath id="clip-path-37">
      <path id="Trazado_113701" data-name="Trazado 113701" d="M488.941,274.745l31.8,8.522,23.278-23.277a32.925,32.925,0,0,0-55.081,14.755" transform="translate(-488.941 -250.348)" fill="none"/>
    </clipPath>
    <clipPath id="clip-path-39">
      <rect id="Rectángulo_33897" data-name="Rectángulo 33897" width="12.388" height="5.409" fill="none"/>
    </clipPath>
    <clipPath id="clip-path-40">
      <rect id="Rectángulo_33898" data-name="Rectángulo 33898" width="12.941" height="4.645" fill="none"/>
    </clipPath>
    <clipPath id="clip-path-41">
      <path id="Trazado_113706" data-name="Trazado 113706" d="M298.617,387.005c8.333,48.656,21.809,68.611,39.988,112.773,3.294.952,10.835,1.088,13.46-1.622C339.8,458.839,333.748,422.6,325.581,382.84Z" transform="translate(-298.617 -382.84)" fill="none"/>
    </clipPath>
    <linearGradient id="linear-gradient-11" x1="-0.632" y1="1.311" x2="-0.629" y2="1.311" gradientUnits="objectBoundingBox">
      <stop offset="0" stop-color="#3e4795"/>
      <stop offset="1" stop-color="#273088"/>
    </linearGradient>
    <clipPath id="clip-path-43">
      <rect id="Rectángulo_33901" data-name="Rectángulo 33901" width="39.988" height="117.026" fill="none"/>
    </clipPath>
    <clipPath id="clip-path-44">
      <path id="Trazado_113708" data-name="Trazado 113708" d="M259.744,378.313c-3.224,13.736-4.45,16.2-4.2,23.193.484,13.63,3.259,29.344,5.857,45.041,2.882,17.411,5.62,33.252,7.158,50.853,5.08,2.923,8.985,1.965,13.067-.263-.547-16.728-.783-33.291-.95-49.966-.262-26.4,4.291-45.292,9.544-70.391Z" transform="translate(-255.51 -376.779)" fill="none"/>
    </clipPath>
    <linearGradient id="linear-gradient-12" x1="-0.703" y1="1.172" x2="-0.699" y2="1.172" xlink:href="#linear-gradient-11"/>
    <clipPath id="clip-path-46">
      <path id="Trazado_113710" data-name="Trazado 113710" d="M299.319,208.27c1.191,4.169,5.146,7.378,9.015,6.855,3.333-.451,4.138-5.429,3-8.214-.164-1.353-.225-2.5-.263-3.859l-8.418-2.455-2.17-1.535a81.47,81.47,0,0,1-1.162,9.208" transform="translate(-299.319 -199.062)" fill="none"/>
    </clipPath>
    <linearGradient id="linear-gradient-13" x1="-6.99" y1="11.146" x2="-6.967" y2="11.146" gradientUnits="objectBoundingBox">
      <stop offset="0" stop-color="#ff8a78"/>
      <stop offset="1" stop-color="#ffa799"/>
    </linearGradient>
    <clipPath id="clip-path-47">
      <path id="Trazado_113711" data-name="Trazado 113711" d="M301.426,139.934c-4.267-3.822-10.1-.5-10.134,5.19-.006,1.174.544,2.018.1,3.713-.354,1.364-1.042,2.325-.866,4.278a5.933,5.933,0,0,0,.468,1.836c.574,1.347.643.941.738,2.513.092,1.526.425,2.377,2.616,2.571l6.739-3.547,10.435-3.734c3.078-.451,8.076-3.938,5.386-9.612-1.387-2.926-4.229-3.946-7.764-2.97a5.815,5.815,0,0,0-4.051-1.986,5.166,5.166,0,0,0-3.672,1.748" transform="translate(-290.502 -138.186)" fill="none"/>
    </clipPath>
    <linearGradient id="linear-gradient-14" x1="-2.983" y1="6.6" x2="-2.972" y2="6.6" gradientUnits="objectBoundingBox">
      <stop offset="0" stop-color="#5a2d68"/>
      <stop offset="1" stop-color="#22043d"/>
    </linearGradient>
    <clipPath id="clip-path-49">
      <path id="Trazado_113713" data-name="Trazado 113713" d="M302.406,159.675c-.848,1.277-1.323,1.7-3.406,2.514-.843,9.032-2.153,5.693-2.611,3.805-.327-1.351-1.865-.8-2.28.918-.452,1.87,1.189,3.185,1.934,4.807a6.811,6.811,0,0,1,.547,1.6c.2,1.12-.531,2.138,1.972,4.082a39.018,39.018,0,0,0,5.376,3.787c2.724,1.438,4.258.622,5.541-1.023,3.531-4.529,4.231-10.282,5.367-15.771-4.164-.277-6.582-2.838-9.438-5.579a1.881,1.881,0,0,0-1.246-.649c-.687,0-1.21.686-1.754,1.505" transform="translate(-294.031 -158.17)" fill="none"/>
    </clipPath>
    <linearGradient id="linear-gradient-15" x1="-3.872" y1="7.559" x2="-3.859" y2="7.559" gradientUnits="objectBoundingBox">
      <stop offset="0" stop-color="#ffb89e"/>
      <stop offset="1" stop-color="#ffa799"/>
    </linearGradient>
    <clipPath id="clip-path-51">
      <path id="Trazado_113715" data-name="Trazado 113715" d="M316.123,239.323c-1.4.171-2.836.314-2.63,1.83.159,1.166,1.166,2.007,2.408,2.993L317.37,278.7l6.075,7.649,3.975-9.213L318.176,243.5c.954-2.824.64-3.47.094-3.887-.395-.3-.309-.439-.687-.439-.234,0-.646.052-1.46.151" transform="translate(-313.473 -239.172)" fill="none"/>
    </clipPath>
    <linearGradient id="linear-gradient-16" x1="-4.76" y1="4.053" x2="-4.744" y2="4.053" xlink:href="#linear-gradient-3"/>
    <clipPath id="clip-path-53">
      <path id="Trazado_113718" data-name="Trazado 113718" d="M272.956,294.065l-7.216,37.824a1.967,1.967,0,0,0,1.553,2.3l24.086,4.65a1.964,1.964,0,0,0,2.3-1.553l7.216-37.824a1.967,1.967,0,0,0-1.553-2.3l-24.087-4.65a1.959,1.959,0,0,0-2.3,1.553" transform="translate(-265.705 -292.476)" fill="none"/>
    </clipPath>
    <linearGradient id="linear-gradient-17" x1="-2.693" y1="3.633" x2="-2.683" y2="3.633" xlink:href="#linear-gradient-11"/>
    <clipPath id="clip-path-55">
      <rect id="Rectángulo_33913" data-name="Rectángulo 33913" width="29.534" height="15.262" fill="none"/>
    </clipPath>
    <clipPath id="clip-path-56">
      <path id="Trazado_113720" data-name="Trazado 113720" d="M299.521,365.589c1.925.137,3.062,3.428,5.738,3.822,3.019.444,8.8.745,10.27-.394.579-.448.864-2.051,1.366-5.1.261-1.585,1.835-5.208-.207-5.83-1.564-.477-3.894-.271-6.342-.065-2.82.237-5.8.474-7.937-.334-1.444,2.05-3.991,5.294-2.888,7.9" transform="translate(-299.252 -357.689)" fill="none"/>
    </clipPath>
    <linearGradient id="linear-gradient-18" x1="-5.008" y1="6.816" x2="-4.991" y2="6.816" xlink:href="#linear-gradient-15"/>
    <clipPath id="clip-path-58">
      <rect id="Rectángulo_33916" data-name="Rectángulo 33916" width="38.761" height="18.741" fill="none"/>
    </clipPath>
    <clipPath id="clip-path-59">
      <path id="Trazado_113724" data-name="Trazado 113724" d="M485.341,214.345c-.962,1.074-2.346,1.844-6.449,2.091a12.311,12.311,0,0,1,1.2-2.954c1-1.772,2.083-3.057.631-4.26a19,19,0,0,1-3.945,3.837c-4.55,2.923-5.625,3.143-5.885,6.641-.369,4.977-.952,5.024-3.071,9.518l6,3.423c3.143-4.449,3.019-5.657,7.867-8.028,2.177-1.065,4.139-2.166,6.452-3.224,1.709-.78,1.509-.586,2.455-3.053,1.541-4.016,3.753-6.475,6.7-10.3h-.169c-6.148,0-7.045,1.017-11.787,6.31" transform="translate(-467.823 -208.035)" fill="none"/>
    </clipPath>
    <linearGradient id="linear-gradient-19" x1="-4.835" y1="5.676" x2="-4.825" y2="5.676" xlink:href="#linear-gradient-15"/>
    <clipPath id="clip-path-61">
      <rect id="Rectángulo_33919" data-name="Rectángulo 33919" width="43.488" height="24.826" fill="none"/>
    </clipPath>
    <clipPath id="clip-path-62">
      <path id="Trazado_113729" data-name="Trazado 113729" d="M125.112,550.382a8.655,8.655,0,1,1,8.655,8.655,8.655,8.655,0,0,1-8.655-8.655m-7.3,0a15.952,15.952,0,1,0,15.952-15.953,15.951,15.951,0,0,0-15.952,15.953" transform="translate(-117.815 -534.429)" fill="none"/>
    </clipPath>
    <linearGradient id="linear-gradient-20" x1="-1.006" y1="2.023" x2="-0.996" y2="2.023" xlink:href="#linear-gradient-3"/>
    <clipPath id="clip-path-64">
      <path id="Trazado_113732" data-name="Trazado 113732" d="M416.4,452.545v25.139a5.75,5.75,0,0,0,5.58,5.876h34.866a5.75,5.75,0,0,0,5.58-5.876V440.491a5.75,5.75,0,0,0-5.58-5.876H421.981a5.72,5.72,0,0,0-5.555,5.333l-16.346-7.937Z" transform="translate(-400.08 -432.011)" fill="none"/>
    </clipPath>
  </defs>
  <g id="Grupo_80451" data-name="Grupo 80451" transform="translate(-285 -2235.121)">
    <path id="Trazado_113614" data-name="Trazado 113614" d="M199.6,163.4c110.236,0,199.6-66.941,199.6,43.3S309.837,406.3,199.6,406.3,0,316.931,0,206.7,89.364,163.4,199.6,163.4Z" transform="translate(285 2159.826)" fill="#d3f9ff"/>
    <g id="Grupo_80450" data-name="Grupo 80450" transform="translate(337.683 2235.121)">
      <g id="Grupo_80449" data-name="Grupo 80449" clip-path="url(#clip-path)">
        <g id="Grupo_80314" data-name="Grupo 80314">
          <g id="Grupo_80313" data-name="Grupo 80313" clip-path="url(#clip-path)">
            <g id="Grupo_80312" data-name="Grupo 80312" transform="translate(54.965 276.813)" opacity="0.996" style="mix-blend-mode: multiply;isolation: isolate">
              <g id="Grupo_80311" data-name="Grupo 80311">
                <g id="Grupo_80310" data-name="Grupo 80310" clip-path="url(#clip-path-3)">
                  <path id="Trazado_113655" data-name="Trazado 113655" d="M220.872,703.386c46.348,0,83.92-3.06,83.92-6.836s-37.572-6.835-83.92-6.835-83.92,3.06-83.92,6.835,37.572,6.836,83.92,6.836" transform="translate(-136.952 -689.715)" fill="#e6e6e6" fill-rule="evenodd"/>
                </g>
              </g>
            </g>
          </g>
        </g>
        <g id="Grupo_80316" data-name="Grupo 80316" transform="translate(7.174 113.698)">
          <g id="Grupo_80315" data-name="Grupo 80315" clip-path="url(#clip-path-4)">
            <rect id="Rectángulo_33859" data-name="Rectángulo 33859" width="75.952" height="89.355" transform="translate(-7.942 65.628) rotate(-83.1)" fill="#1a1a52"/>
          </g>
        </g>
        <g id="Grupo_80318" data-name="Grupo 80318" transform="translate(13.867 119.729)">
          <g id="Grupo_80317" data-name="Grupo 80317" clip-path="url(#clip-path-5)">
            <rect id="Rectángulo_33860" data-name="Rectángulo 33860" width="57.484" height="57.484" transform="translate(-3.039 0.17) rotate(-3.2)" fill="#13b770"/>
          </g>
        </g>
        <g id="Grupo_80320" data-name="Grupo 80320" transform="translate(42.851 121.658)">
          <g id="Grupo_80319" data-name="Grupo 80319" clip-path="url(#clip-path-6)">
            <rect id="Rectángulo_33861" data-name="Rectángulo 33861" width="33.352" height="33.352" transform="matrix(0.742, -0.671, 0.671, 0.742, -11.747, 10.626)" fill="#eecf52"/>
          </g>
        </g>
        <g id="Grupo_80322" data-name="Grupo 80322">
          <g id="Grupo_80321" data-name="Grupo 80321" clip-path="url(#clip-path)">
            <path id="Trazado_113659" data-name="Trazado 113659" d="M665.328,373.232l-1.189-9.577h-12.28l-1.189,9.577a34.719,34.719,0,0,0-10.254,3.924l-7.373-5.708-8.683,8.683,5.311,6.86a31.757,31.757,0,0,0-4.891,10.91l-8.214,1.046v12.28l8.214,1.046a31.734,31.734,0,0,0,4.891,10.91l-5.311,6.859,8.683,8.683,7.373-5.708a34.711,34.711,0,0,0,10.254,3.924l1.189,9.577h12.28l1.189-9.577a34.7,34.7,0,0,0,10.253-3.924l7.373,5.708,8.682-8.683-5.31-6.859a31.733,31.733,0,0,0,4.89-10.91l8.214-1.046v-12.28l-8.214-1.046a31.733,31.733,0,0,0-4.89-10.91l5.31-6.86-8.682-8.683-7.373,5.708a34.687,34.687,0,0,0-10.253-3.924m-7.329,11a20.857,20.857,0,1,1-20.857,20.857A20.858,20.858,0,0,1,658,384.228" transform="translate(-369.112 -217.704)" fill="#79dfef" fill-rule="evenodd"/>
          </g>
        </g>
        <g id="Grupo_80324" data-name="Grupo 80324" transform="translate(155.4 0)">
          <g id="Grupo_80323" data-name="Grupo 80323" clip-path="url(#clip-path-8)">
            <rect id="Rectángulo_33863" data-name="Rectángulo 33863" width="98.167" height="95.38" transform="translate(-5.19 0.3) rotate(-3.305)" fill="#1a144c"/>
          </g>
        </g>
        <g id="Grupo_80331" data-name="Grupo 80331">
          <g id="Grupo_80330" data-name="Grupo 80330" clip-path="url(#clip-path)">
            <g id="Grupo_80329" data-name="Grupo 80329" transform="translate(176.687 4.693)" opacity="0.5" style="mix-blend-mode: multiply;isolation: isolate">
              <g id="Grupo_80328" data-name="Grupo 80328">
                <g id="Grupo_80327" data-name="Grupo 80327" clip-path="url(#clip-path-10)">
                  <g id="Grupo_80326" data-name="Grupo 80326" transform="translate(0 0)">
                    <g id="Grupo_80325" data-name="Grupo 80325" clip-path="url(#clip-path-11)">
                      <rect id="Rectángulo_33864" data-name="Rectángulo 33864" width="56.596" height="67.277" transform="translate(-2.994 0.138) rotate(-2.648)" fill="url(#linear-gradient)"/>
                    </g>
                  </g>
                </g>
              </g>
            </g>
            <rect id="Rectángulo_33866" data-name="Rectángulo 33866" width="9.347" height="11.274" transform="translate(197.288 9.945)" fill="#13b770"/>
            <rect id="Rectángulo_33867" data-name="Rectángulo 33867" width="9.347" height="4.91" transform="translate(197.288 16.309)" fill="#13b770"/>
            <rect id="Rectángulo_33868" data-name="Rectángulo 33868" width="9.347" height="2.637" transform="translate(197.288 10.558)" fill="#13b770"/>
            <path id="Trazado_113662" data-name="Trazado 113662" d="M486.957,15.717H498.8a1.013,1.013,0,0,1,1.011,1.011v3.5A1.014,1.014,0,0,1,498.8,21.24H486.957a1.014,1.014,0,0,1-1.011-1.011v-3.5a1.013,1.013,0,0,1,1.011-1.011" transform="translate(-290.914 -9.409)" fill="#13b770" fill-rule="evenodd"/>
          </g>
        </g>
        <g id="Grupo_80333" data-name="Grupo 80333" transform="translate(176.708 17.375)">
          <g id="Grupo_80332" data-name="Grupo 80332" clip-path="url(#clip-path-12)">
            <rect id="Rectángulo_33870" data-name="Rectángulo 33870" width="55.207" height="55.207" transform="translate(-4.919 50.023) rotate(-84.384)" fill="#79dfef"/>
          </g>
        </g>
        <g id="Grupo_80335" data-name="Grupo 80335" transform="translate(180.427 21.094)">
          <g id="Grupo_80334" data-name="Grupo 80334" clip-path="url(#clip-path-13)">
            <rect id="Rectángulo_33871" data-name="Rectángulo 33871" width="51.858" height="51.858" transform="translate(-9.685 40.769) rotate(-76.637)" fill="url(#linear-gradient-2)"/>
          </g>
        </g>
        <g id="Grupo_80337" data-name="Grupo 80337">
          <g id="Grupo_80336" data-name="Grupo 80336" clip-path="url(#clip-path)">
            <path id="Trazado_113665" data-name="Trazado 113665" d="M499.108,85.108a3.857,3.857,0,0,1,1.862,1.862h10.157a1.619,1.619,0,0,1,0,3.239H500.97a3.84,3.84,0,1,1-5.1-5.1V78.392a1.62,1.62,0,0,1,3.239,0Zm-1.62,1.5a1.979,1.979,0,1,0,1.979,1.979,1.979,1.979,0,0,0-1.979-1.979" transform="translate(-295.526 -45.961)" fill="#fff" fill-rule="evenodd"/>
            <path id="Trazado_113666" data-name="Trazado 113666" d="M478.652,102.292a1.574,1.574,0,1,1-1.147,2.652l-14.442,6.328a.624.624,0,0,1-.5-1.141l14.522-6.362a1.573,1.573,0,0,1,1.571-1.477" transform="translate(-276.69 -61.238)" fill="#13b770" fill-rule="evenodd"/>
            <path id="Trazado_113667" data-name="Trazado 113667" d="M437.991,42.228a29.5,29.5,0,0,1,5.029-4.264l.725,1.083a27.911,27.911,0,0,0-2.513,1.9,28.251,28.251,0,0,0-2.292,2.174Zm7.573-5.79q1.094-.583,2.189-1.055t2.269-.865l.414,1.235q-1.083.362-2.168.83t-2.091,1Zm6.808-2.6q.863-.211,1.76-.373c.6-.109,1.2-.2,1.78-.267l.148,1.3q-.879.1-1.7.252-.839.152-1.683.358Zm5.606-.81c.22-.01.454-.018.7-.024l.7-.011.667.01.666.022-.056,1.3-.635-.022-.642,0-.669.005c-.212,0-.437.013-.675.024Zm4.712.151q.53.06,1.018.132.471.07,1.017.17l-.235,1.281c-.295-.054-.619-.107-.971-.159-.334-.049-.659-.092-.972-.127Zm10.73,3.382a29.378,29.378,0,0,1,15.346,25.82,29.938,29.938,0,0,1-1.042,7.885,27.154,27.154,0,0,1-3.05,7.082l-1.113-.684a25.84,25.84,0,0,0,2.907-6.739,28.619,28.619,0,0,0,.991-7.543A28.073,28.073,0,0,0,472.8,37.705Zm3.687,49.17a29.577,29.577,0,0,1-8.4,4.495,28.877,28.877,0,0,1-9.326,1.542,29.251,29.251,0,0,1-14.118-3.608l.628-1.144a27.954,27.954,0,0,0,13.49,3.445,27.571,27.571,0,0,0,8.907-1.471,28.247,28.247,0,0,0,8.029-4.3ZM437.4,81.888a29.364,29.364,0,0,1-2.615-35.6l1.093.715a28.047,28.047,0,0,0,2.5,34.019Z" transform="translate(-257.417 -19.751)" fill="#fff" fill-rule="evenodd"/>
            <path id="Trazado_113668" data-name="Trazado 113668" d="M493.135,75.636h0a1.323,1.323,0,0,1-1.319,1.32h-1.29a1.323,1.323,0,0,1-1.319-1.32h0a1.323,1.323,0,0,1,1.319-1.32h1.29a1.323,1.323,0,0,1,1.319,1.32m-35-14.5h0a1.324,1.324,0,0,1,1.866,0l.911.913a1.322,1.322,0,0,1,0,1.866h0a1.323,1.323,0,0,1-1.866,0l-.912-.912a1.323,1.323,0,0,1,0-1.866m26.213,26.213h0a1.323,1.323,0,0,1,1.866,0l.912.913a1.322,1.322,0,0,1,0,1.866h0a1.323,1.323,0,0,1-1.866,0l-.912-.912a1.323,1.323,0,0,1,0-1.866M472.635,55.137h0a1.323,1.323,0,0,1,1.32,1.32v1.29a1.323,1.323,0,0,1-1.32,1.32h0a1.323,1.323,0,0,1-1.32-1.32v-1.29a1.323,1.323,0,0,1,1.32-1.32m0,37.071h0a1.324,1.324,0,0,1,1.32,1.32v1.29a1.323,1.323,0,0,1-1.32,1.319h0a1.323,1.323,0,0,1-1.32-1.319v-1.29a1.324,1.324,0,0,1,1.32-1.32m14.5-31.066h0a1.322,1.322,0,0,1,0,1.866l-.912.912a1.324,1.324,0,0,1-1.866,0h0a1.323,1.323,0,0,1,0-1.866l.912-.912a1.323,1.323,0,0,1,1.866,0m-31.066,14.5h0a1.323,1.323,0,0,1-1.32,1.32h-1.29a1.323,1.323,0,0,1-1.32-1.32h0a1.323,1.323,0,0,1,1.32-1.32h1.29a1.323,1.323,0,0,1,1.32,1.32m4.853,11.718h0a1.322,1.322,0,0,1,0,1.866l-.912.912a1.324,1.324,0,0,1-1.866,0h0a1.323,1.323,0,0,1,0-1.866l.912-.912a1.323,1.323,0,0,1,1.866,0" transform="translate(-270.673 -33.008)" fill="#fff" fill-rule="evenodd"/>
          </g>
        </g>
        <g id="Grupo_80339" data-name="Grupo 80339" transform="translate(22.408 21.663)">
          <g id="Grupo_80338" data-name="Grupo 80338" clip-path="url(#clip-path-15)">
            <rect id="Rectángulo_33873" data-name="Rectángulo 33873" width="102.946" height="102.521" transform="translate(-28.566 66.264) rotate(-66.679)" fill="#13b770"/>
          </g>
        </g>
        <g id="Grupo_80346" data-name="Grupo 80346">
          <g id="Grupo_80345" data-name="Grupo 80345" clip-path="url(#clip-path)">
            <g id="Grupo_80344" data-name="Grupo 80344" transform="translate(30.561 25.973)" opacity="0.5" style="mix-blend-mode: multiply;isolation: isolate">
              <g id="Grupo_80343" data-name="Grupo 80343">
                <g id="Grupo_80342" data-name="Grupo 80342" clip-path="url(#clip-path-17)">
                  <g id="Grupo_80341" data-name="Grupo 80341" transform="translate(0 0)">
                    <g id="Grupo_80340" data-name="Grupo 80340" clip-path="url(#clip-path-18)">
                      <rect id="Rectángulo_33874" data-name="Rectángulo 33874" width="76.04" height="79.204" transform="matrix(0.441, -0.898, 0.898, 0.441, -21.573, 43.946)" fill="url(#linear-gradient-3)"/>
                    </g>
                  </g>
                </g>
              </g>
            </g>
          </g>
        </g>
        <g id="Grupo_80348" data-name="Grupo 80348" transform="translate(32.993 31.596)">
          <g id="Grupo_80347" data-name="Grupo 80347" clip-path="url(#clip-path-19)">
            <rect id="Rectángulo_33877" data-name="Rectángulo 33877" width="53.15" height="62.209" transform="translate(-5.53 46.012) rotate(-83.147)" fill="#eecf52"/>
          </g>
        </g>
        <g id="Grupo_80352" data-name="Grupo 80352">
          <g id="Grupo_80351" data-name="Grupo 80351" clip-path="url(#clip-path)">
            <path id="Trazado_113673" data-name="Trazado 113673" d="M96.063,116.245a3.611,3.611,0,1,1-3.611,3.611,3.611,3.611,0,0,1,3.611-3.611" transform="translate(-55.347 -69.591)" fill="#fff" fill-rule="evenodd"/>
            <path id="Trazado_113674" data-name="Trazado 113674" d="M114.029,117.625h18.187a.759.759,0,0,1,.756.756v.847a.76.76,0,0,1-.756.756H114.029a.759.759,0,0,1-.756-.756v-.847a.758.758,0,0,1,.756-.756" transform="translate(-67.812 -70.417)" fill="#fff" fill-rule="evenodd"/>
            <path id="Trazado_113675" data-name="Trazado 113675" d="M114.029,126.983H124.15a.759.759,0,0,1,.756.756v.847a.759.759,0,0,1-.756.756H114.029a.759.759,0,0,1-.756-.756v-.847a.758.758,0,0,1,.756-.756" transform="translate(-67.812 -76.019)" fill="#fff" fill-rule="evenodd"/>
          </g>
        </g>
        <g id="Grupo_80354" data-name="Grupo 80354" transform="translate(38.893 32.293)">
          <g id="Grupo_80353" data-name="Grupo 80353" clip-path="url(#clip-path-21)">
            <rect id="Rectángulo_33880" data-name="Rectángulo 33880" width="2.811" height="2.811" transform="translate(-0.041 2.769) rotate(-89.153)" fill="url(#linear-gradient-4)"/>
          </g>
        </g>
        <g id="Grupo_80356" data-name="Grupo 80356">
          <g id="Grupo_80355" data-name="Grupo 80355" clip-path="url(#clip-path)">
            <path id="Trazado_113677" data-name="Trazado 113677" d="M98.089,74.123V68.43a.62.62,0,0,1,.584-.647h.655a.621.621,0,0,1,.584.647v5.694a.62.62,0,0,1-.584.646h-.655a.619.619,0,0,1-.584-.646" transform="translate(-58.722 -40.579)" fill="#daeafa" fill-rule="evenodd"/>
          </g>
        </g>
        <g id="Grupo_80358" data-name="Grupo 80358" transform="translate(45.973 32.293)">
          <g id="Grupo_80357" data-name="Grupo 80357" clip-path="url(#clip-path-23)">
            <rect id="Rectángulo_33882" data-name="Rectángulo 33882" width="2.811" height="2.811" transform="matrix(0.015, -1, 1, 0.015, -0.041, 2.769)" fill="url(#linear-gradient-5)"/>
          </g>
        </g>
        <g id="Grupo_80360" data-name="Grupo 80360">
          <g id="Grupo_80359" data-name="Grupo 80359" clip-path="url(#clip-path)">
            <path id="Trazado_113679" data-name="Trazado 113679" d="M115.729,74.123V68.43a.62.62,0,0,1,.584-.647h.654a.621.621,0,0,1,.584.647v5.694a.62.62,0,0,1-.584.646h-.654a.619.619,0,0,1-.584-.646" transform="translate(-69.282 -40.579)" fill="#daeafa" fill-rule="evenodd"/>
          </g>
        </g>
        <g id="Grupo_80362" data-name="Grupo 80362" transform="translate(53.053 32.293)">
          <g id="Grupo_80361" data-name="Grupo 80361" clip-path="url(#clip-path-25)">
            <rect id="Rectángulo_33884" data-name="Rectángulo 33884" width="2.811" height="2.811" transform="matrix(0.015, -1, 1, 0.015, -0.041, 2.769)" fill="url(#linear-gradient-6)"/>
          </g>
        </g>
        <g id="Grupo_80364" data-name="Grupo 80364">
          <g id="Grupo_80363" data-name="Grupo 80363" clip-path="url(#clip-path)">
            <path id="Trazado_113681" data-name="Trazado 113681" d="M133.368,74.123V68.43a.62.62,0,0,1,.584-.647h.655a.621.621,0,0,1,.584.647v5.694a.62.62,0,0,1-.584.646h-.655a.619.619,0,0,1-.584-.646" transform="translate(-79.841 -40.579)" fill="#daeafa" fill-rule="evenodd"/>
          </g>
        </g>
        <g id="Grupo_80366" data-name="Grupo 80366" transform="translate(60.132 32.293)">
          <g id="Grupo_80365" data-name="Grupo 80365" clip-path="url(#clip-path-27)">
            <rect id="Rectángulo_33886" data-name="Rectángulo 33886" width="2.811" height="2.81" transform="matrix(0.015, -1, 1, 0.015, -0.041, 2.769)" fill="url(#linear-gradient-7)"/>
          </g>
        </g>
        <g id="Grupo_80368" data-name="Grupo 80368">
          <g id="Grupo_80367" data-name="Grupo 80367" clip-path="url(#clip-path)">
            <path id="Trazado_113683" data-name="Trazado 113683" d="M151.008,74.123V68.43a.62.62,0,0,1,.584-.647h.655a.621.621,0,0,1,.584.647v5.694a.62.62,0,0,1-.584.646h-.655a.619.619,0,0,1-.584-.646" transform="translate(-90.402 -40.579)" fill="#daeafa" fill-rule="evenodd"/>
          </g>
        </g>
        <g id="Grupo_80370" data-name="Grupo 80370" transform="translate(67.212 32.293)">
          <g id="Grupo_80369" data-name="Grupo 80369" clip-path="url(#clip-path-29)">
            <rect id="Rectángulo_33888" data-name="Rectángulo 33888" width="2.811" height="2.811" transform="translate(-0.041 2.769) rotate(-89.153)" fill="url(#linear-gradient-8)"/>
          </g>
        </g>
        <g id="Grupo_80372" data-name="Grupo 80372">
          <g id="Grupo_80371" data-name="Grupo 80371" clip-path="url(#clip-path)">
            <path id="Trazado_113685" data-name="Trazado 113685" d="M168.647,74.123V68.43a.62.62,0,0,1,.584-.647h.655a.621.621,0,0,1,.584.647v5.694a.62.62,0,0,1-.584.646h-.655a.619.619,0,0,1-.584-.646" transform="translate(-100.961 -40.579)" fill="#daeafa" fill-rule="evenodd"/>
          </g>
        </g>
        <g id="Grupo_80374" data-name="Grupo 80374" transform="translate(74.291 32.293)">
          <g id="Grupo_80373" data-name="Grupo 80373" clip-path="url(#clip-path-31)">
            <rect id="Rectángulo_33890" data-name="Rectángulo 33890" width="2.811" height="2.811" transform="translate(-0.041 2.769) rotate(-89.153)" fill="url(#linear-gradient-9)"/>
          </g>
        </g>
        <g id="Grupo_80376" data-name="Grupo 80376">
          <g id="Grupo_80375" data-name="Grupo 80375" clip-path="url(#clip-path)">
            <path id="Trazado_113687" data-name="Trazado 113687" d="M186.286,74.123V68.43a.62.62,0,0,1,.584-.647h.655a.621.621,0,0,1,.584.647v5.694a.62.62,0,0,1-.584.646h-.655a.619.619,0,0,1-.584-.646" transform="translate(-111.521 -40.579)" fill="#daeafa" fill-rule="evenodd"/>
          </g>
        </g>
        <g id="Grupo_80378" data-name="Grupo 80378" transform="translate(81.37 32.293)">
          <g id="Grupo_80377" data-name="Grupo 80377" clip-path="url(#clip-path-33)">
            <rect id="Rectángulo_33892" data-name="Rectángulo 33892" width="2.811" height="2.811" transform="translate(-0.041 2.769) rotate(-89.153)" fill="url(#linear-gradient-10)"/>
          </g>
        </g>
        <g id="Grupo_80380" data-name="Grupo 80380">
          <g id="Grupo_80379" data-name="Grupo 80379" clip-path="url(#clip-path)">
            <path id="Trazado_113689" data-name="Trazado 113689" d="M203.926,74.123V68.43a.62.62,0,0,1,.584-.647h.654a.621.621,0,0,1,.584.647v5.694a.62.62,0,0,1-.584.646h-.654a.619.619,0,0,1-.584-.646" transform="translate(-122.081 -40.579)" fill="#daeafa" fill-rule="evenodd"/>
            <path id="Trazado_113690" data-name="Trazado 113690" d="M94.1,94.712h25.313a1.658,1.658,0,0,1,1.652,1.652v1.85a1.659,1.659,0,0,1-1.652,1.651H94.1a1.658,1.658,0,0,1-1.651-1.651v-1.85A1.656,1.656,0,0,1,94.1,94.712" transform="translate(-55.346 -56.7)" fill="#fff" fill-rule="evenodd"/>
            <path id="Trazado_113691" data-name="Trazado 113691" d="M172.793,94.712h14.082a1.659,1.659,0,0,1,1.651,1.652v1.85a1.661,1.661,0,0,1-1.651,1.651H172.793a1.659,1.659,0,0,1-1.651-1.651v-1.85a1.656,1.656,0,0,1,1.651-1.652" transform="translate(-102.455 -56.7)" fill="#fff" fill-rule="evenodd"/>
            <path id="Trazado_113692" data-name="Trazado 113692" d="M172.793,116.245h14.082a1.661,1.661,0,0,1,1.651,1.651v24.312a1.667,1.667,0,0,1-1.651,1.651H172.793a1.662,1.662,0,0,1-1.651-1.651V117.9a1.656,1.656,0,0,1,1.651-1.651" transform="translate(-102.455 -69.591)" fill="#fff" fill-rule="evenodd"/>
            <path id="Trazado_113693" data-name="Trazado 113693" d="M96.063,141.63a3.611,3.611,0,1,1-3.611,3.611,3.611,3.611,0,0,1,3.611-3.611" transform="translate(-55.347 -84.788)" fill="#fff" fill-rule="evenodd"/>
            <path id="Trazado_113694" data-name="Trazado 113694" d="M114.029,143.01h18.187a.759.759,0,0,1,.756.756v.848a.76.76,0,0,1-.756.756H114.029a.759.759,0,0,1-.756-.756v-.848a.758.758,0,0,1,.756-.756" transform="translate(-67.812 -85.614)" fill="#fff" fill-rule="evenodd"/>
            <path id="Trazado_113695" data-name="Trazado 113695" d="M114.029,152.367H124.15a.759.759,0,0,1,.756.756v.847a.759.759,0,0,1-.756.756H114.029a.759.759,0,0,1-.756-.756v-.847a.758.758,0,0,1,.756-.756" transform="translate(-67.812 -91.215)" fill="#fff" fill-rule="evenodd"/>
            <path id="Trazado_113696" data-name="Trazado 113696" d="M96.063,167.014a3.611,3.611,0,1,1-3.611,3.611,3.611,3.611,0,0,1,3.611-3.611" transform="translate(-55.347 -99.984)" fill="#fff" fill-rule="evenodd"/>
            <path id="Trazado_113697" data-name="Trazado 113697" d="M114.029,168.394h18.187a.759.759,0,0,1,.756.756V170a.76.76,0,0,1-.756.756H114.029a.759.759,0,0,1-.756-.756v-.847a.758.758,0,0,1,.756-.756" transform="translate(-67.812 -100.81)" fill="#fff" fill-rule="evenodd"/>
            <path id="Trazado_113698" data-name="Trazado 113698" d="M114.029,177.752H124.15a.759.759,0,0,1,.756.756v.847a.759.759,0,0,1-.756.756H114.029a.759.759,0,0,1-.756-.756v-.847a.758.758,0,0,1,.756-.756" transform="translate(-67.812 -106.412)" fill="#fff" fill-rule="evenodd"/>
          </g>
        </g>
        <g id="Grupo_80382" data-name="Grupo 80382" transform="translate(229.528 111.111)">
          <g id="Grupo_80381" data-name="Grupo 80381" clip-path="url(#clip-path-35)">
            <rect id="Rectángulo_33894" data-name="Rectángulo 33894" width="34.733" height="47.82" transform="matrix(0.999, -0.04, 0.04, 0.999, -1.838, 0.073)" fill="#13b770"/>
          </g>
        </g>
        <g id="Grupo_80384" data-name="Grupo 80384" transform="translate(195.118 126.861)">
          <g id="Grupo_80383" data-name="Grupo 80383" clip-path="url(#clip-path-36)">
            <rect id="Rectángulo_33895" data-name="Rectángulo 33895" width="64.262" height="69.463" transform="translate(-18.147 30.721) rotate(-59.43)" fill="#eecf52"/>
          </g>
        </g>
        <g id="Grupo_80386" data-name="Grupo 80386" transform="translate(196.234 100.476)">
          <g id="Grupo_80385" data-name="Grupo 80385" clip-path="url(#clip-path-37)">
            <rect id="Rectángulo_33896" data-name="Rectángulo 33896" width="41.425" height="59.695" transform="translate(-5.273 32.051) rotate(-80.657)" fill="#05339e"/>
          </g>
        </g>
        <g id="Grupo_80394" data-name="Grupo 80394">
          <g id="Grupo_80393" data-name="Grupo 80393" clip-path="url(#clip-path)">
            <path id="Trazado_113702" data-name="Trazado 113702" d="M278.451,686.265c3.218,2.547,4.308,3.609,8.4,3.694a8.094,8.094,0,0,0,6.348-2.23c2.094-1.632,2.743-2.651,2.7-4.1-.079-2.761-1.607-5.254-1.839-8.714l-6.7.4-2.918-1.224c-1.267,1.617-3.964,4.6-5.852,7.225-.93,1.292-.587,3.6-.144,4.946" transform="translate(-166.429 -403.551)" fill="#1c2372" fill-rule="evenodd"/>
            <g id="Grupo_80389" data-name="Grupo 80389" transform="translate(115.993 270.544)" opacity="0.5" style="mix-blend-mode: multiply;isolation: isolate">
              <g id="Grupo_80388" data-name="Grupo 80388">
                <g id="Grupo_80387" data-name="Grupo 80387" clip-path="url(#clip-path-39)">
                  <path id="Trazado_113703" data-name="Trazado 113703" d="M301.4,678.756a17.83,17.83,0,0,1-.745-3.837l-6.7.4-2.918-1.224c-.5.636-1.219,1.485-2.024,2.439,2.67,2.571,10.713,3.9,12.389,2.222" transform="translate(-289.011 -674.095)" fill="#1c2372" fill-rule="evenodd"/>
                </g>
              </g>
            </g>
            <path id="Trazado_113704" data-name="Trazado 113704" d="M399.78,669.469c-.55,2.732-2.216,4.818-2.479,6.826-.452,3.458,1.54,6.932,5.63,6.968l26.752.238c-1.417-9.139-15.717-4.072-20.52-14.206l-6.226.351Z" transform="translate(-237.809 -400.677)" fill="#1c2372" fill-rule="evenodd"/>
            <g id="Grupo_80392" data-name="Grupo 80392" transform="translate(161.164 268.617)" opacity="0.5" style="mix-blend-mode: multiply;isolation: isolate">
              <g id="Grupo_80391" data-name="Grupo 80391">
                <g id="Grupo_80390" data-name="Grupo 80390" clip-path="url(#clip-path-40)">
                  <path id="Trazado_113705" data-name="Trazado 113705" d="M402.367,669.469a12.733,12.733,0,0,1-.807,2.488c2.506,1.739,7.341,2.915,12.941.992a10.977,10.977,0,0,1-2.751-3.655l-6.226.351Z" transform="translate(-401.56 -669.294)" fill="#1c2372" fill-rule="evenodd"/>
                </g>
              </g>
            </g>
          </g>
        </g>
        <g id="Grupo_80396" data-name="Grupo 80396" transform="translate(119.848 153.651)">
          <g id="Grupo_80395" data-name="Grupo 80395" clip-path="url(#clip-path-41)">
            <rect id="Rectángulo_33900" data-name="Rectángulo 33900" width="129.458" height="100.759" transform="translate(-47.358 94.223) rotate(-63.315)" fill="url(#linear-gradient-11)"/>
          </g>
        </g>
        <g id="Grupo_80401" data-name="Grupo 80401">
          <g id="Grupo_80400" data-name="Grupo 80400" clip-path="url(#clip-path)">
            <g id="Grupo_80399" data-name="Grupo 80399" transform="translate(119.848 153.562)" opacity="0.3" style="mix-blend-mode: multiply;isolation: isolate">
              <g id="Grupo_80398" data-name="Grupo 80398">
                <g id="Grupo_80397" data-name="Grupo 80397" clip-path="url(#clip-path-43)">
                  <path id="Trazado_113707" data-name="Trazado 113707" d="M310.761,382.62c2.573,23.455,8.572,43.687,13.79,63.752,3.331,12.8,8.6,26.31,14.053,53.274-18.178-44.162-31.654-64.117-39.987-112.773Z" transform="translate(-298.617 -382.62)" fill="#1c2475" fill-rule="evenodd"/>
                </g>
              </g>
            </g>
          </g>
        </g>
        <g id="Grupo_80403" data-name="Grupo 80403" transform="translate(102.548 151.218)">
          <g id="Grupo_80402" data-name="Grupo 80402" clip-path="url(#clip-path-44)">
            <rect id="Rectángulo_33903" data-name="Rectángulo 33903" width="99.605" height="121.161" transform="matrix(0.818, -0.575, 0.575, 0.818, -58.334, 40.839)" fill="url(#linear-gradient-12)"/>
          </g>
        </g>
        <g id="Grupo_80405" data-name="Grupo 80405">
          <g id="Grupo_80404" data-name="Grupo 80404" clip-path="url(#clip-path)">
            <path id="Trazado_113709" data-name="Trazado 113709" d="M259.527,247.154c-.039,4.062-1.446,28.7-3.541,42.141,11.95,5.776,32.077,5.862,44.582.7-1.495-11.742-3.7-28.47-2.649-40.024.182-2,16.492-11.991,3.238-23.183-5.04-4.255-18.068-8.205-24.527-7.947-11.428.458-17.438,4.13-23.931,10.623Z" transform="translate(-151.28 -131.001)" fill="#c9deff" fill-rule="evenodd"/>
          </g>
        </g>
        <g id="Grupo_80407" data-name="Grupo 80407" transform="translate(120.13 79.892)">
          <g id="Grupo_80406" data-name="Grupo 80406" clip-path="url(#clip-path-46)">
            <rect id="Rectángulo_33905" data-name="Rectángulo 33905" width="16.916" height="19.37" transform="translate(-4.054 1.058) rotate(-14.631)" fill="url(#linear-gradient-13)"/>
          </g>
        </g>
        <g id="Grupo_80409" data-name="Grupo 80409" transform="translate(116.591 55.46)">
          <g id="Grupo_80408" data-name="Grupo 80408" clip-path="url(#clip-path-47)">
            <rect id="Rectángulo_33906" data-name="Rectángulo 33906" width="37.634" height="37.557" transform="matrix(0.714, -0.7, 0.7, 0.714, -12.106, 9.643)" fill="url(#linear-gradient-14)"/>
          </g>
        </g>
        <g id="Grupo_80411" data-name="Grupo 80411">
          <g id="Grupo_80410" data-name="Grupo 80410" clip-path="url(#clip-path)">
            <path id="Trazado_113712" data-name="Trazado 113712" d="M294.353,168.9c-2.192-.193-2.524-1.045-2.616-2.571-.095-1.572-.165-1.167-.738-2.513a5.936,5.936,0,0,1-.468-1.836c-.175-1.952.512-2.914.866-4.278l.014-.055c.667,2.583,3.29,3.786,4.428.74a6.22,6.22,0,0,0,3.551-3.288c.8-1.911,1.94-2.77,3.979-1.518,4.719,2.9,8.16,6.762,13.87,3.758a7.771,7.771,0,0,1-5.711,4.28l-10.435,3.734Z" transform="translate(-173.911 -91.59)" fill="#24053e" fill-rule="evenodd"/>
          </g>
        </g>
        <g id="Grupo_80413" data-name="Grupo 80413" transform="translate(118.008 63.481)">
          <g id="Grupo_80412" data-name="Grupo 80412" clip-path="url(#clip-path-49)">
            <rect id="Rectángulo_33908" data-name="Rectángulo 33908" width="29.327" height="30.978" transform="translate(-9.49 4.077) rotate(-24.097)" fill="url(#linear-gradient-15)"/>
          </g>
        </g>
        <g id="Grupo_80415" data-name="Grupo 80415">
          <g id="Grupo_80414" data-name="Grupo 80414" clip-path="url(#clip-path)">
            <path id="Trazado_113714" data-name="Trazado 113714" d="M315.532,164.4q-.167.8-.323,1.613c-5.481-.575-7.448-3.609-10.185-6.67a15.762,15.762,0,0,1-4.42,3.4c-.125.607-.437,4.093-1.316,5.6-.716,1.226-1.37.837-1.908-.181-.36-.683-.805-3.422-2.2-2.16.619-.951,1.638-1.073,1.9,0,.458,1.888,1.767,5.227,2.611-3.806,2.083-.816,2.559-1.237,3.406-2.514.83-1.25,1.61-2.191,3-.857,2.856,2.741,5.274,5.3,9.438,5.579" transform="translate(-176.711 -94.689)" fill="#ff9484" fill-rule="evenodd"/>
          </g>
        </g>
        <g id="Grupo_80417" data-name="Grupo 80417" transform="translate(125.81 95.99)">
          <g id="Grupo_80416" data-name="Grupo 80416" clip-path="url(#clip-path-51)">
            <rect id="Rectángulo_33910" data-name="Rectángulo 33910" width="25.228" height="49.199" transform="translate(-11.359 2.814) rotate(-14.137)" fill="url(#linear-gradient-16)"/>
          </g>
        </g>
        <g id="Grupo_80419" data-name="Grupo 80419">
          <g id="Grupo_80418" data-name="Grupo 80418" clip-path="url(#clip-path)">
            <path id="Trazado_113716" data-name="Trazado 113716" d="M296.3,218.482c-1.212.4-2.117.812-2.328,1.591-.73,2.68,3.9,10.241,6.911,10.949a10.542,10.542,0,0,1,3.683-4.21c-4.988-1.469-7.72-3.913-8.265-8.33" transform="translate(-175.94 -130.795)" fill="#dae8ff" fill-rule="evenodd"/>
            <path id="Trazado_113717" data-name="Trazado 113717" d="M323.923,219.362a7.878,7.878,0,0,1,2.042.764c1.275,1.422.963,7.18-1.08,10.6a16.358,16.358,0,0,0-4.778-3.348c4.461-2.671,4.261-5.262,3.816-8.02" transform="translate(-191.634 -131.322)" fill="#dae8ff" fill-rule="evenodd"/>
          </g>
        </g>
        <g id="Grupo_80421" data-name="Grupo 80421" transform="translate(106.639 117.384)">
          <g id="Grupo_80420" data-name="Grupo 80420" clip-path="url(#clip-path-53)">
            <rect id="Rectángulo_33912" data-name="Rectángulo 33912" width="38.909" height="49.071" transform="translate(-3.608 0.256) rotate(-4.25)" fill="url(#linear-gradient-17)"/>
          </g>
        </g>
        <g id="Grupo_80426" data-name="Grupo 80426">
          <g id="Grupo_80425" data-name="Grupo 80425" clip-path="url(#clip-path)">
            <g id="Grupo_80424" data-name="Grupo 80424" transform="translate(107.177 143.247)" opacity="0.5" style="mix-blend-mode: multiply;isolation: isolate">
              <g id="Grupo_80423" data-name="Grupo 80423">
                <g id="Grupo_80422" data-name="Grupo 80422" clip-path="url(#clip-path-55)">
                  <path id="Trazado_113719" data-name="Trazado 113719" d="M269.127,356.917l-2.082,10.913a83.466,83.466,0,0,1,13.663,1.892c2.583,1.915,5.915,3.165,14.556,2.016l1.314-6.891-6.828.1Z" transform="translate(-267.045 -356.917)" fill="#262e7b" fill-rule="evenodd"/>
                </g>
              </g>
            </g>
          </g>
        </g>
        <g id="Grupo_80428" data-name="Grupo 80428" transform="translate(120.103 143.556)">
          <g id="Grupo_80427" data-name="Grupo 80427" clip-path="url(#clip-path-56)">
            <rect id="Rectángulo_33915" data-name="Rectángulo 33915" width="23.496" height="22.901" transform="matrix(0.744, -0.668, 0.668, 0.744, -7.069, 5.517)" fill="url(#linear-gradient-18)"/>
          </g>
        </g>
        <g id="Grupo_80433" data-name="Grupo 80433">
          <g id="Grupo_80432" data-name="Grupo 80432" clip-path="url(#clip-path)">
            <path id="Trazado_113721" data-name="Trazado 113721" d="M316.253,375.2c-.291,1.53-.551,2.4-.954,2.715-1.471,1.139-7.251.838-10.27.394-2.677-.393-3.813-3.685-5.738-3.822-1.1-2.606.128.114,1.573-1.937,4.343,3.5,9.182,2.613,15.39,2.65" transform="translate(-178.918 -223.028)" fill="#ff8e7e" fill-rule="evenodd"/>
            <path id="Trazado_113722" data-name="Trazado 113722" d="M238.8,253.791c-4.931,6.342-10.4,10.932-9.229,14.681,1.886,6.047,10.224,9.343,23.716,14.231.617,1.99-.873,6.814-3.638,9.282-11.254-2.99-31.211-6.247-34.985-18.741-1.954-6.47-.4-17.547,5.886-25.714,5.122-6.661,11.362-13.059,15.009-15.046,3.406-1.856,6.862,16.648,3.24,21.307" transform="translate(-128.035 -139.1)" fill="#c9deff" fill-rule="evenodd"/>
            <g id="Grupo_80431" data-name="Grupo 80431" transform="translate(86.627 134.144)" opacity="0.5" style="mix-blend-mode: multiply;isolation: isolate">
              <g id="Grupo_80430" data-name="Grupo 80430">
                <g id="Grupo_80429" data-name="Grupo 80429" clip-path="url(#clip-path-58)">
                  <path id="Trazado_113723" data-name="Trazado 113723" d="M250.3,342.171q1.99.74,4.164,1.523c.616,1.99-.873,6.814-3.638,9.283-11.254-2.99-31.212-6.247-34.985-18.742,6.517,10.7,29.39,16.464,34.459,7.935" transform="translate(-215.842 -334.236)" fill="#c9deff" fill-rule="evenodd"/>
                </g>
              </g>
            </g>
          </g>
        </g>
        <g id="Grupo_80435" data-name="Grupo 80435" transform="translate(187.758 83.494)">
          <g id="Grupo_80434" data-name="Grupo 80434" clip-path="url(#clip-path-59)">
            <rect id="Rectángulo_33918" data-name="Rectángulo 33918" width="37.955" height="38.381" transform="translate(-12.209 13.822) rotate(-48.545)" fill="url(#linear-gradient-19)"/>
          </g>
        </g>
        <g id="Grupo_80440" data-name="Grupo 80440">
          <g id="Grupo_80439" data-name="Grupo 80439" clip-path="url(#clip-path)">
            <path id="Trazado_113725" data-name="Trazado 113725" d="M482.189,234.547c2.306-5.465,4.258-5.813,11.094-7.78l3.781,2.281-3.218-1.218c-4.707,2.241-9.255,1.968-11.656,6.718" transform="translate(-288.665 -135.755)" fill="#ff8e7e" fill-rule="evenodd"/>
            <path id="Trazado_113726" data-name="Trazado 113726" d="M350.638,230.468c13.7,4.429,17.947,23.953,25.189,23.645,6.368-.271,12.145-5.574,20.385-17.432,2.1-.086,5.985,2.584,7.671,5.91-5.816,10.173-14.14,28.741-27.268,29.182-6.8.228-17.343-5.2-23.663-13.421-10.742-13.971-7.517-13.752-2.315-27.883" transform="translate(-207.022 -137.971)" fill="#c9deff" fill-rule="evenodd"/>
            <g id="Grupo_80438" data-name="Grupo 80438" transform="translate(145.37 108.983)" opacity="0.5" style="mix-blend-mode: multiply;isolation: isolate">
              <g id="Grupo_80437" data-name="Grupo 80437">
                <g id="Grupo_80436" data-name="Grupo 80436" clip-path="url(#clip-path-61)">
                  <path id="Trazado_113727" data-name="Trazado 113727" d="M362.207,271.544c8.615,15.654,16.484,19.165,23.611,20.488,3.725.692,10.789-2,19.878-10.819-4.967,7.789-11.212,14.879-19.264,15.15-6.8.228-17.344-5.2-23.664-13.421Z" transform="translate(-362.207 -271.544)" fill="#c9deff" fill-rule="evenodd"/>
                </g>
              </g>
            </g>
            <rect id="Rectángulo_33920" data-name="Rectángulo 33920" width="38.747" height="38.177" transform="translate(43.863 211.354)" fill="#fff"/>
            <path id="Trazado_113728" data-name="Trazado 113728" d="M117.58,520.506h5.985v1.274H117.58Zm8.454,0h4.407v1.274h-4.407Zm7.779,0h2.962v1.274h-2.962Zm6.395,0h1.631v1.274h-1.631Zm4.666,0v1.274h2.915v41.532h-42.8V521.78h9.156v-1.274h-10.43v44.08h45.345v-44.08Z" transform="translate(-62.091 -311.604)" fill="#dde4ff" fill-rule="evenodd"/>
          </g>
        </g>
        <g id="Grupo_80442" data-name="Grupo 80442" transform="translate(47.284 214.49)">
          <g id="Grupo_80441" data-name="Grupo 80441" clip-path="url(#clip-path-62)">
            <rect id="Rectángulo_33922" data-name="Rectángulo 33922" width="41.992" height="41.992" transform="translate(-11.681 26.817) rotate(-66.462)" fill="url(#linear-gradient-20)"/>
          </g>
        </g>
        <g id="Grupo_80444" data-name="Grupo 80444">
          <g id="Grupo_80443" data-name="Grupo 80443" clip-path="url(#clip-path)">
            <path id="Trazado_113730" data-name="Trazado 113730" d="M157.562,534.429a15.953,15.953,0,0,1,15.952,15.952h-7.3a8.655,8.655,0,0,0-8.655-8.655Z" transform="translate(-94.325 -319.939)" fill="#00cedc" fill-rule="evenodd"/>
            <path id="Trazado_113731" data-name="Trazado 113731" d="M145.707,567.506c0,.083,0,.155-.008.217s-.01.118-.019.171a1.086,1.086,0,0,1-.033.149c-.013.047-.029.1-.049.153l-1.485,4.243a.257.257,0,0,1-.053.089.229.229,0,0,1-.093.054.62.62,0,0,1-.151.026c-.062,0-.138.006-.229.006a2.264,2.264,0,0,1-.293-.014.4.4,0,0,1-.158-.049.1.1,0,0,1-.053-.08.277.277,0,0,1,.023-.123l1.593-4.341h-1.9c-.049,0-.085-.039-.11-.117a1.385,1.385,0,0,1-.037-.375,1.719,1.719,0,0,1,.011-.219.8.8,0,0,1,.029-.153.211.211,0,0,1,.045-.085.086.086,0,0,1,.061-.026h2.684a.3.3,0,0,1,.1.015.118.118,0,0,1,.066.066.5.5,0,0,1,.037.146,2.039,2.039,0,0,1,.012.248m3.578,3.277a2.382,2.382,0,0,1-.128.8,1.675,1.675,0,0,1-.36.6,1.562,1.562,0,0,1-.557.371,1.941,1.941,0,0,1-.724.129,2.3,2.3,0,0,1-.4-.032,2.54,2.54,0,0,1-.338-.082,1.8,1.8,0,0,1-.246-.1.511.511,0,0,1-.125-.082.219.219,0,0,1-.044-.071.561.561,0,0,1-.023-.092c-.006-.036-.009-.082-.012-.136s0-.118,0-.193,0-.148.007-.2a.708.708,0,0,1,.022-.135.164.164,0,0,1,.037-.073.063.063,0,0,1,.049-.022.218.218,0,0,1,.106.05,1.864,1.864,0,0,0,.189.108,1.687,1.687,0,0,0,.284.108,1.41,1.41,0,0,0,.4.05,1.276,1.276,0,0,0,.369-.051.7.7,0,0,0,.281-.166.766.766,0,0,0,.177-.286,1.343,1.343,0,0,0,.01-.779.666.666,0,0,0-.164-.272.685.685,0,0,0-.29-.167,1.5,1.5,0,0,0-.432-.055,2.336,2.336,0,0,0-.368.026,2.191,2.191,0,0,1-.313.025.165.165,0,0,1-.144-.061.431.431,0,0,1-.044-.23v-2.411a.435.435,0,0,1,.053-.246.2.2,0,0,1,.173-.075h2.138a.088.088,0,0,1,.059.026.188.188,0,0,1,.047.081.671.671,0,0,1,.028.149c.006.062.008.135.008.221a1.365,1.365,0,0,1-.037.374c-.024.077-.06.116-.106.116h-1.607v1.187a2.361,2.361,0,0,1,.243-.022c.079,0,.165,0,.252,0a1.869,1.869,0,0,1,.652.105,1.238,1.238,0,0,1,.478.31,1.332,1.332,0,0,1,.295.507,2.184,2.184,0,0,1,.1.7M151.9,568.4a2.811,2.811,0,0,1-.061.611,1.356,1.356,0,0,1-.19.465.91.91,0,0,1-.329.3,1,1,0,0,1-.479.107,1.026,1.026,0,0,1-.494-.107.846.846,0,0,1-.318-.3,1.311,1.311,0,0,1-.167-.457,3.3,3.3,0,0,1-.049-.588,2.774,2.774,0,0,1,.059-.589,1.39,1.39,0,0,1,.186-.464.883.883,0,0,1,.327-.307,1.149,1.149,0,0,1,.993.006.854.854,0,0,1,.315.312,1.379,1.379,0,0,1,.161.459,3.315,3.315,0,0,1,.045.55m-.693.028a3.635,3.635,0,0,0-.02-.4,1.1,1.1,0,0,0-.064-.266.324.324,0,0,0-.109-.151.286.286,0,0,0-.162-.047.256.256,0,0,0-.153.045.325.325,0,0,0-.108.145,1,1,0,0,0-.064.262,3.15,3.15,0,0,0-.021.391,3.335,3.335,0,0,0,.024.435.962.962,0,0,0,.069.265.271.271,0,0,0,.111.133.3.3,0,0,0,.151.037.26.26,0,0,0,.165-.05.334.334,0,0,0,.106-.151,1.051,1.051,0,0,0,.057-.264,3.749,3.749,0,0,0,.017-.384m3.415,2.751a2.815,2.815,0,0,1-.061.611,1.336,1.336,0,0,1-.19.465.9.9,0,0,1-.329.3,1,1,0,0,1-.479.107,1.022,1.022,0,0,1-.494-.107.84.84,0,0,1-.318-.3,1.305,1.305,0,0,1-.166-.457,3.294,3.294,0,0,1-.049-.588,2.723,2.723,0,0,1,.06-.59,1.391,1.391,0,0,1,.186-.464.882.882,0,0,1,.327-.306.984.984,0,0,1,.482-.11,1.007,1.007,0,0,1,.511.116.852.852,0,0,1,.314.312,1.363,1.363,0,0,1,.161.459,3.318,3.318,0,0,1,.045.549m-.693.028a3.525,3.525,0,0,0-.02-.4,1.038,1.038,0,0,0-.063-.266.33.33,0,0,0-.11-.151.286.286,0,0,0-.162-.047.257.257,0,0,0-.153.045.32.32,0,0,0-.108.145,1,1,0,0,0-.064.262,3.165,3.165,0,0,0-.02.391,3.271,3.271,0,0,0,.024.435,1,1,0,0,0,.068.265.274.274,0,0,0,.112.133.3.3,0,0,0,.15.037.265.265,0,0,0,.166-.049.344.344,0,0,0,.106-.151,1.069,1.069,0,0,0,.057-.264,3.747,3.747,0,0,0,.017-.384m-2.98,1.359,3.215-5.423a.3.3,0,0,0,.041-.107.094.094,0,0,0-.022-.082.188.188,0,0,0-.1-.051.76.76,0,0,0-.183-.018,1.391,1.391,0,0,0-.173.009.475.475,0,0,0-.12.029.252.252,0,0,0-.082.055.8.8,0,0,0-.063.082l-3.215,5.423a.3.3,0,0,0-.044.11.1.1,0,0,0,.025.079.188.188,0,0,0,.1.051.776.776,0,0,0,.184.017,1.479,1.479,0,0,0,.171-.008.512.512,0,0,0,.119-.029.288.288,0,0,0,.082-.055.48.48,0,0,0,.064-.083" transform="translate(-85.402 -339.366)" fill="#1c8eaa" fill-rule="evenodd"/>
          </g>
        </g>
        <g id="Grupo_80446" data-name="Grupo 80446" transform="translate(160.57 173.385)">
          <g id="Grupo_80445" data-name="Grupo 80445" clip-path="url(#clip-path-64)">
            <rect id="Rectángulo_33924" data-name="Rectángulo 33924" width="76.813" height="80.214" transform="matrix(0.532, -0.847, 0.847, 0.532, -23.218, 36.965)" fill="#05339e"/>
          </g>
        </g>
        <g id="Grupo_80448" data-name="Grupo 80448">
          <g id="Grupo_80447" data-name="Grupo 80447" clip-path="url(#clip-path)">
            <path id="Trazado_113733" data-name="Trazado 113733" d="M460.627,448.171h19.855a3.486,3.486,0,0,1,2.47,1.028l0,0a3.488,3.488,0,0,1,1.027,2.47V478.31a3.487,3.487,0,0,1-1.027,2.47l0,0a3.486,3.486,0,0,1-2.47,1.027H460.627a3.487,3.487,0,0,1-2.47-1.027l0,0a3.486,3.486,0,0,1-1.028-2.47V451.672a3.487,3.487,0,0,1,1.028-2.47l0,0a3.487,3.487,0,0,1,2.47-1.028m7.26,8.5h11.346a1.162,1.162,0,0,0,0-2.324H467.887a1.162,1.162,0,0,0,0,2.324m-6.472-4.587h-.886l3.429,5.1,2.76-4.106h-.544l-1.8,1.933Zm6.534,11.66h11.346a1.162,1.162,0,1,0,0-2.324H467.949a1.162,1.162,0,1,0,0,2.324m-6.472-4.587h-.886l3.429,5.1,2.761-4.106h-.544l-1.8,1.933Zm6.534,11.66h11.346a1.162,1.162,0,1,0,0-2.325H468.01a1.162,1.162,0,1,0,0,2.325m-6.472-4.587h-.886l3.429,5.1,2.761-4.106H466.3l-1.8,1.933Zm6.534,11.66h11.346a1.162,1.162,0,0,0,0-2.324H468.071a1.162,1.162,0,1,0,0,2.324m12.411-27.9H460.627a1.679,1.679,0,0,0-1.678,1.678V478.31a1.679,1.679,0,0,0,1.678,1.678h19.855a1.678,1.678,0,0,0,1.678-1.678V451.672a1.679,1.679,0,0,0-1.678-1.678" transform="translate(-270.651 -264.53)" fill="#fff" fill-rule="evenodd"/>
            <rect id="Rectángulo_33925" data-name="Rectángulo 33925" width="10.565" height="26.149" transform="translate(177.527 242.67)" fill="#05339e"/>
            <rect id="Rectángulo_33926" data-name="Rectángulo 33926" width="10.565" height="35.172" transform="translate(192.789 233.647)" fill="#13b770"/>
            <rect id="Rectángulo_33927" data-name="Rectángulo 33927" width="10.565" height="15.837" transform="translate(208.05 252.982)" fill="#13b770"/>
            <rect id="Rectángulo_33928" data-name="Rectángulo 33928" width="10.565" height="31.304" transform="translate(223.311 237.514)" fill="#05339e"/>
            <rect id="Rectángulo_33929" data-name="Rectángulo 33929" width="10.565" height="44.813" transform="translate(238.566 224.005)" fill="#13b770"/>
            <rect id="Rectángulo_33930" data-name="Rectángulo 33930" width="10.565" height="15.837" transform="translate(253.827 252.982)" fill="#eecf52"/>
            <rect id="Rectángulo_33931" data-name="Rectángulo 33931" width="10.565" height="24.352" transform="translate(269.089 244.466)" fill="#13b770"/>
            <rect id="Rectángulo_33932" data-name="Rectángulo 33932" width="102.127" height="2.979" transform="translate(177.527 272.431)" fill="#1a1a52"/>
            <path id="Trazado_113734" data-name="Trazado 113734" d="M.662,220.184c-1.41-3.208-.531-6.132,2.277-7.844l11.879,8.475Z" transform="translate(0 -165.119)" fill="#05339e" fill-rule="evenodd"/>
            <path id="Trazado_113735" data-name="Trazado 113735" d="M697.185,147.96l-6.737,9.46,11.622-1a32.393,32.393,0,0,0-4.885-8.46" transform="translate(-413.341 -62.739)" fill="#13b770" fill-rule="evenodd"/>
            <path id="Trazado_113736" data-name="Trazado 113736" d="M46.806,664.98l7.443,12,4.638-20.2c-3.96.948-8.414,3.948-12.081,8.205" transform="translate(-28.021 -393.182)" fill="#eecf52" fill-rule="evenodd"/>
            <path id="Trazado_113737" data-name="Trazado 113737" d="M794.114,618.159l-11.2-3.058,4.95,10.563a32.389,32.389,0,0,0,6.254-7.5" transform="translate(-468.693 -368.234)" fill="#79dfef" fill-rule="evenodd"/>
          </g>
        </g>
      </g>
    </g>
  </g>
</svg>
