<svg xmlns="http://www.w3.org/2000/svg" width="67.441" height="67.103" viewBox="0 0 67.441 67.103">
  <g id="editar" transform="translate(0 -0.261)">
    <path id="Trazado_114265" data-name="Trazado 114265" d="M62.246,74.747a1.68,1.68,0,0,0-1.68,1.68V91.34a5.044,5.044,0,0,1-5.039,5.039H8.4A5.044,5.044,0,0,1,3.359,91.34V47.57A5.045,5.045,0,0,1,8.4,42.531H23.312a1.68,1.68,0,1,0,0-3.359H8.4A8.408,8.408,0,0,0,0,47.57V91.34a8.408,8.408,0,0,0,8.4,8.4H55.527a8.408,8.408,0,0,0,8.4-8.4V76.426A1.68,1.68,0,0,0,62.246,74.747Zm0,0" transform="translate(0 -32.375)" fill="#13b770"/>
    <path id="Trazado_114266" data-name="Trazado 114266" d="M153.278,2.475a7.558,7.558,0,0,0-10.689,0L112.623,32.44a1.679,1.679,0,0,0-.431.739l-3.941,14.226a1.679,1.679,0,0,0,2.067,2.067l14.226-3.941a1.679,1.679,0,0,0,.739-.431l29.965-29.966a7.567,7.567,0,0,0,0-10.689Zm-37,31.058L140.807,9.007l7.909,7.909L124.191,41.442ZM114.7,36.7l6.319,6.32-8.741,2.422ZM152.874,12.76l-1.781,1.781-7.91-7.91,1.782-1.781a4.2,4.2,0,0,1,5.938,0l1.972,1.971A4.205,4.205,0,0,1,152.874,12.76Zm0,0" transform="translate(-90.018)" fill="#13b770"/>
  </g>
</svg>
