<svg xmlns="http://www.w3.org/2000/svg" width="112" height="112" viewBox="0 0 112 112">
  <g id="Grupo_85451" data-name="Grupo 85451" transform="translate(-1157 -2794)">
    <circle id="Elipse_4725" data-name="Elipse 4725" cx="56" cy="56" r="56" transform="translate(1157 2794)" fill="#eecf52"/>
    <path id="Trazado_119104" data-name="Trazado 119104" d="M14.968-4.922H12.489V0H10.266V-12.8h4.5a5.235,5.235,0,0,1,3.419.994,3.516,3.516,0,0,1,1.2,2.876,3.6,3.6,0,0,1-.62,2.151,3.943,3.943,0,0,1-1.727,1.333L19.916-.114V0H17.534ZM12.489-6.715h2.285a2.541,2.541,0,0,0,1.758-.567,1.977,1.977,0,0,0,.633-1.551,2.1,2.1,0,0,0-.584-1.591A2.483,2.483,0,0,0,14.836-11H12.489ZM25.479.176A4.419,4.419,0,0,1,22.188-1.1a4.639,4.639,0,0,1-1.261-3.406v-.264a5.706,5.706,0,0,1,.549-2.544,4.181,4.181,0,0,1,1.542-1.745,4.078,4.078,0,0,1,2.215-.624,3.733,3.733,0,0,1,3,1.239,5.24,5.24,0,0,1,1.059,3.507v.861H23.08a2.856,2.856,0,0,0,.787,1.863,2.362,2.362,0,0,0,1.736.686,2.892,2.892,0,0,0,2.391-1.187l1.151,1.1A3.845,3.845,0,0,1,27.62-.294,4.774,4.774,0,0,1,25.479.176Zm-.255-8.147a1.8,1.8,0,0,0-1.419.615,3.189,3.189,0,0,0-.69,1.714h4.069V-5.8a2.6,2.6,0,0,0-.571-1.622A1.785,1.785,0,0,0,25.225-7.972Zm8,7.972H31.087V-13.5h2.136Zm6.513.176A4.419,4.419,0,0,1,36.444-1.1a4.639,4.639,0,0,1-1.261-3.406v-.264a5.706,5.706,0,0,1,.549-2.544,4.181,4.181,0,0,1,1.542-1.745,4.078,4.078,0,0,1,2.215-.624,3.733,3.733,0,0,1,3,1.239A5.24,5.24,0,0,1,43.55-4.939v.861H37.336a2.856,2.856,0,0,0,.787,1.863,2.362,2.362,0,0,0,1.736.686,2.892,2.892,0,0,0,2.391-1.187l1.151,1.1A3.845,3.845,0,0,1,41.875-.294,4.774,4.774,0,0,1,39.735.176ZM39.48-7.972a1.8,1.8,0,0,0-1.419.615,3.189,3.189,0,0,0-.69,1.714H41.44V-5.8a2.6,2.6,0,0,0-.571-1.622A1.785,1.785,0,0,0,39.48-7.972Zm8.965,5.265,2.013-6.8h2.206L49.368,0H47.514L44.191-9.51h2.215ZM59.546,0A3.3,3.3,0,0,1,59.3-.888,3.325,3.325,0,0,1,56.8.176a3.355,3.355,0,0,1-2.338-.817,2.615,2.615,0,0,1-.905-2.021A2.7,2.7,0,0,1,54.69-5a5.473,5.473,0,0,1,3.23-.813h1.31v-.624a1.666,1.666,0,0,0-.413-1.182A1.638,1.638,0,0,0,57.56-8.06a1.881,1.881,0,0,0-1.2.365,1.129,1.129,0,0,0-.466.927H53.763a2.37,2.37,0,0,1,.519-1.463A3.455,3.455,0,0,1,55.692-9.3a4.955,4.955,0,0,1,1.991-.387,3.99,3.99,0,0,1,2.663.839,2.993,2.993,0,0,1,1.02,2.36V-2.2a4.861,4.861,0,0,0,.36,2.048V0ZM57.2-1.538a2.429,2.429,0,0,0,1.191-.308,2.055,2.055,0,0,0,.839-.826V-4.465H58.078a3.148,3.148,0,0,0-1.784.413,1.338,1.338,0,0,0-.6,1.169,1.248,1.248,0,0,0,.409.98A1.583,1.583,0,0,0,57.2-1.538ZM65.584-9.51l.062,1.1a3.419,3.419,0,0,1,2.769-1.274q2.971,0,3.023,3.4V0H69.3V-6.161a1.958,1.958,0,0,0-.391-1.34,1.645,1.645,0,0,0-1.279-.435,2.058,2.058,0,0,0-1.925,1.169V0H63.571V-9.51ZM77.52-1.529A1.931,1.931,0,0,0,78.847-2a1.591,1.591,0,0,0,.563-1.151h2.013a3.137,3.137,0,0,1-.554,1.657A3.632,3.632,0,0,1,79.462-.272a4.191,4.191,0,0,1-1.916.448,4.055,4.055,0,0,1-3.164-1.292,5.124,5.124,0,0,1-1.169-3.568V-4.9a5.039,5.039,0,0,1,1.16-3.476,4.018,4.018,0,0,1,3.164-1.305A3.907,3.907,0,0,1,80.3-8.7a3.542,3.542,0,0,1,1.121,2.6H79.409a1.956,1.956,0,0,0-.558-1.345,1.8,1.8,0,0,0-1.332-.527,1.879,1.879,0,0,0-1.6.751,3.834,3.834,0,0,0-.571,2.281V-4.6a3.9,3.9,0,0,0,.558,2.307A1.878,1.878,0,0,0,77.52-1.529ZM85.307,0H83.171V-9.51h2.136ZM83.039-11.979a1.133,1.133,0,0,1,.312-.817,1.179,1.179,0,0,1,.892-.325,1.193,1.193,0,0,1,.9.325,1.125,1.125,0,0,1,.316.817,1.1,1.1,0,0,1-.316.8,1.2,1.2,0,0,1-.9.321,1.188,1.188,0,0,1-.892-.321A1.107,1.107,0,0,1,83.039-11.979ZM93.313,0a3.3,3.3,0,0,1-.246-.888,3.325,3.325,0,0,1-2.5,1.063,3.355,3.355,0,0,1-2.338-.817,2.615,2.615,0,0,1-.905-2.021A2.7,2.7,0,0,1,88.458-5a5.473,5.473,0,0,1,3.23-.813H93v-.624a1.666,1.666,0,0,0-.413-1.182,1.638,1.638,0,0,0-1.257-.444,1.881,1.881,0,0,0-1.2.365,1.129,1.129,0,0,0-.466.927H87.53a2.37,2.37,0,0,1,.519-1.463A3.455,3.455,0,0,1,89.459-9.3a4.955,4.955,0,0,1,1.991-.387,3.99,3.99,0,0,1,2.663.839,2.993,2.993,0,0,1,1.02,2.36V-2.2a4.861,4.861,0,0,0,.36,2.048V0ZM90.967-1.538a2.429,2.429,0,0,0,1.191-.308A2.055,2.055,0,0,0,93-2.672V-4.465H91.846a3.148,3.148,0,0,0-1.784.413,1.338,1.338,0,0,0-.6,1.169,1.248,1.248,0,0,0,.409.98A1.583,1.583,0,0,0,90.967-1.538Z" transform="translate(1163 2857)" fill="#12263f"/>
  </g>
</svg>
