<svg xmlns="http://www.w3.org/2000/svg" xmlns:xlink="http://www.w3.org/1999/xlink" width="1030" height="555.796" viewBox="0 0 1030 555.796"><defs><clipPath id="a"><rect width="269.492" height="555.796" fill="none"/></clipPath><clipPath id="b"><path d="M140.072,72.205c-.11,35.792,25.225,79.679,56.388,97.669,31.146,17.987,56.644,3.461,56.753-32.352l-56.67-32.639L142.068,56.4a60.126,60.126,0,0,0-2,15.8" fill="none"/></clipPath><clipPath id="c"><path d="M196.008,101.443l57.068,33.417c-.21-35.686-25.415-79.127-56.384-97a55.9,55.9,0,0,0-20.2-7.362Z" fill="none"/></clipPath><linearGradient id="d" x1="-1.387" y1="5.75" x2="-1.378" y2="5.75" gradientUnits="objectBoundingBox"><stop offset="0" stop-color="#fdd24c"/><stop offset="1" stop-color="#fabd23"/></linearGradient><clipPath id="e"><path d="M134.78,43.65l54.476,48.481L169.34,19.722a37.859,37.859,0,0,0-5.1-.354c-14.283,0-25.167,8.7-29.459,24.282" fill="none"/></clipPath><clipPath id="g"><path d="M81.1,281.853c-4.28,6.364-10.143,18.272-10.36,27.268-.423,17.528.952,29.223-4.4,58.525-15.916,53.579-7.66,51.718-13.75,87.32-.513,3.8,11.183,6.819,15.162,4.451l24.93-83.995,25.187-73,.821-20.046c.13-3.239-1.6-5.617-2.616-8.151-13.277,3.912-20.707,8.127-34.972,7.625" fill="none"/></clipPath><linearGradient id="h" x1="0.071" y1="1.754" x2="0.076" y2="1.754" gradientUnits="objectBoundingBox"><stop offset="0" stop-color="#3e4795"/><stop offset="1" stop-color="#273088"/></linearGradient><clipPath id="j"><rect width="49.034" height="173.532" transform="translate(69.658 274.229)" fill="none"/></clipPath><clipPath id="k"><path d="M96.2,294.3c-3.284,6.363-6.129,14.876-4.939,23.874,2.316,17.527,8.34,31.863,10.284,61.918-4.93,35.024-1.313,58.654-.593,92.6.081,3.8,12.25,6.819,15.86,4.45,7.548-39.777,12.2-78.288,19.669-117.17,3.713-19.332,3.624-30.489,2.382-44.72-.478-8.149.37-12.151-2.314-20.048a47.918,47.918,0,0,0-3.89-8.151c-12.665,3.91-22.113,7.751-36.459,7.249" fill="none"/></clipPath><linearGradient id="l" x1="-0.084" y1="1.962" x2="-0.078" y2="1.962" xlink:href="#h"/><clipPath id="n"><path d="M74.183,231.507c13.418,29.944,4.738,34.574,5.97,48.221l-.279,5.5c12.751,18.985,49.7,17.5,54.19,3.782-.24-.853-.426-4.459-.747-5.354.872-12.038-4.9-21.52-3.783-29.72,1.879-13.776,9.374-18.62,5.34-30.4-2.953-4.054-10.941-10.554-19.245-15.1-11.685-6.4-24.736-10.41-31.742-11.2a12.646,12.646,0,0,0-1.416-.082c-13.41,0-13.278,23.228-8.288,34.361" fill="none"/></clipPath><linearGradient id="o" x1="-0.387" y1="4.019" x2="-0.379" y2="4.019" gradientUnits="objectBoundingBox"><stop offset="0" stop-color="#1c8ef4"/><stop offset="1" stop-color="#00cfdd"/></linearGradient><clipPath id="p"><path d="M206.727,133.422c-2.356,2.975-5.961,7.792-8.47,10.865-4.819,2.956-9.467,12.66-13.515,18.486,2.052,3.445,4.619,7.58,9.143,7.67,1.455-2.721,6.135-2.814,8.457-6.466,2.617-4.118,7.027-10.148,6.333-13.043a11.761,11.761,0,0,0-4.174-6.451c.062-.06.122-.123.18-.185.012-.014,3.728-5.381,5.066-7.465,1.06-1.65-.306-4.1-1.776-4.1a1.587,1.587,0,0,0-1.244.69" fill="none"/></clipPath><linearGradient id="q" x1="-3.865" y1="9.506" x2="-3.843" y2="9.506" gradientUnits="objectBoundingBox"><stop offset="0" stop-color="#ffb89e"/><stop offset="1" stop-color="#ffa799"/></linearGradient><clipPath id="r"><path d="M182.984,165.061c-.578.821-2.094,1.467-2.815,2.528-6.543,9.617-17.27,28.161-18.245,32.265-7.9,2.192-17.195,7.04-25,10.24-4.729,1.942-11.207,2.418-14.528,4.956-6.611,5.055-6.752,13.888-.1,20.445,2.86,2.817,6.2,4.585,14,1.51,10.616-4.185,24.156-13.423,30-17.032,2.658-1.644,9.352-6.234,11.087-8.6,1.811-2.469,2.571-5.754,3.246-6.861,4.677-7.684,8.518-17.784,12.4-27.733.359-.919.1-3.3.476-4.189.482-1.15.976-2.269,1.485-3.348-2.787-3.012-7.531-6.314-10.281-6.544-.423.541-1.014,1.35-1.727,2.363" fill="none"/></clipPath><linearGradient id="s" x1="-1.086" y1="4.169" x2="-1.076" y2="4.169" xlink:href="#o"/><clipPath id="u"><rect width="62.988" height="102.249" transform="translate(71.076 197.146)" fill="none"/></clipPath><clipPath id="v"><path d="M82.614,173.84c1.856,5.476,6.657,9.368,9.056,12.934a11.243,11.243,0,0,1,1.256,4.9h0c-.691,3.86-2.158,7.557-4.287,12.3-1.148,4.872,16.634,10.133,22.726,7.485l.129-1.18c1.572-7.266,3.115-13.44,4.2-18.545,2.833,1.208,9.786,1.562,10.4.589C111.525,180.681,95.029,171.4,87.085,171.4c-2.272,0-3.844.759-4.471,2.44" fill="none"/></clipPath><linearGradient id="w" x1="-1.402" y1="7.177" x2="-1.384" y2="7.177" gradientUnits="objectBoundingBox"><stop offset="0" stop-color="#ff8a78"/><stop offset="1" stop-color="#ffa799"/></linearGradient><clipPath id="y"><path d="M69.2,151.2c-6.507,10.477-2.972,23.65-12.428,31.559-11.9,9.947-18.6,27.86-13.183,38.021,4.9,9.209,16.865,14.628,13.185,20.458-3.043,4.818-10.205,9.652-1.684,17.43,4.385,4.006,15.1,14.752,36.965,9.186,21.313-5.427,43.683-23.837,25.723-43.969-18.9-21.187-7.842-25.871,3-42.532,5.732-8.811,10.856-26.218,5.947-32.693-5.186-6.839-9.3-6.433-13.587-6.028-2.676.253-5.419.507-8.533-1a31.645,31.645,0,0,0-13.775-3.456c-9.175,0-16.661,5.03-21.627,13.025" fill="none"/></clipPath><linearGradient id="z" x1="-0.048" y1="3.104" x2="-0.042" y2="3.104" gradientUnits="objectBoundingBox"><stop offset="0" stop-color="#5a2d68"/><stop offset="1" stop-color="#22043d"/></linearGradient></defs><g transform="translate(-285 -2717)"><rect width="1030" height="415" rx="21" transform="translate(285 2770)" fill="#e5fff4"/><g transform="translate(322.508 2717)"><g clip-path="url(#a)"><g clip-path="url(#b)"><rect width="162.411" height="151.584" transform="translate(97.473 172.282) rotate(-69.864)" fill="#a2e8ca"/></g><g clip-path="url(#c)"><rect width="113.846" height="90.121" transform="translate(162.37 132.912) rotate(-82.147)" fill="url(#d)"/></g><g clip-path="url(#e)"><rect width="76.607" height="59.729" transform="translate(129.392 91.73) rotate(-85.741)" fill="#13b770"/></g><g clip-path="url(#a)"><path d="M178.878,6.7a9.872,9.872,0,0,1,4.471,7.745c-.008,2.84-2.03,3.992-4.5,2.566a9.878,9.878,0,0,1-4.471-7.745c.007-2.841,2.029-3.993,4.5-2.566" fill="#f9bc23" fill-rule="evenodd"/><path d="M187.852.167a2.707,2.707,0,0,1,1.224,2.12c0,.776-.557,1.092-1.232.7A2.7,2.7,0,0,1,186.621.87c0-.778.555-1.093,1.231-.7" fill="#f9bc23" fill-rule="evenodd"/><path d="M163.388.637a5.646,5.646,0,0,1,2.557,4.431c0,1.625-1.16,2.284-2.574,1.467a5.648,5.648,0,0,1-2.557-4.429c0-1.626,1.161-2.284,2.574-1.469" fill="#f9bc23" fill-rule="evenodd"/><path d="M124.205,76.372a4.177,4.177,0,0,1,1.891,3.275c0,1.2-.859,1.688-1.9,1.085a4.176,4.176,0,0,1-1.891-3.274c0-1.2.858-1.689,1.9-1.086" fill="#00cedc" fill-rule="evenodd"/><path d="M181.637,170.306a4.179,4.179,0,0,1,1.891,3.275c-.005,1.2-.859,1.688-1.9,1.086a4.175,4.175,0,0,1-1.891-3.276c0-1.2.858-1.688,1.9-1.085" fill="#00cedc" fill-rule="evenodd"/><path d="M267.991,97.2a3.315,3.315,0,0,1,1.5,2.6c0,.953-.682,1.34-1.512.861a3.32,3.32,0,0,1-1.5-2.6c0-.954.681-1.341,1.511-.862" fill="#1c8df3" fill-rule="evenodd"/><path d="M162.278,515.515l-86.042-49c-9.38-4.287-22.805-7.7-32.361-2.725-8.709,4.532-23.053,13.807-29.4,17.423-4.816,2.748-21.54,12.767-11.124,18.431C34,516.3,64.318,535.043,95.433,551.968c5.884,3.2,14.493,4.357,23.53,3.608a62.3,62.3,0,0,0,25.482-7.59q7.758-4.511,15.26-8.881c6.748-3.929,10.326-8.578,10.682-12.873.346-4.2-2.351-8.087-8.109-10.717" fill="#f0f5ff" fill-rule="evenodd"/><path d="M55.927,443.725c-.6,5.9-1.661,11.384-3.73,15.418-1.028,1.123-2.312,1.8-2.914,3.079-3.223,6.856-3.932,13.462-1.688,48.649l8.26.174,1.057-12.428c1.022-5.039,3.85-12.412,5-16.977,2.492-9.947,2.733-14.934,4.26-22.255Z" fill="#ffa799" fill-rule="evenodd"/><path d="M38.6,486.1a13.18,13.18,0,0,1-2.8-.409c-.427-.474-1.23-2.808-.647-3.247,1.043-.691,3.161,2.981,3.442,3.656" fill="#1f202b" fill-rule="evenodd"/><path d="M43.187,472.034c.984,3.145-.415,6.179-1.4,9.444-3.456,11.407-5.48,12.048-4.016,17.21a23.061,23.061,0,0,0,5.049,9.057c2.239,2.551,2.912,4.383,5.786,6.368,4.327,2.989,8.179,4.387,7.238-1.612a28.754,28.754,0,0,0-1.412-5.564c-3.065-7.12-6.633-10.243-4.7-19.131,1.436-6.6,3.718-10.945.754-15.39Z" fill="#161a40" fill-rule="evenodd"/><path d="M43.87,464.921c-1.3,5.958-3.24,10.953-8.715,17.527.688-.182,2.449,1.616,3.419,3.608,7.138-8.209,10.611-12.2,12.808-8.663a112.514,112.514,0,0,1-2.207,12.52c-.3,1.377-.632,4.415.239,6.507,2.8,6.729,7.944,16.556,5.981,19.771.692-.864,1.469-3.235,1.458-6.427-.013-4.646-.8-10.937-.9-14.8-.133-5.226,1.842-9.758,2.158-16.876a56.957,56.957,0,0,0-.013-5.96c-.3-5.031-.851-11.706-4.388-13.594-1.261-.673-4.536-.187-6.231.673-2.378,1.207-3.11,3.425-3.608,5.716" fill="#161f69" fill-rule="evenodd"/></g><g clip-path="url(#g)"><rect width="197.431" height="149.748" transform="matrix(0.478, -0.878, 0.878, 0.478, -28.343, 418.908)" fill="url(#h)"/></g><g clip-path="url(#a)"><g opacity="0.3" style="mix-blend-mode:multiply;isolation:isolate"><g clip-path="url(#j)"><path d="M92.676,375.423l25.188-73,.82-20.047c.131-3.238-1.6-5.616-2.615-8.15-2.683.789-5.128,1.593-7.44,2.368L93.815,300.272c-5.687,11.6-7.124,26.564-11.235,30.024,4.678,11.337,2.657,34.128.983,46.643-4.79-1.6-9.193-2.279-13.906-4.039,3.238,2.691,9.193,5.385,12.508,8.777-6.031,21.65-8.937,43.769-10.958,66.085Z" fill="#1e2353" fill-rule="evenodd"/></g></g><path d="M102.5,473.056c-.2,5.6-5.52,11.022-6.142,14.655-1.428,8.348,4.618,4.006,11.464,14.736,2.741-.023,8.777,9.853,16.945,10.374,1.876.119,5.228-4.434,1.52-7.653-1.653-.962-3.128-.25-4.485-1.431-2.834-2.505-6.171-23.073-5.511-28.994Z" fill="#ffa799" fill-rule="evenodd"/><path d="M99.385,481.308c6.634.814,12.825,17.012,17.956,24.049,2.492,3.419,7.774-.106,5.631-1.022,1.092.077,5.106-.4,8.066.077,4.16.669,2.7,4.837-.127,6.792-6.3,4.349-11.884,6.8-17.594,3.917a27.1,27.1,0,0,1-3.5-2.329,17.675,17.675,0,0,1-2.333-1.889c-1.846-2.214-2.556-5.781-4.243-8.813-.558-1.005-1.016-1.221-1.375-.947-.693.97.023,15.528.368,18.445-.187.836-3.027,1.493-3.593.86l-5.27-25.866a9.229,9.229,0,0,1,.69-6.625c1.587-3.031,4.621-5.376,5.323-6.649" fill="#161f69" fill-rule="evenodd"/><path d="M116.7,516.247a11.738,11.738,0,0,1-3.379-1.126,27.084,27.084,0,0,1-3.5-2.328,17.672,17.672,0,0,1-2.333-1.89c-2-2.4-2.977-6.852-5.2-9.905.742-.457,2.679-.409,4.622,2.789,2.919,5.365,4.922,9.316,8.774,11.918a5.8,5.8,0,0,0,1.016.542" fill="#161a40" fill-rule="evenodd"/></g><g clip-path="url(#k)"><rect width="197.304" height="118.04" transform="translate(23.682 452.937) rotate(-68.19)" fill="url(#l)"/></g><g clip-path="url(#a)"><path d="M69.911,238.678l25.3,5.776c5.077,2.274,1.232,13.043-3.788,14.306l-35.31-4.569c-9-1.911-10.973-7.841-9.021-12.464.042-.1.088-.189.133-.283.611-2.862,18.6-28.722,21.187-32.226a37.671,37.671,0,0,1,8.94-8.951,9.784,9.784,0,0,1,9.743.269c3.638,2.231,4.854,5.932,3.435,9.33-2.588,6.212-12.418,18.377-20.616,28.812" fill="#107cce" fill-rule="evenodd"/></g><g clip-path="url(#n)"><rect width="117.198" height="86.698" transform="translate(51.484 301.241) rotate(-80.416)" fill="url(#o)"/></g><g clip-path="url(#p)"><rect width="45.306" height="44.853" transform="translate(165.915 152.625) rotate(-46.577)" fill="url(#q)"/></g><g clip-path="url(#r)"><rect width="97.917" height="96.587" transform="translate(94.748 168.829) rotate(-16.348)" fill="url(#s)"/></g><g clip-path="url(#a)"><g opacity="0.5"><g clip-path="url(#u)"><path d="M83.887,197.228c-14.829-1.676-14.862,22.767-9.7,34.28,13.417,29.943,4.737,34.573,5.969,48.221l-.278,5.5c12.75,18.985,49.7,17.5,54.189,3.782-.222-.783-.394-3.878-.67-5.076-13.45,12.858-32.922,9.456-44.429,2.591-1.067-5.042-.415-7.281.27-9.356,9.259-9.97,32.139-6.389,37.7-33.755,1.615-7.945-3.631-14.927-8.732-21.233-2.443-3.022-4.262-4.6-7.54-9.165-5.35,1.262-15.313-.51-16.5-2.692-.416-.762,1.694-7.448,1.354-8.264-9.166-4.038-6.241-4.221-11.629-4.829" fill="#0960ac" fill-rule="evenodd"/></g></g></g><g clip-path="url(#v)"><rect width="54.855" height="54.365" transform="translate(69.68 175.762) rotate(-18.641)" fill="url(#w)"/></g><g clip-path="url(#a)"><path d="M126,192.406c-1.616,1.054-13.091-2.762-14.017-2.716-8.929.442-18.537-.283-20.309-2.916-2.4-3.566-7.2-7.459-9.055-12.934-2.969-8.75-2.391-18.622,5.611-25.492,13.914-11.947,35.739-3.191,38.865,10.339,1.281,5.552-.308,6.01-.044,9.728.484,6.85,1.258,4.269.629,15.106-.241,4.129-.608,8.185-1.68,8.885" fill="#ffa799" fill-rule="evenodd"/><path d="M91.21,197.445c.488,4.432,12.962,7.556,20.531,5.793.81-.189,1.312-.343,1.6-.858,1.112.611,4.142,4.984,4.487,7.164-6.541,6.3-27.2,2.608-29.714-4.776-.6-1.767-1.154-5.1,3.093-7.323" fill="#00cedc" fill-rule="evenodd"/></g><g clip-path="url(#y)"><rect width="158.693" height="134.424" transform="translate(-1.395 260.627) rotate(-72.091)" fill="url(#z)"/></g></g></g><circle cx="56" cy="56" r="56" transform="translate(652 2794)" fill="#eecf52"/><path d="M8.78-5.713H3.524v3.938H9.668V0H1.3V-12.8H9.606V-11H3.524v3.533H8.78Zm5.906-.668L16.5-9.51H18.87L15.961-4.825,18.967,0H16.611l-1.9-3.252L12.823,0H10.45l3.006-4.825-2.9-4.685h2.355ZM26.007,0a3.3,3.3,0,0,1-.246-.888,3.325,3.325,0,0,1-2.5,1.063,3.355,3.355,0,0,1-2.338-.817,2.615,2.615,0,0,1-.905-2.021A2.7,2.7,0,0,1,21.151-5a5.473,5.473,0,0,1,3.23-.813h1.31v-.624a1.666,1.666,0,0,0-.413-1.182,1.638,1.638,0,0,0-1.257-.444,1.881,1.881,0,0,0-1.2.365,1.129,1.129,0,0,0-.466.927H20.224a2.37,2.37,0,0,1,.519-1.463A3.455,3.455,0,0,1,22.153-9.3a4.955,4.955,0,0,1,1.991-.387,3.99,3.99,0,0,1,2.663.839,2.993,2.993,0,0,1,1.02,2.36V-2.2a4.861,4.861,0,0,0,.36,2.048V0ZM23.66-1.538a2.429,2.429,0,0,0,1.191-.308,2.055,2.055,0,0,0,.839-.826V-4.465H24.539a3.148,3.148,0,0,0-1.784.413,1.338,1.338,0,0,0-.6,1.169,1.248,1.248,0,0,0,.409.98A1.583,1.583,0,0,0,23.66-1.538Zm10.31.009A1.931,1.931,0,0,0,35.3-2a1.591,1.591,0,0,0,.563-1.151h2.013a3.137,3.137,0,0,1-.554,1.657A3.632,3.632,0,0,1,35.912-.272,4.191,4.191,0,0,1,34,.176a4.055,4.055,0,0,1-3.164-1.292,5.124,5.124,0,0,1-1.169-3.568V-4.9a5.039,5.039,0,0,1,1.16-3.476,4.018,4.018,0,0,1,3.164-1.305,3.907,3.907,0,0,1,2.764.989,3.542,3.542,0,0,1,1.121,2.6H35.859A1.956,1.956,0,0,0,35.3-7.444a1.8,1.8,0,0,0-1.332-.527,1.879,1.879,0,0,0-1.6.751A3.834,3.834,0,0,0,31.8-4.939V-4.6a3.9,3.9,0,0,0,.558,2.307A1.878,1.878,0,0,0,33.97-1.529Zm8.191-10.292V-9.51H43.84v1.582H42.161v5.309a1.169,1.169,0,0,0,.215.787,1,1,0,0,0,.769.242,3.29,3.29,0,0,0,.747-.088V-.026a5.26,5.26,0,0,1-1.406.2q-2.461,0-2.461-2.716V-7.928H38.461V-9.51h1.564v-2.312ZM47.742,0H45.606V-9.51h2.136ZM45.475-11.979a1.133,1.133,0,0,1,.312-.817,1.179,1.179,0,0,1,.892-.325,1.193,1.193,0,0,1,.9.325,1.125,1.125,0,0,1,.316.817,1.1,1.1,0,0,1-.316.8,1.2,1.2,0,0,1-.9.321,1.188,1.188,0,0,1-.892-.321A1.107,1.107,0,0,1,45.475-11.979Zm7.269.158V-9.51h1.679v1.582H52.743v5.309a1.169,1.169,0,0,0,.215.787,1,1,0,0,0,.769.242,3.29,3.29,0,0,0,.747-.088V-.026a5.26,5.26,0,0,1-1.406.2q-2.461,0-2.461-2.716V-7.928H49.043V-9.51h1.564v-2.312Zm9.07,10.89A3.312,3.312,0,0,1,59.142.176,2.952,2.952,0,0,1,56.8-.729,3.851,3.851,0,0,1,56-3.349V-9.51H58.14v6.135q0,1.811,1.5,1.811a2.111,2.111,0,0,0,2.1-1.116V-9.51h2.136V0H61.866Zm3.841-3.894a5.654,5.654,0,0,1,1.02-3.529,3.267,3.267,0,0,1,2.733-1.332,3.1,3.1,0,0,1,2.443,1.055V-13.5h2.136V0H72.053l-.105-.984A3.148,3.148,0,0,1,69.39.176a3.248,3.248,0,0,1-2.7-1.345A5.861,5.861,0,0,1,65.654-4.825Zm2.136.185a3.958,3.958,0,0,0,.558,2.263,1.811,1.811,0,0,0,1.586.813,2.017,2.017,0,0,0,1.916-1.169V-6.794a1.986,1.986,0,0,0-1.9-1.143,1.824,1.824,0,0,0-1.6.822A4.408,4.408,0,0,0,67.79-4.641Z" transform="translate(671 2857)" fill="#12263f"/><circle cx="56" cy="56" r="56" transform="translate(774 2794)" fill="#eecf52"/><path d="M5.81-2.786,9.062-12.8H11.5L6.9,0H4.746L.158-12.8H2.593ZM18.018,0a3.3,3.3,0,0,1-.246-.888,3.325,3.325,0,0,1-2.5,1.063,3.355,3.355,0,0,1-2.338-.817,2.615,2.615,0,0,1-.905-2.021A2.7,2.7,0,0,1,13.162-5a5.473,5.473,0,0,1,3.23-.813H17.7v-.624a1.666,1.666,0,0,0-.413-1.182,1.638,1.638,0,0,0-1.257-.444,1.881,1.881,0,0,0-1.2.365,1.129,1.129,0,0,0-.466.927H12.234a2.37,2.37,0,0,1,.519-1.463A3.455,3.455,0,0,1,14.164-9.3a4.955,4.955,0,0,1,1.991-.387,3.99,3.99,0,0,1,2.663.839,2.993,2.993,0,0,1,1.02,2.36V-2.2A4.861,4.861,0,0,0,20.2-.149V0ZM15.671-1.538a2.429,2.429,0,0,0,1.191-.308,2.055,2.055,0,0,0,.839-.826V-4.465H16.55a3.148,3.148,0,0,0-1.784.413,1.338,1.338,0,0,0-.6,1.169,1.248,1.248,0,0,0,.409.98A1.583,1.583,0,0,0,15.671-1.538ZM24.346,0H22.21V-13.5h2.136Zm4.6,0H26.807V-9.51h2.136ZM26.675-11.979a1.133,1.133,0,0,1,.312-.817,1.179,1.179,0,0,1,.892-.325,1.193,1.193,0,0,1,.9.325,1.125,1.125,0,0,1,.316.817,1.1,1.1,0,0,1-.316.8,1.2,1.2,0,0,1-.9.321,1.188,1.188,0,0,1-.892-.321A1.107,1.107,0,0,1,26.675-11.979Zm4.192,7.154a5.654,5.654,0,0,1,1.02-3.529A3.267,3.267,0,0,1,34.62-9.686a3.1,3.1,0,0,1,2.443,1.055V-13.5H39.2V0H37.266L37.16-.984A3.148,3.148,0,0,1,34.6.176a3.248,3.248,0,0,1-2.7-1.345A5.861,5.861,0,0,1,30.867-4.825ZM33-4.641a3.958,3.958,0,0,0,.558,2.263,1.811,1.811,0,0,0,1.586.813,2.017,2.017,0,0,0,1.916-1.169V-6.794a1.986,1.986,0,0,0-1.9-1.143,1.824,1.824,0,0,0-1.6.822A4.408,4.408,0,0,0,33-4.641ZM45.615.176A4.419,4.419,0,0,1,42.324-1.1a4.639,4.639,0,0,1-1.261-3.406v-.264a5.706,5.706,0,0,1,.549-2.544,4.181,4.181,0,0,1,1.542-1.745,4.078,4.078,0,0,1,2.215-.624,3.733,3.733,0,0,1,3,1.239A5.24,5.24,0,0,1,49.43-4.939v.861H43.216A2.856,2.856,0,0,0,44-2.215a2.362,2.362,0,0,0,1.736.686,2.892,2.892,0,0,0,2.391-1.187l1.151,1.1A3.845,3.845,0,0,1,47.755-.294,4.774,4.774,0,0,1,45.615.176ZM45.36-7.972a1.8,1.8,0,0,0-1.419.615,3.189,3.189,0,0,0-.69,1.714H47.32V-5.8a2.6,2.6,0,0,0-.571-1.622A1.785,1.785,0,0,0,45.36-7.972Zm8.007,6.267H58.43V0H50.713V-1.4l4.825-6.39H50.8V-9.51h7.444v1.354Z" transform="translate(801 2857)" fill="#12263f"/><circle cx="56" cy="56" r="56" transform="translate(899 2794)" fill="#eecf52"/><path d="M8.675-5.423H3.524V0H1.3V-12.8h8.13V-11H3.524V-7.2h5.15ZM13.254,0H11.118V-9.51h2.136ZM10.986-11.979A1.133,1.133,0,0,1,11.3-12.8a1.179,1.179,0,0,1,.892-.325,1.193,1.193,0,0,1,.9.325,1.125,1.125,0,0,1,.316.817,1.1,1.1,0,0,1-.316.8,1.2,1.2,0,0,1-.9.321,1.188,1.188,0,0,1-.892-.321A1.107,1.107,0,0,1,10.986-11.979ZM21.261,0a3.3,3.3,0,0,1-.246-.888,3.325,3.325,0,0,1-2.5,1.063,3.355,3.355,0,0,1-2.338-.817,2.615,2.615,0,0,1-.905-2.021A2.7,2.7,0,0,1,16.4-5a5.473,5.473,0,0,1,3.23-.813h1.31v-.624a1.666,1.666,0,0,0-.413-1.182,1.638,1.638,0,0,0-1.257-.444,1.881,1.881,0,0,0-1.2.365,1.129,1.129,0,0,0-.466.927H15.478A2.37,2.37,0,0,1,16-8.231,3.455,3.455,0,0,1,17.407-9.3,4.955,4.955,0,0,1,19.4-9.686a3.99,3.99,0,0,1,2.663.839,2.993,2.993,0,0,1,1.02,2.36V-2.2a4.861,4.861,0,0,0,.36,2.048V0ZM18.914-1.538A2.429,2.429,0,0,0,20.1-1.846a2.055,2.055,0,0,0,.839-.826V-4.465H19.793a3.148,3.148,0,0,0-1.784.413,1.338,1.338,0,0,0-.6,1.169,1.248,1.248,0,0,0,.409.98A1.583,1.583,0,0,0,18.914-1.538Zm14.748-3.12a5.712,5.712,0,0,1-.989,3.524,3.221,3.221,0,0,1-2.72,1.31,3.1,3.1,0,0,1-2.6-1.2L27.246,0H25.313V-13.5h2.136v4.9a3.091,3.091,0,0,1,2.487-1.09,3.258,3.258,0,0,1,2.733,1.292,5.807,5.807,0,0,1,.993,3.612Zm-2.136-.185a4.037,4.037,0,0,0-.545-2.32A1.815,1.815,0,0,0,29.4-7.937a1.983,1.983,0,0,0-1.951,1.213V-2.8a2,2,0,0,0,1.969,1.239,1.8,1.8,0,0,0,1.547-.747,3.912,3.912,0,0,0,.563-2.259ZM37.723,0H35.587V-9.51h2.136ZM35.455-11.979a1.133,1.133,0,0,1,.312-.817,1.179,1.179,0,0,1,.892-.325,1.193,1.193,0,0,1,.9.325,1.125,1.125,0,0,1,.316.817,1.1,1.1,0,0,1-.316.8,1.2,1.2,0,0,1-.9.321,1.188,1.188,0,0,1-.892-.321A1.107,1.107,0,0,1,35.455-11.979ZM42.319,0H40.184V-13.5h2.136Zm4.6,0H44.78V-9.51h2.136ZM44.648-11.979a1.133,1.133,0,0,1,.312-.817,1.179,1.179,0,0,1,.892-.325,1.193,1.193,0,0,1,.9.325,1.125,1.125,0,0,1,.316.817,1.1,1.1,0,0,1-.316.8,1.2,1.2,0,0,1-.9.321,1.188,1.188,0,0,1-.892-.321A1.107,1.107,0,0,1,44.648-11.979Zm4.192,7.154a5.654,5.654,0,0,1,1.02-3.529,3.267,3.267,0,0,1,2.733-1.332,3.1,3.1,0,0,1,2.443,1.055V-13.5h2.136V0H55.239l-.105-.984A3.148,3.148,0,0,1,52.576.176a3.248,3.248,0,0,1-2.7-1.345A5.861,5.861,0,0,1,48.841-4.825Zm2.136.185a3.958,3.958,0,0,0,.558,2.263,1.811,1.811,0,0,0,1.586.813,2.017,2.017,0,0,0,1.916-1.169V-6.794a1.986,1.986,0,0,0-1.9-1.143,1.824,1.824,0,0,0-1.6.822A4.408,4.408,0,0,0,50.977-4.641ZM65.083,0a3.3,3.3,0,0,1-.246-.888,3.325,3.325,0,0,1-2.5,1.063A3.355,3.355,0,0,1,60-.642,2.615,2.615,0,0,1,59.1-2.663,2.7,2.7,0,0,1,60.227-5a5.473,5.473,0,0,1,3.23-.813h1.31v-.624a1.666,1.666,0,0,0-.413-1.182A1.638,1.638,0,0,0,63.1-8.06a1.881,1.881,0,0,0-1.2.365,1.129,1.129,0,0,0-.466.927H59.3a2.37,2.37,0,0,1,.519-1.463A3.455,3.455,0,0,1,61.229-9.3a4.955,4.955,0,0,1,1.991-.387,3.99,3.99,0,0,1,2.663.839,2.993,2.993,0,0,1,1.02,2.36V-2.2a4.861,4.861,0,0,0,.36,2.048V0ZM62.736-1.538a2.429,2.429,0,0,0,1.191-.308,2.055,2.055,0,0,0,.839-.826V-4.465H63.615a3.148,3.148,0,0,0-1.784.413,1.338,1.338,0,0,0-.6,1.169,1.248,1.248,0,0,0,.409.98A1.583,1.583,0,0,0,62.736-1.538Zm6-3.287a5.654,5.654,0,0,1,1.02-3.529,3.267,3.267,0,0,1,2.733-1.332,3.1,3.1,0,0,1,2.443,1.055V-13.5h2.136V0H75.138l-.105-.984A3.148,3.148,0,0,1,72.475.176a3.248,3.248,0,0,1-2.7-1.345A5.861,5.861,0,0,1,68.739-4.825Zm2.136.185a3.958,3.958,0,0,0,.558,2.263,1.811,1.811,0,0,0,1.586.813,2.017,2.017,0,0,0,1.916-1.169V-6.794a1.986,1.986,0,0,0-1.9-1.143,1.824,1.824,0,0,0-1.6.822A4.408,4.408,0,0,0,70.875-4.641Z" transform="translate(916 2857)" fill="#12263f"/><circle cx="56" cy="56" r="56" transform="translate(1033 2794)" fill="#eecf52"/><path d="M11.514-6.064a7.851,7.851,0,0,1-.65,3.3A4.918,4.918,0,0,1,9-.584a5.113,5.113,0,0,1-2.782.76A5.125,5.125,0,0,1,3.45-.584,4.993,4.993,0,0,1,1.569-2.751,7.606,7.606,0,0,1,.9-5.994v-.721a7.784,7.784,0,0,1,.664-3.3,4.987,4.987,0,0,1,1.872-2.193,5.1,5.1,0,0,1,2.773-.76,5.142,5.142,0,0,1,2.773.751,4.924,4.924,0,0,1,1.868,2.162,7.767,7.767,0,0,1,.668,3.283ZM9.29-6.732a5.594,5.594,0,0,0-.8-3.261,2.631,2.631,0,0,0-2.281-1.134A2.623,2.623,0,0,0,3.951-10,5.486,5.486,0,0,0,3.12-6.8v.738A5.552,5.552,0,0,0,3.942-2.8,2.646,2.646,0,0,0,6.223-1.652,2.615,2.615,0,0,0,8.495-2.777a5.671,5.671,0,0,0,.8-3.287ZM21.85-4.658a5.662,5.662,0,0,1-1,3.52A3.209,3.209,0,0,1,18.158.176a3.23,3.23,0,0,1-2.5-1.028V3.656H13.518V-9.51h1.969l.088.967a3.137,3.137,0,0,1,2.558-1.143,3.242,3.242,0,0,1,2.729,1.3,5.813,5.813,0,0,1,.989,3.6Zm-2.127-.185A3.966,3.966,0,0,0,19.156-7.1a1.843,1.843,0,0,0-1.622-.835,1.965,1.965,0,0,0-1.881,1.081v4.219a1.983,1.983,0,0,0,1.9,1.107,1.841,1.841,0,0,0,1.6-.822A4.366,4.366,0,0,0,19.723-4.843Zm3.533,0a5.607,5.607,0,0,1,.554-2.518,4.044,4.044,0,0,1,1.556-1.723,4.383,4.383,0,0,1,2.3-.6,4.154,4.154,0,0,1,3.125,1.239,4.874,4.874,0,0,1,1.3,3.287l.009.5a5.658,5.658,0,0,1-.541,2.514A4,4,0,0,1,30.01-.431a4.415,4.415,0,0,1-2.325.606,4.125,4.125,0,0,1-3.221-1.34,5.133,5.133,0,0,1-1.208-3.573Zm2.136.185A3.832,3.832,0,0,0,26-2.36a1.971,1.971,0,0,0,1.688.831,1.95,1.95,0,0,0,1.683-.844,4.232,4.232,0,0,0,.6-2.47,3.782,3.782,0,0,0-.62-2.285,1.979,1.979,0,0,0-1.683-.844,1.96,1.96,0,0,0-1.661.831A4.152,4.152,0,0,0,25.392-4.658Zm13.491-2.9a5.285,5.285,0,0,0-.87-.07A1.959,1.959,0,0,0,36.035-6.5V0H33.9V-9.51h2.039l.053,1.063a2.406,2.406,0,0,1,2.145-1.239,2,2,0,0,1,.756.123Zm4.465-4.263V-9.51h1.679v1.582H43.348v5.309a1.169,1.169,0,0,0,.215.787,1,1,0,0,0,.769.242,3.29,3.29,0,0,0,.747-.088V-.026a5.26,5.26,0,0,1-1.406.2q-2.461,0-2.461-2.716V-7.928H39.647V-9.51h1.564v-2.312Zm9.07,10.89A3.312,3.312,0,0,1,49.746.176,2.952,2.952,0,0,1,47.4-.729a3.851,3.851,0,0,1-.8-2.619V-9.51h2.136v6.135q0,1.811,1.5,1.811a2.111,2.111,0,0,0,2.1-1.116V-9.51h2.136V0H52.471ZM58.641-9.51l.062,1.1a3.419,3.419,0,0,1,2.769-1.274q2.971,0,3.023,3.4V0H62.358V-6.161a1.958,1.958,0,0,0-.391-1.34,1.645,1.645,0,0,0-1.279-.435,2.058,2.058,0,0,0-1.925,1.169V0H56.628V-9.51ZM68.941,0H66.806V-9.51h2.136ZM66.674-11.979a1.133,1.133,0,0,1,.312-.817,1.179,1.179,0,0,1,.892-.325,1.193,1.193,0,0,1,.9.325,1.125,1.125,0,0,1,.316.817,1.1,1.1,0,0,1-.316.8,1.2,1.2,0,0,1-.9.321,1.188,1.188,0,0,1-.892-.321A1.107,1.107,0,0,1,66.674-11.979Zm4.192,7.154a5.654,5.654,0,0,1,1.02-3.529,3.267,3.267,0,0,1,2.733-1.332,3.1,3.1,0,0,1,2.443,1.055V-13.5H79.2V0H77.265l-.105-.984A3.148,3.148,0,0,1,74.6.176a3.248,3.248,0,0,1-2.7-1.345A5.861,5.861,0,0,1,70.866-4.825ZM73-4.641a3.958,3.958,0,0,0,.558,2.263,1.811,1.811,0,0,0,1.586.813,2.017,2.017,0,0,0,1.916-1.169V-6.794a1.986,1.986,0,0,0-1.9-1.143,1.824,1.824,0,0,0-1.6.822A4.408,4.408,0,0,0,73-4.641ZM87.108,0a3.3,3.3,0,0,1-.246-.888,3.325,3.325,0,0,1-2.5,1.063,3.355,3.355,0,0,1-2.338-.817,2.615,2.615,0,0,1-.905-2.021A2.7,2.7,0,0,1,82.252-5a5.473,5.473,0,0,1,3.23-.813h1.31v-.624a1.666,1.666,0,0,0-.413-1.182,1.638,1.638,0,0,0-1.257-.444,1.881,1.881,0,0,0-1.2.365,1.129,1.129,0,0,0-.466.927H81.325a2.37,2.37,0,0,1,.519-1.463A3.455,3.455,0,0,1,83.254-9.3a4.955,4.955,0,0,1,1.991-.387,3.99,3.99,0,0,1,2.663.839,2.993,2.993,0,0,1,1.02,2.36V-2.2a4.861,4.861,0,0,0,.36,2.048V0ZM84.762-1.538a2.429,2.429,0,0,0,1.191-.308,2.055,2.055,0,0,0,.839-.826V-4.465H85.641a3.148,3.148,0,0,0-1.784.413,1.338,1.338,0,0,0-.6,1.169,1.248,1.248,0,0,0,.409.98A1.583,1.583,0,0,0,84.762-1.538Zm6-3.287a5.654,5.654,0,0,1,1.02-3.529,3.267,3.267,0,0,1,2.733-1.332,3.1,3.1,0,0,1,2.443,1.055V-13.5H99.1V0H97.163l-.105-.984A3.148,3.148,0,0,1,94.5.176a3.248,3.248,0,0,1-2.7-1.345A5.861,5.861,0,0,1,90.765-4.825Zm2.136.185a3.958,3.958,0,0,0,.558,2.263,1.811,1.811,0,0,0,1.586.813,2.017,2.017,0,0,0,1.916-1.169V-6.794a1.986,1.986,0,0,0-1.9-1.143,1.824,1.824,0,0,0-1.6.822A4.408,4.408,0,0,0,92.9-4.641Z" transform="translate(1039 2857)" fill="#12263f"/><circle cx="56" cy="56" r="56" transform="translate(1157 2794)" fill="#eecf52"/><path d="M6-4.922H3.524V0H1.3V-12.8H5.8A5.235,5.235,0,0,1,9.22-11.8a3.516,3.516,0,0,1,1.2,2.876A3.6,3.6,0,0,1,9.8-6.776,3.943,3.943,0,0,1,8.077-5.443L10.951-.114V0H8.569ZM3.524-6.715H5.81a2.541,2.541,0,0,0,1.758-.567A1.977,1.977,0,0,0,8.2-8.833a2.1,2.1,0,0,0-.584-1.591A2.483,2.483,0,0,0,5.871-11H3.524ZM16.515.176A4.419,4.419,0,0,1,13.223-1.1a4.639,4.639,0,0,1-1.261-3.406v-.264a5.706,5.706,0,0,1,.549-2.544,4.181,4.181,0,0,1,1.542-1.745,4.078,4.078,0,0,1,2.215-.624,3.733,3.733,0,0,1,3,1.239,5.24,5.24,0,0,1,1.059,3.507v.861H14.115A2.856,2.856,0,0,0,14.9-2.215a2.362,2.362,0,0,0,1.736.686,2.892,2.892,0,0,0,2.391-1.187l1.151,1.1A3.845,3.845,0,0,1,18.655-.294,4.774,4.774,0,0,1,16.515.176ZM16.26-7.972a1.8,1.8,0,0,0-1.419.615,3.189,3.189,0,0,0-.69,1.714H18.22V-5.8a2.6,2.6,0,0,0-.571-1.622A1.785,1.785,0,0,0,16.26-7.972Zm8,7.972H22.122V-13.5h2.136Zm6.513.176A4.419,4.419,0,0,1,27.479-1.1a4.639,4.639,0,0,1-1.261-3.406v-.264a5.706,5.706,0,0,1,.549-2.544A4.181,4.181,0,0,1,28.31-9.062a4.078,4.078,0,0,1,2.215-.624,3.733,3.733,0,0,1,3,1.239,5.24,5.24,0,0,1,1.059,3.507v.861H28.371a2.856,2.856,0,0,0,.787,1.863,2.362,2.362,0,0,0,1.736.686,2.892,2.892,0,0,0,2.391-1.187l1.151,1.1A3.845,3.845,0,0,1,32.911-.294,4.774,4.774,0,0,1,30.771.176Zm-.255-8.147a1.8,1.8,0,0,0-1.419.615,3.189,3.189,0,0,0-.69,1.714h4.069V-5.8A2.6,2.6,0,0,0,31.9-7.422,1.785,1.785,0,0,0,30.516-7.972ZM39.48-2.707l2.013-6.8H43.7L40.4,0H38.549L35.227-9.51h2.215ZM50.581,0a3.3,3.3,0,0,1-.246-.888,3.325,3.325,0,0,1-2.5,1.063A3.355,3.355,0,0,1,45.5-.642,2.615,2.615,0,0,1,44.6-2.663,2.7,2.7,0,0,1,45.725-5a5.473,5.473,0,0,1,3.23-.813h1.31v-.624a1.666,1.666,0,0,0-.413-1.182,1.638,1.638,0,0,0-1.257-.444,1.881,1.881,0,0,0-1.2.365,1.129,1.129,0,0,0-.466.927H44.8a2.37,2.37,0,0,1,.519-1.463A3.455,3.455,0,0,1,46.727-9.3a4.955,4.955,0,0,1,1.991-.387,3.99,3.99,0,0,1,2.663.839,2.993,2.993,0,0,1,1.02,2.36V-2.2a4.861,4.861,0,0,0,.36,2.048V0ZM48.234-1.538a2.429,2.429,0,0,0,1.191-.308,2.055,2.055,0,0,0,.839-.826V-4.465H49.113a3.148,3.148,0,0,0-1.784.413,1.338,1.338,0,0,0-.6,1.169,1.248,1.248,0,0,0,.409.98A1.583,1.583,0,0,0,48.234-1.538ZM56.619-9.51l.062,1.1a3.419,3.419,0,0,1,2.769-1.274q2.971,0,3.023,3.4V0H60.337V-6.161a1.958,1.958,0,0,0-.391-1.34,1.645,1.645,0,0,0-1.279-.435,2.058,2.058,0,0,0-1.925,1.169V0H54.606V-9.51Zm11.936,7.98A1.931,1.931,0,0,0,69.882-2a1.591,1.591,0,0,0,.563-1.151h2.013A3.137,3.137,0,0,1,71.9-1.49,3.632,3.632,0,0,1,70.5-.272a4.191,4.191,0,0,1-1.916.448,4.055,4.055,0,0,1-3.164-1.292,5.124,5.124,0,0,1-1.169-3.568V-4.9a5.039,5.039,0,0,1,1.16-3.476,4.018,4.018,0,0,1,3.164-1.305,3.907,3.907,0,0,1,2.764.989,3.542,3.542,0,0,1,1.121,2.6H70.444a1.956,1.956,0,0,0-.558-1.345,1.8,1.8,0,0,0-1.332-.527,1.879,1.879,0,0,0-1.6.751,3.834,3.834,0,0,0-.571,2.281V-4.6a3.9,3.9,0,0,0,.558,2.307A1.878,1.878,0,0,0,68.555-1.529ZM76.342,0H74.206V-9.51h2.136ZM74.074-11.979a1.133,1.133,0,0,1,.312-.817,1.179,1.179,0,0,1,.892-.325,1.193,1.193,0,0,1,.9.325,1.125,1.125,0,0,1,.316.817,1.1,1.1,0,0,1-.316.8,1.2,1.2,0,0,1-.9.321,1.188,1.188,0,0,1-.892-.321A1.107,1.107,0,0,1,74.074-11.979ZM84.349,0A3.3,3.3,0,0,1,84.1-.888a3.325,3.325,0,0,1-2.5,1.063,3.355,3.355,0,0,1-2.338-.817,2.615,2.615,0,0,1-.905-2.021A2.7,2.7,0,0,1,79.493-5a5.473,5.473,0,0,1,3.23-.813h1.31v-.624a1.666,1.666,0,0,0-.413-1.182,1.638,1.638,0,0,0-1.257-.444,1.881,1.881,0,0,0-1.2.365,1.129,1.129,0,0,0-.466.927H78.565a2.37,2.37,0,0,1,.519-1.463A3.455,3.455,0,0,1,80.495-9.3a4.955,4.955,0,0,1,1.991-.387,3.99,3.99,0,0,1,2.663.839,2.993,2.993,0,0,1,1.02,2.36V-2.2a4.861,4.861,0,0,0,.36,2.048V0ZM82-1.538a2.429,2.429,0,0,0,1.191-.308,2.055,2.055,0,0,0,.839-.826V-4.465H82.881a3.148,3.148,0,0,0-1.784.413,1.338,1.338,0,0,0-.6,1.169,1.248,1.248,0,0,0,.409.98A1.583,1.583,0,0,0,82-1.538Z" transform="translate(1163 2857)" fill="#12263f"/></g></svg>