<svg xmlns="http://www.w3.org/2000/svg" width="112" height="112" viewBox="0 0 112 112">
  <g id="Grupo_85448" data-name="Grupo 85448" transform="translate(-774 -2794)">
    <circle id="Elipse_4722" data-name="Elipse 4722" cx="56" cy="56" r="56" transform="translate(774 2794)" fill="#05339e"/>
    <path id="Trazado_119101" data-name="Trazado 119101" d="M5.81-2.786,9.062-12.8H11.5L6.9,0H4.746L.158-12.8H2.593ZM18.018,0a3.3,3.3,0,0,1-.246-.888,3.325,3.325,0,0,1-2.5,1.063,3.355,3.355,0,0,1-2.338-.817,2.615,2.615,0,0,1-.905-2.021A2.7,2.7,0,0,1,13.162-5a5.473,5.473,0,0,1,3.23-.813H17.7v-.624a1.666,1.666,0,0,0-.413-1.182,1.638,1.638,0,0,0-1.257-.444,1.881,1.881,0,0,0-1.2.365,1.129,1.129,0,0,0-.466.927H12.234a2.37,2.37,0,0,1,.519-1.463A3.455,3.455,0,0,1,14.164-9.3a4.955,4.955,0,0,1,1.991-.387,3.99,3.99,0,0,1,2.663.839,2.993,2.993,0,0,1,1.02,2.36V-2.2A4.861,4.861,0,0,0,20.2-.149V0ZM15.671-1.538a2.429,2.429,0,0,0,1.191-.308,2.055,2.055,0,0,0,.839-.826V-4.465H16.55a3.148,3.148,0,0,0-1.784.413,1.338,1.338,0,0,0-.6,1.169,1.248,1.248,0,0,0,.409.98A1.583,1.583,0,0,0,15.671-1.538ZM24.346,0H22.21V-13.5h2.136Zm4.6,0H26.807V-9.51h2.136ZM26.675-11.979a1.133,1.133,0,0,1,.312-.817,1.179,1.179,0,0,1,.892-.325,1.193,1.193,0,0,1,.9.325,1.125,1.125,0,0,1,.316.817,1.1,1.1,0,0,1-.316.8,1.2,1.2,0,0,1-.9.321,1.188,1.188,0,0,1-.892-.321A1.107,1.107,0,0,1,26.675-11.979Zm4.192,7.154a5.654,5.654,0,0,1,1.02-3.529A3.267,3.267,0,0,1,34.62-9.686a3.1,3.1,0,0,1,2.443,1.055V-13.5H39.2V0H37.266L37.16-.984A3.148,3.148,0,0,1,34.6.176a3.248,3.248,0,0,1-2.7-1.345A5.861,5.861,0,0,1,30.867-4.825ZM33-4.641a3.958,3.958,0,0,0,.558,2.263,1.811,1.811,0,0,0,1.586.813,2.017,2.017,0,0,0,1.916-1.169V-6.794a1.986,1.986,0,0,0-1.9-1.143,1.824,1.824,0,0,0-1.6.822A4.408,4.408,0,0,0,33-4.641ZM45.615.176A4.419,4.419,0,0,1,42.324-1.1a4.639,4.639,0,0,1-1.261-3.406v-.264a5.706,5.706,0,0,1,.549-2.544,4.181,4.181,0,0,1,1.542-1.745,4.078,4.078,0,0,1,2.215-.624,3.733,3.733,0,0,1,3,1.239A5.24,5.24,0,0,1,49.43-4.939v.861H43.216A2.856,2.856,0,0,0,44-2.215a2.362,2.362,0,0,0,1.736.686,2.892,2.892,0,0,0,2.391-1.187l1.151,1.1A3.845,3.845,0,0,1,47.755-.294,4.774,4.774,0,0,1,45.615.176ZM45.36-7.972a1.8,1.8,0,0,0-1.419.615,3.189,3.189,0,0,0-.69,1.714H47.32V-5.8a2.6,2.6,0,0,0-.571-1.622A1.785,1.785,0,0,0,45.36-7.972Zm8.007,6.267H58.43V0H50.713V-1.4l4.825-6.39H50.8V-9.51h7.444v1.354Z" transform="translate(801 2857)" fill="#fff"/>
  </g>
</svg>
