<svg xmlns="http://www.w3.org/2000/svg" width="396" height="271.767" viewBox="0 0 396 271.767">
  <g id="Grupo_85451" data-name="Grupo 85451" transform="translate(-602 -3347.217)">
    <rect id="Rectángulo_4912" data-name="Rectángulo 4912" width="396" height="271.767" rx="21" transform="translate(602 3347.217)" fill="#79dfef"/>
    <path id="Trazado_119104" data-name="Trazado 119104" d="M-26.028-6.639h-5.93V-2.9h7V0H-35.729V-15.641h10.8v2.911h-7.025v3.3h5.93Zm6.66-7.874v2.89h1.912v2.514h-1.912v5.317a1.358,1.358,0,0,0,.236.913,1.268,1.268,0,0,0,.935.258,5.311,5.311,0,0,0,.9-.064V-.1a6.681,6.681,0,0,1-2.041.312A3.792,3.792,0,0,1-22.1-.666a3.61,3.61,0,0,1-.892-2.675V-9.109h-1.482v-2.514h1.482v-2.89ZM-9.485,0a4.088,4.088,0,0,1-.344-1.042A3.366,3.366,0,0,1-12.622.215a4.124,4.124,0,0,1-2.793-.994,3.163,3.163,0,0,1-1.149-2.5,3.251,3.251,0,0,1,1.4-2.857A7.114,7.114,0,0,1-11.107-7.1H-9.99v-.615q0-1.608-1.386-1.608A1.133,1.133,0,0,0-12.665-8.05h-3.62a3.245,3.245,0,0,1,1.434-2.736,6.027,6.027,0,0,1,3.658-1.051,5.284,5.284,0,0,1,3.513,1.085A3.772,3.772,0,0,1-6.359-7.777v5.146A5.269,5.269,0,0,0-5.865-.183V0Zm-2.267-2.363a2.019,2.019,0,0,0,1.123-.29,1.818,1.818,0,0,0,.639-.655V-5.167h-1.053q-1.891,0-1.891,1.7a1.036,1.036,0,0,0,.333.8A1.205,1.205,0,0,0-11.752-2.363ZM6.435-5.726A7.009,7.009,0,0,1,5.215-1.4,3.909,3.909,0,0,1,1.923.215,3.351,3.351,0,0,1-.709-.956V4.469h-3.62V-11.623H-.945l.107,1.074A3.351,3.351,0,0,1,1.9-11.838a3.941,3.941,0,0,1,3.341,1.584A7.1,7.1,0,0,1,6.435-5.9Zm-3.62-.226q0-3.094-1.8-3.094a1.7,1.7,0,0,0-1.719.924v4.576a1.759,1.759,0,0,0,1.74.967q1.729,0,1.783-2.986ZM14.577,0a4.088,4.088,0,0,1-.344-1.042A3.366,3.366,0,0,1,11.44.215,4.124,4.124,0,0,1,8.647-.779,3.163,3.163,0,0,1,7.5-3.276a3.251,3.251,0,0,1,1.4-2.857A7.114,7.114,0,0,1,12.955-7.1h1.117v-.615q0-1.608-1.386-1.608A1.133,1.133,0,0,0,11.4-8.05H7.777a3.245,3.245,0,0,1,1.434-2.736,6.027,6.027,0,0,1,3.658-1.051,5.284,5.284,0,0,1,3.513,1.085A3.772,3.772,0,0,1,17.7-7.777v5.146A5.269,5.269,0,0,0,18.2-.183V0ZM12.311-2.363a2.019,2.019,0,0,0,1.123-.29,1.818,1.818,0,0,0,.639-.655V-5.167H13.02q-1.891,0-1.891,1.7a1.036,1.036,0,0,0,.333.8A1.205,1.205,0,0,0,12.311-2.363ZM36.04,0H25.126V-2.363l5.027-5.285q1.858-2.116,1.858-3.362a2.339,2.339,0,0,0-.44-1.536,1.572,1.572,0,0,0-1.278-.526,1.592,1.592,0,0,0-1.343.7,2.892,2.892,0,0,0-.516,1.756H24.8a5.136,5.136,0,0,1,.72-2.659,5.047,5.047,0,0,1,2-1.907,5.935,5.935,0,0,1,2.857-.687,5.839,5.839,0,0,1,3.9,1.171,4.18,4.18,0,0,1,1.37,3.362,4.882,4.882,0,0,1-.344,1.8A7.891,7.891,0,0,1,34.241-7.7,26.924,26.924,0,0,1,31.9-5.124l-2.02,2.331H36.04Z" transform="translate(800 3435.165)" fill="#1a1a52"/>
    <g id="teclado-electronico" transform="translate(734 3457.958)">
      <g id="Grupo_81935" data-name="Grupo 81935" transform="translate(1.922 33.565)">
        <g id="Grupo_81929" data-name="Grupo 81929">
          <g id="Grupo_81928" data-name="Grupo 81928">
            <path id="Trazado_114698" data-name="Trazado 114698" d="M134.851,268.141v13.253a11.186,11.186,0,0,1-11.186,11.186H18.686A11.186,11.186,0,0,1,7.5,281.394V268.141Z" transform="translate(-7.5 -232.859)" fill="#b5f4ff"/>
            <path id="Trazado_114699" data-name="Trazado 114699" d="M123.665,181.45H18.686A11.186,11.186,0,0,1,7.5,170.264V141.636A11.186,11.186,0,0,1,18.686,130.45H123.665a11.186,11.186,0,0,1,11.186,11.186v28.628A11.186,11.186,0,0,1,123.665,181.45Z" transform="translate(-7.5 -130.45)" fill="#e5fff4"/>
            <path id="Trazado_114700" data-name="Trazado 114700" d="M431.1,130.45h-10.25a11.186,11.186,0,0,1,11.186,11.186v28.628a11.186,11.186,0,0,1-11.186,11.186H431.1a11.186,11.186,0,0,0,11.186-11.186V141.636A11.186,11.186,0,0,0,431.1,130.45Z" transform="translate(-314.931 -130.45)" fill="#ced3e1"/>
          </g>
        </g>
        <g id="Grupo_81934" data-name="Grupo 81934" transform="translate(11.176 35.295)">
          <g id="Grupo_81931" data-name="Grupo 81931" transform="translate(59.108)">
            <path id="Trazado_114701" data-name="Trazado 114701" d="M299.44,405.935v-2.091a8.625,8.625,0,0,0-3.749-7.114l-3.406-2.334a18.7,18.7,0,0,1-5.523-5.9l-4.485-7.584A3.554,3.554,0,0,1,288.4,377.3l2.626,4.447a3.8,3.8,0,0,0,5.934.788V371.963h30.72V386.71a17.548,17.548,0,0,1-2.312,8.707,17.55,17.55,0,0,0-2.312,8.707v1.811" transform="translate(-281.792 -345.373)" fill="#ffead7"/>
            <path id="Trazado_114702" data-name="Trazado 114702" d="M299.44,405.935v-2.091a8.625,8.625,0,0,0-3.749-7.114l-3.406-2.334a18.7,18.7,0,0,1-5.523-5.9l-4.485-7.584A3.554,3.554,0,0,1,288.4,377.3l2.626,4.447a3.8,3.8,0,0,0,5.934.788V371.963h30.72V386.71a17.548,17.548,0,0,1-2.312,8.707,17.55,17.55,0,0,0-2.312,8.707v1.811" transform="translate(-281.792 -345.373)" fill="#ffead7"/>
            <g id="Grupo_81930" data-name="Grupo 81930" transform="translate(1.623 26.59)">
              <path id="Trazado_114703" data-name="Trazado 114703" d="M432.384,371.964v14.747a17.549,17.549,0,0,1-2.312,8.707,17.55,17.55,0,0,0-2.312,8.707v1.811h3.864v-1.811a17.548,17.548,0,0,1,2.312-8.707,17.55,17.55,0,0,0,2.312-8.707V371.964Z" transform="translate(-391.979 -371.964)" fill="#ffe2c7"/>
              <path id="Trazado_114704" data-name="Trazado 114704" d="M289.249,387.741l2.626,4.447a3.807,3.807,0,0,0,5.212,1.341,3.772,3.772,0,0,1-1.349-1.341l-2.626-4.447a3.554,3.554,0,0,0-4.921-1.21c-.023.014-.044.031-.067.046A3.528,3.528,0,0,1,289.249,387.741Z" transform="translate(-288.125 -382.404)" fill="#ffe2c7"/>
            </g>
            <path id="Trazado_114705" data-name="Trazado 114705" d="M341,319.735V291.369a3.84,3.84,0,1,1,7.68,0V312.3" transform="translate(-325.826 -282.574)" fill="#ffead7"/>
            <path id="Trazado_114706" data-name="Trazado 114706" d="M350.409,287.529a3.817,3.817,0,0,0-1.92.518,3.835,3.835,0,0,1,1.92,3.322V312.3h3.84V291.369A3.84,3.84,0,0,0,350.409,287.529Z" transform="translate(-331.399 -282.574)" fill="#ffe0c4"/>
            <path id="Trazado_114707" data-name="Trazado 114707" d="M370.968,297.921V272.032a3.84,3.84,0,1,1,7.68,0v25.889" transform="translate(-348.118 -268.192)" fill="#ffead7"/>
            <path id="Trazado_114708" data-name="Trazado 114708" d="M380.519,268.192a3.818,3.818,0,0,0-1.873.489,3.837,3.837,0,0,1,1.967,3.351v25.889h3.745V272.032A3.84,3.84,0,0,0,380.519,268.192Z" transform="translate(-353.828 -268.192)" fill="#ffe0c4"/>
            <path id="Trazado_114709" data-name="Trazado 114709" d="M400.94,312.3V291.369a3.84,3.84,0,0,1,7.68,0v23.412" transform="translate(-370.41 -282.574)" fill="#ffead7"/>
            <path id="Trazado_114710" data-name="Trazado 114710" d="M410.353,287.529a3.817,3.817,0,0,0-1.92.518,3.835,3.835,0,0,1,1.92,3.322v23.412h3.84V291.369A3.84,3.84,0,0,0,410.353,287.529Z" transform="translate(-375.983 -282.574)" fill="#ffe2c7"/>
            <path id="Trazado_114711" data-name="Trazado 114711" d="M430.912,350.735V339.711a3.84,3.84,0,0,1,7.68,0V355.69" transform="translate(-392.702 -318.529)" fill="#ffead7"/>
            <path id="Trazado_114712" data-name="Trazado 114712" d="M430.912,350.735V339.711a3.84,3.84,0,0,1,7.68,0V355.69" transform="translate(-392.702 -318.529)" fill="#ffead7"/>
            <path id="Trazado_114713" data-name="Trazado 114713" d="M440.325,335.871a3.817,3.817,0,0,0-1.92.518,3.835,3.835,0,0,1,1.92,3.322V355.69h3.84V339.711A3.84,3.84,0,0,0,440.325,335.871Z" transform="translate(-398.275 -318.529)" fill="#ffe2c7"/>
          </g>
          <g id="Grupo_81933" data-name="Grupo 81933">
            <path id="Trazado_114714" data-name="Trazado 114714" d="M79.358,405.935v-2.091a8.625,8.625,0,0,1,3.749-7.114l3.406-2.334a18.7,18.7,0,0,0,5.523-5.9l4.485-7.584A3.554,3.554,0,0,0,90.4,377.3l-2.626,4.447a3.8,3.8,0,0,1-5.933.788V371.963H51.116V386.71a17.548,17.548,0,0,0,2.312,8.707,17.55,17.55,0,0,1,2.312,8.707v1.811" transform="translate(-51.116 -345.373)" fill="#ffead7"/>
            <path id="Trazado_114715" data-name="Trazado 114715" d="M79.358,405.935v-2.091a8.625,8.625,0,0,1,3.749-7.114l3.406-2.334a18.7,18.7,0,0,0,5.523-5.9l4.485-7.584A3.554,3.554,0,0,0,90.4,377.3l-2.626,4.447a3.8,3.8,0,0,1-5.933.788V371.963H51.116V386.71a17.548,17.548,0,0,0,2.312,8.707,17.55,17.55,0,0,1,2.312,8.707v1.811" transform="translate(-51.116 -345.373)" fill="#ffead7"/>
            <g id="Grupo_81932" data-name="Grupo 81932" transform="translate(24.497 30.189)">
              <path id="Trazado_114716" data-name="Trazado 114716" d="M166.423,386.535a3.552,3.552,0,0,0-3.736.006,3.554,3.554,0,0,1,1.2,4.81l-4.485,7.584a18.694,18.694,0,0,1-5.522,5.9l-3.406,2.335a8.625,8.625,0,0,0-3.749,7.114v2.091h3.745v-2.091a8.625,8.625,0,0,1,3.749-7.114l3.406-2.335a18.7,18.7,0,0,0,5.523-5.9l4.485-7.584A3.554,3.554,0,0,0,166.423,386.535Z" transform="translate(-146.719 -386.007)" fill="#ffe2c7"/>
            </g>
            <path id="Trazado_114717" data-name="Trazado 114717" d="M148.712,319.735V291.369a3.84,3.84,0,1,0-7.68,0V312.3" transform="translate(-117.992 -282.574)" fill="#ffead7"/>
            <path id="Trazado_114718" data-name="Trazado 114718" d="M150.754,287.541a3.818,3.818,0,0,0-2.229.506,3.835,3.835,0,0,1,1.92,3.322V312.2a9.014,9.014,0,0,0,2.745,6.477l1.095,1.06v-28.26a3.912,3.912,0,0,0-3.531-3.935Z" transform="translate(-123.565 -282.574)" fill="#ffe2c7"/>
            <path id="Trazado_114719" data-name="Trazado 114719" d="M118.74,297.921V272.032a3.84,3.84,0,1,0-7.68,0v25.889" transform="translate(-95.7 -268.192)" fill="#ffead7"/>
            <path id="Trazado_114720" data-name="Trazado 114720" d="M120.983,268.192a3.816,3.816,0,0,0-1.744.422,3.837,3.837,0,0,1,2.1,3.418v25.889h3.489V272.032A3.84,3.84,0,0,0,120.983,268.192Z" transform="translate(-101.783 -268.192)" fill="#ffe2c7"/>
            <path id="Trazado_114721" data-name="Trazado 114721" d="M88.768,312.3V291.369a3.84,3.84,0,0,0-7.68,0v23.412" transform="translate(-73.408 -282.574)" fill="#ffead7"/>
            <path id="Trazado_114722" data-name="Trazado 114722" d="M90.5,287.529a3.817,3.817,0,0,0-1.92.518,3.835,3.835,0,0,1,1.92,3.322V312.3h3.84V291.369A3.84,3.84,0,0,0,90.5,287.529Z" transform="translate(-78.981 -282.574)" fill="#ffe2c7"/>
            <path id="Trazado_114723" data-name="Trazado 114723" d="M58.8,350.735V339.711a3.84,3.84,0,0,0-7.68,0V355.69" transform="translate(-51.116 -318.529)" fill="#ffead7"/>
            <path id="Trazado_114724" data-name="Trazado 114724" d="M58.8,350.735V339.711a3.84,3.84,0,0,0-7.68,0V355.69" transform="translate(-51.116 -318.529)" fill="#ffead7"/>
            <path id="Trazado_114725" data-name="Trazado 114725" d="M60.529,335.871a3.817,3.817,0,0,0-1.92.518,3.835,3.835,0,0,1,1.92,3.322v11.024h3.84V339.711A3.84,3.84,0,0,0,60.529,335.871Z" transform="translate(-56.689 -318.529)" fill="#ffe2c7"/>
          </g>
        </g>
      </g>
      <g id="Grupo_81936" data-name="Grupo 81936" transform="translate(0 0.187)">
        <path id="Trazado_114726" data-name="Trazado 114726" d="M118.087,31.644H67.537V30.062a4.135,4.135,0,0,1,4.125-4.134h31.215a7.978,7.978,0,0,0,0-15.956H38.895A4.134,4.134,0,0,1,34.77,5.837V2.109a1.922,1.922,0,0,0-3.844,0V5.838a7.982,7.982,0,0,0,7.969,7.978h63.982a4.135,4.135,0,0,1,0,8.269H71.662a7.983,7.983,0,0,0-7.969,7.978v1.581H13.107A13.122,13.122,0,0,0,0,44.751a1.923,1.923,0,0,0,3.844,0,9.274,9.274,0,0,1,9.264-9.264H118.087a9.274,9.274,0,0,1,9.264,9.264V73.379a9.274,9.274,0,0,1-9.264,9.264h-5.749V77.655a5.818,5.818,0,0,0-7.7-5.425c-.553-6.813-10.928-6.823-11.482,0a5.818,5.818,0,0,0-7.7,5.425v4.988H45.74V77.655a5.818,5.818,0,0,0-7.7-5.425c-.553-6.813-10.928-6.823-11.482,0a5.818,5.818,0,0,0-7.7,5.425v4.988H13.107a9.275,9.275,0,0,1-9.264-9.264V55.3A1.923,1.923,0,0,0,0,55.3V82.1A13.076,13.076,0,0,0,11.176,95.067V110.2a19.5,19.5,0,0,0,2.566,9.66,15.653,15.653,0,0,1,2.059,7.754v1.811a1.923,1.923,0,0,0,3.844,0v-1.811a19.5,19.5,0,0,0-2.565-9.66,15.652,15.652,0,0,1-2.059-7.754V90.042a1.919,1.919,0,0,1,3.837,0v11.024a1.923,1.923,0,0,0,3.844,0V77.655a1.919,1.919,0,0,1,3.836,0V98.589a1.923,1.923,0,0,0,3.844,0V72.7a1.919,1.919,0,0,1,3.837,0V98.589a1.923,1.923,0,0,0,3.844,0V77.655a1.919,1.919,0,0,1,3.836,0v28.366c.7,4.39,7.681,3.286,9.51.19l2.624-4.443c1.007-1.695,3.829-.085,2.819,1.647L52.365,111c-1.894,3.2-4.9,5.259-8.076,7.436a10.694,10.694,0,0,0-4.87,8.9v2.091a1.923,1.923,0,0,0,3.844,0v-2.091a6.984,6.984,0,0,1,3.2-5.724c3.385-2.318,6.885-4.715,9.213-8.651l4.491-7.594c3.482-5.97-5.907-11.5-9.441-5.552L48.1,104.256a1.9,1.9,0,0,1-2.357.777V95.208H77.127a1.923,1.923,0,0,0,0-3.844H45.74V86.487H85.455v18.544a1.891,1.891,0,0,1-2.357-.774l-2.629-4.451c-3.536-5.954-12.917-.409-9.432,5.566l4.485,7.584c2.328,3.936,5.828,6.333,9.213,8.651a6.954,6.954,0,0,1,3.2,5.724v2.091a1.923,1.923,0,0,0,3.844,0v-2.091a10.694,10.694,0,0,0-4.87-8.9c-3.179-2.177-6.182-4.233-8.076-7.436l-4.479-7.574c-.984-1.688,1.775-3.4,2.811-1.66l2.627,4.447a5.808,5.808,0,0,0,8.93,1.186,1.944,1.944,0,0,0,.58-1.375V77.655a1.919,1.919,0,0,1,3.836,0V98.589a1.923,1.923,0,0,0,3.844,0V72.7a1.919,1.919,0,0,1,3.837,0V98.589a1.923,1.923,0,0,0,3.844,0V77.655a1.919,1.919,0,0,1,3.836,0v23.412a1.923,1.923,0,0,0,3.844,0V90.042a1.919,1.919,0,0,1,3.837,0V110.2a15.654,15.654,0,0,1-2.059,7.754,19.5,19.5,0,0,0-2.565,9.66v1.811a1.923,1.923,0,0,0,3.844,0v-1.811a15.651,15.651,0,0,1,2.059-7.753,19.5,19.5,0,0,0,2.566-9.661V95.065A13.127,13.127,0,0,0,131.194,82.1V44.751a13.122,13.122,0,0,0-13.107-13.108ZM3.862,82.661a13.066,13.066,0,0,0,8.561,3.808,5.732,5.732,0,0,0-1.247,3.574v1.12a9.237,9.237,0,0,1-7.314-8.5Zm116.157,8.5V90.042a5.733,5.733,0,0,0-1.247-3.574,13.067,13.067,0,0,0,8.561-3.808A9.281,9.281,0,0,1,120.019,91.161Z" transform="translate(0 -0.187)" fill="#060606"/>
        <path id="Trazado_114727" data-name="Trazado 114727" d="M67.776,182.272a1.923,1.923,0,0,0,0-3.844H56.744a1.923,1.923,0,0,0,0,3.844Z" transform="translate(-40.824 -132.756)" fill="#060606"/>
        <path id="Trazado_114728" data-name="Trazado 114728" d="M142.851,178.428a1.923,1.923,0,0,0,0,3.844A1.923,1.923,0,0,0,142.851,178.428Z" transform="translate(-104.867 -132.756)" fill="#060606"/>
        <path id="Trazado_114729" data-name="Trazado 114729" d="M185.9,178.428a1.923,1.923,0,0,0,0,3.844A1.923,1.923,0,0,0,185.9,178.428Z" transform="translate(-136.888 -132.756)" fill="#060606"/>
        <path id="Trazado_114730" data-name="Trazado 114730" d="M228.957,178.428a1.923,1.923,0,0,0,0,3.844A1.923,1.923,0,0,0,228.957,178.428Z" transform="translate(-168.909 -132.756)" fill="#060606"/>
        <path id="Trazado_114731" data-name="Trazado 114731" d="M272.01,178.428a1.923,1.923,0,0,0,0,3.844A1.923,1.923,0,0,0,272.01,178.428Z" transform="translate(-200.93 -132.756)" fill="#060606"/>
        <path id="Trazado_114732" data-name="Trazado 114732" d="M315.063,178.428a1.923,1.923,0,0,0,0,3.844A1.923,1.923,0,0,0,315.063,178.428Z" transform="translate(-232.951 -132.756)" fill="#060606"/>
        <path id="Trazado_114733" data-name="Trazado 114733" d="M358.116,178.428a1.923,1.923,0,0,0,0,3.844A1.923,1.923,0,0,0,358.116,178.428Z" transform="translate(-264.972 -132.756)" fill="#060606"/>
        <path id="Trazado_114734" data-name="Trazado 114734" d="M401.169,178.428a1.923,1.923,0,0,0,0,3.844A1.923,1.923,0,0,0,401.169,178.428Z" transform="translate(-296.993 -132.756)" fill="#060606"/>
        <path id="Trazado_114735" data-name="Trazado 114735" d="M56.745,226.31H67.777a1.923,1.923,0,0,0,0-3.844H56.745A1.923,1.923,0,0,0,56.745,226.31Z" transform="translate(-40.824 -165.509)" fill="#060606"/>
        <path id="Trazado_114736" data-name="Trazado 114736" d="M142.851,226.31a1.923,1.923,0,0,0,0-3.844A1.923,1.923,0,0,0,142.851,226.31Z" transform="translate(-104.867 -165.509)" fill="#060606"/>
        <path id="Trazado_114737" data-name="Trazado 114737" d="M185.9,226.31a1.923,1.923,0,0,0,0-3.844A1.923,1.923,0,0,0,185.9,226.31Z" transform="translate(-136.888 -165.509)" fill="#060606"/>
        <path id="Trazado_114738" data-name="Trazado 114738" d="M228.957,226.31a1.923,1.923,0,0,0,0-3.844A1.923,1.923,0,0,0,228.957,226.31Z" transform="translate(-168.909 -165.509)" fill="#060606"/>
        <path id="Trazado_114739" data-name="Trazado 114739" d="M272.01,226.31a1.923,1.923,0,0,0,0-3.844A1.923,1.923,0,0,0,272.01,226.31Z" transform="translate(-200.93 -165.509)" fill="#060606"/>
        <path id="Trazado_114740" data-name="Trazado 114740" d="M315.063,226.31a1.923,1.923,0,0,0,0-3.844A1.923,1.923,0,0,0,315.063,226.31Z" transform="translate(-232.951 -165.509)" fill="#060606"/>
        <path id="Trazado_114741" data-name="Trazado 114741" d="M358.117,226.31a1.923,1.923,0,0,0,0-3.844A1.923,1.923,0,0,0,358.117,226.31Z" transform="translate(-264.973 -165.509)" fill="#060606"/>
        <path id="Trazado_114742" data-name="Trazado 114742" d="M401.17,226.31a1.923,1.923,0,0,0,0-3.844A1.923,1.923,0,0,0,401.17,226.31Z" transform="translate(-296.994 -165.509)" fill="#060606"/>
        <path id="Trazado_114743" data-name="Trazado 114743" d="M445.956,191.824V180.54a1.923,1.923,0,0,0-3.844,0v11.284A1.923,1.923,0,0,0,445.956,191.824Z" transform="translate(-328.826 -132.946)" fill="#060606"/>
        <path id="Trazado_114744" data-name="Trazado 114744" d="M185.9,270.347H219a1.923,1.923,0,0,0,0-3.844H185.9A1.923,1.923,0,0,0,185.9,270.347Z" transform="translate(-136.888 -198.262)" fill="#060606"/>
      </g>
    </g>
  </g>
</svg>
