<svg xmlns="http://www.w3.org/2000/svg" width="105" height="105" viewBox="0 0 105 105">
  <g id="Grupo_85457" data-name="Grupo 85457" transform="translate(-1146 -4206)">
    <circle id="Elipse_4747" data-name="Elipse 4747" cx="52.5" cy="52.5" r="52.5" transform="translate(1146 4206)" fill="#eecf52"/>
    <path id="Trazado_119110" data-name="Trazado 119110" d="M7.936-17.714a5.58,5.58,0,0,1-.872,3.1,6.348,6.348,0,0,1-2.4,2.158A6.986,6.986,0,0,1,7.4-10.135,5.976,5.976,0,0,1,8.417-6.657,6.326,6.326,0,0,1,6.184-1.544,9.273,9.273,0,0,1,.033.332,9.442,9.442,0,0,1-6.176-1.552a6.281,6.281,0,0,1-2.274-5.1,6.051,6.051,0,0,1,1-3.437,6.773,6.773,0,0,1,2.822-2.357,6.384,6.384,0,0,1-2.424-2.158,5.541,5.541,0,0,1-.88-3.1,6.2,6.2,0,0,1,2.142-4.98A8.609,8.609,0,0,1-.017-24.521a8.662,8.662,0,0,1,5.811,1.826A6.2,6.2,0,0,1,7.936-17.714ZM2.806-7.105a3.191,3.191,0,0,0-.772-2.3A2.688,2.688,0,0,0,0-10.21,2.715,2.715,0,0,0-2.042-9.4a3.17,3.17,0,0,0-.78,2.3,3.2,3.2,0,0,0,.789,2.283,2.706,2.706,0,0,0,2.067.838,2.6,2.6,0,0,0,2.009-.83A3.255,3.255,0,0,0,2.806-7.105ZM-.017-20.2a2.068,2.068,0,0,0-1.718.739,3.206,3.206,0,0,0-.589,2.05,3.4,3.4,0,0,0,.6,2.092,2.062,2.062,0,0,0,1.76.8,1.978,1.978,0,0,0,1.718-.8,3.505,3.505,0,0,0,.573-2.092,3.213,3.213,0,0,0-.589-2.042A2.1,2.1,0,0,0-.017-20.2Z" transform="translate(1199 4271)" fill="#1a1a52"/>
  </g>
</svg>
