<svg xmlns="http://www.w3.org/2000/svg" width="105" height="105" viewBox="0 0 105 105">
  <g id="Grupo_85453" data-name="Grupo 85453" transform="translate(-889 -4206)">
    <circle id="Elipse_4745" data-name="Elipse 4745" cx="52.5" cy="52.5" r="52.5" transform="translate(889 4206)" fill="#fff"/>
    <path id="Trazado_119108" data-name="Trazado 119108" d="M5.146-24.521v4.4H4.9a8.4,8.4,0,0,0-5.155,1.5,6.344,6.344,0,0,0-2.482,4.175A6.542,6.542,0,0,1,2.042-16.3a6.1,6.1,0,0,1,5,2.291A9.241,9.241,0,0,1,8.9-8,8.462,8.462,0,0,1,7.811-3.769,7.759,7.759,0,0,1,4.773-.755,8.73,8.73,0,0,1,.448.332a9.023,9.023,0,0,1-4.6-1.17A8.047,8.047,0,0,1-7.3-4.184,11.015,11.015,0,0,1-8.467-9.2v-2.241a13.954,13.954,0,0,1,1.6-6.715,11.614,11.614,0,0,1,4.574-4.673A13.077,13.077,0,0,1,4.3-24.521ZM.1-12.02A3.2,3.2,0,0,0-1.76-11.5a3.267,3.267,0,0,0-1.112,1.262v1.677q0,4.582,3.171,4.582A2.572,2.572,0,0,0,2.432-5.13,4.669,4.669,0,0,0,3.287-8a4.582,4.582,0,0,0-.872-2.9A2.788,2.788,0,0,0,.1-12.02Z" transform="translate(942 4271)" fill="#1a1a52"/>
  </g>
</svg>
