<svg xmlns="http://www.w3.org/2000/svg" width="85" height="84.609" viewBox="0 0 85 84.609">
  <g id="impresora" transform="translate(-2 -2)">
    <g id="_22_Printer" data-name="22 Printer" transform="translate(2 2)">
      <path id="Trazado_119010" data-name="Trazado 119010" d="M71.457,11H12.23A4.23,4.23,0,0,0,8,15.23V30.742H75.687V15.23A4.23,4.23,0,0,0,71.457,11Z" transform="translate(0.461 1.691)" fill="#596c76"/>
      <path id="Trazado_119011" data-name="Trazado 119011" d="M54.929,2H21.31a4.235,4.235,0,0,0-4.23,4.23V32.854a1.41,1.41,0,0,0,1.41,1.41H57.749a1.41,1.41,0,0,0,1.41-1.41V6.23A4.235,4.235,0,0,0,54.929,2Z" transform="translate(4.185 -2)" fill="#eee"/>
      <rect id="Rect치ngulo_36408" data-name="Rect치ngulo 36408" width="85" height="39" rx="3" transform="translate(0 30)" fill="#596c76"/>
      <rect id="Rect치ngulo_36409" data-name="Rect치ngulo 36409" width="45" height="17" rx="1" transform="translate(20 52)" fill="#435056"/>
      <path id="Trazado_119012" data-name="Trazado 119012" d="M55.873,44.97a1.41,1.41,0,0,0-1.4-1.21H21.762a1.41,1.41,0,0,0-1.4,1.211l-3.272,22.9a1.41,1.41,0,0,0,1.4,1.61H57.749a1.41,1.41,0,0,0,1.4-1.61Z" transform="translate(4.185 15.128)" fill="#eee"/>
      <path id="Trazado_119013" data-name="Trazado 119013" d="M82.379,23H6.23A4.23,4.23,0,0,0,2,27.23V39.922H86.609V27.23A4.23,4.23,0,0,0,82.379,23Z" transform="translate(-2 6.613)" fill="#8ac9fe"/>
      <g id="Grupo_85417" data-name="Grupo 85417" transform="translate(27.808 64.867)">
        <path id="Trazado_119014" data-name="Trazado 119014" d="M49.3,58.82H23.13a1.41,1.41,0,0,1,0-2.82H49.3a1.41,1.41,0,0,1,0,2.82Z" transform="translate(-21.72 -44.719)" fill="#788d96"/>
        <path id="Trazado_119015" data-name="Trazado 119015" d="M48.247,54.82H23.71a1.41,1.41,0,0,1,0-2.82H48.247a1.41,1.41,0,0,1,0,2.82Z" transform="translate(-21.482 -46.359)" fill="#788d96"/>
        <path id="Trazado_119016" data-name="Trazado 119016" d="M47.191,50.82H24.29a1.41,1.41,0,0,1,0-2.82h22.9a1.41,1.41,0,0,1,0,2.82Z" transform="translate(-21.244 -48)" fill="#788d96"/>
      </g>
      <path id="Trazado_119017" data-name="Trazado 119017" d="M57.23,26c-5.641-.077-5.641,8.536,0,8.46C62.871,34.538,62.871,25.924,57.23,26Z" transform="translate(18.918 7.844)" fill="#fd4755"/>
    </g>
    <g id="Layer_32" data-name="Layer 32" transform="translate(2 2)">
      <path id="Trazado_119018" data-name="Trazado 119018" d="M82.379,31.613h-4.23V18.922a4.243,4.243,0,0,0-4.23-4.23H65.344V6.23A4.243,4.243,0,0,0,61.114,2H27.5a4.243,4.243,0,0,0-4.23,4.23v8.461H14.691a4.243,4.243,0,0,0-4.23,4.23V31.613H6.23A4.235,4.235,0,0,0,2,35.844V66.867A4.243,4.243,0,0,0,6.23,71.1H25.268L23.279,85a1.407,1.407,0,0,0,1.4,1.608H63.934A1.407,1.407,0,0,0,65.33,85L63.342,71.1H82.379a4.243,4.243,0,0,0,4.23-4.23V35.844A4.235,4.235,0,0,0,82.379,31.613Zm-8.461-14.1a1.414,1.414,0,0,1,1.41,1.41V31.613H65.344v-14.1ZM26.085,6.23A1.414,1.414,0,0,1,27.5,4.82H61.114a1.414,1.414,0,0,1,1.41,1.41V31.444H26.085Zm-12.8,12.691a1.414,1.414,0,0,1,1.41-1.41h8.574v14.1H13.281Zm69.1,15.512a1.414,1.414,0,0,1,1.41,1.41v9.871H4.82V35.844a1.414,1.414,0,0,1,1.41-1.41ZM62.312,83.789H26.3l2.877-20.081H59.436Zm.635-15.512L62.059,62.1a1.412,1.412,0,0,0-1.4-1.213H27.947a1.412,1.412,0,0,0-1.4,1.213l-.888,6.176h-1.1V57H64.047V68.277Zm19.432,0H66.867V55.586a1.414,1.414,0,0,0-1.41-1.41h-42.3a1.414,1.414,0,0,0-1.41,1.41V68.277H6.23a1.414,1.414,0,0,1-1.41-1.41V48.535H83.789V66.867A1.414,1.414,0,0,1,82.379,68.277Z" transform="translate(-2 -2)"/>
      <path id="Trazado_119019" data-name="Trazado 119019" d="M49.3,56H23.13a1.41,1.41,0,0,0,0,2.82H49.3a1.41,1.41,0,0,0,0-2.82Z" transform="translate(6.088 20.148)"/>
      <path id="Trazado_119020" data-name="Trazado 119020" d="M23.71,54.82H48.247a1.41,1.41,0,0,0,0-2.82H23.71a1.41,1.41,0,0,0,0,2.82Z" transform="translate(6.326 18.508)"/>
      <path id="Trazado_119021" data-name="Trazado 119021" d="M24.29,50.82h22.9a1.41,1.41,0,0,0,0-2.82H24.29a1.41,1.41,0,0,0,0,2.82Z" transform="translate(6.564 16.867)"/>
      <path id="Trazado_119022" data-name="Trazado 119022" d="M57.23,34.461c5.641.077,5.641-8.536,0-8.46C51.59,25.923,51.59,34.536,57.23,34.461Zm0-5.641a1.41,1.41,0,1,1-1.41,1.41A1.41,1.41,0,0,1,57.23,28.82Z" transform="translate(18.918 7.844)"/>
    </g>
  </g>
</svg>
