<svg xmlns="http://www.w3.org/2000/svg" width="190" height="169" viewBox="0 0 190 169">
  <g id="Grupo_85441" data-name="Grupo 85441" transform="translate(-810 -7897)">
    <rect id="Rectángulo_36414" data-name="Rectángulo 36414" width="190" height="169" transform="translate(810 7897)" fill="#eecf52"/>
    <g id="Ikon" transform="translate(871.541 7940.555)">
      <path id="Trazado_119003" data-name="Trazado 119003" d="M43.262,49.987,48.427,64.5l-4.243-.123L41.173,67.08,36.006,52.57Z" transform="translate(4.047 22.38)" fill="#e53935"/>
      <path id="Trazado_119004" data-name="Trazado 119004" d="M34.095,49.987,28.929,64.5l4.243-.123,3.011,2.708L41.35,52.57Z" transform="translate(0.225 22.38)" fill="#e53935"/>
      <path id="Trazado_119005" data-name="Trazado 119005" d="M16.931,3a6.931,6.931,0,0,1,6.931,6.931V23.022H13.08A3.08,3.08,0,0,1,10,19.942V9.931A6.931,6.931,0,0,1,16.931,3Z" transform="translate(-10 -3)" fill="#c1c1c1"/>
      <path id="Trazado_119006" data-name="Trazado 119006" d="M14,3h.77c-.262,0-.508.015-.755.031Z" transform="translate(-7.839 -3)"/>
      <path id="Trazado_119007" data-name="Trazado 119007" d="M75.167,6.08l.162,67.759a3.08,3.08,0,0,1-3.08,3.088H24.511a3.08,3.08,0,0,1-3.08-3.08V9.931A6.921,6.921,0,0,0,14.5,3H72.086a3.089,3.089,0,0,1,3.08,3.08Z" transform="translate(-7.569 -3)" fill="#eee"/>
      <path id="Trazado_119008" data-name="Trazado 119008" d="M54.183,50.891c0,1.614-2.611,2.7-3.193,4.1-.6,1.455.454,4.061-.642,5.157s-3.7.039-5.157.642c-1.4.582-2.486,3.192-4.1,3.192s-2.7-2.611-4.1-3.193c-1.455-.6-4.061.454-5.157-.642s-.039-3.7-.642-5.157C30.611,53.588,28,52.5,28,50.891s2.611-2.7,3.193-4.1c.6-1.455-.454-4.061.642-5.157s3.7-.039,5.157-.642c1.4-.582,2.486-3.192,4.1-3.192s2.7,2.611,4.1,3.193c1.455.6,4.061-.454,5.157.642s.039,3.7.642,5.157C51.572,48.195,54.183,49.278,54.183,50.891Z" transform="translate(-0.277 15.797)" fill="#f57c00"/>
      <circle id="Elipse_4812" data-name="Elipse 4812" cx="6.161" cy="6.161" r="6.161" transform="translate(34.653 60.528)" fill="#f9a825"/>
    </g>
    <g id="line" transform="translate(870 7939)">
      <path id="Trazado_119009" data-name="Trazado 119009" d="M51.354,77.935a7.7,7.7,0,1,0-7.7-7.7,7.7,7.7,0,0,0,7.7,7.7Zm0-12.321a4.62,4.62,0,1,1-4.62,4.62,4.62,4.62,0,0,1,4.62-4.62ZM39.8,14.327a1.54,1.54,0,0,1,1.54-1.54H61.365a1.54,1.54,0,0,1,0,3.08H41.343A1.54,1.54,0,0,1,39.8,14.327ZM72.146,25.108a1.54,1.54,0,0,1-1.54,1.54H32.1a1.54,1.54,0,1,1,0-3.08h38.5A1.54,1.54,0,0,1,72.146,25.108Zm0,7.7a1.54,1.54,0,0,1-1.54,1.54H32.1a1.54,1.54,0,1,1,0-3.08h38.5A1.54,1.54,0,0,1,72.146,32.808Zm0,7.7a1.54,1.54,0,0,1-1.54,1.54H32.1a1.54,1.54,0,1,1,0-3.08h38.5A1.54,1.54,0,0,1,72.146,40.509Zm0,7.7a1.54,1.54,0,0,1-1.54,1.54H32.1a1.54,1.54,0,1,1,0-3.08h38.5A1.54,1.54,0,0,1,72.146,48.21ZM79.677,6.623a4.626,4.626,0,0,0-4.62-4.617H17.471a3.748,3.748,0,0,0-1.3.11A8.477,8.477,0,0,0,9,10.476V20.487a4.626,4.626,0,0,0,4.62,4.62h9.241V74.392a4.626,4.626,0,0,0,4.62,4.62H40.173a3.11,3.11,0,0,0,1.264,1.922L38.242,89.9a1.558,1.558,0,0,0,1.5,2.057l3.628-.107,2.552,2.295a1.55,1.55,0,0,0,2.48-.627l2.956-8.3,2.956,8.3a1.55,1.55,0,0,0,2.48.627l2.552-2.295,3.628.107a1.558,1.558,0,0,0,1.5-2.057L61.27,80.935a3.111,3.111,0,0,0,1.266-1.922H75.219a4.622,4.622,0,0,0,4.62-4.631ZM13.62,22.027a1.542,1.542,0,0,1-1.54-1.54V10.476a5.391,5.391,0,0,1,10.781,0V22.027ZM43.151,63.7a6.091,6.091,0,0,1,.017-1.623,4.955,4.955,0,0,1,1.655-.051A5.248,5.248,0,0,0,50.1,59.856c.347-.4.994-1.136,1.249-1.175.265.039.911.778,1.258,1.175a5.248,5.248,0,0,0,5.277,2.174,6.052,6.052,0,0,1,1.623.018,5,5,0,0,1,.05,1.656,5.254,5.254,0,0,0,2.174,5.276c.395.345,1.126.986,1.173,1.253-.046.268-.778.909-1.173,1.253a5.254,5.254,0,0,0-2.174,5.276,6.066,6.066,0,0,1-.017,1.624,5.045,5.045,0,0,1-1.656.051,5.246,5.246,0,0,0-5.277,2.173c-.347.4-.993,1.134-1.248,1.173-.265-.039-.911-.778-1.257-1.173a5.236,5.236,0,0,0-5.278-2.173A5.99,5.99,0,0,1,43.2,78.42a5.012,5.012,0,0,1-.05-1.657,5.254,5.254,0,0,0-2.174-5.276c-.4-.346-1.135-.993-1.174-1.248.039-.265.777-.911,1.174-1.257A5.254,5.254,0,0,0,43.151,63.7Zm3.116,26.617-1.3-1.169a1.534,1.534,0,0,0-1.029-.4h-.045l-1.992.059,2.591-7.275c1.5-.142,2.392-.254,3.293,1.1.269.308.563.636.883.946Zm12.549-1.564a1.569,1.569,0,0,0-1.075.4l-1.3,1.169-2.4-6.734c.32-.31.614-.639.883-.946.9-1.353,1.79-1.241,3.293-1.1l2.591,7.275ZM76.309,75.479a1.53,1.53,0,0,1-1.09.453H62.583c-.033-.949.231-1.407,1.177-2.127a4.986,4.986,0,0,0,2.226-3.571,4.986,4.986,0,0,0-2.226-3.572,2.362,2.362,0,0,1-1.127-2.769,4.924,4.924,0,0,0-.932-4,4.928,4.928,0,0,0-4.005-.933,2.363,2.363,0,0,1-2.77-1.128A4.985,4.985,0,0,0,51.354,55.6a4.985,4.985,0,0,0-3.571,2.226,2.364,2.364,0,0,1-2.771,1.128,4.916,4.916,0,0,0-4,.931,4.926,4.926,0,0,0-.933,4.005,2.362,2.362,0,0,1-1.127,2.769,4.985,4.985,0,0,0-2.225,3.572,4.986,4.986,0,0,0,2.226,3.572c.946.72,1.21,1.178,1.177,2.127H27.482a1.542,1.542,0,0,1-1.54-1.54V10.476A8.6,8.6,0,0,0,24,5.086H75.057a1.542,1.542,0,0,1,1.54,1.54v0l.162,67.76a1.529,1.529,0,0,1-.45,1.091Z" transform="translate(-9 -1.99)"/>
    </g>
  </g>
</svg>
