<svg xmlns="http://www.w3.org/2000/svg" width="190" height="169" viewBox="0 0 190 169">
  <g id="Grupo_85439" data-name="Grupo 85439" transform="translate(-390 -7897)">
    <rect id="Rectángulo_36412" data-name="Rectángulo 36412" width="190" height="169" transform="translate(390 7897)" fill="#eecf52"/>
    <g id="Page-1" transform="translate(444 7941.004)">
      <g id="_015---Email" data-name="015---Email" transform="translate(0 -0.004)">
        <g id="Icons" transform="translate(1.317 1.319)">
          <path id="Shape" d="M76.359,26.015,45.46,51.688l-1.409,1.172a9.22,9.22,0,0,1-11.744,0L30.9,51.688,0,26.015l11.849-8.4L26.015,7.584l4.371-3.107c.013,0,.026-.013.039-.013L32.308,3.12a9.182,9.182,0,0,1,11.744,0l6.293,4.463L64.511,17.616Z" transform="translate(0 -0.998)" fill="#fec108"/>
          <path id="Shape-2" data-name="Shape" d="M73.41,28.015l-30.9,25.673-.066.053a9.15,9.15,0,0,1-9.137-1.514L31.9,51.054,1,25.382l11.849-8.4L27.015,6.95l4.371-3.107c.013,0,.026-.013.039-.013A9.163,9.163,0,0,1,41.1,5.12l6.293,4.463L61.561,19.615Z" transform="translate(0.317 -0.364)" fill="#ffdc00"/>
          <path id="Shape-3" data-name="Shape" d="M61.662,7.317V61.3H9V7.317A1.4,1.4,0,0,1,10.461,6H60.2A1.4,1.4,0,0,1,61.662,7.317Z" transform="translate(2.849 0.586)" fill="#cfd8dc"/>
          <path id="Shape-4" data-name="Shape" d="M57.712,7.317V61.3H9V7.317A1.4,1.4,0,0,1,10.461,6H56.251A1.4,1.4,0,0,1,57.712,7.317Z" transform="translate(2.849 0.586)" fill="#f5f5f5"/>
          <path id="Shape-5" data-name="Shape" d="M76.359,20V68.712a2.576,2.576,0,0,1-.856,1.922,2.542,2.542,0,0,1-1.777.711H2.633a2.542,2.542,0,0,1-1.777-.711A2.576,2.576,0,0,1,0,68.712V20L30.9,45.673l1.409,1.172a9.226,9.226,0,0,0,11.744,0l1.409-1.172L72.41,23.278Z" transform="translate(0 5.018)" fill="#f57c00"/>
          <path id="Shape-6" data-name="Shape" d="M72.41,23.595V69.029a2.576,2.576,0,0,1-.856,1.922,2.542,2.542,0,0,1-1.777.711H2.633a2.542,2.542,0,0,1-1.777-.711A2.576,2.576,0,0,1,0,69.029V19L26.95,42.843l1.409,1.172c2.251,1.869,5.161,4.333,7.847,3.727,2.686.606,5.6,1.289,7.847-.581l1.409-1.172Z" transform="translate(0 4.701)" fill="#ff9801"/>
          <path id="Shape-7" data-name="Shape" d="M75.3,64.462a2.542,2.542,0,0,1-1.777.711H2.427A2.542,2.542,0,0,1,.65,64.462l28.1-23.342L30.694,39.5,32.1,40.672a9.223,9.223,0,0,0,11.151.448c.2-.145.395-.29.592-.448L45.254,39.5Z" transform="translate(0.206 11.19)" fill="#d84315"/>
          <path id="Shape-8" data-name="Shape" d="M71.348,64.072a2.542,2.542,0,0,1-1.777.711H2.427A2.542,2.542,0,0,1,.65,64.072l28.1-23.342A9.124,9.124,0,0,0,36,42.178a9.124,9.124,0,0,0,7.254-1.448Z" transform="translate(0.206 11.58)" fill="#eecf52"/>
        </g>
        <g id="Layer_10">
          <path id="Shape-9" data-name="Shape" d="M35.493,42.284a29.112,29.112,0,0,1-8.7-1.371,13.151,13.151,0,0,1-8.736-9.958c-.991-4.774.815-9.823,4.955-13.85q.666-.649,1.385-1.243a16.78,16.78,0,0,1,15.278-3.3,12.792,12.792,0,0,1,8.9,11.765A12.12,12.12,0,0,1,45.743,32.9a6.659,6.659,0,0,1-6.512,2.391,3.761,3.761,0,0,1-2.419-1.679,3.574,3.574,0,0,1-.347-2.778C37.616,26.478,38.787,19.864,38.8,19.8a1.317,1.317,0,0,1,2.594.458c-.049.275-1.2,6.79-2.381,11.248a.95.95,0,0,0,.058.749,1.172,1.172,0,0,0,.764.471,4.089,4.089,0,0,0,3.93-1.561,9.477,9.477,0,0,0,2.185-6.7A10.184,10.184,0,0,0,38.9,15.077a14.089,14.089,0,0,0-12.815,2.811c-.423.351-.834.719-1.229,1.1-2.047,1.991-5.315,6.122-4.214,11.428A10.661,10.661,0,0,0,27.6,38.4c6.175,1.97,15.047,2.207,19.722-3.606a1.317,1.317,0,0,1,2.052,1.649c-3.457,4.3-8.717,5.837-13.878,5.837Z" transform="translate(5.633 2.471)"/>
          <path id="Shape-10" data-name="Shape" d="M29.286,33.871a6.054,6.054,0,0,1-3.844-1.292c-2.527-2.022-2.6-5.536-1.888-7.928a12.062,12.062,0,0,1,.956-2.3,10.793,10.793,0,0,1,4.522-4.693,6.225,6.225,0,0,1,7.324,1.18,9.854,9.854,0,0,1,2.1,3.615,1.317,1.317,0,0,1-2.48.883,7.345,7.345,0,0,0-1.522-2.68,3.564,3.564,0,0,0-4.257-.636,8.253,8.253,0,0,0-3.377,3.6,9.427,9.427,0,0,0-.742,1.785c-.512,1.731-.4,3.989,1.013,5.12,1.543,1.239,4.147.715,5.612-.548a14.682,14.682,0,0,0,2.783-3.385,1.317,1.317,0,1,1,2.237,1.388,17.283,17.283,0,0,1-3.294,3.986,8.089,8.089,0,0,1-5.141,1.906Z" transform="translate(7.333 4.058)"/>
          <path id="Shape-11" data-name="Shape" d="M75.043,73.978H3.95A3.954,3.954,0,0,1,0,70.029V21.317A1.317,1.317,0,0,1,2.158,20.3l32.3,26.848a7.905,7.905,0,0,0,10.07,0L76.833,20.3a1.317,1.317,0,0,1,2.159,1.012V70.029A3.954,3.954,0,0,1,75.043,73.978ZM2.633,24.123V70.029A1.318,1.318,0,0,0,3.95,71.345H75.043a1.318,1.318,0,0,0,1.317-1.317V24.123L46.213,49.176a10.545,10.545,0,0,1-13.432,0Z" transform="translate(0 5.02)"/>
          <path id="Shape-12" data-name="Shape" d="M1.318,24.651A1.317,1.317,0,0,1,.555,22.26l11.849-8.4a1.317,1.317,0,0,1,1.522,2.148l-11.849,8.4a1.309,1.309,0,0,1-.76.242Z" transform="translate(0 3.002)"/>
          <path id="Shape-13" data-name="Shape" d="M62.161,24.651a1.309,1.309,0,0,1-.76-.242l-11.849-8.4a1.317,1.317,0,0,1,1.522-2.148l11.849,8.4a1.317,1.317,0,0,1-.762,2.391Z" transform="translate(15.513 3.002)"/>
          <path id="Shape-14" data-name="Shape" d="M45.405,10.217a1.312,1.312,0,0,1-.761-.242L38.352,5.512a7.912,7.912,0,0,0-10.141-.061L21.839,9.975a1.317,1.317,0,1,1-1.524-2.148l6.293-4.463a10.484,10.484,0,0,1,13.346.06l6.214,4.4a1.317,1.317,0,0,1-.763,2.391Z" transform="translate(6.255 -0.996)"/>
          <path id="Shape-15" data-name="Shape" d="M1.967,67.1a1.317,1.317,0,0,1-.843-2.329L31.168,39.806a1.317,1.317,0,1,1,1.683,2.025L2.807,66.793a1.312,1.312,0,0,1-.84.3Z" transform="translate(0.205 11.19)"/>
          <path id="Shape-16" data-name="Shape" d="M65.891,67.1a1.309,1.309,0,0,1-.84-.3L35.008,41.831a1.317,1.317,0,1,1,1.683-2.025L66.734,64.768a1.317,1.317,0,0,1-.843,2.329Z" transform="translate(10.927 11.19)"/>
          <path id="Shape-17" data-name="Shape" d="M62.978,36.913A1.317,1.317,0,0,1,61.662,35.6V8.644c0,.028-.057-.01-.145-.01H11.778a.213.213,0,0,0-.158.057L11.633,35.6A1.317,1.317,0,0,1,9,35.6V8.633A2.711,2.711,0,0,1,11.778,6H61.517a2.711,2.711,0,0,1,2.778,2.633V35.6A1.317,1.317,0,0,1,62.978,36.913Z" transform="translate(2.849 0.588)"/>
        </g>
      </g>
    </g>
  </g>
</svg>
