<svg xmlns="http://www.w3.org/2000/svg" width="122" height="122" viewBox="0 0 122 122">
  <g id="Grupo_85449" data-name="Grupo 85449" transform="translate(-739 -1841)">
    <circle id="Elipse_4813" data-name="Elipse 4813" cx="61" cy="61" r="61" transform="translate(739 1841)" fill="#13b770"/>
    <path id="Trazado_119102" data-name="Trazado 119102" d="M25.175,0H2.272V-4.544L13.081-16.064a26.666,26.666,0,0,0,3.293-4.246,6.821,6.821,0,0,0,1.067-3.442,5.1,5.1,0,0,0-1.125-3.5A4.059,4.059,0,0,0,13.1-28.526a4.378,4.378,0,0,0-3.546,1.549,6.136,6.136,0,0,0-1.3,4.073H1.606A10.954,10.954,0,0,1,3.064-28.48a10.271,10.271,0,0,1,4.119-3.959,12.521,12.521,0,0,1,6.036-1.434q5.164,0,8.021,2.479a8.769,8.769,0,0,1,2.857,7,11.235,11.235,0,0,1-1.285,5.049,28.057,28.057,0,0,1-4.406,5.99l-7.6,8.009H25.175Z" transform="translate(787 1919)" fill="#fff"/>
  </g>
</svg>
