<svg xmlns="http://www.w3.org/2000/svg" width="86.025" height="85.188" viewBox="0 0 86.025 85.188">
  <g id="Grupo_85449" data-name="Grupo 85449" transform="translate(-1282 -7939)">
    <g id="Grupo_85423" data-name="Grupo 85423" transform="translate(1283.259 7957.772)">
      <path id="Trazado_119065" data-name="Trazado 119065" d="M23.118,114.222C18,115.945,12.925,117.653,8.064,119.4a.867.867,0,0,0-.522,1.1l10.992,30.556,9.978,27.752a.861.861,0,0,0,1.1.517l12.882-4.632,29.354-10.551Z" transform="translate(-7.493 -114.222)" fill="#b5c4cf" fill-rule="evenodd"/>
    </g>
    <g id="Grupo_85425" data-name="Grupo 85425" transform="translate(1314.054 7940.26)">
      <path id="Trazado_119067" data-name="Trazado 119067" d="M243.489,61.074V20.589c0-.258-.11-.3-.507-.689l-9.815-9.359c-.464-.44-.541-.55-.814-.55H191.673a.9.9,0,0,0-.895.895V75.528a.9.9,0,0,0,.895.9h50.921a.9.9,0,0,0,.895-.9Z" transform="translate(-190.778 -9.991)" fill="#edf3f4" fill-rule="evenodd"/>
    </g>
    <g id="Grupo_85427" data-name="Grupo 85427" transform="translate(1295.18 7957.772)">
      <path id="Trazado_119069" data-name="Trazado 119069" d="M86.73,140.916l-4.58-26.694q-1.859.625-3.7,1.249l.569,3.316,4.58,26.694,4.986,29.068a.864.864,0,0,0,.991.7l13.495-2.316,6.4-1.1,19.285-6.938-.23-.359-11.131,1.909L106.2,168.372l-13.495,2.316a.872.872,0,0,1-1-.7Z" transform="translate(-78.446 -114.222)" fill="#9aafb7" fill-rule="evenodd"/>
    </g>
    <path id="Trazado_119073" data-name="Trazado 119073" d="M85.317,12.931,75.161,3.247a2.06,2.06,0,0,0-1.532-.754H32.949a2.157,2.157,0,0,0-2.155,2.155v6.617L16.456,13.723a2.124,2.124,0,0,0-1.723,2.45l.728,4.243C10.8,21.983,6.016,23.6,1.4,25.259A2.133,2.133,0,0,0,.122,27.97L9.31,53.511a1.26,1.26,0,0,0,2.372-.853L2.629,27.494c4.352-1.558,8.858-3.083,13.263-4.565l4.33,25.244L25.2,77.245a2.134,2.134,0,0,0,2.45,1.728l13.495-2.316L51.693,74.85l-15.859,5.7-12.506,4.5L13.615,58.031a1.26,1.26,0,1,0-2.372.853l9.851,27.4a2.128,2.128,0,0,0,1.994,1.4,2.085,2.085,0,0,0,.716-.127l12.882-4.632L65.937,72.408l5.588-.958H83.87a2.16,2.16,0,0,0,2.155-2.16V14.351a1.813,1.813,0,0,0-.708-1.42Zm-3.339.3H75.516c-.3,0-1.009.007-1.188-.171a.71.71,0,0,1-.09-.434l-.015-6.79ZM83.5,68.93H33.314V44.371a1.26,1.26,0,0,0-2.52,0V69.29a2.16,2.16,0,0,0,2.155,2.16H56.608L40.723,74.173l-13.1,2.249L22.706,47.747,17.284,16.138l13.509-2.316v24.7a1.26,1.26,0,1,0,2.52,0V5.013H71.7l.016,7.616a3,3,0,0,0,.834,2.22,3.854,3.854,0,0,0,2.8.9H83.5Z" transform="translate(1282 7936.507)"/>
    <g id="Grupo_85431" data-name="Grupo 85431" transform="translate(1321.388 7957.307)">
      <path id="Trazado_119074" data-name="Trazado 119074" d="M271.719,113.969H235.69a1.26,1.26,0,1,1,0-2.52h36.029a1.26,1.26,0,1,1,0,2.52Z" transform="translate(-234.43 -111.449)"/>
    </g>
    <g id="Grupo_85432" data-name="Grupo 85432" transform="translate(1321.388 7966.259)">
      <path id="Trazado_119075" data-name="Trazado 119075" d="M271.719,167.251H235.69a1.26,1.26,0,1,1,0-2.52h36.029a1.26,1.26,0,1,1,0,2.52Z" transform="translate(-234.43 -164.731)"/>
    </g>
    <g id="Grupo_85433" data-name="Grupo 85433" transform="translate(1321.388 7975.211)">
      <path id="Trazado_119076" data-name="Trazado 119076" d="M271.719,220.534H235.69a1.26,1.26,0,1,1,0-2.52h36.029a1.26,1.26,0,1,1,0,2.52Z" transform="translate(-234.43 -218.014)"/>
    </g>
    <g id="Grupo_85434" data-name="Grupo 85434" transform="translate(1321.388 7984.164)">
      <path id="Trazado_119077" data-name="Trazado 119077" d="M271.719,273.816H235.69a1.26,1.26,0,1,1,0-2.52h36.029a1.26,1.26,0,1,1,0,2.52Z" transform="translate(-234.43 -271.296)"/>
    </g>
    <g id="Grupo_85435" data-name="Grupo 85435" transform="translate(1321.388 7993.115)">
      <path id="Trazado_119078" data-name="Trazado 119078" d="M271.719,327.1H235.69a1.26,1.26,0,1,1,0-2.52h36.029a1.26,1.26,0,1,1,0,2.52Z" transform="translate(-234.43 -324.578)"/>
    </g>
  </g>
</svg>
