<svg xmlns="http://www.w3.org/2000/svg" width="60.457" height="82.298" viewBox="0 0 60.457 82.298">
  <g id="papel-reciclado" transform="translate(-67.941)">
    <g id="Grupo_85418" data-name="Grupo 85418" transform="translate(69.206 1.286)">
      <path id="Trazado_119034" data-name="Trazado 119034" d="M75.809,9.607A1.607,1.607,0,0,1,77.416,8H118.8l14.939,14.939V86.119a1.607,1.607,0,0,1-1.607,1.607H77.416a1.607,1.607,0,0,1-1.607-1.607Z" transform="translate(-75.809 -8)" fill="#ffe9c8"/>
      <path id="Trazado_119035" data-name="Trazado 119035" d="M132.129,477.607H77.416A1.607,1.607,0,0,1,75.809,476v2.893a1.607,1.607,0,0,0,1.607,1.607h54.713a1.607,1.607,0,0,0,1.607-1.607V476A1.607,1.607,0,0,1,132.129,477.607Z" transform="translate(-75.809 -400.774)" fill="#ffdca7"/>
      <path id="Trazado_119036" data-name="Trazado 119036" d="M346.469,25.832h11.724V22.939L343.254,8V22.617A3.215,3.215,0,0,0,346.469,25.832Z" transform="translate(-300.265 -8)" fill="#ffdca7"/>
      <path id="Trazado_119037" data-name="Trazado 119037" d="M346.469,22.939h11.724L343.254,8V19.724A3.215,3.215,0,0,0,346.469,22.939Z" transform="translate(-300.265 -8)" fill="#8c808a"/>
      <path id="Trazado_119038" data-name="Trazado 119038" d="M346.469,66.152a3.215,3.215,0,0,1-3.215-3.215V65.83a3.215,3.215,0,0,0,3.215,3.215h11.724L355.3,66.152Z" transform="translate(-300.265 -54.106)" fill="#7b7179"/>
      <path id="Trazado_119039" data-name="Trazado 119039" d="M308.619,257.671l-7.15-12.121-5.83,3.435,5.117,8.674Z" transform="translate(-260.303 -207.366)" fill="#71aa52"/>
      <path id="Trazado_119040" data-name="Trazado 119040" d="M318.553,305.771l7.864.011-1.708-2.9-7.864-.011Z" transform="translate(-278.101 -255.477)" fill="#68994b"/>
      <path id="Trazado_119041" data-name="Trazado 119041" d="M159.628,327.513l14.073,0v-6.768l-10.071,0Z" transform="translate(-146.155 -270.471)" fill="#71aa52"/>
      <path id="Trazado_119042" data-name="Trazado 119042" d="M194.65,156.247l-6.988,12.215,5.873,3.363,5-8.742Z" transform="translate(-169.683 -132.418)" fill="#71aa52"/>
      <path id="Trazado_119043" data-name="Trazado 119043" d="M275.223,311.787l0-1.736-4.571,5.111,4.557,5.129,0-1.736,8.569.012,3.868-6.763Z" transform="translate(-239.335 -261.5)" fill="#aee295"/>
      <path id="Trazado_119044" data-name="Trazado 119044" d="M145.793,266.823l1.494.884-2.082-6.533-6.732,1.321,1.494.883-4.361,7.376,3.861,6.767Z" transform="translate(-125.994 -220.478)" fill="#aee295"/>
      <path id="Trazado_119045" data-name="Trazado 119045" d="M166.525,320.756h-2.894l-4,6.769h2.894Z" transform="translate(-146.155 -270.484)" fill="#68994b"/>
      <path id="Trazado_119046" data-name="Trazado 119046" d="M237.275,167.052l-1.509.858,6.7,1.44,2.2-6.5-1.509.858-4.234-7.449-7.791-.011Z" transform="translate(-206.167 -132.418)" fill="#aee295"/>
      <path id="Trazado_119047" data-name="Trazado 119047" d="M222.1,158.805l3.886,6.837,1.451-2.537-3.884-6.833h0Z" transform="translate(-198.589 -132.439)" fill="#68994b"/>
    </g>
    <g id="Grupo_85419" data-name="Grupo 85419" transform="translate(67.941 0)">
      <path id="Trazado_119048" data-name="Trazado 119048" d="M69.15,13.23a1.208,1.208,0,0,0,1.208-1.208v-9.2a.4.4,0,0,1,.4-.4h40.255V12.955a4.434,4.434,0,0,0,4.429,4.429h10.539V63.713a1.208,1.208,0,1,0,2.416,0s0-47.617-.006-47.657a1.227,1.227,0,0,0-.348-.733L113.077.354A1.2,1.2,0,0,0,112.223,0H70.76a2.822,2.822,0,0,0-2.818,2.818v9.2A1.208,1.208,0,0,0,69.15,13.23Zm44.281-9.106,10.844,10.844h-8.831a2.015,2.015,0,0,1-2.013-2.013Z" transform="translate(-67.942 0)"/>
      <path id="Trazado_119049" data-name="Trazado 119049" d="M127.19,149.025a1.208,1.208,0,0,0-1.208,1.208v10.936a.4.4,0,0,1-.4.4H70.76a.4.4,0,0,1-.4-.4V98.542a1.208,1.208,0,1,0-2.416,0v62.627a2.822,2.822,0,0,0,2.818,2.818h54.82a2.822,2.822,0,0,0,2.818-2.818V150.233A1.208,1.208,0,0,0,127.19,149.025Z" transform="translate(-67.941 -81.689)"/>
      <path id="Trazado_119050" data-name="Trazado 119050" d="M268.039,260.672a1.222,1.222,0,0,0,2.111-.8v-.531l7.377.01a1.2,1.2,0,0,0,1.05-.608l3.863-6.753h0a1.219,1.219,0,0,0,.133-.923,1.311,1.311,0,0,0-.129-.312l-7.164-12.145a1.208,1.208,0,0,0-1.654-.427l-5.842,3.442a1.238,1.238,0,0,0-.427,1.655l4.051,6.867-1.247,0v-.531a1.208,1.208,0,0,0-2.108-.807l-4.58,5.121a1.208,1.208,0,0,0,0,1.608Zm2.015-17.58,3.76-2.216,5.474,9.28-5.072-.007Zm-1.868,9.191a1.2,1.2,0,0,0,.766.275l10.373.014-2.5,4.362-7.884-.011h0a1.2,1.2,0,0,0-.764.272l-2.187-2.461Z" transform="translate(-231.787 -199.756)"/>
      <path id="Trazado_119051" data-name="Trazado 119051" d="M142.895,270.042a1.208,1.208,0,0,0,0,2.416h4.138a1.208,1.208,0,0,0,1.208-1.208v-6.781a1.251,1.251,0,0,0-1.208-1.208l-7.973,0,.635-1.073.457.27a1.221,1.221,0,0,0,1.766-1.406l-2.086-6.546a1.208,1.208,0,0,0-1.384-.819l-6.746,1.324a1.208,1.208,0,0,0-.382,2.225l.457.271-3.755,6.35a1.208,1.208,0,0,0-.009,1.213l3.855,6.756a1.226,1.226,0,0,0,1.063.633l5.131,0a1.208,1.208,0,0,0,0-2.416H135.05l2.581-4.366,8.194,0v4.365Zm-4.664-10.122-5.28,8.929-2.49-4.364,4.013-6.786a1.2,1.2,0,0,0,.154-.8l3.23-.634,1,3.133a1.209,1.209,0,0,0-.626.52Z" transform="translate(-118.225 -212.892)"/>
      <path id="Trazado_119052" data-name="Trazado 119052" d="M192.61,162.612l6.717,1.442a1.274,1.274,0,0,0,1.4-.794l2.2-6.512a1.208,1.208,0,0,0-1.741-1.437l-.462.263-3.646-6.414a1.208,1.208,0,0,0-1.049-.611l-7.806-.011a1.207,1.207,0,0,0-1.05.608l-7,12.239a1.207,1.207,0,0,0,.448,1.648l5.884,3.37a1.238,1.238,0,0,0,1.649-.448l3.959-6.92.616,1.084-.462.262A1.23,1.23,0,0,0,192.61,162.612Zm-5.953,1.094-3.788-2.169,5.35-9.352,2.506,4.41Zm3.643-12.75,5.025.007,3.9,6.854a1.208,1.208,0,0,0,.615.53l-1.055,3.118-3.215-.691a1.2,1.2,0,0,0-.14-.8Z" transform="translate(-161.999 -124.662)"/>
    </g>
  </g>
</svg>
