<svg xmlns="http://www.w3.org/2000/svg" width="122" height="122" viewBox="0 0 122 122">
  <g id="Grupo_85372" data-name="Grupo 85372" transform="translate(-389 -2188)">
    <circle id="Elipse_4800" data-name="Elipse 4800" cx="61" cy="61" r="61" transform="translate(389 2188)" fill="#eecf52"/>
    <g id="buscar-datos" transform="translate(414.632 2210.316)">
      <g id="Grupo_85329" data-name="Grupo 85329" transform="translate(2.51 2.502)">
        <g id="Grupo_85324" data-name="Grupo 85324" transform="translate(0.005 9.92)">
          <path id="Trazado_118367" data-name="Trazado 118367" d="M47.445,8.578v36.7c0,5.477-10.177,9.917-22.72,9.917s-22.72-4.44-22.72-9.917V8.578Z" transform="translate(-2.005 -8.578)" fill="#e1e1e1"/>
        </g>
        <g id="Grupo_85325" data-name="Grupo 85325" transform="translate(0.454 34.382)" opacity="0.07">
          <path id="Trazado_118368" data-name="Trazado 118368" d="M47.294,24.806V37.043c0,5.477-10.176,9.917-22.719,9.917C13.562,46.96,4.388,43.545,2.3,39c4.122,2.485,10.835,4.11,18.42,4.11,12.543,0,22.719-4.44,22.719-9.917v-2.85c2.426-1.59,3.851-3.486,3.851-5.536Z" transform="translate(-2.303 -24.806)"/>
        </g>
        <g id="Grupo_85326" data-name="Grupo 85326" transform="translate(0.454 22.151)" opacity="0.07">
          <path id="Trazado_118369" data-name="Trazado 118369" d="M47.294,16.692V28.929c0,5.477-10.176,9.917-22.719,9.917-11.012,0-20.187-3.415-22.272-7.962,4.122,2.485,10.835,4.11,18.42,4.11,12.543,0,22.719-4.44,22.719-9.917v-2.85c2.426-1.59,3.851-3.486,3.851-5.535Z" transform="translate(-2.303 -16.692)"/>
        </g>
        <g id="Grupo_85327" data-name="Grupo 85327" transform="translate(0.454 9.92)" opacity="0.07">
          <path id="Trazado_118370" data-name="Trazado 118370" d="M47.294,8.578V20.815c0,5.477-10.176,9.917-22.719,9.917-11.012,0-20.187-3.415-22.272-7.962,4.122,2.485,10.835,4.11,18.42,4.11,12.543,0,22.719-4.44,22.719-9.917v-2.85c2.426-1.59,3.851-3.486,3.851-5.536Z" transform="translate(-2.303 -8.578)"/>
        </g>
        <ellipse id="Elipse_4807" data-name="Elipse 4807" cx="22.721" cy="9.917" rx="22.721" ry="9.917" transform="translate(0 0)" fill="#13b770"/>
        <g id="Grupo_85328" data-name="Grupo 85328" transform="translate(0.572 4.29)" opacity="0.07">
          <path id="Trazado_118371" data-name="Trazado 118371" d="M47.254,10.473c0,5.477-10.176,9.917-22.719,9.917-10.824,0-19.869-3.3-22.154-7.726,4.1,2.591,10.953,4.287,18.715,4.287,12.543,0,22.719-4.44,22.719-9.917a4.6,4.6,0,0,0-.565-2.191C45.77,6.445,47.254,8.388,47.254,10.473Z" transform="translate(-2.381 -4.843)"/>
        </g>
      </g>
      <g id="Grupo_85335" data-name="Grupo 85335" transform="translate(25.231 25.225)">
        <g id="Grupo_85334" data-name="Grupo 85334">
          <g id="Grupo_85333" data-name="Grupo 85333" transform="translate(23.632 23.636)">
            <g id="Grupo_85330" data-name="Grupo 85330" transform="translate(6.147 6.139)">
              <path id="Trazado_118372" data-name="Trazado 118372" d="M55.154,48.91a4.423,4.423,0,1,1-6.238,6.238L36.831,41.159l4.334-4.334Z" transform="translate(-36.831 -36.825)" fill="#eecf52"/>
            </g>
            <g id="Grupo_85331" data-name="Grupo 85331" transform="translate(8.67 6.141)" opacity="0.05">
              <path id="Trazado_118373" data-name="Trazado 118373" d="M54.542,55.387a4.3,4.3,0,0,1-2.254,1.2,4.413,4.413,0,0,0-.352-6.339L38.5,38.635l1.81-1.81L54.3,48.914a4.428,4.428,0,0,1,.238,6.473Z" transform="translate(-38.504 -36.826)"/>
            </g>
            <g id="Grupo_85332" data-name="Grupo 85332">
              <path id="Trazado_118374" data-name="Trazado 118374" d="M41.182,32.752l7.465,7.465a1.314,1.314,0,0,1,0,1.866l-6.552,6.553a1.327,1.327,0,0,1-1.877.01l-7.465-7.465Z" transform="translate(-32.753 -32.752)" fill="#70c392"/>
            </g>
          </g>
          <path id="Trazado_118375" data-name="Trazado 118375" d="M49.554,22.645a19.028,19.028,0,1,0,0,26.9A19.016,19.016,0,0,0,49.554,22.645Z" transform="translate(-17.075 -17.071)" fill="#fff"/>
        </g>
      </g>
      <g id="Grupo_85339" data-name="Grupo 85339" transform="translate(1 1.001)">
        <g id="Grupo_85337" data-name="Grupo 85337" transform="translate(31.597 31.588)">
          <circle id="Elipse_4808" data-name="Elipse 4808" cx="11.659" cy="11.659" r="11.659" fill="#eecf52"/>
          <g id="Grupo_85336" data-name="Grupo 85336" transform="translate(2.232 2.208)" opacity="0.07">
            <path id="Trazado_118376" data-name="Trazado 118376" d="M44.531,32.873a11.656,11.656,0,0,1-21.088,6.858,11.658,11.658,0,0,0,16.265-16.31,11.632,11.632,0,0,1,4.823,9.451Z" transform="translate(-23.443 -23.422)" fill="#eecf52"/>
          </g>
        </g>
        <g id="Grupo_85338" data-name="Grupo 85338">
          <path id="Trazado_118377" data-name="Trazado 118377" d="M74.318,65.938l-8.185-7.07a2.8,2.8,0,0,0-.317-3.6l-2.774-2.789a20.554,20.554,0,0,0-4.266-22.746A20.326,20.326,0,0,0,49.462,24.4V12.427c0-.03-.015-.045-.015-.075C49.386,5.975,38.775,1,25.223,1,11.642,1,1,6.02,1,12.412a.055.055,0,0,0,.015.045v12.18A.015.015,0,0,0,1,24.651a.055.055,0,0,0,.015.045V49.116c0,6.406,10.642,11.426,24.223,11.426A52.033,52.033,0,0,0,31.3,60.2a20.5,20.5,0,0,0,21.194,2.864l2.774,2.759a2.745,2.745,0,0,0,1.99.829,2.82,2.82,0,0,0,1.628-.513l7.07,8.17a5.931,5.931,0,1,0,8.366-8.366ZM29.745,29.731a21.152,21.152,0,0,0-2.683,3.286c-.6.03-1.221.045-1.839.045-12.466,0-21.148-4.4-21.194-8.381V18.019c4.085,3.5,11.953,5.818,21.194,5.818,9.255,0,17.139-2.321,21.224-5.833v5.833a20.439,20.439,0,0,0-16.7,5.894ZM23.761,45.257C12.064,44.941,4.03,40.7,4.03,36.891V30.244c4.085,3.512,11.953,5.834,21.194,5.834h.211a20.576,20.576,0,0,0-1.673,9.18ZM25.223,4.016c12.511,0,21.224,4.432,21.224,8.4,0,3.979-8.713,8.411-21.224,8.411-12.5,0-21.209-4.432-21.209-8.411C4.015,8.447,12.727,4.016,25.223,4.016Zm.015,53.511C12.727,57.527,4.03,53.1,4.03,49.116V42.468c3.919,3.377,11.32,5.638,20.093,5.819a20.271,20.271,0,0,0,4.371,9.12C27.439,57.482,26.369,57.527,25.238,57.527Zm6.632-.889a17.512,17.512,0,1,1,24.781,0,17.531,17.531,0,0,1-24.781,0Zm25.384,6.919-1.99-1.99a20.055,20.055,0,0,0,3.512-2.8,19.728,19.728,0,0,0,2.789-3.5l1.99,1.99ZM72.509,72.5a3,3,0,0,1-4.266-.151l-7.19-8.321,2.985-2.985,8.306,7.19A2.919,2.919,0,0,1,72.509,72.5Z" transform="translate(-1 -1.001)" fill="#293c66"/>
          <path id="Trazado_118378" data-name="Trazado 118378" d="M47.294,34.12A13.167,13.167,0,1,0,34.134,47.295,13.172,13.172,0,0,0,47.294,34.12Zm-23.319,0a10.152,10.152,0,1,1,10.16,10.16A10.161,10.161,0,0,1,23.975,34.12Z" transform="translate(9.127 9.126)" fill="#293c66"/>
          <path id="Trazado_118379" data-name="Trazado 118379" d="M39.162,27a1.507,1.507,0,0,0-2.126-.155L28.989,33.8l-1.6-1.6a1.507,1.507,0,0,0-2.132,2.132l2.589,2.59A1.507,1.507,0,0,0,29.9,37l9.107-7.869A1.508,1.508,0,0,0,39.162,27Z" transform="translate(11.084 11.927)" fill="#293c66"/>
        </g>
      </g>
    </g>
  </g>
</svg>
