<svg xmlns="http://www.w3.org/2000/svg" width="1025" height="677.249" viewBox="0 0 1025 677.249"><g transform="translate(-290 -778.751)"><path d="M169.581,178.235A198.9,198.9,0,0,1,139.038,72" transform="translate(460.807 850.187)" fill="none" stroke="#79dfef" stroke-miterlimit="10" stroke-width="2"/><path d="M243.038,202a200.642,200.642,0,0,1-88.668-76.674" transform="translate(476.017 903.092)" fill="none" stroke="#eecf52" stroke-miterlimit="10" stroke-width="3"/><path d="M361.222,163.574A199.141,199.141,0,0,1,279.5,180.991,199.132,199.132,0,0,1,198.88,164.06" transform="translate(520.176 941.034)" fill="none" stroke="#05339e" stroke-miterlimit="10" stroke-width="6"/><path d="M366.376,126.565a200.634,200.634,0,0,1-86,73.726" transform="translate(601.025 904.318)" fill="none" stroke="#13b770" stroke-miterlimit="10" stroke-width="5"/><path d="M355.662,72A198.916,198.916,0,0,1,323.545,180.7" transform="translate(643.856 850.187)" fill="none" stroke="#1a1a52" stroke-miterlimit="10" stroke-width="1"/><path d="M344.946,73.784a3.531,3.531,0,1,1-3.532-3.532,3.532,3.532,0,0,1,3.532,3.532" transform="translate(658.082 848.45)" fill="#fff"/><path d="M344.946,73.784a3.531,3.531,0,1,1-3.532-3.532A3.532,3.532,0,0,1,344.946,73.784Z" transform="translate(658.082 848.45)" fill="none" stroke="#673bb6" stroke-miterlimit="10" stroke-width="1"/><path d="M146.823,74.631A5.233,5.233,0,1,1,141.59,69.4a5.233,5.233,0,0,1,5.233,5.233" transform="translate(458.147 847.603)" fill="#fe9700"/><path d="M334.241,130.127A7.124,7.124,0,1,1,327.118,123a7.124,7.124,0,0,1,7.124,7.124" transform="translate(640.333 900.784)" fill="#fff"/><circle cx="7.124" cy="7.124" r="7.124" transform="translate(960.326 1023.787)" fill="none" stroke="#eb407a" stroke-miterlimit="10" stroke-width="1"/><path d="M164.224,130.065a5.983,5.983,0,1,1-5.982-5.982,5.982,5.982,0,0,1,5.982,5.982" transform="translate(473.921 901.855)" fill="#fff"/><path d="M164.224,130.065a5.983,5.983,0,1,1-5.982-5.982A5.982,5.982,0,0,1,164.224,130.065Z" transform="translate(473.921 901.855)" fill="none" stroke="#fe9700" stroke-miterlimit="10" stroke-width="1.5"/><path d="M293.978,168.046A8.975,8.975,0,1,1,285,159.072a8.974,8.974,0,0,1,8.974,8.974" transform="translate(596.713 936.568)" fill="#fff"/><path d="M293.978,168.046A8.975,8.975,0,1,1,285,159.072,8.974,8.974,0,0,1,293.978,168.046Z" transform="translate(596.713 936.568)" fill="none" stroke="#42a4f5" stroke-miterlimit="10" stroke-width="1.26"/><path d="M209.855,167.207a7.29,7.29,0,1,1-7.289-7.289,7.29,7.29,0,0,1,7.289,7.289" transform="translate(516.599 937.407)" fill="#fff"/><path d="M209.855,167.207a7.29,7.29,0,1,1-7.289-7.289A7.29,7.29,0,0,1,209.855,167.207Z" transform="translate(516.599 937.407)" fill="none" stroke="#25c5d9" stroke-miterlimit="10" stroke-width="1.624"/><path d="M310.47,211.706a265.412,265.412,0,0,1-57.749-6.329A22.591,22.591,0,0,0,226.649,219.8L169.037,378.7a22.623,22.623,0,0,0,15.21,29.553A478.456,478.456,0,0,0,310.47,425.117a478.44,478.44,0,0,0,126.221-16.861A22.623,22.623,0,0,0,451.9,378.7L394.288,219.8a22.588,22.588,0,0,0-26.071-14.425,265.527,265.527,0,0,1-57.747,6.327" transform="translate(489.212 981.976)" fill="#d8dbe8"/><path d="M198.775,160.492,56.616,251.826a22.678,22.678,0,0,0-5.755,32.848,480.059,480.059,0,0,0,181.12,144.744,22.679,22.679,0,0,0,30.77-12.879l57.611-158.9A22.72,22.72,0,0,0,309.34,229.73a265.972,265.972,0,0,1-80.891-64.652,22.728,22.728,0,0,0-29.674-4.586" transform="translate(368.7 934.425)" fill="#d8dbe8"/><path d="M295.556,257.641l57.611,158.9a22.68,22.68,0,0,0,30.77,12.881,480.083,480.083,0,0,0,181.12-144.746,22.674,22.674,0,0,0-5.755-32.848L417.146,160.492a22.733,22.733,0,0,0-29.676,4.586,265.941,265.941,0,0,1-80.891,64.652,22.723,22.723,0,0,0-11.022,27.911" transform="translate(614.743 934.425)" fill="#d8dbe8"/><path d="M383.878,102.372a263.034,263.034,0,0,1-23.172,79.072,22.753,22.753,0,0,0,8.138,28.959l142.17,91.344a22.653,22.653,0,0,0,32.214-8.325,475.306,475.306,0,0,0,54.685-186.474,22.675,22.675,0,0,0-22.6-24.479H406.363a22.712,22.712,0,0,0-22.485,19.9" transform="translate(678.508 860.57)" fill="#d8dbe8"/><path d="M191.626,82.469H22.676a22.677,22.677,0,0,0-22.6,24.479A475.288,475.288,0,0,0,54.759,293.422a22.651,22.651,0,0,0,32.214,8.323L229.143,210.4a22.756,22.756,0,0,0,8.14-28.959,263.033,263.033,0,0,1-23.172-79.072,22.714,22.714,0,0,0-22.485-19.9" transform="translate(322.867 860.57)" fill="#d8dbe8"/><path d="M444.524,139.962A136.962,136.962,0,1,1,307.561,3,136.96,136.96,0,0,1,444.524,139.962" transform="translate(492.119 781.729)" fill="#d8dbe8"/><path d="M310.47,208.706a265.411,265.411,0,0,1-57.749-6.329A22.591,22.591,0,0,0,226.649,216.8L169.037,375.7a22.623,22.623,0,0,0,15.21,29.553A478.456,478.456,0,0,0,310.47,422.117a478.44,478.44,0,0,0,126.221-16.861A22.623,22.623,0,0,0,451.9,375.7L394.288,216.8a22.587,22.587,0,0,0-26.071-14.425,265.529,265.529,0,0,1-57.747,6.327" transform="translate(489.212 978.999)" fill="#a4befa"/><path d="M198.775,157.492,56.616,248.826a22.678,22.678,0,0,0-5.755,32.848,480.059,480.059,0,0,0,181.12,144.744,22.679,22.679,0,0,0,30.77-12.879l57.611-158.9A22.72,22.72,0,0,0,309.34,226.73a265.972,265.972,0,0,1-80.891-64.652,22.728,22.728,0,0,0-29.674-4.586" transform="translate(368.7 931.448)" fill="#f5e18d"/><path d="M295.556,254.641l57.611,158.9a22.68,22.68,0,0,0,30.77,12.881,480.083,480.083,0,0,0,181.12-144.746,22.674,22.674,0,0,0-5.755-32.848L417.146,157.492a22.733,22.733,0,0,0-29.676,4.586,265.941,265.941,0,0,1-80.891,64.652,22.723,22.723,0,0,0-11.022,27.911" transform="translate(614.743 931.449)" fill="#9df2cd"/><path d="M383.878,99.372a263.034,263.034,0,0,1-23.172,79.072,22.753,22.753,0,0,0,8.138,28.959l142.17,91.344a22.653,22.653,0,0,0,32.214-8.325,475.306,475.306,0,0,0,54.685-186.474,22.675,22.675,0,0,0-22.6-24.479H406.363a22.712,22.712,0,0,0-22.485,19.9" transform="translate(678.508 857.594)" fill="#ccf"/><path d="M191.626,79.469H22.676a22.677,22.677,0,0,0-22.6,24.479A475.288,475.288,0,0,0,54.759,290.422a22.651,22.651,0,0,0,32.214,8.323L229.143,207.4a22.756,22.756,0,0,0,8.14-28.959,263.033,263.033,0,0,1-23.172-79.072,22.714,22.714,0,0,0-22.485-19.9" transform="translate(322.867 857.594)" fill="#a3e6f0"/><path d="M444.524,136.962A136.962,136.962,0,1,1,307.561,0,136.96,136.96,0,0,1,444.524,136.962" transform="translate(492.119 778.752)" fill="#eaeaea"/><path d="M14.737,14.408h5.612v2.123H12.094V3.7h2.643ZM21.3,11.677a5.653,5.653,0,0,1,.546-2.528,4,4,0,0,1,1.572-1.718A4.588,4.588,0,0,1,25.8,6.823,4.34,4.34,0,0,1,28.951,8a4.738,4.738,0,0,1,1.361,3.207l.018.652A4.982,4.982,0,0,1,29.1,15.382a4.256,4.256,0,0,1-3.286,1.326,4.278,4.278,0,0,1-3.29-1.321A5.07,5.07,0,0,1,21.3,11.792Zm2.546.185a3.553,3.553,0,0,0,.511,2.075,1.837,1.837,0,0,0,2.907.009,3.888,3.888,0,0,0,.52-2.268,3.518,3.518,0,0,0-.52-2.061A1.69,1.69,0,0,0,25.8,8.885a1.663,1.663,0,0,0-1.445.727A3.954,3.954,0,0,0,23.846,11.862ZM37.06,13.9a.82.82,0,0,0-.462-.736,5.254,5.254,0,0,0-1.484-.48q-3.4-.714-3.4-2.89a2.619,2.619,0,0,1,1.053-2.119,4.247,4.247,0,0,1,2.753-.85,4.571,4.571,0,0,1,2.9.855A2.693,2.693,0,0,1,39.509,9.9H36.963a1.232,1.232,0,0,0-.352-.9,1.491,1.491,0,0,0-1.1-.357,1.524,1.524,0,0,0-1,.291.918.918,0,0,0-.352.74.784.784,0,0,0,.4.683,4.124,4.124,0,0,0,1.352.449,11.045,11.045,0,0,1,1.6.427,2.634,2.634,0,0,1,2.017,2.564,2.486,2.486,0,0,1-1.119,2.11,4.826,4.826,0,0,1-2.89.806A5.041,5.041,0,0,1,33.4,16.28a3.57,3.57,0,0,1-1.458-1.172,2.722,2.722,0,0,1-.529-1.608h2.414a1.329,1.329,0,0,0,.5,1.04,1.992,1.992,0,0,0,1.251.361,1.843,1.843,0,0,0,1.106-.277A.863.863,0,0,0,37.06,13.9Zm17.187-2.044a5.717,5.717,0,0,1-1,3.528,3.206,3.206,0,0,1-2.7,1.326,2.97,2.97,0,0,1-2.335-1V20.2H45.667V7h2.361l.088.934a2.992,2.992,0,0,1,2.414-1.11,3.228,3.228,0,0,1,2.74,1.3,5.871,5.871,0,0,1,.978,3.594ZM51.7,11.669a3.751,3.751,0,0,0-.471-2.053,1.535,1.535,0,0,0-1.37-.722,1.667,1.667,0,0,0-1.647.916v3.9a1.7,1.7,0,0,0,1.665.943Q51.7,14.655,51.7,11.669Zm9.646,4.863a2.827,2.827,0,0,1-.255-.855,3.081,3.081,0,0,1-2.4,1.031,3.384,3.384,0,0,1-2.321-.81,2.607,2.607,0,0,1-.921-2.044,2.694,2.694,0,0,1,1.123-2.326,5.542,5.542,0,0,1,3.246-.819h1.172v-.546A1.571,1.571,0,0,0,60.647,9.1a1.334,1.334,0,0,0-1.07-.4,1.517,1.517,0,0,0-1.009.308,1.047,1.047,0,0,0-.366.846H55.657a2.557,2.557,0,0,1,.511-1.533,3.377,3.377,0,0,1,1.445-1.106,5.265,5.265,0,0,1,2.1-.4,4.16,4.16,0,0,1,2.8.885A3.1,3.1,0,0,1,63.541,10.2v4.132a4.557,4.557,0,0,0,.379,2.053v.15Zm-2.105-1.771a2.193,2.193,0,0,0,1.04-.251,1.649,1.649,0,0,0,.7-.674V12.2h-.951q-1.912,0-2.035,1.321l-.009.15a1.019,1.019,0,0,0,.335.784A1.3,1.3,0,0,0,59.242,14.761ZM70.659,13.9a.82.82,0,0,0-.463-.736,5.253,5.253,0,0,0-1.484-.48q-3.4-.714-3.4-2.89a2.619,2.619,0,0,1,1.053-2.119,4.247,4.247,0,0,1,2.753-.85,4.571,4.571,0,0,1,2.9.855A2.693,2.693,0,0,1,73.108,9.9H70.562a1.232,1.232,0,0,0-.352-.9,1.491,1.491,0,0,0-1.1-.357,1.524,1.524,0,0,0-1,.291.918.918,0,0,0-.352.74.784.784,0,0,0,.4.683,4.124,4.124,0,0,0,1.352.449,11.045,11.045,0,0,1,1.6.427,2.634,2.634,0,0,1,2.017,2.564,2.486,2.486,0,0,1-1.119,2.11,4.826,4.826,0,0,1-2.89.806A5.041,5.041,0,0,1,67,16.28a3.57,3.57,0,0,1-1.458-1.172,2.722,2.722,0,0,1-.529-1.608h2.414a1.329,1.329,0,0,0,.5,1.04,1.992,1.992,0,0,0,1.251.361,1.843,1.843,0,0,0,1.106-.277A.863.863,0,0,0,70.659,13.9Zm3.718-2.22a5.653,5.653,0,0,1,.546-2.528A4,4,0,0,1,76.5,7.431a4.588,4.588,0,0,1,2.383-.608A4.34,4.34,0,0,1,82.028,8a4.738,4.738,0,0,1,1.361,3.207l.018.652a4.982,4.982,0,0,1-1.225,3.519,4.746,4.746,0,0,1-6.576,0,5.07,5.07,0,0,1-1.229-3.594Zm2.546.185a3.553,3.553,0,0,0,.511,2.075,1.837,1.837,0,0,0,2.907.009,3.888,3.888,0,0,0,.52-2.268,3.518,3.518,0,0,0-.52-2.061,1.69,1.69,0,0,0-1.462-.731,1.663,1.663,0,0,0-1.445.727A3.954,3.954,0,0,0,76.923,11.862ZM90.137,13.9a.82.82,0,0,0-.462-.736,5.254,5.254,0,0,0-1.484-.48q-3.4-.714-3.4-2.89a2.619,2.619,0,0,1,1.053-2.119,4.247,4.247,0,0,1,2.753-.85,4.571,4.571,0,0,1,2.9.855A2.693,2.693,0,0,1,92.586,9.9H90.04a1.232,1.232,0,0,0-.352-.9,1.491,1.491,0,0,0-1.1-.357,1.524,1.524,0,0,0-1,.291.918.918,0,0,0-.352.74.784.784,0,0,0,.4.683,4.123,4.123,0,0,0,1.352.449,11.045,11.045,0,0,1,1.6.427,2.634,2.634,0,0,1,2.017,2.564,2.486,2.486,0,0,1-1.119,2.11,4.826,4.826,0,0,1-2.89.806,5.041,5.041,0,0,1-2.127-.427,3.57,3.57,0,0,1-1.458-1.172A2.722,2.722,0,0,1,84.49,13.5H86.9a1.329,1.329,0,0,0,.5,1.04,1.992,1.992,0,0,0,1.251.361,1.843,1.843,0,0,0,1.106-.277A.863.863,0,0,0,90.137,13.9Zm17.187-2.044a5.717,5.717,0,0,1-1,3.528,3.206,3.206,0,0,1-2.7,1.326,2.97,2.97,0,0,1-2.335-1V20.2H98.744V7H101.1l.088.934a2.992,2.992,0,0,1,2.414-1.11,3.228,3.228,0,0,1,2.74,1.3,5.871,5.871,0,0,1,.978,3.594Zm-2.546-.185a3.751,3.751,0,0,0-.471-2.053,1.535,1.535,0,0,0-1.37-.722,1.667,1.667,0,0,0-1.647.916v3.9a1.7,1.7,0,0,0,1.665.943Q104.778,14.655,104.778,11.669Zm9.646,4.863a2.827,2.827,0,0,1-.255-.855,3.081,3.081,0,0,1-2.4,1.031,3.384,3.384,0,0,1-2.321-.81,2.607,2.607,0,0,1-.921-2.044,2.694,2.694,0,0,1,1.123-2.326,5.542,5.542,0,0,1,3.246-.819h1.172v-.546a1.571,1.571,0,0,0-.339-1.057,1.334,1.334,0,0,0-1.07-.4,1.517,1.517,0,0,0-1.009.308,1.047,1.047,0,0,0-.366.846h-2.546a2.557,2.557,0,0,1,.511-1.533,3.377,3.377,0,0,1,1.445-1.106,5.265,5.265,0,0,1,2.1-.4,4.16,4.16,0,0,1,2.8.885,3.1,3.1,0,0,1,1.035,2.489v4.132A4.557,4.557,0,0,0,117,16.382v.15Zm-2.105-1.771a2.193,2.193,0,0,0,1.04-.251,1.649,1.649,0,0,0,.7-.674V12.2h-.951q-1.912,0-2.035,1.321l-.009.15a1.019,1.019,0,0,0,.335.784A1.3,1.3,0,0,0,112.319,14.761ZM123.93,9.387a6.917,6.917,0,0,0-.916-.07,1.865,1.865,0,0,0-1.894.978v6.237h-2.546V7h2.4l.07,1.136a2.359,2.359,0,0,1,2.123-1.313,2.668,2.668,0,0,1,.793.115Zm6.484,7.144a2.827,2.827,0,0,1-.255-.855,3.081,3.081,0,0,1-2.4,1.031,3.384,3.384,0,0,1-2.321-.81,2.607,2.607,0,0,1-.921-2.044,2.694,2.694,0,0,1,1.123-2.326,5.542,5.542,0,0,1,3.246-.819h1.172v-.546a1.571,1.571,0,0,0-.339-1.057,1.334,1.334,0,0,0-1.07-.4,1.517,1.517,0,0,0-1.009.308,1.047,1.047,0,0,0-.366.846h-2.546a2.557,2.557,0,0,1,.511-1.533,3.377,3.377,0,0,1,1.445-1.106,5.265,5.265,0,0,1,2.1-.4,4.16,4.16,0,0,1,2.8.885,3.1,3.1,0,0,1,1.035,2.489v4.132a4.557,4.557,0,0,0,.379,2.053v.15Zm-2.105-1.771a2.193,2.193,0,0,0,1.04-.251,1.649,1.649,0,0,0,.7-.674V12.2H129.1q-1.912,0-2.035,1.321l-.009.15a1.019,1.019,0,0,0,.335.784A1.3,1.3,0,0,0,128.308,14.761Zm13.434,1.771h-2.555V3h2.555Zm7.62,0a2.827,2.827,0,0,1-.255-.855,3.081,3.081,0,0,1-2.4,1.031,3.384,3.384,0,0,1-2.321-.81,2.607,2.607,0,0,1-.921-2.044,2.694,2.694,0,0,1,1.123-2.326,5.542,5.542,0,0,1,3.246-.819H149v-.546a1.571,1.571,0,0,0-.339-1.057,1.334,1.334,0,0,0-1.07-.4,1.517,1.517,0,0,0-1.009.308,1.047,1.047,0,0,0-.366.846h-2.546a2.557,2.557,0,0,1,.511-1.533,3.378,3.378,0,0,1,1.445-1.106,5.265,5.265,0,0,1,2.1-.4,4.16,4.16,0,0,1,2.8.885,3.1,3.1,0,0,1,1.035,2.489v4.132a4.557,4.557,0,0,0,.379,2.053v.15Zm-2.105-1.771a2.193,2.193,0,0,0,1.04-.251,1.649,1.649,0,0,0,.7-.674V12.2h-.951q-1.912,0-2.035,1.321l-.009.15a1.019,1.019,0,0,0,.335.784A1.3,1.3,0,0,0,147.258,14.761Zm13.8-10.1V7h1.63V8.867h-1.63v4.757a1.136,1.136,0,0,0,.2.758,1.018,1.018,0,0,0,.775.229,4.06,4.06,0,0,0,.749-.062v1.929a5.241,5.241,0,0,1-1.542.229,2.431,2.431,0,0,1-2.731-2.7V8.867h-1.392V7h1.392V4.656Zm2.387,7.021a5.653,5.653,0,0,1,.546-2.528,4,4,0,0,1,1.572-1.718,4.588,4.588,0,0,1,2.383-.608A4.34,4.34,0,0,1,171.092,8a4.738,4.738,0,0,1,1.361,3.207l.018.652a4.982,4.982,0,0,1-1.225,3.519,4.746,4.746,0,0,1-6.576,0,5.07,5.07,0,0,1-1.229-3.594Zm2.546.185a3.553,3.553,0,0,0,.511,2.075,1.837,1.837,0,0,0,2.907.009,3.888,3.888,0,0,0,.52-2.268,3.518,3.518,0,0,0-.52-2.061,1.69,1.69,0,0,0-1.462-.731,1.663,1.663,0,0,0-1.445.727A3.954,3.954,0,0,0,165.986,11.862ZM176.426,7l.079,1.066a3.35,3.35,0,0,1,2.74-1.242,2.542,2.542,0,0,1,2.528,1.454,3.273,3.273,0,0,1,2.863-1.454,2.843,2.843,0,0,1,2.308.9,4.15,4.15,0,0,1,.758,2.718v6.087h-2.555V10.453a1.815,1.815,0,0,0-.317-1.185,1.406,1.406,0,0,0-1.119-.374,1.589,1.589,0,0,0-1.586,1.092l.009,6.545h-2.546v-6.07a1.793,1.793,0,0,0-.326-1.2,1.419,1.419,0,0,0-1.11-.37,1.65,1.65,0,0,0-1.568.9v6.739h-2.546V7Zm18.755,9.532a2.827,2.827,0,0,1-.255-.855,3.081,3.081,0,0,1-2.4,1.031,3.384,3.384,0,0,1-2.321-.81,2.607,2.607,0,0,1-.921-2.044,2.694,2.694,0,0,1,1.123-2.326,5.542,5.542,0,0,1,3.246-.819h1.172v-.546a1.571,1.571,0,0,0-.339-1.057,1.334,1.334,0,0,0-1.07-.4,1.517,1.517,0,0,0-1.009.308,1.047,1.047,0,0,0-.366.846H189.49A2.557,2.557,0,0,1,190,8.33a3.377,3.377,0,0,1,1.445-1.106,5.265,5.265,0,0,1,2.1-.4,4.16,4.16,0,0,1,2.8.885,3.1,3.1,0,0,1,1.035,2.489v4.132a4.557,4.557,0,0,0,.379,2.053v.15Zm-2.105-1.771a2.193,2.193,0,0,0,1.04-.251,1.649,1.649,0,0,0,.7-.674V12.2h-.951q-1.912,0-2.035,1.321l-.009.15a1.019,1.019,0,0,0,.335.784A1.3,1.3,0,0,0,193.076,14.761Zm10.351-3.066a5.744,5.744,0,0,1,1-3.55,3.244,3.244,0,0,1,2.735-1.321,2.919,2.919,0,0,1,2.3,1.04V3h2.555V16.531h-2.3l-.123-1.013a3,3,0,0,1-2.449,1.189,3.236,3.236,0,0,1-2.7-1.326A5.929,5.929,0,0,1,203.427,11.695Zm2.546.185a3.752,3.752,0,0,0,.467,2.053,1.522,1.522,0,0,0,1.357.714,1.7,1.7,0,0,0,1.665-1V9.889a1.679,1.679,0,0,0-1.647-1Q205.973,8.894,205.973,11.88Zm12.4,4.828a4.679,4.679,0,0,1-3.414-1.286,4.572,4.572,0,0,1-1.317-3.427v-.247A5.758,5.758,0,0,1,214.2,9.18a4.073,4.073,0,0,1,1.572-1.744,4.414,4.414,0,0,1,2.321-.612,3.956,3.956,0,0,1,3.079,1.233,5.012,5.012,0,0,1,1.123,3.5v1.04h-6.07a2.365,2.365,0,0,0,.744,1.5,2.25,2.25,0,0,0,1.572.564,2.748,2.748,0,0,0,2.3-1.066l1.251,1.4a3.822,3.822,0,0,1-1.55,1.264A5.087,5.087,0,0,1,218.376,16.708Zm-.291-7.823a1.594,1.594,0,0,0-1.229.511,2.64,2.64,0,0,0-.6,1.462h3.541v-.2a1.882,1.882,0,0,0-.458-1.308A1.645,1.645,0,0,0,218.086,8.885ZM54.1,38.758a5.744,5.744,0,0,1,1-3.55,3.244,3.244,0,0,1,2.735-1.321,2.919,2.919,0,0,1,2.3,1.04V30.063h2.555V43.594h-2.3l-.123-1.013a3,3,0,0,1-2.449,1.189,3.236,3.236,0,0,1-2.7-1.326A5.929,5.929,0,0,1,54.1,38.758Zm2.546.185A3.752,3.752,0,0,0,57.115,41a1.522,1.522,0,0,0,1.357.714,1.7,1.7,0,0,0,1.665-1V36.952a1.679,1.679,0,0,0-1.647-1Q56.648,35.956,56.648,38.943Zm12.4,4.828a4.679,4.679,0,0,1-3.414-1.286,4.572,4.572,0,0,1-1.317-3.427v-.247a5.758,5.758,0,0,1,.555-2.568A4.073,4.073,0,0,1,66.448,34.5a4.414,4.414,0,0,1,2.321-.612,3.956,3.956,0,0,1,3.079,1.233,5.012,5.012,0,0,1,1.123,3.5v1.04H66.9a2.365,2.365,0,0,0,.744,1.5,2.25,2.25,0,0,0,1.572.564,2.748,2.748,0,0,0,2.3-1.066l1.251,1.4a3.822,3.822,0,0,1-1.55,1.264A5.087,5.087,0,0,1,69.051,43.77Zm-.291-7.823a1.594,1.594,0,0,0-1.229.511,2.64,2.64,0,0,0-.6,1.462H70.47v-.2a1.882,1.882,0,0,0-.458-1.308A1.645,1.645,0,0,0,68.761,35.947Zm9.62,5.77a1.67,1.67,0,0,0,1.145-.388,1.358,1.358,0,0,0,.458-1.031h2.387a3.266,3.266,0,0,1-.529,1.775,3.488,3.488,0,0,1-1.423,1.251,4.453,4.453,0,0,1-2,.445,4.138,4.138,0,0,1-3.224-1.3,5.142,5.142,0,0,1-1.18-3.59v-.167A5.083,5.083,0,0,1,75.192,35.2a4.09,4.09,0,0,1,3.215-1.313A4.009,4.009,0,0,1,81.275,34.9a3.6,3.6,0,0,1,1.1,2.709H79.984a1.735,1.735,0,0,0-.458-1.2,1.706,1.706,0,0,0-2.506.185,3.748,3.748,0,0,0-.454,2.1v.264a3.8,3.8,0,0,0,.449,2.114A1.553,1.553,0,0,0,78.381,41.718Zm8.131,1.876H83.957V34.062h2.555Zm-2.7-12a1.254,1.254,0,0,1,.383-.943,1.651,1.651,0,0,1,2.083,0,1.345,1.345,0,0,1,0,1.894,1.633,1.633,0,0,1-2.07,0A1.25,1.25,0,0,1,83.807,31.6Zm9.964,9.364a.82.82,0,0,0-.463-.736,5.253,5.253,0,0,0-1.484-.48q-3.4-.714-3.4-2.89a2.619,2.619,0,0,1,1.053-2.119,4.247,4.247,0,0,1,2.753-.85,4.571,4.571,0,0,1,2.9.855,2.693,2.693,0,0,1,1.088,2.22H93.674a1.232,1.232,0,0,0-.352-.9,1.491,1.491,0,0,0-1.1-.357,1.524,1.524,0,0,0-1,.291.918.918,0,0,0-.352.74.784.784,0,0,0,.4.683,4.123,4.123,0,0,0,1.352.449,11.045,11.045,0,0,1,1.6.427,2.634,2.634,0,0,1,2.017,2.564,2.486,2.486,0,0,1-1.119,2.11,4.826,4.826,0,0,1-2.89.806,5.041,5.041,0,0,1-2.127-.427,3.57,3.57,0,0,1-1.458-1.172,2.722,2.722,0,0,1-.529-1.608h2.414a1.329,1.329,0,0,0,.5,1.04,1.992,1.992,0,0,0,1.251.361,1.843,1.843,0,0,0,1.106-.277A.863.863,0,0,0,93.771,40.96Zm6.8,2.634H98.017V34.062h2.555Zm-2.7-12a1.254,1.254,0,0,1,.383-.943,1.651,1.651,0,0,1,2.083,0,1.345,1.345,0,0,1,0,1.894,1.633,1.633,0,0,1-2.07,0A1.25,1.25,0,0,1,97.867,31.6Zm4.4,7.144a5.653,5.653,0,0,1,.546-2.528,4,4,0,0,1,1.572-1.718,4.588,4.588,0,0,1,2.383-.608,4.34,4.34,0,0,1,3.149,1.18,4.738,4.738,0,0,1,1.361,3.207l.018.652a4.982,4.982,0,0,1-1.225,3.519,4.746,4.746,0,0,1-6.576,0,5.07,5.07,0,0,1-1.229-3.594Zm2.546.185A3.553,3.553,0,0,0,105.329,41a1.837,1.837,0,0,0,2.907.009,3.888,3.888,0,0,0,.52-2.268,3.518,3.518,0,0,0-.52-2.061,1.69,1.69,0,0,0-1.462-.731,1.663,1.663,0,0,0-1.445.727A3.954,3.954,0,0,0,104.818,38.925Zm10.4-4.863.079,1.1a3.328,3.328,0,0,1,2.74-1.277,2.766,2.766,0,0,1,2.255.89,4.151,4.151,0,0,1,.758,2.66v6.158H118.5V37.5a1.652,1.652,0,0,0-.352-1.176,1.577,1.577,0,0,0-1.172-.366,1.751,1.751,0,0,0-1.612.916v6.722h-2.546V34.062Zm12.148,9.708a4.679,4.679,0,0,1-3.414-1.286,4.572,4.572,0,0,1-1.317-3.427v-.247a5.758,5.758,0,0,1,.555-2.568,4.073,4.073,0,0,1,1.572-1.744,4.414,4.414,0,0,1,2.321-.612,3.956,3.956,0,0,1,3.079,1.233,5.012,5.012,0,0,1,1.123,3.5v1.04h-6.07a2.365,2.365,0,0,0,.744,1.5,2.25,2.25,0,0,0,1.572.564,2.748,2.748,0,0,0,2.3-1.066l1.251,1.4a3.822,3.822,0,0,1-1.55,1.264A5.087,5.087,0,0,1,127.361,43.77Zm-.291-7.823a1.594,1.594,0,0,0-1.229.511,2.64,2.64,0,0,0-.6,1.462h3.541v-.2a1.882,1.882,0,0,0-.458-1.308A1.645,1.645,0,0,0,127.071,35.947Zm10.818,5.013a.82.82,0,0,0-.463-.736,5.253,5.253,0,0,0-1.484-.48q-3.4-.714-3.4-2.89a2.619,2.619,0,0,1,1.053-2.119,4.247,4.247,0,0,1,2.753-.85,4.571,4.571,0,0,1,2.9.855,2.693,2.693,0,0,1,1.088,2.22h-2.546a1.232,1.232,0,0,0-.352-.9,1.491,1.491,0,0,0-1.1-.357,1.524,1.524,0,0,0-1,.291.918.918,0,0,0-.352.74.784.784,0,0,0,.4.683,4.124,4.124,0,0,0,1.352.449,11.045,11.045,0,0,1,1.6.427,2.634,2.634,0,0,1,2.017,2.564,2.486,2.486,0,0,1-1.119,2.11,4.826,4.826,0,0,1-2.89.806,5.041,5.041,0,0,1-2.127-.427,3.57,3.57,0,0,1-1.458-1.172,2.722,2.722,0,0,1-.529-1.608h2.414a1.329,1.329,0,0,0,.5,1.04,1.992,1.992,0,0,0,1.251.361,1.843,1.843,0,0,0,1.106-.277A.864.864,0,0,0,137.889,40.96Zm13.769,0a.82.82,0,0,0-.462-.736,5.253,5.253,0,0,0-1.484-.48q-3.4-.714-3.4-2.89a2.619,2.619,0,0,1,1.053-2.119,4.247,4.247,0,0,1,2.753-.85,4.571,4.571,0,0,1,2.9.855,2.693,2.693,0,0,1,1.088,2.22h-2.546a1.232,1.232,0,0,0-.352-.9,1.491,1.491,0,0,0-1.1-.357,1.524,1.524,0,0,0-1,.291.918.918,0,0,0-.352.74.784.784,0,0,0,.4.683,4.124,4.124,0,0,0,1.352.449,11.045,11.045,0,0,1,1.6.427,2.634,2.634,0,0,1,2.017,2.564,2.486,2.486,0,0,1-1.119,2.11,4.826,4.826,0,0,1-2.889.806A5.041,5.041,0,0,1,148,43.343a3.57,3.57,0,0,1-1.458-1.172,2.722,2.722,0,0,1-.529-1.608h2.414a1.329,1.329,0,0,0,.5,1.04,1.992,1.992,0,0,0,1.251.361,1.844,1.844,0,0,0,1.106-.277A.863.863,0,0,0,151.658,40.96Zm3.718-2.22a5.653,5.653,0,0,1,.546-2.528,4,4,0,0,1,1.572-1.718,4.588,4.588,0,0,1,2.383-.608,4.34,4.34,0,0,1,3.149,1.18,4.738,4.738,0,0,1,1.361,3.207l.018.652a4.982,4.982,0,0,1-1.225,3.519,4.746,4.746,0,0,1-6.576,0,5.07,5.07,0,0,1-1.229-3.594Zm2.546.185A3.553,3.553,0,0,0,158.432,41a1.837,1.837,0,0,0,2.907.009,3.888,3.888,0,0,0,.52-2.268,3.518,3.518,0,0,0-.52-2.061,1.69,1.69,0,0,0-1.462-.731,1.663,1.663,0,0,0-1.445.727A3.954,3.954,0,0,0,157.921,38.925Zm10.4-4.863.079,1.1a3.328,3.328,0,0,1,2.74-1.277,2.766,2.766,0,0,1,2.255.89,4.152,4.152,0,0,1,.758,2.66v6.158H171.6V37.5a1.652,1.652,0,0,0-.352-1.176,1.577,1.577,0,0,0-1.172-.366,1.751,1.751,0,0,0-1.612.916v6.722H165.92V34.062Zm7.884,8.281a1.282,1.282,0,0,1,.41-.987,1.592,1.592,0,0,1,2.061,0,1.282,1.282,0,0,1,.41.987,1.264,1.264,0,0,1-.405.973,1.618,1.618,0,0,1-2.07,0A1.264,1.264,0,0,1,176.2,42.343Zm0-7.215a1.282,1.282,0,0,1,.41-.987,1.592,1.592,0,0,1,2.061,0,1.282,1.282,0,0,1,.41.987,1.264,1.264,0,0,1-.405.973,1.618,1.618,0,0,1-2.07,0A1.264,1.264,0,0,1,176.2,35.128Z" transform="translate(687.335 895.174)" fill="#12263f"/><g transform="translate(290 1011)" fill="#fff" stroke="#79dfef" stroke-width="1"><circle cx="52" cy="52" r="52" stroke="none"/><circle cx="52" cy="52" r="51.5" fill="none"/></g><g transform="translate(446 1249)" fill="#fff" stroke="#eecf52" stroke-width="1"><ellipse cx="51.5" cy="52" rx="51.5" ry="52" stroke="none"/><ellipse cx="51.5" cy="52" rx="51" ry="51.5" fill="none"/></g><g transform="translate(751 1353)" fill="#fff" stroke="#05339e" stroke-width="1"><ellipse cx="52" cy="51.5" rx="52" ry="51.5" stroke="none"/><ellipse cx="52" cy="51.5" rx="51.5" ry="51" fill="none"/></g><g transform="translate(1058 1238)" fill="#fff" stroke="#13b770" stroke-width="1"><ellipse cx="52" cy="51.5" rx="52" ry="51.5" stroke="none"/><ellipse cx="52" cy="51.5" rx="51.5" ry="51" fill="none"/></g><g transform="translate(1211 1011)" fill="#fff" stroke="#1a1a52" stroke-width="1"><circle cx="52" cy="52" r="52" stroke="none"/><circle cx="52" cy="52" r="51.5" fill="none"/></g><path d="M12.907,0H8.25V-17.95L2.691-16.226v-3.787l9.716-3.48h.5Z" transform="translate(491 983)" fill="#1a1a52"/><path d="M17.676,0H1.6V-3.19l7.589-8.089A18.723,18.723,0,0,0,11.5-14.26a4.789,4.789,0,0,0,.749-2.417,3.584,3.584,0,0,0-.79-2.457A2.85,2.85,0,0,0,9.2-20.029a3.074,3.074,0,0,0-2.49,1.088,4.308,4.308,0,0,0-.91,2.86H1.128A7.691,7.691,0,0,1,2.151-20a7.212,7.212,0,0,1,2.892-2.78,8.791,8.791,0,0,1,4.238-1.007,8.324,8.324,0,0,1,5.632,1.74,6.157,6.157,0,0,1,2.006,4.915,7.888,7.888,0,0,1-.9,3.545,19.7,19.7,0,0,1-3.094,4.206L7.589-3.754H17.676Z" transform="translate(574 1146)" fill="#1a1a52"/><g transform="translate(310.297 1028.078)"><g transform="translate(0.032 0.929)"><path d="M121.212,6.622a21.947,21.947,0,0,0-11.179,40.85,3.775,3.775,0,0,1,1.842,3.254v5.345a1.784,1.784,0,0,1,.69-.138H129.8a1.787,1.787,0,0,1,.69.138V50.726a3.815,3.815,0,0,1,1.88-3.276A21.947,21.947,0,0,0,121.212,6.622Z" transform="translate(-89.459 -6.622)" fill="#ffe07d"/><g transform="translate(9.778)"><path d="M117.675,50.726a3.775,3.775,0,0,0-1.842-3.254,21.947,21.947,0,0,1,8.255-40.659,21.948,21.948,0,0,0-14.055,40.659,3.775,3.775,0,0,1,1.842,3.254v5.345a1.784,1.784,0,0,1,.69-.138h5.11Z" transform="translate(-99.237 -6.622)" fill="#ffc250"/></g><g transform="translate(38.416 5.915)"><path d="M311.934,60.509a15.254,15.254,0,0,0-8.028-9.736,1.052,1.052,0,0,1,.927-1.89,17.359,17.359,0,0,1,9.134,11.08,1.053,1.053,0,0,1-2.033.546Z" transform="translate(-303.317 -48.776)" fill="#ffeac8"/></g><path d="M225.341,467.843v.771a4.25,4.25,0,1,0,8.5,0v-.771Z" transform="translate(-197.868 -403.121)" fill="#8479c2"/><path d="M229.145,468.613v-.771h-3.8v.771a4.263,4.263,0,0,0,4.25,4.25,4.211,4.211,0,0,0,1.9-.453A4.262,4.262,0,0,1,229.145,468.613Z" transform="translate(-197.867 -403.12)" fill="#6e60b8"/><g transform="translate(0 20.331)"><path d="M34.232,153.613h-3.62a1.052,1.052,0,1,1,0-2.1h3.62a1.052,1.052,0,1,1,0,2.1Z" transform="translate(-29.559 -151.508)" fill="#ffc250"/></g><g transform="translate(1.642 12.436)"><path d="M45.324,98.567l-3.385-1.285a1.052,1.052,0,0,1,.747-1.968L46.071,96.6a1.052,1.052,0,1,1-.747,1.968Z" transform="translate(-41.26 -95.246)" fill="#ffc250"/></g><g transform="translate(1.642 26.941)"><path d="M41.329,201.323a1.052,1.052,0,0,1,.611-1.357l3.385-1.285a1.052,1.052,0,0,1,.747,1.968l-3.385,1.285A1.053,1.053,0,0,1,41.329,201.323Z" transform="translate(-41.26 -198.612)" fill="#ffc250"/></g><g transform="translate(57.721 20.331)"><path d="M445.567,153.613h-3.621a1.052,1.052,0,1,1,0-2.1h3.621a1.052,1.052,0,1,1,0,2.1Z" transform="translate(-440.894 -151.508)" fill="#ffc250"/></g><g transform="translate(56.314 12.436)"><path d="M430.937,97.956a1.052,1.052,0,0,1,.611-1.357l3.385-1.285a1.052,1.052,0,0,1,.747,1.968l-3.385,1.285A1.053,1.053,0,0,1,430.937,97.956Z" transform="translate(-430.868 -95.246)" fill="#ffc250"/></g><g transform="translate(56.315 26.941)"><path d="M434.933,201.934l-3.385-1.285a1.052,1.052,0,1,1,.747-1.968l3.385,1.285a1.052,1.052,0,1,1-.747,1.968Z" transform="translate(-430.869 -198.612)" fill="#ffc250"/></g><path d="M207.453,430.987h-14.43a1.828,1.828,0,0,0-1.826,1.826v1.555a1.828,1.828,0,0,0,1.826,1.826h14.43a1.828,1.828,0,0,0,1.826-1.826v-1.555A1.828,1.828,0,0,0,207.453,430.987Z" transform="translate(-168.514 -371.437)" fill="#efecef"/><path d="M207.453,441.566h-14.43a1.829,1.829,0,0,1-1.749-1.3,1.819,1.819,0,0,0-.078.524v1.555a1.828,1.828,0,0,0,1.826,1.826h14.43a1.828,1.828,0,0,0,1.826-1.826v-1.555a1.819,1.819,0,0,0-.078-.524A1.829,1.829,0,0,1,207.453,441.566Z" transform="translate(-168.514 -379.412)" fill="#e2dfe2"/><path d="M200.263,394.381H183.028a1.828,1.828,0,0,0-1.826,1.826v1.555a1.828,1.828,0,0,0,1.826,1.826h17.235a1.828,1.828,0,0,0,1.826-1.826v-1.555A1.828,1.828,0,0,0,200.263,394.381Z" transform="translate(-159.922 -339.968)" fill="#efecef"/><path d="M200.263,404.959H183.028a1.829,1.829,0,0,1-1.749-1.3,1.82,1.82,0,0,0-.078.524v1.555a1.828,1.828,0,0,0,1.826,1.826h17.235a1.828,1.828,0,0,0,1.826-1.826v-1.555a1.819,1.819,0,0,0-.078-.524A1.829,1.829,0,0,1,200.263,404.959Z" transform="translate(-159.922 -347.942)" fill="#e2dfe2"/><path d="M200.263,357.775H183.028A1.828,1.828,0,0,0,181.2,359.6v1.555a1.828,1.828,0,0,0,1.826,1.826h17.235a1.828,1.828,0,0,0,1.826-1.826V359.6A1.828,1.828,0,0,0,200.263,357.775Z" transform="translate(-159.922 -308.499)" fill="#efecef"/><path d="M200.263,368.354H183.028a1.829,1.829,0,0,1-1.749-1.3,1.82,1.82,0,0,0-.078.524v1.555a1.828,1.828,0,0,0,1.826,1.826h17.235a1.828,1.828,0,0,0,1.826-1.826v-1.555a1.819,1.819,0,0,0-.078-.524A1.829,1.829,0,0,1,200.263,368.354Z" transform="translate(-159.922 -316.474)" fill="#e2dfe2"/></g><g transform="translate(0 0)"><path d="M304.6,48.785a1.052,1.052,0,1,0-.927,1.89,15.254,15.254,0,0,1,8.028,9.736,1.053,1.053,0,0,0,2.033-.546A17.359,17.359,0,0,0,304.6,48.785Z" transform="translate(-264.672 -41.847)"/><path d="M35.055,152.462A1.052,1.052,0,0,0,34,151.41h-3.62a1.052,1.052,0,0,0,0,2.1H34A1.052,1.052,0,0,0,35.055,152.462Z" transform="translate(-29.33 -130.163)"/><path d="M45.842,96.5l-3.385-1.285a1.052,1.052,0,0,0-.747,1.968L45.1,98.468a1.052,1.052,0,0,0,.747-1.968Z" transform="translate(-39.389 -81.795)"/><path d="M45.1,198.582l-3.385,1.285a1.052,1.052,0,1,0,.747,1.968l3.385-1.285a1.052,1.052,0,0,0-.747-1.968Z" transform="translate(-39.389 -170.657)"/><path d="M445.338,151.41h-3.621a1.052,1.052,0,0,0,0,2.1h3.621a1.052,1.052,0,1,0,0-2.1Z" transform="translate(-382.944 -130.163)"/><path d="M432.066,98.469l3.385-1.285a1.052,1.052,0,1,0-.747-1.968L431.32,96.5a1.052,1.052,0,1,0,.747,1.968Z" transform="translate(-374.326 -81.796)"/><path d="M435.451,199.867l-3.385-1.285a1.052,1.052,0,0,0-.747,1.968l3.385,1.285a1.052,1.052,0,1,0,.747-1.968Z" transform="translate(-374.325 -170.657)"/><path d="M266.334,2.1a20.839,20.839,0,0,1,18.356,17.888,1.052,1.052,0,1,0,2.085-.287A23.008,23.008,0,0,0,266.567.007a1.052,1.052,0,0,0-.233,2.092Z" transform="translate(-232.272 -0.001)"/><path d="M136.46,23.712a1.054,1.054,0,0,0-1.138.959,20.932,20.932,0,0,1-10.163,16.173,4.892,4.892,0,0,0-2.4,4.181V49.18h-4.454V40.813a2.207,2.207,0,0,1,.458-1.343l1.506-1.95a4.324,4.324,0,0,0,.9-2.629v-7.61a1.052,1.052,0,0,0,0-2.1v-.115a1.052,1.052,0,0,0-2.1,0v.115H109.95v-.115a1.052,1.052,0,0,0-2.1,0v.115a1.052,1.052,0,0,0,0,2.1v7.61a4.324,4.324,0,0,0,.9,2.629l1.506,1.95a2.209,2.209,0,0,1,.458,1.343V49.18h-4.454V45.025a4.845,4.845,0,0,0-2.359-4.16,20.894,20.894,0,0,1,8.276-38.76,1.052,1.052,0,0,0-.234-2.092,23,23,0,0,0-9.112,42.664,2.731,2.731,0,0,1,1.325,2.348v4.756a2.838,2.838,0,0,0-1.1,2.242v1.555a2.83,2.83,0,0,0,.638,1.791,2.829,2.829,0,0,0-.638,1.791v1.555a2.844,2.844,0,0,0,1.6,2.553,2.826,2.826,0,0,0-.2,1.03v1.555a2.847,2.847,0,0,0,2.844,2.844h1.92a5.3,5.3,0,0,0,10.59,0h1.92a2.847,2.847,0,0,0,2.844-2.844V62.3a2.826,2.826,0,0,0-.2-1.03,2.844,2.844,0,0,0,1.6-2.553V57.16a2.83,2.83,0,0,0-.638-1.791,2.829,2.829,0,0,0,.638-1.791V52.023a2.837,2.837,0,0,0-1.1-2.242V45.025a2.778,2.778,0,0,1,1.365-2.371,23.042,23.042,0,0,0,11.186-17.8,1.053,1.053,0,0,0-.959-1.138ZM110.408,36.234a2.208,2.208,0,0,1-.458-1.343v-7.61h9.116v7.61a2.207,2.207,0,0,1-.458,1.343l-1.506,1.95a4.323,4.323,0,0,0-.9,2.629V49.18h-3.392V40.814a4.323,4.323,0,0,0-.9-2.629Zm4.1,33.377a3.2,3.2,0,0,1-3.185-2.916h6.37A3.2,3.2,0,0,1,114.508,69.611Zm7.954-5.76a.74.74,0,0,1-.739.739h-14.43a.74.74,0,0,1-.739-.739V62.3a.74.74,0,0,1,.739-.739h14.43a.74.74,0,0,1,.739.739Zm1.4-5.137a.739.739,0,0,1-.739.739H105.89a.74.74,0,0,1-.739-.739V57.16a.74.74,0,0,1,.739-.739h17.235a.74.74,0,0,1,.739.739Zm0-5.137a.74.74,0,0,1-.739.739H105.89a.74.74,0,0,1-.739-.739V52.024a.745.745,0,0,1,.739-.739h17.235a.744.744,0,0,1,.739.739Z" transform="translate(-82.785 -0.006)"/></g></g><g transform="translate(468.727 1270.975)"><path d="M11.891,453.241a1.744,1.744,0,0,0,1.9.379l4.165-1.715.1-4.829Z" transform="translate(-10.509 -395.108)" fill="#16202d"/><path d="M9.346,447.96l-1.715,4.165a1.744,1.744,0,0,0,.379,1.9l7.706-4.623Z" transform="translate(-6.628 -395.889)" fill="#2d3e53"/><path d="M61.838,395.973l.1-8.117L51.666,398.13l1.438,1.438Z" transform="translate(-45.66 -342.771)" fill="#ffd19c"/><path d="M26.977,372.83l-3.6,8.733,3.288,3.288,10.788-6.473Z" transform="translate(-20.663 -329.492)" fill="#fff0be"/><path d="M356.67,39.966,354.2,37.5,338.382,54.555l13.357-4.726L356.67,44.9A3.487,3.487,0,0,0,356.67,39.966Z" transform="translate(-299.048 -33.141)" fill="#ff3187"/><path d="M368.266,10.988,365.8,8.522a3.487,3.487,0,0,0-4.932,0l-4.932,4.932-1.644,16.439,13.973-13.973a3.487,3.487,0,0,0,0-4.932Z" transform="translate(-313.11 -6.629)" fill="#ff5178"/><path d="M304.794,124.819l13.562,3.7,3.7-3.7-2.466-2.466Z" transform="translate(-269.364 -108.131)" fill="#dff5ff"/><path d="M347.71,66.111l-7.4-7.4-3.7,3.7,2.466,12.329Z" transform="translate(-297.486 -51.888)" fill="#fff"/><path d="M117.956,186.987l2.466,2.466,32.814-32.814-2.466-2.466-22.413,10.4Z" transform="translate(-104.245 -136.252)" fill="#ffb24a"/><path d="M0,0H46.407V10.462H0Z" transform="translate(6.311 43.336) rotate(-45)" fill="#ffd23b"/><path d="M58.241,12.371a4.364,4.364,0,0,0,0-6.165L53.309,1.275a4.364,4.364,0,0,0-6.165,0L5.7,42.72a.872.872,0,0,0-.19.285L.2,55.9a2.615,2.615,0,0,0,3.415,3.414l12.9-5.311a.874.874,0,0,0,.285-.19ZM48.377,2.508a2.618,2.618,0,0,1,3.7,0L57.008,7.44a2.618,2.618,0,0,1,0,3.7l-4.315,4.315-8.63-8.63ZM42.829,8.056l8.63,8.63-2.466,2.466-8.63-8.63ZM2.949,57.7a.872.872,0,0,1-1.139-1.138l1.217-2.955L5.9,56.488Zm4.7-1.936-3.9-3.9,2.877-6.987,8.014,8.014Zm4.829-7.5L27.038,33.711a.872.872,0,1,0-1.233-1.233L11.247,47.036l-3.7-3.7L39.13,11.755l3.7,3.7L28.272,30.011A.872.872,0,0,0,29.5,31.244L44.062,16.686l3.7,3.7L16.179,51.967Z" transform="translate(0 0)"/></g><g transform="translate(778.864 1371.46)"><g transform="translate(1.124 1.102)"><path d="M43.823,43.99A13.93,13.93,0,0,0,60.394,66.041c.006,0,.013,0,.013-.006v7.4a3.85,3.85,0,0,1-3.855,3.855H22.935a3.855,3.855,0,0,1-3.855-3.855V23.32a3.855,3.855,0,0,1,3.855-3.855H48.09L60.407,31.782v9.863A13.943,13.943,0,0,0,43.823,43.99Z" transform="translate(-19.08 -19.465)" fill="#fecd1a"/><path d="M76.554,31.785h-8.46a3.855,3.855,0,0,1-3.855-3.855V19.47Z" transform="translate(-35.223 -19.467)" fill="#fc852d"/><path d="M77.371,71.936A13.943,13.943,0,0,1,71.9,77.41c0,.006-.006.006-.013.006a13.93,13.93,0,1,1,5.481-5.481Z" transform="translate(-30.577 -30.84)" fill="#43dcff"/><path d="M98.653,98.7a3.87,3.87,0,0,1-5.481,0l-9.779-9.776-.013-.019c.006,0,.013,0,.013-.006a13.943,13.943,0,0,0,5.468-5.474l9.792,9.792a3.87,3.87,0,0,1,0,5.484Z" transform="translate(-42.066 -42.329)" fill="#fd3a69"/><g transform="translate(7.177 7.797)"><path d="M45.553,46.907H31.374a1.124,1.124,0,1,0,0,2.249H45.553a1.124,1.124,0,1,0,0-2.249Z" transform="translate(-30.25 -37.072)" fill="#fff8cd"/><path d="M31.374,64.464h6.612a1.124,1.124,0,1,0,0-2.249H31.374a1.124,1.124,0,1,0,0,2.249Z" transform="translate(-30.25 -42.544)" fill="#fff8cd"/><path d="M31.374,33.849H43.74a1.124,1.124,0,0,0,0-2.249H31.374a1.124,1.124,0,1,0,0,2.249Z" transform="translate(-30.25 -31.6)" fill="#fff8cd"/><path d="M31.374,79.773h6.612a1.124,1.124,0,1,0,0-2.249H31.374a1.124,1.124,0,1,0,0,2.249Z" transform="translate(-30.25 -48.017)" fill="#fff8cd"/><path d="M43.74,92.833H31.374a1.124,1.124,0,0,0,0,2.249H43.74a1.124,1.124,0,0,0,0-2.249Z" transform="translate(-30.25 -53.49)" fill="#fff8cd"/><path d="M68.845,61.725l2.265,4.59,5.065.736L72.51,70.623l.865,5.044-4.53-2.381-4.53,2.381.865-5.044-3.665-3.572,5.065-.736Z" transform="translate(-41.427 -42.369)" fill="#fff8cd"/></g></g><g transform="translate(0 0)"><path d="M18.454,80.512a1.124,1.124,0,0,0,1.124-1.124V76.194a1.124,1.124,0,0,0-2.249,0v3.193A1.124,1.124,0,0,0,18.454,80.512Z" transform="translate(-17.33 -38.241)" fill="#3c2256"/><path d="M75.837,68.967l-9.221-9.221a15,15,0,0,0-5.71-19.328V31.192a1.082,1.082,0,0,0-.014-.137,1.141,1.141,0,0,0-.028-.147,1.092,1.092,0,0,0-.064-.188,1.056,1.056,0,0,0-.053-.1,1.093,1.093,0,0,0-.139-.188c-.01-.01-.015-.024-.025-.034L48.265,18.083c-.006-.006-.013-.008-.019-.014a1.121,1.121,0,0,0-.222-.163l-.06-.032a1.115,1.115,0,0,0-.5-.123H22.31a4.985,4.985,0,0,0-4.98,4.98V49.85a1.124,1.124,0,0,0,2.249,0V22.73A2.734,2.734,0,0,1,22.31,20H46.346v7.339a4.985,4.985,0,0,0,4.98,4.98h7.332v6.976a15.035,15.035,0,1,0,0,27.922v5.631a2.733,2.733,0,0,1-2.731,2.731H22.31a2.734,2.734,0,0,1-2.731-2.731V64.757a1.124,1.124,0,1,0-2.249,0v8.089a4.985,4.985,0,0,0,4.98,4.98H55.926a4.985,4.985,0,0,0,4.98-4.98V68.183l7.86,7.855A4.97,4.97,0,0,0,72.3,77.5h.005a5,5,0,0,0,3.528-8.537ZM48.594,27.338V21.595l8.475,8.474H51.325a2.733,2.733,0,0,1-2.731-2.731ZM43.993,62.3a12.806,12.806,0,1,1,15.271,2.139l-.038.019A12.874,12.874,0,0,1,43.993,62.3ZM74.244,74.452a2.719,2.719,0,0,1-1.938.806h0a2.737,2.737,0,0,1-1.948-.808l-8.8-8.794a14.609,14.609,0,0,0,3.894-3.892l8.794,8.794a2.745,2.745,0,0,1,0,3.892Z" transform="translate(-17.33 -17.75)" fill="#3c2256"/><path d="M31.374,49.19H45.553a1.124,1.124,0,1,0,0-2.249H31.374a1.124,1.124,0,1,0,0,2.249Z" transform="translate(-21.949 -28.185)" fill="#3c2256"/><path d="M31.374,64.5h6.612a1.124,1.124,0,1,0,0-2.249H31.374a1.124,1.124,0,1,0,0,2.249Z" transform="translate(-21.949 -33.658)" fill="#3c2256"/><path d="M31.374,33.882H43.74a1.124,1.124,0,0,0,0-2.249H31.374a1.124,1.124,0,1,0,0,2.249Z" transform="translate(-21.949 -22.713)" fill="#3c2256"/><path d="M31.374,79.808h6.612a1.124,1.124,0,1,0,0-2.249H31.374a1.124,1.124,0,1,0,0,2.249Z" transform="translate(-21.949 -39.131)" fill="#3c2256"/><path d="M31.374,95.116H43.74a1.124,1.124,0,0,0,0-2.249H31.374a1.124,1.124,0,1,0,0,2.249Z" transform="translate(-21.949 -44.603)" fill="#3c2256"/><path d="M73.092,70.424l3.242-3.161a1.125,1.125,0,0,0-.623-1.918l-4.48-.652-2-4.06a1.125,1.125,0,0,0-2.017,0l-2,4.06-4.48.651a1.124,1.124,0,0,0-.623,1.918l3.242,3.16-.766,4.462a1.124,1.124,0,0,0,1.631,1.185l4.007-2.107,4.007,2.107a1.124,1.124,0,0,0,1.633-1.183Zm-1.992-1.2a1.126,1.126,0,0,0-.321,1l.48,2.8L68.742,71.7a1.125,1.125,0,0,0-1.047,0L65.184,73.02l.48-2.8a1.124,1.124,0,0,0-.321-1L63.31,67.244l2.81-.409a1.124,1.124,0,0,0,.847-.615l1.257-2.547,1.257,2.547a1.124,1.124,0,0,0,.846.615l2.81.409Z" transform="translate(-32.499 -32.856)" fill="#3c2256"/></g></g><g transform="translate(1074.604 1255.528)"><g transform="translate(1.028 1.01)"><g transform="translate(0 0)"><ellipse cx="11.028" cy="11.108" rx="11.028" ry="11.108" transform="translate(0 14.804)" fill="#62dbfb"/><path d="M72.177,117.446a10.976,10.976,0,0,0-2.695.334,11.132,11.132,0,0,1,0,21.549,11.1,11.1,0,1,0,2.695-21.883Z" transform="translate(-61.149 -102.642)" fill="#01d0fb"/><ellipse cx="11.028" cy="11.108" rx="11.028" ry="11.108" transform="translate(22.453)" fill="#eecf52"/><g transform="translate(44.905 14.804)"><ellipse cx="11.028" cy="11.108" rx="11.028" ry="11.108" transform="translate(0 0)" fill="#6fd7a3"/><path d="M405.477,117.446a10.975,10.975,0,0,0-2.695.334,11.132,11.132,0,0,1,0,21.549,11.1,11.1,0,1,0,2.695-21.883Z" transform="translate(-394.449 -117.446)" fill="#3ec3a4"/></g></g><g transform="translate(15.244 19.428)"><path d="M133.475,199.3v-5.644l-12.064-14.078a2.847,2.847,0,0,1,3.844-4.1l8.22,7.283s-.01-27.472-.013-28.177c-.015-3.759,5.841-3.758,5.841,0v15.97c0-3.728,5.789-3.711,5.789,0v1.4c0-3.73,5.789-3.613,5.789.14v1.814c0-3.751,5.823-3.69,5.823.279l.006,11.177a9.228,9.228,0,0,1-2.411,6.224l-1.917,2.069,0,5.644h-18.9Z" transform="translate(-120.778 -151.769)" fill="#ffe3cb"/></g><path d="M323.316,298.669c0-3.742-5.173-4.01-5.768-.888a3.523,3.523,0,0,1,.108.888l.006,11.177a9.228,9.228,0,0,1-2.411,6.224l-1.917,2.069,0,5.644h5.659l0-5.644,1.917-2.069a9.228,9.228,0,0,0,2.411-6.224Z" transform="translate(-272.144 -256.822)" fill="#fedbbd"/></g><g transform="translate(0 0)"><path d="M24.093,122.017c.125-9.65-11.164-15.588-18.956-9.915A1.011,1.011,0,0,0,6.3,113.751c6.488-4.722,15.872.233,15.767,8.266a10.069,10.069,0,0,1-10.017,10.1c-7.4.093-12.37-8.168-8.908-14.715a1.01,1.01,0,1,0-1.8-.92c-4.157,7.863,1.822,17.767,10.707,17.656A12.093,12.093,0,0,0,24.093,122.017Z" transform="translate(0.001 -95.094)"/><path d="M57.892,170.96a1.011,1.011,0,0,0,.945-.653l.556-1.471h3.783l.55,1.469a1.011,1.011,0,0,0,1.893-.709l-3.2-8.531-.011-.027a1.2,1.2,0,0,0-2.232,0l-.009.023-3.225,8.53A1.064,1.064,0,0,0,57.892,170.96Zm3.4-7.151,1.126,3.005H60.158Z" transform="translate(-49.227 -138.701)"/><path d="M238.706,57.729a3.341,3.341,0,0,0-1.288-2.637,3.014,3.014,0,0,0-2.47-4.686h-2.495a1.01,1.01,0,0,0-1.01,1.01v8.652a1.087,1.087,0,0,0,1.015,1.01s2.294-.01,2.926-.01a3.335,3.335,0,0,0,3.322-3.339Zm-3.758-5.3a.981.981,0,0,1,0,1.961q-.74,0-1.481,0V52.427Zm-1.485,3.987q.96,0,1.92,0a1.319,1.319,0,0,1,0,2.637c-.352,0-1.219,0-1.92.006Z" transform="translate(-200.26 -43.623)"/><path d="M345.47,109.947a12.092,12.092,0,0,0-12.038,12.119c.606,16.056,23.472,16.051,24.076,0A12.092,12.092,0,0,0,345.47,109.947Zm0,22.217a10.069,10.069,0,0,1-10.017-10.1c.5-13.378,19.531-13.375,20.034,0A10.069,10.069,0,0,1,345.47,132.164Z" transform="translate(-288.509 -95.143)"/><path d="M393.418,167.926a1.01,1.01,0,0,0-1.423.13c-1.884,2.044-5.3.159-5.213-2.458a3.3,3.3,0,0,1,5.117-2.752,1.01,1.01,0,1,0,1.137-1.671,5.325,5.325,0,0,0-8.275,4.423c-.12,4.471,5.748,7.277,8.787,3.751A1.011,1.011,0,0,0,393.418,167.926Z" transform="translate(-332.921 -138.675)"/><path d="M353.176,393.623a1.011,1.011,0,0,0-1.01,1.01,8.19,8.19,0,0,1-2.141,5.537l-1.917,2.069a1.012,1.012,0,0,0-.269.686l0,5.644a1.011,1.011,0,0,0,1.01,1.011h0a1.01,1.01,0,0,0,1.01-1.01l0-5.248,1.653-1.784a10.212,10.212,0,0,0,2.675-6.905A1.01,1.01,0,0,0,353.176,393.623Z" transform="translate(-300.971 -340.599)"/><path d="M145.412,45.173V42.644c.033-2.539,3.856-2.208,3.8.28l0,5.308a1.01,1.01,0,0,0,1.01,1.01h0a1.01,1.01,0,0,0,1.01-1.011l0-5.308a4.05,4.05,0,0,0-6.071-3.519,4.088,4.088,0,0,0-5.925-1.836,4.067,4.067,0,0,0-5.405-1.64v-11.7c15.027-2.18,13.874-23.61-1.3-24.165-12,.056-16.519,15.869-6.464,22.343-.237,1.052-.024,19.672-.086,26.845l-6.539-5.794a3.777,3.777,0,0,0-5.065.475,3.733,3.733,0,0,0-.231,5.019l.015.018,11.821,13.794v5.27a1.01,1.01,0,0,0,2.021,0V62.393a1.01,1.01,0,0,0-.243-.657L115.706,47.667a1.839,1.839,0,0,1,2.441-2.656l8.177,7.245a1.01,1.01,0,0,0,1.681-.757c0-1.122-.01-27.482-.013-28.181A1.627,1.627,0,0,1,128.8,21.8a2.282,2.282,0,0,1,2.187,0,1.637,1.637,0,0,1,.823,1.521h0s0,0,0,0,0,18.644,0,18.644a1.011,1.011,0,0,0,2.021,0V39.3a1.764,1.764,0,0,1,1.879-1.779A1.72,1.72,0,0,1,137.6,39.3v4.057a1.011,1.011,0,0,0,2.021,0V40.691a1.667,1.667,0,0,1,1.81-1.727,1.83,1.83,0,0,1,1.959,1.866v4.343a1.01,1.01,0,0,0,2.021,0ZM127.787,20.048a3.664,3.664,0,0,0-.752.578c-8.227-5.465-4.419-18.5,5.5-18.538,12.587.454,13.6,18.241,1.15,20.128A3.583,3.583,0,0,0,132,20.042,4.331,4.331,0,0,0,127.787,20.048Z" transform="translate(-98.025 -0.066)"/></g></g><g transform="translate(1238.769 1032.042)"><path d="M96.516,65.033H61.788A5.788,5.788,0,0,1,56,59.245V13.288A5.788,5.788,0,0,1,61.788,7.5H96.516a5.788,5.788,0,0,1,5.788,5.788V59.245A5.788,5.788,0,0,1,96.516,65.033Z" transform="translate(-55.132 -6.632)" fill="#f5f5fc"/><path d="M60.63,59.245V13.288A5.788,5.788,0,0,1,66.418,7.5h-4.63A5.788,5.788,0,0,0,56,13.288V59.245a5.788,5.788,0,0,0,5.788,5.788h4.63A5.788,5.788,0,0,1,60.63,59.245Z" transform="translate(-55.132 -6.632)" fill="#ebebf5"/><path d="M107.32,78.178l-5.73,5.73L99.953,82.27a2.315,2.315,0,0,0-3.274,3.274l3.274,3.274a2.315,2.315,0,0,0,3.274,0l7.367-7.367a2.315,2.315,0,1,0-3.274-3.274Z" transform="translate(-90.502 -68.528)" fill="#95e8c8"/><path d="M99.591,115.884a2.817,2.817,0,0,1,1.887-.826l-1.525-1.525a2.315,2.315,0,0,0-3.274,3.274l2.427,2.427A2.828,2.828,0,0,1,99.591,115.884Z" transform="translate(-90.503 -99.791)" fill="#82d9b6"/><path d="M118.187,331.539l-2.046,2.046-2.046-2.046a2.315,2.315,0,0,0-3.274,3.274l2.046,2.046-2.046,2.046a2.315,2.315,0,0,0,3.274,3.274l2.046-2.046,2.046,2.046a2.315,2.315,0,0,0,3.274-3.274l-2.046-2.046,2.046-2.046a2.315,2.315,0,0,0-3.274-3.274Z" transform="translate(-103.006 -292.56)" fill="#ff9696"/><path d="M112.867,385.955a2.315,2.315,0,0,1,0-3.274l-2.046,2.046A2.315,2.315,0,0,0,114.094,388l2.046-2.046A2.315,2.315,0,0,1,112.867,385.955Z" transform="translate(-103.006 -338.382)" fill="#ff73a5"/><path d="M112.867,333.585a2.315,2.315,0,0,1,3.274,0l-2.046-2.046a2.315,2.315,0,0,0-3.274,3.274l2.046,2.046A2.315,2.315,0,0,1,112.867,333.585Z" transform="translate(-103.007 -292.56)" fill="#ff73a5"/><path d="M107.32,204.858l-5.73,5.73-1.637-1.637a2.315,2.315,0,1,0-3.274,3.274l3.274,3.274a2.315,2.315,0,0,0,3.274,0l7.367-7.367a2.315,2.315,0,1,0-3.274-3.274Z" transform="translate(-90.502 -180.544)" fill="#95e8c8"/><path d="M99.591,242.564a2.817,2.817,0,0,1,1.887-.826l-1.525-1.525a2.315,2.315,0,0,0-3.274,3.274l2.427,2.427A2.828,2.828,0,0,1,99.591,242.564Z" transform="translate(-90.503 -211.807)" fill="#82d9b6"/><path d="M89.884,0H55.156A6.664,6.664,0,0,0,48.5,6.656V52.613a6.664,6.664,0,0,0,6.656,6.656H70.9a.868.868,0,0,0,0-1.736H55.156a4.925,4.925,0,0,1-4.92-4.92V6.656a4.925,4.925,0,0,1,4.92-4.92H89.884a4.925,4.925,0,0,1,4.92,4.92V52.613a4.925,4.925,0,0,1-4.92,4.92H74.141a.868.868,0,0,0,0,1.736H89.884a6.664,6.664,0,0,0,6.656-6.656V6.656A6.664,6.664,0,0,0,89.884,0Z" transform="translate(-48.5 0)"/><path d="M104.588,70.932a3.183,3.183,0,0,0-4.5,0L94.97,76.048l-1.023-1.023a3.183,3.183,0,0,0-4.5,4.5L92.72,82.8a3.183,3.183,0,0,0,4.5,0l7.367-7.367a3.183,3.183,0,0,0,0-4.5Zm-1.228,3.274-7.367,7.367a1.447,1.447,0,0,1-2.046,0L90.673,78.3a1.447,1.447,0,0,1,2.046-2.046l1.637,1.637a.868.868,0,0,0,1.228,0l5.73-5.73a1.447,1.447,0,1,1,2.046,2.046Z" transform="translate(-83.882 -61.897)"/><path d="M116.375,326.543a3.184,3.184,0,0,0-5.434-2.251l-1.433,1.433-1.433-1.433a3.183,3.183,0,0,0-4.5,4.5l1.432,1.432-1.432,1.432a3.183,3.183,0,1,0,4.5,4.5l1.433-1.433,1.433,1.433a3.183,3.183,0,0,0,4.5-4.5l-1.432-1.432,1.432-1.432A3.162,3.162,0,0,0,116.375,326.543Zm-2.16,1.023-2.046,2.046a.868.868,0,0,0,0,1.228l2.046,2.046a1.447,1.447,0,1,1-2.046,2.046l-2.046-2.046a.868.868,0,0,0-1.228,0l-2.046,2.046a1.447,1.447,0,0,1-2.046-2.046l2.046-2.046a.868.868,0,0,0,0-1.228l-2.046-2.046a1.447,1.447,0,0,1,2.046-2.046l2.046,2.046a.868.868,0,0,0,1.228,0l2.046-2.046a1.447,1.447,0,0,1,2.046,2.046Z" transform="translate(-96.374 -285.928)"/><path d="M104.588,197.612a3.183,3.183,0,0,0-4.5,0l-5.116,5.116-1.023-1.023a3.183,3.183,0,1,0-4.5,4.5l3.274,3.274a3.183,3.183,0,0,0,4.5,0l7.367-7.367A3.187,3.187,0,0,0,104.588,197.612Zm-1.228,3.274-7.367,7.367a1.447,1.447,0,0,1-2.046,0l-3.274-3.274a1.447,1.447,0,1,1,2.046-2.046l1.637,1.637a.868.868,0,0,0,1.228,0l5.73-5.73a1.447,1.447,0,1,1,2.046,2.046Z" transform="translate(-83.882 -173.912)"/><path d="M261.292,98.556h17.141a.868.868,0,1,0,0-1.736H261.292a.868.868,0,0,0,0,1.736Z" transform="translate(-235.892 -85.612)"/><path d="M261.292,148.555h8.571a.868.868,0,1,0,0-1.736h-8.571a.868.868,0,0,0,0,1.736Z" transform="translate(-235.892 -129.823)"/><path d="M261.292,225.236h17.141a.868.868,0,1,0,0-1.736H261.292a.868.868,0,0,0,0,1.736Z" transform="translate(-235.892 -197.628)"/><path d="M261.292,275.236h8.571a.868.868,0,1,0,0-1.736h-8.571a.868.868,0,1,0,0,1.736Z" transform="translate(-235.892 -241.84)"/><path d="M261.292,351.917h17.141a.868.868,0,1,0,0-1.736H261.292a.868.868,0,0,0,0,1.736Z" transform="translate(-235.892 -309.644)"/><path d="M261.292,401.917h8.571a.868.868,0,1,0,0-1.736h-8.571a.868.868,0,1,0,0,1.736Z" transform="translate(-235.892 -353.856)"/></g><path d="M4.283,1.723H1.31v-14.43H4.283ZM9.486-9l.089,1.239A3.744,3.744,0,0,1,12.657-9.2a3.111,3.111,0,0,1,2.537,1A4.67,4.67,0,0,1,16.047-5.2V1.723H13.183V-5.135a1.858,1.858,0,0,0-.4-1.323,1.775,1.775,0,0,0-1.318-.411A1.97,1.97,0,0,0,9.654-5.839V1.723H6.79V-9Zm12.16-2.636V-9H23.48v2.1H21.646v5.352a1.278,1.278,0,0,0,.228.852,1.145,1.145,0,0,0,.872.258,4.568,4.568,0,0,0,.842-.069v2.17a5.9,5.9,0,0,1-1.734.258q-3.013,0-3.072-3.043V-6.9H17.216V-9h1.566v-2.636ZM30.011,1.921A5.264,5.264,0,0,1,26.17.474a5.143,5.143,0,0,1-1.482-3.855v-.277a6.478,6.478,0,0,1,.624-2.889A4.582,4.582,0,0,1,27.082-8.51,4.965,4.965,0,0,1,29.694-9.2a4.45,4.45,0,0,1,3.464,1.387,5.638,5.638,0,0,1,1.264,3.935v1.169H27.593a2.661,2.661,0,0,0,.837,1.685A2.532,2.532,0,0,0,30.2-.388a3.092,3.092,0,0,0,2.587-1.2L34.193-.012a4.3,4.3,0,0,1-1.744,1.422A5.723,5.723,0,0,1,30.011,1.921Zm-.327-8.8A1.794,1.794,0,0,0,28.3-6.3a2.97,2.97,0,0,0-.679,1.645h3.984v-.228a2.117,2.117,0,0,0-.515-1.472A1.851,1.851,0,0,0,29.684-6.88Zm9.385,8.6H36.2V-13.5h2.874Zm5.381,0H41.577V-9h2.874Zm-3.043-13.5a1.41,1.41,0,0,1,.431-1.06,1.62,1.62,0,0,1,1.174-.416,1.623,1.623,0,0,1,1.169.416,1.4,1.4,0,0,1,.436,1.06,1.406,1.406,0,0,1-.441,1.07,1.627,1.627,0,0,1-1.165.416,1.627,1.627,0,0,1-1.165-.416A1.406,1.406,0,0,1,41.408-11.776Zm4.985,8.057a6.285,6.285,0,0,1,1.174-3.974A3.805,3.805,0,0,1,50.734-9.2,3.337,3.337,0,0,1,53.479-7.99L53.6-9h2.6V1.366a4.583,4.583,0,0,1-.639,2.448,4.105,4.105,0,0,1-1.8,1.586,6.324,6.324,0,0,1-2.716.545,5.88,5.88,0,0,1-2.3-.471A4.081,4.081,0,0,1,47.047,4.26l1.269-1.744a3.355,3.355,0,0,0,2.6,1.2,2.456,2.456,0,0,0,1.774-.61,2.286,2.286,0,0,0,.634-1.729V.8a3.313,3.313,0,0,1-2.607,1.12A3.8,3.8,0,0,1,47.587.41,6.283,6.283,0,0,1,46.393-3.6Zm2.864.208a3.9,3.9,0,0,0,.585,2.284A1.861,1.861,0,0,0,51.448-.4a1.99,1.99,0,0,0,1.873-.981V-5.889a1.985,1.985,0,0,0-1.853-.981,1.873,1.873,0,0,0-1.62.842A4.4,4.4,0,0,0,49.257-3.51ZM63.33,1.921A5.264,5.264,0,0,1,59.49.474a5.143,5.143,0,0,1-1.482-3.855v-.277a6.478,6.478,0,0,1,.624-2.889A4.582,4.582,0,0,1,60.4-8.51,4.965,4.965,0,0,1,63.013-9.2a4.45,4.45,0,0,1,3.464,1.387,5.638,5.638,0,0,1,1.264,3.935v1.169H60.912a2.661,2.661,0,0,0,.837,1.685,2.532,2.532,0,0,0,1.769.634,3.092,3.092,0,0,0,2.587-1.2L67.513-.012a4.3,4.3,0,0,1-1.744,1.422A5.723,5.723,0,0,1,63.33,1.921ZM63-6.88a1.794,1.794,0,0,0-1.383.575,2.97,2.97,0,0,0-.679,1.645h3.984v-.228a2.117,2.117,0,0,0-.515-1.472A1.851,1.851,0,0,0,63-6.88ZM72-9l.089,1.239A3.744,3.744,0,0,1,75.174-9.2a3.111,3.111,0,0,1,2.537,1A4.67,4.67,0,0,1,78.563-5.2V1.723H75.7V-5.135a1.858,1.858,0,0,0-.4-1.323,1.775,1.775,0,0,0-1.318-.411,1.97,1.97,0,0,0-1.814,1.031V1.723H69.307V-9ZM85.193-.388a1.879,1.879,0,0,0,1.288-.436A1.528,1.528,0,0,0,87-1.984h2.686a3.674,3.674,0,0,1-.595,2,3.924,3.924,0,0,1-1.6,1.407,5.009,5.009,0,0,1-2.245.5A4.655,4.655,0,0,1,81.616.459a5.785,5.785,0,0,1-1.328-4.039v-.188a5.719,5.719,0,0,1,1.318-3.954A4.6,4.6,0,0,1,85.223-9.2a4.51,4.51,0,0,1,3.226,1.145,4.053,4.053,0,0,1,1.234,3.048H87a1.952,1.952,0,0,0-.515-1.353,1.723,1.723,0,0,0-1.308-.52,1.726,1.726,0,0,0-1.511.728,4.216,4.216,0,0,0-.51,2.364v.3a4.27,4.27,0,0,0,.505,2.379A1.748,1.748,0,0,0,85.193-.388Zm9.148,2.111H91.467V-9h2.874ZM91.3-11.776a1.41,1.41,0,0,1,.431-1.06,1.62,1.62,0,0,1,1.174-.416,1.623,1.623,0,0,1,1.169.416,1.4,1.4,0,0,1,.436,1.06,1.406,1.406,0,0,1-.441,1.07,1.627,1.627,0,0,1-1.165.416,1.627,1.627,0,0,1-1.164-.416A1.406,1.406,0,0,1,91.3-11.776Zm11.615,13.5a3.181,3.181,0,0,1-.287-.961,3.466,3.466,0,0,1-2.706,1.16,3.807,3.807,0,0,1-2.611-.912,2.932,2.932,0,0,1-1.036-2.3,3.03,3.03,0,0,1,1.264-2.616,6.235,6.235,0,0,1,3.652-.922h1.318v-.614a1.767,1.767,0,0,0-.382-1.189,1.5,1.5,0,0,0-1.2-.446,1.706,1.706,0,0,0-1.135.347,1.178,1.178,0,0,0-.411.951H96.511A2.877,2.877,0,0,1,97.086-7.5a3.8,3.8,0,0,1,1.625-1.244A5.923,5.923,0,0,1,101.07-9.2a4.68,4.68,0,0,1,3.147,1,3.484,3.484,0,0,1,1.165,2.8V-.755a5.127,5.127,0,0,0,.426,2.309v.168ZM100.545-.269a2.467,2.467,0,0,0,1.169-.282,1.855,1.855,0,0,0,.793-.758V-3.153h-1.07q-2.151,0-2.289,1.487l-.01.168a1.147,1.147,0,0,0,.377.882A1.463,1.463,0,0,0,100.545-.269Z" transform="translate(415.332 1034.02)" fill="#1a1a52"/><path d="M1.143,1.721v-14.43h4.44a6.743,6.743,0,0,1,3.4.857,5.978,5.978,0,0,1,2.344,2.438,7.52,7.52,0,0,1,.842,3.593v.664a7.541,7.541,0,0,1-.828,3.578A5.927,5.927,0,0,1,9.012.848a6.794,6.794,0,0,1-3.4.872ZM4.116-10.3V-.668H5.553a3.229,3.229,0,0,0,2.666-1.14A5.15,5.15,0,0,0,9.16-5.068v-.763a5.232,5.232,0,0,0-.912-3.335A3.218,3.218,0,0,0,5.583-10.3ZM17.168,1.721H14.294V-9h2.874Zm-3.043-13.5a1.41,1.41,0,0,1,.431-1.06,1.62,1.62,0,0,1,1.174-.416,1.623,1.623,0,0,1,1.169.416,1.4,1.4,0,0,1,.436,1.06,1.406,1.406,0,0,1-.441,1.07,1.627,1.627,0,0,1-1.165.416,1.627,1.627,0,0,1-1.165-.416A1.406,1.406,0,0,1,14.126-11.778ZM25.334-1.243a.923.923,0,0,0-.52-.828,5.91,5.91,0,0,0-1.67-.54q-3.826-.8-3.826-3.251A2.946,2.946,0,0,1,20.5-8.245,4.777,4.777,0,0,1,23.6-9.2a5.142,5.142,0,0,1,3.266.961,3.03,3.03,0,0,1,1.224,2.5H25.225a1.386,1.386,0,0,0-.4-1.016,1.678,1.678,0,0,0-1.239-.4,1.714,1.714,0,0,0-1.12.327,1.032,1.032,0,0,0-.4.832.883.883,0,0,0,.451.768,4.639,4.639,0,0,0,1.521.505,12.426,12.426,0,0,1,1.8.481,2.963,2.963,0,0,1,2.27,2.884,2.8,2.8,0,0,1-1.259,2.374,5.429,5.429,0,0,1-3.251.907,5.671,5.671,0,0,1-2.393-.481A4.016,4.016,0,0,1,19.576.12a3.063,3.063,0,0,1-.595-1.809H21.7a1.5,1.5,0,0,0,.565,1.169,2.241,2.241,0,0,0,1.407.406,2.074,2.074,0,0,0,1.244-.312A.971.971,0,0,0,25.334-1.243ZM34.9,1.919A5.264,5.264,0,0,1,31.058.472a5.143,5.143,0,0,1-1.482-3.855v-.277A6.478,6.478,0,0,1,30.2-6.55,4.582,4.582,0,0,1,31.97-8.512,4.965,4.965,0,0,1,34.581-9.2a4.45,4.45,0,0,1,3.464,1.387,5.638,5.638,0,0,1,1.264,3.935V-2.71H32.48a2.661,2.661,0,0,0,.837,1.685,2.532,2.532,0,0,0,1.769.634,3.092,3.092,0,0,0,2.587-1.2L39.081-.014a4.3,4.3,0,0,1-1.744,1.422A5.723,5.723,0,0,1,34.9,1.919Zm-.327-8.8a1.794,1.794,0,0,0-1.383.575,2.97,2.97,0,0,0-.679,1.645h3.984V-4.89a2.117,2.117,0,0,0-.515-1.472A1.851,1.851,0,0,0,34.571-6.882ZM43.57-9l.089,1.239A3.744,3.744,0,0,1,46.742-9.2a3.111,3.111,0,0,1,2.537,1,4.67,4.67,0,0,1,.852,2.993V1.721H47.267V-5.138a1.858,1.858,0,0,0-.4-1.323,1.775,1.775,0,0,0-1.318-.411,1.97,1.97,0,0,0-1.814,1.031V1.721H40.874V-9Zm5.689-4.371A2.774,2.774,0,0,1,48.6-11.5a2.031,2.031,0,0,1-1.6.758,2.42,2.42,0,0,1-.669-.084,4.489,4.489,0,0,1-.808-.362,4.357,4.357,0,0,0-.743-.342,1.817,1.817,0,0,0-.5-.064.8.8,0,0,0-.59.248.963.963,0,0,0-.243.7l-1.665-.1a2.816,2.816,0,0,1,.649-1.873,2,2,0,0,1,1.591-.773,2.048,2.048,0,0,1,.56.074,6.166,6.166,0,0,1,.857.362,5.572,5.572,0,0,0,.823.347,1.877,1.877,0,0,0,.476.059.836.836,0,0,0,.6-.243.924.924,0,0,0,.253-.7Zm2.6,9.633a6.36,6.36,0,0,1,.614-2.844,4.5,4.5,0,0,1,1.769-1.933A5.161,5.161,0,0,1,56.92-9.2a4.883,4.883,0,0,1,3.543,1.328,5.33,5.33,0,0,1,1.531,3.607l.02.733A5.6,5.6,0,0,1,60.636.427a4.788,4.788,0,0,1-3.7,1.492,4.812,4.812,0,0,1-3.7-1.487,5.7,5.7,0,0,1-1.383-4.044Zm2.864.208A4,4,0,0,0,55.294-1.2,1.9,1.9,0,0,0,56.94-.39a1.9,1.9,0,0,0,1.625-.8A4.374,4.374,0,0,0,59.15-3.74a3.958,3.958,0,0,0-.585-2.319,1.9,1.9,0,0,0-1.645-.823,1.871,1.871,0,0,0-1.625.818A4.448,4.448,0,0,0,54.72-3.532Z" transform="translate(538.221 1221.205)" fill="#1a1a52"/><path d="M-48.307-4.531h-5.709V-.666h6.7V1.723h-9.673v-14.43h9.653V-10.3h-6.68V-6.86h5.709ZM-42-1.776-40.011-9h2.993L-40.636,1.723h-2.735L-46.988-9H-44Zm12.309,3.5a3.181,3.181,0,0,1-.287-.961,3.466,3.466,0,0,1-2.706,1.16A3.807,3.807,0,0,1-35.3,1.009a2.932,2.932,0,0,1-1.036-2.3,3.03,3.03,0,0,1,1.264-2.616,6.235,6.235,0,0,1,3.652-.922H-30.1v-.614a1.767,1.767,0,0,0-.382-1.189,1.5,1.5,0,0,0-1.2-.446,1.707,1.707,0,0,0-1.135.347,1.178,1.178,0,0,0-.411.951H-36.1A2.877,2.877,0,0,1-35.522-7.5,3.8,3.8,0,0,1-33.9-8.748,5.923,5.923,0,0,1-31.538-9.2a4.68,4.68,0,0,1,3.147,1,3.484,3.484,0,0,1,1.165,2.8V-.755A5.127,5.127,0,0,0-26.8,1.554v.168ZM-32.063-.269a2.467,2.467,0,0,0,1.169-.282A1.855,1.855,0,0,0-30.1-1.31V-3.153h-1.07q-2.151,0-2.289,1.487l-.01.168a1.147,1.147,0,0,0,.377.882A1.463,1.463,0,0,0-32.063-.269ZM-22,1.723h-2.874V-13.5H-22Zm8.781-1.09a3.592,3.592,0,0,1-2.934,1.288A3.387,3.387,0,0,1-18.788.93a4.231,4.231,0,0,1-.927-2.9V-9h2.864v6.928Q-16.85-.4-15.324-.4a2.069,2.069,0,0,0,2-1.011V-9h2.874V1.723h-2.7Zm11.149,1.09A3.181,3.181,0,0,1-2.361.761a3.466,3.466,0,0,1-2.706,1.16,3.807,3.807,0,0,1-2.611-.912,2.932,2.932,0,0,1-1.036-2.3A3.03,3.03,0,0,1-7.45-3.906,6.235,6.235,0,0,1-3.8-4.828H-2.48v-.614a1.767,1.767,0,0,0-.382-1.189,1.5,1.5,0,0,0-1.2-.446A1.707,1.707,0,0,0-5.2-6.731a1.178,1.178,0,0,0-.411.951H-8.476A2.877,2.877,0,0,1-7.9-7.5,3.8,3.8,0,0,1-6.275-8.748,5.923,5.923,0,0,1-3.917-9.2,4.68,4.68,0,0,1-.77-8.2,3.484,3.484,0,0,1,.394-5.4V-.755A5.127,5.127,0,0,0,.821,1.554v.168ZM-4.442-.269A2.467,2.467,0,0,0-3.273-.552,1.855,1.855,0,0,0-2.48-1.31V-3.153H-3.55q-2.151,0-2.289,1.487l-.01.168a1.147,1.147,0,0,0,.377.882A1.463,1.463,0,0,0-4.442-.269Zm11.5-.119A1.879,1.879,0,0,0,8.343-.824a1.528,1.528,0,0,0,.515-1.16h2.686a3.674,3.674,0,0,1-.595,2,3.924,3.924,0,0,1-1.6,1.407,5.009,5.009,0,0,1-2.245.5A4.655,4.655,0,0,1,3.477.459,5.785,5.785,0,0,1,2.149-3.579v-.188A5.719,5.719,0,0,1,3.467-7.722,4.6,4.6,0,0,1,7.084-9.2,4.51,4.51,0,0,1,10.31-8.054a4.053,4.053,0,0,1,1.234,3.048H8.858a1.952,1.952,0,0,0-.515-1.353,1.723,1.723,0,0,0-1.308-.52,1.726,1.726,0,0,0-1.511.728,4.216,4.216,0,0,0-.51,2.364v.3a4.27,4.27,0,0,0,.505,2.379A1.748,1.748,0,0,0,7.054-.388ZM16.2,1.723H13.328V-9H16.2Zm-3.043-13.5a1.41,1.41,0,0,1,.431-1.06,1.62,1.62,0,0,1,1.174-.416,1.623,1.623,0,0,1,1.169.416,1.4,1.4,0,0,1,.436,1.06,1.406,1.406,0,0,1-.441,1.07,1.627,1.627,0,0,1-1.165.416,1.627,1.627,0,0,1-1.165-.416A1.406,1.406,0,0,1,13.159-11.776Zm4.955,8.038a6.36,6.36,0,0,1,.614-2.844A4.5,4.5,0,0,1,20.5-8.515,5.161,5.161,0,0,1,23.179-9.2a4.883,4.883,0,0,1,3.543,1.328,5.33,5.33,0,0,1,1.531,3.607l.02.733A5.6,5.6,0,0,1,26.9.429a4.788,4.788,0,0,1-3.7,1.492A4.812,4.812,0,0,1,19.5.434a5.7,5.7,0,0,1-1.383-4.044Zm2.864.208A4,4,0,0,0,21.554-1.2,1.9,1.9,0,0,0,23.2-.388a1.9,1.9,0,0,0,1.625-.8,4.374,4.374,0,0,0,.585-2.552,3.958,3.958,0,0,0-.585-2.319,1.9,1.9,0,0,0-1.645-.823,1.871,1.871,0,0,0-1.625.818A4.448,4.448,0,0,0,20.979-3.53Zm2.765-9.97h3.122l-2.745,3.072H21.792ZM32.673-9l.089,1.239A3.744,3.744,0,0,1,35.845-9.2a3.111,3.111,0,0,1,2.537,1A4.67,4.67,0,0,1,39.234-5.2V1.723H36.37V-5.135a1.858,1.858,0,0,0-.4-1.323,1.775,1.775,0,0,0-1.318-.411,1.97,1.97,0,0,0-1.814,1.031V1.723H29.978V-9Zm13.34,5.282a6.462,6.462,0,0,1,1.125-3.994A3.65,3.65,0,0,1,50.215-9.2,3.284,3.284,0,0,1,52.8-8.029V-13.5h2.874V1.723H53.089L52.951.583A3.371,3.371,0,0,1,50.2,1.921,3.64,3.64,0,0,1,47.158.429,6.67,6.67,0,0,1,46.013-3.718Zm2.864.208A4.221,4.221,0,0,0,49.4-1.2a1.712,1.712,0,0,0,1.526.8A1.917,1.917,0,0,0,52.8-1.518V-5.75a1.889,1.889,0,0,0-1.853-1.12Q48.877-6.87,48.877-3.51ZM62.832,1.921A5.264,5.264,0,0,1,58.991.474,5.143,5.143,0,0,1,57.51-3.381v-.277a6.478,6.478,0,0,1,.624-2.889A4.582,4.582,0,0,1,59.9-8.51,4.965,4.965,0,0,1,62.514-9.2a4.45,4.45,0,0,1,3.464,1.387,5.638,5.638,0,0,1,1.264,3.935v1.169H60.413a2.661,2.661,0,0,0,.837,1.685,2.532,2.532,0,0,0,1.769.634,3.092,3.092,0,0,0,2.587-1.2L67.014-.012A4.3,4.3,0,0,1,65.27,1.411,5.723,5.723,0,0,1,62.832,1.921ZM62.5-6.88a1.794,1.794,0,0,0-1.383.575,2.97,2.97,0,0,0-.679,1.645h3.984v-.228a2.117,2.117,0,0,0-.515-1.472A1.851,1.851,0,0,0,62.5-6.88ZM-38.386,25.812H-43.6l-.991,2.973h-3.161l5.372-14.43h2.755l5.4,14.43h-3.162ZM-42.8,23.4h3.607L-41,18Zm12.755,5.381h-2.874V13.563h2.874Zm5.788-13.36v2.636h1.833v2.1h-1.833v5.352a1.278,1.278,0,0,0,.228.852,1.145,1.145,0,0,0,.872.258,4.568,4.568,0,0,0,.842-.069v2.17a5.9,5.9,0,0,1-1.734.258q-3.013,0-3.072-3.043V20.163h-1.566v-2.1h1.566V15.426Zm8.365,13.558a5.264,5.264,0,0,1-3.84-1.447,5.143,5.143,0,0,1-1.482-3.855V23.4a6.478,6.478,0,0,1,.624-2.889,4.582,4.582,0,0,1,1.769-1.962,4.965,4.965,0,0,1,2.611-.689,4.45,4.45,0,0,1,3.464,1.387,5.638,5.638,0,0,1,1.264,3.935v1.169h-6.828a2.661,2.661,0,0,0,.837,1.685,2.532,2.532,0,0,0,1.769.634,3.092,3.092,0,0,0,2.587-1.2l1.407,1.576a4.3,4.3,0,0,1-1.744,1.422A5.723,5.723,0,0,1-15.889,28.984Zm-.327-8.8a1.794,1.794,0,0,0-1.383.575,2.97,2.97,0,0,0-.679,1.645h3.984v-.228a2.117,2.117,0,0,0-.515-1.472A1.851,1.851,0,0,0-16.216,20.183Zm12.388.565a7.781,7.781,0,0,0-1.031-.079,2.1,2.1,0,0,0-2.131,1.1v7.017H-9.853V18.062h2.706l.079,1.278A2.654,2.654,0,0,1-4.68,17.864a3,3,0,0,1,.892.129ZM.186,18.062.276,19.3a3.744,3.744,0,0,1,3.082-1.437,3.111,3.111,0,0,1,2.537,1,4.67,4.67,0,0,1,.852,2.993v6.928H3.883V21.927a1.858,1.858,0,0,0-.4-1.323,1.775,1.775,0,0,0-1.318-.411A1.97,1.97,0,0,0,.355,21.224v7.562H-2.509V18.062ZM15.132,28.785a3.181,3.181,0,0,1-.287-.961,3.466,3.466,0,0,1-2.706,1.16,3.807,3.807,0,0,1-2.611-.912,2.932,2.932,0,0,1-1.036-2.3,3.03,3.03,0,0,1,1.264-2.616,6.235,6.235,0,0,1,3.652-.922h1.318V21.62a1.767,1.767,0,0,0-.382-1.189,1.5,1.5,0,0,0-1.2-.446A1.707,1.707,0,0,0,12,20.332a1.178,1.178,0,0,0-.411.951H8.729A2.877,2.877,0,0,1,9.3,19.559a3.8,3.8,0,0,1,1.625-1.244,5.923,5.923,0,0,1,2.359-.451,4.68,4.68,0,0,1,3.147,1,3.484,3.484,0,0,1,1.165,2.8v4.648a5.127,5.127,0,0,0,.426,2.309v.168Zm-2.369-1.992a2.467,2.467,0,0,0,1.169-.282,1.855,1.855,0,0,0,.793-.758V23.909h-1.07q-2.151,0-2.289,1.487l-.01.168a1.147,1.147,0,0,0,.377.882A1.463,1.463,0,0,0,12.763,26.793ZM23.229,15.426v2.636h1.833v2.1H23.229v5.352a1.278,1.278,0,0,0,.228.852,1.145,1.145,0,0,0,.872.258,4.568,4.568,0,0,0,.842-.069v2.17a5.9,5.9,0,0,1-1.734.258q-3.013,0-3.072-3.043V20.163H18.8v-2.1h1.566V15.426Zm6.452,13.36H26.806V18.062H29.68Zm-3.043-13.5a1.41,1.41,0,0,1,.431-1.06,1.858,1.858,0,0,1,2.344,0,1.513,1.513,0,0,1,0,2.131,1.837,1.837,0,0,1-2.329,0A1.406,1.406,0,0,1,26.638,15.287Zm9.415,10,1.992-7.225h2.993L37.421,28.785H34.685L31.068,18.062h2.993Zm12.309,3.5a3.181,3.181,0,0,1-.287-.961,3.466,3.466,0,0,1-2.706,1.16,3.807,3.807,0,0,1-2.611-.912,2.932,2.932,0,0,1-1.036-2.3,3.03,3.03,0,0,1,1.264-2.616,6.235,6.235,0,0,1,3.652-.922h1.318V21.62a1.767,1.767,0,0,0-.382-1.189,1.5,1.5,0,0,0-1.2-.446,1.707,1.707,0,0,0-1.135.347,1.178,1.178,0,0,0-.411.951H41.96a2.877,2.877,0,0,1,.575-1.724,3.8,3.8,0,0,1,1.625-1.244,5.923,5.923,0,0,1,2.359-.451,4.68,4.68,0,0,1,3.147,1,3.484,3.484,0,0,1,1.165,2.8v4.648a5.127,5.127,0,0,0,.426,2.309v.168Zm-2.369-1.992a2.467,2.467,0,0,0,1.169-.282,1.855,1.855,0,0,0,.793-.758V23.909h-1.07q-2.151,0-2.289,1.487l-.01.168a1.147,1.147,0,0,0,.377.882A1.463,1.463,0,0,0,45.993,26.793Zm12.844-.971a.923.923,0,0,0-.52-.828,5.91,5.91,0,0,0-1.67-.54q-3.826-.8-3.826-3.251a2.946,2.946,0,0,1,1.184-2.384,4.777,4.777,0,0,1,3.1-.956,5.142,5.142,0,0,1,3.266.961,3.03,3.03,0,0,1,1.224,2.5H58.729a1.386,1.386,0,0,0-.4-1.016,1.678,1.678,0,0,0-1.239-.4,1.714,1.714,0,0,0-1.12.327,1.032,1.032,0,0,0-.4.832.883.883,0,0,0,.451.768,4.639,4.639,0,0,0,1.521.505,12.425,12.425,0,0,1,1.8.481,2.963,2.963,0,0,1,2.27,2.884,2.8,2.8,0,0,1-1.259,2.374,5.429,5.429,0,0,1-3.251.907A5.671,5.671,0,0,1,54.72,28.5a4.016,4.016,0,0,1-1.64-1.318,3.063,3.063,0,0,1-.595-1.809H55.2a1.5,1.5,0,0,0,.565,1.169,2.241,2.241,0,0,0,1.407.406,2.074,2.074,0,0,0,1.244-.312A.971.971,0,0,0,58.838,25.822Z" transform="translate(798.047 1293.37)" fill="#1a1a52"/><path d="M-30.857-2.063a1.526,1.526,0,0,0-.595-1.293,7.8,7.8,0,0,0-2.141-.951,15.175,15.175,0,0,1-2.448-.986A4,4,0,0,1-38.5-8.872a3.485,3.485,0,0,1,.659-2.086,4.3,4.3,0,0,1,1.893-1.432,7.125,7.125,0,0,1,2.77-.515,6.485,6.485,0,0,1,2.755.56,4.387,4.387,0,0,1,1.878,1.581,4.136,4.136,0,0,1,.669,2.319h-2.973a1.946,1.946,0,0,0-.624-1.541,2.567,2.567,0,0,0-1.754-.55,2.742,2.742,0,0,0-1.695.461,1.454,1.454,0,0,0-.6,1.214,1.392,1.392,0,0,0,.709,1.179,8.006,8.006,0,0,0,2.086.892,9.014,9.014,0,0,1,3.7,1.893,3.77,3.77,0,0,1,1.16,2.815A3.473,3.473,0,0,1-29.291.856a6.2,6.2,0,0,1-3.816,1.065,7.368,7.368,0,0,1-3.033-.61,4.8,4.8,0,0,1-2.086-1.67,4.277,4.277,0,0,1-.719-2.458h2.983q0,2.388,2.854,2.388a2.777,2.777,0,0,0,1.655-.431A1.4,1.4,0,0,0-30.857-2.063Zm9.742,3.984A5.264,5.264,0,0,1-24.955.474a5.143,5.143,0,0,1-1.482-3.855v-.277a6.478,6.478,0,0,1,.624-2.889A4.582,4.582,0,0,1-24.044-8.51,4.965,4.965,0,0,1-21.432-9.2a4.45,4.45,0,0,1,3.464,1.387A5.638,5.638,0,0,1-16.7-3.877v1.169h-6.828A2.661,2.661,0,0,0-22.7-1.022a2.532,2.532,0,0,0,1.769.634,3.092,3.092,0,0,0,2.587-1.2l1.407,1.576a4.3,4.3,0,0,1-1.744,1.422A5.723,5.723,0,0,1-21.115,1.921Zm-.327-8.8a1.794,1.794,0,0,0-1.383.575A2.97,2.97,0,0,0-23.5-4.66h3.984v-.228a2.117,2.117,0,0,0-.515-1.472A1.851,1.851,0,0,0-21.442-6.88Zm9.385,8.6h-2.874V-13.5h2.874Zm7.294.2A5.264,5.264,0,0,1-8.6.474a5.143,5.143,0,0,1-1.482-3.855v-.277A6.478,6.478,0,0,1-9.46-6.548,4.582,4.582,0,0,1-7.691-8.51,4.965,4.965,0,0,1-5.08-9.2,4.45,4.45,0,0,1-1.616-7.811,5.638,5.638,0,0,1-.352-3.877v1.169H-7.181a2.661,2.661,0,0,0,.837,1.685,2.532,2.532,0,0,0,1.769.634,3.092,3.092,0,0,0,2.587-1.2L-.58-.012A4.3,4.3,0,0,1-2.324,1.411,5.723,5.723,0,0,1-4.762,1.921Zm-.327-8.8A1.794,1.794,0,0,0-6.472-6.3,2.97,2.97,0,0,0-7.151-4.66h3.984v-.228a2.117,2.117,0,0,0-.515-1.472A1.851,1.851,0,0,0-5.09-6.88ZM5.733-.388A1.879,1.879,0,0,0,7.021-.824a1.528,1.528,0,0,0,.515-1.16h2.686a3.674,3.674,0,0,1-.595,2,3.924,3.924,0,0,1-1.6,1.407,5.009,5.009,0,0,1-2.245.5A4.655,4.655,0,0,1,2.155.459,5.785,5.785,0,0,1,.827-3.579v-.188A5.719,5.719,0,0,1,2.145-7.722,4.6,4.6,0,0,1,5.763-9.2,4.51,4.51,0,0,1,8.989-8.054a4.053,4.053,0,0,1,1.234,3.048H7.537a1.952,1.952,0,0,0-.515-1.353,1.723,1.723,0,0,0-1.308-.52A1.726,1.726,0,0,0,4.2-6.151a4.216,4.216,0,0,0-.51,2.364v.3A4.27,4.27,0,0,0,4.2-1.112,1.748,1.748,0,0,0,5.733-.388Zm10.585,0a1.879,1.879,0,0,0,1.288-.436,1.528,1.528,0,0,0,.515-1.16h2.686a3.674,3.674,0,0,1-.595,2,3.924,3.924,0,0,1-1.6,1.407,5.009,5.009,0,0,1-2.245.5A4.655,4.655,0,0,1,12.74.459a5.785,5.785,0,0,1-1.328-4.039v-.188A5.719,5.719,0,0,1,12.73-7.722,4.6,4.6,0,0,1,16.347-9.2a4.51,4.51,0,0,1,3.226,1.145,4.053,4.053,0,0,1,1.234,3.048H18.121a1.952,1.952,0,0,0-.515-1.353A1.723,1.723,0,0,0,16.3-6.88a1.726,1.726,0,0,0-1.511.728,4.216,4.216,0,0,0-.51,2.364v.3a4.27,4.27,0,0,0,.505,2.379A1.748,1.748,0,0,0,16.317-.388Zm9.148,2.111H22.591V-9h2.874Zm-3.043-13.5a1.41,1.41,0,0,1,.431-1.06,1.62,1.62,0,0,1,1.174-.416,1.623,1.623,0,0,1,1.169.416,1.4,1.4,0,0,1,.436,1.06,1.406,1.406,0,0,1-.441,1.07,1.627,1.627,0,0,1-1.165.416,1.627,1.627,0,0,1-1.165-.416A1.406,1.406,0,0,1,22.422-11.776Zm4.955,8.038a6.36,6.36,0,0,1,.614-2.844,4.5,4.5,0,0,1,1.769-1.933A5.161,5.161,0,0,1,32.442-9.2a4.883,4.883,0,0,1,3.543,1.328,5.33,5.33,0,0,1,1.531,3.607l.02.733A5.6,5.6,0,0,1,36.159.429a4.788,4.788,0,0,1-3.7,1.492A4.812,4.812,0,0,1,28.76.434a5.7,5.7,0,0,1-1.383-4.044Zm2.864.208A4,4,0,0,0,30.817-1.2a1.9,1.9,0,0,0,1.645.808,1.9,1.9,0,0,0,1.625-.8,4.374,4.374,0,0,0,.585-2.552,3.958,3.958,0,0,0-.585-2.319,1.9,1.9,0,0,0-1.645-.823,1.871,1.871,0,0,0-1.625.818A4.448,4.448,0,0,0,30.242-3.53Zm2.765-9.97h3.122l-2.745,3.072H31.055ZM41.937-9l.089,1.239A3.744,3.744,0,0,1,45.108-9.2a3.111,3.111,0,0,1,2.537,1A4.67,4.67,0,0,1,48.5-5.2V1.723H45.633V-5.135a1.858,1.858,0,0,0-.4-1.323,1.775,1.775,0,0,0-1.318-.411,1.97,1.97,0,0,0-1.814,1.031V1.723H39.241V-9Z" transform="translate(1024.744 1221.203)" fill="#1a1a52"/><path d="M-28.144-3.56h-2.369V1.723h-2.973v-14.43h5.362a6.061,6.061,0,0,1,3.944,1.14,3.934,3.934,0,0,1,1.387,3.221,4.439,4.439,0,0,1-.639,2.463,4.36,4.36,0,0,1-1.938,1.571l3.122,5.9v.139h-3.191Zm-2.369-2.408h2.4a2.456,2.456,0,0,0,1.734-.57,2.037,2.037,0,0,0,.614-1.571,2.18,2.18,0,0,0-.58-1.606,2.409,2.409,0,0,0-1.779-.585h-2.388Zm14.727,7.889A5.264,5.264,0,0,1-19.626.474a5.143,5.143,0,0,1-1.482-3.855v-.277a6.478,6.478,0,0,1,.624-2.889A4.582,4.582,0,0,1-18.714-8.51,4.965,4.965,0,0,1-16.1-9.2a4.45,4.45,0,0,1,3.464,1.387,5.638,5.638,0,0,1,1.264,3.935v1.169H-18.2a2.661,2.661,0,0,0,.837,1.685A2.532,2.532,0,0,0-15.6-.388a3.092,3.092,0,0,0,2.587-1.2L-11.6-.012a4.3,4.3,0,0,1-1.744,1.422A5.723,5.723,0,0,1-15.786,1.921Zm-.327-8.8A1.794,1.794,0,0,0-17.5-6.3a2.97,2.97,0,0,0-.679,1.645h3.984v-.228a2.117,2.117,0,0,0-.515-1.472A1.851,1.851,0,0,0-16.113-6.88Zm10.248,5.1L-3.873-9H-.88L-4.5,1.723H-7.233L-10.85-9h2.993ZM3.4,1.723H.527V-9H3.4ZM.359-11.776a1.41,1.41,0,0,1,.431-1.06,1.62,1.62,0,0,1,1.174-.416,1.623,1.623,0,0,1,1.169.416,1.4,1.4,0,0,1,.436,1.06,1.406,1.406,0,0,1-.441,1.07,1.627,1.627,0,0,1-1.165.416A1.627,1.627,0,0,1,.8-10.705,1.406,1.406,0,0,1,.359-11.776ZM11.568-1.241a.923.923,0,0,0-.52-.828,5.91,5.91,0,0,0-1.67-.54q-3.826-.8-3.826-3.251A2.946,2.946,0,0,1,6.736-8.242a4.777,4.777,0,0,1,3.1-.956,5.142,5.142,0,0,1,3.266.961,3.03,3.03,0,0,1,1.224,2.5H11.459a1.386,1.386,0,0,0-.4-1.016,1.678,1.678,0,0,0-1.239-.4A1.714,1.714,0,0,0,8.7-6.83a1.032,1.032,0,0,0-.4.832.883.883,0,0,0,.451.768,4.639,4.639,0,0,0,1.521.505,12.426,12.426,0,0,1,1.8.481,2.963,2.963,0,0,1,2.27,2.884,2.8,2.8,0,0,1-1.259,2.374,5.429,5.429,0,0,1-3.251.907A5.671,5.671,0,0,1,7.45,1.44,4.016,4.016,0,0,1,5.809.122a3.063,3.063,0,0,1-.595-1.809H7.93A1.5,1.5,0,0,0,8.5-.517,2.241,2.241,0,0,0,9.9-.111a2.074,2.074,0,0,0,1.244-.312A.971.971,0,0,0,11.568-1.241Zm7.651,2.963H16.344V-9h2.874Zm-3.043-13.5a1.41,1.41,0,0,1,.431-1.06,1.62,1.62,0,0,1,1.174-.416,1.623,1.623,0,0,1,1.169.416,1.4,1.4,0,0,1,.436,1.06,1.406,1.406,0,0,1-.441,1.07,1.627,1.627,0,0,1-1.165.416,1.627,1.627,0,0,1-1.165-.416A1.406,1.406,0,0,1,16.176-11.776Zm4.955,8.038a6.36,6.36,0,0,1,.614-2.844,4.5,4.5,0,0,1,1.769-1.933A5.161,5.161,0,0,1,26.2-9.2a4.883,4.883,0,0,1,3.543,1.328A5.33,5.33,0,0,1,31.27-4.263l.02.733A5.6,5.6,0,0,1,29.912.429a4.788,4.788,0,0,1-3.7,1.492,4.812,4.812,0,0,1-3.7-1.487,5.7,5.7,0,0,1-1.383-4.044ZM24-3.53A4,4,0,0,0,24.57-1.2a1.9,1.9,0,0,0,1.645.808,1.9,1.9,0,0,0,1.625-.8,4.374,4.374,0,0,0,.585-2.552,3.958,3.958,0,0,0-.585-2.319A1.9,1.9,0,0,0,26.2-6.88a1.871,1.871,0,0,0-1.625.818A4.448,4.448,0,0,0,24-3.53Zm2.765-9.97h3.122l-2.745,3.072H24.808ZM35.69-9l.089,1.239A3.744,3.744,0,0,1,38.861-9.2a3.111,3.111,0,0,1,2.537,1A4.67,4.67,0,0,1,42.251-5.2V1.723H39.387V-5.135a1.858,1.858,0,0,0-.4-1.323,1.775,1.775,0,0,0-1.318-.411,1.97,1.97,0,0,0-1.814,1.031V1.723H32.994V-9Z" transform="translate(1150.606 1034.02)" fill="#1a1a52"/><path d="M6.333-13.793H8.814a3.5,3.5,0,0,0,2.626-.886,3.247,3.247,0,0,0,.854-2.353,2.871,2.871,0,0,0-.846-2.208,3.278,3.278,0,0,0-2.328-.79,3.436,3.436,0,0,0-2.24.733,2.344,2.344,0,0,0-.9,1.909H1.321a5.727,5.727,0,0,1,.991-3.3,6.6,6.6,0,0,1,2.771-2.28,9.25,9.25,0,0,1,3.924-.822A8.772,8.772,0,0,1,14.84-22,6.075,6.075,0,0,1,16.951-17.1a4.937,4.937,0,0,1-.983,2.965,6.386,6.386,0,0,1-2.578,2.079,5.829,5.829,0,0,1,2.957,2.127,5.77,5.77,0,0,1,.975,3.352,6.176,6.176,0,0,1-2.28,5.011A9.167,9.167,0,0,1,9.007.322,8.692,8.692,0,0,1,3.263-1.531a6.052,6.052,0,0,1-2.232-4.9H5.688A2.7,2.7,0,0,0,6.679-4.27a3.652,3.652,0,0,0,2.441.838,3.669,3.669,0,0,0,2.6-.878,3.031,3.031,0,0,0,.943-2.328q0-3.513-3.867-3.513H6.333Z" transform="translate(739 1230)" fill="#1a1a52"/><path d="M15.372-8.83h2.659v3.754H15.372V0H10.715V-5.076H1.1L.886-8.008l9.781-15.453h4.705Zm-9.845,0h5.188v-8.282l-.306.532Z" transform="translate(935 1198)" fill="#1a1a52"/><path d="M2.288-11.537,3.642-23.461H16.79v3.883H7.46l-.58,5.043a7.383,7.383,0,0,1,3.529-.886,6.762,6.762,0,0,1,5.253,2.079,8.3,8.3,0,0,1,1.9,5.817A8.506,8.506,0,0,1,16.6-3.456,6.767,6.767,0,0,1,13.857-.669,8.577,8.577,0,0,1,9.636.322,9.107,9.107,0,0,1,5.688-.54,7,7,0,0,1,2.812-2.965a6.609,6.609,0,0,1-1.12-3.561H6.3a3.442,3.442,0,0,0,1.023,2.28,3.244,3.244,0,0,0,2.3.814,2.863,2.863,0,0,0,2.433-1.136,5.262,5.262,0,0,0,.854-3.215,4.352,4.352,0,0,0-.983-3.062,3.607,3.607,0,0,0-2.788-1.063,4.031,4.031,0,0,0-2.691.87l-.451.419Z" transform="translate(1064 1055)" fill="#1a1a52"/></g></svg>