<svg xmlns="http://www.w3.org/2000/svg" width="210" height="210" viewBox="0 0 210 210">
  <g id="Grupo_85449" data-name="Grupo 85449" transform="translate(962.75 6136.5)">
    <g id="Grupo_82596" data-name="Grupo 82596" transform="translate(-2963 583.673)">
      <rect id="Rectángulo_35034" data-name="Rectángulo 35034" width="210" height="210" rx="105" transform="translate(2000.25 -6720.173)" fill="#e5fff4"/>
    </g>
    <g id="relacion-publica" transform="translate(-927.061 -6100.813)">
      <path id="Trazado_115832" data-name="Trazado 115832" d="M307.493,7.5H247.322a5.47,5.47,0,0,0-5.47,5.47V62.2a5.47,5.47,0,0,0,5.47,5.47h30.359a1.641,1.641,0,0,1,1.641,1.641v8.53a1.641,1.641,0,0,0,2.691,1.261l13.11-10.925a2.188,2.188,0,0,1,1.4-.507h10.969a5.47,5.47,0,0,0,5.47-5.47V12.974a5.47,5.47,0,0,0-5.47-5.47Z" transform="translate(-176.371 -5.47)" fill="#13b770"/>
      <path id="Trazado_115833" data-name="Trazado 115833" d="M340.783,7.5h-6.174c-.725,13.638-8.224,29.546-21.446,42.767a78.959,78.959,0,0,1-25.661,17.4h23.469a1.641,1.641,0,0,1,1.641,1.641v8.53a1.641,1.641,0,0,0,2.691,1.261l13.11-10.925a2.188,2.188,0,0,1,1.4-.507h10.969a5.47,5.47,0,0,0,5.47-5.47V12.974a5.47,5.47,0,0,0-5.47-5.47Z" transform="translate(-209.662 -5.47)" fill="#13b770"/>
      <g id="Grupo_82597" data-name="Grupo 82597" transform="translate(2.028 34)">
        <path id="Trazado_115834" data-name="Trazado 115834" d="M231.533,192.186l-3.79,2.188a2.188,2.188,0,0,1-2.989-.8l-36.1-62.531a2.188,2.188,0,0,1,.8-2.989l3.79-2.188a2.188,2.188,0,0,1,2.989.8l36.1,62.531a2.188,2.188,0,0,1-.8,2.989Z" transform="translate(-139.389 -125.572)" fill="#eecf52"/>
        <path id="Trazado_115835" data-name="Trazado 115835" d="M273.7,213.844l-3.488,3.787L253.8,189.208l5.023-1.127a5.47,5.47,0,0,1,5.935,2.6l9.653,16.721A5.47,5.47,0,0,1,273.7,213.844Z" transform="translate(-187.115 -171.059)" fill="#79dfef"/>
        <path id="Trazado_115836" data-name="Trazado 115836" d="M271.029,223.383a94.761,94.761,0,0,1,1.129,18.515l12.725,22.041a2.188,2.188,0,0,0,2.989.8l3.79-2.188a2.188,2.188,0,0,0,.8-2.989l-21.651-37.5Q270.925,222.721,271.029,223.383Z" transform="translate(-199.519 -195.938)" fill="#eecf52"/>
        <path id="Trazado_115837" data-name="Trazado 115837" d="M108.829,428.7l-3.269,1.887a2.735,2.735,0,0,1-3.422-.563L85.2,410.762l12.317-7.111,12.308,21.318A2.735,2.735,0,0,1,108.829,428.7Z" transform="translate(-64.164 -328.362)" fill="#dff6fd"/>
        <path id="Trazado_115838" data-name="Trazado 115838" d="M85.206,410.763l4.787,5.447,11.085-6.4-3.555-6.158Z" transform="translate(-64.165 -328.363)" fill="#c8effe"/>
        <path id="Trazado_115839" data-name="Trazado 115839" d="M137.946,411.156l2.193-1.266a2.735,2.735,0,0,0,1.341-2.748l-1.459-10.415L130.7,398.6Z" transform="translate(-97.34 -323.312)" fill="#528fd8"/>
        <path id="Trazado_115840" data-name="Trazado 115840" d="M136.864,213.121,86.5,223.251l-16.41-28.423,33.956-38.554Z" transform="translate(-53.139 -147.961)" fill="#dff6fd"/>
        <path id="Trazado_115841" data-name="Trazado 115841" d="M154.634,163.347c5.15,9.059,6.331,23.656,2.244,38.911A68.167,68.167,0,0,1,148,222.309l45.681-9.188-32.821-56.847Z" transform="translate(-109.96 -147.961)" fill="#c8effe"/>
        <path id="Trazado_115842" data-name="Trazado 115842" d="M40.849,327.094l-14.212,8.2a5.47,5.47,0,0,1-7.472-2L8.225,314.348a5.47,5.47,0,0,1,2-7.472l14.212-8.205Z" transform="translate(-7.491 -251.805)" fill="#eecf52"/>
        <path id="Trazado_115843" data-name="Trazado 115843" d="M0,0H7.658V32.821H0Z" transform="matrix(0.866, -0.5, 0.5, 0.866, 10.315, 50.693)" fill="#eecf52"/>
      </g>
      <g id="Grupo_82598" data-name="Grupo 82598" transform="translate(0 0.003)">
        <path id="Trazado_115844" data-name="Trazado 115844" d="M136.592,22.92a2.03,2.03,0,0,0,2.031-2.031V7.5a7.508,7.508,0,0,0-7.5-7.5H70.951a7.508,7.508,0,0,0-7.5,7.5V38.968l-2.822-4.887a4.224,4.224,0,0,0-5.764-1.546l-3.786,2.187a4.218,4.218,0,0,0-1.546,5.764l.912,1.579L17.672,79.275,3.749,87.313A7.509,7.509,0,0,0,1,97.559l10.94,18.949a7.5,7.5,0,0,0,10.246,2.745l.452-.261,5.613,6.388a2.031,2.031,0,0,0,3.051-2.681l-5.077-5.778,8.414-4.858,11.293,19.56a.7.7,0,0,1-.259.962l-3.266,1.885a.711.711,0,0,1-.885-.144l-3.967-4.511a2.031,2.031,0,0,0-3.05,2.682l3.968,4.512a4.785,4.785,0,0,0,5.961.98l3.267-1.886a4.764,4.764,0,0,0,1.746-6.511l-4.045-7.006.435-.251a4.747,4.747,0,0,0,2.337-4.788l-1.194-8.52,37.738-7.59.911,1.577a4.189,4.189,0,0,0,2.562,1.968,4.2,4.2,0,0,0,3.2-.421l3.791-2.188a4.217,4.217,0,0,0,1.541-5.763l-9.1-15.76,2.477-2.689a7.468,7.468,0,0,0,.978-8.832l-2.94-5.093H100.92v8.139a3.64,3.64,0,0,0,2.114,3.326,3.641,3.641,0,0,0,3.908-.5l13.111-10.926a.16.16,0,0,1,.1-.034h10.968a7.51,7.51,0,0,0,7.5-7.5V30.366a2.031,2.031,0,1,0-4.061,0V56.734a3.444,3.444,0,0,1-3.438,3.441H120.155a4.226,4.226,0,0,0-2.7.977l-12.47,10.392v-7.7a3.675,3.675,0,0,0-3.671-3.671H85.8l-4.369-7.567A7.469,7.469,0,0,0,73.3,49.04l-3.567.8L67.513,46V7.5a3.442,3.442,0,0,1,3.438-3.438h60.172A3.442,3.442,0,0,1,134.561,7.5V20.889a2.03,2.03,0,0,0,2.031,2.031ZM20.159,115.736a3.443,3.443,0,0,1-4.7-1.259l-.352-.61,2.979-1.72a2.031,2.031,0,1,0-2.031-3.517l-2.979,1.72-2.072-3.589,2.979-1.72a2.031,2.031,0,0,0-2.031-3.517l-2.979,1.72L6.9,99.656l2.979-1.72a2.031,2.031,0,0,0-2.031-3.517l-2.979,1.72-.352-.61a3.439,3.439,0,0,1,1.259-4.7l12.453-7.19,14.379,24.906Zm24,2.374a.7.7,0,0,1-.345.708l-.435.251-4.819-8.347L43,109.83ZM93.23,98.761a.15.15,0,0,1-.072.095l-3.789,2.187a.154.154,0,0,1-.122.017.15.15,0,0,1-.095-.074L82.73,89.863a2.031,2.031,0,1,0-3.517,2.031l3.368,5.833-46.165,9.285-14.952-25.9L52.587,45.777,74.475,83.687a2.031,2.031,0,1,0,3.517-2.031L53.05,38.455a.157.157,0,0,1,.058-.215l3.786-2.187a.156.156,0,0,1,.217.057l36.1,62.532a.15.15,0,0,1,.016.119ZM74.184,53a3.425,3.425,0,0,1,3.732,1.636L87.569,71.36a3.424,3.424,0,0,1-.449,4.05L85.5,77.165,71.855,53.525Z" transform="translate(0 -0.003)"/>
        <path id="Trazado_115845" data-name="Trazado 115845" d="M401.2,68.458a9.064,9.064,0,0,0-9.24-8.854h-6.986a2.03,2.03,0,0,0-2.031,2.031V87.891a2.031,2.031,0,0,0,4.061,0V77.332h.165l10.475,11.9A2.031,2.031,0,1,0,400.7,86.55l-8.147-9.256a9.035,9.035,0,0,0,8.653-8.835Zm-9.241,4.793c-1.124,0-3.294.01-4.91.019-.009-1.594-.025-7.946-.03-9.605h4.94a4.808,4.808,0,1,1,0,9.586Z" transform="translate(-279.266 -43.467)"/>
        <path id="Trazado_115846" data-name="Trazado 115846" d="M298,59.6a2.045,2.045,0,0,0-2.031,2.031V87.89a2.031,2.031,0,0,0,4.061,0V78.5c1.7-.009,4.073-.021,5.28-.021a9.441,9.441,0,1,0,0-18.88H298Zm12.835,9.44a5.526,5.526,0,0,1-5.524,5.379c-1.2,0-3.539.011-5.241.021-.009-1.747-.028-8.961-.033-10.779h5.274A5.526,5.526,0,0,1,310.839,69.043Z" transform="translate(-215.839 -43.466)"/>
      </g>
    </g>
  </g>
</svg>
