<svg xmlns="http://www.w3.org/2000/svg" width="210" height="210" viewBox="0 0 210 210">
  <g id="Grupo_82595" data-name="Grupo 82595" transform="translate(-2000.25 6720.173)">
    <rect id="Rectángulo_35034" data-name="Rectángulo 35034" width="210" height="210" rx="105" transform="translate(2000.25 -6720.173)" fill="#e5fff4"/>
    <g id="corrupcion" transform="translate(2026 -6691.173)">
      <path id="Trazado_115781" data-name="Trazado 115781" d="M111.524,246.719c13.968,10.13,23.726,23.775,23.726,40.022a39.625,39.625,0,0,1-79.25,0c0-16.246,9.758-29.5,23.726-39.625Zm0,0" transform="translate(-38.664 -170.342)" fill="#eecf52"/>
      <path id="Trazado_115782" data-name="Trazado 115782" d="M188.852,246.719l-9.745.122c13.879,10.117,23.565,23.717,23.565,39.9A39.61,39.61,0,0,1,168,326.021a39.375,39.375,0,0,0,44.578-39.28C212.578,270.494,202.821,256.849,188.852,246.719Zm0,0" transform="translate(-115.992 -170.342)" fill="#f8f0cf"/>
      <path id="Trazado_115783" data-name="Trazado 115783" d="M162.672,337.336a17.336,17.336,0,1,0-17.336,17.336A17.323,17.323,0,0,0,162.672,337.336Zm0,0" transform="translate(-88.375 -220.938)" fill="#ed5565"/>
      <path id="Trazado_115784" data-name="Trazado 115784" d="M168.766,45.545l-4.953,12.383H148.953L144,45.545s7.43-2.477,12.383,0S168.766,45.545,168.766,45.545Zm0,0" transform="translate(-99.422 -30.686)" fill="#eecf52"/>
      <path id="Trazado_115785" data-name="Trazado 115785" d="M447.43,184v32.2H440V184Zm0,0" transform="translate(-303.789 -127.039)" fill="#e6e9ed"/>
      <path id="Trazado_115786" data-name="Trazado 115786" d="M368.2,64.961V92.2H350.859A14.854,14.854,0,0,1,336,77.344V14.191a6.2,6.2,0,0,1,12.259-1.262l12.506,49.555a2.484,2.484,0,0,0,2.477,2.477Zm0,0" transform="translate(-231.984 -5.523)" fill="#eac6bb"/>
      <path id="Trazado_115787" data-name="Trazado 115787" d="M145.336,320A17.336,17.336,0,1,1,128,337.336,17.323,17.323,0,0,1,145.336,320Zm0,0" transform="translate(-88.375 -220.938)" fill="#ffce54"/>
      <path id="Trazado_115788" data-name="Trazado 115788" d="M172.953,320a17.313,17.313,0,0,0-4.953.726,17.329,17.329,0,0,1,0,33.216A17.333,17.333,0,1,0,172.953,320Zm0,0" transform="translate(-115.992 -220.938)" fill="#f6bb42"/>
      <path id="Trazado_115789" data-name="Trazado 115789" d="M55.43,157.719V160.2H48V128h7.43Zm0,0" transform="translate(-33.141 -88.375)" fill="#e6e9ed"/>
      <path id="Trazado_115790" data-name="Trazado 115790" d="M120.293,88a6.179,6.179,0,1,1,0,12.359v.024a6.179,6.179,0,1,1,0,12.359v.024a6.179,6.179,0,1,1,0,12.359v.024a6.18,6.18,0,0,1,2.13,11.986,6.076,6.076,0,0,1-2.13.372v.024H89.336L76.953,130.1H72V102.859h4.953L91.813,88Zm0,0" transform="translate(-49.711 -60.758)" fill="#eac6bb"/>
      <path id="Trazado_115791" data-name="Trazado 115791" d="M8,112H20.383v42.1H8Zm0,0" transform="translate(-5.523 -77.328)" fill="#656d78"/>
      <path id="Trazado_115792" data-name="Trazado 115792" d="M464,168h12.383v42.1H464Zm0,0" transform="translate(-320.359 -115.992)" fill="#656d78"/>
      <path id="Trazado_115793" data-name="Trazado 115793" d="M330.477,11.145A2.474,2.474,0,0,1,328,8.668a8.669,8.669,0,0,1,17.161-1.746,2.477,2.477,0,0,1-4.852,1,3.716,3.716,0,0,0-7.356.747A2.474,2.474,0,0,1,330.477,11.145Zm0,0" transform="translate(-226.461)"/>
      <path id="Trazado_115794" data-name="Trazado 115794" d="M382.572,70.462a2.479,2.479,0,0,1-2.4-1.87L367.663,19.052a2.478,2.478,0,1,1,4.8-1.214l12.51,49.541a2.48,2.48,0,0,1-1.8,3.01A2.577,2.577,0,0,1,382.572,70.462Zm0,0" transform="translate(-253.793 -11.025)"/>
      <path id="Trazado_115795" data-name="Trazado 115795" d="M412.953,183.43A4.958,4.958,0,0,1,408,178.477a2.477,2.477,0,0,1,4.953,0v0a2.474,2.474,0,1,1,0,4.948Zm0,0" transform="translate(-281.695 -121.516)"/>
      <path id="Trazado_115796" data-name="Trazado 115796" d="M330.477,88.105A2.474,2.474,0,0,1,328,85.629V22.477a2.477,2.477,0,0,1,4.953,0V85.629A2.474,2.474,0,0,1,330.477,88.105Zm0,0" transform="translate(-226.461 -13.809)"/>
      <path id="Trazado_115797" data-name="Trazado 115797" d="M345.336,243.812A17.359,17.359,0,0,1,328,226.477a2.477,2.477,0,0,1,4.953,0,12.4,12.4,0,0,0,12.383,12.383,2.477,2.477,0,0,1,0,4.953Zm0,0" transform="translate(-226.461 -154.656)"/>
      <path id="Trazado_115798" data-name="Trazado 115798" d="M395.812,276.953H378.477a2.477,2.477,0,0,1,0-4.953h17.336a2.477,2.477,0,0,1,0,4.953Zm0,0" transform="translate(-259.602 -187.797)"/>
      <path id="Trazado_115799" data-name="Trazado 115799" d="M342.859,131.145a2.474,2.474,0,0,1-2.477-2.477,3.715,3.715,0,0,0-7.43,0,2.477,2.477,0,0,1-4.953,0,8.668,8.668,0,0,1,17.336,0A2.474,2.474,0,0,1,342.859,131.145Zm0,0" transform="translate(-226.461 -82.852)"/>
      <path id="Trazado_115800" data-name="Trazado 115800" d="M222.484,97.331a2.477,2.477,0,0,1,0-4.953,3.712,3.712,0,0,0,0-7.425,2.477,2.477,0,0,1,0-4.953,8.666,8.666,0,0,1,0,17.331Zm0,0" transform="translate(-151.9 -55.234)"/>
      <path id="Trazado_115801" data-name="Trazado 115801" d="M222.484,137.331a2.477,2.477,0,0,1,0-4.953,3.712,3.712,0,0,0,0-7.425,2.477,2.477,0,0,1,0-4.953,8.666,8.666,0,0,1,0,17.331Zm0,0" transform="translate(-151.9 -82.852)"/>
      <path id="Trazado_115802" data-name="Trazado 115802" d="M222.484,177.331a2.477,2.477,0,0,1,0-4.953,3.712,3.712,0,0,0,0-7.425,2.477,2.477,0,0,1,0-4.953,8.666,8.666,0,0,1,0,17.331Zm0,0" transform="translate(-151.9 -110.469)"/>
      <path id="Trazado_115803" data-name="Trazado 115803" d="M222.484,217.331a2.477,2.477,0,0,1,0-4.953,3.712,3.712,0,0,0,0-7.425,2.477,2.477,0,0,1,0-4.953,8.666,8.666,0,0,1,0,17.331Zm0,0" transform="translate(-151.9 -138.086)"/>
      <path id="Trazado_115804" data-name="Trazado 115804" d="M370.477,161.051A2.474,2.474,0,0,1,368,158.574v-16.1a2.477,2.477,0,0,1,4.953,0v16.1A2.474,2.474,0,0,1,370.477,161.051Zm0,0" transform="translate(-254.078 -96.66)"/>
      <path id="Trazado_115805" data-name="Trazado 115805" d="M423.43,188.953h-4.953a2.477,2.477,0,0,1,0-4.953h4.953a2.477,2.477,0,0,1,0,4.953Zm0,0" transform="translate(-287.219 -127.039)"/>
      <path id="Trazado_115806" data-name="Trazado 115806" d="M434.477,213.148A2.474,2.474,0,0,1,432,210.672v-32.2a2.477,2.477,0,0,1,4.953,0v32.2A2.474,2.474,0,0,1,434.477,213.148Zm0,0" transform="translate(-298.266 -121.516)"/>
      <path id="Trazado_115807" data-name="Trazado 115807" d="M441.906,284.953h-7.43a2.477,2.477,0,0,1,0-4.953h7.43a2.477,2.477,0,0,1,0,4.953Zm0,0" transform="translate(-298.266 -193.32)"/>
      <path id="Trazado_115808" data-name="Trazado 115808" d="M441.906,180.953h-7.43a2.477,2.477,0,0,1,0-4.953h7.43a2.477,2.477,0,0,1,0,4.953Zm0,0" transform="translate(-298.266 -121.516)"/>
      <path id="Trazado_115809" data-name="Trazado 115809" d="M458.477,207.055A2.474,2.474,0,0,1,456,204.578v-42.1a2.477,2.477,0,0,1,4.953,0v42.1A2.474,2.474,0,0,1,458.477,207.055Zm0,0" transform="translate(-314.836 -110.469)"/>
      <path id="Trazado_115810" data-name="Trazado 115810" d="M470.859,300.953H458.477a2.477,2.477,0,0,1,0-4.953h12.383a2.477,2.477,0,0,1,0,4.953Zm0,0" transform="translate(-314.836 -204.367)"/>
      <path id="Trazado_115811" data-name="Trazado 115811" d="M470.859,164.953H458.477a2.477,2.477,0,0,1,0-4.953h12.383a2.477,2.477,0,0,1,0,4.953Zm0,0" transform="translate(-314.836 -110.469)"/>
      <path id="Trazado_115812" data-name="Trazado 115812" d="M66.477,157.148A2.474,2.474,0,0,1,64,154.672v-32.2a2.477,2.477,0,0,1,4.953,0v32.2A2.474,2.474,0,0,1,66.477,157.148Zm0,0" transform="translate(-44.188 -82.852)"/>
      <path id="Trazado_115813" data-name="Trazado 115813" d="M49.906,228.953h-7.43a2.477,2.477,0,0,1,0-4.953h7.43a2.477,2.477,0,1,1,0,4.953Zm0,0" transform="translate(-27.617 -154.656)"/>
      <path id="Trazado_115814" data-name="Trazado 115814" d="M49.906,124.953h-7.43a2.477,2.477,0,0,1,0-4.953h7.43a2.477,2.477,0,0,1,0,4.953Zm0,0" transform="translate(-27.617 -82.852)"/>
      <path id="Trazado_115815" data-name="Trazado 115815" d="M42.477,151.055A2.474,2.474,0,0,1,40,148.578v-42.1a2.477,2.477,0,0,1,4.953,0v42.1A2.474,2.474,0,0,1,42.477,151.055Zm0,0" transform="translate(-27.617 -71.805)"/>
      <path id="Trazado_115816" data-name="Trazado 115816" d="M14.859,244.953H2.477a2.477,2.477,0,0,1,0-4.953H14.859a2.477,2.477,0,0,1,0,4.953Zm0,0" transform="translate(0 -165.703)"/>
      <path id="Trazado_115817" data-name="Trazado 115817" d="M14.859,108.953H2.477a2.477,2.477,0,0,1,0-4.953H14.859a2.477,2.477,0,0,1,0,4.953Zm0,0" transform="translate(0 -71.805)"/>
      <path id="Trazado_115818" data-name="Trazado 115818" d="M71.43,132.953H66.477a2.477,2.477,0,0,1,0-4.953H71.43a2.477,2.477,0,0,1,0,4.953Zm0,0" transform="translate(-44.188 -88.375)"/>
      <path id="Trazado_115819" data-name="Trazado 115819" d="M71.43,220.953H66.477a2.477,2.477,0,0,1,0-4.953H71.43a2.477,2.477,0,0,1,0,4.953Zm0,0" transform="translate(-44.188 -149.133)"/>
      <path id="Trazado_115820" data-name="Trazado 115820" d="M82.475,99.81a2.477,2.477,0,0,1-1.751-4.228L95.583,80.724a2.476,2.476,0,0,1,3.5,3.5L84.226,99.085A2.472,2.472,0,0,1,82.475,99.81Zm0,0" transform="translate(-55.232 -55.232)"/>
      <path id="Trazado_115821" data-name="Trazado 115821" d="M158.959,84.953H130.477a2.477,2.477,0,0,1,0-4.953h28.483a2.477,2.477,0,0,1,0,4.953Zm0,0" transform="translate(-88.375 -55.234)"/>
      <path id="Trazado_115822" data-name="Trazado 115822" d="M153.436,244.953H122.477a2.477,2.477,0,0,1,0-4.953h30.959a2.477,2.477,0,0,1,0,4.953Zm0,0" transform="translate(-82.852 -165.703)"/>
      <path id="Trazado_115823" data-name="Trazado 115823" d="M94.853,228.38a2.462,2.462,0,0,1-1.273-.354L81.2,220.6a2.477,2.477,0,0,1,2.549-4.247l12.383,7.43a2.477,2.477,0,0,1-1.276,4.6Zm0,0" transform="translate(-55.231 -149.13)"/>
      <path id="Trazado_115824" data-name="Trazado 115824" d="M143.426,57.33a2.479,2.479,0,0,1-2.3-1.558l-4.953-12.383a2.478,2.478,0,1,1,4.6-1.838l4.953,12.383a2.48,2.48,0,0,1-1.382,3.22A2.451,2.451,0,0,1,143.426,57.33Zm0,0" transform="translate(-93.895 -27.611)"/>
      <path id="Trazado_115825" data-name="Trazado 115825" d="M202.473,57.329a2.451,2.451,0,0,1-.919-.175,2.48,2.48,0,0,1-1.382-3.22l4.953-12.383a2.478,2.478,0,1,1,4.6,1.838l-4.953,12.383A2.479,2.479,0,0,1,202.473,57.329Zm0,0" transform="translate(-138.083 -27.61)"/>
      <path id="Trazado_115826" data-name="Trazado 115826" d="M156.276,43.606a14.671,14.671,0,0,1-6.531-1.352c-3.311-1.657-8.7-.466-10.49.134a2.477,2.477,0,0,1-1.567-4.7c.341-.114,8.467-2.768,14.274.134,3.312,1.657,8.7.466,10.492-.134a2.477,2.477,0,1,1,1.567,4.7A26.979,26.979,0,0,1,156.276,43.606Zm0,0" transform="translate(-93.894 -25.181)"/>
      <path id="Trazado_115827" data-name="Trazado 115827" d="M90.1,323.291a42.149,42.149,0,0,1-42.1-42.1c0-15.481,8.562-29.875,24.758-41.631a2.476,2.476,0,0,1,2.9,4.01c-15.067,10.939-22.71,23.6-22.71,37.621a37.148,37.148,0,0,0,74.3,0c0-17.8-12.35-30.508-22.712-38.028a2.477,2.477,0,0,1,2.909-4.01c16.2,11.754,24.756,26.294,24.756,42.037A42.149,42.149,0,0,1,90.1,323.291Zm0,0" transform="translate(-33.141 -164.791)"/>
      <path id="Trazado_115828" data-name="Trazado 115828" d="M139.813,351.625a19.813,19.813,0,1,1,19.813-19.812A19.835,19.835,0,0,1,139.813,351.625Zm0-34.672a14.859,14.859,0,1,0,14.859,14.859A14.874,14.874,0,0,0,139.813,316.953Zm0,0" transform="translate(-82.852 -215.414)"/>
      <path id="Trazado_115829" data-name="Trazado 115829" d="M178.477,366.859A2.474,2.474,0,0,1,176,364.383v-9.906a2.477,2.477,0,0,1,4.953,0v9.906A2.474,2.474,0,0,1,178.477,366.859Zm0,0" transform="translate(-121.516 -243.031)"/>
    </g>
  </g>
</svg>
