<svg xmlns="http://www.w3.org/2000/svg" width="119" height="119" viewBox="0 0 119 119">
  <g id="Grupo_80491" data-name="Grupo 80491" transform="translate(-481 -1602)">
    <circle id="Elipse_4719" data-name="Elipse 4719" cx="59.5" cy="59.5" r="59.5" transform="translate(481 1602)" fill="#eecf52"/>
    <g id="estadisticas" transform="translate(502 1624)">
      <path id="Trazado_113615" data-name="Trazado 113615" d="M373.7,380.154l-15.28-15.281a.913.913,0,0,1,0-1.291l5.165-5.165a.913.913,0,0,1,1.291,0l15.28,15.28a.913.913,0,0,1,0,1.291l-5.165,5.165A.913.913,0,0,1,373.7,380.154Z" transform="translate(-303.646 -303.646)" fill="#e5fff4"/>
      <path id="Trazado_113617" data-name="Trazado 113617" d="M0,0H4.565V9.951H0Z" transform="translate(48.693 51.932) rotate(-45)" fill="#eecf52"/>
      <path id="Trazado_113618" data-name="Trazado 113618" d="M0,0H9.131V4.565H0Z" transform="translate(57.61 64.079) rotate(-45)" fill="#13b770"/>
      <path id="Trazado_113619" data-name="Trazado 113619" d="M0,0H4.565V4.565H0Z" transform="translate(60.838 60.852) rotate(-45)" fill="#45d987"/>
      <circle id="Elipse_4717" data-name="Elipse 4717" cx="29.675" cy="29.675" r="29.675" transform="translate(1.141 1.141)" fill="#13b770"/>
      <path id="Trazado_113620" data-name="Trazado 113620" d="M189.783,7.5q-1.152,0-2.283.086a29.677,29.677,0,0,1,0,59.178q1.13.086,2.283.086a29.675,29.675,0,0,0,0-59.351Z" transform="translate(-158.966 -6.359)" fill="#13b770"/>
      <circle id="Elipse_4718" data-name="Elipse 4718" cx="25.11" cy="25.11" r="25.11" transform="translate(5.707 5.707)" fill="#f3f3f3"/>
      <path id="Trazado_113621" data-name="Trazado 113621" d="M189.783,37.5c-.77,0-1.531.037-2.283.1a25.109,25.109,0,0,1,0,50.01c.752.068,1.513.1,2.283.1a25.11,25.11,0,0,0,0-50.22Z" transform="translate(-158.966 -31.793)" fill="#e4e4e4"/>
      <g id="Grupo_80304" data-name="Grupo 80304" transform="translate(17.501 11.566)">
        <path id="Trazado_113622" data-name="Trazado 113622" d="M124.131,128H115V114.609a.609.609,0,0,1,.609-.609h7.913a.609.609,0,0,1,.609.609Z" transform="translate(-115 -108.217)" fill="#79dfef"/>
        <path id="Trazado_113623" data-name="Trazado 113623" d="M145,114v14h4.565V114.609a.609.609,0,0,0-.609-.609Z" transform="translate(-140.435 -108.217)" fill="#22b5ed"/>
        <path id="Trazado_113624" data-name="Trazado 113624" d="M244.131,160.218H235v-7.609a.609.609,0,0,1,.609-.609h7.913a.609.609,0,0,1,.609.609Z" transform="translate(-216.738 -140.434)" fill="#7be492"/>
        <path id="Trazado_113625" data-name="Trazado 113625" d="M265,152v8.218h4.565v-7.609a.609.609,0,0,0-.609-.609Z" transform="translate(-242.173 -140.434)" fill="#45d987"/>
        <path id="Trazado_113626" data-name="Trazado 113626" d="M184.131,95.784H175V76.609a.609.609,0,0,1,.609-.609h7.913a.609.609,0,0,1,.609.609Z" transform="translate(-165.869 -76)" fill="#eecf52"/>
        <path id="Trazado_113627" data-name="Trazado 113627" d="M205,76V95.784h4.565V76.609a.609.609,0,0,0-.609-.609Z" transform="translate(-191.304 -76)" fill="#eecf52"/>
      </g>
      <g id="Grupo_80305" data-name="Grupo 80305" transform="translate(0)">
        <path id="Trazado_113628" data-name="Trazado 113628" d="M77.315,69.245,76.2,68.133a1.141,1.141,0,0,0-1.614,1.614l.95.95L70.7,75.539l-8.232-8.232,4.842-4.842,3.84,3.84a1.141,1.141,0,0,0,1.614-1.614l-4.645-4.645,0,0-3.228-3.228,0,0-2.849-2.849a2.054,2.054,0,0,0-2.906,0l-.161.162L54.884,50.04a30.716,30.716,0,0,0,6.051-12.692h8.042a1.141,1.141,0,1,0,0-2.283H61.339q.151-1.089.225-2.2H74.417a1.141,1.141,0,1,0,0-2.283H61.631q-.008-1.108-.092-2.2h7.438a1.141,1.141,0,1,0,0-2.283h-7.7A30.444,30.444,0,0,0,54.993,11.7a1.141,1.141,0,0,0-1.79,1.417,28.237,28.237,0,0,1,6.148,17.7A28.533,28.533,0,1,1,50,9.7a1.141,1.141,0,1,0,1.535-1.689A30.817,30.817,0,1,0,24.995,61.079v7.7a1.141,1.141,0,0,0,2.283,0V61.429q1.09.125,2.2.174V74.147a1.141,1.141,0,1,0,2.283,0V61.618q1.11-.034,2.2-.144V68.78a1.141,1.141,0,0,0,2.283,0V61.155a30.7,30.7,0,0,0,13.8-6.271l4.085,4.084-.161.161a2.054,2.054,0,0,0,0,2.906l2.85,2.85,0,0,3.228,3.228,0,0,9.2,9.2a2.054,2.054,0,0,0,2.906,0l5.165-5.165a2.055,2.055,0,0,0,0-2.905ZM53.388,51.773l3.965,3.966-1.614,1.614-3.966-3.965Q52.61,52.611,53.388,51.773Zm7.463,13.92-1.614-1.614,4.842-4.842,1.614,1.614Zm-.269-9.954,1.883,1.883-4.842,4.842L55.74,60.582Z" transform="translate(0)"/>
        <path id="Trazado_113629" data-name="Trazado 113629" d="M40.349,77.145A26.773,26.773,0,0,0,56.243,82.5a26.251,26.251,0,0,0,0-52.5,25.941,25.941,0,0,0-18.5,7.7,26.522,26.522,0,0,0-7.751,18.54A25.657,25.657,0,0,0,36.6,73.71a1.141,1.141,0,1,0,1.7-1.527,23.379,23.379,0,0,1-6.019-15.92A24.25,24.25,0,0,1,39.36,39.31a23.674,23.674,0,0,1,16.883-7.027,23.969,23.969,0,0,1,.014,47.937,24.5,24.5,0,0,1-14.537-4.9,1.141,1.141,0,1,0-1.371,1.825Z" transform="translate(-25.426 -25.435)"/>
        <path id="Trazado_113630" data-name="Trazado 113630" d="M111.425,68.5h-7.913a1.752,1.752,0,0,0-1.75,1.75v4.033H94.381a1.752,1.752,0,0,0-1.75,1.75V88.284H91.1a1.141,1.141,0,1,0,0,2.283h32.731a1.141,1.141,0,1,0,0-2.283h-1.528V81.816a1.752,1.752,0,0,0-1.75-1.75h-7.381V70.25A1.752,1.752,0,0,0,111.425,68.5ZM94.914,76.566h6.848V88.284H94.914Zm9.131-5.783h6.848v17.5h-6.848Zm15.979,11.566v5.935h-6.848V82.349Z" transform="translate(-76.271 -58.076)"/>
        <path id="Trazado_113631" data-name="Trazado 113631" d="M141.771,238.248H136.4l-2.441-6.24a1.141,1.141,0,0,0-2.133.019l-3.336,9-2.331-6.608a1.141,1.141,0,0,0-2.073-.177l-2.239,4.01h-5.359a1.141,1.141,0,1,0,0,2.283h6.029a1.142,1.142,0,0,0,1-.585l1.334-2.389,2.54,7.2a1.141,1.141,0,0,0,1.067.762h.009a1.141,1.141,0,0,0,1.07-.745l3.391-9.144,1.633,4.176a1.141,1.141,0,0,0,1.063.726h6.153a1.141,1.141,0,1,0,0-2.283Z" transform="translate(-97.791 -196.085)"/>
      </g>
    </g>
  </g>
</svg>
