<svg xmlns="http://www.w3.org/2000/svg" width="102" height="102" viewBox="0 0 102 102">
  <g id="Grupo_85448" data-name="Grupo 85448" transform="translate(-749 -3296)">
    <circle id="Elipse_4735" data-name="Elipse 4735" cx="51" cy="51" r="51" transform="translate(749 3296)" fill="#eecf52"/>
    <path id="Trazado_119101" data-name="Trazado 119101" d="M16.668,0H-15.981V-6.478L-.573-22.9a38.013,38.013,0,0,0,4.695-6.052A9.723,9.723,0,0,0,5.643-33.86a7.276,7.276,0,0,0-1.6-4.989A5.786,5.786,0,0,0-.54-40.665a6.241,6.241,0,0,0-5.054,2.208,8.747,8.747,0,0,0-1.848,5.807H-16.93a15.616,15.616,0,0,1,2.077-7.95A14.642,14.642,0,0,1-8.98-46.242a17.849,17.849,0,0,1,8.6-2.045q7.361,0,11.434,3.533t4.073,9.978a16.016,16.016,0,0,1-1.832,7.2A40,40,0,0,1,7.017-19.04L-3.811-7.623H16.668Z" transform="translate(801 3370)" fill="#fff"/>
  </g>
</svg>
