<svg xmlns="http://www.w3.org/2000/svg" xmlns:xlink="http://www.w3.org/1999/xlink" width="400" height="509.51" viewBox="0 0 400 509.51">
  <defs>
    <clipPath id="clip-path">
      <rect id="Rectángulo_36349" data-name="Rectángulo 36349" width="144.273" height="8.061" fill="none"/>
    </clipPath>
    <clipPath id="clip-path-2">
      <rect id="Rectángulo_36362" data-name="Rectángulo 36362" width="8.621" height="10.646" fill="none"/>
    </clipPath>
    <clipPath id="clip-path-3">
      <rect id="Rectángulo_36379" data-name="Rectángulo 36379" width="1.459" height="80.256" fill="none"/>
    </clipPath>
  </defs>
  <g id="Grupo_85445" data-name="Grupo 85445" transform="translate(-1020 -627.377)">
    <rect id="Rectángulo_36347" data-name="Rectángulo 36347" width="33.927" height="38.098" transform="translate(1212.826 880.95)" fill="#005d92"/>
    <rect id="Rectángulo_36348" data-name="Rectángulo 36348" width="33.927" height="38.098" transform="translate(1212.826 880.95)" fill="#2c3b53"/>
    <g id="Grupo_85293" data-name="Grupo 85293" transform="translate(1020 709.182)">
      <g id="Grupo_85296" data-name="Grupo 85296">
        <path id="Trazado_118200" data-name="Trazado 118200" d="M131.564,157.23h52.527a5.417,5.417,0,0,0-3.109-4.886l-6.191-2.954H140.864l-6.192,2.954a5.42,5.42,0,0,0-3.108,4.886" transform="translate(51.962 56.042)" fill="#336b8b"/>
        <path id="Trazado_118201" data-name="Trazado 118201" d="M131.564,157.23h52.527a5.417,5.417,0,0,0-3.109-4.886l-6.191-2.954H140.864l-6.192,2.954a5.42,5.42,0,0,0-3.108,4.886" transform="translate(51.962 56.042)" fill="#3b4f6f"/>
        <path id="Trazado_118202" data-name="Trazado 118202" d="M172.158,130.637H138.231v2.431l33.927-.892Z" transform="translate(54.595 49.007)" fill="#002337"/>
        <path id="Trazado_118203" data-name="Trazado 118203" d="M184.091,156.306H131.564a5.4,5.4,0,0,1,2.366-4.453h47.8a5.4,5.4,0,0,1,2.366,4.453" transform="translate(51.962 56.966)" fill="#2c3b53"/>
        <path id="Trazado_118204" data-name="Trazado 118204" d="M104.877,157.78h131.88a6.152,6.152,0,0,0,6.2-6.107V64.393a6.156,6.156,0,0,0-6.2-6.111H104.878a6.154,6.154,0,0,0-6.2,6.111V151.67a6.154,6.154,0,0,0,6.2,6.11" transform="translate(38.974 21.864)" fill="#3b4f6f"/>
        <g id="Grupo_85285" data-name="Grupo 85285" transform="translate(137.653 171.583)" opacity="0.5">
          <g id="Grupo_85284" data-name="Grupo 85284">
            <g id="Grupo_85283" data-name="Grupo 85283" clip-path="url(#clip-path)">
              <path id="Trazado_118205" data-name="Trazado 118205" d="M104.751,130.761H236.88a6.029,6.029,0,0,0,6.071-5.986v2.076a6.028,6.028,0,0,1-6.071,5.985H104.751a6.029,6.029,0,0,1-6.072-5.985v-2.076a6.03,6.03,0,0,0,6.072,5.986" transform="translate(-98.679 -124.775)" fill="#62728c"/>
            </g>
          </g>
        </g>
        <rect id="Rectángulo_36350" data-name="Rectángulo 36350" width="133.618" height="73.947" transform="translate(142.98 88.082)" fill="#d5e9f8"/>
        <path id="Trazado_118206" data-name="Trazado 118206" d="M102.716,138.193H236.335V64.247H102.716Zm-.771-74.656H237.108V138.9H101.945V63.537Z" transform="translate(40.264 23.835)" fill="#2c3b53"/>
        <rect id="Rectángulo_36351" data-name="Rectángulo 36351" width="107.296" height="36.807" transform="translate(155.511 96.201)" fill="#eef6fc"/>
        <rect id="Rectángulo_36352" data-name="Rectángulo 36352" width="34.231" height="16.664" transform="translate(155.511 138.331)" fill="#eef6fc"/>
        <rect id="Rectángulo_36353" data-name="Rectángulo 36353" width="34.231" height="16.664" transform="translate(192.043 138.331)" fill="#eef6fc"/>
        <rect id="Rectángulo_36354" data-name="Rectángulo 36354" width="34.232" height="16.664" transform="translate(228.574 138.331)" fill="#eef6fc"/>
        <path id="Trazado_118207" data-name="Trazado 118207" d="M310.084,143.887H222.893a3.092,3.092,0,0,1-3.115-3.069V77.179a3.092,3.092,0,0,1,3.115-3.069h87.192a3.091,3.091,0,0,1,3.114,3.069v63.639a3.091,3.091,0,0,1-3.114,3.069" transform="translate(86.802 283.818)" fill="#1a1a52"/>
        <rect id="Rectángulo_36355" data-name="Rectángulo 36355" width="85.375" height="54.215" transform="translate(310.603 369.697)" fill="#fff"/>
        <rect id="Rectángulo_36356" data-name="Rectángulo 36356" width="6.428" height="5.373" transform="translate(389.546 361.245)" fill="#9acbeb"/>
        <path id="Trazado_118208" data-name="Trazado 118208" d="M283.558,80.609h-.523l-1.066-1.474-1.084,1.474H280.4l1.317-1.752-1.228-1.6H281l.985,1.327.992-1.327h.491l-1.229,1.587Z" transform="translate(110.744 284.999)" fill="#fff"/>
        <rect id="Rectángulo_36357" data-name="Rectángulo 36357" width="39.034" height="2.174" transform="translate(310.602 362.844)" fill="#79b9e4"/>
        <rect id="Rectángulo_36358" data-name="Rectángulo 36358" width="35.373" height="34.871" transform="translate(335.729 378.738)" fill="#c9e3f4"/>
        <rect id="Rectángulo_36359" data-name="Rectángulo 36359" width="35.373" height="7.365" transform="translate(335.729 378.738)" fill="#9acbeb"/>
        <path id="Trazado_118209" data-name="Trazado 118209" d="M267.981,102.375H245.466a.643.643,0,0,1-.647-.638V98.225a.643.643,0,0,1,.647-.638h22.515a.643.643,0,0,1,.647.638v3.512a.643.643,0,0,1-.647.638" transform="translate(96.692 292.625)" fill="#fff"/>
        <path id="Trazado_118210" data-name="Trazado 118210" d="M267.981,107.115H245.466a.643.643,0,0,1-.647-.638v-3.512a.643.643,0,0,1,.647-.638h22.515a.643.643,0,0,1,.647.638v3.512a.643.643,0,0,1-.647.638" transform="translate(96.692 294.403)" fill="#fff"/>
        <path id="Trazado_118211" data-name="Trazado 118211" d="M258.67,113.431h-6.809a2.394,2.394,0,1,1,0-4.788h6.809a2.394,2.394,0,1,1,0,4.788" transform="translate(98.514 296.773)" fill="#faa634"/>
        <path id="Trazado_118212" data-name="Trazado 118212" d="M246.4,100.174a.472.472,0,1,1,.008,0Z" transform="translate(97.139 293.232)" fill="#40464f"/>
        <path id="Trazado_118213" data-name="Trazado 118213" d="M247.561,100.174a.472.472,0,1,1,.008,0Z" transform="translate(97.596 293.232)" fill="#40464f"/>
        <path id="Trazado_118214" data-name="Trazado 118214" d="M248.719,100.174a.472.472,0,1,1,.008,0Z" transform="translate(98.054 293.232)" fill="#40464f"/>
        <path id="Trazado_118215" data-name="Trazado 118215" d="M249.877,100.174a.472.472,0,1,1,.008,0Z" transform="translate(98.511 293.232)" fill="#40464f"/>
        <path id="Trazado_118216" data-name="Trazado 118216" d="M251.035,100.174a.472.472,0,1,1,.008,0Z" transform="translate(98.969 293.232)" fill="#40464f"/>
        <path id="Trazado_118217" data-name="Trazado 118217" d="M252.193,100.174a.472.472,0,1,1,.008,0Z" transform="translate(99.426 293.232)" fill="#40464f"/>
        <path id="Trazado_118218" data-name="Trazado 118218" d="M246.4,104.685a.472.472,0,1,1,.008,0Z" transform="translate(97.139 294.924)" fill="#40464f"/>
        <path id="Trazado_118219" data-name="Trazado 118219" d="M247.561,104.685a.472.472,0,1,1,.008,0Z" transform="translate(97.596 294.924)" fill="#40464f"/>
        <path id="Trazado_118220" data-name="Trazado 118220" d="M248.719,104.685a.472.472,0,1,1,.008,0Z" transform="translate(98.054 294.924)" fill="#40464f"/>
        <path id="Trazado_118221" data-name="Trazado 118221" d="M249.877,104.685a.472.472,0,1,1,.008,0Z" transform="translate(98.511 294.924)" fill="#40464f"/>
        <path id="Trazado_118222" data-name="Trazado 118222" d="M251.035,104.685a.472.472,0,1,1,.008,0Z" transform="translate(98.969 294.924)" fill="#40464f"/>
        <path id="Trazado_118223" data-name="Trazado 118223" d="M252.193,104.685a.472.472,0,1,1,.008,0Z" transform="translate(99.426 294.924)" fill="#40464f"/>
        <path id="Trazado_118224" data-name="Trazado 118224" d="M244.687,94.659h0a2.152,2.152,0,1,1,0-4.3h0a2.152,2.152,0,1,1,0,4.3" transform="translate(95.776 289.913)" fill="#57a8dd"/>
        <path id="Trazado_118225" data-name="Trazado 118225" d="M245.364,93.138l-.059-.473a.41.41,0,0,0-.4-.392h-.328v-.2l.059-.03a.236.236,0,0,0,.12-.171l.057-.388a.416.416,0,0,0,0-.1.377.377,0,0,0-.377-.326h-.165a.38.38,0,0,0-.331.191.367.367,0,0,0-.046.239l.056.384a.236.236,0,0,0,.123.172l.056.028v.2H243.8a.407.407,0,0,0-.4.392l-.059.473.091.059h1.841Z" transform="translate(96.108 290.177)" fill="#fff"/>
        <rect id="Rectángulo_36360" data-name="Rectángulo 36360" width="15.142" height="0.455" transform="translate(344.394 381.821)" fill="#fff"/>
        <rect id="Rectángulo_36361" data-name="Rectángulo 36361" width="6.025" height="0.455" transform="translate(344.396 382.792)" fill="#fff"/>
        <path id="Trazado_118226" data-name="Trazado 118226" d="M254.406,109.578a.551.551,0,0,0-.555.546v.27h-.908a.079.079,0,0,0-.079.078v1.245a.079.079,0,0,0,.079.077h1.384a.079.079,0,0,0,.079-.077v-1.245a.079.079,0,0,0-.079-.078h-.278v-.27a.356.356,0,0,1,.713,0v.063h.2v-.063a.55.55,0,0,0-.554-.546m-.711,1.587v.187l.04.014v.017l-.038.015v.027l.038.015v.043l-.158.113v-.43a.21.21,0,0,1-.156-.2.213.213,0,1,1,.273.2" transform="translate(99.869 297.124)" fill="#feedd6"/>
        <line id="Línea_149" data-name="Línea 149" x2="0.745" transform="translate(240.728 36.916)" fill="none" stroke="#e9f4fc" stroke-miterlimit="10" stroke-width="1.068"/>
        <line id="Línea_150" data-name="Línea 150" x2="93.374" transform="translate(242.943 36.916)" fill="none" stroke="#e9f4fc" stroke-miterlimit="10" stroke-width="1.068" stroke-dasharray="1.054 1.054"/>
        <path id="Trazado_118227" data-name="Trazado 118227" d="M241.623,26.845h.745v.734" transform="translate(95.43 10.071)" fill="none" stroke="#e9f4fc" stroke-miterlimit="10" stroke-width="1.068"/>
        <line id="Línea_151" data-name="Línea 151" y2="46.762" transform="translate(337.797 39.135)" fill="none" stroke="#e9f4fc" stroke-miterlimit="10" stroke-width="1.068" stroke-dasharray="1.08 1.08"/>
        <line id="Línea_152" data-name="Línea 152" y2="0.734" transform="translate(337.797 86.638)" fill="none" stroke="#e9f4fc" stroke-miterlimit="10" stroke-width="1.068"/>
        <path id="Trazado_118228" data-name="Trazado 118228" d="M175.864,27.535A2.567,2.567,0,1,1,173.3,25a2.549,2.549,0,0,1,2.567,2.53" transform="translate(67.431 9.38)" fill="#e9f4fc"/>
        <path id="Trazado_118229" data-name="Trazado 118229" d="M245.45,64.227a2.567,2.567,0,1,1-2.567-2.53,2.549,2.549,0,0,1,2.567,2.53" transform="translate(94.914 23.145)" fill="#e9f4fc"/>
        <g id="Grupo_85288" data-name="Grupo 85288" transform="translate(309.239 17.466)" opacity="0.5">
          <g id="Grupo_85287" data-name="Grupo 85287">
            <g id="Grupo_85286" data-name="Grupo 85286" clip-path="url(#clip-path-2)">
              <path id="Trazado_118233" data-name="Trazado 118233" d="M230.306,12.779a8.962,8.962,0,0,0-1.112-.078,7.365,7.365,0,0,0-6.2,3.216A9.206,9.206,0,0,0,221.975,23c.028.006.247.342.275.348a15.136,15.136,0,0,1-.208-1.909,8.563,8.563,0,0,1,8.264-8.661" transform="translate(-221.684 -12.701)" fill="#d9ecf9"/>
            </g>
          </g>
        </g>
        <path id="Trazado_118234" data-name="Trazado 118234" d="M239,36.891s-5.7-7.049-1.857-14.572,12.3-10.136,21.387-4.473c0,0-13.492-5.124-18.487,4.282S239,36.891,239,36.891" transform="translate(93.135 5.548)" fill="#d9ecf9"/>
        <path id="Trazado_118235" data-name="Trazado 118235" d="M234.115,24.124a10.8,10.8,0,1,0,10.8-10.648,10.726,10.726,0,0,0-10.8,10.648" transform="translate(92.464 5.055)" fill="#05339e"/>
        <path id="Trazado_118236" data-name="Trazado 118236" d="M245.257,23.212a1.566,1.566,0,1,0-1.589-1.565,1.576,1.576,0,0,0,1.589,1.565" transform="translate(96.237 7.533)" fill="#fff"/>
        <path id="Trazado_118237" data-name="Trazado 118237" d="M243.223,24.806a3.659,3.659,0,0,1-.229-5.524l.248-.239.7.685-.257.248a2.7,2.7,0,0,0,.185,4.1l.3.242-.7.69Z" transform="translate(95.517 7.144)" fill="#fff"/>
        <path id="Trazado_118238" data-name="Trazado 118238" d="M241.994,27.347a6.447,6.447,0,0,1-.219-9.52l.25-.241.695.685-.254.245a5.489,5.489,0,0,0,.2,8.122l.276.243-.7.689Z" transform="translate(94.703 6.597)" fill="#fff"/>
        <path id="Trazado_118239" data-name="Trazado 118239" d="M240.791,29.845a9.205,9.205,0,0,1-.208-13.441l.25-.243.7.686-.253.246a8.236,8.236,0,0,0-2.522,5.938,8.334,8.334,0,0,0,2.713,6.111l.266.246-.695.685Z" transform="translate(93.908 6.063)" fill="#fff"/>
        <path id="Trazado_118240" data-name="Trazado 118240" d="M60.371,89.161a12.356,12.356,0,1,1-12.355-12.18,12.268,12.268,0,0,1,12.355,12.18" transform="translate(14.084 28.879)" fill="#05339e"/>
        <path id="Trazado_118241" data-name="Trazado 118241" d="M43.187,84.851a2.273,2.273,0,0,1,4.546,0v.227h1.055v-.227a3.328,3.328,0,0,0-6.655,0V86h1.055Z" transform="translate(16.64 30.6)" fill="#9acbeb"/>
        <path id="Trazado_118242" data-name="Trazado 118242" d="M50.044,84.795h-8.3a.7.7,0,0,0-.707.7V91.4a.7.7,0,0,0,.707.7h8.3a.7.7,0,0,0,.709-.7V85.492a.7.7,0,0,0-.709-.7M46.672,90.22H45.114l.254-2.012a.991.991,0,0,1-.49-.851,1.015,1.015,0,0,1,2.03,0,.993.993,0,0,1-.488.851Z" transform="translate(16.207 31.81)" fill="#faa634"/>
        <path id="Trazado_118253" data-name="Trazado 118253" d="M227.572,75.5V51.2a5.159,5.159,0,0,0-5.2-5.121H181.99a5.159,5.159,0,0,0-5.2,5.121V75.5a5.16,5.16,0,0,0,5.2,5.122h1.728l-2.452,10.707,16.027-10.707h25.081a5.16,5.16,0,0,0,5.2-5.122" transform="translate(69.825 17.284)" fill="#13b770"/>
        <path id="Trazado_118254" data-name="Trazado 118254" d="M190.517,67.866H190.5a7.342,7.342,0,1,1,0-14.682h.017a7.342,7.342,0,1,1,0,14.682" transform="translate(72.298 19.951)" fill="#79b9e4"/>
        <path id="Trazado_118255" data-name="Trazado 118255" d="M192.558,62.427l-.188-1.517a1.312,1.312,0,0,0-1.288-1.256h-1.049V59.03l.186-.1a.745.745,0,0,0,.384-.545l.184-1.246a1.157,1.157,0,0,0,0-.325,1.209,1.209,0,0,0-1.208-1.045h-.526a1.228,1.228,0,0,0-1.062.612,1.2,1.2,0,0,0-.148.769l.181,1.228a.741.741,0,0,0,.395.551l.176.091v.634h-1.05a1.307,1.307,0,0,0-1.288,1.254l-.188,1.518.292.188h5.9Z" transform="translate(73.49 20.921)" fill="#fff"/>
        <path id="Trazado_118256" data-name="Trazado 118256" d="M199.351,58.829a1.143,1.143,0,1,1-1.142-1.126,1.135,1.135,0,0,1,1.142,1.126" transform="translate(77.832 21.647)" fill="#79b9e4"/>
        <path id="Trazado_118257" data-name="Trazado 118257" d="M203.942,58.829A1.143,1.143,0,1,1,202.8,57.7a1.135,1.135,0,0,1,1.142,1.126" transform="translate(79.645 21.647)" fill="#79b9e4"/>
        <path id="Trazado_118258" data-name="Trazado 118258" d="M208.532,58.829a1.143,1.143,0,1,1-1.142-1.126,1.135,1.135,0,0,1,1.142,1.126" transform="translate(81.458 21.647)" fill="#79b9e4"/>
        <path id="Trazado_118259" data-name="Trazado 118259" d="M104.337,81.9H3.6A3.573,3.573,0,0,1,0,78.351V10.962A3.573,3.573,0,0,1,3.6,7.414H104.337a3.573,3.573,0,0,1,3.6,3.548V78.351a3.573,3.573,0,0,1-3.6,3.546" transform="translate(0 -89.219)" fill="#05339e"/>
        <rect id="Rectángulo_36364" data-name="Rectángulo 36364" width="98.64" height="56.503" transform="translate(4.647 -68.209)" fill="#fff"/>
        <rect id="Rectángulo_36365" data-name="Rectángulo 36365" width="7.416" height="6.207" transform="translate(95.867 -77.972)" fill="#9acbeb"/>
        <path id="Trazado_118260" data-name="Trazado 118260" d="M73.725,14.923h-.6l-1.232-1.7-1.253,1.7h-.564L71.595,12.9l-1.419-1.85h.589L71.9,12.583l1.147-1.533h.566L72.2,12.883Z" transform="translate(27.676 -87.855)" fill="#fff"/>
        <rect id="Rectángulo_36366" data-name="Rectángulo 36366" width="45.097" height="2.512" transform="translate(4.648 -76.125)" fill="#79b9e4"/>
        <path id="Trazado_118261" data-name="Trazado 118261" d="M53.8,57.159H32.166a4.286,4.286,0,1,1,0-8.571H53.8a4.286,4.286,0,1,1,0,8.571" transform="translate(10.987 -73.773)" fill="#c9e3f4"/>
        <rect id="Rectángulo_36367" data-name="Rectángulo 36367" width="86.48" height="19.717" transform="translate(11.268 -62.007)" fill="#dfeef8"/>
        <rect id="Rectángulo_36368" data-name="Rectángulo 36368" width="27.591" height="8.927" transform="translate(11.268 -39.439)" fill="#dfeef8"/>
        <rect id="Rectángulo_36369" data-name="Rectángulo 36369" width="27.591" height="8.927" transform="translate(40.713 -39.439)" fill="#dfeef8"/>
        <rect id="Rectángulo_36370" data-name="Rectángulo 36370" width="27.591" height="8.927" transform="translate(70.158 -39.439)" fill="#dfeef8"/>
        <path id="Trazado_118262" data-name="Trazado 118262" d="M137.532,2.339V34.044h29.583V6.957l-4.684-4.618Z" transform="translate(54.319 0.877)" fill="#fff"/>
        <path id="Trazado_118263" data-name="Trazado 118263" d="M160.065,6.957l-4.684-4.618V6.957Z" transform="translate(61.368 0.877)" fill="#57a8dd"/>
        <rect id="Rectángulo_36371" data-name="Rectángulo 36371" width="15.241" height="1.548" transform="translate(200.926 11.009)" fill="#d9ecf9"/>
        <rect id="Rectángulo_36372" data-name="Rectángulo 36372" width="19.051" height="1.548" transform="translate(197.117 14.293)" fill="#d9ecf9"/>
        <rect id="Rectángulo_36373" data-name="Rectángulo 36373" width="19.051" height="1.548" transform="translate(197.117 17.577)" fill="#d9ecf9"/>
        <path id="Trazado_118264" data-name="Trazado 118264" d="M173.424,45.764h-38.8a1.392,1.392,0,0,1-1.4-1.382V19.5a1.391,1.391,0,0,1,1.4-1.381h38.8a1.391,1.391,0,0,1,1.4,1.381V44.382a1.392,1.392,0,0,1-1.4,1.382" transform="translate(52.617 6.798)" fill="#eecf52"/>
        <path id="Trazado_118265" data-name="Trazado 118265" d="M165.346,23.247a1.392,1.392,0,0,1-1.4,1.382H149.992V17.152a1.392,1.392,0,0,1,1.4-1.382h12.552a1.392,1.392,0,0,1,1.4,1.382Z" transform="translate(59.24 5.916)" fill="#eecf52"/>
        <rect id="Rectángulo_36374" data-name="Rectángulo 36374" width="9.682" height="0.463" transform="translate(211.102 23.47)" fill="#fcca85"/>
        <path id="Trazado_118266" data-name="Trazado 118266" d="M152.158,23.6a2.72,2.72,0,0,0-2.737,2.7v1.327h-4.482a.387.387,0,0,0-.388.385v6.14a.387.387,0,0,0,.388.385h6.827a.388.388,0,0,0,.392-.385v-6.14a.389.389,0,0,0-.392-.385H150.4V26.3a1.756,1.756,0,0,1,3.511,0v.312h.981V26.3a2.72,2.72,0,0,0-2.736-2.7m-3.507,7.829v.923l.2.07v.081l-.192.07v.14l.192.07V33l-.781.558V31.437a1.051,1.051,0,1,1,.579,0" transform="translate(57.091 8.855)" fill="#feedd6"/>
        <path id="Trazado_118281" data-name="Trazado 118281" d="M93.114,87.218a1.882,1.882,0,0,0,.932.248,1.913,1.913,0,0,0,.488-.065,1.863,1.863,0,0,0,1.137-.859,1.812,1.812,0,0,0,.186-1.4,1.835,1.835,0,0,0-.872-1.115,1.884,1.884,0,0,0-2.557.672v0a1.832,1.832,0,0,0,.686,2.518" transform="translate(36.406 31.427)" fill="#f2f2f2"/>
        <path id="Trazado_118282" data-name="Trazado 118282" d="M109.6,105.956H79.029a.936.936,0,0,1-.943-.928v-.267a.936.936,0,0,1,.943-.93H109.6a.935.935,0,0,1,.942.93v.267a.935.935,0,0,1-.942.928" transform="translate(30.84 38.951)" fill="#e3f1fb"/>
        <path id="Trazado_118283" data-name="Trazado 118283" d="M78.975,103.831a.882.882,0,0,0-.889.876v.252a.882.882,0,0,0,.889.875H98.583v-2Z" transform="translate(30.84 38.951)" fill="#13b770"/>
        <rect id="Rectángulo_36375" data-name="Rectángulo 36375" width="4.263" height="2.616" transform="translate(236.025 388.954)" fill="#4b5360"/>
        <path id="Trazado_118284" data-name="Trazado 118284" d="M175.343,288.268h5.313l.321-2.955-3.865-5L175.35,276.7l-.222-1.331H164.651l-2.3,10.114.008.028-.008-.028-.013,2.785h10.3l.093-2.03.876,0Z" transform="translate(64.114 103.302)" fill="#1e2838"/>
        <rect id="Rectángulo_36376" data-name="Rectángulo 36376" width="4.263" height="2.616" transform="translate(177.088 388.954)" fill="#4b5360"/>
        <path id="Trazado_118285" data-name="Trazado 118285" d="M129.141,288.268h-5.313l-.321-2.955,3.865-5,1.762-3.608.222-1.331h10.477l2.3,10.114-.008.028.008-.028.013,2.785h-10.3l-.093-2.03-.876,0Z" transform="translate(48.779 103.302)" fill="#1e2838"/>
        <path id="Trazado_118286" data-name="Trazado 118286" d="M178.916,150.33l-7.976-1.6-3-2.365-2.19.026-3.955,3.452-.05,5.154,4.334.129.76-.683,1.907-.142L178,157.037Z" transform="translate(63.88 54.908)" fill="#ddaf9c"/>
        <path id="Trazado_118287" data-name="Trazado 118287" d="M171.885,148.052l-1.618,7.793c9.081,3.258,10.073,2.907,20.344,6.795,5.347,2.024,8.416.173,9.721-1.927,1.076-1.733,1.629-8.293-3.861-9.689a114.717,114.717,0,0,0-24.586-2.972" transform="translate(67.247 55.54)" fill="#7b85e7"/>
        <path id="Trazado_118288" data-name="Trazado 118288" d="M191.243,172.887c-8.034-10.348-18.172-32.382-25.129-43.691-1.32-2.145-4.7-7.4-3.077-11.8,1.4-3.8,5.959-5.077,8.3-4.585,2.963.623,5.574,3.215,6.733,4.951A188.467,188.467,0,0,1,191.1,140.695c5.834,12.217,8.854,17.867,12.058,25.556,2.155,5.169.292,8.584-1.548,9.6-3.353,1.851-6.7,1.766-10.367-2.963" transform="translate(64.222 42.282)" fill="#13b770"/>
        <path id="Trazado_118289" data-name="Trazado 118289" d="M126.224,148.445l7.976-1.6,3-2.365,2.189.026,3.956,3.452.049,5.154-4.333.129-.76-.683-1.907-.142-9.256,2.734Z" transform="translate(49.853 54.201)" fill="#ddaf9c"/>
        <path id="Trazado_118290" data-name="Trazado 118290" d="M137.122,146.055l1.618,7.793c-11.434,5.818-10.745,4.906-20.344,9.542-5.143,2.482-8.416.172-9.72-1.928-1.077-1.733-1.587-8.139,3.86-9.689,11.436-3.255,24.586-5.718,24.586-5.718" transform="translate(42.649 54.791)" fill="#7b85e7"/>
        <path id="Trazado_118291" data-name="Trazado 118291" d="M120.81,173.432c8.035-10.348,19.16-31.573,26.116-42.882,1.32-2.145,3.712-8.208,2.09-12.607-1.4-3.8-5.35-7.129-7.688-6.636-2.963.623-5.122,3.333-6.28,5.069a222.949,222.949,0,0,0-14.1,24.865c-5.834,12.217-8.854,17.867-12.058,25.556-2.155,5.169-.292,8.584,1.548,9.6,3.353,1.851,6.7,1.766,10.367-2.963" transform="translate(42.626 41.737)" fill="#13b770"/>
        <path id="Trazado_118292" data-name="Trazado 118292" d="M147.211,101.4h11.331l-1.078,17.873H145.376Z" transform="translate(57.417 38.038)" fill="#ddaf9c"/>
        <path id="Trazado_118293" data-name="Trazado 118293" d="M142.766,91.961l-2.324-.459a1.105,1.105,0,0,0-1.017.322,1.072,1.072,0,0,0-.286.872l.353,2.781a1.073,1.073,0,0,0,.093.32l1.926,4.092a1.1,1.1,0,0,0,.626.562l.013,0a1.106,1.106,0,0,0,1.1-.213l1.084-.958Z" transform="translate(54.95 34.318)" fill="#ddaf9c"/>
        <path id="Trazado_118294" data-name="Trazado 118294" d="M158.9,91.961l2.324-.459a1.105,1.105,0,0,1,1.017.322,1.072,1.072,0,0,1,.286.872l-.353,2.781a1.073,1.073,0,0,1-.093.32l-1.926,4.092a1.1,1.1,0,0,1-.626.562l-.013,0a1.106,1.106,0,0,1-1.1-.213l-1.084-.958Z" transform="translate(62.138 34.318)" fill="#ddaf9c"/>
        <path id="Trazado_118295" data-name="Trazado 118295" d="M159.562,113.226l-.455.175a9.207,9.207,0,0,1-3.295.609h-4.3a9.209,9.209,0,0,1-3.521-.7c-.612-.072-4.885-4.381-5.567-8.258l-1.211-13.337a10.584,10.584,0,0,1,2.913-8.274,10.842,10.842,0,0,1,4.768-2.892l2.186-.644a10.966,10.966,0,0,1,5.658-.143l1.548.373a10.838,10.838,0,0,1,5.871,3.683l.18.223c1.774,2.175,3.409,5,3.13,7.776l-2.292,12.933c-.778,3.773-4.4,7.9-5.615,8.475" transform="translate(55.756 29.809)" fill="#ddaf9c"/>
        <path id="Trazado_118296" data-name="Trazado 118296" d="M143.83,84.319a4.362,4.362,0,0,1,2.631-4.55c3.068-1.188,6.434-3.241,10.943-1.944a19.254,19.254,0,0,1,8.783,4.861c2.083,1.944,3.42,7.052,2.861,9.468s-3.189,12.374-3.847,13.985-3.9,5.232-6.992,5.583-7,.675-9.208-.513a16.659,16.659,0,0,1-6.376-6.807c-1.1-2.594-3.069-15.681-3.069-16.484s.876-4.125,4.274-3.6" transform="translate(55.118 29.039)" fill="#3b4f6f"/>
        <path id="Trazado_118297" data-name="Trazado 118297" d="M159.694,103.726a26.262,26.262,0,0,0,7.545-4.564c.783-2.9,1.54-5.839,1.811-7.009.559-2.416-.78-7.523-2.861-9.468a19.272,19.272,0,0,0-8.784-4.861c-4.51-1.3-7.875.756-10.943,1.944a4.362,4.362,0,0,0-2.631,4.55c-3.4-.527-4.274,2.8-4.274,3.6,0,.5.78,5.866,1.632,10.422,1.721,1.583,5.665,4.916,8.85,5.386,4.2.62,7.907.551,9.656,0" transform="translate(55.118 29.039)" fill="#1e2838"/>
        <path id="Trazado_118298" data-name="Trazado 118298" d="M150.931,87.507s-5.9-1.262-8.031-5.1l0,.043a4.152,4.152,0,0,0-1-.026c.414.758,2.667,4.286,9.03,5.087" transform="translate(56.044 30.912)" fill="#001b2a"/>
        <path id="Trazado_118299" data-name="Trazado 118299" d="M126.592,147.093c.771-8.943.2-12.521.336-17.28.388-13.439,2.851-18.948,17.981-20.215,7.964-.666,20.781-.822,31.325,1.594,3.571.818,18.153,2.768,16.845,10.705-1.419,8.607-1.2,4.362-3.7,25.151-1.693,14.081-1.129,17.848-.905,28.67.181,8.783.971,15.034.971,15.034l1.848,12.27-2.579,3.249,0,2.889-61.651-.528.095-2.277-3-2.935,1.938-8.98s.237-5.125.937-24.013c.412-11.1-.978-17.175-.446-23.337" transform="translate(49.039 40.955)" fill="#13b770"/>
        <path id="Trazado_118300" data-name="Trazado 118300" d="M146.123,107.9h13.238l.788,3.622H144.625Z" transform="translate(57.12 40.476)" fill="#7b85e7"/>
        <path id="Trazado_118301" data-name="Trazado 118301" d="M118.93,190.071l9.776-5.209.572-4.791,14.109-.01-.007-.113,48.9.122.572,4.791,12.22,5.209,2.367,4.622L194.961,312.625l-15.414-.435,2.7-105.252-21.464-.166-19.023.166L144.4,313.073l-14.858.879-12.98-119.259Z" transform="translate(46.036 67.506)" fill="#3b4f6f"/>
        <rect id="Rectángulo_36377" data-name="Rectángulo 36377" width="6.782" height="80.256" transform="translate(204.196 292.466)" fill="#e7f2fa"/>
        <g id="Grupo_85291" data-name="Grupo 85291" transform="translate(206.127 292.466)" opacity="0.6">
          <g id="Grupo_85290" data-name="Grupo 85290">
            <g id="Grupo_85289" data-name="Grupo 85289" clip-path="url(#clip-path-3)">
              <rect id="Rectángulo_36378" data-name="Rectángulo 36378" width="1.461" height="80.256" transform="translate(0 0)" fill="#fff"/>
            </g>
          </g>
        </g>
        <path id="Trazado_118302" data-name="Trazado 118302" d="M144.734,277.69h11.38V250.665a.645.645,0,0,0-.649-.639H145.383a.645.645,0,0,0-.649.639Z" transform="translate(57.163 93.794)" fill="#62728c"/>
        <rect id="Rectángulo_36380" data-name="Rectángulo 36380" width="1.787" height="27.664" transform="translate(204.34 343.82)" fill="#818ea3"/>
        <path id="Trazado_118303" data-name="Trazado 118303" d="M207.5,276.828V275.5a5.4,5.4,0,0,0-5.435-5.356h-84.6a5.4,5.4,0,0,0-5.435,5.356v1.328Z" transform="translate(44.249 101.341)" fill="#62728c"/>
        <rect id="Rectángulo_36381" data-name="Rectángulo 36381" width="2.92" height="7.301" transform="translate(248.835 377.55)" fill="#62728c"/>
        <rect id="Rectángulo_36382" data-name="Rectángulo 36382" width="2.92" height="7.301" transform="translate(156.286 377.55)" fill="#62728c"/>
        <rect id="Rectángulo_36383" data-name="Rectángulo 36383" width="2.92" height="7.301" transform="translate(206.127 377.55)" fill="#62728c"/>
        <path id="Trazado_118304" data-name="Trazado 118304" d="M108.313,282.676a6.656,6.656,0,1,0,6.655-6.561,6.608,6.608,0,0,0-6.655,6.561" transform="translate(42.779 103.581)" fill="#1e2838"/>
        <path id="Trazado_118305" data-name="Trazado 118305" d="M110.4,281.891a3.738,3.738,0,1,0,3.737-3.684,3.71,3.71,0,0,0-3.737,3.684" transform="translate(43.605 104.366)" fill="#3b4f6f"/>
        <path id="Trazado_118306" data-name="Trazado 118306" d="M174.658,282.676a6.656,6.656,0,1,0,6.655-6.561,6.608,6.608,0,0,0-6.655,6.561" transform="translate(68.982 103.581)" fill="#1e2838"/>
        <path id="Trazado_118307" data-name="Trazado 118307" d="M176.749,281.891a3.738,3.738,0,1,0,3.737-3.684,3.711,3.711,0,0,0-3.737,3.684" transform="translate(69.808 104.366)" fill="#3b4f6f"/>
        <path id="Trazado_118308" data-name="Trazado 118308" d="M144.363,282.676a6.656,6.656,0,1,0,6.655-6.561,6.608,6.608,0,0,0-6.655,6.561" transform="translate(57.017 103.581)" fill="#1e2838"/>
        <path id="Trazado_118309" data-name="Trazado 118309" d="M146.455,281.891a3.738,3.738,0,1,0,3.737-3.684,3.711,3.711,0,0,0-3.737,3.684" transform="translate(57.843 104.366)" fill="#3b4f6f"/>
        <path id="Trazado_118310" data-name="Trazado 118310" d="M112.393,210.034H214.412a4.638,4.638,0,0,0,4.67-4.6v-2.155a4.639,4.639,0,0,0-4.67-4.605H112.393a4.639,4.639,0,0,0-4.67,4.605v2.155a4.638,4.638,0,0,0,4.67,4.6" transform="translate(42.546 74.529)" fill="#eecf52"/>
        <path id="Trazado_118311" data-name="Trazado 118311" d="M149.492,217.1h26.472a26.264,26.264,0,0,0,8.1-1.279l27.39-8.883H111.987l29.911,9.04a26.246,26.246,0,0,0,7.594,1.122" transform="translate(44.23 77.629)" fill="#62728c"/>
        <path id="Trazado_118312" data-name="Trazado 118312" d="M175.4,205.349H141.953a12.35,12.35,0,0,1-12.089-9.545l-9.871-43.45a12.259,12.259,0,0,1,12.09-14.882H185.27a12.259,12.259,0,0,1,12.09,14.882l-9.869,43.45a12.352,12.352,0,0,1-12.09,9.545" transform="translate(47.271 51.571)" fill="#eecf52"/>
        <path id="Trazado_118313" data-name="Trazado 118313" d="M141.715,233.965h22.722l-6.417-8.8-.883-71.309c0-3.006-1.9-5.391-4.945-5.391l-.576-.052a5.484,5.484,0,0,0-5.523,5.443l.884,71.09Z" transform="translate(55.971 55.677)" fill="#62728c"/>
      </g>
    </g>
  </g>
</svg>
