<svg xmlns="http://www.w3.org/2000/svg" width="122" height="122" viewBox="0 0 122 122">
  <g id="Grupo_85370" data-name="Grupo 85370" transform="translate(-739 -2842)">
    <circle id="Elipse_4804" data-name="Elipse 4804" cx="61" cy="61" r="61" transform="translate(739 2842)" fill="#eecf52"/>
    <g id="base-de-datos-de-objetos" transform="translate(752.861 2829.876)">
      <g id="Grupo_85369" data-name="Grupo 85369" transform="translate(3.859 41.183)">
        <g id="Grupo_85355" data-name="Grupo 85355" transform="translate(4.844 1.329)">
          <g id="Grupo_85353" data-name="Grupo 85353">
            <path id="Trazado_118412" data-name="Trazado 118412" d="M17.288,46.467H34.361V63.54H17.288Z" transform="translate(-17.288 -46.467)" fill="#eecf52"/>
          </g>
          <g id="Grupo_85354" data-name="Grupo 85354" transform="translate(1.984 1.984)">
            <path id="Trazado_118413" data-name="Trazado 118413" d="M34.991,65.072H28.617a.9.9,0,1,1,0-1.8h5.472v-10.4a.9.9,0,0,1,1.8,0v11.3a.9.9,0,0,1-.9.9Zm-9.981,0H23.69a.9.9,0,0,1,0-1.8h1.32a.9.9,0,0,1,0,1.8Z" transform="translate(-22.788 -51.967)" fill="#eecf52"/>
          </g>
        </g>
        <g id="Grupo_85358" data-name="Grupo 85358" transform="translate(34.922 1.329)">
          <g id="Grupo_85356" data-name="Grupo 85356">
            <path id="Trazado_118414" data-name="Trazado 118414" d="M110.531,46.467l9.857,17.073H100.674Z" transform="translate(-100.674 -46.467)" fill="#79dfef"/>
          </g>
        </g>
        <g id="Grupo_85361" data-name="Grupo 85361" transform="translate(66.978 0)">
          <g id="Grupo_85359" data-name="Grupo 85359">
            <circle id="Elipse_4810" data-name="Elipse 4810" cx="9.201" cy="9.201" r="9.201" fill="#13bf6d"/>
          </g>
          <g id="Grupo_85360" data-name="Grupo 85360" transform="translate(3.833 3.834)">
            <path id="Trazado_118416" data-name="Trazado 118416" d="M205.225,65.985a.9.9,0,0,1,.077-1.8,5.414,5.414,0,0,0,4.061-9.233.9.9,0,0,1,1.275-1.275,7.217,7.217,0,0,1-5.413,12.31Zm-3.85-1.309a7.292,7.292,0,0,1-.944-.8.9.9,0,1,1,1.275-1.276,5.45,5.45,0,0,0,.708.6.9.9,0,1,1-1.04,1.474Z" transform="translate(-200.167 -53.41)" fill="#76ffba"/>
          </g>
        </g>
        <g id="Grupo_85362" data-name="Grupo 85362" transform="translate(0.902 27.306)">
          <path id="Trazado_118417" data-name="Trazado 118417" d="M18.838,118.482c-6.891,0-12.479,1.511-12.479,3.373v27.427c0,4.443,24.957,4.442,24.957,0V121.855c0-1.862-5.587-3.373-12.479-3.373Z" transform="translate(-6.359 -118.482)" fill="#eecf52"/>
        </g>
        <g id="Grupo_85363" data-name="Grupo 85363" transform="translate(2.987 36.076)">
          <path id="Trazado_118418" data-name="Trazado 118418" d="M22.863,165.587c-5.351,0-9.3-1.077-10.438-2.14a.9.9,0,0,1-.286-.658V143.7a.9.9,0,0,1,1.8,0v18.624c.966.526,3.932,1.462,8.92,1.463a.9.9,0,1,1,0,1.8Zm2.7-.985a.9.9,0,0,1,.806-.988,16.42,16.42,0,0,0,5.245-1.211.9.9,0,0,1,.782,1.625,19.013,19.013,0,0,1-5.845,1.38.9.9,0,0,1-.989-.806Z" transform="translate(-12.139 -142.795)" fill="#fff0b2"/>
        </g>
        <g id="Grupo_85364" data-name="Grupo 85364" transform="translate(32.301 27.306)">
          <path id="Trazado_118419" data-name="Trazado 118419" d="M105.885,118.482c-6.891,0-12.479,1.511-12.479,3.373v27.427c0,4.443,24.957,4.442,24.957,0V121.855c0-1.862-5.587-3.373-12.479-3.373Z" transform="translate(-93.406 -118.482)" fill="#79dfef"/>
        </g>
        <g id="Grupo_85365" data-name="Grupo 85365" transform="translate(34.386 36.076)">
          <path id="Trazado_118420" data-name="Trazado 118420" d="M109.91,165.587c-5.351,0-9.3-1.077-10.438-2.14a.9.9,0,0,1-.286-.658V143.7a.9.9,0,0,1,1.8,0v18.624c.966.526,3.932,1.462,8.92,1.463a.9.9,0,1,1,0,1.8Zm3.6-.175a.9.9,0,0,1-.09-1.8,16.42,16.42,0,0,0,5.245-1.211.9.9,0,0,1,.782,1.625,20.379,20.379,0,0,1-5.938,1.385Z" transform="translate(-99.186 -142.795)" fill="#05339e"/>
        </g>
        <g id="Grupo_85366" data-name="Grupo 85366" transform="translate(63.7 27.306)">
          <path id="Trazado_118421" data-name="Trazado 118421" d="M192.932,118.482c-6.891,0-12.479,1.511-12.479,3.373v27.427c0,4.443,24.957,4.442,24.957,0V121.855c0-1.862-5.588-3.373-12.479-3.373Z" transform="translate(-180.453 -118.482)" fill="#13b770"/>
        </g>
        <g id="Grupo_85367" data-name="Grupo 85367" transform="translate(65.784 36.076)">
          <path id="Trazado_118422" data-name="Trazado 118422" d="M196.956,165.587c-5.351,0-9.3-1.077-10.438-2.14a.9.9,0,0,1-.286-.658V143.7a.9.9,0,1,1,1.8,0v18.624c.966.526,3.932,1.462,8.92,1.463a.9.9,0,1,1,0,1.8Zm3.6-.175a.9.9,0,0,1-.09-1.8,16.42,16.42,0,0,0,5.245-1.211.9.9,0,0,1,.782,1.625,19.014,19.014,0,0,1-5.845,1.38C200.618,165.411,200.587,165.412,200.556,165.412Z" transform="translate(-186.232 -142.795)" fill="#76ffba"/>
        </g>
        <g id="Grupo_85368" data-name="Grupo 85368" transform="translate(0 0.429)">
          <circle id="Elipse_4811" data-name="Elipse 4811" cx="0.902" cy="0.902" r="0.902" transform="translate(3.943 7.092)"/>
          <path id="Trazado_118423" data-name="Trazado 118423" d="M18.134,69.955V62.846h7.642a.9.9,0,0,0,.9-.9V44.872a.9.9,0,0,0-.9-.9H8.7a.9.9,0,0,0-.9.9v3.484a.9.9,0,1,0,1.8,0V45.773H24.874V61.043H9.606V55.571a.9.9,0,1,0-1.8,0v6.374a.9.9,0,0,0,.9.9H16.33v7.109c-3.484.066-12.471.8-12.471,4.265v27.427c0,2.937,6.936,4.274,13.38,4.274s13.381-1.338,13.381-4.274V74.219c0-3.894-11.028-4.129-12.487-4.264Zm-1.8,1.8V73.9a.9.9,0,1,0,1.8,0V71.758c6.664.128,10.683,1.712,10.683,2.462,0,1.758-9.117,2.47-11.6,2.47-6.982,0-11.472-1.607-11.557-2.471C5.768,73.354,10.123,71.848,16.33,71.759ZM5.663,76.529c2.829,1.539,8.243,1.966,11.577,1.966,3.7,0,8.85-.5,11.577-1.967v6.9c0,.192-.254.41-.4.523-1.641,1.223-6.372,1.9-11.172,1.912-7.466.013-11.577-1.509-11.577-2.434Zm0,9.293C8.469,87.327,14,87.656,17.2,87.656c4.617,0,9.263-.606,11.62-1.849V92.54c0,1.321-5.644,2.416-11.577,2.458C9.97,95.049,5.663,93.509,5.663,92.54Zm11.577,18.3c-7.52,0-11.577-1.753-11.577-2.471v-6.7c2.8,1.515,8.3,1.842,11.509,1.842,4.624,0,9.283-.611,11.645-1.863v6.72c0,.717-4.057,2.471-11.577,2.471Z" transform="translate(-3.859 -43.97)"/>
          <path id="Trazado_118424" data-name="Trazado 118424" d="M123.962,161.864a.9.9,0,1,0-.9-.916A.906.906,0,0,0,123.962,161.864Z" transform="translate(-80.062 -118.185)"/>
        </g>
      </g>
      <path id="Trazado_118425" data-name="Trazado 118425" d="M105.183,69.957v-7.11h8.964a.9.9,0,0,0,.779-1.353l-9.855-17.073a.905.905,0,0,0-1.565,0L93.651,61.494a.9.9,0,0,0,.779,1.353h8.949v7.11c-3.47.065-12.47.8-12.47,4.264v27.429c0,2.936,6.933,4.274,13.379,4.274s13.379-1.338,13.379-4.274V74.22C117.668,70.8,108.6,69.957,105.183,69.957Zm-9.191-8.913,8.3-14.367,8.3,14.367Zm19.872,40.605c0,.718-4.054,2.471-11.575,2.471s-11.575-1.753-11.575-2.471v-6.7c4.556,2.464,18.472,2.456,23.151-.022Zm0-18.216c-.047,1.389-5.981,2.186-8.9,2.348a.9.9,0,0,0,.1,1.8c2.543-.141,6.554-.566,8.8-1.764v6.724c0,3.153-23.151,3.189-23.151,0V85.824a20.637,20.637,0,0,0,7.012,1.63.9.9,0,1,0,.162-1.793c-1.7-.159-7.128-.934-7.175-2.226V76.529c2.828,1.54,8.325,1.966,11.575,1.966,3.333,0,8.693-.418,11.575-1.966Zm-11.593-6.742c-6.688,0-11.557-1.569-11.557-2.471,0-.588,3.412-2.316,10.645-2.46h.022V73.9a.9.9,0,1,0,1.8,0V71.76c5.656.108,10.681,1.486,10.681,2.456C115.864,76.081,106.269,76.691,104.271,76.691Z" transform="translate(-55.651 -2.36)"/>
      <path id="Trazado_118426" data-name="Trazado 118426" d="M192.228,67.6l0-7.149a10.117,10.117,0,1,0-1.8,0l0,7.153c-3.47.065-12.47.8-12.47,4.264V99.289c0,2.936,6.933,4.274,13.379,4.274s13.379-1.338,13.379-4.274V71.86c0-3.42-9.072-4.264-12.484-4.264Zm-9.193-17.213a8.3,8.3,0,1,1,8.3,8.3h-.014A8.331,8.331,0,0,1,183.036,50.384Zm19.873,48.905c0,.718-4.054,2.471-11.575,2.471s-11.575-1.753-11.575-2.471v-6.7c4.556,2.464,18.472,2.456,23.151-.022Zm0-18.216c-.047,1.389-5.981,2.186-8.9,2.348a.9.9,0,1,0,.1,1.8c2.543-.141,6.554-.566,8.8-1.764v6.724c0,3.153-23.151,3.189-23.151,0V83.465a20.637,20.637,0,0,0,7.012,1.63.9.9,0,1,0,.162-1.793c-1.7-.159-7.128-.934-7.175-2.226V74.169c2.828,1.54,8.325,1.966,11.575,1.966,3.333,0,8.693-.418,11.575-1.966Zm-11.593-6.742c-6.688,0-11.557-1.569-11.557-2.471,0-.588,3.412-2.316,10.645-2.46h.022v2.143a.9.9,0,1,0,1.8,0V69.4c5.656.108,10.681,1.486,10.681,2.456C202.909,73.722,193.314,74.331,191.316,74.331Z" transform="translate(-111.297)"/>
    </g>
  </g>
</svg>
