<svg xmlns="http://www.w3.org/2000/svg" width="51.499" height="51.5" viewBox="0 0 51.499 51.5">
  <g id="actualizar-base-de-datos" transform="translate(-1.002 -1.002)">
    <g id="Grupo_82332" data-name="Grupo 82332" transform="translate(2.032 2.03)">
      <g id="Grupo_82326" data-name="Grupo 82326" transform="translate(0.004 8.663)">
        <path id="Trazado_114981" data-name="Trazado 114981" d="M41.689,10.41V42.459c0,4.783-8.887,8.66-19.841,8.66S2.006,47.242,2.006,42.459V10.41Z" transform="translate(-2.006 -10.41)" fill="#e5f0f9"/>
      </g>
      <g id="Grupo_82327" data-name="Grupo 82327" transform="translate(0.396 30.026)" opacity="0.07">
        <path id="Trazado_114982" data-name="Trazado 114982" d="M41.677,31.149V41.835c0,4.783-8.887,8.66-19.841,8.66-9.617,0-17.629-2.983-19.45-6.953,3.6,2.17,9.463,3.59,16.086,3.59,10.954,0,19.841-3.878,19.841-8.66V35.983c2.119-1.389,3.363-3.044,3.363-4.834Z" transform="translate(-2.387 -31.149)"/>
      </g>
      <g id="Grupo_82328" data-name="Grupo 82328" transform="translate(0.396 19.344)" opacity="0.07">
        <path id="Trazado_114983" data-name="Trazado 114983" d="M41.677,20.779V31.466c0,4.783-8.887,8.66-19.841,8.66-9.617,0-17.629-2.983-19.45-6.953,3.6,2.17,9.463,3.59,16.086,3.59,10.954,0,19.841-3.878,19.841-8.66V25.613c2.119-1.389,3.363-3.044,3.363-4.834Z" transform="translate(-2.387 -20.779)"/>
      </g>
      <g id="Grupo_82329" data-name="Grupo 82329" transform="translate(0.396 8.663)" opacity="0.07">
        <path id="Trazado_114984" data-name="Trazado 114984" d="M41.677,10.41V21.1c0,4.783-8.887,8.66-19.841,8.66-9.617,0-17.629-2.983-19.45-6.953,3.6,2.17,9.463,3.59,16.086,3.59,10.954,0,19.841-3.878,19.841-8.66V15.244c2.119-1.389,3.363-3.044,3.363-4.834Z" transform="translate(-2.387 -10.41)"/>
      </g>
      <g id="Grupo_82330" data-name="Grupo 82330" transform="translate(0)">
        <ellipse id="Elipse_4750" data-name="Elipse 4750" cx="19.842" cy="8.66" rx="19.842" ry="8.66" fill="#eecf52"/>
      </g>
      <g id="Grupo_82331" data-name="Grupo 82331" transform="translate(0.499 3.746)" opacity="0.07">
        <path id="Trazado_114985" data-name="Trazado 114985" d="M41.674,10.553c0,4.783-8.887,8.66-19.841,8.66-9.452,0-17.352-2.88-19.347-6.747,3.579,2.263,9.565,3.744,16.344,3.744,10.954,0,19.841-3.878,19.841-8.66a4.016,4.016,0,0,0-.494-1.913c2.2,1.4,3.5,3.1,3.5,4.916Z" transform="translate(-2.486 -5.637)"/>
      </g>
    </g>
    <g id="Grupo_82337" data-name="Grupo 82337" transform="translate(1.002 1.002)">
      <g id="Grupo_82333" data-name="Grupo 82333" transform="translate(24.031 24.032)">
        <circle id="Elipse_4751" data-name="Elipse 4751" cx="13.219" cy="13.219" r="13.219" fill="#79dfef"/>
      </g>
      <g id="Grupo_82334" data-name="Grupo 82334" transform="translate(26.73 26.708)" opacity="0.07">
        <path id="Trazado_114986" data-name="Trazado 114986" d="M50.7,37.478a13.218,13.218,0,0,1-23.743,7.993,13.216,13.216,0,0,0,18.5-18.542A13.225,13.225,0,0,1,50.7,37.478Z" transform="translate(-26.952 -26.93)"/>
      </g>
      <g id="Grupo_82336" data-name="Grupo 82336">
        <path id="Trazado_114987" data-name="Trazado 114987" d="M42.745,24.741V21.378s0,0,0,0V10.685C42.745,5.256,33.577,1,21.875,1S1.006,5.256,1.006,10.685V21.358c0,.006,0,.01,0,.016s0,.02,0,.03V42.741c0,5.439,9.168,9.693,20.869,9.693A41.411,41.411,0,0,0,32.29,51.177,14.237,14.237,0,1,0,42.745,24.741ZM21.875,3.062c7.377,0,18.809,2.516,18.809,7.623,0,5.128-11.422,7.633-18.809,7.633-6.6,0-18.809-2.253-18.809-7.633,0-5.133,11.444-7.623,18.809-7.623ZM3.066,14.96C6.4,18.194,13.49,20.378,21.875,20.378s15.472-2.184,18.809-5.418v6.417a3.952,3.952,0,0,1-1.31,2.684C39,24.032,38.632,24,38.253,24A14.2,14.2,0,0,0,27.8,28.6a43.151,43.151,0,0,1-5.927.4C10.647,29,3.1,25.077,3.066,21.4V14.96Zm0,10.659c3.335,3.247,10.408,5.445,18.808,5.445,1.461,0,2.862-.089,4.229-.216A14.141,14.141,0,0,0,24,38.253c0,.46.026.913.069,1.362-.724.04-1.453.07-2.195.07-11.252,0-18.811-3.945-18.811-7.63,0,0,0-.006,0-.009V25.618ZM21.875,50.374c-11.249,0-18.809-3.945-18.809-7.633V36.3c3.333,3.25,10.408,5.451,18.812,5.451.863,0,1.711-.039,2.553-.091a14.261,14.261,0,0,0,5.308,8,41.6,41.6,0,0,1-7.864.722Zm16.378.068A12.189,12.189,0,1,1,50.442,38.253,12.2,12.2,0,0,1,38.253,50.442Z" transform="translate(-1.002 -1.002)" fill="#293c66"/>
        <g id="Grupo_82335" data-name="Grupo 82335" transform="translate(28.897 28.661)">
          <path id="Trazado_114988" data-name="Trazado 114988" d="M45.158,38.3a.772.772,0,0,0-.94.558,7.045,7.045,0,0,1-6.832,5.312,6.966,6.966,0,0,1-4.375-1.529l1.183-.725a.278.278,0,0,0-.01-.483l-3.951-2.158a.28.28,0,0,0-.414.256l.108,4.5a.283.283,0,0,0,.424.237l1.275-.781a8.494,8.494,0,0,0,5.76,2.225,8.59,8.59,0,0,0,8.33-6.476.773.773,0,0,0-.558-.94Z" transform="translate(-29.033 -28.542)" fill="#293c66"/>
          <path id="Trazado_114989" data-name="Trazado 114989" d="M30.577,35.684a7.05,7.05,0,0,1,6.833-5.313A6.96,6.96,0,0,1,41.778,31.9l-1.186.727a.278.278,0,0,0,.02.483l3.951,2.158a.28.28,0,0,0,.414-.256l-.108-4.5a.289.289,0,0,0-.434-.236l-1.271.779a8.491,8.491,0,0,0-5.754-2.223A8.593,8.593,0,0,0,29.08,35.3a.772.772,0,1,0,1.5.382Z" transform="translate(-29.056 -28.826)" fill="#293c66"/>
        </g>
      </g>
    </g>
  </g>
</svg>
