<svg xmlns="http://www.w3.org/2000/svg" width="122" height="122" viewBox="0 0 122 122">
  <g id="Grupo_85371" data-name="Grupo 85371" transform="translate(-389 -2842)">
    <circle id="Elipse_4803" data-name="Elipse 4803" cx="61" cy="61" r="61" transform="translate(389 2842)" fill="#eecf52"/>
    <g id="relacional" transform="translate(407 2861)">
      <g id="Grupo_85351" data-name="Grupo 85351" transform="translate(2.323 2.323)">
        <g id="Grupo_85340" data-name="Grupo 85340" transform="translate(42.323 10.581)">
          <path id="Trazado_118380" data-name="Trazado 118380" d="M71.032,10V28.516a2.653,2.653,0,0,1-2.645,2.645H36.645A2.653,2.653,0,0,1,34,28.516V10Z" transform="translate(-34 -10)" fill="#e6e9ed"/>
        </g>
        <g id="Grupo_85341" data-name="Grupo 85341" transform="translate(42.323 50.258)">
          <path id="Trazado_118381" data-name="Trazado 118381" d="M34,58.516V40H71.032V58.516a2.653,2.653,0,0,1-2.645,2.645H36.645A2.653,2.653,0,0,1,34,58.516Z" transform="translate(-34 -40)" fill="#e6e9ed"/>
        </g>
        <g id="Grupo_85342" data-name="Grupo 85342" transform="translate(60.839 55.548)">
          <path id="Trazado_118382" data-name="Trazado 118382" d="M48,44H61.226V54.581H48Z" transform="translate(-48 -44)" fill="#ffeaa7"/>
        </g>
        <g id="Grupo_85343" data-name="Grupo 85343" transform="translate(47.613 15.871)">
          <path id="Trazado_118383" data-name="Trazado 118383" d="M38,14h7.935V24.581H38Z" transform="translate(-38 -14)" fill="#ffeaa7"/>
        </g>
        <g id="Grupo_85344" data-name="Grupo 85344" transform="translate(42.323 39.677)">
          <path id="Trazado_118384" data-name="Trazado 118384" d="M34,42.581V34.645A2.653,2.653,0,0,1,36.645,32H68.387a2.653,2.653,0,0,1,2.645,2.645v7.935Z" transform="translate(-34 -32)" fill="#13b770"/>
        </g>
        <g id="Grupo_85345" data-name="Grupo 85345" transform="translate(42.323 0)">
          <path id="Trazado_118385" data-name="Trazado 118385" d="M34,12.581V4.645A2.653,2.653,0,0,1,36.645,2H68.387a2.653,2.653,0,0,1,2.645,2.645v7.935Z" transform="translate(-34 -2)" fill="#13b770"/>
        </g>
        <g id="Grupo_85346" data-name="Grupo 85346" transform="translate(0 44.968)">
          <ellipse id="Elipse_4809" data-name="Elipse 4809" cx="18.5" cy="5.5" rx="18.5" ry="5.5" transform="translate(-0.323 -0.29)" fill="#ffeaa7"/>
        </g>
        <g id="Grupo_85347" data-name="Grupo 85347" transform="translate(0 58.194)">
          <path id="Trazado_118386" data-name="Trazado 118386" d="M39.032,46v7.935c0,2.923-8.293,5.29-18.516,5.29S2,56.858,2,53.935V46c0,2.923,8.293,5.29,18.516,5.29S39.032,48.923,39.032,46Z" transform="translate(-2 -46)" fill="#ffc729"/>
        </g>
        <g id="Grupo_85348" data-name="Grupo 85348" transform="translate(0 66.129)">
          <path id="Trazado_118387" data-name="Trazado 118387" d="M39.032,52v7.935c0,2.923-8.293,5.29-18.516,5.29S2,62.858,2,59.935V52c0,2.923,8.293,5.29,18.516,5.29S39.032,54.923,39.032,52Z" transform="translate(-2 -52)" fill="#fcd770"/>
        </g>
        <g id="Grupo_85349" data-name="Grupo 85349" transform="translate(0 50.258)">
          <path id="Trazado_118388" data-name="Trazado 118388" d="M20.516,45.29c10.224,0,18.516-2.367,18.516-5.29v7.935c0,2.923-8.293,5.29-18.516,5.29S2,50.858,2,47.935V40C2,42.923,10.293,45.29,20.516,45.29Z" transform="translate(-2 -40)" fill="#fcd770"/>
        </g>
        <g id="Grupo_85350" data-name="Grupo 85350" transform="translate(5.29 6.613)">
          <path id="Trazado_118389" data-name="Trazado 118389" d="M19.226,28.161a7.935,7.935,0,1,0-7.935-7.935A7.942,7.942,0,0,0,19.226,28.161Zm13.226-7.935v2.645l-1.785.635a11.844,11.844,0,0,1-1.032,2.5l.82,1.706-3.743,3.743-1.706-.82a11.844,11.844,0,0,1-2.5,1.032l-.635,1.785h-5.29l-.635-1.785a11.844,11.844,0,0,1-2.5-1.032l-1.706.82L8,27.712l.82-1.706a11.844,11.844,0,0,1-1.032-2.5L6,22.871v-5.29l1.785-.635a11.844,11.844,0,0,1,1.032-2.5L8,12.74,11.74,9l1.706.82a11.844,11.844,0,0,1,2.5-1.032L16.581,7h5.29l.635,1.785a11.844,11.844,0,0,1,2.5,1.032L26.712,9l3.743,3.743-.82,1.706a11.844,11.844,0,0,1,1.032,2.5l1.785.635Z" transform="translate(-6 -7)" fill="#48cfad"/>
        </g>
      </g>
      <g id="Grupo_85352" data-name="Grupo 85352" transform="translate(1 1)">
        <path id="Trazado_118390" data-name="Trazado 118390" d="M18.258,10a9.258,9.258,0,1,0,9.258,9.258A9.27,9.27,0,0,0,18.258,10Zm0,15.871a6.613,6.613,0,1,1,6.613-6.613A6.62,6.62,0,0,1,18.258,25.871Z" transform="translate(1.581 1.903)"/>
        <path id="Trazado_118391" data-name="Trazado 118391" d="M7,39H9.645v2.645H7Z" transform="translate(0.935 11.258)"/>
        <path id="Trazado_118392" data-name="Trazado 118392" d="M15,39h2.645v2.645H15Z" transform="translate(3.516 11.258)"/>
        <path id="Trazado_118393" data-name="Trazado 118393" d="M19,39h2.645v2.645H19Z" transform="translate(4.806 11.258)"/>
        <path id="Trazado_118394" data-name="Trazado 118394" d="M11,39h2.645v2.645H11Z" transform="translate(2.226 11.258)"/>
        <path id="Trazado_118395" data-name="Trazado 118395" d="M23,39h2.645v2.645H23Z" transform="translate(6.097 11.258)"/>
        <path id="Trazado_118396" data-name="Trazado 118396" d="M79.032,35.387A3.973,3.973,0,0,0,83,31.419V4.968A3.973,3.973,0,0,0,79.032,1H47.29a3.973,3.973,0,0,0-3.968,3.968V20.839H35.387v-2.26l-2.05-.719a13.093,13.093,0,0,0-.616-1.5l.938-1.955L28.593,9.34l-1.955.938a13.093,13.093,0,0,0-1.5-.616l-.718-2.049H17.256l-.719,2.05a13.093,13.093,0,0,0-1.5.616l-1.955-.938L8.018,14.407l.938,1.955a13.093,13.093,0,0,0-.616,1.5l-2.049.718v7.164l2.049.721a13.343,13.343,0,0,0,.618,1.5l-.938,1.955,5.065,5.065,1.955-.938a13.343,13.343,0,0,0,1.5.618l.719,2.047h2.259v9.277C10.359,46.167,1,48.245,1,52.581V76.387C1,80.931,11.283,83,20.839,83s19.839-2.069,19.839-6.613V52.581c0-4.335-9.359-6.413-18.516-6.594V36.71H24.42l.721-2.049a13.344,13.344,0,0,0,1.5-.618l1.955.938,5.065-5.065-.938-1.955a13.343,13.343,0,0,0,.618-1.5l2.047-.719V23.484h7.935v7.935a3.973,3.973,0,0,0,3.968,3.968H61.839v5.29H47.29a3.973,3.973,0,0,0-3.968,3.968V71.1a3.973,3.973,0,0,0,3.968,3.968H79.032A3.973,3.973,0,0,0,83,71.1V44.645a3.973,3.973,0,0,0-3.968-3.968H64.484v-5.29ZM20.839,80.355c-11.344,0-17.194-2.781-17.194-3.968V71.979c3.67,2.1,10.6,3.086,17.194,3.086s13.523-.985,17.194-3.086v4.408C38.032,77.573,32.182,80.355,20.839,80.355Zm0-7.935c-11.344,0-17.194-2.781-17.194-3.968V64.043c3.67,2.1,10.6,3.086,17.194,3.086s13.523-.985,17.194-3.086v4.408C38.032,69.638,32.182,72.419,20.839,72.419Zm0-7.935c-11.344,0-17.194-2.781-17.194-3.968V56.108c3.67,2.1,10.6,3.086,17.194,3.086s13.523-.985,17.194-3.086v4.408C38.032,61.7,32.182,64.484,20.839,64.484Zm17.194-11.9c0,1.186-5.85,3.968-17.194,3.968S3.645,53.767,3.645,52.581s5.85-3.968,17.194-3.968S38.032,51.394,38.032,52.581ZM32.742,23.87l-1.55.544-.186.657a10.55,10.55,0,0,1-.917,2.222l-.335.6.71,1.479-2.415,2.415-1.479-.71-.6.335a10.55,10.55,0,0,1-2.222.917l-.657.188-.545,1.55H19.13l-.544-1.55-.657-.186a10.55,10.55,0,0,1-2.222-.917l-.6-.335-1.479.71-2.415-2.415.71-1.479-.335-.6a10.55,10.55,0,0,1-.917-2.222l-.188-.657-1.55-.544V20.454l1.553-.546.188-.657a10.382,10.382,0,0,1,.914-2.221l.335-.6-.71-1.479,2.415-2.415,1.479.71.6-.335A10.382,10.382,0,0,1,17.928,12l.657-.188.546-1.553h3.415l.546,1.553L23.75,12a10.382,10.382,0,0,1,2.221.914l.6.335,1.479-.71,2.415,2.415-.71,1.479.335.6A10.382,10.382,0,0,1,31,19.25l.188.657,1.553.546Zm46.29,48.549H47.29A1.323,1.323,0,0,1,45.968,71.1V53.9H80.355V71.1A1.323,1.323,0,0,1,79.032,72.419Zm1.323-27.774v6.613H45.968V44.645a1.323,1.323,0,0,1,1.323-1.323H79.032A1.323,1.323,0,0,1,80.355,44.645Zm-33.065-41H79.032a1.323,1.323,0,0,1,1.323,1.323v6.613H45.968V4.968A1.323,1.323,0,0,1,47.29,3.645ZM45.968,31.419V14.226H80.355V31.419a1.323,1.323,0,0,1-1.323,1.323H47.29A1.323,1.323,0,0,1,45.968,31.419Z" transform="translate(-1 -1)"/>
        <path id="Trazado_118397" data-name="Trazado 118397" d="M45,5h2.645V7.645H45Z" transform="translate(13.194 0.29)"/>
        <path id="Trazado_118398" data-name="Trazado 118398" d="M37,5h2.645V7.645H37Z" transform="translate(10.613 0.29)"/>
        <path id="Trazado_118399" data-name="Trazado 118399" d="M41,5h2.645V7.645H41Z" transform="translate(11.903 0.29)"/>
        <path id="Trazado_118400" data-name="Trazado 118400" d="M37,35h2.645v2.645H37Z" transform="translate(10.613 9.968)"/>
        <path id="Trazado_118401" data-name="Trazado 118401" d="M41,35h2.645v2.645H41Z" transform="translate(11.903 9.968)"/>
        <path id="Trazado_118402" data-name="Trazado 118402" d="M45,35h2.645v2.645H45Z" transform="translate(13.194 9.968)"/>
        <path id="Trazado_118403" data-name="Trazado 118403" d="M37,26.226H47.581V13H37Zm2.645-10.581h5.29v7.935h-5.29Z" transform="translate(10.613 2.871)"/>
        <path id="Trazado_118404" data-name="Trazado 118404" d="M47,13h2.645v2.645H47Z" transform="translate(13.839 2.871)"/>
        <path id="Trazado_118405" data-name="Trazado 118405" d="M51,13H61.581v2.645H51Z" transform="translate(15.129 2.871)"/>
        <path id="Trazado_118406" data-name="Trazado 118406" d="M47,17H62.871v2.645H47Z" transform="translate(13.839 4.161)"/>
        <path id="Trazado_118407" data-name="Trazado 118407" d="M47,21H62.871v2.645H47Z" transform="translate(13.839 5.452)"/>
        <path id="Trazado_118408" data-name="Trazado 118408" d="M47,56.226H62.871V43H47Zm2.645-10.581H60.226v7.935H49.645Z" transform="translate(13.839 12.548)"/>
        <path id="Trazado_118409" data-name="Trazado 118409" d="M37,43H47.581v2.645H37Z" transform="translate(10.613 12.548)"/>
        <path id="Trazado_118410" data-name="Trazado 118410" d="M37,47H47.581v2.645H37Z" transform="translate(10.613 13.839)"/>
        <path id="Trazado_118411" data-name="Trazado 118411" d="M37,51H47.581v2.645H37Z" transform="translate(10.613 15.129)"/>
      </g>
    </g>
  </g>
</svg>
