<svg xmlns="http://www.w3.org/2000/svg" width="122" height="122" viewBox="0 0 122 122">
  <g id="Grupo_85374" data-name="Grupo 85374" transform="translate(-1090 -2188)">
    <circle id="Elipse_4802" data-name="Elipse 4802" cx="61" cy="61" r="61" transform="translate(1090 2188)" fill="#eecf52"/>
    <g id="almacenamiento-de-base-de-datos" transform="translate(1106 2206.752)">
      <g id="Grupo_85316" data-name="Grupo 85316" transform="translate(2.226 2.226)">
        <g id="Grupo_85306" data-name="Grupo 85306" transform="translate(9.81 22.074)">
          <path id="Trazado_118332" data-name="Trazado 118332" d="M49.242,20v9.81c0,2.71-8.78,4.905-19.621,4.905S10,32.521,10,29.81V20c0,2.71,8.78,4.905,19.621,4.905S49.242,22.71,49.242,20Z" transform="translate(-10 -20)" fill="#fcd770"/>
        </g>
        <g id="Grupo_85307" data-name="Grupo 85307" transform="translate(30.241 41.695)">
          <path id="Trazado_118333" data-name="Trazado 118333" d="M45.472,36v9.81c0,2.281-6.254,4.194-14.716,4.746v-3.52l-3.152-.8a14.6,14.6,0,0,0-.944-2.256l1.668-2.808c9.8-.27,17.144-2.649,17.144-5.175Z" transform="translate(-26.66 -36)" fill="#fcd770"/>
        </g>
        <g id="Grupo_85308" data-name="Grupo 85308" transform="translate(9.81 31.884)">
          <path id="Trazado_118334" data-name="Trazado 118334" d="M10,28c0,2.71,8.78,4.905,19.621,4.905S49.242,30.71,49.242,28v9.81c0,2.526-7.346,4.905-17.144,5.175l-5.2-5.2L24.09,39.454a14.605,14.605,0,0,0-2.256-.944l-.8-3.152H13.679l-.8,3.152a14.6,14.6,0,0,0-2.256.944L10,39.086Z" transform="translate(-10 -28)" fill="#ffeaa7"/>
        </g>
        <g id="Grupo_85309" data-name="Grupo 85309" transform="translate(10.182 16.95)">
          <ellipse id="Elipse_4805" data-name="Elipse 4805" cx="19.557" cy="4.889" rx="19.557" ry="4.889" transform="translate(0 0)" fill="#ffeaa7"/>
        </g>
        <g id="Grupo_85310" data-name="Grupo 85310" transform="translate(0 39.242)">
          <path id="Trazado_118335" data-name="Trazado 118335" d="M36.337,51.009v3.838l-3.152.8a14.6,14.6,0,0,1-.944,2.256l1.668,2.808-5.2,5.2L25.9,64.241a14.6,14.6,0,0,1-2.256.944l-.8,3.152H15.489l-.8-3.152a14.6,14.6,0,0,1-2.256-.944L9.628,65.909l-5.2-5.2L6.1,57.9a14.6,14.6,0,0,1-.944-2.256L2,54.847V47.489l3.152-.8A14.6,14.6,0,0,1,6.1,44.436L4.428,41.628l5.2-5.2,2.183,1.3.625.368a14.605,14.605,0,0,1,2.256-.944l.8-3.152h7.358l.8,3.152A14.605,14.605,0,0,1,25.9,38.1l2.808-1.668,5.2,5.2-1.668,2.808a14.6,14.6,0,0,1,.944,2.256l3.152.8Zm-7.358.159a9.81,9.81,0,1,0-9.81,9.81A9.808,9.808,0,0,0,28.979,51.168Z" transform="translate(-2 -34)" fill="#ffc729"/>
        </g>
        <g id="Grupo_85311" data-name="Grupo 85311" transform="translate(7.358 46.6)">
          <path id="Trazado_118336" data-name="Trazado 118336" d="M17.81,40A9.81,9.81,0,1,1,8,49.81,9.808,9.808,0,0,1,17.81,40Zm4.905,9.81a4.905,4.905,0,1,0-4.905,4.905A4.9,4.9,0,0,0,22.716,49.81Z" transform="translate(-8 -40)" fill="#fcd770"/>
        </g>
        <g id="Grupo_85312" data-name="Grupo 85312" transform="translate(56.41)">
          <path id="Trazado_118337" data-name="Trazado 118337" d="M65.168,2V26.526H48V2Z" transform="translate(-48 -2)" fill="#13b770"/>
        </g>
        <g id="Grupo_85313" data-name="Grupo 85313" transform="translate(56.41 49.052)">
          <path id="Trazado_118338" data-name="Trazado 118338" d="M65.168,42V66.526H48V42H65.168Z" transform="translate(-48 -42)" fill="#e6e9ed"/>
        </g>
        <g id="Grupo_85314" data-name="Grupo 85314" transform="translate(61.316 63.768)">
          <path id="Trazado_118339" data-name="Trazado 118339" d="M52,54h7.358v4.905H52Z" transform="translate(-52 -54)" fill="#b4dd7f"/>
        </g>
        <g id="Grupo_85315" data-name="Grupo 85315" transform="translate(61.519 33.246)">
          <circle id="Elipse_4806" data-name="Elipse 4806" cx="3.667" cy="3.667" r="3.667" transform="translate(0 0)" fill="#ff826e"/>
        </g>
      </g>
      <g id="Grupo_85323" data-name="Grupo 85323" transform="translate(1 1)">
        <g id="Grupo_85317" data-name="Grupo 85317" transform="translate(9.81 23.3)">
          <path id="Trazado_118340" data-name="Trazado 118340" d="M9,20h2.453V40.891H9Z" transform="translate(-9 -20)"/>
        </g>
        <g id="Grupo_85318" data-name="Grupo 85318" transform="translate(35.483 23.3)">
          <path id="Trazado_118341" data-name="Trazado 118341" d="M30.093,55.4l-.158-2.448c9.532-.616,13.569-2.768,13.569-3.521V20h2.453V49.431C45.957,54.019,33.815,55.16,30.093,55.4Z" transform="translate(-29.935 -20)"/>
        </g>
        <g id="Grupo_85319" data-name="Grupo 85319" transform="translate(7.358 46.6)">
          <path id="Trazado_118342" data-name="Trazado 118342" d="M18.037,61.074A11.037,11.037,0,1,1,29.074,50.037,11.049,11.049,0,0,1,18.037,61.074Zm0-19.621a8.584,8.584,0,1,0,8.584,8.584A8.594,8.594,0,0,0,18.037,41.453Z" transform="translate(-7 -39)"/>
        </g>
        <g id="Grupo_85320" data-name="Grupo 85320" transform="translate(0 39.242)">
          <path id="Trazado_118343" data-name="Trazado 118343" d="M24.026,69.789H14.762l-.874-3.436c-.391-.146-.784-.31-1.172-.491L9.663,67.676,3.112,61.125l1.815-3.052c-.18-.389-.345-.782-.491-1.172L1,56.026V46.762l3.436-.874c.146-.39.309-.784.491-1.172L3.112,41.663l6.551-6.551,3.052,1.814c.389-.18.781-.345,1.172-.491L14.763,33h9.265l.874,3.436c.391.146.784.31,1.172.491l3.052-1.814,6.551,6.551-1.815,3.052c.18.389.345.782.491,1.172l3.436.874v9.265l-3.436.874c-.146.39-.309.784-.491,1.172l1.815,3.052-6.551,6.551-3.052-1.814c-.389.18-.781.345-1.172.491Zm-7.358-2.453H22.12l.735-2.887.647-.206a13.5,13.5,0,0,0,2.064-.863l.6-.314,2.57,1.528,3.854-3.854-1.528-2.569.311-.6a13.463,13.463,0,0,0,.863-2.068l.207-.647,2.888-.732V48.67l-2.887-.733-.207-.647a13.463,13.463,0,0,0-.863-2.068l-.311-.6L32.6,42.049l-3.854-3.854-2.57,1.528-.6-.314a13.5,13.5,0,0,0-2.064-.863l-.647-.206-.735-2.887H16.67l-.735,2.887-.647.206a13.5,13.5,0,0,0-2.064.863l-.6.314-2.57-1.528L6.195,42.049l1.528,2.569-.311.6a13.463,13.463,0,0,0-.863,2.068l-.208.647-2.887.732V54.12l2.887.733.207.647a13.463,13.463,0,0,0,.863,2.068l.311.6L6.193,60.74l3.854,3.854,2.57-1.528.6.314a13.5,13.5,0,0,0,2.064.863l.647.206Z" transform="translate(-1 -33)"/>
        </g>
        <g id="Grupo_85321" data-name="Grupo 85321" transform="translate(12.263 51.505)">
          <path id="Trazado_118344" data-name="Trazado 118344" d="M17.132,55.263a6.132,6.132,0,1,1,6.132-6.132A6.139,6.139,0,0,1,17.132,55.263Zm0-9.81a3.679,3.679,0,1,0,3.679,3.679A3.683,3.683,0,0,0,17.132,45.453Z" transform="translate(-11 -43)"/>
        </g>
        <g id="Grupo_85322" data-name="Grupo 85322" transform="translate(9.81)">
          <path id="Trazado_118345" data-name="Trazado 118345" d="M29.847,27.263c7.211,0,20.847-1.281,20.847-6.132S37.058,15,29.847,15,9,16.281,9,21.132,22.637,27.263,29.847,27.263Zm0-9.81c11.949,0,18.395,2.611,18.395,3.679S41.8,24.81,29.847,24.81,11.453,22.2,11.453,21.132,17.9,17.453,29.847,17.453Z" transform="translate(-9 2.168)"/>
          <path id="Trazado_118346" data-name="Trazado 118346" d="M29.176,29.414c.813-.032,1.644-.078,2.488-.14l-.177-2.445c-.817.059-1.624.1-2.411.135Z" transform="translate(-4.456 4.845)"/>
          <path id="Trazado_118347" data-name="Trazado 118347" d="M33.265,29.146c.83-.091,1.662-.2,2.485-.324L35.378,26.4c-.789.121-1.584.223-2.379.309Z" transform="translate(-3.569 4.748)"/>
          <path id="Trazado_118348" data-name="Trazado 118348" d="M37.357,28.558c.858-.179,1.687-.384,2.467-.608l-.677-2.357c-.721.207-1.494.4-2.294.565Z" transform="translate(-2.697 4.566)"/>
          <path id="Trazado_118349" data-name="Trazado 118349" d="M33,42.766l.266,2.438c.83-.091,1.662-.2,2.485-.324l-.372-2.424c-.789.123-1.584.224-2.379.31Z" transform="translate(-3.569 8.382)"/>
          <path id="Trazado_118350" data-name="Trazado 118350" d="M36.853,42.215l.5,2.4c.868-.181,1.7-.386,2.467-.607l-.677-2.357c-.711.2-1.483.395-2.294.564Z" transform="translate(-2.697 8.2)"/>
          <path id="Trazado_118351" data-name="Trazado 118351" d="M50.695,28H48.242c0,1.068-6.445,3.679-18.395,3.679S11.453,29.068,11.453,28H9c0,4.85,13.637,6.132,20.847,6.132S50.695,32.85,50.695,28Z" transform="translate(-9 5.11)"/>
          <path id="Trazado_118352" data-name="Trazado 118352" d="M27.993,39.951l.069,2.453C36.892,42.156,46.4,40.047,46.4,36H43.944C43.944,37.047,38.517,39.656,27.993,39.951Z" transform="translate(-4.702 6.921)"/>
          <path id="Trazado_118353" data-name="Trazado 118353" d="M67.753,27.979V1H48.132V27.979h8.584v6.306a4.9,4.9,0,0,0-3.5,3.5H42v2.453H53.211a4.9,4.9,0,0,0,3.5,3.5v6.306H48.132V77.031H67.753V50.052H59.168V43.747a4.882,4.882,0,0,0,0-9.462V27.979ZM65.3,74.579H50.584V52.505H65.3ZM60.395,39.016a2.453,2.453,0,1,1-2.453-2.453A2.455,2.455,0,0,1,60.395,39.016ZM50.584,3.453H65.3V25.526H50.584Z" transform="translate(-1.532 -1)"/>
          <path id="Trazado_118354" data-name="Trazado 118354" d="M51,45h9.81v2.453H51Z" transform="translate(0.505 8.958)"/>
          <path id="Trazado_118355" data-name="Trazado 118355" d="M60.81,53H51v7.358h9.81Zm-2.453,4.905H53.453V55.453h4.905Z" transform="translate(0.505 10.768)"/>
          <path id="Trazado_118356" data-name="Trazado 118356" d="M51,5h9.81V7.453H51Z" transform="translate(0.505 -0.095)"/>
          <path id="Trazado_118357" data-name="Trazado 118357" d="M51,9h9.81v2.453H51Z" transform="translate(0.505 0.81)"/>
          <path id="Trazado_118358" data-name="Trazado 118358" d="M51,13h9.81v2.453H51Z" transform="translate(0.505 1.716)"/>
          <path id="Trazado_118359" data-name="Trazado 118359" d="M51,17h9.81v2.453H51Z" transform="translate(0.505 2.621)"/>
          <path id="Trazado_118360" data-name="Trazado 118360" d="M51,49h9.81v2.453H51Z" transform="translate(0.505 9.863)"/>
          <path id="Trazado_118361" data-name="Trazado 118361" d="M27,19h2.453v2.453H27Z" transform="translate(-4.926 3.074)"/>
          <path id="Trazado_118362" data-name="Trazado 118362" d="M31,19h2.453v2.453H31Z" transform="translate(-4.021 3.074)"/>
          <path id="Trazado_118363" data-name="Trazado 118363" d="M35,19h2.453v2.453H35Z" transform="translate(-3.116 3.074)"/>
          <path id="Trazado_118364" data-name="Trazado 118364" d="M15,19h2.453v2.453H15Z" transform="translate(-7.642 3.074)"/>
          <path id="Trazado_118365" data-name="Trazado 118365" d="M19,19h2.453v2.453H19Z" transform="translate(-6.737 3.074)"/>
          <path id="Trazado_118366" data-name="Trazado 118366" d="M23,19h2.453v2.453H23Z" transform="translate(-5.832 3.074)"/>
        </g>
      </g>
    </g>
  </g>
</svg>
