<svg xmlns="http://www.w3.org/2000/svg" width="400" height="271.767" viewBox="0 0 400 271.767">
  <g id="Grupo_85450" data-name="Grupo 85450" transform="translate(-180 -3347.217)">
    <rect id="Rect치ngulo_4912" data-name="Rect치ngulo 4912" width="400" height="271.767" rx="21" transform="translate(180 3347.217)" fill="#79dfef"/>
    <path id="Trazado_119103" data-name="Trazado 119103" d="M-26.028-6.639h-5.93V-2.9h7V0H-35.729V-15.641h10.8v2.911h-7.025v3.3h5.93Zm6.66-7.874v2.89h1.912v2.514h-1.912v5.317a1.358,1.358,0,0,0,.236.913,1.268,1.268,0,0,0,.935.258,5.311,5.311,0,0,0,.9-.064V-.1a6.681,6.681,0,0,1-2.041.312A3.792,3.792,0,0,1-22.1-.666a3.61,3.61,0,0,1-.892-2.675V-9.109h-1.482v-2.514h1.482v-2.89ZM-9.485,0a4.088,4.088,0,0,1-.344-1.042A3.366,3.366,0,0,1-12.622.215a4.124,4.124,0,0,1-2.793-.994,3.163,3.163,0,0,1-1.149-2.5,3.251,3.251,0,0,1,1.4-2.857A7.114,7.114,0,0,1-11.107-7.1H-9.99v-.615q0-1.608-1.386-1.608A1.133,1.133,0,0,0-12.665-8.05h-3.62a3.245,3.245,0,0,1,1.434-2.736,6.027,6.027,0,0,1,3.658-1.051,5.284,5.284,0,0,1,3.513,1.085A3.772,3.772,0,0,1-6.359-7.777v5.146A5.269,5.269,0,0,0-5.865-.183V0Zm-2.267-2.363a2.019,2.019,0,0,0,1.123-.29,1.818,1.818,0,0,0,.639-.655V-5.167h-1.053q-1.891,0-1.891,1.7a1.036,1.036,0,0,0,.333.8A1.205,1.205,0,0,0-11.752-2.363ZM6.435-5.726A7.009,7.009,0,0,1,5.215-1.4,3.909,3.909,0,0,1,1.923.215,3.351,3.351,0,0,1-.709-.956V4.469h-3.62V-11.623H-.945l.107,1.074A3.351,3.351,0,0,1,1.9-11.838a3.941,3.941,0,0,1,3.341,1.584A7.1,7.1,0,0,1,6.435-5.9Zm-3.62-.226q0-3.094-1.8-3.094a1.7,1.7,0,0,0-1.719.924v4.576a1.759,1.759,0,0,0,1.74.967q1.729,0,1.783-2.986ZM14.577,0a4.088,4.088,0,0,1-.344-1.042A3.366,3.366,0,0,1,11.44.215,4.124,4.124,0,0,1,8.647-.779,3.163,3.163,0,0,1,7.5-3.276a3.251,3.251,0,0,1,1.4-2.857A7.114,7.114,0,0,1,12.955-7.1h1.117v-.615q0-1.608-1.386-1.608A1.133,1.133,0,0,0,11.4-8.05H7.777a3.245,3.245,0,0,1,1.434-2.736,6.027,6.027,0,0,1,3.658-1.051,5.284,5.284,0,0,1,3.513,1.085A3.772,3.772,0,0,1,17.7-7.777v5.146A5.269,5.269,0,0,0,18.2-.183V0ZM12.311-2.363a2.019,2.019,0,0,0,1.123-.29,1.818,1.818,0,0,0,.639-.655V-5.167H13.02q-1.891,0-1.891,1.7a1.036,1.036,0,0,0,.333.8A1.205,1.205,0,0,0,12.311-2.363ZM33.15,0H29.52V-11.559l-3.566,1.042v-2.75l6.864-2.374h.333Z" transform="translate(377.479 3435.165)" fill="#1a1a52"/>
    <g id="Layer_2" data-name="Layer 2" transform="translate(314.001 3460)">
      <rect id="Rect치ngulo_34679" data-name="Rect치ngulo 34679" width="124.494" height="58.293" rx="4" transform="translate(1.753 67.956)" fill="#e5fff4"/>
      <path id="Trazado_114656" data-name="Trazado 114656" d="M11.753,77.956h7.634v8H11.753Z" fill="#d7fc7e"/>
      <path id="Trazado_114657" data-name="Trazado 114657" d="M25.59,77.956h7.634v8H25.59Z" fill="#d7fc7e"/>
      <path id="Trazado_114658" data-name="Trazado 114658" d="M39.427,77.956h7.634v8H39.427Z" fill="#d7fc7e"/>
      <path id="Trazado_114659" data-name="Trazado 114659" d="M53.264,77.956H60.9v8H53.264Z" fill="#d7fc7e"/>
      <path id="Trazado_114660" data-name="Trazado 114660" d="M67.1,77.956h7.634v8H67.1Z" fill="#d7fc7e"/>
      <path id="Trazado_114661" data-name="Trazado 114661" d="M80.938,77.956h7.634v8H80.938Z" fill="#d7fc7e"/>
      <path id="Trazado_114662" data-name="Trazado 114662" d="M94.776,77.956h7.634v8H94.776Z" fill="#d7fc7e"/>
      <path id="Trazado_114663" data-name="Trazado 114663" d="M108.613,77.956h7.634v8h-7.634Z" fill="#d7fc7e"/>
      <path id="Trazado_114664" data-name="Trazado 114664" d="M11.753,93.1H33.224v8H11.753Z" fill="#d7fc7e"/>
      <path id="Trazado_114665" data-name="Trazado 114665" d="M39.427,93.1h7.634v8H39.427Z" fill="#d7fc7e"/>
      <path id="Trazado_114666" data-name="Trazado 114666" d="M53.264,93.1H60.9v8H53.264Z" fill="#d7fc7e"/>
      <path id="Trazado_114667" data-name="Trazado 114667" d="M67.1,93.1h7.634v8H67.1Z" fill="#d7fc7e"/>
      <path id="Trazado_114668" data-name="Trazado 114668" d="M80.938,93.1h7.634v8H80.938Z" fill="#d7fc7e"/>
      <path id="Trazado_114669" data-name="Trazado 114669" d="M94.776,93.1h21.471v8H94.776Z" fill="#d7fc7e"/>
      <path id="Trazado_114670" data-name="Trazado 114670" d="M11.753,108.249h7.634v8H11.753Z" fill="#d7fc7e"/>
      <path id="Trazado_114671" data-name="Trazado 114671" d="M25.59,108.249h7.634v8H25.59Z" fill="#d7fc7e"/>
      <path id="Trazado_114672" data-name="Trazado 114672" d="M39.427,108.249H88.573v8H39.427Z" fill="#d7fc7e"/>
      <path id="Trazado_114673" data-name="Trazado 114673" d="M94.776,108.249h7.634v8H94.776Z" fill="#d7fc7e"/>
      <path id="Trazado_114674" data-name="Trazado 114674" d="M108.613,108.249h7.634v8h-7.634Z" fill="#d7fc7e"/>
      <path id="Trazado_114675" data-name="Trazado 114675" d="M68,58.823H60V50.317A12.681,12.681,0,0,1,72.67,37.65H93.743a4.667,4.667,0,1,0,0-9.333H44.836A12.68,12.68,0,0,1,32.17,15.65V1.751h8v13.9a4.671,4.671,0,0,0,4.666,4.667H93.743a12.667,12.667,0,1,1,0,25.333H72.67A4.673,4.673,0,0,0,68,50.317Z" fill="#fff5cc"/>
      <path id="Trazado_114676" data-name="Trazado 114676" d="M50.065,58.823H77.94v9.133H50.065Z" fill="#ffe477"/>
      <g id="Grupo_81927" data-name="Grupo 81927">
        <path id="Trazado_114677" data-name="Trazado 114677" d="M122.247,66.207H79.69V58.823a1.75,1.75,0,0,0-1.75-1.75H69.753V50.317A2.921,2.921,0,0,1,72.67,47.4H93.743a14.417,14.417,0,1,0,0-28.834H44.836A2.92,2.92,0,0,1,41.92,15.65V1.751A1.75,1.75,0,0,0,40.17,0h-8a1.75,1.75,0,0,0-1.75,1.75v13.9A14.433,14.433,0,0,0,44.836,30.067h5.229a1.75,1.75,0,1,0,0-3.5H44.836A10.928,10.928,0,0,1,33.92,15.65V3.5h4.5V15.65a6.423,6.423,0,0,0,6.416,6.417H93.743a10.917,10.917,0,1,1,0,21.834H72.67a6.425,6.425,0,0,0-6.417,6.417v6.756h-4.5V50.317A10.93,10.93,0,0,1,72.67,39.4H93.743a6.417,6.417,0,1,0,0-12.833H82.875a1.75,1.75,0,0,0,0,3.5H93.743a2.917,2.917,0,1,1,0,5.833H72.67A14.434,14.434,0,0,0,58.253,50.317v6.756H50.065a1.751,1.751,0,0,0-1.75,1.75v7.384H5.753A5.756,5.756,0,0,0,0,71.957v50.292A5.757,5.757,0,0,0,5.753,128H121a1.75,1.75,0,1,0,0-3.5H5.753a2.253,2.253,0,0,1-2.25-2.25V71.957a2.253,2.253,0,0,1,2.25-2.25H122.247a2.253,2.253,0,0,1,2.25,2.25V120.25a1.75,1.75,0,0,0,3.5,0V71.957A5.756,5.756,0,0,0,122.247,66.207Zm-70.432,0V60.573H76.19v5.634Z" fill="#231f20"/>
        <path id="Trazado_114678" data-name="Trazado 114678" d="M11.753,87.707h7.634a1.75,1.75,0,0,0,1.75-1.75v-8a1.749,1.749,0,0,0-1.75-1.75H11.753A1.749,1.749,0,0,0,10,77.957v8a1.75,1.75,0,0,0,1.753,1.75Zm1.75-8h4.134v4.5H13.5Z" fill="#231f20"/>
        <path id="Trazado_114679" data-name="Trazado 114679" d="M34.975,77.957a1.75,1.75,0,0,0-1.75-1.75H25.59a1.749,1.749,0,0,0-1.75,1.75v8a1.75,1.75,0,0,0,1.75,1.75h7.635a1.751,1.751,0,0,0,1.75-1.75Zm-3.5,6.25H27.34v-4.5h4.135Z" fill="#231f20"/>
        <path id="Trazado_114680" data-name="Trazado 114680" d="M39.427,87.707h7.635a1.751,1.751,0,0,0,1.75-1.75v-8a1.75,1.75,0,0,0-1.75-1.75H39.427a1.749,1.749,0,0,0-1.75,1.75v8a1.75,1.75,0,0,0,1.75,1.75Zm1.75-8h4.135v4.5H41.177Z" fill="#231f20"/>
        <path id="Trazado_114681" data-name="Trazado 114681" d="M53.265,87.707H60.9a1.75,1.75,0,0,0,1.75-1.75v-8a1.749,1.749,0,0,0-1.75-1.75H53.265a1.749,1.749,0,0,0-1.75,1.75v8a1.75,1.75,0,0,0,1.75,1.75Zm1.75-8h4.133v4.5H55.015Z" fill="#231f20"/>
        <path id="Trazado_114682" data-name="Trazado 114682" d="M67.1,87.707h7.633a1.75,1.75,0,0,0,1.75-1.75v-8a1.749,1.749,0,0,0-1.75-1.75H67.1a1.749,1.749,0,0,0-1.75,1.75v8a1.75,1.75,0,0,0,1.75,1.75Zm1.75-8h4.133v4.5H68.852Z" fill="#231f20"/>
        <path id="Trazado_114683" data-name="Trazado 114683" d="M90.323,77.957a1.749,1.749,0,0,0-1.75-1.75H80.938a1.75,1.75,0,0,0-1.75,1.75v8a1.751,1.751,0,0,0,1.75,1.75h7.635a1.75,1.75,0,0,0,1.75-1.75Zm-3.5,6.25H82.688v-4.5h4.135Z" fill="#231f20"/>
        <path id="Trazado_114684" data-name="Trazado 114684" d="M94.775,87.707h7.635a1.75,1.75,0,0,0,1.75-1.75v-8a1.749,1.749,0,0,0-1.75-1.75H94.775a1.75,1.75,0,0,0-1.75,1.75v8A1.751,1.751,0,0,0,94.775,87.707Zm1.75-8h4.135v4.5H96.525Z" fill="#231f20"/>
        <path id="Trazado_114685" data-name="Trazado 114685" d="M118,77.957a1.749,1.749,0,0,0-1.75-1.75h-7.635a1.75,1.75,0,0,0-1.75,1.75v8a1.751,1.751,0,0,0,1.75,1.75h7.635a1.75,1.75,0,0,0,1.75-1.75Zm-3.5,6.25h-4.135v-4.5H114.5Z" fill="#231f20"/>
        <path id="Trazado_114686" data-name="Trazado 114686" d="M34.975,93.1a1.751,1.751,0,0,0-1.75-1.75H11.753A1.75,1.75,0,0,0,10,93.1v8a1.75,1.75,0,0,0,1.75,1.75H33.225a1.751,1.751,0,0,0,1.75-1.75Zm-3.5,6.25H13.5v-4.5H31.475Z" fill="#231f20"/>
        <path id="Trazado_114687" data-name="Trazado 114687" d="M37.677,101.1a1.75,1.75,0,0,0,1.75,1.75h7.635a1.751,1.751,0,0,0,1.75-1.75v-8a1.751,1.751,0,0,0-1.75-1.75H39.427a1.75,1.75,0,0,0-1.75,1.75Zm3.5-6.25h4.135v4.5H41.177Z" fill="#231f20"/>
        <path id="Trazado_114688" data-name="Trazado 114688" d="M51.515,101.1a1.75,1.75,0,0,0,1.75,1.75H60.9a1.75,1.75,0,0,0,1.75-1.75v-8a1.75,1.75,0,0,0-1.75-1.75H53.265a1.75,1.75,0,0,0-1.75,1.75Zm3.5-6.25h4.133v4.5H55.015Z" fill="#231f20"/>
        <path id="Trazado_114689" data-name="Trazado 114689" d="M65.352,101.1a1.75,1.75,0,0,0,1.75,1.75h7.633a1.75,1.75,0,0,0,1.75-1.75v-8a1.75,1.75,0,0,0-1.75-1.75H67.1a1.75,1.75,0,0,0-1.75,1.75Zm3.5-6.25h4.133v4.5H68.852Z" fill="#231f20"/>
        <path id="Trazado_114690" data-name="Trazado 114690" d="M90.323,93.1a1.75,1.75,0,0,0-1.75-1.75H80.938a1.751,1.751,0,0,0-1.75,1.75v8a1.751,1.751,0,0,0,1.75,1.75h7.635a1.75,1.75,0,0,0,1.75-1.75Zm-3.5,6.25H82.688v-4.5h4.135Z" fill="#231f20"/>
        <path id="Trazado_114691" data-name="Trazado 114691" d="M118,93.1a1.75,1.75,0,0,0-1.75-1.75H94.775a1.751,1.751,0,0,0-1.75,1.75v8a1.751,1.751,0,0,0,1.75,1.75h21.472A1.75,1.75,0,0,0,118,101.1Zm-3.5,6.25H96.525v-4.5H114.5Z" fill="#231f20"/>
        <path id="Trazado_114692" data-name="Trazado 114692" d="M11.753,106.5A1.749,1.749,0,0,0,10,108.25v8A1.75,1.75,0,0,0,11.75,118h7.634a1.75,1.75,0,0,0,1.75-1.75v-8a1.749,1.749,0,0,0-1.75-1.75Zm5.884,8H13.5V110h4.134Z" fill="#231f20"/>
        <path id="Trazado_114693" data-name="Trazado 114693" d="M33.225,106.5H25.59a1.749,1.749,0,0,0-1.75,1.75v8A1.75,1.75,0,0,0,25.59,118h7.635a1.751,1.751,0,0,0,1.75-1.75v-8a1.75,1.75,0,0,0-1.75-1.75Zm-1.75,8H27.34V110h4.135Z" fill="#231f20"/>
        <path id="Trazado_114694" data-name="Trazado 114694" d="M37.677,116.25a1.75,1.75,0,0,0,1.75,1.75H88.573a1.75,1.75,0,0,0,1.75-1.75v-8a1.749,1.749,0,0,0-1.75-1.75H39.427a1.749,1.749,0,0,0-1.75,1.75Zm3.5-6.25H86.823v4.5H41.177Z" fill="#231f20"/>
        <path id="Trazado_114695" data-name="Trazado 114695" d="M94.775,106.5a1.75,1.75,0,0,0-1.75,1.75v8a1.751,1.751,0,0,0,1.75,1.75h7.635a1.75,1.75,0,0,0,1.75-1.75v-8a1.749,1.749,0,0,0-1.75-1.75Zm5.885,8H96.525V110h4.135Z" fill="#231f20"/>
        <path id="Trazado_114696" data-name="Trazado 114696" d="M116.247,106.5h-7.635a1.75,1.75,0,0,0-1.75,1.75v8a1.751,1.751,0,0,0,1.75,1.75h7.635a1.75,1.75,0,0,0,1.75-1.75v-8a1.749,1.749,0,0,0-1.75-1.75Zm-1.75,8h-4.135V110H114.5Z" fill="#231f20"/>
        <path id="Trazado_114697" data-name="Trazado 114697" d="M70.125,30.067a1.75,1.75,0,0,0,0-3.5h-7.31a1.75,1.75,0,0,0,0,3.5Z" fill="#231f20"/>
      </g>
    </g>
  </g>
</svg>
