<svg xmlns="http://www.w3.org/2000/svg" width="122" height="122" viewBox="0 0 122 122">
  <g id="Grupo_85450" data-name="Grupo 85450" transform="translate(-1108 -1841)">
    <circle id="Elipse_4814" data-name="Elipse 4814" cx="61" cy="61" r="61" transform="translate(1108 1841)" fill="#13b770"/>
    <path id="Trazado_119103" data-name="Trazado 119103" d="M9.019-19.645h3.534a4.98,4.98,0,0,0,3.741-1.262,4.625,4.625,0,0,0,1.216-3.351,4.09,4.09,0,0,0-1.2-3.144,4.669,4.669,0,0,0-3.316-1.125A4.894,4.894,0,0,0,9.8-27.482a3.339,3.339,0,0,0-1.285,2.719H1.882a8.157,8.157,0,0,1,1.411-4.693A9.4,9.4,0,0,1,7.24-32.7a13.174,13.174,0,0,1,5.588-1.17q5.3,0,8.308,2.536a8.652,8.652,0,0,1,3.006,6.988,7.031,7.031,0,0,1-1.4,4.223,9.1,9.1,0,0,1-3.672,2.96,8.3,8.3,0,0,1,4.211,3.029A8.217,8.217,0,0,1,24.67-9.363a8.8,8.8,0,0,1-3.247,7.137A13.057,13.057,0,0,1,12.829.459,12.38,12.38,0,0,1,4.647-2.18,8.619,8.619,0,0,1,1.469-9.157H8.1A3.842,3.842,0,0,0,9.512-6.082a5.2,5.2,0,0,0,3.477,1.193A5.225,5.225,0,0,0,16.7-6.139a4.318,4.318,0,0,0,1.343-3.316q0-5-5.508-5H9.019Z" transform="translate(1156 1919)" fill="#fff"/>
  </g>
</svg>
