<svg xmlns="http://www.w3.org/2000/svg" width="122" height="122" viewBox="0 0 122 122">
  <g id="Grupo_85373" data-name="Grupo 85373" transform="translate(-739 -2188)">
    <circle id="Elipse_4801" data-name="Elipse 4801" cx="61" cy="61" r="61" transform="translate(739 2188)" fill="#eecf52"/>
    <g id="archivo-de-base-de-datos" transform="translate(761.206 2213.217)">
      <g id="Grupo_85305" data-name="Grupo 85305" transform="translate(1.188 1.118)">
        <g id="Grupo_85298" data-name="Grupo 85298" transform="translate(0 13.034)">
          <path id="Trazado_118316" data-name="Trazado 118316" d="M37.457,105.943c0-2.592-6.5-4.693-14.518-4.693s-14.518,2.1-14.518,4.694V139.9c0,6.149,29.036,6.149,29.036,0V105.943Z" transform="translate(-8.421 -101.25)" fill="#ffe177" fill-rule="evenodd"/>
          <path id="Trazado_118317" data-name="Trazado 118317" d="M126.8,105.943c0-2.592-6.5-4.693-14.518-4.693v43.261c7.259,0,14.518-1.537,14.518-4.612Z" transform="translate(-97.768 -101.25)" fill="#ffd064" fill-rule="evenodd"/>
          <path id="Trazado_118318" data-name="Trazado 118318" d="M37.458,134.829v8.489c0,6.149-29.036,6.149-29.036,0v-8.489C8.422,140.978,37.458,140.978,37.458,134.829Z" transform="translate(-8.422 -130.135)" fill="#ffd064" fill-rule="evenodd"/>
          <path id="Trazado_118319" data-name="Trazado 118319" d="M126.8,134.829v8.489c0,3.075-7.259,4.612-14.518,4.612v-8.489C119.545,139.441,126.8,137.9,126.8,134.829Z" transform="translate(-97.768 -130.135)" fill="#ffc344" fill-rule="evenodd"/>
          <path id="Trazado_118320" data-name="Trazado 118320" d="M37.458,256.291v8.489c0,6.149-29.036,6.149-29.036,0v-8.489C8.422,262.44,37.458,262.44,37.458,256.291Z" transform="translate(-8.422 -234.62)" fill="#ffd064" fill-rule="evenodd"/>
          <path id="Trazado_118321" data-name="Trazado 118321" d="M126.8,256.291v8.489c0,3.075-7.259,4.612-14.518,4.612V260.9C119.545,260.9,126.8,259.366,126.8,256.291Z" transform="translate(-97.768 -234.62)" fill="#ffc344" fill-rule="evenodd"/>
        </g>
        <g id="Grupo_85300" data-name="Grupo 85300" transform="translate(48.35)">
          <path id="Trazado_118322" data-name="Trazado 118322" d="M356.138,8h5.291a2.006,2.006,0,0,1,1.778,1.026l2.321,4.014h7.856a1.811,1.811,0,0,1,1.808,1.808v8.89a1.811,1.811,0,0,1-1.808,1.808H356.138a1.811,1.811,0,0,1-1.808-1.808V9.808A1.811,1.811,0,0,1,356.138,8Z" transform="translate(-354.33 -8)" fill="#13b770" fill-rule="evenodd"/>
          <g id="Grupo_85299" data-name="Grupo 85299" transform="translate(0 0)">
            <path id="Trazado_118323" data-name="Trazado 118323" d="M480.4,44.058h.624a1.811,1.811,0,0,1,1.808,1.808v8.89a1.811,1.811,0,0,1-1.808,1.808h-1.564a1.811,1.811,0,0,0,.94-1.585v-10.9C480.4,44.074,480.4,44.066,480.4,44.058Z" transform="translate(-461.967 -39.018)" fill="#13b770" fill-rule="evenodd"/>
            <path id="Trazado_118324" data-name="Trazado 118324" d="M365.528,13.04l-2.321-4.014A2.006,2.006,0,0,0,361.429,8h-5.291a1.811,1.811,0,0,0-1.808,1.808V13.04Z" transform="translate(-354.331 -8)" fill="#13b770" fill-rule="evenodd"/>
          </g>
        </g>
        <g id="Grupo_85302" data-name="Grupo 85302" transform="translate(48.35 51.784)">
          <path id="Trazado_118325" data-name="Trazado 118325" d="M356.138,378.476h5.291a2.006,2.006,0,0,1,1.778,1.026l2.321,4.014h7.856a1.811,1.811,0,0,1,1.808,1.808v8.89a1.811,1.811,0,0,1-1.808,1.808H356.138a1.811,1.811,0,0,1-1.808-1.808v-13.93a1.811,1.811,0,0,1,1.808-1.808Z" transform="translate(-354.33 -378.476)" fill="#13b770" fill-rule="evenodd"/>
          <g id="Grupo_85301" data-name="Grupo 85301" transform="translate(0)">
            <path id="Trazado_118326" data-name="Trazado 118326" d="M480.4,414.534h.624a1.811,1.811,0,0,1,1.808,1.808v8.89a1.811,1.811,0,0,1-1.808,1.808h-1.564a1.811,1.811,0,0,0,.94-1.585v-10.9C480.4,414.55,480.4,414.542,480.4,414.534Z" transform="translate(-461.967 -409.494)" fill="#13b770" fill-rule="evenodd"/>
            <path id="Trazado_118327" data-name="Trazado 118327" d="M365.528,383.516l-2.321-4.014a2.006,2.006,0,0,0-1.778-1.026h-5.291a1.811,1.811,0,0,0-1.808,1.808v3.232Z" transform="translate(-354.331 -378.476)" fill="#13b770" fill-rule="evenodd"/>
          </g>
        </g>
        <g id="Grupo_85304" data-name="Grupo 85304" transform="translate(48.35 25.892)">
          <path id="Trazado_118328" data-name="Trazado 118328" d="M356.138,193.237h5.291a2.006,2.006,0,0,1,1.778,1.026l2.321,4.014h7.856a1.811,1.811,0,0,1,1.808,1.808v8.89a1.811,1.811,0,0,1-1.808,1.808H356.138a1.811,1.811,0,0,1-1.808-1.808v-13.93a1.811,1.811,0,0,1,1.808-1.808Z" transform="translate(-354.33 -193.237)" fill="#ffe177" fill-rule="evenodd"/>
          <g id="Grupo_85303" data-name="Grupo 85303" transform="translate(0 0)">
            <path id="Trazado_118329" data-name="Trazado 118329" d="M480.4,229.3h.624a1.811,1.811,0,0,1,1.808,1.808v8.89a1.811,1.811,0,0,1-1.808,1.808h-1.564a1.811,1.811,0,0,0,.94-1.585v-10.9C480.4,229.312,480.4,229.3,480.4,229.3Z" transform="translate(-461.967 -224.256)" fill="#ffd064" fill-rule="evenodd"/>
            <path id="Trazado_118330" data-name="Trazado 118330" d="M365.528,198.278l-2.321-4.014a2.006,2.006,0,0,0-1.778-1.026h-5.291a1.811,1.811,0,0,0-1.808,1.808v3.232Z" transform="translate(-354.331 -193.238)" fill="#ffd064" fill-rule="evenodd"/>
          </g>
        </g>
      </g>
      <path id="Trazado_118331" data-name="Trazado 118331" d="M29.279,27.266V21.991a13.19,13.19,0,0,1-3.146,1.281c-.752.211-1.576.4-2.453.555a41.016,41.016,0,0,1-7.913.732,41.086,41.086,0,0,1-7.92-.732c-.877-.158-1.7-.344-2.447-.555a13.135,13.135,0,0,1-3.152-1.281v5.275c0,.832,1.438,1.755,3.759,2.411a38.239,38.239,0,0,0,9.76,1.12,38.184,38.184,0,0,0,9.753-1.12C27.841,29.022,29.279,28.1,29.279,27.266Zm0,8.557c0,.833-1.438,1.757-3.759,2.411a38.185,38.185,0,0,1-9.753,1.119,38.24,38.24,0,0,1-9.76-1.119c-2.321-.654-3.759-1.578-3.759-2.411V30.548A13.024,13.024,0,0,0,5.4,31.828a39.866,39.866,0,0,0,10.366,1.205,39.939,39.939,0,0,0,10.366-1.205,13.08,13.08,0,0,0,3.146-1.28v5.275Zm0,8.559V39.107a13.19,13.19,0,0,1-3.146,1.28,39.944,39.944,0,0,1-10.366,1.2A39.872,39.872,0,0,1,5.4,40.387a13.136,13.136,0,0,1-3.152-1.28v5.275c0,.832,1.438,1.756,3.759,2.41a38.165,38.165,0,0,0,9.76,1.121,38.185,38.185,0,0,0,9.753-1.119c2.322-.656,3.759-1.58,3.759-2.411Zm0,8.557c0,.833-1.438,1.757-3.759,2.411a38.184,38.184,0,0,1-9.753,1.12,38.239,38.239,0,0,1-9.76-1.12c-2.321-.654-3.759-1.578-3.759-2.411V47.664A13.132,13.132,0,0,0,5.4,48.944a39.861,39.861,0,0,0,10.366,1.2,39.94,39.94,0,0,0,10.366-1.2,13.137,13.137,0,0,0,3.146-1.28v5.275ZM2.248,18.709c0-1.227,4.768-3.613,13.519-3.613s13.512,2.386,13.512,3.613c0,.79-1.978,2.059-5.717,2.863a43,43,0,0,1-7.795.668,43.023,43.023,0,0,1-7.8-.668c-3.739-.8-5.717-2.073-5.717-2.863Zm29.273,0V52.939c0,2.019-1.813,3.555-5.388,4.564a40.017,40.017,0,0,1-10.366,1.2A39.939,39.939,0,0,1,5.4,57.5C1.826,56.494.013,54.958.013,52.939V18.709h0c0-3.84,7.92-5.848,15.754-5.848s15.754,2.009,15.754,5.848ZM69.34,33.858a.69.69,0,0,0-.686-.689H50.717v9.579a.689.689,0,0,0,.686.689H68.654a.689.689,0,0,0,.686-.689Zm-18.623-5.04v2.115h8.138L57.5,28.6a.883.883,0,0,0-.8-.467H51.4a.689.689,0,0,0-.686.689Zm20.858,5.04v8.89a2.928,2.928,0,0,1-2.921,2.925H51.4a2.928,2.928,0,0,1-2.921-2.925V28.818A2.928,2.928,0,0,1,51.4,25.892h5.3a3.143,3.143,0,0,1,2.743,1.584l2,3.457h7.214A2.928,2.928,0,0,1,71.575,33.858ZM69.34,7.966a.69.69,0,0,0-.686-.689H50.717v9.579a.69.69,0,0,0,.686.689H68.654a.69.69,0,0,0,.686-.689ZM50.717,2.925V5.04h8.138L57.5,2.7a.884.884,0,0,0-.8-.467H51.4a.689.689,0,0,0-.686.689Zm20.858,5.04v8.89a2.928,2.928,0,0,1-2.921,2.926H51.4a2.928,2.928,0,0,1-2.921-2.926V2.925A2.928,2.928,0,0,1,51.4,0h5.3a3.143,3.143,0,0,1,2.743,1.583l2,3.457h7.214a2.928,2.928,0,0,1,2.921,2.925ZM69.34,59.75a.69.69,0,0,0-.686-.689H50.717V68.64a.69.69,0,0,0,.686.689H68.654a.69.69,0,0,0,.686-.689ZM50.717,54.71v2.115h8.138L57.5,54.488a.881.881,0,0,0-.8-.467H51.4a.689.689,0,0,0-.686.689Zm20.858,5.04v8.89a2.928,2.928,0,0,1-2.921,2.926H51.4a2.928,2.928,0,0,1-2.921-2.926V54.71A2.928,2.928,0,0,1,51.4,51.784h5.3a3.14,3.14,0,0,1,2.743,1.584l2,3.457h7.214a2.928,2.928,0,0,1,2.921,2.926ZM40.991,11.009V34.665H44.38a1.118,1.118,0,1,1,0,2.236H40.991V60.557H44.38a1.118,1.118,0,1,1,0,2.236H39.869a1.118,1.118,0,0,1-1.114-1.118V36.9H35.616a1.118,1.118,0,1,1,0-2.236h3.139V9.891a1.118,1.118,0,0,1,1.114-1.118H44.38a1.118,1.118,0,1,1,0,2.236Z" fill-rule="evenodd"/>
    </g>
  </g>
</svg>
