<svg xmlns="http://www.w3.org/2000/svg" width="190" height="170" viewBox="0 0 190 170">
  <g id="Grupo_85376" data-name="Grupo 85376" transform="translate(-1125 -3761)">
    <rect id="Rectángulo_36392" data-name="Rectángulo 36392" width="190" height="170" transform="translate(1125 3761)" fill="#fff"/>
    <g id="modelado-de-datos" transform="translate(1150 3781)">
      <path id="Trazado_118427" data-name="Trazado 118427" d="M47.484,13.194c11.381,0,30.484-.813,30.484-6.1,0-1.626,0-4.877-21.135-5.894A2.036,2.036,0,0,0,54.8,3.235a1.92,1.92,0,0,0,2.032,2.032A94.81,94.81,0,0,1,71.871,7.1C68.01,8.113,59.881,9.129,47.484,9.129S26.958,8.113,23.1,7.1c3.861-1.016,11.99-2.032,24.387-2.032a1.92,1.92,0,0,0,2.032-2.032A1.92,1.92,0,0,0,47.484,1C36.1,1,17,1.813,17,7.1S36.1,13.194,47.484,13.194Z" transform="translate(16.516)" fill="#05339e"/>
      <path id="Trazado_118428" data-name="Trazado 118428" d="M47.484,19.194c11.381,0,30.484-.813,30.484-6.1V9.032a2.032,2.032,0,1,0-4.065,0v3.455c-2.032,1.016-10.974,2.642-26.419,2.642S23.1,13.5,21.065,12.487V9.032A1.92,1.92,0,0,0,19.032,7,1.92,1.92,0,0,0,17,9.032V13.1C17,18.381,36.1,19.194,47.484,19.194Z" transform="translate(16.516 6.194)" fill="#05339e"/>
      <path id="Trazado_118429" data-name="Trazado 118429" d="M47.484,25.3c11.381,0,30.484-.813,30.484-6.1V14.932a2.032,2.032,0,1,0-4.065,0v3.455c-2.032,1.016-10.974,2.642-26.419,2.642S23.1,19.4,21.065,18.387V14.932A1.92,1.92,0,0,0,19.032,12.9,1.92,1.92,0,0,0,17,14.932V19.2C17,24.484,36.1,25.3,47.484,25.3Z" transform="translate(16.516 12.284)" fill="#05339e"/>
      <path id="Trazado_118430" data-name="Trazado 118430" d="M108.452,67.671H94.226V49.381a1.92,1.92,0,0,0-2.032-2.032H49.516V31.09c11.381,0,28.452-1.016,28.452-6.1V21.132a2.032,2.032,0,1,0-4.065,0v3.048c-2.032,1.016-10.974,2.642-26.419,2.642S23.1,25.2,21.065,24.181V21.132A1.92,1.92,0,0,0,19.032,19.1,1.92,1.92,0,0,0,17,21.132v3.861c0,5.081,16.868,5.894,28.452,6.1V47.348H19.032a2.032,2.032,0,0,0,0,4.065H45.452V67.671H31.226A1.92,1.92,0,0,0,29.194,69.7v36.581a1.92,1.92,0,0,0,2.032,2.032H63.742a1.92,1.92,0,0,0,2.032-2.032V69.7a1.92,1.92,0,0,0-2.032-2.032H49.516V51.413H90.161V67.671H75.935A1.92,1.92,0,0,0,73.9,69.7V98.155a2.032,2.032,0,1,0,4.065,0V79.865h28.452v24.387H75.935a2.032,2.032,0,0,0,0,4.065h32.516a1.92,1.92,0,0,0,2.032-2.032V69.7A1.92,1.92,0,0,0,108.452,67.671ZM61.71,104.252H33.258V79.865H61.71Zm0-32.516V75.8H33.258V71.735Zm44.71,4.065H77.968V71.735h28.452Z" transform="translate(16.516 18.684)" fill="#05339e"/>
      <path id="Trazado_118431" data-name="Trazado 118431" d="M35.548,53.323H21.323V37.065h5.894a2.032,2.032,0,1,0,0-4.065H19.29a1.92,1.92,0,0,0-2.032,2.032v18.29H3.032A1.92,1.92,0,0,0,1,55.355V91.935a1.92,1.92,0,0,0,2.032,2.032H35.548a1.92,1.92,0,0,0,2.032-2.032V75.677a2.032,2.032,0,0,0-4.065,0V89.9H5.065V65.516H33.516v2.642a2.032,2.032,0,0,0,4.065,0v-12.8A1.92,1.92,0,0,0,35.548,53.323Zm-2.032,8.129H5.065V57.387H33.516Z" transform="translate(0 33.032)" fill="#05339e"/>
      <path id="Trazado_118432" data-name="Trazado 118432" d="M7.032,55A1.92,1.92,0,0,0,5,57.032V61.1a1.92,1.92,0,0,0,2.032,2.032H11.1a2.032,2.032,0,0,0,0-4.065H9.065V57.032A1.92,1.92,0,0,0,7.032,55Z" transform="translate(4.129 55.742)" fill="#05339e"/>
      <path id="Trazado_118433" data-name="Trazado 118433" d="M61.1,59.129A1.92,1.92,0,0,0,63.129,57.1V53.032A1.92,1.92,0,0,0,61.1,51H57.032a2.032,2.032,0,0,0,0,4.065h2.032V57.1A1.92,1.92,0,0,0,61.1,59.129Z" transform="translate(55.742 51.613)" fill="#05339e"/>
    </g>
  </g>
</svg>
