<svg xmlns="http://www.w3.org/2000/svg" width="119" height="119" viewBox="0 0 119 119">
  <g id="Grupo_80490" data-name="Grupo 80490" transform="translate(-741 -2268)">
    <circle id="Elipse_4720" data-name="Elipse 4720" cx="59.5" cy="59.5" r="59.5" transform="translate(741 2268)" fill="#eecf52"/>
    <g id="barra-grafica" transform="translate(760.818 2265.945)">
      <path id="Trazado_113632" data-name="Trazado 113632" d="M77.14,128.028H1.4a1.306,1.306,0,1,1,0-2.612h74.43V65.35a1.306,1.306,0,1,1,2.612,0v61.372A1.306,1.306,0,0,1,77.14,128.028Z" transform="translate(-0.082 -33.462)" fill="#5a6470"/>
      <path id="Trazado_113633" data-name="Trazado 113633" d="M48.1,240.044H63.767v28.727H48.1Z" transform="translate(-40.248 -180.735)" fill="#fdbd40"/>
      <path id="Trazado_113634" data-name="Trazado 113634" d="M192.1,144.044h15.669v44.4H192.1Z" transform="translate(-160.743 -100.404)" fill="#13b770"/>
      <path id="Trazado_113635" data-name="Trazado 113635" d="M336.1,64.044h15.669V121.5H336.1Z" transform="translate(-281.239 -33.462)" fill="#79dfef"/>
      <path id="Trazado_113636" data-name="Trazado 113636" d="M27.437,33.35l4.3,4.3L20.908,48.479l-2.994-2.994a1.306,1.306,0,0,0-1.846,0L.4,61.154a1.306,1.306,0,0,0,1.814,1.879L2.245,63,16.991,48.254l2.994,2.994a1.306,1.306,0,0,0,1.846,0L33.584,39.5l4.3,4.3,1.306-11.752Z" transform="translate(0 -6.685)" fill="#79dfef"/>
      <g id="Grupo_80306" data-name="Grupo 80306" transform="translate(11.768 47.557)">
        <path id="Trazado_113637" data-name="Trazado 113637" d="M73.4,365.267a1.306,1.306,0,0,1-1.306-1.306V361.35a1.306,1.306,0,0,1,2.612,0v2.612A1.306,1.306,0,0,1,73.4,365.267Z" transform="translate(-72.098 -328.705)" fill="#fff"/>
        <path id="Trazado_113638" data-name="Trazado 113638" d="M73.4,303.879a1.306,1.306,0,0,1-1.306-1.306V297.35a1.306,1.306,0,0,1,2.612,0v5.223A1.306,1.306,0,0,1,73.4,303.879Z" transform="translate(-72.098 -275.151)" fill="#fff"/>
        <path id="Trazado_113639" data-name="Trazado 113639" d="M217.4,365.267a1.306,1.306,0,0,1-1.306-1.306V361.35a1.306,1.306,0,0,1,2.612,0v2.612A1.306,1.306,0,0,1,217.4,365.267Z" transform="translate(-192.594 -328.705)" fill="#fff"/>
        <path id="Trazado_113640" data-name="Trazado 113640" d="M217.4,263.713a1.306,1.306,0,0,1-1.306-1.306V249.35a1.306,1.306,0,0,1,2.612,0v13.058A1.306,1.306,0,0,1,217.4,263.713Z" transform="translate(-192.594 -234.986)" fill="#fff"/>
        <path id="Trazado_113641" data-name="Trazado 113641" d="M361.4,365.267a1.306,1.306,0,0,1-1.306-1.306V361.35a1.306,1.306,0,0,1,2.612,0v2.612A1.306,1.306,0,0,1,361.4,365.267Z" transform="translate(-313.09 -328.705)" fill="#fff"/>
        <path id="Trazado_113642" data-name="Trazado 113642" d="M361.4,196.771a1.306,1.306,0,0,1-1.306-1.306V169.35a1.306,1.306,0,0,1,2.612,0v26.116A1.306,1.306,0,0,1,361.4,196.771Z" transform="translate(-313.09 -168.044)" fill="#fff"/>
      </g>
      <path id="Trazado_113643" data-name="Trazado 113643" d="M77.14,64.044a1.306,1.306,0,0,0-1.306,1.306v60.066H1.4a1.306,1.306,0,0,0,0,2.612H77.14a1.306,1.306,0,0,0,1.306-1.306V65.35A1.306,1.306,0,0,0,77.14,64.044Z" transform="translate(-0.082 -33.462)"/>
      <path id="Trazado_113644" data-name="Trazado 113644" d="M41.4,232.044A1.306,1.306,0,0,0,40.1,233.35v28.727a1.306,1.306,0,0,0,1.306,1.306H57.073a1.306,1.306,0,0,0,1.306-1.306V233.35a1.306,1.306,0,0,0-1.306-1.306Zm14.364,28.727H42.71V234.656H55.767Z" transform="translate(-33.553 -174.04)"/>
      <path id="Trazado_113645" data-name="Trazado 113645" d="M185.4,136.044a1.306,1.306,0,0,0-1.306,1.306v44.4a1.306,1.306,0,0,0,1.306,1.306h15.669a1.306,1.306,0,0,0,1.306-1.306v-44.4a1.306,1.306,0,0,0-1.306-1.306Zm14.364,44.4H186.71V138.656h13.058Z" transform="translate(-154.049 -93.71)"/>
      <path id="Trazado_113646" data-name="Trazado 113646" d="M329.4,116.11h15.669a1.306,1.306,0,0,0,1.306-1.306V57.35a1.306,1.306,0,0,0-1.306-1.306H329.4A1.306,1.306,0,0,0,328.1,57.35V114.8A1.306,1.306,0,0,0,329.4,116.11Zm1.306-57.455h13.058V113.5H330.71Z" transform="translate(-274.545 -26.768)"/>
      <path id="Trazado_113647" data-name="Trazado 113647" d="M.482,56.315a1.306,1.306,0,0,0,1.846,0L17.075,41.569l2.994,2.994a1.306,1.306,0,0,0,1.846,0L32.744,33.734l4.3,4.3a1.306,1.306,0,0,0,2.22-.783L40.57,25.5a1.306,1.306,0,0,0-1.436-1.436L27.381,25.368a1.306,1.306,0,0,0-.783,2.22l4.3,4.3-9.906,9.906L18,38.8a1.306,1.306,0,0,0-1.846,0L.482,54.469a1.306,1.306,0,0,0,0,1.846ZM37.795,26.837l-.825,7.429-6.6-6.6Z" transform="translate(-0.084)"/>
      <path id="Trazado_113648" data-name="Trazado 113648" d="M73.4,365.267a1.306,1.306,0,0,0,1.306-1.306V361.35a1.306,1.306,0,0,0-2.612,0v2.612A1.306,1.306,0,0,0,73.4,365.267Z" transform="translate(-60.33 -281.148)"/>
      <path id="Trazado_113649" data-name="Trazado 113649" d="M73.4,303.879a1.306,1.306,0,0,0,1.306-1.306V297.35a1.306,1.306,0,0,0-2.612,0v5.223A1.306,1.306,0,0,0,73.4,303.879Z" transform="translate(-60.33 -227.594)"/>
      <path id="Trazado_113650" data-name="Trazado 113650" d="M217.4,365.267a1.306,1.306,0,0,0,1.306-1.306V361.35a1.306,1.306,0,0,0-2.612,0v2.612A1.306,1.306,0,0,0,217.4,365.267Z" transform="translate(-180.826 -281.148)"/>
      <path id="Trazado_113651" data-name="Trazado 113651" d="M217.4,263.713a1.306,1.306,0,0,0,1.306-1.306V249.35a1.306,1.306,0,0,0-2.612,0v13.058A1.306,1.306,0,0,0,217.4,263.713Z" transform="translate(-180.826 -187.429)"/>
      <path id="Trazado_113652" data-name="Trazado 113652" d="M361.4,360.044a1.306,1.306,0,0,0-1.306,1.306v2.612a1.306,1.306,0,1,0,2.612,0V361.35A1.306,1.306,0,0,0,361.4,360.044Z" transform="translate(-301.322 -281.148)"/>
      <path id="Trazado_113653" data-name="Trazado 113653" d="M361.4,168.044a1.306,1.306,0,0,0-1.306,1.306v26.116a1.306,1.306,0,0,0,2.612,0V169.35A1.306,1.306,0,0,0,361.4,168.044Z" transform="translate(-301.322 -120.487)"/>
    </g>
  </g>
</svg>
