<svg id="Grupo_81057" data-name="Grupo 81057" xmlns="http://www.w3.org/2000/svg" xmlns:xlink="http://www.w3.org/1999/xlink" width="372.85" height="333.904" viewBox="0 0 372.85 333.904">
  <defs>
    <clipPath id="clip-path">
      <rect id="Rectángulo_34226" data-name="Rectángulo 34226" width="372.849" height="333.904" fill="none"/>
    </clipPath>
    <clipPath id="clip-path-2">
      <rect id="Rectángulo_34172" data-name="Rectángulo 34172" width="372.849" height="333.903" fill="none"/>
    </clipPath>
    <clipPath id="clip-path-3">
      <rect id="Rectángulo_34170" data-name="Rectángulo 34170" width="281.816" height="25.743" fill="#e5e5e5"/>
    </clipPath>
    <clipPath id="clip-path-4">
      <rect id="Rectángulo_34171" data-name="Rectángulo 34171" width="191.916" height="16.381" fill="#bfbfbf"/>
    </clipPath>
    <clipPath id="clip-path-5">
      <path id="Trazado_114039" data-name="Trazado 114039" d="M410.851,268.058l90.187,90.187a127.545,127.545,0,0,0,0-180.375Z" transform="translate(-410.851 -177.87)" fill="none"/>
    </clipPath>
    <clipPath id="clip-path-6">
      <path id="Trazado_114040" data-name="Trazado 114040" d="M119.754,344.124a127.544,127.544,0,0,0,217.732,90.188L247.3,344.124l-123.22-33.017a127.7,127.7,0,0,0-4.324,33.017" transform="translate(-119.754 -311.107)" fill="none"/>
    </clipPath>
    <clipPath id="clip-path-7">
      <path id="Trazado_114041" data-name="Trazado 114041" d="M129.2,182.424,252.416,215.44,342.6,125.253A127.564,127.564,0,0,0,129.2,182.424" transform="translate(-129.196 -87.896)" fill="none"/>
    </clipPath>
    <clipPath id="clip-path-9">
      <rect id="Rectángulo_34176" data-name="Rectángulo 34176" width="71.052" height="37.759" fill="none"/>
    </clipPath>
    <clipPath id="clip-path-10">
      <rect id="Rectángulo_34179" data-name="Rectángulo 34179" width="96.461" height="61.417" fill="none"/>
    </clipPath>
    <clipPath id="clip-path-12">
      <rect id="Rectángulo_34185" data-name="Rectángulo 34185" width="39.988" height="68.484" fill="none"/>
    </clipPath>
    <clipPath id="clip-path-13">
      <path id="Trazado_114053" data-name="Trazado 114053" d="M602,366.928h39.988c-.6,22.841-5.134,38.5-10.048,52.536a72.975,72.975,0,0,1-7.764,15.948H602Z" transform="translate(-602.004 -366.928)" fill="none" clip-rule="evenodd"/>
    </clipPath>
    <linearGradient id="linear-gradient" x1="-6.507" y1="2.387" x2="-6.496" y2="2.387" gradientUnits="objectBoundingBox">
      <stop offset="0" stop-color="#fd90da"/>
      <stop offset="1" stop-color="#8e6dfd"/>
    </linearGradient>
    <clipPath id="clip-path-14">
      <rect id="Rectángulo_34188" data-name="Rectángulo 34188" width="115.232" height="59.427" fill="none"/>
    </clipPath>
    <clipPath id="clip-path-15">
      <path id="Trazado_114058" data-name="Trazado 114058" d="M168.48,531.928h102.5c3.5,0,6.366,3.417,6.366,7.575v48.571a8.71,8.71,0,0,1-.56,3.09q-3.719.189-7.485.19a144.383,144.383,0,0,1-107.187-47.468V539.5c0-4.166,2.865-7.575,6.367-7.575" transform="translate(-162.113 -531.928)" fill="none" clip-rule="evenodd"/>
    </clipPath>
    <linearGradient id="linear-gradient-2" x1="-0.601" y1="0.979" x2="-0.597" y2="0.979" gradientUnits="objectBoundingBox">
      <stop offset="0" stop-color="#1c8ef4"/>
      <stop offset="1" stop-color="#00cfdd"/>
    </linearGradient>
    <clipPath id="clip-path-16">
      <path id="Trazado_114059" data-name="Trazado 114059" d="M155.507,531.928a6.559,6.559,0,0,0-6.366,6.7V581.6a6.563,6.563,0,0,0,6.366,6.7h102.5a6.569,6.569,0,0,0,6.367-6.7V538.629a6.564,6.564,0,0,0-6.367-6.7Z" transform="translate(-149.141 -531.928)" fill="none"/>
    </clipPath>
    <linearGradient id="linear-gradient-3" x1="-1.189" y1="1.005" x2="-1.183" y2="1.005" gradientUnits="objectBoundingBox">
      <stop offset="0" stop-color="#6d6afe"/>
      <stop offset="1" stop-color="#3fb0f7"/>
    </linearGradient>
    <clipPath id="clip-path-18">
      <rect id="Rectángulo_34192" data-name="Rectángulo 34192" width="115.232" height="31.282" fill="none"/>
    </clipPath>
    <clipPath id="clip-path-19">
      <path id="Trazado_114061" data-name="Trazado 114061" d="M149.141,600.138c8.178-2.681,14.887-8.792,21.374-14.017,8.831-7.115,17.034-14.692,28.614-14.146,10.014.473,16.994,7.377,24.715,12.61,7.471,5.064,15.685,8.458,24.812,8.408a29.413,29.413,0,0,0,15.718-4.387v4.9a29.439,29.439,0,0,1-15.7,4.281c-10.445.058-18.479-5.691-26.326-11.017-7.364-5-14.566-9.582-23.445-10-9.758-.46-17.525,5.8-25.636,12.33-7.181,5.785-14.614,11.773-24.126,14.132Z" transform="translate(-149.141 -571.947)" fill="none" clip-rule="evenodd"/>
    </clipPath>
    <linearGradient id="linear-gradient-4" x1="-1.48" y1="0.974" x2="-1.473" y2="0.974" xlink:href="#linear-gradient-3"/>
    <clipPath id="clip-path-20">
      <path id="Trazado_114064" data-name="Trazado 114064" d="M148.225,297.228c2.22,12.974,1.547,21.966,3.117,32.453,3,20.012,6.651,40.064,7.939,59.429,1.267,19.049,4.121,48.432,4.858,72.522.069,2.279,3.543,3.663,6.754,3.359,2.733-.258,5.277-1.965,5.369-2.982L188.7,323.036c1-11.136-.573-13.534-2.442-22.527l-11.452-4.243Z" transform="translate(-148.225 -296.266)" fill="none"/>
    </clipPath>
    <linearGradient id="linear-gradient-5" x1="-1.579" y1="1.172" x2="-1.568" y2="1.172" gradientUnits="objectBoundingBox">
      <stop offset="0" stop-color="#ffb89e"/>
      <stop offset="1" stop-color="#ffa799"/>
    </linearGradient>
    <clipPath id="clip-path-21">
      <path id="Trazado_114065" data-name="Trazado 114065" d="M148.225,297.228c2.22,12.974,1.547,21.966,3.117,32.453,3,20.012,6.651,40.064,7.939,59.429,1.267,19.049,4.123,48.432,4.858,72.522.11,3.62,3.531-28.918,5.1-59.354a51.414,51.414,0,0,0,13.025-6.908l6.432-72.334c.989-11.136-.573-13.534-2.442-22.527l-11.452-4.243Z" transform="translate(-148.225 -296.266)" fill="none"/>
    </clipPath>
    <linearGradient id="linear-gradient-6" x1="-0.056" y1="1.338" x2="-0.053" y2="1.338" gradientUnits="objectBoundingBox">
      <stop offset="0" stop-color="#ff8a78"/>
      <stop offset="1" stop-color="#ffa799"/>
    </linearGradient>
    <clipPath id="clip-path-23">
      <path id="Trazado_114067" data-name="Trazado 114067" d="M88.929,299.823c-2.626,5.563-7.484,10.121-10.38,23.871-.605,2.875-.995,5.3-1.278,7.558-1.683,13.407-2.38,26.175-4.553,39.678-4.794,29.785-9.785,60.7-15.1,89.922-.837,4.609,8.865,4.283,9.8,2.039,9.833-23.7,16.924-47.961,25.6-71.981,12.012-33.236,27.207-65.136,37.608-96.714Z" transform="translate(-57.567 -294.195)" fill="none"/>
    </clipPath>
    <linearGradient id="linear-gradient-7" x1="-0.323" y1="1.16" x2="-0.317" y2="1.16" xlink:href="#linear-gradient-5"/>
    <clipPath id="clip-path-24">
      <path id="Trazado_114068" data-name="Trazado 114068" d="M88.958,299.823c-2.626,5.563-7.484,10.121-10.38,23.871-.605,2.875-.995,5.3-1.278,7.558-1.683,13.407-2.38,26.175-4.553,39.678-4.794,29.785-9.787,60.7-15.1,89.922-.838,4.608,17.917-58.85,18.847-61.093,7.774.608,10.152.778,13.617-.561q1.443-4.147,2.937-8.289c12.011-33.236,27.207-65.136,37.608-96.714Z" transform="translate(-57.62 -294.195)" fill="none"/>
    </clipPath>
    <linearGradient id="linear-gradient-8" x1="0.06" y1="1.11" x2="0.064" y2="1.11" xlink:href="#linear-gradient-6"/>
    <clipPath id="clip-path-25">
      <path id="Trazado_114069" data-name="Trazado 114069" d="M136.372,295.247l-23.75.859q.2,1.169.37,2.3l-10.528,1.421c-2.625,5.563-7.483,10.121-10.38,23.871-.605,2.875-1,5.3-1.278,7.559-1.681,13.406-5.63,43.235-8.267,57.2,20.086,11.834,56.968,7.488,65.376,2.76l5.183-69.3c.834-11.148-.573-13.534-2.442-22.527l-7.319-2.712q.415-1.24.824-2.48Z" transform="translate(-82.538 -294.195)" fill="none"/>
    </clipPath>
    <linearGradient id="linear-gradient-9" x1="-0.173" y1="1.658" x2="-0.169" y2="1.658" gradientUnits="objectBoundingBox">
      <stop offset="0" stop-color="#3e4795"/>
      <stop offset="1" stop-color="#273088"/>
    </linearGradient>
    <clipPath id="clip-path-27">
      <path id="Trazado_114071" data-name="Trazado 114071" d="M331.593,109.668c-.949,1.06-2.315,1.819-6.363,2.063a12.153,12.153,0,0,1,1.184-2.915c.984-1.749,2.055-3.016.622-4.2a18.753,18.753,0,0,1-3.892,3.787c-4.491,2.884-5.551,3.1-5.807,6.552-.365,4.911-.939,4.957-3.031,9.392l5.92,3.379c3.1-4.391,2.979-5.582,7.763-7.922,2.148-1.051,4.085-2.137,6.367-3.181,1.686-.769,1.489-.578,2.422-3.013,1.521-3.963,3.7-6.39,6.612-10.166h-.167c-6.067,0-6.952,1-11.632,6.227" transform="translate(-314.307 -103.441)" fill="none"/>
    </clipPath>
    <linearGradient id="linear-gradient-10" x1="-4.802" y1="11.363" x2="-4.786" y2="11.363" xlink:href="#linear-gradient-5"/>
    <clipPath id="clip-path-29">
      <path id="Trazado_114073" data-name="Trazado 114073" d="M196.374,173.823c6.674,8.683,16.762,14,23.941,13.756,13.864-.466,26.29-31.327,32.433-42.071a8.763,8.763,0,0,0-7.583-4.857c-5.058,7.28-10.3,13.247-16.354,20.39-6.11,7.211-9.035,14.461-17.128,2.469-6.491-8.442-13.757-20.786-23.833-24.043-5.495,14.925-2.821,19.6,8.524,34.356" transform="translate(-185.096 -139.467)" fill="none"/>
    </clipPath>
    <clipPath id="clip-path-31">
      <rect id="Rectángulo_34205" data-name="Rectángulo 34205" width="53.095" height="48.207" fill="none"/>
    </clipPath>
    <clipPath id="clip-path-32">
      <path id="Trazado_114074" data-name="Trazado 114074" d="M187.632,139.276c10.618,3.239,12.393,15.292,17.423,27.5,2.5,6.059,6,14,12.892,15.932,7.486,2.1,14.6-5.135,20.055-10.315-5.307,8.189-11.4,14.87-17.79,15.084-7.179.241-17.267-5.073-23.941-13.756-11.345-14.755-14.134-19.519-8.639-34.443" transform="translate(-184.909 -139.276)" fill="none" clip-rule="evenodd"/>
    </clipPath>
    <linearGradient id="linear-gradient-11" x1="-1.37" y1="5.248" x2="-1.362" y2="5.248" xlink:href="#linear-gradient"/>
    <clipPath id="clip-path-33">
      <path id="Trazado_114075" data-name="Trazado 114075" d="M67.834,40.177c-9.66-4.1-14.593.12-18.372,7.007-3.963,7.224-4.395,10.905-7.087,13.605-4.562,4.573-10.517,3.639-22.694,4.443C-1.787,66.65-2.919,86.861,3.263,101.29c7.331,17.11,28.322,28.594,44.951,30.86,20.564,2.8,26.786-6.985,27.323-18.844.353-7.818-2.27-12.96-1.642-16.019,2.546-12.412,13.692-8.646,14.448-22.641.421-7.8-6.945-13.262-6.118-23.1,5.55-11.1,1.058-15.2-4.658-15.2a14.714,14.714,0,0,0-9.732,3.831" transform="translate(0 -36.346)" fill="none"/>
    </clipPath>
    <linearGradient id="linear-gradient-12" x1="0.079" y1="3.323" x2="0.083" y2="3.323" gradientUnits="objectBoundingBox">
      <stop offset="0" stop-color="#5a2d68"/>
      <stop offset="1" stop-color="#22043d"/>
    </linearGradient>
    <clipPath id="clip-path-35">
      <path id="Trazado_114077" data-name="Trazado 114077" d="M119.855,135.587c-11.882.476-23.532,4-32.025,14.32l12.178,16.827a478.485,478.485,0,0,1,.347,53.617c19.152,4.1,35.916,4.563,54.428-1.743a523.192,523.192,0,0,0-7.06-61.482c-1.552-8.517-5.47-17.787-12.252-19.757a48.416,48.416,0,0,0-13.439-1.826q-1.086,0-2.178.044" transform="translate(-87.83 -135.543)" fill="none"/>
    </clipPath>
    <clipPath id="clip-path-36">
      <path id="Trazado_114078" data-name="Trazado 114078" d="M140.513,125.314c1.343,5.036,10.28,8.017,12.476.058a15.792,15.792,0,0,1-.638-6.035l-4.12-3.713-6.383-1.741c0,5.092-.047,6.5-1.335,11.431" transform="translate(-140.513 -113.883)" fill="none"/>
    </clipPath>
    <linearGradient id="linear-gradient-13" x1="-3.784" y1="13.018" x2="-3.756" y2="13.018" xlink:href="#linear-gradient-6"/>
    <clipPath id="clip-path-37">
      <path id="Trazado_114079" data-name="Trazado 114079" d="M133.278,79.483c-.028,1.47-.725,3.469-1.916,1.416-.952-1.643-2.382-2.274-2.98-1.407-1.341,1.947-.276,4.954,1.357,6.641,1.1,1.134,2.22,1.2,3.2,1.734,2.7,3.416,4.815,4.667,8.807,6.642,3.912,1.937,7.709,2.48,10.2-2.825,2.9-6.192,1.778-12.794,1.188-20.877-5.386,4.162-12.5.642-17.872-2.089-.808,4.2-1.905,6.718-1.983,10.763" transform="translate(-127.773 -68.72)" fill="none"/>
    </clipPath>
    <linearGradient id="linear-gradient-14" x1="-2.009" y1="10.435" x2="-1.993" y2="10.435" xlink:href="#linear-gradient-5"/>
    <clipPath id="clip-path-39">
      <path id="Trazado_114083" data-name="Trazado 114083" d="M102.829,332.367c1.773,4.988,1.892,9.966,4.391,14.654,1.783-3.131,3.882-7.292,5.925-10.263l4.04,2.188c4.076,2.4,6.113,1.709,1.2-2.818-3-2.767-7.177-5-10.422-7.729Z" transform="translate(-102.829 -328.399)" fill="none"/>
    </clipPath>
    <linearGradient id="linear-gradient-15" x1="-2.232" y1="9.577" x2="-2.21" y2="9.577" xlink:href="#linear-gradient-5"/>
    <clipPath id="clip-path-41">
      <path id="Trazado_114086" data-name="Trazado 114086" d="M80.592,145.044c-5.141,2.025-10.695,6.808-14.7,11.683-8.2,9.975-15.1,28.748-15.057,42.737.022,6.569,4.416,16.695,24.73,39.851A25.663,25.663,0,0,0,79.8,228.659c-6.244-10.818-14.2-23.482-13.5-29.794.758-6.86,6.7-19.822,17.335-28.424.3-3.055,2.8-25.561-2.249-25.562a2.16,2.16,0,0,0-.791.164" transform="translate(-50.83 -144.88)" fill="#79dfef"/>
    </clipPath>
    <clipPath id="clip-path-43">
      <rect id="Rectángulo_34217" data-name="Rectángulo 34217" width="13.858" height="40.449" fill="none"/>
    </clipPath>
    <clipPath id="clip-path-44">
      <path id="Trazado_114087" data-name="Trazado 114087" d="M93.446,303.2a25.65,25.65,0,0,0,4.242-10.656c-6.244-10.818-14.2-23.481-13.5-29.794-2.309,11.556,7.553,26.338,5.053,35.57q1.981,2.339,4.21,4.879" transform="translate(-83.831 -262.755)" fill="none" clip-rule="evenodd"/>
    </clipPath>
    <linearGradient id="linear-gradient-16" x1="-2.174" y1="5.245" x2="-2.146" y2="5.245" xlink:href="#linear-gradient"/>
    <clipPath id="clip-path-45">
      <rect id="Rectángulo_34219" data-name="Rectángulo 34219" width="62.538" height="62.538" fill="none"/>
    </clipPath>
    <clipPath id="clip-path-46">
      <path id="Trazado_114088" data-name="Trazado 114088" d="M317.175,390.379l-.9-7.228H307.01l-.9,7.228a26.2,26.2,0,0,0-7.738,2.961l-5.565-4.307-6.553,6.553,4.008,5.177A23.964,23.964,0,0,0,286.574,409l-6.2.79v9.267l6.2.789a23.947,23.947,0,0,0,3.691,8.234l-4.008,5.177,6.553,6.553,5.565-4.307a26.185,26.185,0,0,0,7.738,2.961l.9,7.228h9.268l.9-7.228a26.172,26.172,0,0,0,7.738-2.961l5.565,4.307,6.553-6.553-4.008-5.177a23.937,23.937,0,0,0,3.691-8.234l6.2-.789v-9.267l-6.2-.79a23.937,23.937,0,0,0-3.691-8.234l4.008-5.177-6.553-6.553-5.565,4.307a26.179,26.179,0,0,0-7.738-2.961M312,400.463c8.694,0,12.505,5.265,12.649,13.957.119,7.19-6.7,15.82-17.481,12.431-5.605-1.761-9.6-5.993-9.6-12.431,0-8.694,5.74-13.957,14.434-13.957" transform="translate(-280.375 -383.151)" fill="none" clip-rule="evenodd"/>
    </clipPath>
    <linearGradient id="linear-gradient-17" x1="-1.44" y1="2.045" x2="-1.434" y2="2.045" xlink:href="#linear-gradient-2"/>
    <clipPath id="clip-path-47">
      <path id="Trazado_114089" data-name="Trazado 114089" d="M294.956,412.515A14.782,14.782,0,1,1,309.738,427.3a14.782,14.782,0,0,1-14.782-14.782m10.431-29.363-.843,6.787a24.585,24.585,0,0,0-7.267,2.781l-5.225-4.045-6.154,6.154,3.764,4.862a22.487,22.487,0,0,0-3.466,7.732l-5.822.741v8.7l5.822.741a22.479,22.479,0,0,0,3.466,7.733L285.9,430.2l6.154,6.154,5.225-4.044a24.6,24.6,0,0,0,7.267,2.78l.843,6.788h8.7l.842-6.788a24.59,24.59,0,0,0,7.267-2.78l5.226,4.044,6.154-6.154-3.764-4.861a22.488,22.488,0,0,0,3.466-7.733l5.822-.741v-8.7l-5.822-.741a22.487,22.487,0,0,0-3.466-7.732l3.764-4.862-6.154-6.154L322.2,392.72a24.569,24.569,0,0,0-7.267-2.781l-.842-6.787Z" transform="translate(-280.375 -383.152)" fill="none"/>
    </clipPath>
    <linearGradient id="linear-gradient-18" x1="-1.707" y1="2.306" x2="-1.701" y2="2.306" gradientUnits="objectBoundingBox">
      <stop offset="0" stop-color="#4d4bfe"/>
      <stop offset="1" stop-color="#2893f4"/>
    </linearGradient>
    <clipPath id="clip-path-49">
      <rect id="Rectángulo_34223" data-name="Rectángulo 34223" width="63.316" height="63.316" fill="none"/>
    </clipPath>
    <clipPath id="clip-path-50">
      <path id="Trazado_114090" data-name="Trazado 114090" d="M344.386,207.986l.909-7.318h9.383l.909,7.318a26.5,26.5,0,0,1,7.834,3l5.634-4.361,6.634,6.634L371.63,218.5a24.253,24.253,0,0,1,3.737,8.336l6.276.8v9.383l-6.276.8a24.232,24.232,0,0,1-3.737,8.336l4.058,5.241-6.634,6.635-5.634-4.361a26.514,26.514,0,0,1-7.834,3l-.909,7.318h-9.383l-.909-7.318a26.509,26.509,0,0,1-7.835-3l-5.633,4.361-6.635-6.635,4.058-5.241a24.248,24.248,0,0,1-3.737-8.336l-6.276-.8v-9.383l6.276-.8a24.252,24.252,0,0,1,3.737-8.336l-4.058-5.242,6.635-6.634,5.633,4.361a26.493,26.493,0,0,1,7.835-3m5.238,10.209c-8.8,0-12.661,5.331-12.806,14.131-.12,7.279,6.786,16.017,17.7,12.586,5.674-1.783,9.721-6.067,9.721-12.586,0-8.8-5.811-14.131-14.613-14.131" transform="translate(-318.328 -200.668)" fill="none" clip-rule="evenodd"/>
    </clipPath>
    <linearGradient id="linear-gradient-19" x1="-1.828" y1="3.26" x2="-1.822" y2="3.26" xlink:href="#linear-gradient-3"/>
    <clipPath id="clip-path-51">
      <path id="Trazado_114091" data-name="Trazado 114091" d="M341.515,230.4a14.966,14.966,0,1,1,14.966,14.966A14.966,14.966,0,0,1,341.515,230.4m10.561-29.729-.853,6.872a24.894,24.894,0,0,0-7.357,2.815l-5.29-4.095-6.23,6.23,3.811,4.922a22.77,22.77,0,0,0-3.51,7.828l-5.893.75V234.8l5.893.75a22.767,22.767,0,0,0,3.51,7.828l-3.811,4.922,6.23,6.23,5.29-4.1a24.913,24.913,0,0,0,7.357,2.816l.853,6.872h8.811l.853-6.872a24.911,24.911,0,0,0,7.357-2.816l5.291,4.1,6.23-6.23-3.81-4.922a22.758,22.758,0,0,0,3.509-7.828l5.894-.75v-8.811l-5.894-.75a22.779,22.779,0,0,0-3.509-7.828l3.81-4.922-6.23-6.23-5.291,4.095a24.9,24.9,0,0,0-7.357-2.815l-.853-6.872Z" transform="translate(-326.753 -200.668)" fill="none"/>
    </clipPath>
    <linearGradient id="linear-gradient-20" x1="-1.792" y1="3.213" x2="-1.786" y2="3.213" xlink:href="#linear-gradient-2"/>
  </defs>
  <g id="Grupo_81056" data-name="Grupo 81056" clip-path="url(#clip-path)">
    <g id="Grupo_80953" data-name="Grupo 80953" transform="translate(0 0)">
      <g id="Grupo_80952" data-name="Grupo 80952" clip-path="url(#clip-path-2)">
        <g id="Grupo_80948" data-name="Grupo 80948" transform="translate(2.053 308.161)" style="mix-blend-mode: multiply;isolation: isolate">
          <g id="Grupo_80947" data-name="Grupo 80947">
            <g id="Grupo_80946" data-name="Grupo 80946" clip-path="url(#clip-path-3)">
              <path id="Trazado_114037" data-name="Trazado 114037" d="M145.392,698.6c77.822,0,140.908-5.763,140.908-12.871s-63.086-12.871-140.908-12.871S4.484,678.617,4.484,685.726,67.57,698.6,145.392,698.6" transform="translate(-4.484 -672.855)" fill="#e5e5e5" fill-rule="evenodd"/>
            </g>
          </g>
        </g>
        <g id="Grupo_80951" data-name="Grupo 80951" transform="translate(4.568 312.841)" opacity="0.5" style="mix-blend-mode: multiply;isolation: isolate">
          <g id="Grupo_80950" data-name="Grupo 80950">
            <g id="Grupo_80949" data-name="Grupo 80949" clip-path="url(#clip-path-4)">
              <path id="Trazado_114038" data-name="Trazado 114038" d="M105.933,699.456c53,0,95.958-3.667,95.958-8.191s-42.962-8.191-95.958-8.191-95.958,3.667-95.958,8.191,42.962,8.191,95.958,8.191" transform="translate(-9.975 -683.075)" fill="#bfbfbf" fill-rule="evenodd"/>
            </g>
          </g>
        </g>
      </g>
    </g>
    <g id="Grupo_80955" data-name="Grupo 80955" transform="translate(188.166 81.463)">
      <g id="Grupo_80954" data-name="Grupo 80954" clip-path="url(#clip-path-5)">
        <rect id="Rectángulo_34173" data-name="Rectángulo 34173" width="134.571" height="185.273" transform="matrix(0.999, -0.04, 0.04, 0.999, -7.12, 0.281)" fill="#eecf52"/>
      </g>
    </g>
    <g id="Grupo_80957" data-name="Grupo 80957" transform="translate(54.846 142.484)">
      <g id="Grupo_80956" data-name="Grupo 80956" clip-path="url(#clip-path-6)">
        <rect id="Rectángulo_34174" data-name="Rectángulo 34174" width="248.981" height="269.129" transform="matrix(0.509, -0.861, 0.861, 0.509, -70.31, 119.029)" fill="#1c8ef4"/>
      </g>
    </g>
    <g id="Grupo_80959" data-name="Grupo 80959" transform="translate(59.171 40.256)">
      <g id="Grupo_80958" data-name="Grupo 80958" clip-path="url(#clip-path-7)">
        <rect id="Rectángulo_34175" data-name="Rectángulo 34175" width="197.248" height="245.4" transform="matrix(0.369, -0.93, 0.93, 0.369, -43.716, 110.202)" fill="#05339e"/>
      </g>
    </g>
    <g id="Grupo_80964" data-name="Grupo 80964" transform="translate(0 0)">
      <g id="Grupo_80963" data-name="Grupo 80963" clip-path="url(#clip-path-2)">
        <path id="Trazado_114042" data-name="Trazado 114042" d="M571.2,606.941a1.374,1.374,0,1,1,0,2.747H512.186l-46.661-41.537a1.372,1.372,0,1,1,1.825-2.05l45.877,40.84Z" transform="translate(-252.07 -306.645)" fill="#282ed5" fill-rule="evenodd"/>
        <path id="Trazado_114043" data-name="Trazado 114043" d="M462.345,558.55a4.3,4.3,0,1,1-4.3,4.3,4.3,4.3,0,0,1,4.3-4.3" transform="translate(-248.264 -302.74)" fill="#282ed5" fill-rule="evenodd"/>
        <path id="Trazado_114044" data-name="Trazado 114044" d="M594.681,620.987a2.932,2.932,0,0,1-.143,1.05c-.092.239-.221.359-.383.359h-1.547v3.165a.365.365,0,0,1-.083.234.568.568,0,0,1-.28.17,2.924,2.924,0,0,1-.53.1c-.217.023-.5.032-.838.032s-.6-.009-.82-.032a2.687,2.687,0,0,1-.53-.1.556.556,0,0,1-.272-.17.387.387,0,0,1-.074-.234V622.4H582.5a1.073,1.073,0,0,1-.336-.046.473.473,0,0,1-.253-.216,1.455,1.455,0,0,1-.147-.488,5.885,5.885,0,0,1-.046-.848c0-.29,0-.539.018-.751a4.851,4.851,0,0,1,.069-.576,3.455,3.455,0,0,1,.134-.488,4.55,4.55,0,0,1,.226-.484l5.421-9.562a.606.606,0,0,1,.23-.208,1.748,1.748,0,0,1,.452-.147,5.309,5.309,0,0,1,.737-.087c.294-.018.659-.027,1.078-.027.461,0,.856.009,1.179.032a4.473,4.473,0,0,1,.783.111,1.178,1.178,0,0,1,.429.18.327.327,0,0,1,.133.258v10.5h1.547c.143,0,.267.11.369.332a2.774,2.774,0,0,1,.157,1.106m-5.5-9.452h-.028l-4.588,8.014h4.615Zm18.788,8.807a6.206,6.206,0,0,1-.493,2.529,5.193,5.193,0,0,1-1.391,1.879,6.3,6.3,0,0,1-2.155,1.166,9.088,9.088,0,0,1-2.8.405,10.843,10.843,0,0,1-1.538-.1,11.554,11.554,0,0,1-1.308-.258,7.7,7.7,0,0,1-.953-.314,2.006,2.006,0,0,1-.484-.257.685.685,0,0,1-.17-.221,1.44,1.44,0,0,1-.088-.29,3.141,3.141,0,0,1-.046-.428c-.009-.171-.014-.373-.014-.608a6.28,6.28,0,0,1,.028-.64,1.723,1.723,0,0,1,.087-.424.512.512,0,0,1,.143-.23.274.274,0,0,1,.189-.069.959.959,0,0,1,.41.156,7.743,7.743,0,0,0,.728.341,7.5,7.5,0,0,0,1.1.341,6.633,6.633,0,0,0,1.552.157,5.945,5.945,0,0,0,1.428-.161,2.845,2.845,0,0,0,1.087-.521,2.376,2.376,0,0,0,.687-.9,3.471,3.471,0,0,0,.041-2.446,2.07,2.07,0,0,0-.635-.857,2.813,2.813,0,0,0-1.119-.525,6.989,6.989,0,0,0-1.672-.175,11.059,11.059,0,0,0-1.423.083,10.416,10.416,0,0,1-1.211.078.7.7,0,0,1-.557-.193,1.129,1.129,0,0,1-.17-.723V609.56a1.164,1.164,0,0,1,.207-.774.862.862,0,0,1,.668-.234h8.273a.386.386,0,0,1,.23.083.583.583,0,0,1,.18.253,1.694,1.694,0,0,1,.11.47,6.062,6.062,0,0,1,.032.7,3.466,3.466,0,0,1-.143,1.174c-.092.244-.23.364-.41.364h-6.219v3.731q.47-.055.94-.069c.309-.009.636-.014.976-.014a8.718,8.718,0,0,1,2.52.332,4.985,4.985,0,0,1,1.851.972,4.121,4.121,0,0,1,1.143,1.594,5.72,5.72,0,0,1,.391,2.206m10.11-7.5a7.244,7.244,0,0,1-.235,1.921,3.829,3.829,0,0,1-.737,1.46,3.331,3.331,0,0,1-1.271.944,4.6,4.6,0,0,1-1.852.336,4.737,4.737,0,0,1-1.912-.336,3.1,3.1,0,0,1-1.23-.935,3.661,3.661,0,0,1-.645-1.437,8.455,8.455,0,0,1-.189-1.847,7.1,7.1,0,0,1,.23-1.851,3.99,3.99,0,0,1,.719-1.461,3.24,3.24,0,0,1,1.267-.962,4.554,4.554,0,0,1,1.865-.346,4.631,4.631,0,0,1,1.976.364,3.083,3.083,0,0,1,1.216.981,3.764,3.764,0,0,1,.621,1.441,8.366,8.366,0,0,1,.175,1.728m-2.681.088a8.851,8.851,0,0,0-.078-1.262,2.8,2.8,0,0,0-.244-.839,1.081,1.081,0,0,0-.424-.474,1.3,1.3,0,0,0-.627-.148,1.166,1.166,0,0,0-.589.143,1.069,1.069,0,0,0-.419.456,2.717,2.717,0,0,0-.249.824,8.358,8.358,0,0,0-.079,1.23,8.5,8.5,0,0,0,.092,1.369,2.639,2.639,0,0,0,.268.834.928.928,0,0,0,.428.419,1.373,1.373,0,0,0,.585.115,1.176,1.176,0,0,0,.64-.157,1.1,1.1,0,0,0,.41-.474,2.886,2.886,0,0,0,.221-.829,9.993,9.993,0,0,0,.065-1.207m13.21,8.645a7.262,7.262,0,0,1-.235,1.921,3.83,3.83,0,0,1-.737,1.46,3.334,3.334,0,0,1-1.271.944,4.607,4.607,0,0,1-1.852.336,4.745,4.745,0,0,1-1.912-.336,3.09,3.09,0,0,1-1.229-.935,3.668,3.668,0,0,1-.645-1.437,8.48,8.48,0,0,1-.189-1.847,7.089,7.089,0,0,1,.23-1.851,3.994,3.994,0,0,1,.719-1.461,3.231,3.231,0,0,1,1.267-.962,4.553,4.553,0,0,1,1.865-.346,4.623,4.623,0,0,1,1.976.364,3.088,3.088,0,0,1,1.216.981,3.781,3.781,0,0,1,.622,1.441,8.4,8.4,0,0,1,.175,1.728m-2.681.088a8.912,8.912,0,0,0-.078-1.262,2.813,2.813,0,0,0-.244-.839,1.08,1.08,0,0,0-.424-.474,1.3,1.3,0,0,0-.626-.147,1.162,1.162,0,0,0-.589.143,1.066,1.066,0,0,0-.419.456,2.728,2.728,0,0,0-.249.824,8.369,8.369,0,0,0-.078,1.23,8.484,8.484,0,0,0,.092,1.367,2.638,2.638,0,0,0,.267.834.935.935,0,0,0,.428.419,1.382,1.382,0,0,0,.585.115,1.18,1.18,0,0,0,.64-.157,1.1,1.1,0,0,0,.41-.474,2.917,2.917,0,0,0,.221-.829,10.1,10.1,0,0,0,.064-1.207m-11.524,4.27,12.436-17.042a.886.886,0,0,0,.161-.336.263.263,0,0,0-.087-.258.778.778,0,0,0-.378-.161,3.6,3.6,0,0,0-.709-.055c-.262,0-.484.009-.668.028a2.322,2.322,0,0,0-.465.092,1.036,1.036,0,0,0-.318.175,2.67,2.67,0,0,0-.244.258L611.7,625.676a.877.877,0,0,0-.17.345.275.275,0,0,0,.1.249.782.782,0,0,0,.378.161,3.618,3.618,0,0,0,.714.055q.387,0,.664-.027a2.253,2.253,0,0,0,.46-.093,1.142,1.142,0,0,0,.318-.17,1.726,1.726,0,0,0,.249-.262" transform="translate(-315.298 -329.586)" fill="#3082f5" fill-rule="evenodd"/>
        <path id="Trazado_114045" data-name="Trazado 114045" d="M713.688,197.644a5.543,5.543,0,0,1-.033.673,2.187,2.187,0,0,1-.1.451.555.555,0,0,1-.175.249.421.421,0,0,1-.244.074H703.09a2.085,2.085,0,0,1-.512-.055.678.678,0,0,1-.35-.207.977.977,0,0,1-.2-.452,3.9,3.9,0,0,1-.06-.769,5.96,5.96,0,0,1,.041-.765,2.036,2.036,0,0,1,.148-.567,2.815,2.815,0,0,1,.276-.484,4.476,4.476,0,0,1,.442-.52l3.026-3.233a15.768,15.768,0,0,0,1.46-1.723,10.031,10.031,0,0,0,.866-1.419,5.344,5.344,0,0,0,.424-1.179,4.85,4.85,0,0,0,.115-1.028,2.456,2.456,0,0,0-.142-.842,1.967,1.967,0,0,0-.42-.691,1.924,1.924,0,0,0-.7-.465,2.647,2.647,0,0,0-.986-.166,4.553,4.553,0,0,0-1.41.2,6.621,6.621,0,0,0-1.078.452c-.313.17-.571.322-.779.461a.971.971,0,0,1-.484.212.3.3,0,0,1-.212-.083.55.55,0,0,1-.143-.267,3.657,3.657,0,0,1-.087-.512,7.283,7.283,0,0,1-.032-.774c0-.207.005-.382.019-.525a2.378,2.378,0,0,1,.064-.364.937.937,0,0,1,.106-.272,1.7,1.7,0,0,1,.234-.277,3.508,3.508,0,0,1,.622-.41,7.225,7.225,0,0,1,1.115-.488,11.243,11.243,0,0,1,1.46-.4,8.449,8.449,0,0,1,1.658-.161,7.431,7.431,0,0,1,2.386.346,4.751,4.751,0,0,1,1.695.958,3.834,3.834,0,0,1,1,1.455,4.914,4.914,0,0,1,.331,1.815,8.8,8.8,0,0,1-.161,1.672,6.5,6.5,0,0,1-.677,1.778,14.108,14.108,0,0,1-1.446,2.105,34.115,34.115,0,0,1-2.473,2.681l-2.04,2.087h6.881a.4.4,0,0,1,.248.082.585.585,0,0,1,.2.249,1.529,1.529,0,0,1,.12.442,4.531,4.531,0,0,1,.041.654m13.841-4.228a6.206,6.206,0,0,1-.493,2.529,5.194,5.194,0,0,1-1.391,1.879,6.3,6.3,0,0,1-2.155,1.166,9.087,9.087,0,0,1-2.8.405,10.913,10.913,0,0,1-1.538-.1,11.672,11.672,0,0,1-1.308-.258,7.7,7.7,0,0,1-.953-.314,2,2,0,0,1-.484-.257.684.684,0,0,1-.17-.221,1.441,1.441,0,0,1-.088-.29,3.141,3.141,0,0,1-.046-.428q-.014-.256-.014-.608a6.28,6.28,0,0,1,.028-.64,1.719,1.719,0,0,1,.087-.424.512.512,0,0,1,.143-.23.274.274,0,0,1,.189-.069.961.961,0,0,1,.41.157,7.545,7.545,0,0,0,.728.341,7.466,7.466,0,0,0,1.1.341,6.641,6.641,0,0,0,1.552.157,5.944,5.944,0,0,0,1.428-.161,2.846,2.846,0,0,0,1.087-.521,2.377,2.377,0,0,0,.686-.9,3.463,3.463,0,0,0,.041-2.446,2.069,2.069,0,0,0-.635-.857,2.82,2.82,0,0,0-1.119-.525,6.991,6.991,0,0,0-1.672-.174,11.062,11.062,0,0,0-1.423.083,10.438,10.438,0,0,1-1.211.078.7.7,0,0,1-.557-.193,1.131,1.131,0,0,1-.17-.724v-7.577a1.163,1.163,0,0,1,.207-.774.861.861,0,0,1,.668-.234h8.273a.386.386,0,0,1,.23.083.586.586,0,0,1,.179.253,1.712,1.712,0,0,1,.11.47,6.073,6.073,0,0,1,.032.7,3.464,3.464,0,0,1-.142,1.174c-.093.244-.23.364-.41.364h-6.219V188.4q.47-.055.94-.069c.309-.009.636-.014.976-.014a8.72,8.72,0,0,1,2.52.332,4.986,4.986,0,0,1,1.851.972,4.121,4.121,0,0,1,1.143,1.594,5.72,5.72,0,0,1,.391,2.206m10.11-7.5a7.262,7.262,0,0,1-.234,1.921,3.835,3.835,0,0,1-.737,1.46,3.331,3.331,0,0,1-1.271.944,4.6,4.6,0,0,1-1.852.336,4.736,4.736,0,0,1-1.912-.336,3.1,3.1,0,0,1-1.23-.935,3.659,3.659,0,0,1-.645-1.437,8.452,8.452,0,0,1-.189-1.847,7.1,7.1,0,0,1,.23-1.851,3.984,3.984,0,0,1,.719-1.461,3.236,3.236,0,0,1,1.267-.962,4.556,4.556,0,0,1,1.865-.346,4.632,4.632,0,0,1,1.976.364,3.088,3.088,0,0,1,1.216.981,3.77,3.77,0,0,1,.621,1.442,8.358,8.358,0,0,1,.175,1.727m-2.681.087a8.862,8.862,0,0,0-.078-1.262,2.8,2.8,0,0,0-.244-.839,1.081,1.081,0,0,0-.424-.474,1.3,1.3,0,0,0-.627-.147,1.161,1.161,0,0,0-.589.143,1.066,1.066,0,0,0-.419.456,2.731,2.731,0,0,0-.249.824,8.359,8.359,0,0,0-.079,1.23,8.5,8.5,0,0,0,.092,1.368,2.646,2.646,0,0,0,.268.834.935.935,0,0,0,.428.419,1.384,1.384,0,0,0,.585.115,1.179,1.179,0,0,0,.64-.157,1.1,1.1,0,0,0,.41-.474,2.9,2.9,0,0,0,.221-.829,9.994,9.994,0,0,0,.065-1.207m13.21,8.645a7.261,7.261,0,0,1-.235,1.921,3.83,3.83,0,0,1-.737,1.46,3.331,3.331,0,0,1-1.271.944,4.607,4.607,0,0,1-1.852.336,4.745,4.745,0,0,1-1.912-.336,3.091,3.091,0,0,1-1.229-.935,3.669,3.669,0,0,1-.645-1.437,8.482,8.482,0,0,1-.189-1.847,7.092,7.092,0,0,1,.23-1.851,3.987,3.987,0,0,1,.719-1.461,3.235,3.235,0,0,1,1.267-.962,4.553,4.553,0,0,1,1.865-.346,4.632,4.632,0,0,1,1.976.364,3.087,3.087,0,0,1,1.216.981,3.78,3.78,0,0,1,.622,1.442,8.4,8.4,0,0,1,.175,1.727m-2.681.087a8.914,8.914,0,0,0-.078-1.262,2.812,2.812,0,0,0-.244-.839,1.079,1.079,0,0,0-.424-.474,1.3,1.3,0,0,0-.627-.147,1.167,1.167,0,0,0-.589.143,1.071,1.071,0,0,0-.419.456,2.732,2.732,0,0,0-.249.824,8.378,8.378,0,0,0-.078,1.23,8.484,8.484,0,0,0,.092,1.368,2.641,2.641,0,0,0,.267.834.932.932,0,0,0,.428.419,1.38,1.38,0,0,0,.585.115,1.18,1.18,0,0,0,.64-.157,1.1,1.1,0,0,0,.41-.474,2.9,2.9,0,0,0,.221-.829,9.98,9.98,0,0,0,.065-1.207m-11.524,4.27L746.4,181.965a.886.886,0,0,0,.161-.336.263.263,0,0,0-.088-.258.781.781,0,0,0-.378-.161,3.6,3.6,0,0,0-.709-.055c-.262,0-.484.009-.668.027a2.317,2.317,0,0,0-.465.093,1.03,1.03,0,0,0-.318.175,2.676,2.676,0,0,0-.244.258L731.255,198.75a.877.877,0,0,0-.17.345.275.275,0,0,0,.1.249.782.782,0,0,0,.378.161,3.621,3.621,0,0,0,.714.055q.387,0,.664-.027a2.255,2.255,0,0,0,.46-.093,1.143,1.143,0,0,0,.318-.17,1.728,1.728,0,0,0,.249-.262" transform="translate(-380.475 -98.188)" fill="#282ed5" fill-rule="evenodd"/>
        <path id="Trazado_114046" data-name="Trazado 114046" d="M712.717,227.086a1.374,1.374,0,0,1,0,2.748H654.755l-22.87,20.986a1.371,1.371,0,0,1-1.857-2.018l23.665-21.716Z" transform="translate(-341.242 -123.083)" fill="#282ed5" fill-rule="evenodd"/>
        <path id="Trazado_114047" data-name="Trazado 114047" d="M622.439,272.271a4.3,4.3,0,1,1-4.3,4.3,4.3,4.3,0,0,1,4.3-4.3" transform="translate(-335.037 -147.574)" fill="#282ed5" fill-rule="evenodd"/>
        <path id="Trazado_114048" data-name="Trazado 114048" d="M224.8,70.913a1.374,1.374,0,1,1,0-2.748h59.023l23.665,21.716a1.371,1.371,0,0,1-1.857,2.018l-22.87-20.986Z" transform="translate(-121.1 -36.947)" fill="#282ed5" fill-rule="evenodd"/>
        <path id="Trazado_114049" data-name="Trazado 114049" d="M404.906,113.35a4.3,4.3,0,1,0,4.3,4.3,4.3,4.3,0,0,0-4.3-4.3" transform="translate(-217.132 -61.437)" fill="#282ed5" fill-rule="evenodd"/>
        <path id="Trazado_114050" data-name="Trazado 114050" d="M250.742,33.791a5.175,5.175,0,0,1-.5,2.317,4.824,4.824,0,0,1-1.391,1.7,6.392,6.392,0,0,1-2.128,1.045,9.909,9.909,0,0,1-2.713.355,10.228,10.228,0,0,1-1.672-.129,9.946,9.946,0,0,1-1.382-.323,5.9,5.9,0,0,1-.991-.4,3.172,3.172,0,0,1-.511-.309.71.71,0,0,1-.184-.244,2.57,2.57,0,0,1-.106-.314,2.656,2.656,0,0,1-.069-.46c-.014-.18-.018-.405-.018-.663a2.61,2.61,0,0,1,.106-.894.354.354,0,0,1,.327-.249,1.23,1.23,0,0,1,.465.18,8.512,8.512,0,0,0,.843.387,9.7,9.7,0,0,0,1.2.387,6.218,6.218,0,0,0,1.566.18,4.49,4.49,0,0,0,1.308-.175,2.975,2.975,0,0,0,.967-.488,2.034,2.034,0,0,0,.594-.764,2.508,2.508,0,0,0,.193-1,2.452,2.452,0,0,0-.235-1.087,2.235,2.235,0,0,0-.7-.824,3.381,3.381,0,0,0-1.175-.53,6.584,6.584,0,0,0-1.668-.189h-1.51a.814.814,0,0,1-.3-.046.416.416,0,0,1-.2-.2,1.259,1.259,0,0,1-.115-.41,5.382,5.382,0,0,1-.032-.677,4.794,4.794,0,0,1,.032-.64,1.1,1.1,0,0,1,.11-.382.39.39,0,0,1,.185-.189.646.646,0,0,1,.276-.055h1.52a4.663,4.663,0,0,0,1.382-.184A2.87,2.87,0,0,0,245.233,28a2.214,2.214,0,0,0,.622-.82,2.564,2.564,0,0,0,.217-1.064,2.439,2.439,0,0,0-.147-.843,1.928,1.928,0,0,0-.437-.691,2.021,2.021,0,0,0-.746-.461,3.047,3.047,0,0,0-1.078-.17,4.005,4.005,0,0,0-1.318.212,8.183,8.183,0,0,0-1.11.456c-.327.171-.6.327-.834.47a1.157,1.157,0,0,1-.507.217.345.345,0,0,1-.185-.046.356.356,0,0,1-.138-.185,1.808,1.808,0,0,1-.079-.392c-.018-.175-.027-.4-.027-.668,0-.226,0-.41.014-.562a1.906,1.906,0,0,1,.055-.373,1.212,1.212,0,0,1,.1-.258,1.109,1.109,0,0,1,.193-.235,3.893,3.893,0,0,1,.553-.382,6.621,6.621,0,0,1,1.05-.5,9.756,9.756,0,0,1,1.465-.41,9.185,9.185,0,0,1,1.8-.166,7.736,7.736,0,0,1,2.243.3,4.641,4.641,0,0,1,1.645.857,3.575,3.575,0,0,1,1.009,1.377,4.712,4.712,0,0,1,.345,1.847,5.266,5.266,0,0,1-.2,1.483,3.9,3.9,0,0,1-.594,1.23,3.522,3.522,0,0,1-.976.921,4.368,4.368,0,0,1-1.354.567v.042a5.092,5.092,0,0,1,1.649.465,4.177,4.177,0,0,1,1.234.894,3.82,3.82,0,0,1,.774,1.221,3.919,3.919,0,0,1,.272,1.46M265.191,30.1a19.284,19.284,0,0,1-.336,3.777,8.337,8.337,0,0,1-1.1,2.874,5.119,5.119,0,0,1-1.985,1.82,6.437,6.437,0,0,1-2.994.636,6.366,6.366,0,0,1-2.971-.613,4.614,4.614,0,0,1-1.861-1.769A8,8,0,0,1,252.976,34a23.148,23.148,0,0,1-.277-3.768,18.92,18.92,0,0,1,.345-3.772,8.422,8.422,0,0,1,1.106-2.878,5.12,5.12,0,0,1,1.985-1.82,7.415,7.415,0,0,1,5.956-.023,4.61,4.61,0,0,1,1.87,1.769,7.911,7.911,0,0,1,.958,2.818,23.711,23.711,0,0,1,.272,3.768m-3.565.185c0-.829-.023-1.557-.069-2.188a13.916,13.916,0,0,0-.207-1.654A6.286,6.286,0,0,0,261,25.256a2.266,2.266,0,0,0-.512-.774,1.73,1.73,0,0,0-.677-.414,2.844,2.844,0,0,0-.843-.12,2.2,2.2,0,0,0-1.322.382,2.574,2.574,0,0,0-.829,1.156,7.243,7.243,0,0,0-.424,1.912,25.059,25.059,0,0,0-.125,2.666,26.769,26.769,0,0,0,.147,3.077,7.161,7.161,0,0,0,.47,1.944,2.1,2.1,0,0,0,.82,1.008,2.661,2.661,0,0,0,2.147.12,2.008,2.008,0,0,0,.714-.5,2.738,2.738,0,0,0,.507-.852,6.18,6.18,0,0,0,.332-1.183,11.456,11.456,0,0,0,.18-1.525c.032-.561.046-1.188.046-1.87m13.15-4.556a7.266,7.266,0,0,1-.235,1.921,3.835,3.835,0,0,1-.737,1.46,3.332,3.332,0,0,1-1.271.944,4.593,4.593,0,0,1-1.852.337,4.726,4.726,0,0,1-1.912-.337,3.091,3.091,0,0,1-1.23-.935,3.662,3.662,0,0,1-.645-1.437,8.449,8.449,0,0,1-.189-1.847,7.09,7.09,0,0,1,.23-1.851,3.987,3.987,0,0,1,.719-1.461,3.231,3.231,0,0,1,1.267-.962,4.555,4.555,0,0,1,1.865-.346,4.633,4.633,0,0,1,1.976.364,3.087,3.087,0,0,1,1.216.981A3.773,3.773,0,0,1,274.6,24a8.371,8.371,0,0,1,.175,1.728m-2.681.087a8.848,8.848,0,0,0-.078-1.262,2.784,2.784,0,0,0-.244-.839,1.074,1.074,0,0,0-.424-.474,1.3,1.3,0,0,0-.627-.147,1.166,1.166,0,0,0-.589.143,1.07,1.07,0,0,0-.419.456,2.716,2.716,0,0,0-.249.824,9.9,9.9,0,0,0,.014,2.6,2.64,2.64,0,0,0,.267.834.936.936,0,0,0,.428.419,1.383,1.383,0,0,0,.585.115,1.179,1.179,0,0,0,.64-.157,1.1,1.1,0,0,0,.409-.474,2.88,2.88,0,0,0,.221-.829,9.986,9.986,0,0,0,.065-1.207m13.21,8.645a7.259,7.259,0,0,1-.235,1.921,3.822,3.822,0,0,1-.737,1.46,3.338,3.338,0,0,1-1.271.944,4.607,4.607,0,0,1-1.852.336,4.744,4.744,0,0,1-1.912-.336,3.1,3.1,0,0,1-1.23-.935,3.668,3.668,0,0,1-.645-1.437,8.48,8.48,0,0,1-.189-1.847,7.089,7.089,0,0,1,.23-1.851,3.988,3.988,0,0,1,.719-1.461,3.232,3.232,0,0,1,1.267-.962,4.553,4.553,0,0,1,1.865-.346,4.626,4.626,0,0,1,1.976.364,3.087,3.087,0,0,1,1.216.981,3.771,3.771,0,0,1,.621,1.442,8.359,8.359,0,0,1,.175,1.727m-2.681.087a8.913,8.913,0,0,0-.078-1.262,2.8,2.8,0,0,0-.245-.839,1.077,1.077,0,0,0-.424-.474,1.3,1.3,0,0,0-.626-.147,1.166,1.166,0,0,0-.589.143,1.07,1.07,0,0,0-.419.456,2.715,2.715,0,0,0-.249.824,8.37,8.37,0,0,0-.078,1.23,8.49,8.49,0,0,0,.092,1.368,2.654,2.654,0,0,0,.267.834.939.939,0,0,0,.428.419,1.384,1.384,0,0,0,.585.115,1.179,1.179,0,0,0,.64-.157,1.1,1.1,0,0,0,.41-.474,2.893,2.893,0,0,0,.221-.829,9.986,9.986,0,0,0,.065-1.207M271.1,38.816l12.436-17.042a.887.887,0,0,0,.161-.336.262.262,0,0,0-.087-.258.781.781,0,0,0-.378-.161,3.6,3.6,0,0,0-.709-.055c-.262,0-.484.009-.668.027a2.319,2.319,0,0,0-.465.093,1.035,1.035,0,0,0-.318.175,2.677,2.677,0,0,0-.244.258L268.392,38.558a.877.877,0,0,0-.17.345.274.274,0,0,0,.1.249.778.778,0,0,0,.377.161,3.62,3.62,0,0,0,.714.055q.387,0,.664-.027a2.263,2.263,0,0,0,.46-.093,1.137,1.137,0,0,0,.318-.17,1.728,1.728,0,0,0,.249-.262" transform="translate(-129.584 -11.363)" fill="#00cedc" fill-rule="evenodd"/>
        <g id="Grupo_80962" data-name="Grupo 80962" transform="translate(201.526 41.685)" opacity="0.5" style="mix-blend-mode: multiply;isolation: isolate">
          <g id="Grupo_80961" data-name="Grupo 80961">
            <g id="Grupo_80960" data-name="Grupo 80960" clip-path="url(#clip-path-9)">
              <path id="Trazado_114051" data-name="Trazado 114051" d="M509.242,128.778h-69.22V91.019a127.2,127.2,0,0,1,71.052,35.927Z" transform="translate(-440.022 -91.019)" fill="#b1c5da" fill-rule="evenodd"/>
            </g>
          </g>
        </g>
        <path id="Trazado_114052" data-name="Trazado 114052" d="M526.816,1.743a.872.872,0,1,1,0-1.743h8.4a.872.872,0,0,1,0,1.743Zm11.94,0a.872.872,0,1,1,0-1.743h3.418a.872.872,0,0,1,0,1.743Zm10.035,0h15.262v69.4h-104.5V1.743h46.423a.872.872,0,0,0,0-1.743H457.806V72.89H565.8q-.021-36.445,0-72.89H548.791a.872.872,0,0,0,0,1.743m-38.946,0a.872.872,0,0,1,0-1.743H523.1a.872.872,0,1,1,0,1.743Z" transform="translate(-248.135 0)" fill="#f5f9fd" fill-rule="evenodd"/>
      </g>
    </g>
    <g id="Grupo_80966" data-name="Grupo 80966" transform="translate(213.74 5.813)">
      <g id="Grupo_80965" data-name="Grupo 80965" clip-path="url(#clip-path-10)">
        <rect id="Rectángulo_34178" data-name="Rectángulo 34178" width="62.861" height="97.374" transform="matrix(0.015, -1, 1, 0.015, -0.923, 61.404)" fill="#05339e"/>
      </g>
    </g>
    <g id="Grupo_80978" data-name="Grupo 80978" transform="translate(0 0)">
      <g id="Grupo_80977" data-name="Grupo 80977" clip-path="url(#clip-path-2)">
        <rect id="Rectángulo_34180" data-name="Rectángulo 34180" width="15.43" height="38.19" transform="translate(220.823 25.46)" fill="#6d6afd"/>
        <rect id="Rectángulo_34181" data-name="Rectángulo 34181" width="15.43" height="51.367" transform="translate(243.111 12.282)" fill="#13b770"/>
        <rect id="Rectángulo_34182" data-name="Rectángulo 34182" width="15.43" height="23.129" transform="translate(265.4 40.52)" fill="#00cedc"/>
        <rect id="Rectángulo_34183" data-name="Rectángulo 34183" width="15.431" height="45.719" transform="translate(287.688 17.929)" fill="#79dfef"/>
        <g id="Grupo_80971" data-name="Grupo 80971" transform="translate(275.712 168.049)" opacity="0.5" style="mix-blend-mode: multiply;isolation: isolate">
          <g id="Grupo_80970" data-name="Grupo 80970">
            <g id="Grupo_80969" data-name="Grupo 80969" clip-path="url(#clip-path-12)">
              <g id="Grupo_80968" data-name="Grupo 80968" transform="translate(0 0)">
                <g id="Grupo_80967" data-name="Grupo 80967" clip-path="url(#clip-path-13)">
                  <rect id="Rectángulo_34184" data-name="Rectángulo 34184" width="42.201" height="69.753" transform="translate(-2.233 0.073) rotate(-1.87)" fill="url(#linear-gradient)"/>
                </g>
              </g>
            </g>
          </g>
        </g>
        <rect id="Rectángulo_34186" data-name="Rectángulo 34186" width="58.798" height="57.934" transform="translate(287.228 168.049)" fill="#c4d0ff"/>
        <path id="Trazado_114054" data-name="Trazado 114054" d="M640.772,358.8h9.083v1.934h-9.083Zm12.829,0h6.688v1.934H653.6Zm11.805,0h4.5v1.934h-4.5Zm9.7,0h2.476v1.934H675.11Zm7.081,0v1.934h4.424v63.025H621.671V360.737h13.894V358.8H619.737V425.7h68.812V358.8Z" transform="translate(-335.903 -194.475)" fill="#f5f9fd" fill-rule="evenodd"/>
        <path id="Trazado_114055" data-name="Trazado 114055" d="M662.69,377.318a24.208,24.208,0,1,1-24.208,24.208,24.208,24.208,0,0,1,24.208-24.208m0,11.074a13.134,13.134,0,1,0,13.134,13.134,13.134,13.134,0,0,0-13.134-13.134" transform="translate(-346.063 -204.51)" fill="#1c8df3" fill-rule="evenodd"/>
        <path id="Trazado_114056" data-name="Trazado 114056" d="M691.341,377.318a24.208,24.208,0,0,1,24.208,24.208H704.475a13.134,13.134,0,0,0-13.134-13.134Z" transform="translate(-374.713 -204.51)" fill="#00cedc" fill-rule="evenodd"/>
        <path id="Trazado_114057" data-name="Trazado 114057" d="M676.146,421.422c0,.127,0,.236-.011.329s-.016.18-.028.26a1.732,1.732,0,0,1-.051.227c-.02.071-.045.149-.074.231l-2.253,6.439a.4.4,0,0,1-.081.135.34.34,0,0,1-.141.082.965.965,0,0,1-.229.04c-.094.006-.209.009-.347.009a3.369,3.369,0,0,1-.445-.022.605.605,0,0,1-.24-.074.152.152,0,0,1-.081-.122.432.432,0,0,1,.036-.187l2.418-6.588H671.74c-.074,0-.13-.06-.166-.178a2.061,2.061,0,0,1-.056-.57,2.872,2.872,0,0,1,.017-.333,1.144,1.144,0,0,1,.045-.231.305.305,0,0,1,.068-.129.129.129,0,0,1,.092-.04h4.072a.457.457,0,0,1,.159.022.184.184,0,0,1,.1.1.755.755,0,0,1,.056.223,2.979,2.979,0,0,1,.018.376m5.43,4.973a3.6,3.6,0,0,1-.193,1.221,2.543,2.543,0,0,1-.546.908,2.368,2.368,0,0,1-.846.563,2.957,2.957,0,0,1-1.1.2,3.536,3.536,0,0,1-.6-.049,3.777,3.777,0,0,1-.513-.125,2.592,2.592,0,0,1-.374-.151.733.733,0,0,1-.189-.125.325.325,0,0,1-.067-.107.844.844,0,0,1-.035-.14,1.844,1.844,0,0,1-.017-.207c0-.082-.005-.18-.005-.294s0-.225.011-.31a1.017,1.017,0,0,1,.034-.2.262.262,0,0,1,.056-.111.1.1,0,0,1,.074-.033.337.337,0,0,1,.161.076,2.769,2.769,0,0,0,.286.165,2.577,2.577,0,0,0,.432.164,2.142,2.142,0,0,0,.609.076,1.914,1.914,0,0,0,.561-.078,1.042,1.042,0,0,0,.426-.251,1.153,1.153,0,0,0,.269-.433,2.041,2.041,0,0,0,.017-1.181,1.014,1.014,0,0,0-.249-.414,1.036,1.036,0,0,0-.439-.253,2.259,2.259,0,0,0-.656-.085,3.555,3.555,0,0,0-.558.04,3.273,3.273,0,0,1-.475.038.248.248,0,0,1-.219-.093.643.643,0,0,1-.067-.349v-3.659a.658.658,0,0,1,.082-.374.3.3,0,0,1,.262-.114h3.245a.135.135,0,0,1,.091.04.29.29,0,0,1,.07.122.985.985,0,0,1,.043.227c.009.093.013.2.013.336a2.047,2.047,0,0,1-.056.567c-.036.118-.091.176-.161.176h-2.439v1.8a3.439,3.439,0,0,1,.368-.033c.121,0,.25-.006.383-.006a2.827,2.827,0,0,1,.988.16,1.883,1.883,0,0,1,.726.469,2.041,2.041,0,0,1,.448.769,3.335,3.335,0,0,1,.153,1.065m3.967-3.621a4.28,4.28,0,0,1-.092.928,2.044,2.044,0,0,1-.289.7,1.377,1.377,0,0,1-.5.456,1.508,1.508,0,0,1-.727.163,1.549,1.549,0,0,1-.75-.163,1.285,1.285,0,0,1-.483-.451,1.982,1.982,0,0,1-.253-.694,5.035,5.035,0,0,1-.074-.892,4.175,4.175,0,0,1,.09-.894,2.113,2.113,0,0,1,.282-.7,1.344,1.344,0,0,1,.5-.465,1.5,1.5,0,0,1,.732-.166,1.524,1.524,0,0,1,.775.175,1.3,1.3,0,0,1,.477.474,2.067,2.067,0,0,1,.244.7,4.985,4.985,0,0,1,.069.834m-1.052.043a5.222,5.222,0,0,0-.031-.61,1.613,1.613,0,0,0-.1-.4.5.5,0,0,0-.166-.229.433.433,0,0,0-.246-.071.389.389,0,0,0-.231.069.493.493,0,0,0-.165.22,1.562,1.562,0,0,0-.1.4,4.909,4.909,0,0,0-.031.594,5.03,5.03,0,0,0,.036.66,1.506,1.506,0,0,0,.1.4.417.417,0,0,0,.168.2.454.454,0,0,0,.229.055.4.4,0,0,0,.251-.075.517.517,0,0,0,.161-.229,1.665,1.665,0,0,0,.087-.4c.017-.163.025-.359.025-.583m5.183,4.175a4.284,4.284,0,0,1-.093.928,2.043,2.043,0,0,1-.289.7,1.371,1.371,0,0,1-.5.456,1.511,1.511,0,0,1-.726.163,1.552,1.552,0,0,1-.75-.163,1.279,1.279,0,0,1-.482-.451,1.978,1.978,0,0,1-.253-.694,4.979,4.979,0,0,1-.074-.892,4.144,4.144,0,0,1,.091-.894,2.124,2.124,0,0,1,.282-.705,1.344,1.344,0,0,1,.5-.465,1.5,1.5,0,0,1,.732-.167,1.521,1.521,0,0,1,.775.176,1.3,1.3,0,0,1,.477.474,2.065,2.065,0,0,1,.244.7,4.984,4.984,0,0,1,.069.834m-1.052.043a5.217,5.217,0,0,0-.031-.61,1.6,1.6,0,0,0-.1-.4.5.5,0,0,0-.166-.229.436.436,0,0,0-.246-.071.392.392,0,0,0-.231.069.49.49,0,0,0-.164.22,1.58,1.58,0,0,0-.1.4,5.994,5.994,0,0,0,.005,1.254,1.481,1.481,0,0,0,.1.4.414.414,0,0,0,.169.2.452.452,0,0,0,.229.056.4.4,0,0,0,.251-.076.517.517,0,0,0,.16-.229,1.649,1.649,0,0,0,.087-.4c.016-.162.025-.357.025-.582m-4.521,2.061,4.879-8.229a.464.464,0,0,0,.064-.163.146.146,0,0,0-.034-.125.283.283,0,0,0-.148-.077,1.155,1.155,0,0,0-.278-.027,2.226,2.226,0,0,0-.262.013.784.784,0,0,0-.182.044.4.4,0,0,0-.125.085,1.19,1.19,0,0,0-.1.125l-4.879,8.229a.467.467,0,0,0-.066.167.146.146,0,0,0,.038.12.281.281,0,0,0,.148.078,1.188,1.188,0,0,0,.28.027,2.214,2.214,0,0,0,.26-.013.748.748,0,0,0,.181-.044.443.443,0,0,0,.125-.082.788.788,0,0,0,.1-.127" transform="translate(-363.969 -227.901)" fill="#1c8eaa" fill-rule="evenodd"/>
        <g id="Grupo_80976" data-name="Grupo 80976" transform="translate(74.246 243.617)" opacity="0.35" style="mix-blend-mode: multiply;isolation: isolate">
          <g id="Grupo_80975" data-name="Grupo 80975">
            <g id="Grupo_80974" data-name="Grupo 80974" clip-path="url(#clip-path-14)">
              <g id="Grupo_80973" data-name="Grupo 80973">
                <g id="Grupo_80972" data-name="Grupo 80972" clip-path="url(#clip-path-15)">
                  <rect id="Rectángulo_34187" data-name="Rectángulo 34187" width="119.756" height="126.379" transform="matrix(0.645, -0.764, 0.764, 0.645, -29.295, 34.683)" fill="url(#linear-gradient-2)"/>
                </g>
              </g>
            </g>
          </g>
        </g>
      </g>
    </g>
    <g id="Grupo_80980" data-name="Grupo 80980" transform="translate(68.305 243.618)">
      <g id="Grupo_80979" data-name="Grupo 80979" clip-path="url(#clip-path-16)">
        <rect id="Rectángulo_34190" data-name="Rectángulo 34190" width="74.547" height="122.931" transform="translate(-9.141 54.846) rotate(-80.538)" fill="url(#linear-gradient-3)"/>
      </g>
    </g>
    <g id="Grupo_80987" data-name="Grupo 80987" transform="translate(0 0)">
      <g id="Grupo_80986" data-name="Grupo 80986" clip-path="url(#clip-path-2)">
        <path id="Trazado_114060" data-name="Trazado 114060" d="M263.862,593.615c-.008-14.016-.091-32.208-.091-32.291a1.018,1.018,0,0,0-2.037.008c0,.083.086,18.339.1,32.283ZM159.05,565.8a1.487,1.487,0,1,0,1.488,1.487,1.487,1.487,0,0,0-1.488-1.487m1.051,27.815c-.026-11.523-.077-22.6-.077-22.667a1.018,1.018,0,1,0-2.036.008c0,.065.051,10.944.081,22.315a6.006,6.006,0,0,0,2,.343Zm6.36-32.628a1.488,1.488,0,1,0,1.488,1.487,1.487,1.487,0,0,0-1.488-1.487m1.059,32.628c-.019-13.035-.085-27.4-.085-27.479a1.018,1.018,0,0,0-2.037.008c0,.074.067,14.48.092,27.471Zm6.351-37.44a1.488,1.488,0,1,0,1.488,1.488,1.488,1.488,0,0,0-1.488-1.488m1.065,37.44c-.008-14.016-.091-32.208-.091-32.291a1.018,1.018,0,0,0-2.036.008c0,.083.086,18.339.1,32.283Zm6.346-42.252a1.488,1.488,0,1,0,1.487,1.488,1.487,1.487,0,0,0-1.487-1.488m1.064,42.252c.014-14.216-.09-37.01-.09-37.1a1.018,1.018,0,0,0-2.037.009c0,.093.108,23,.1,37.095Zm6.346-47.064a1.488,1.488,0,1,0,1.488,1.487,1.487,1.487,0,0,0-1.488-1.487m1.054,47.064c.052-13.056-.08-41.811-.08-41.915a1.018,1.018,0,1,0-2.036.008c0,.106.136,29.09.092,41.907Zm6.357-51.877a1.488,1.488,0,1,0,1.487,1.488,1.487,1.487,0,0,0-1.487-1.488m1.013,51.877c.136-8.148-.039-46.607-.04-46.728a1.018,1.018,0,1,0-2.036.008c0,.123.184,39.411.053,46.72Zm6.4-51.876A1.488,1.488,0,1,0,205,543.227a1.487,1.487,0,0,0-1.487-1.488m1.014,51.876c.136-8.148-.04-46.607-.04-46.727a1.018,1.018,0,1,0-2.036.008c0,.123.185,39.409.054,46.72Zm6.4-47.064a1.488,1.488,0,1,0,1.487,1.487,1.487,1.487,0,0,0-1.487-1.487m1.053,47.064c.052-13.056-.079-41.811-.08-41.915a1.018,1.018,0,0,0-2.036.008c0,.106.136,29.09.092,41.907Zm6.357-42.252a1.488,1.488,0,1,0,1.488,1.488,1.487,1.487,0,0,0-1.488-1.488m1.064,42.252c.014-14.216-.091-37.01-.091-37.1a1.018,1.018,0,0,0-2.037.009c0,.093.108,23,.1,37.095Zm6.346-32.628a1.488,1.488,0,1,0,1.488,1.487,1.488,1.488,0,0,0-1.488-1.487m1.059,32.628c-.02-13.035-.085-27.4-.086-27.479a1.018,1.018,0,0,0-2.036.008c0,.074.068,14.48.092,27.471Zm6.351-27.815a1.487,1.487,0,1,0,1.488,1.487,1.487,1.487,0,0,0-1.488-1.487m1.051,27.815c-.026-11.523-.076-22.6-.076-22.667a1.018,1.018,0,0,0-2.037.008c0,.065.053,11.164.082,22.659Zm6.36-23a1.488,1.488,0,1,0,1.488,1.487,1.487,1.487,0,0,0-1.488-1.487m1.038,23c-.027-9.612-.064-17.8-.064-17.855a1.018,1.018,0,1,0-2.036.008c0,.056.038,8.253.067,17.847Zm6.373-27.815a1.487,1.487,0,1,0,1.488,1.487,1.487,1.487,0,0,0-1.488-1.487m1.051,27.815c-.026-11.523-.077-22.6-.077-22.667a1.018,1.018,0,0,0-2.037.008c0,.065.053,11.164.082,22.659Zm6.36-32.628a1.488,1.488,0,1,0,1.487,1.487,1.488,1.488,0,0,0-1.487-1.487m1.059,32.628c-.02-13.035-.086-27.4-.086-27.479a1.018,1.018,0,0,0-2.036.008c0,.074.068,14.48.092,27.471Zm6.351-37.44a1.488,1.488,0,1,0,1.488,1.488,1.488,1.488,0,0,0-1.488-1.488" transform="translate(-85.4 -293.628)" fill="#3faff6" fill-rule="evenodd"/>
        <g id="Grupo_80985" data-name="Grupo 80985" transform="translate(68.305 261.946)" opacity="0.5" style="mix-blend-mode: multiply;isolation: isolate">
          <g id="Grupo_80984" data-name="Grupo 80984">
            <g id="Grupo_80983" data-name="Grupo 80983" clip-path="url(#clip-path-18)">
              <g id="Grupo_80982" data-name="Grupo 80982" transform="translate(0 0)">
                <g id="Grupo_80981" data-name="Grupo 80981" clip-path="url(#clip-path-19)">
                  <rect id="Rectángulo_34191" data-name="Rectángulo 34191" width="63.602" height="119.51" transform="translate(-8.761 28.652) rotate(-73.284)" fill="url(#linear-gradient-4)"/>
                </g>
              </g>
            </g>
          </g>
        </g>
        <path id="Trazado_114062" data-name="Trazado 114062" d="M149.141,594.3c8.178-2.681,14.887-8.791,21.374-14.017,8.831-7.115,17.035-14.692,28.614-14.145,10.014.473,16.994,7.377,24.715,12.61,7.471,5.064,15.686,8.459,24.813,8.408a29.413,29.413,0,0,0,15.718-4.387v4.9a29.436,29.436,0,0,1-15.7,4.281c-10.444.058-18.478-5.691-26.326-11.017-7.364-5-14.566-9.582-23.445-10-9.758-.461-17.525,5.8-25.636,12.33-7.181,5.786-14.614,11.773-24.126,14.132Z" transform="translate(-80.836 -306.837)" fill="#fff" fill-rule="evenodd"/>
        <path id="Trazado_114063" data-name="Trazado 114063" d="M179.6,655.138c-.663,3.3-2.673,5.813-2.99,8.235-.546,4.172,1.858,8.363,6.792,8.407l32.277.287c-1.71-11.027-18.963-4.913-24.758-17.14l-7.512.423Z" transform="translate(-95.682 -354.977)" fill="#151981" fill-rule="evenodd"/>
      </g>
    </g>
    <g id="Grupo_80989" data-name="Grupo 80989" transform="translate(67.886 135.687)">
      <g id="Grupo_80988" data-name="Grupo 80988" clip-path="url(#clip-path-20)">
        <rect id="Rectángulo_34194" data-name="Rectángulo 34194" width="42.634" height="169.31" transform="translate(-1.163 0.008) rotate(-0.394)" fill="url(#linear-gradient-5)"/>
      </g>
    </g>
    <g id="Grupo_80991" data-name="Grupo 80991" transform="translate(67.886 135.687)">
      <g id="Grupo_80990" data-name="Grupo 80990" clip-path="url(#clip-path-21)">
        <rect id="Rectángulo_34195" data-name="Rectángulo 34195" width="159.369" height="135.672" transform="matrix(0.608, -0.794, 0.794, 0.608, -81.575, 106.504)" fill="url(#linear-gradient-6)"/>
      </g>
    </g>
    <g id="Grupo_80993" data-name="Grupo 80993" transform="translate(0 0)">
      <g id="Grupo_80992" data-name="Grupo 80992" clip-path="url(#clip-path-2)">
        <path id="Trazado_114066" data-name="Trazado 114066" d="M43.928,673.86c3.34,3.37,4.471,4.776,8.72,4.889,3.467.092,4.631-1,6.589-2.951,2.173-2.16,2.847-3.509,2.8-5.421-.082-3.654-1.668-6.954-1.908-11.532l-6.956.529-3.028-1.619c-1.314,2.139-4.113,6.09-6.072,9.561-.965,1.71-.61,4.76-.149,6.545" transform="translate(-23.558 -356.509)" fill="#151981" fill-rule="evenodd"/>
      </g>
    </g>
    <g id="Grupo_80995" data-name="Grupo 80995" transform="translate(26.365 134.739)">
      <g id="Grupo_80994" data-name="Grupo 80994" clip-path="url(#clip-path-23)">
        <rect id="Rectángulo_34197" data-name="Rectángulo 34197" width="75.932" height="172.155" transform="matrix(1, -0.012, 0.012, 1, -2.878, 0.026)" fill="url(#linear-gradient-7)"/>
      </g>
    </g>
    <g id="Grupo_80997" data-name="Grupo 80997" transform="translate(26.389 134.739)">
      <g id="Grupo_80996" data-name="Grupo 80996" clip-path="url(#clip-path-24)">
        <rect id="Rectángulo_34198" data-name="Rectángulo 34198" width="142.197" height="186.246" transform="matrix(0.896, -0.444, 0.444, 0.896, -68.936, 33.749)" fill="url(#linear-gradient-8)"/>
      </g>
    </g>
    <g id="Grupo_80999" data-name="Grupo 80999" transform="translate(37.802 134.739)">
      <g id="Grupo_80998" data-name="Grupo 80998" clip-path="url(#clip-path-25)">
        <rect id="Rectángulo_34199" data-name="Rectángulo 34199" width="109.132" height="126.2" transform="translate(-40.213 18.451) rotate(-24.647)" fill="url(#linear-gradient-9)"/>
      </g>
    </g>
    <g id="Grupo_81001" data-name="Grupo 81001" transform="translate(0 0)">
      <g id="Grupo_81000" data-name="Grupo 81000" clip-path="url(#clip-path-2)">
        <path id="Trazado_114070" data-name="Trazado 114070" d="M95.658,404.636c2.179-12.335,4.4-25.836,6.624-39.368,2.612-15.885,5.233-31.818,7.915-46.56l4.3.771c-2.616,14.382-5.261,30.46-7.9,46.492-2.241,13.631-4.479,27.229-6.76,40.106-1.432-.431-2.829-.909-4.182-1.44" transform="translate(-51.848 -172.743)" fill="#dd85e3" fill-rule="evenodd"/>
      </g>
    </g>
    <g id="Grupo_81003" data-name="Grupo 81003" transform="translate(143.95 47.375)">
      <g id="Grupo_81002" data-name="Grupo 81002" clip-path="url(#clip-path-27)">
        <rect id="Rectángulo_34201" data-name="Rectángulo 34201" width="29.896" height="25.259" transform="matrix(0.999, -0.034, 0.034, 0.999, -0.827, 0.028)" fill="url(#linear-gradient-10)"/>
      </g>
    </g>
    <g id="Grupo_81005" data-name="Grupo 81005" transform="translate(0 0)">
      <g id="Grupo_81004" data-name="Grupo 81004" clip-path="url(#clip-path-2)">
        <path id="Trazado_114072" data-name="Trazado 114072" d="M326.729,127.316c2.275-5.393,4.2-5.736,10.947-7.677l3.731,2.251-3.176-1.2c-4.645,2.211-9.133,1.942-11.5,6.629" transform="translate(-177.09 -64.846)" fill="#ff9382" fill-rule="evenodd"/>
      </g>
    </g>
    <g id="Grupo_81007" data-name="Grupo 81007" transform="translate(84.772 63.875)">
      <g id="Grupo_81006" data-name="Grupo 81006" clip-path="url(#clip-path-29)">
        <rect id="Rectángulo_34203" data-name="Rectángulo 34203" width="73.966" height="53.721" transform="translate(-6.519 0.297) rotate(-4.495)" fill="#79dfef"/>
      </g>
    </g>
    <g id="Grupo_81014" data-name="Grupo 81014" transform="translate(0 0)">
      <g id="Grupo_81013" data-name="Grupo 81013" clip-path="url(#clip-path-2)">
        <g id="Grupo_81012" data-name="Grupo 81012" transform="translate(84.686 63.787)" opacity="0.25" style="mix-blend-mode: multiply;isolation: isolate">
          <g id="Grupo_81011" data-name="Grupo 81011">
            <g id="Grupo_81010" data-name="Grupo 81010" clip-path="url(#clip-path-31)">
              <g id="Grupo_81009" data-name="Grupo 81009" transform="translate(0)">
                <g id="Grupo_81008" data-name="Grupo 81008" clip-path="url(#clip-path-32)">
                  <rect id="Rectángulo_34204" data-name="Rectángulo 34204" width="58.738" height="51.783" transform="translate(-5.743 0.183) rotate(-3.524)" fill="url(#linear-gradient-11)"/>
                </g>
              </g>
            </g>
          </g>
        </g>
      </g>
    </g>
    <g id="Grupo_81016" data-name="Grupo 81016" transform="translate(0 16.646)">
      <g id="Grupo_81015" data-name="Grupo 81015" clip-path="url(#clip-path-33)">
        <rect id="Rectángulo_34207" data-name="Rectángulo 34207" width="101.922" height="94.972" transform="translate(-6.259 98.494) rotate(-88.063)" fill="url(#linear-gradient-12)"/>
      </g>
    </g>
    <g id="Grupo_81018" data-name="Grupo 81018" transform="translate(0 0)">
      <g id="Grupo_81017" data-name="Grupo 81017" clip-path="url(#clip-path-2)">
        <path id="Trazado_114076" data-name="Trazado 114076" d="M5.227,112.133q.406,1.119.869,2.2c7.33,17.11,28.322,28.594,44.95,30.86,20.564,2.8,26.786-6.985,27.322-18.844.354-7.818-2.269-12.96-1.641-16.019,2.546-12.412,13.692-8.646,14.448-22.641.422-7.8-6.945-13.262-6.117-23.1.173-.346.333-.684.488-1.017-4.749,1.307-11.072.265-18.067-3.164-1.7,4.151-1.581,8.72-1.973,13.23-4.524-2.608-5.856.727-6.177,5.575-.466,7.031-.71,8.666-3.036,9.8-14.54,7.083-15.764,8.464-27.424,22.138-8.375,9.821-13.272,7.649-23.642.977" transform="translate(-2.833 -32.745)" fill="#25063f" fill-rule="evenodd"/>
      </g>
    </g>
    <g id="Grupo_81020" data-name="Grupo 81020" transform="translate(40.225 62.077)">
      <g id="Grupo_81019" data-name="Grupo 81019" clip-path="url(#clip-path-35)">
        <rect id="Rectángulo_34209" data-name="Rectángulo 34209" width="70.698" height="92.141" transform="translate(-3.801 0.162) rotate(-2.44)" fill="#79dfef"/>
      </g>
    </g>
    <g id="Grupo_81022" data-name="Grupo 81022" transform="translate(64.354 52.157)">
      <g id="Grupo_81021" data-name="Grupo 81021" clip-path="url(#clip-path-36)">
        <rect id="Rectángulo_34210" data-name="Rectángulo 34210" width="16.478" height="21.731" transform="translate(-4.206 0.956) rotate(-12.812)" fill="url(#linear-gradient-13)"/>
      </g>
    </g>
    <g id="Grupo_81024" data-name="Grupo 81024" transform="translate(58.519 31.473)">
      <g id="Grupo_81023" data-name="Grupo 81023" clip-path="url(#clip-path-37)">
        <rect id="Rectángulo_34211" data-name="Rectángulo 34211" width="28.57" height="29.019" transform="translate(-1.505 0.021) rotate(-1.566)" fill="url(#linear-gradient-14)"/>
      </g>
    </g>
    <g id="Grupo_81026" data-name="Grupo 81026" transform="translate(0 0)">
      <g id="Grupo_81025" data-name="Grupo 81025" clip-path="url(#clip-path-2)">
        <path id="Trazado_114080" data-name="Trazado 114080" d="M153.409,70.809c.092,1.266.2,2.5.3,3.695-5.513,2.025-11.325.848-17.329-3.7-1.3,3.7-.6,6.637-1.391,9.278-.643,2.155-1.573,3.112-2.866,2.649-1.827-.655-1.562-1.894-3.84-2.513a3.3,3.3,0,0,1,.376-.727c.6-.867,2.028-.236,2.98,1.407,1.192,2.053,1.888.054,1.916-1.416.077-4.045,1.175-6.563,1.983-10.763,5.369,2.73,12.486,6.25,17.872,2.088" transform="translate(-69.53 -37.248)" fill="#ff9080" fill-rule="evenodd"/>
        <path id="Trazado_114081" data-name="Trazado 114081" d="M156.407,54.533c-6.163,1.01-15.809-2.9-16.03-8.909-.2-5.524,6.107-9.232,11.5-10.211,14.787-2.685,18.038,16.906,4.53,19.12" transform="translate(-76.083 -19.058)" fill="#5a2d68" fill-rule="evenodd"/>
        <path id="Trazado_114082" data-name="Trazado 114082" d="M156.686,67.1c-5.668.929-14.28-2.3-15.8-7.5.039-.1.079-.2.12-.305,10.738,5.264,19.894,4.9,24.2-.946-.264,4.017-2.983,7.845-8.521,8.753" transform="translate(-76.362 -31.626)" fill="#25063f" fill-rule="evenodd"/>
      </g>
    </g>
    <g id="Grupo_81028" data-name="Grupo 81028" transform="translate(47.095 150.404)">
      <g id="Grupo_81027" data-name="Grupo 81027" clip-path="url(#clip-path-39)">
        <rect id="Rectángulo_34213" data-name="Rectángulo 34213" width="20.987" height="19.191" transform="translate(-0.525 0.015) rotate(-1.615)" fill="url(#linear-gradient-15)"/>
      </g>
    </g>
    <g id="Grupo_81030" data-name="Grupo 81030" transform="translate(0 0)">
      <g id="Grupo_81029" data-name="Grupo 81029" clip-path="url(#clip-path-2)">
        <path id="Trazado_114084" data-name="Trazado 114084" d="M103.608,333.09c.85,2.393,1.46,6.377,2.072,8.193,2.262-3.033,4-10.048,4.173-12.232-.439-.37-1.593-1.308-2.04-1.684Z" transform="translate(-56.157 -177.436)" fill="#ff9382" fill-rule="evenodd"/>
        <path id="Trazado_114085" data-name="Trazado 114085" d="M114.533,346.67c-2.159,3.569-5.676,7.928-8.615,9.982l-.451,5.407a34.452,34.452,0,0,0,12.082-13.7Z" transform="translate(-57.164 -187.899)" fill="#283188" fill-rule="evenodd"/>
      </g>
    </g>
    <g id="Grupo_81032" data-name="Grupo 81032" transform="translate(23.28 66.354)">
      <g id="Grupo_81031" data-name="Grupo 81031" clip-path="url(#clip-path-41)">
        <rect id="Rectángulo_34215" data-name="Rectángulo 34215" width="38.362" height="95.425" transform="matrix(1, -0.029, 0.029, 1, -2.771, 0.079)" fill="#79dfef"/>
      </g>
    </g>
    <g id="Grupo_81044" data-name="Grupo 81044" transform="translate(0 0)">
      <g id="Grupo_81043" data-name="Grupo 81043" clip-path="url(#clip-path-2)">
        <g id="Grupo_81037" data-name="Grupo 81037" transform="translate(38.394 120.339)" opacity="0.25" style="mix-blend-mode: multiply;isolation: isolate">
          <g id="Grupo_81036" data-name="Grupo 81036">
            <g id="Grupo_81035" data-name="Grupo 81035" clip-path="url(#clip-path-43)">
              <g id="Grupo_81034" data-name="Grupo 81034" transform="translate(0 0)">
                <g id="Grupo_81033" data-name="Grupo 81033" clip-path="url(#clip-path-44)">
                  <rect id="Rectángulo_34216" data-name="Rectángulo 34216" width="16.585" height="40.745" transform="translate(-2.73 0.015) rotate(-1.097)" fill="url(#linear-gradient-16)"/>
                </g>
              </g>
            </g>
          </g>
        </g>
        <g id="Grupo_81042" data-name="Grupo 81042" transform="translate(128.409 175.479)" opacity="0.5" style="mix-blend-mode: multiply;isolation: isolate">
          <g id="Grupo_81041" data-name="Grupo 81041">
            <g id="Grupo_81040" data-name="Grupo 81040" clip-path="url(#clip-path-45)">
              <g id="Grupo_81039" data-name="Grupo 81039">
                <g id="Grupo_81038" data-name="Grupo 81038" clip-path="url(#clip-path-46)">
                  <rect id="Rectángulo_34218" data-name="Rectángulo 34218" width="82.309" height="82.309" transform="translate(-22.897 52.564) rotate(-66.462)" fill="url(#linear-gradient-17)"/>
                </g>
              </g>
            </g>
          </g>
        </g>
      </g>
    </g>
    <g id="Grupo_81046" data-name="Grupo 81046" transform="translate(128.409 175.48)">
      <g id="Grupo_81045" data-name="Grupo 81045" clip-path="url(#clip-path-47)">
        <rect id="Rectángulo_34221" data-name="Rectángulo 34221" width="71.479" height="71.479" transform="translate(-14.137 3.627) rotate(-14.391)" fill="url(#linear-gradient-18)"/>
      </g>
    </g>
    <g id="Grupo_81053" data-name="Grupo 81053" transform="translate(0 0)">
      <g id="Grupo_81052" data-name="Grupo 81052" clip-path="url(#clip-path-2)">
        <g id="Grupo_81051" data-name="Grupo 81051" transform="translate(145.791 91.904)" opacity="0.5" style="mix-blend-mode: multiply;isolation: isolate">
          <g id="Grupo_81050" data-name="Grupo 81050">
            <g id="Grupo_81049" data-name="Grupo 81049" clip-path="url(#clip-path-49)">
              <g id="Grupo_81048" data-name="Grupo 81048" transform="translate(0 0)">
                <g id="Grupo_81047" data-name="Grupo 81047" clip-path="url(#clip-path-50)">
                  <rect id="Rectángulo_34222" data-name="Rectángulo 34222" width="76.215" height="76.215" transform="translate(-14.213 3.37) rotate(-13.338)" fill="url(#linear-gradient-19)"/>
                </g>
              </g>
            </g>
          </g>
        </g>
      </g>
    </g>
    <g id="Grupo_81055" data-name="Grupo 81055" transform="translate(149.65 91.904)">
      <g id="Grupo_81054" data-name="Grupo 81054" clip-path="url(#clip-path-51)">
        <rect id="Rectángulo_34225" data-name="Rectángulo 34225" width="78.255" height="78.255" transform="translate(-21.769 9.483) rotate(-23.538)" fill="url(#linear-gradient-20)"/>
      </g>
    </g>
  </g>
</svg>
