<svg xmlns="http://www.w3.org/2000/svg" width="124.82" height="124.82" viewBox="0 0 124.82 124.82">
  <g id="computer" transform="translate(-2 -2)">
    <path id="Trazado_114177" data-name="Trazado 114177" d="M123.66,19.161V77.41H3V19.161A4.173,4.173,0,0,1,7.161,15H119.5A4.173,4.173,0,0,1,123.66,19.161Z" transform="translate(1.08 14.044)" fill="#79dfef"/>
    <path id="Trazado_114179" data-name="Trazado 114179" d="M53,27h8.321V56.125H53Z" transform="translate(55.097 27.008)" fill="#54d89f"/>
    <path id="Trazado_114180" data-name="Trazado 114180" d="M45,29h8.321V53.964H45Z" transform="translate(46.455 29.169)" fill="#ffde55"/>
    <path id="Trazado_114181" data-name="Trazado 114181" d="M69.928,65.321H20L26.241,57H63.687Z" transform="translate(19.446 59.419)" fill="#e5fff4"/>
    <path id="Trazado_114182" data-name="Trazado 114182" d="M37,33h8.321V49.643H37Z" transform="translate(37.812 33.491)" fill="#00ddc2"/>
    <path id="Trazado_114183" data-name="Trazado 114183" d="M46.978,10.489a18.648,18.648,0,0,1,3.745,11.234A17.188,17.188,0,0,1,50.6,23.8H32V3a18.706,18.706,0,0,1,14.978,7.489Z" transform="translate(32.41 1.08)" fill="#13b770"/>
    <path id="Trazado_114184" data-name="Trazado 114184" d="M28.867,35.328A18.719,18.719,0,0,1,41.723,3V23.8h18.6a17.54,17.54,0,0,1-.957,4.161,18.708,18.708,0,0,1-30.5,7.364Z" transform="translate(22.687 1.08)" fill="#eecf52"/>
    <path id="Trazado_114186" data-name="Trazado 114186" d="M54.125,63.482H25L27.08,51H52.044Z" transform="translate(24.848 52.937)" fill="#e5fff4"/>
    <path id="Trazado_114187" data-name="Trazado 114187" d="M123.66,45v8.321a4.173,4.173,0,0,1-4.161,4.161H7.161A4.173,4.173,0,0,1,3,53.321V45Z" transform="translate(1.08 46.455)" fill="#e5fff4"/>
    <path id="Trazado_114189" data-name="Trazado 114189" d="M17.4,29.4H27.8A10.4,10.4,0,1,1,17.4,19Z" transform="translate(5.402 18.366)" fill="#eecf52"/>
    <path id="Trazado_114190" data-name="Trazado 114190" d="M37,33h8.321V49.643H37Z" transform="translate(37.812 33.491)" fill="#00d7df"/>
    <path id="Trazado_114192" data-name="Trazado 114192" d="M45,29h8.321v4.161H45Z" transform="translate(46.455 29.169)" fill="#ebbf00"/>
    <path id="Trazado_114193" data-name="Trazado 114193" d="M37,33h8.321v4.161H37Z" transform="translate(37.812 33.491)" fill="#009698"/>
    <path id="Trazado_114194" data-name="Trazado 114194" d="M120.579,26.964H84.8a21.219,21.219,0,0,0,.416-4.161A20.729,20.729,0,0,0,82.2,12.069l7.864-5.908h15.956V2H89.374a2.047,2.047,0,0,0-1.248.416L79.7,8.74a20.714,20.714,0,0,0-30.581,0L40.694,2.416A2.047,2.047,0,0,0,39.446,2H22.8V6.161H38.76l7.864,5.908A20.728,20.728,0,0,0,43.607,22.8a21.218,21.218,0,0,0,.416,4.161H8.241A6.26,6.26,0,0,0,2,33.205V99.776a6.26,6.26,0,0,0,6.241,6.241H49.848v8.321H43.607a2.109,2.109,0,0,0-1.664.832L35.7,123.492a2.08,2.08,0,0,0,1.664,3.329H91.455a2.08,2.08,0,0,0,1.664-3.329l-6.241-8.321a2.11,2.11,0,0,0-1.664-.832H78.973v-8.321h41.607a6.26,6.26,0,0,0,6.241-6.241V33.205A6.26,6.26,0,0,0,120.579,26.964ZM66.49,6.306a16.6,16.6,0,0,1,9.861,4.93L71.483,14.9l2.5,3.329,4.868-3.661A16.528,16.528,0,0,1,81.053,22.8H66.49ZM49.973,14.565l4.868,3.661,2.5-3.329-4.868-3.661a16.6,16.6,0,0,1,9.861-4.93V24.884a2.08,2.08,0,0,0,2.08,2.08h16.1a16.632,16.632,0,1,1-30.539-12.4ZM84.173,118.5l3.12,4.161H41.526l3.121-4.161Zm-30.165-4.161v-8.321h20.8v8.321ZM122.66,99.776a2.08,2.08,0,0,1-2.08,2.08H8.241a2.08,2.08,0,0,1-2.08-2.08V93.535h116.5Zm0-10.4H6.161V33.205a2.08,2.08,0,0,1,2.08-2.08H45.354a20.787,20.787,0,0,0,38.112,0h37.113a2.08,2.08,0,0,1,2.08,2.08Z" transform="translate(0 0)"/>
    <path id="Trazado_114195" data-name="Trazado 114195" d="M54,2h8.321V6.161H54Z" transform="translate(56.178 0)"/>
    <path id="Trazado_114196" data-name="Trazado 114196" d="M44,6h4.161v4.161H44Z" transform="translate(45.374 4.321)"/>
    <path id="Trazado_114197" data-name="Trazado 114197" d="M48,6H68.8v4.161H48Z" transform="translate(49.696 4.321)"/>
    <path id="Trazado_114198" data-name="Trazado 114198" d="M44,10H60.643v4.161H44Z" transform="translate(45.374 8.643)"/>
    <path id="Trazado_114199" data-name="Trazado 114199" d="M54,10h8.321v4.161H54Z" transform="translate(56.178 8.643)"/>
    <path id="Trazado_114200" data-name="Trazado 114200" d="M6,2h8.321V6.161H6Z" transform="translate(4.321 0)"/>
    <path id="Trazado_114201" data-name="Trazado 114201" d="M18,6h4.161v4.161H18Z" transform="translate(17.285 4.321)"/>
    <path id="Trazado_114202" data-name="Trazado 114202" d="M6,6H26.8v4.161H6Z" transform="translate(4.321 4.321)"/>
    <path id="Trazado_114203" data-name="Trazado 114203" d="M12,10H28.643v4.161H12Z" transform="translate(10.803 8.643)"/>
    <path id="Trazado_114204" data-name="Trazado 114204" d="M6,10h8.321v4.161H6Z" transform="translate(4.321 8.643)"/>
    <path id="Trazado_114205" data-name="Trazado 114205" d="M6,32H16.4v4.161H6Z" transform="translate(4.321 32.41)"/>
    <path id="Trazado_114206" data-name="Trazado 114206" d="M13,32H52.526v4.161H13Z" transform="translate(11.884 32.41)"/>
    <path id="Trazado_114207" data-name="Trazado 114207" d="M6,36H39.285v4.161H6Z" transform="translate(4.321 36.732)"/>
    <path id="Trazado_114208" data-name="Trazado 114208" d="M24,36H40.643v4.161H24Z" transform="translate(23.767 36.732)"/>
    <path id="Trazado_114209" data-name="Trazado 114209" d="M6,40H26.8v4.161H6Z" transform="translate(4.321 41.053)"/>
    <path id="Trazado_114210" data-name="Trazado 114210" d="M18,40H47.125v4.161H18Z" transform="translate(17.285 41.053)"/>
    <path id="Trazado_114211" data-name="Trazado 114211" d="M38.08,52.8H46.4a2.08,2.08,0,0,0,2.08-2.08V34.08A2.08,2.08,0,0,0,46.4,32H38.08A2.08,2.08,0,0,0,36,34.08V50.723A2.08,2.08,0,0,0,38.08,52.8Zm2.08-16.643h4.161V48.643H40.161Z" transform="translate(36.732 32.41)"/>
    <path id="Trazado_114212" data-name="Trazado 114212" d="M54.4,28H46.08A2.08,2.08,0,0,0,44,30.08V55.044a2.08,2.08,0,0,0,2.08,2.08H54.4a2.08,2.08,0,0,0,2.08-2.08V30.08A2.08,2.08,0,0,0,54.4,28Zm-2.08,24.964H48.161v-20.8h4.161Z" transform="translate(45.374 28.089)"/>
    <path id="Trazado_114213" data-name="Trazado 114213" d="M62.4,26H54.08A2.08,2.08,0,0,0,52,28.08V57.205a2.08,2.08,0,0,0,2.08,2.08H62.4a2.08,2.08,0,0,0,2.08-2.08V28.08A2.08,2.08,0,0,0,62.4,26Zm-2.08,29.125H56.161V30.161h4.161Z" transform="translate(54.017 25.928)"/>
    <path id="Trazado_114214" data-name="Trazado 114214" d="M18.482,42.964A12.5,12.5,0,0,0,30.964,30.482a2.08,2.08,0,0,0-2.08-2.08H20.562V20.08A2.08,2.08,0,0,0,18.482,18a12.482,12.482,0,0,0,0,24.964ZM16.4,22.423v8.059a2.08,2.08,0,0,0,2.08,2.08h8.057A8.321,8.321,0,1,1,16.4,22.423Z" transform="translate(4.321 17.285)"/>
    <path id="Trazado_114215" data-name="Trazado 114215" d="M20,24h4.161v4.161H20Z" transform="translate(19.446 23.767)"/>
    <path id="Trazado_114216" data-name="Trazado 114216" d="M24,24H40.643v4.161H24Z" transform="translate(23.767 23.767)"/>
    <path id="Trazado_114217" data-name="Trazado 114217" d="M20,28H44.964v4.161H20Z" transform="translate(19.446 28.089)"/>
    <path id="Trazado_114218" data-name="Trazado 114218" d="M48.274,41.814l3.574-7.171h11.2a2.08,2.08,0,0,0,1.6-.749l9.778-11.733h7.346V18H73.446a2.08,2.08,0,0,0-1.6.749L62.069,30.482H50.562a2.08,2.08,0,0,0-1.872,1.15L45.116,38.8H36v4.161H46.4a2.08,2.08,0,0,0,1.872-1.15Z" transform="translate(36.732 17.285)"/>
  </g>
</svg>
