<svg xmlns="http://www.w3.org/2000/svg" width="47" height="47" viewBox="0 0 47 47">
  <g id="Grupo_85447" data-name="Grupo 85447" transform="translate(-613 -4574)">
    <circle id="Elipse_4776" data-name="Elipse 4776" cx="23.5" cy="23.5" r="23.5" transform="translate(613 4574)" fill="#eecf52"/>
    <path id="Trazado_119102" data-name="Trazado 119102" d="M5.473,0H-5.248V-2.127L-.188-7.52A12.482,12.482,0,0,0,1.354-9.507a3.193,3.193,0,0,0,.5-1.611,2.389,2.389,0,0,0-.526-1.638,1.9,1.9,0,0,0-1.5-.6,2.049,2.049,0,0,0-1.66.725,2.872,2.872,0,0,0-.607,1.907H-5.559a5.128,5.128,0,0,1,.682-2.61,4.808,4.808,0,0,1,1.928-1.853,5.861,5.861,0,0,1,2.825-.671A5.549,5.549,0,0,1,3.631-14.7a4.1,4.1,0,0,1,1.337,3.276,5.259,5.259,0,0,1-.6,2.363A13.133,13.133,0,0,1,2.3-6.252L-1.251-2.5H5.473Z" transform="translate(637 4605)" fill="#12263f"/>
  </g>
</svg>
