<svg xmlns="http://www.w3.org/2000/svg" width="47" height="47" viewBox="0 0 47 47">
  <g id="Grupo_85447" data-name="Grupo 85447" transform="translate(-927 -4574)">
    <circle id="Elipse_4777" data-name="Elipse 4777" cx="23.5" cy="23.5" r="23.5" transform="translate(927 4574)" fill="#eecf52"/>
    <path id="Trazado_119103" data-name="Trazado 119103" d="M-2.089-9.2H-.435a2.331,2.331,0,0,0,1.751-.591,2.165,2.165,0,0,0,.569-1.568,1.914,1.914,0,0,0-.564-1.472,2.186,2.186,0,0,0-1.552-.526,2.291,2.291,0,0,0-1.493.489,1.563,1.563,0,0,0-.6,1.273h-3.1a3.818,3.818,0,0,1,.661-2.2,4.4,4.4,0,0,1,1.848-1.52,6.166,6.166,0,0,1,2.616-.548,5.848,5.848,0,0,1,3.889,1.187A4.05,4.05,0,0,1,4.99-11.4a3.291,3.291,0,0,1-.655,1.977A4.257,4.257,0,0,1,2.616-8.035,3.886,3.886,0,0,1,4.587-6.617a3.846,3.846,0,0,1,.65,2.234,4.117,4.117,0,0,1-1.52,3.341A6.112,6.112,0,0,1-.306.215a5.8,5.8,0,0,1-3.83-1.235A4.034,4.034,0,0,1-5.624-4.286h3.1a1.8,1.8,0,0,0,.661,1.439,2.434,2.434,0,0,0,1.627.559A2.446,2.446,0,0,0,1.5-2.874a2.021,2.021,0,0,0,.628-1.552q0-2.342-2.578-2.342H-2.089Z" transform="translate(951 4605)" fill="#12263f"/>
  </g>
</svg>
