<svg xmlns="http://www.w3.org/2000/svg" width="396" height="271.767" viewBox="0 0 396 271.767">
  <g id="Grupo_85452" data-name="Grupo 85452" transform="translate(-1020 -3347.217)">
    <rect id="Rectángulo_4912" data-name="Rectángulo 4912" width="396" height="271.767" rx="21" transform="translate(1020 3347.217)" fill="#79dfef"/>
    <path id="Trazado_119105" data-name="Trazado 119105" d="M-26.028-6.639h-5.93V-2.9h7V0H-35.729V-15.641h10.8v2.911h-7.025v3.3h5.93Zm6.66-7.874v2.89h1.912v2.514h-1.912v5.317a1.358,1.358,0,0,0,.236.913,1.268,1.268,0,0,0,.935.258,5.311,5.311,0,0,0,.9-.064V-.1a6.681,6.681,0,0,1-2.041.312A3.792,3.792,0,0,1-22.1-.666a3.61,3.61,0,0,1-.892-2.675V-9.109h-1.482v-2.514h1.482v-2.89ZM-9.485,0a4.088,4.088,0,0,1-.344-1.042A3.366,3.366,0,0,1-12.622.215a4.124,4.124,0,0,1-2.793-.994,3.163,3.163,0,0,1-1.149-2.5,3.251,3.251,0,0,1,1.4-2.857A7.114,7.114,0,0,1-11.107-7.1H-9.99v-.615q0-1.608-1.386-1.608A1.133,1.133,0,0,0-12.665-8.05h-3.62a3.245,3.245,0,0,1,1.434-2.736,6.027,6.027,0,0,1,3.658-1.051,5.284,5.284,0,0,1,3.513,1.085A3.772,3.772,0,0,1-6.359-7.777v5.146A5.269,5.269,0,0,0-5.865-.183V0Zm-2.267-2.363a2.019,2.019,0,0,0,1.123-.29,1.818,1.818,0,0,0,.639-.655V-5.167h-1.053q-1.891,0-1.891,1.7a1.036,1.036,0,0,0,.333.8A1.205,1.205,0,0,0-11.752-2.363ZM6.435-5.726A7.009,7.009,0,0,1,5.215-1.4,3.909,3.909,0,0,1,1.923.215,3.351,3.351,0,0,1-.709-.956V4.469h-3.62V-11.623H-.945l.107,1.074A3.351,3.351,0,0,1,1.9-11.838a3.941,3.941,0,0,1,3.341,1.584A7.1,7.1,0,0,1,6.435-5.9Zm-3.62-.226q0-3.094-1.8-3.094a1.7,1.7,0,0,0-1.719.924v4.576a1.759,1.759,0,0,0,1.74.967q1.729,0,1.783-2.986ZM14.577,0a4.088,4.088,0,0,1-.344-1.042A3.366,3.366,0,0,1,11.44.215,4.124,4.124,0,0,1,8.647-.779,3.163,3.163,0,0,1,7.5-3.276a3.251,3.251,0,0,1,1.4-2.857A7.114,7.114,0,0,1,12.955-7.1h1.117v-.615q0-1.608-1.386-1.608A1.133,1.133,0,0,0,11.4-8.05H7.777a3.245,3.245,0,0,1,1.434-2.736,6.027,6.027,0,0,1,3.658-1.051,5.284,5.284,0,0,1,3.513,1.085A3.772,3.772,0,0,1,17.7-7.777v5.146A5.269,5.269,0,0,0,18.2-.183V0ZM12.311-2.363a2.019,2.019,0,0,0,1.123-.29,1.818,1.818,0,0,0,.639-.655V-5.167H13.02q-1.891,0-1.891,1.7a1.036,1.036,0,0,0,.333.8A1.205,1.205,0,0,0,12.311-2.363ZM28.435-9.335h1.708a1.776,1.776,0,0,0,2.03-1.987,1.718,1.718,0,0,0-.483-1.262,1.833,1.833,0,0,0-1.364-.489,1.962,1.962,0,0,0-1.251.419,1.278,1.278,0,0,0-.532,1.042h-3.62a3.706,3.706,0,0,1,.688-2.2,4.54,4.54,0,0,1,1.907-1.509,6.519,6.519,0,0,1,2.68-.542,6.405,6.405,0,0,1,4.1,1.192A3.964,3.964,0,0,1,35.793-11.4a3.3,3.3,0,0,1-.618,1.907,4.4,4.4,0,0,1-1.8,1.456,4.205,4.205,0,0,1,1.955,1.37,3.607,3.607,0,0,1,.709,2.272,4.036,4.036,0,0,1-1.611,3.352A6.688,6.688,0,0,1,30.2.215a6.936,6.936,0,0,1-2.852-.585,4.468,4.468,0,0,1-1.993-1.622,4.217,4.217,0,0,1-.677-2.358h3.642A1.63,1.63,0,0,0,28.9-3.1a2.048,2.048,0,0,0,1.429.526,2.145,2.145,0,0,0,1.525-.532,1.777,1.777,0,0,0,.569-1.359,2.078,2.078,0,0,0-.591-1.676A2.47,2.47,0,0,0,30.2-6.639H28.435Z" transform="translate(1218 3435.165)" fill="#1a1a52"/>
    <g id="XMLID_806_" transform="translate(1152 3451.32)">
      <g id="XMLID_1434_" transform="translate(30.651 12.86)">
        <rect id="XMLID_1457_" width="17.771" height="10.254" transform="translate(40.948 12.468)" fill="#d5f5fb"/>
        <path id="XMLID_1456_" d="M256.082,32.73h18.7a6.234,6.234,0,0,0,6.234-6.234h0a6.234,6.234,0,0,0-6.234-6.234h-18.7a6.234,6.234,0,0,0-6.234,6.234h0A6.234,6.234,0,0,0,256.082,32.73Z" transform="translate(-215.6 -20.262)" fill="#13b770"/>
        <circle id="XMLID_1452_" cx="49.5" cy="49.5" r="49.5" transform="translate(0.341 23.064)" fill="#79dfef"/>
        <circle id="XMLID_2618_" cx="37.698" cy="37.698" r="37.698" transform="translate(12.175 34.897)" fill="#fff"/>
        <circle id="XMLID_2592_" cx="5.474" cy="5.474" r="5.474" transform="translate(44.399 67.121)" fill="#13b770"/>
      </g>
      <g id="XMLID_386_" transform="translate(0 10.262)">
        <path id="XMLID_389_" d="M132.736,80.236A52.428,52.428,0,0,0,91.967,34.264v-6.6a8.831,8.831,0,0,0-2.132-17.4h-18.7A8.831,8.831,0,0,0,69,27.664v6.618a52.157,52.157,0,0,0-25.58,14.071,52.721,52.721,0,0,0-4.41,5.005c-.065,0-.13-.01-.2-.01H20.3a2.6,2.6,0,1,0,0,5.2H35.477a52.072,52.072,0,0,0-4.609,9.984H2.6a2.6,2.6,0,1,0,0,5.2H29.4a52.814,52.814,0,0,0-1.289,9.984H16.624a2.6,2.6,0,1,0,0,5.2H28.194a52.737,52.737,0,0,0,1.622,9.984H12.988a2.6,2.6,0,0,0,0,5.2H31.473a52.463,52.463,0,0,0,43.864,33.59q2.574.254,5.148.253a52.6,52.6,0,0,0,28.635-8.463,2.6,2.6,0,0,0-2.835-4.353,47.275,47.275,0,1,1,13.924-13.942,2.6,2.6,0,1,0,4.357,2.829A52.638,52.638,0,0,0,132.736,80.236ZM67.5,19.094a3.641,3.641,0,0,1,3.637-3.637h18.7a3.637,3.637,0,0,1,0,7.273h-18.7A3.641,3.641,0,0,1,67.5,19.094Zm6.7,14.3V27.926H86.772V33.38A52.926,52.926,0,0,0,74.2,33.389Z" transform="translate(0 -10.262)"/>
        <path id="XMLID_391_" d="M438.368,425.5a2.6,2.6,0,1,0,1.836.761A2.612,2.612,0,0,0,438.368,425.5Z" transform="translate(-322.577 -317.64)"/>
        <path id="XMLID_394_" d="M195.167,144.609a40.3,40.3,0,1,0,40.3,40.3A40.341,40.341,0,0,0,195.167,144.609Zm0,75.4a35.1,35.1,0,1,1,35.1-35.1A35.14,35.14,0,0,1,195.167,220Z" transform="translate(-114.643 -109.712)"/>
        <path id="XMLID_397_" d="M287.225,220.172l-12.866,12.865a8.051,8.051,0,0,0-7.131,0l-5.758-5.758a2.6,2.6,0,1,0-3.674,3.673l5.758,5.758a8.072,8.072,0,1,0,14.478,0l12.488-12.488h0l.377-.377a2.6,2.6,0,1,0-3.673-3.673Zm-16.431,22.981a2.877,2.877,0,1,1,2.877-2.877A2.88,2.88,0,0,1,270.794,243.153Z" transform="translate(-190.27 -165.084)"/>
        <path id="XMLID_398_" d="M402.659,289.86h-2.407a2.6,2.6,0,0,0,0,5.2h2.407a2.6,2.6,0,0,0,0-5.2Z" transform="translate(-294.362 -217.233)"/>
        <path id="XMLID_399_" d="M198.086,289.616H195.68a2.6,2.6,0,1,0,0,5.2h2.406a2.6,2.6,0,1,0,0-5.2Z" transform="translate(-142.928 -217.053)"/>
        <path id="XMLID_400_" d="M302.721,190.42a2.6,2.6,0,0,0,2.6-2.6v-2.406a2.6,2.6,0,0,0-5.2,0v2.406A2.6,2.6,0,0,0,302.721,190.42Z" transform="translate(-222.165 -137.997)"/>
        <path id="XMLID_424_" d="M302.477,387.393a2.6,2.6,0,0,0-2.6,2.6V392.4a2.6,2.6,0,0,0,5.2,0v-2.406A2.6,2.6,0,0,0,302.477,387.393Z" transform="translate(-221.984 -289.432)"/>
        <path id="XMLID_425_" d="M2.6,351.44a2.6,2.6,0,1,0,1.836,4.434A2.6,2.6,0,0,0,2.6,351.44Z" transform="translate(0 -262.818)"/>
      </g>
    </g>
  </g>
</svg>
