<svg id="maquina-de-escribir" xmlns="http://www.w3.org/2000/svg" width="64.24" height="64.24" viewBox="0 0 64.24 64.24">
  <path id="Trazado_114281" data-name="Trazado 114281" d="M186.248,60.25H167.372a1.882,1.882,0,1,0,0,3.764h18.876a1.882,1.882,0,0,0,0-3.764Z" transform="translate(-144.726 -52.69)" fill="#13b770"/>
  <path id="Trazado_114282" data-name="Trazado 114282" d="M186.248,120.5H167.372a1.882,1.882,0,1,0,0,3.764h18.876a1.882,1.882,0,0,0,0-3.764Z" transform="translate(-144.726 -105.381)" fill="#13b770"/>
  <path id="Trazado_114283" data-name="Trazado 114283" d="M197.507,421.75h-15.1a1.882,1.882,0,1,0,0,3.764h15.1a1.882,1.882,0,0,0,0-3.764Z" transform="translate(-157.872 -368.833)" fill="#13b770"/>
  <path id="Trazado_114284" data-name="Trazado 114284" d="M122.227,421.75a1.882,1.882,0,1,0,1.882,1.882A1.9,1.9,0,0,0,122.227,421.75Z" transform="translate(-105.244 -368.833)" fill="#13b770"/>
  <path id="Trazado_114285" data-name="Trazado 114285" d="M362.94,421.75a1.882,1.882,0,1,0,1.882,1.882A1.9,1.9,0,0,0,362.94,421.75Z" transform="translate(-315.755 -368.833)" fill="#13b770"/>
  <path id="Trazado_114286" data-name="Trazado 114286" d="M92.138,361.5a1.882,1.882,0,1,0,1.882,1.882A1.9,1.9,0,0,0,92.138,361.5Z" transform="translate(-78.93 -316.143)" fill="#13b770"/>
  <path id="Trazado_114287" data-name="Trazado 114287" d="M150.26,361.5a1.882,1.882,0,1,0,1.882,1.882A1.9,1.9,0,0,0,150.26,361.5Z" transform="translate(-129.76 -316.143)" fill="#13b770"/>
  <path id="Trazado_114288" data-name="Trazado 114288" d="M206.5,363.382a1.882,1.882,0,1,0,1.882-1.882A1.915,1.915,0,0,0,206.5,363.382Z" transform="translate(-180.589 -316.143)" fill="#13b770"/>
  <path id="Trazado_114289" data-name="Trazado 114289" d="M264.622,363.382A1.882,1.882,0,1,0,266.5,361.5,1.915,1.915,0,0,0,264.622,363.382Z" transform="translate(-231.419 -316.143)" fill="#13b770"/>
  <path id="Trazado_114290" data-name="Trazado 114290" d="M324.626,361.5a1.882,1.882,0,1,0,1.882,1.882A1.9,1.9,0,0,0,324.626,361.5Z" transform="translate(-282.248 -316.143)" fill="#13b770"/>
  <path id="Trazado_114291" data-name="Trazado 114291" d="M126.34,305.014a1.882,1.882,0,1,0-1.882-1.882A1.9,1.9,0,0,0,126.34,305.014Z" transform="translate(-108.841 -263.452)" fill="#13b770"/>
  <path id="Trazado_114292" data-name="Trazado 114292" d="M184.462,305.014a1.882,1.882,0,1,0-1.882-1.882A1.9,1.9,0,0,0,184.462,305.014Z" transform="translate(-159.67 -263.452)" fill="#13b770"/>
  <path id="Trazado_114293" data-name="Trazado 114293" d="M242.584,305.014a1.882,1.882,0,1,0-1.882-1.882A1.9,1.9,0,0,0,242.584,305.014Z" transform="translate(-210.5 -263.452)" fill="#13b770"/>
  <path id="Trazado_114294" data-name="Trazado 114294" d="M300.705,305.014a1.882,1.882,0,1,0-1.882-1.882A1.9,1.9,0,0,0,300.705,305.014Z" transform="translate(-261.328 -263.452)" fill="#13b770"/>
  <path id="Trazado_114295" data-name="Trazado 114295" d="M358.827,305.014a1.882,1.882,0,1,0-1.882-1.882A1.9,1.9,0,0,0,358.827,305.014Z" transform="translate(-312.158 -263.452)" fill="#13b770"/>
  <path id="Trazado_114296" data-name="Trazado 114296" d="M382.748,361.5a1.882,1.882,0,1,0,1.882,1.882A1.9,1.9,0,0,0,382.748,361.5Z" transform="translate(-333.078 -316.143)" fill="#13b770"/>
  <path id="Trazado_114297" data-name="Trazado 114297" d="M62.358,22.679a1.882,1.882,0,0,0-1.882,1.882v1.9H56.649v-1.9a1.882,1.882,0,0,0-1.882-1.882H52.842V1.882A1.882,1.882,0,0,0,50.96,0H13.208a1.882,1.882,0,0,0-1.882,1.882v20.8H9.577a1.882,1.882,0,0,0-1.882,1.882v1.9H3.764v-1.9a1.882,1.882,0,0,0-3.764,0v7.56a1.882,1.882,0,0,0,3.764,0v-1.9H7.695v1.763L4.416,54.721a8.327,8.327,0,0,0,8.237,9.52H51.247A8.327,8.327,0,0,0,59.5,54.878L56.649,32v-1.78h3.827v1.9a1.882,1.882,0,1,0,3.764,0v-7.56a1.882,1.882,0,0,0-1.882-1.882Zm-9.473,7.56H11.459v-3.8H52.885ZM15.09,3.764H49.078V22.679H15.09ZM54.661,58.935a4.557,4.557,0,0,1-3.414,1.541H12.653a4.563,4.563,0,0,1-4.511-5.218L11.207,34h41.9L55.77,55.344A4.572,4.572,0,0,1,54.661,58.935Z" fill="#13b770"/>
</svg>
