<svg xmlns="http://www.w3.org/2000/svg" width="105" height="105" viewBox="0 0 105 105">
  <g id="Grupo_85449" data-name="Grupo 85449" transform="translate(-374 -4206)">
    <circle id="Elipse_4741" data-name="Elipse 4741" cx="52.5" cy="52.5" r="52.5" transform="translate(374 4206)" fill="#fff"/>
    <path id="Trazado_119104" data-name="Trazado 119104" d="M8.5,0H-8.367V-3.652L-.6-11.82q2.872-3.271,2.872-5.2a3.614,3.614,0,0,0-.681-2.374A2.43,2.43,0,0,0-.382-20.2a2.461,2.461,0,0,0-2.075,1.087,4.469,4.469,0,0,0-.8,2.714H-8.865a7.938,7.938,0,0,1,1.112-4.109,7.8,7.8,0,0,1,3.088-2.947A9.173,9.173,0,0,1-.249-24.521a9.023,9.023,0,0,1,6.035,1.81,6.46,6.46,0,0,1,2.117,5.2,7.546,7.546,0,0,1-.531,2.781A12.2,12.2,0,0,1,5.719-11.9,41.61,41.61,0,0,1,2.108-7.919l-3.121,3.6H8.5Z" transform="translate(427 4271)" fill="#1a1a52"/>
  </g>
</svg>
