<svg xmlns="http://www.w3.org/2000/svg" width="190" height="170" viewBox="0 0 190 170">
  <g id="Grupo_85377" data-name="Grupo 85377" transform="translate(-285 -4080)">
    <rect id="Rectángulo_36392" data-name="Rectángulo 36392" width="190" height="170" transform="translate(285 4080)" fill="#fff"/>
    <g id="layer1" transform="translate(319.98 3824.917)">
      <path id="path6950" d="M40.2,280.6a1.984,1.984,0,0,0-1.984,1.984v29.76a1.984,1.984,0,0,0,1.984,1.984h29.76a1.984,1.984,0,0,0,1.984-1.984A31.71,31.71,0,0,0,70.122,301.7a1.984,1.984,0,1,0-3.739,1.329,28.274,28.274,0,0,1,1.519,7.324H42.187v-25.73a27.748,27.748,0,0,1,17.387,7.867H54.087a1.984,1.984,0,1,0,0,3.968H95.756v5.964a1.986,1.986,0,0,0,3.972,0v-7.94a1.984,1.984,0,0,0-2-1.992H64.961A31.688,31.688,0,0,0,40.2,280.6Zm-7.936,7.944a31.728,31.728,0,0,0-9.916,61.869v11.536a1.986,1.986,0,0,0,3.972,0V334.161a1.986,1.986,0,1,0-3.972,0v12.052a27.761,27.761,0,0,1,7.94-53.631v27.695a1.983,1.983,0,0,0,1.976,1.976H59.981a27.86,27.86,0,0,1-27.714,25.808,1.976,1.976,0,0,0,0,3.952A31.761,31.761,0,0,0,64,320.277a1.983,1.983,0,0,0-1.976-1.976H34.243V290.516a1.983,1.983,0,0,0-1.976-1.976Zm57.545,23.8a1.986,1.986,0,0,0,0,3.972h23.8a1.986,1.986,0,0,0,0-3.972Zm-7.94,11.908H101.7a1.984,1.984,0,1,0,0-3.968H81.769a1.985,1.985,0,0,0,.1,3.968Zm27.769,0h3.968a1.984,1.984,0,1,0,0-3.968h-4.063a1.985,1.985,0,0,0,.095,3.968Zm-27.769,7.94h31.737a1.984,1.984,0,1,0,0-3.968H81.769a1.985,1.985,0,0,0,.1,3.968Zm0,7.936h3.972a1.984,1.984,0,0,0,0-3.968H81.769a1.985,1.985,0,0,0,.1,3.968Zm11.893,0h19.844a1.984,1.984,0,0,0,0-3.968H93.669a1.985,1.985,0,0,0,.095,3.968Zm13.9,7.94A5.982,5.982,0,0,0,101.7,354a5.786,5.786,0,0,0,.3,1.767l-6.936,5.185a5.873,5.873,0,0,0-3.282-1,5.951,5.951,0,0,0-4.945,2.678l-5.03-1.259a5.936,5.936,0,0,0-11.846.573,5.816,5.816,0,0,0,.294,1.748l-6.932,5.2a5.865,5.865,0,0,0-3.278-1.007A5.954,5.954,0,1,0,66,373.853a5.829,5.829,0,0,0-.3-1.771l6.932-5.193a5.894,5.894,0,0,0,3.286,1,5.981,5.981,0,0,0,4.952-2.662l5.038,1.259a5.928,5.928,0,0,0,11.831-.574,5.836,5.836,0,0,0-.3-1.759l6.936-5.208a5.942,5.942,0,1,0,3.294-10.885Zm0,3.952A1.984,1.984,0,1,1,105.672,354,1.955,1.955,0,0,1,107.664,352.013Zm-31.752,7.94a1.984,1.984,0,1,1,0,3.968,1.984,1.984,0,0,1,0-3.968Zm15.876,3.968a1.984,1.984,0,1,1-1.976,1.992A1.955,1.955,0,0,1,91.788,363.921Zm-41.669,35.72H117.58a1.985,1.985,0,1,0,0-3.968h-3.972V369.881a1.985,1.985,0,0,0-1.976-1.992H103.7a1.984,1.984,0,0,0-1.992,1.992v25.792H97.732v-13.9a1.984,1.984,0,0,0-1.976-1.976H87.82a1.984,1.984,0,0,0-1.976,1.976v13.9H81.872V377.821a1.984,1.984,0,0,0-1.992-1.992H71.944a1.984,1.984,0,0,0-1.976,1.992v17.852H66v-9.932A1.984,1.984,0,0,0,64,383.765H56.083a1.984,1.984,0,0,0-2,1.976v9.932H50.024a1.985,1.985,0,0,0,.1,3.968Zm-35.7-27.784a1.986,1.986,0,0,0,0,3.972h23.8a1.986,1.986,0,0,0,0-3.972Zm45.637,0a1.986,1.986,0,1,1-1.992,2A1.958,1.958,0,0,1,60.051,371.857Zm45.621,0h3.968v23.816h-3.968Zm-99.2,11.908H26.323a1.985,1.985,0,0,0,0-3.968H6.372a1.985,1.985,0,0,0,.1,3.968Zm27.769,0h3.968a1.985,1.985,0,0,0,0-3.968H34.148a1.985,1.985,0,0,0,.095,3.968ZM73.935,379.8H77.9v15.876H73.935Zm15.876,3.968h3.953v11.908H89.812ZM6.475,391.7H38.211a1.985,1.985,0,1,0,0-3.968H6.372a1.985,1.985,0,0,0,.1,3.968Zm51.585-3.968h3.968v7.936H58.059Zm-51.585,11.9h3.968a1.985,1.985,0,1,0,0-3.968H6.372a1.985,1.985,0,0,0,.1,3.968Zm11.908,0H38.211a1.985,1.985,0,1,0,0-3.968H18.28a1.985,1.985,0,0,0,.1,3.968Z" fill="#13b770"/>
    </g>
  </g>
</svg>
