<svg xmlns="http://www.w3.org/2000/svg" width="210" height="210" viewBox="0 0 210 210">
  <g id="Grupo_82600" data-name="Grupo 82600" transform="translate(-2000.25 5537.5)">
    <g id="Grupo_82599" data-name="Grupo 82599" transform="translate(0 1182.673)">
      <rect id="Rectángulo_35034" data-name="Rectángulo 35034" width="210" height="210" rx="105" transform="translate(2000.25 -6720.173)" fill="#e5fff4"/>
    </g>
    <g id="layer1" transform="translate(2051.856 -5781.596)">
      <path id="path26812" d="M99.8,285.474a4.6,4.6,0,0,0-4.614-4.614H12.138a9.207,9.207,0,0,0-9.228,9.228V396.206a9.207,9.207,0,0,1,9.228-9.228H99.8Z" transform="translate(2.034 2.038)" fill="#eecf52"/>
      <path id="path26814" d="M99.8,306.873a4.6,4.6,0,0,1-4.614,4.614H12.138a9.228,9.228,0,0,1,0-18.455H99.8Z" transform="translate(2.034 95.985)" fill="#dbe9ee"/>
      <path id="path26816" d="M5.027,294.09v18.455l9.228-9.228,9.228,9.228V294.09Z" transform="translate(18.373 104.154)" fill="#13b770"/>
      <path id="path26820" d="M14.519,296.967c-9.228,0-9.228-9.228-9.228-9.228H23.747s0,9.228-9.228,9.228Z" transform="translate(20.415 55.139)" fill="#ffbc42"/>
      <path id="path26826" d="M18.753,296.967c9.228,0,9.228-9.228,9.228-9.228H9.525S9.525,296.967,18.753,296.967Z" transform="translate(53.092 55.139)" fill="#ffbc42"/>
      <path id="path3912-7" d="M14.177,280.6a11.549,11.549,0,0,0-11.53,11.526V398.254a11.549,11.549,0,0,0,11.53,11.525,2.308,2.308,0,1,0,0-4.614,6.923,6.923,0,1,1,0-13.846q42.677.007,85.347,0v11.548a2.238,2.238,0,0,1-2.3,2.3H51.078a2.308,2.308,0,1,0,0,4.614H97.226a6.945,6.945,0,0,0,6.916-6.912V287.508a6.945,6.945,0,0,0-6.916-6.912Zm0,4.614H97.226a2.238,2.238,0,0,1,2.3,2.3v99.2H14.177a11.4,11.4,0,0,0-6.934,2.388V292.122a6.859,6.859,0,0,1,6.934-6.912Zm39.208,23.015a2.3,2.3,0,0,0-2.275,2.334v4.722c-7.777.51-10.319,4.421-16.144,4.506a9.121,9.121,0,0,1-5.3-1.636,2.305,2.305,0,0,0-3.249,3.271,11.817,11.817,0,0,0,5.168,2.586l-7.962,17.919a2.3,2.3,0,0,0-.185.937,13.641,13.641,0,0,0,1.4,5.637c1.429,2.857,4.415,5.889,10.129,5.889s8.7-3.032,10.133-5.889a13.6,13.6,0,0,0,1.392-5.637,2.287,2.287,0,0,0-.185-.937l-7.957-17.906c4.717-.749,7.488-4.224,15.04-4.235v.017c7.581,0,10.351,3.485,15.076,4.235L60.5,341.945a2.29,2.29,0,0,0-.185.937,13.61,13.61,0,0,0,1.392,5.637c1.429,2.857,4.419,5.889,10.133,5.889s8.7-3.032,10.129-5.889a13.639,13.639,0,0,0,1.4-5.637,2.288,2.288,0,0,0-.185-.937l-7.962-17.919a11.814,11.814,0,0,0,5.168-2.586,2.305,2.305,0,0,0-3.249-3.271,9.122,9.122,0,0,1-5.3,1.635c-5.825-.087-8.367-4-16.144-4.506v-4.722a2.3,2.3,0,0,0-2.275-2.334v-.009c-.014,0-.024-.009-.036-.009Zm.027,16.144a2.213,2.213,0,0,0-2.3,2.307v32.333H41.765a2.308,2.308,0,0,0,.108,4.614c7.706,0,15.354.018,23.06.018a2.308,2.308,0,0,0,.108-4.614H55.7V326.694a2.207,2.207,0,0,0-2.275-2.3v-.026Zm-18.451,3.406,5.668,12.769H29.3Zm36.883.017,5.664,12.769H66.177Zm-43.39,17.369H41.472s-.813,4.614-6.506,4.614-6.511-4.614-6.511-4.614Zm36.879.017H78.351s-.818,4.614-6.511,4.614-6.506-4.614-6.506-4.614ZM14.177,395.932a2.309,2.309,0,0,0,0,4.618H39.548v10.593l-5.294-5.3a2.308,2.308,0,0,0-3.253,0l-5.3,5.3v-3.681a2.307,2.307,0,1,0-4.614,0v9.232a2.308,2.308,0,0,0,3.951,1.636l7.6-7.6,7.592,7.6a2.307,2.307,0,0,0,3.933-1.636V400.549h48.45a2.309,2.309,0,0,0,0-4.618Z" transform="translate(0 0)"/>
    </g>
  </g>
</svg>
