<svg id="analizar" xmlns="http://www.w3.org/2000/svg" width="120.172" height="120.172" viewBox="0 0 120.172 120.172">
  <g id="Grupo_82431" data-name="Grupo 82431" transform="translate(0)">
    <g id="Grupo_82429" data-name="Grupo 82429">
      <path id="Trazado_115431" data-name="Trazado 115431" d="M181.9,111.322H112.374V10.1A2.606,2.606,0,0,1,114.98,7.5H181.9a2.606,2.606,0,0,1,2.606,2.606v98.612a2.606,2.606,0,0,1-2.606,2.606Z" transform="translate(-85.999 -5.739)" fill="#ffea76"/>
      <path id="Trazado_115432" data-name="Trazado 115432" d="M391.256,7.5h-5.322a2.605,2.605,0,0,1,2.606,2.606v98.612a2.605,2.605,0,0,1-2.606,2.606h5.322a2.605,2.605,0,0,0,2.606-2.606V10.105A2.606,2.606,0,0,0,391.256,7.5Z" transform="translate(-295.351 -5.74)" fill="#ffe54c"/>
      <path id="Trazado_115433" data-name="Trazado 115433" d="M126.347,65.784l-4.788-3.63H64.9a2.605,2.605,0,0,0-2.606,2.606v98.612a2.606,2.606,0,0,0,2.606,2.606h66.924a2.606,2.606,0,0,0,2.606-2.606V75.41l-6.279-1.6Z" transform="translate(-47.672 -47.566)" fill="#fafafa"/>
      <g id="Grupo_82428" data-name="Grupo 82428">
        <path id="Trazado_115434" data-name="Trazado 115434" fill="#dedbee"/>
        <path id="Trazado_115435" data-name="Trazado 115435" d="M338.352,202.145a2.606,2.606,0,0,1-2.606,2.606h5.347a2.605,2.605,0,0,0,2.606-2.606V114.183l-5.347-1.364Z" transform="translate(-256.943 -86.339)" fill="#dedbee"/>
      </g>
      <path id="Trazado_115436" data-name="Trazado 115436" d="M311.381,62.154c2.073,4.045,1.305,8.2-.845,12.4a1.819,1.819,0,0,0,1.236,2.618c5.12,1.059,9.406.69,12.478-1.765V72.968a10.814,10.814,0,0,0-10.814-10.814Z" transform="translate(-237.494 -47.566)" fill="#d2cfe9"/>
    </g>
    <circle id="Elipse_4757" data-name="Elipse 4757" cx="18.837" cy="18.837" r="18.837" transform="translate(38.108 51.251)" fill="#64caff"/>
    <path id="Trazado_115437" data-name="Trazado 115437" d="M233.686,218.361a18.991,18.991,0,0,0-2.739.2,18.837,18.837,0,0,1,0,37.273,18.837,18.837,0,1,0,2.739-37.473Z" transform="translate(-176.741 -167.109)" fill="#00b8ff"/>
    <circle id="Elipse_4758" data-name="Elipse 4758" cx="12.157" cy="12.157" r="12.157" transform="translate(44.788 57.931)" fill="#b8e3ff"/>
    <path id="Trazado_115438" data-name="Trazado 115438" d="M234.781,246.821a12.226,12.226,0,0,0-2.4.238,12.159,12.159,0,0,1,0,23.838,12.158,12.158,0,1,0,2.4-24.076Z" transform="translate(-177.836 -188.889)" fill="#a2dbff"/>
    <g id="Grupo_82430" data-name="Grupo 82430" transform="translate(105.341 44.034)">
      <path id="Trazado_115439" data-name="Trazado 115439" d="M460.664,198.022H450.027a1.217,1.217,0,0,1-1.217-1.217v-7.978a1.217,1.217,0,0,1,1.217-1.217h10.637a1.217,1.217,0,0,1,1.217,1.217v7.978A1.217,1.217,0,0,1,460.664,198.022Z" transform="translate(-448.81 -187.61)" fill="#13b770"/>
    </g>
    <path id="Trazado_115441" data-name="Trazado 115441" d="M26.4,381.743H8.717A1.217,1.217,0,0,1,7.5,380.526v-7.978a1.217,1.217,0,0,1,1.217-1.217H26.4a1.217,1.217,0,0,1,1.217,1.217v7.978A1.217,1.217,0,0,1,26.4,381.743Z" transform="translate(-5.74 -284.176)" fill="#13b770"/>
    <path id="Trazado_115443" data-name="Trazado 115443" d="M419.957,371.329H396.836a1.217,1.217,0,0,0-1.217,1.217v7.978a1.217,1.217,0,0,0,1.217,1.217h23.121a1.217,1.217,0,0,0,1.217-1.217v-7.978A1.217,1.217,0,0,0,419.957,371.329Z" transform="translate(-302.763 -284.174)" fill="#13b770"/>
  </g>
  <g id="Grupo_82432" data-name="Grupo 82432" transform="translate(0 0)">
    <path id="Trazado_115445" data-name="Trazado 115445" d="M106.558,56.207h10.636a2.981,2.981,0,0,0,2.978-2.978V45.251a2.981,2.981,0,0,0-2.978-2.978H106.558a2.981,2.981,0,0,0-2.978,2.978V47.48h-3.31V16.106a1.76,1.76,0,0,0-3.521,0V47.48H88.515V25.4A12.588,12.588,0,0,0,75.941,12.828H28.135V4.366a.846.846,0,0,1,.845-.845H95.9a.846.846,0,0,1,.845.845V9.3a1.76,1.76,0,1,0,3.521,0V4.366A4.371,4.371,0,0,0,95.9,0H28.981a4.371,4.371,0,0,0-4.366,4.366v8.462H17.226a4.371,4.371,0,0,0-4.366,4.366v68.2H2.978A2.981,2.981,0,0,0,0,88.372v7.978a2.981,2.981,0,0,0,2.978,2.978H12.86v16.478a4.371,4.371,0,0,0,4.366,4.366h9.257a1.76,1.76,0,1,0,0-3.521H17.226a.846.846,0,0,1-.845-.845V99.328h4.274a2.981,2.981,0,0,0,2.978-2.978V94.122H38.122a4.071,4.071,0,0,0,3.234-1.611l4.05-5.368a20.559,20.559,0,0,0,23.626-.385l4.341,5.753a4.071,4.071,0,0,0,3.233,1.611h8.388v21.684a.846.846,0,0,1-.845.845H33.29a1.76,1.76,0,1,0,0,3.521H84.15a4.371,4.371,0,0,0,4.366-4.366v-8.462H95.9a4.371,4.371,0,0,0,4.366-4.366v-3.65h16.924a2.981,2.981,0,0,0,2.978-2.978V88.372a2.981,2.981,0,0,0-2.978-2.978H100.27V51h3.31v2.229a2.981,2.981,0,0,0,2.978,2.978ZM85,25.4v1.542c-2.439,1.57-5.841,1.877-10.361.942-.013,0-.019,0-.028-.023a.072.072,0,0,1,0-.07c2.15-4.2,2.762-7.971,1.842-11.43A9.065,9.065,0,0,1,85,25.4ZM20.112,95.807H3.521V88.915H20.112ZM38.545,90.39a.534.534,0,0,1-.424.211H23.633V88.372a2.981,2.981,0,0,0-2.978-2.978H16.381v-68.2a.846.846,0,0,1,.845-.845H72.749c1.095,2.863.68,6.021-1.274,9.841a3.572,3.572,0,0,0-.043,3.195,3.535,3.535,0,0,0,2.489,1.949,26.567,26.567,0,0,0,5.359.6A14.877,14.877,0,0,0,84.995,30.9V47.48H75.009a4.071,4.071,0,0,0-3.234,1.611l-3.084,4.087a20.571,20.571,0,0,0-24.654.864,1.76,1.76,0,0,0,2.208,2.742A17.054,17.054,0,0,1,66.57,55.99l-1.9,2.524A13.911,13.911,0,0,0,46.734,79.537L44.808,82.09a17.055,17.055,0,0,1-2.6-20.619,1.76,1.76,0,0,0-3.038-1.78,20.573,20.573,0,0,0,3.5,25.233ZM67.607,79.024a13.892,13.892,0,0,0-.28-18.194l1.932-2.56A17.047,17.047,0,0,1,69.55,81.6Zm-3.76-4.983a1.76,1.76,0,1,0-2.811,2.121l1.851,2.453a10.378,10.378,0,0,1-11.325.367l2.128-2.82a1.76,1.76,0,1,0-2.811-2.121L48.9,76.667A10.393,10.393,0,0,1,62.54,61.329l-3.1,4.11a1.76,1.76,0,1,0,2.811,2.121l2.9-3.847a10.378,10.378,0,0,1,.26,12.4Zm-6.9,13.124a16.98,16.98,0,0,1-9.416-2.836L49.435,81.8a13.892,13.892,0,0,0,15.574-.376l1.9,2.522a16.985,16.985,0,0,1-9.967,3.218ZM76.607,90.6a.533.533,0,0,1-.423-.211L71.7,84.447a20.564,20.564,0,0,0-.3-29.016l3.184-4.22A.534.534,0,0,1,75.009,51H85V90.6H76.607Zm20.142,12.377a.846.846,0,0,1-.845.845H88.516v-9.7H91.1v2.229a2.981,2.981,0,0,0,2.978,2.978h2.676Zm19.9-7.17H94.616V88.915h22.035Zm-19.9-10.413H94.073A2.981,2.981,0,0,0,91.1,88.372V90.6h-2.58V51h8.234Zm10.351-39.6h9.55v6.892H107.1Z" transform="translate(0 0)"/>
    <path id="Trazado_115446" data-name="Trazado 115446" d="M101.513,97.122h33.5a1.76,1.76,0,0,0,0-3.521h-33.5a1.76,1.76,0,1,0,0,3.521Z" transform="translate(-76.34 -71.632)"/>
    <path id="Trazado_115447" data-name="Trazado 115447" d="M101.513,129.752h33.5a1.76,1.76,0,0,0,0-3.521h-33.5a1.76,1.76,0,1,0,0,3.521Z" transform="translate(-76.34 -96.603)"/>
    <path id="Trazado_115448" data-name="Trazado 115448" d="M101.513,162.383h33.5a1.76,1.76,0,1,0,0-3.521h-33.5a1.76,1.76,0,1,0,0,3.521Z" transform="translate(-76.34 -121.575)"/>
    <path id="Trazado_115449" data-name="Trazado 115449" d="M122.2,193.252a1.76,1.76,0,0,0-1.76-1.76H101.513a1.76,1.76,0,1,0,0,3.521H120.44A1.76,1.76,0,0,0,122.2,193.252Z" transform="translate(-76.34 -146.547)"/>
    <path id="Trazado_115450" data-name="Trazado 115450" d="M101.513,433.039H120.44a1.76,1.76,0,1,0,0-3.521H101.513a1.76,1.76,0,1,0,0,3.521Z" transform="translate(-76.34 -328.706)"/>
    <path id="Trazado_115451" data-name="Trazado 115451" d="M101.513,462.525H120.44a1.76,1.76,0,1,0,0-3.521H101.513a1.76,1.76,0,1,0,0,3.521Z" transform="translate(-76.34 -351.271)"/>
  </g>
</svg>
