<svg id="carpeta" xmlns="http://www.w3.org/2000/svg" width="67.414" height="67.414" viewBox="0 0 67.414 67.414">
  <path id="Trazado_114279" data-name="Trazado 114279" d="M191.409,420H172.975a1.975,1.975,0,1,0,0,3.95h18.434a1.975,1.975,0,1,0,0-3.95Z" transform="translate(-148.485 -364.699)" fill="#eecf52"/>
  <path id="Trazado_114280" data-name="Trazado 114280" d="M67.362,41.024,59.33,6.791a1.975,1.975,0,0,0-1.923-1.524H48.849V1.975A1.975,1.975,0,0,0,46.874,0H20.54a1.975,1.975,0,0,0-1.975,1.975V5.267H10.007A1.975,1.975,0,0,0,8.084,6.791L.052,41.024A1.979,1.979,0,0,0,0,41.475V65.439a1.975,1.975,0,0,0,1.975,1.975H65.439a1.975,1.975,0,0,0,1.975-1.975V41.475A1.979,1.979,0,0,0,67.362,41.024ZM55.842,9.217l7.1,30.284h-6.2V28.309a1.975,1.975,0,0,0-1.975-1.975H52.8V15.142a1.975,1.975,0,0,0-1.975-1.975H48.849V9.217Zm-6.993,7.9v9.217H18.565V17.117ZM52.8,30.284V39.5H45.557a1.975,1.975,0,0,0-1.874,1.351L41.5,47.4H25.914l-2.183-6.55A1.975,1.975,0,0,0,21.857,39.5H14.615V30.284ZM44.9,3.95v9.217H22.515V3.95ZM11.572,9.217h6.993v3.95H16.59a1.975,1.975,0,0,0-1.975,1.975V26.334H12.64a1.975,1.975,0,0,0-1.975,1.975V39.5h-6.2ZM3.95,63.464V43.45H20.433L22.616,50a1.975,1.975,0,0,0,1.874,1.351H42.924A1.975,1.975,0,0,0,44.8,50l2.183-6.55H63.464V63.464Z" transform="translate(0)" fill="#eecf52"/>
</svg>
