<svg xmlns="http://www.w3.org/2000/svg" width="932.838" height="149.002" viewBox="0 0 932.838 149.002">
  <g id="Grupo_81203" data-name="Grupo 81203" transform="translate(-313.229 -5592.951)">
    <path id="Trazado_114219" data-name="Trazado 114219" d="M81.641,0H48.633V-105.078L16.211-95.605v-25l62.4-21.582h3.027Z" transform="translate(297.018 5740)" fill="#fcf3cf"/>
    <path id="Trazado_114220" data-name="Trazado 114220" d="M107.91,0H8.691V-21.484l45.7-48.047Q71.289-88.77,71.289-100.1q0-9.18-4-13.965t-11.621-4.785a14.474,14.474,0,0,0-12.207,6.4q-4.687,6.4-4.687,15.967H5.762a46.7,46.7,0,0,1,6.543-24.17,45.883,45.883,0,0,1,18.164-17.334,53.957,53.957,0,0,1,25.977-6.25q23.047,0,35.5,10.645t12.451,30.566A44.387,44.387,0,0,1,101.27-86.67a71.734,71.734,0,0,1-9.717,16.7q-6.592,8.74-21.24,23.389L51.953-25.391H107.91Z" transform="translate(533.32 5740)" fill="#fcf3cf"/>
    <path id="Trazado_114221" data-name="Trazado 114221" d="M38.77-84.863H54.3q18.457,0,18.457-18.066A15.622,15.622,0,0,0,68.359-114.4q-4.395-4.443-12.4-4.443a17.84,17.84,0,0,0-11.377,3.809,11.62,11.62,0,0,0-4.834,9.473H6.836a33.688,33.688,0,0,1,6.25-20.02A41.274,41.274,0,0,1,30.42-139.307a59.264,59.264,0,0,1,24.365-4.932q23.73,0,37.3,10.84t13.574,29.785a30.034,30.034,0,0,1-5.615,17.334q-5.615,8.154-16.357,13.232,11.328,4.1,17.773,12.451t6.445,20.654q0,19.043-14.648,30.469T54.785,1.953A63.057,63.057,0,0,1,28.857-3.369Q16.895-8.691,10.742-18.115A38.337,38.337,0,0,1,4.59-39.551H37.7a14.818,14.818,0,0,0,5.273,11.328,18.617,18.617,0,0,0,12.988,4.785q8.691,0,13.867-4.834A16.157,16.157,0,0,0,75-40.625q0-10.742-5.371-15.234T54.785-60.352H38.77Z" transform="translate(785.41 5740)" fill="#fcf3cf"/>
    <path id="Trazado_114222" data-name="Trazado 114222" d="M95.605-55.566h14.453v25.391H95.605V0H62.7V-30.176H7.715L5.762-50.293l56.934-91.6v-.293h32.91Zm-58.5,0H62.7v-43.75L60.645-96Z" transform="translate(1026.255 5740)" fill="#fcf3cf"/>
    <path id="Trazado_119082" data-name="Trazado 119082" d="M10.882-6.628H4.952V-2.9h7V0H1.182V-15.641h10.8v2.911H4.952v3.3h5.93Zm5.769-5,.118,1.364a3.942,3.942,0,0,1,3.319-1.579A3.316,3.316,0,0,1,22.8-10.753a5.165,5.165,0,0,1,.929,3.266V0H20.1V-7.337a1.961,1.961,0,0,0-.354-1.294,1.64,1.64,0,0,0-1.289-.414,1.726,1.726,0,0,0-1.579.838V0h-3.62V-11.623Zm13.3-2.89v2.89h1.912v2.514H29.949v5.317a1.358,1.358,0,0,0,.236.913,1.268,1.268,0,0,0,.935.258,5.311,5.311,0,0,0,.9-.064V-.1a6.681,6.681,0,0,1-2.041.312,3.792,3.792,0,0,1-2.761-.881,3.61,3.61,0,0,1-.892-2.675V-9.109H24.847v-2.514h1.482v-2.89ZM40.315-8.347l-1.192-.086a2.142,2.142,0,0,0-2.191,1.074V0h-3.62V-11.623h3.395l.118,1.493a2.8,2.8,0,0,1,2.546-1.708,3.53,3.53,0,0,1,1.01.129ZM47.846,0A4.088,4.088,0,0,1,47.5-1.042,3.366,3.366,0,0,1,44.709.215a4.124,4.124,0,0,1-2.793-.994,3.163,3.163,0,0,1-1.149-2.5,3.251,3.251,0,0,1,1.4-2.857A7.114,7.114,0,0,1,46.224-7.1h1.117v-.612q0-1.6-1.386-1.6a1.13,1.13,0,0,0-1.289,1.268h-3.62a3.25,3.25,0,0,1,1.434-2.739,6.022,6.022,0,0,1,3.658-1.053,5.284,5.284,0,0,1,3.513,1.085,3.772,3.772,0,0,1,1.321,2.976v5.146a5.269,5.269,0,0,0,.494,2.449V0ZM45.579-2.363a2.019,2.019,0,0,0,1.123-.29,1.818,1.818,0,0,0,.639-.655V-5.167H46.288q-1.891,0-1.891,1.7a1.036,1.036,0,0,0,.333.8A1.205,1.205,0,0,0,45.579-2.363ZM52.519-5.9a7.1,7.1,0,0,1,1.192-4.351,3.925,3.925,0,0,1,3.33-1.59,3.338,3.338,0,0,1,2.621,1.225V-16.5h3.631V0H60.038l-.183-1.246A3.428,3.428,0,0,1,57.02.215a3.918,3.918,0,0,1-3.287-1.59A7.325,7.325,0,0,1,52.519-5.9Zm3.62.226q0,3.094,1.8,3.094a1.782,1.782,0,0,0,1.719-1.01V-8.014a1.734,1.734,0,0,0-1.7-1.031q-1.676,0-1.815,2.707ZM71.9,0a4.087,4.087,0,0,1-.344-1.042A3.366,3.366,0,0,1,68.761.215a4.124,4.124,0,0,1-2.793-.994,3.163,3.163,0,0,1-1.149-2.5,3.251,3.251,0,0,1,1.4-2.857A7.114,7.114,0,0,1,70.275-7.1h1.117v-.612q0-1.6-1.386-1.6a1.13,1.13,0,0,0-1.289,1.268H65.1a3.25,3.25,0,0,1,1.434-2.739,6.022,6.022,0,0,1,3.658-1.053A5.284,5.284,0,0,1,73.7-10.753a3.772,3.772,0,0,1,1.321,2.976v5.146a5.269,5.269,0,0,0,.494,2.449V0ZM69.631-2.363a2.019,2.019,0,0,0,1.123-.29,1.818,1.818,0,0,0,.639-.655V-5.167H70.34q-1.891,0-1.891,1.7a1.036,1.036,0,0,0,.333.8A1.205,1.205,0,0,0,69.631-2.363ZM82.049-5.9a7.1,7.1,0,0,1,1.192-4.351,3.925,3.925,0,0,1,3.33-1.59,3.338,3.338,0,0,1,2.621,1.225V-16.5h3.631V0H89.568l-.183-1.246A3.428,3.428,0,0,1,86.55.215a3.918,3.918,0,0,1-3.287-1.59A7.325,7.325,0,0,1,82.049-5.9Zm3.62.226q0,3.094,1.8,3.094a1.782,1.782,0,0,0,1.719-1.01V-8.014a1.734,1.734,0,0,0-1.7-1.031q-1.676,0-1.815,2.707ZM100.5.215a5.975,5.975,0,0,1-4.329-1.6,5.509,5.509,0,0,1-1.654-4.152v-.3a7.138,7.138,0,0,1,.661-3.147,4.834,4.834,0,0,1,1.928-2.111,5.821,5.821,0,0,1,3.008-.747,5.031,5.031,0,0,1,3.867,1.52A5.973,5.973,0,0,1,105.4-6.08v1.407h-7.2a2.609,2.609,0,0,0,.849,1.536,2.525,2.525,0,0,0,1.7.559,3.254,3.254,0,0,0,2.686-1.2l1.654,1.955a4.624,4.624,0,0,1-1.917,1.488A6.48,6.48,0,0,1,100.5.215Zm-.408-9.26q-1.59,0-1.891,2.105h3.652v-.279a1.793,1.793,0,0,0-.44-1.348A1.753,1.753,0,0,0,100.1-9.045ZM1.182,25V9.359H6.22a7.411,7.411,0,0,1,3.728.94,6.607,6.607,0,0,1,2.583,2.653,8.011,8.011,0,0,1,.94,3.84v.72a8.057,8.057,0,0,1-.908,3.851,6.635,6.635,0,0,1-2.557,2.664A7.248,7.248,0,0,1,6.327,25ZM4.952,12.271V22.1H6.263a2.933,2.933,0,0,0,2.492-1.155,5.659,5.659,0,0,0,.87-3.432v-.677a5.613,5.613,0,0,0-.87-3.416A2.984,2.984,0,0,0,6.22,12.271ZM21.785,25a4.087,4.087,0,0,1-.344-1.042,3.366,3.366,0,0,1-2.793,1.257,4.124,4.124,0,0,1-2.793-.994,3.163,3.163,0,0,1-1.149-2.5,3.251,3.251,0,0,1,1.4-2.857,7.114,7.114,0,0,1,4.061-.967H21.28v-.612q0-1.6-1.386-1.6a1.13,1.13,0,0,0-1.289,1.268h-3.62a3.25,3.25,0,0,1,1.434-2.739,6.022,6.022,0,0,1,3.658-1.053,5.284,5.284,0,0,1,3.513,1.085,3.772,3.772,0,0,1,1.321,2.976v5.146a5.269,5.269,0,0,0,.494,2.449V25Zm-2.267-2.363a2.019,2.019,0,0,0,1.123-.29,1.818,1.818,0,0,0,.639-.655V19.833H20.228q-1.891,0-1.891,1.7a1.036,1.036,0,0,0,.333.8A1.205,1.205,0,0,0,19.519,22.637ZM31.131,10.487v2.89h1.912v2.514H31.131v5.317a1.358,1.358,0,0,0,.236.913,1.268,1.268,0,0,0,.935.258,5.311,5.311,0,0,0,.9-.064V24.9a6.681,6.681,0,0,1-2.041.312,3.792,3.792,0,0,1-2.761-.881,3.61,3.61,0,0,1-.892-2.675V15.891H26.028V13.377h1.482v-2.89Zm2.557,8.594a6.86,6.86,0,0,1,.677-3.1,4.84,4.84,0,0,1,1.944-2.089,5.856,5.856,0,0,1,2.976-.73A5.344,5.344,0,0,1,43.4,14.779a6.2,6.2,0,0,1,1.5,4.4v.129a6.019,6.019,0,0,1-1.509,4.313,5.359,5.359,0,0,1-4.087,1.6,5.42,5.42,0,0,1-3.985-1.488A5.819,5.819,0,0,1,33.7,19.693Zm3.62.226a4.325,4.325,0,0,0,.5,2.363,1.682,1.682,0,0,0,1.493.752q1.934,0,1.977-2.976v-.365q0-3.126-2-3.126-1.815,0-1.966,2.7Zm15.275,2.428a.836.836,0,0,0-.483-.741,7.353,7.353,0,0,0-1.837-.58,8.376,8.376,0,0,1-2.234-.79,3.743,3.743,0,0,1-1.343-1.187,2.835,2.835,0,0,1-.462-1.6A3.212,3.212,0,0,1,47.545,14.2,5.443,5.443,0,0,1,51,13.162,6.03,6.03,0,0,1,54.7,14.2a3.258,3.258,0,0,1,1.4,2.739H52.465q0-1.4-1.472-1.4a1.459,1.459,0,0,0-.956.317.981.981,0,0,0-.387.79.9.9,0,0,0,.473.784,4.466,4.466,0,0,0,1.509.494,13.042,13.042,0,0,1,1.821.462q2.621.9,2.621,3.233a3.044,3.044,0,0,1-1.413,2.589,6.2,6.2,0,0,1-3.658,1,6.322,6.322,0,0,1-2.664-.537,4.455,4.455,0,0,1-1.826-1.461,3.308,3.308,0,0,1-.655-1.944h3.384a1.4,1.4,0,0,0,.537,1.176,2.209,2.209,0,0,0,1.321.371,1.738,1.738,0,0,0,1.112-.3A.962.962,0,0,0,52.583,21.734Z" transform="translate(364 5700)" fill="#12263f"/>
    <path id="Trazado_119081" data-name="Trazado 119081" d="M4.952-5.307V0H1.182V-15.641H7.423a7.269,7.269,0,0,1,3.174.661,4.979,4.979,0,0,1,2.138,1.88,5.134,5.134,0,0,1,.757,2.766,4.526,4.526,0,0,1-1.638,3.658,6.8,6.8,0,0,1-4.5,1.37Zm0-2.911H7.423a2.33,2.33,0,0,0,1.67-.548,2.035,2.035,0,0,0,.575-1.547,2.516,2.516,0,0,0-.591-1.751,2.092,2.092,0,0,0-1.611-.666H4.952Zm17.413-.129-1.192-.086a2.142,2.142,0,0,0-2.191,1.074V0h-3.62V-11.623h3.395l.118,1.493a2.8,2.8,0,0,1,2.546-1.708,3.53,3.53,0,0,1,1.01.129Zm.462,2.428a6.86,6.86,0,0,1,.677-3.1,4.84,4.84,0,0,1,1.944-2.089,5.856,5.856,0,0,1,2.976-.73,5.344,5.344,0,0,1,4.114,1.617,6.2,6.2,0,0,1,1.5,4.4v.129A6.019,6.019,0,0,1,32.533-1.38a5.359,5.359,0,0,1-4.087,1.6A5.42,5.42,0,0,1,24.46-1.273a5.819,5.819,0,0,1-1.622-4.034Zm3.62.226a4.325,4.325,0,0,0,.5,2.363,1.682,1.682,0,0,0,1.493.752q1.934,0,1.977-2.976v-.365q0-3.126-2-3.126-1.815,0-1.966,2.7Zm14.1,3.115a1.61,1.61,0,0,0,1.182-.414,1.517,1.517,0,0,0,.408-1.155h3.395a4.018,4.018,0,0,1-1.37,3.137A5.1,5.1,0,0,1,40.638.215a5.158,5.158,0,0,1-4-1.59,6.264,6.264,0,0,1-1.461-4.4v-.15a7.08,7.08,0,0,1,.65-3.11,4.732,4.732,0,0,1,1.875-2.073,5.589,5.589,0,0,1,2.9-.725,5.03,5.03,0,0,1,3.6,1.257,4.458,4.458,0,0,1,1.332,3.405H42.142a1.987,1.987,0,0,0-.44-1.386,1.52,1.52,0,0,0-1.182-.483q-1.407,0-1.644,1.794A12.659,12.659,0,0,0,38.8-5.683a4.972,4.972,0,0,0,.419,2.428A1.45,1.45,0,0,0,40.552-2.578ZM52.69.215a5.975,5.975,0,0,1-4.329-1.6,5.509,5.509,0,0,1-1.654-4.152v-.3a7.138,7.138,0,0,1,.661-3.147A4.834,4.834,0,0,1,49.3-11.091a5.821,5.821,0,0,1,3.008-.747,5.031,5.031,0,0,1,3.867,1.52A5.973,5.973,0,0,1,57.589-6.08v1.407h-7.2a2.609,2.609,0,0,0,.849,1.536,2.525,2.525,0,0,0,1.7.559,3.254,3.254,0,0,0,2.686-1.2l1.654,1.955A4.624,4.624,0,0,1,55.36-.338,6.48,6.48,0,0,1,52.69.215Zm-.408-9.26q-1.59,0-1.891,2.105h3.652v-.279a1.793,1.793,0,0,0-.44-1.348A1.753,1.753,0,0,0,52.282-9.045ZM65.13-3.266a.836.836,0,0,0-.483-.741,7.353,7.353,0,0,0-1.837-.58,8.376,8.376,0,0,1-2.234-.79,3.743,3.743,0,0,1-1.343-1.187,2.835,2.835,0,0,1-.462-1.6A3.212,3.212,0,0,1,60.092-10.8a5.443,5.443,0,0,1,3.459-1.037,6.03,6.03,0,0,1,3.7,1.042,3.258,3.258,0,0,1,1.4,2.739H65.012q0-1.4-1.472-1.4a1.459,1.459,0,0,0-.956.317.981.981,0,0,0-.387.79.9.9,0,0,0,.473.784,4.466,4.466,0,0,0,1.509.494A13.043,13.043,0,0,1,66-6.606q2.621.9,2.621,3.233A3.044,3.044,0,0,1,67.208-.784a6.2,6.2,0,0,1-3.658,1,6.322,6.322,0,0,1-2.664-.537,4.455,4.455,0,0,1-1.826-1.461,3.308,3.308,0,0,1-.655-1.944h3.384a1.4,1.4,0,0,0,.537,1.176,2.209,2.209,0,0,0,1.321.371,1.738,1.738,0,0,0,1.112-.3A.962.962,0,0,0,65.13-3.266ZM76.86,0a4.087,4.087,0,0,1-.344-1.042A3.366,3.366,0,0,1,73.724.215a4.124,4.124,0,0,1-2.793-.994,3.163,3.163,0,0,1-1.149-2.5,3.251,3.251,0,0,1,1.4-2.857A7.114,7.114,0,0,1,75.238-7.1h1.117v-.612q0-1.6-1.386-1.6a1.13,1.13,0,0,0-1.289,1.268h-3.62a3.25,3.25,0,0,1,1.434-2.739,6.022,6.022,0,0,1,3.658-1.053,5.284,5.284,0,0,1,3.513,1.085,3.772,3.772,0,0,1,1.321,2.976v5.146A5.269,5.269,0,0,0,80.48-.183V0ZM74.594-2.363a2.019,2.019,0,0,0,1.123-.29,1.818,1.818,0,0,0,.639-.655V-5.167H75.3q-1.891,0-1.891,1.7a1.036,1.036,0,0,0,.333.8A1.205,1.205,0,0,0,74.594-2.363Zm10.817-9.26.118,1.364a4,4,0,0,1,3.319-1.579,2.942,2.942,0,0,1,2.976,1.751,3.868,3.868,0,0,1,3.416-1.751q3.534,0,3.631,4.275V0H95.24V-7.337a2.216,2.216,0,0,0-.3-1.3,1.28,1.28,0,0,0-1.1-.408,1.715,1.715,0,0,0-1.6.956l.011.15V0H88.623V-7.315a2.329,2.329,0,0,0-.29-1.321,1.277,1.277,0,0,0-1.106-.408,1.736,1.736,0,0,0-1.59.956V0h-3.62V-11.623ZM104.758,0h-3.631V-11.623h3.631Zm-3.846-14.62a1.616,1.616,0,0,1,.559-1.268,2.108,2.108,0,0,1,1.45-.494,2.108,2.108,0,0,1,1.45.494,1.616,1.616,0,0,1,.559,1.268,1.616,1.616,0,0,1-.559,1.268,2.108,2.108,0,0,1-1.45.494,2.108,2.108,0,0,1-1.45-.494A1.616,1.616,0,0,1,100.912-14.62ZM112.61.215a5.975,5.975,0,0,1-4.329-1.6,5.509,5.509,0,0,1-1.654-4.152v-.3a7.138,7.138,0,0,1,.661-3.147,4.834,4.834,0,0,1,1.928-2.111,5.821,5.821,0,0,1,3.008-.747,5.031,5.031,0,0,1,3.867,1.52,5.973,5.973,0,0,1,1.418,4.238v1.407h-7.2a2.609,2.609,0,0,0,.849,1.536,2.525,2.525,0,0,0,1.7.559,3.254,3.254,0,0,0,2.686-1.2L117.2-1.826A4.624,4.624,0,0,1,115.28-.338,6.48,6.48,0,0,1,112.61.215Zm-.408-9.26q-1.59,0-1.891,2.105h3.652v-.279a1.793,1.793,0,0,0-.44-1.348A1.753,1.753,0,0,0,112.2-9.045Zm10.087-2.578.118,1.364a3.942,3.942,0,0,1,3.319-1.579,3.316,3.316,0,0,1,2.712,1.085,5.165,5.165,0,0,1,.929,3.266V0h-3.631V-7.337a1.961,1.961,0,0,0-.354-1.294,1.64,1.64,0,0,0-1.289-.414,1.726,1.726,0,0,0-1.579.838V0h-3.62V-11.623Zm13.3-2.89v2.89H137.5v2.514h-1.912v5.317a1.358,1.358,0,0,0,.236.913,1.268,1.268,0,0,0,.935.258,5.311,5.311,0,0,0,.9-.064V-.1a6.681,6.681,0,0,1-2.041.312,3.792,3.792,0,0,1-2.761-.881,3.61,3.61,0,0,1-.892-2.675V-9.109h-1.482v-2.514h1.482v-2.89Zm2.557,8.594a6.86,6.86,0,0,1,.677-3.1,4.84,4.84,0,0,1,1.944-2.089,5.856,5.856,0,0,1,2.976-.73,5.344,5.344,0,0,1,4.114,1.617,6.2,6.2,0,0,1,1.5,4.4v.129A6.019,6.019,0,0,1,147.85-1.38a5.359,5.359,0,0,1-4.087,1.6,5.42,5.42,0,0,1-3.985-1.488,5.819,5.819,0,0,1-1.622-4.034Zm3.62.226a4.325,4.325,0,0,0,.5,2.363,1.682,1.682,0,0,0,1.493.752q1.934,0,1.977-2.976v-.365q0-3.126-2-3.126-1.815,0-1.966,2.7ZM.559,19.1a7.1,7.1,0,0,1,1.192-4.351,3.925,3.925,0,0,1,3.33-1.59A3.338,3.338,0,0,1,7.7,14.387V8.5h3.631V25H8.078L7.9,23.754A3.428,3.428,0,0,1,5.06,25.215a3.918,3.918,0,0,1-3.287-1.59A7.325,7.325,0,0,1,.559,19.1Zm3.62.226q0,3.094,1.8,3.094A1.782,1.782,0,0,0,7.7,21.412V16.986A1.734,1.734,0,0,0,6,15.955q-1.676,0-1.815,2.707Zm14.835,5.887a5.975,5.975,0,0,1-4.329-1.6,5.509,5.509,0,0,1-1.654-4.152v-.3a7.138,7.138,0,0,1,.661-3.147,4.834,4.834,0,0,1,1.928-2.111,5.821,5.821,0,0,1,3.008-.747,5.031,5.031,0,0,1,3.867,1.52,5.973,5.973,0,0,1,1.418,4.238v1.407h-7.2a2.609,2.609,0,0,0,.849,1.536,2.525,2.525,0,0,0,1.7.559,3.254,3.254,0,0,0,2.686-1.2L23.6,23.174a4.624,4.624,0,0,1-1.917,1.488A6.48,6.48,0,0,1,19.014,25.215Zm-.408-9.26q-1.59,0-1.891,2.105h3.652v-.279a1.793,1.793,0,0,0-.44-1.348A1.753,1.753,0,0,0,18.605,15.955ZM30.39,19.1a7.1,7.1,0,0,1,1.192-4.351,3.925,3.925,0,0,1,3.33-1.59,3.338,3.338,0,0,1,2.621,1.225V8.5h3.631V25H37.909l-.183-1.246a3.428,3.428,0,0,1-2.836,1.461,3.918,3.918,0,0,1-3.287-1.59A7.325,7.325,0,0,1,30.39,19.1Zm3.62.226q0,3.094,1.8,3.094a1.782,1.782,0,0,0,1.719-1.01V16.986a1.734,1.734,0,0,0-1.7-1.031q-1.676,0-1.815,2.707ZM49.769,25a4.088,4.088,0,0,1-.344-1.042,3.366,3.366,0,0,1-2.793,1.257,4.124,4.124,0,0,1-2.793-.994,3.163,3.163,0,0,1-1.149-2.5,3.251,3.251,0,0,1,1.4-2.857,7.114,7.114,0,0,1,4.061-.967h1.117v-.612q0-1.6-1.386-1.6a1.13,1.13,0,0,0-1.289,1.268h-3.62A3.25,3.25,0,0,1,44.4,14.215a6.022,6.022,0,0,1,3.658-1.053,5.284,5.284,0,0,1,3.513,1.085,3.772,3.772,0,0,1,1.321,2.976v5.146a5.269,5.269,0,0,0,.494,2.449V25ZM47.5,22.637a2.019,2.019,0,0,0,1.123-.29,1.818,1.818,0,0,0,.639-.655V19.833H48.211q-1.891,0-1.891,1.7a1.036,1.036,0,0,0,.333.8A1.205,1.205,0,0,0,47.5,22.637ZM59.114,10.487v2.89h1.912v2.514H59.114v5.317a1.358,1.358,0,0,0,.236.913,1.268,1.268,0,0,0,.935.258,5.311,5.311,0,0,0,.9-.064V24.9a6.681,6.681,0,0,1-2.041.312,3.792,3.792,0,0,1-2.761-.881,3.61,3.61,0,0,1-.892-2.675V15.891H54.012V13.377h1.482v-2.89Zm2.557,8.594a6.86,6.86,0,0,1,.677-3.1,4.84,4.84,0,0,1,1.944-2.089,5.856,5.856,0,0,1,2.976-.73,5.344,5.344,0,0,1,4.114,1.617,6.2,6.2,0,0,1,1.5,4.4v.129a6.019,6.019,0,0,1-1.509,4.313,5.359,5.359,0,0,1-4.087,1.6A5.42,5.42,0,0,1,63.3,23.727a5.819,5.819,0,0,1-1.622-4.034Zm3.62.226a4.325,4.325,0,0,0,.5,2.363,1.682,1.682,0,0,0,1.493.752q1.934,0,1.977-2.976v-.365q0-3.126-2-3.126-1.815,0-1.966,2.7Zm15.275,2.428a.836.836,0,0,0-.483-.741,7.353,7.353,0,0,0-1.837-.58,8.376,8.376,0,0,1-2.234-.79,3.743,3.743,0,0,1-1.343-1.187,2.834,2.834,0,0,1-.462-1.6A3.212,3.212,0,0,1,75.528,14.2a5.443,5.443,0,0,1,3.459-1.037,6.03,6.03,0,0,1,3.7,1.042,3.258,3.258,0,0,1,1.4,2.739H80.448q0-1.4-1.472-1.4a1.459,1.459,0,0,0-.956.317.981.981,0,0,0-.387.79.9.9,0,0,0,.473.784,4.466,4.466,0,0,0,1.509.494,13.043,13.043,0,0,1,1.821.462q2.621.9,2.621,3.233a3.044,3.044,0,0,1-1.413,2.589,6.2,6.2,0,0,1-3.658,1,6.322,6.322,0,0,1-2.664-.537A4.455,4.455,0,0,1,74.5,23.217a3.308,3.308,0,0,1-.655-1.944h3.384a1.4,1.4,0,0,0,.537,1.176,2.209,2.209,0,0,0,1.321.371,1.738,1.738,0,0,0,1.112-.3A.962.962,0,0,0,80.566,21.734Z" transform="translate(591.331 5700)" fill="#12263f"/>
    <path id="Trazado_119083" data-name="Trazado 119083" d="M9.249-4.157a1.549,1.549,0,0,0-.585-1.289A7.277,7.277,0,0,0,6.606-6.4,19.736,19.736,0,0,1,4.2-7.358q-3.04-1.493-3.04-4.1a3.68,3.68,0,0,1,.757-2.293A4.9,4.9,0,0,1,4.061-15.3a8.34,8.34,0,0,1,3.115-.553,7.3,7.3,0,0,1,3.024.6,4.788,4.788,0,0,1,2.079,1.713A4.474,4.474,0,0,1,13.02-11H9.26a1.891,1.891,0,0,0-.585-1.482,2.282,2.282,0,0,0-1.584-.526,2.573,2.573,0,0,0-1.6.446,1.368,1.368,0,0,0-.585,1.133,1.377,1.377,0,0,0,.645,1.09A8.128,8.128,0,0,0,7.82-9.33a13.885,13.885,0,0,1,2.664,1.123A4.477,4.477,0,0,1,13.02-4.179,3.819,3.819,0,0,1,11.473-.956,6.88,6.88,0,0,1,7.229.215,8.418,8.418,0,0,1,3.787-.467a5.191,5.191,0,0,1-2.32-1.869A4.87,4.87,0,0,1,.688-5.07H4.469a2.4,2.4,0,0,0,.65,1.853,3.072,3.072,0,0,0,2.111.6,2.427,2.427,0,0,0,1.477-.4A1.33,1.33,0,0,0,9.249-4.157ZM21.334,0a4.087,4.087,0,0,1-.344-1.042A3.366,3.366,0,0,1,18.2.215,4.124,4.124,0,0,1,15.4-.779a3.163,3.163,0,0,1-1.149-2.5,3.251,3.251,0,0,1,1.4-2.857A7.114,7.114,0,0,1,19.712-7.1h1.117v-.612q0-1.6-1.386-1.6a1.13,1.13,0,0,0-1.289,1.268h-3.62a3.25,3.25,0,0,1,1.434-2.739,6.022,6.022,0,0,1,3.658-1.053,5.284,5.284,0,0,1,3.513,1.085A3.772,3.772,0,0,1,24.46-7.777v5.146a5.269,5.269,0,0,0,.494,2.449V0ZM19.067-2.363a2.019,2.019,0,0,0,1.123-.29,1.818,1.818,0,0,0,.639-.655V-5.167H19.776q-1.891,0-1.891,1.7a1.036,1.036,0,0,0,.333.8A1.205,1.205,0,0,0,19.067-2.363ZM30.282,0H26.651V-16.5h3.631ZM36.33,0H32.7V-11.623H36.33ZM32.484-14.62a1.616,1.616,0,0,1,.559-1.268,2.108,2.108,0,0,1,1.45-.494,2.108,2.108,0,0,1,1.45.494A1.616,1.616,0,0,1,36.5-14.62a1.616,1.616,0,0,1-.559,1.268,2.108,2.108,0,0,1-1.45.494,2.108,2.108,0,0,1-1.45-.494A1.616,1.616,0,0,1,32.484-14.62ZM38.1-5.9a7.1,7.1,0,0,1,1.192-4.351,3.925,3.925,0,0,1,3.33-1.59,3.338,3.338,0,0,1,2.621,1.225V-16.5h3.631V0H45.622l-.183-1.246A3.428,3.428,0,0,1,42.6.215a3.918,3.918,0,0,1-3.287-1.59A7.325,7.325,0,0,1,38.1-5.9Zm3.62.226q0,3.094,1.8,3.094a1.782,1.782,0,0,0,1.719-1.01V-8.014a1.734,1.734,0,0,0-1.7-1.031q-1.676,0-1.815,2.707ZM57.481,0a4.088,4.088,0,0,1-.344-1.042A3.366,3.366,0,0,1,54.345.215a4.124,4.124,0,0,1-2.793-.994,3.163,3.163,0,0,1-1.149-2.5,3.251,3.251,0,0,1,1.4-2.857A7.114,7.114,0,0,1,55.859-7.1h1.117v-.612q0-1.6-1.386-1.6A1.13,1.13,0,0,0,54.3-8.046h-3.62a3.25,3.25,0,0,1,1.434-2.739,6.022,6.022,0,0,1,3.658-1.053,5.284,5.284,0,0,1,3.513,1.085,3.772,3.772,0,0,1,1.321,2.976v5.146A5.269,5.269,0,0,0,61.1-.183V0ZM55.215-2.363a2.019,2.019,0,0,0,1.123-.29,1.818,1.818,0,0,0,.639-.655V-5.167H55.924q-1.891,0-1.891,1.7a1.036,1.036,0,0,0,.333.8A1.205,1.205,0,0,0,55.215-2.363ZM67.633-5.9a7.1,7.1,0,0,1,1.192-4.351,3.925,3.925,0,0,1,3.33-1.59,3.338,3.338,0,0,1,2.621,1.225V-16.5h3.631V0H75.152L74.97-1.246A3.428,3.428,0,0,1,72.134.215a3.918,3.918,0,0,1-3.287-1.59A7.325,7.325,0,0,1,67.633-5.9Zm3.62.226q0,3.094,1.8,3.094a1.782,1.782,0,0,0,1.719-1.01V-8.014a1.734,1.734,0,0,0-1.7-1.031q-1.676,0-1.815,2.707ZM86.088.215a5.975,5.975,0,0,1-4.329-1.6A5.509,5.509,0,0,1,80.1-5.532v-.3a7.138,7.138,0,0,1,.661-3.147,4.834,4.834,0,0,1,1.928-2.111,5.821,5.821,0,0,1,3.008-.747,5.031,5.031,0,0,1,3.867,1.52A5.973,5.973,0,0,1,90.986-6.08v1.407h-7.2a2.609,2.609,0,0,0,.849,1.536,2.525,2.525,0,0,0,1.7.559,3.254,3.254,0,0,0,2.686-1.2l1.654,1.955A4.624,4.624,0,0,1,88.757-.338,6.48,6.48,0,0,1,86.088.215Zm-.408-9.26q-1.59,0-1.891,2.105h3.652v-.279A1.793,1.793,0,0,0,87-8.567,1.753,1.753,0,0,0,85.68-9.045ZM.559,19.1a7.1,7.1,0,0,1,1.192-4.351,3.925,3.925,0,0,1,3.33-1.59A3.338,3.338,0,0,1,7.7,14.387V8.5h3.631V25H8.078L7.9,23.754A3.428,3.428,0,0,1,5.06,25.215a3.918,3.918,0,0,1-3.287-1.59A7.325,7.325,0,0,1,.559,19.1Zm3.62.226q0,3.094,1.8,3.094A1.782,1.782,0,0,0,7.7,21.412V16.986A1.734,1.734,0,0,0,6,15.955q-1.676,0-1.815,2.707ZM19.938,25a4.087,4.087,0,0,1-.344-1.042A3.366,3.366,0,0,1,16.8,25.215a4.124,4.124,0,0,1-2.793-.994,3.163,3.163,0,0,1-1.149-2.5,3.251,3.251,0,0,1,1.4-2.857,7.114,7.114,0,0,1,4.061-.967h1.117v-.612q0-1.6-1.386-1.6a1.13,1.13,0,0,0-1.289,1.268h-3.62a3.25,3.25,0,0,1,1.434-2.739,6.022,6.022,0,0,1,3.658-1.053,5.284,5.284,0,0,1,3.513,1.085,3.772,3.772,0,0,1,1.321,2.976v5.146a5.269,5.269,0,0,0,.494,2.449V25Zm-2.267-2.363a2.019,2.019,0,0,0,1.123-.29,1.818,1.818,0,0,0,.639-.655V19.833H18.38q-1.891,0-1.891,1.7a1.036,1.036,0,0,0,.333.8A1.205,1.205,0,0,0,17.671,22.637ZM29.283,10.487v2.89H31.2v2.514H29.283v5.317a1.358,1.358,0,0,0,.236.913,1.268,1.268,0,0,0,.935.258,5.311,5.311,0,0,0,.9-.064V24.9a6.681,6.681,0,0,1-2.041.312,3.792,3.792,0,0,1-2.761-.881,3.61,3.61,0,0,1-.892-2.675V15.891H24.181V13.377h1.482v-2.89Zm2.557,8.594a6.86,6.86,0,0,1,.677-3.1,4.84,4.84,0,0,1,1.944-2.089,5.856,5.856,0,0,1,2.976-.73,5.344,5.344,0,0,1,4.114,1.617,6.2,6.2,0,0,1,1.5,4.4v.129a6.019,6.019,0,0,1-1.509,4.313,5.359,5.359,0,0,1-4.087,1.6,5.42,5.42,0,0,1-3.985-1.488,5.819,5.819,0,0,1-1.622-4.034Zm3.62.226a4.325,4.325,0,0,0,.5,2.363,1.682,1.682,0,0,0,1.493.752q1.934,0,1.977-2.976v-.365q0-3.126-2-3.126-1.815,0-1.966,2.7Zm15.275,2.428a.836.836,0,0,0-.483-.741,7.353,7.353,0,0,0-1.837-.58,8.376,8.376,0,0,1-2.234-.79,3.743,3.743,0,0,1-1.343-1.187,2.835,2.835,0,0,1-.462-1.6A3.212,3.212,0,0,1,45.7,14.2a5.443,5.443,0,0,1,3.459-1.037,6.03,6.03,0,0,1,3.7,1.042,3.258,3.258,0,0,1,1.4,2.739H50.617q0-1.4-1.472-1.4a1.459,1.459,0,0,0-.956.317.981.981,0,0,0-.387.79.9.9,0,0,0,.473.784,4.466,4.466,0,0,0,1.509.494,13.042,13.042,0,0,1,1.821.462q2.621.9,2.621,3.233a3.044,3.044,0,0,1-1.413,2.589,6.2,6.2,0,0,1-3.658,1,6.322,6.322,0,0,1-2.664-.537,4.455,4.455,0,0,1-1.826-1.461,3.308,3.308,0,0,1-.655-1.944h3.384a1.4,1.4,0,0,0,.537,1.176,2.209,2.209,0,0,0,1.321.371,1.738,1.738,0,0,0,1.112-.3A.962.962,0,0,0,50.735,21.734Z" transform="translate(863.338 5700)" fill="#12263f"/>
    <path id="Trazado_119084" data-name="Trazado 119084" d="M10.065-2.922H4.9L4,0H-.032L5.7-15.641H9.249L15.028,0h-4.05ZM5.8-5.833H9.163L7.477-11.258ZM19.819,0H16.188V-16.5h3.631Zm5.65-11.623.118,1.364a4,4,0,0,1,3.319-1.579,2.942,2.942,0,0,1,2.976,1.751A3.868,3.868,0,0,1,35.3-11.838q3.534,0,3.631,4.275V0H35.3V-7.337a2.216,2.216,0,0,0-.3-1.3,1.28,1.28,0,0,0-1.1-.408,1.715,1.715,0,0,0-1.6.956l.011.15V0H28.682V-7.315a2.329,2.329,0,0,0-.29-1.321,1.277,1.277,0,0,0-1.106-.408,1.736,1.736,0,0,0-1.59.956V0h-3.62V-11.623ZM47.545,0A4.088,4.088,0,0,1,47.2-1.042,3.366,3.366,0,0,1,44.408.215a4.124,4.124,0,0,1-2.793-.994,3.163,3.163,0,0,1-1.149-2.5,3.251,3.251,0,0,1,1.4-2.857A7.114,7.114,0,0,1,45.923-7.1H47.04v-.612q0-1.6-1.386-1.6a1.13,1.13,0,0,0-1.289,1.268h-3.62a3.25,3.25,0,0,1,1.434-2.739,6.022,6.022,0,0,1,3.658-1.053,5.284,5.284,0,0,1,3.513,1.085,3.772,3.772,0,0,1,1.321,2.976v5.146a5.269,5.269,0,0,0,.494,2.449V0ZM45.278-2.363a2.019,2.019,0,0,0,1.123-.29,1.818,1.818,0,0,0,.639-.655V-5.167H45.987q-1.891,0-1.891,1.7a1.036,1.036,0,0,0,.333.8A1.205,1.205,0,0,0,45.278-2.363Zm12.311-.215a1.61,1.61,0,0,0,1.182-.414,1.517,1.517,0,0,0,.408-1.155h3.395A4.018,4.018,0,0,1,61.2-1.01,5.1,5.1,0,0,1,57.675.215a5.158,5.158,0,0,1-4-1.59,6.264,6.264,0,0,1-1.461-4.4v-.15a7.08,7.08,0,0,1,.65-3.11,4.732,4.732,0,0,1,1.875-2.073,5.589,5.589,0,0,1,2.9-.725,5.03,5.03,0,0,1,3.6,1.257,4.458,4.458,0,0,1,1.332,3.405H59.179a1.987,1.987,0,0,0-.44-1.386,1.52,1.52,0,0,0-1.182-.483q-1.407,0-1.644,1.794a12.659,12.659,0,0,0-.075,1.568,4.972,4.972,0,0,0,.419,2.428A1.45,1.45,0,0,0,57.589-2.578ZM69.728.215A5.975,5.975,0,0,1,65.4-1.38a5.509,5.509,0,0,1-1.654-4.152v-.3A7.138,7.138,0,0,1,64.4-8.98a4.834,4.834,0,0,1,1.928-2.111,5.821,5.821,0,0,1,3.008-.747,5.031,5.031,0,0,1,3.867,1.52A5.973,5.973,0,0,1,74.626-6.08v1.407h-7.2a2.609,2.609,0,0,0,.849,1.536,2.525,2.525,0,0,0,1.7.559,3.254,3.254,0,0,0,2.686-1.2l1.654,1.955A4.624,4.624,0,0,1,72.4-.338,6.48,6.48,0,0,1,69.728.215Zm-.408-9.26q-1.59,0-1.891,2.105h3.652v-.279a1.793,1.793,0,0,0-.44-1.348A1.753,1.753,0,0,0,69.319-9.045Zm10.087-2.578.118,1.364a3.942,3.942,0,0,1,3.319-1.579,3.316,3.316,0,0,1,2.712,1.085,5.165,5.165,0,0,1,.929,3.266V0H82.854V-7.337A1.961,1.961,0,0,0,82.5-8.631a1.64,1.64,0,0,0-1.289-.414,1.726,1.726,0,0,0-1.579.838V0h-3.62V-11.623ZM95.036,0a4.087,4.087,0,0,1-.344-1.042A3.366,3.366,0,0,1,91.9.215a4.124,4.124,0,0,1-2.793-.994,3.163,3.163,0,0,1-1.149-2.5,3.251,3.251,0,0,1,1.4-2.857A7.114,7.114,0,0,1,93.414-7.1h1.117v-.612q0-1.6-1.386-1.6a1.13,1.13,0,0,0-1.289,1.268h-3.62a3.25,3.25,0,0,1,1.434-2.739,6.022,6.022,0,0,1,3.658-1.053,5.284,5.284,0,0,1,3.513,1.085,3.772,3.772,0,0,1,1.321,2.976v5.146a5.269,5.269,0,0,0,.494,2.449V0ZM92.77-2.363a2.019,2.019,0,0,0,1.123-.29,1.818,1.818,0,0,0,.639-.655V-5.167H93.479q-1.891,0-1.891,1.7a1.036,1.036,0,0,0,.333.8A1.205,1.205,0,0,0,92.77-2.363Zm10.817-9.26.118,1.364a4,4,0,0,1,3.319-1.579A2.942,2.942,0,0,1,110-10.087a3.868,3.868,0,0,1,3.416-1.751q3.534,0,3.631,4.275V0h-3.631V-7.337a2.216,2.216,0,0,0-.3-1.3,1.28,1.28,0,0,0-1.1-.408,1.715,1.715,0,0,0-1.6.956l.011.15V0H106.8V-7.315a2.329,2.329,0,0,0-.29-1.321,1.277,1.277,0,0,0-1.106-.408,1.736,1.736,0,0,0-1.59.956V0h-3.62V-11.623ZM122.934,0H119.3V-11.623h3.631Zm-3.846-14.62a1.616,1.616,0,0,1,.559-1.268,2.108,2.108,0,0,1,1.45-.494,2.108,2.108,0,0,1,1.45.494,1.616,1.616,0,0,1,.559,1.268,1.616,1.616,0,0,1-.559,1.268,2.108,2.108,0,0,1-1.45.494,2.108,2.108,0,0,1-1.45-.494A1.616,1.616,0,0,1,119.088-14.62ZM130.786.215a5.975,5.975,0,0,1-4.329-1.6A5.509,5.509,0,0,1,124.8-5.532v-.3a7.138,7.138,0,0,1,.661-3.147,4.834,4.834,0,0,1,1.928-2.111,5.821,5.821,0,0,1,3.008-.747,5.031,5.031,0,0,1,3.867,1.52,5.973,5.973,0,0,1,1.418,4.238v1.407h-7.2a2.609,2.609,0,0,0,.849,1.536,2.525,2.525,0,0,0,1.7.559,3.254,3.254,0,0,0,2.686-1.2l1.654,1.955a4.624,4.624,0,0,1-1.917,1.488A6.48,6.48,0,0,1,130.786.215Zm-.408-9.26q-1.59,0-1.891,2.105h3.652v-.279a1.793,1.793,0,0,0-.44-1.348A1.753,1.753,0,0,0,130.378-9.045Zm10.087-2.578.118,1.364a3.942,3.942,0,0,1,3.319-1.579,3.316,3.316,0,0,1,2.712,1.085,5.165,5.165,0,0,1,.929,3.266V0h-3.631V-7.337a1.961,1.961,0,0,0-.354-1.294,1.64,1.64,0,0,0-1.289-.414,1.726,1.726,0,0,0-1.579.838V0h-3.62V-11.623Zm13.3-2.89v2.89h1.912v2.514h-1.912v5.317a1.358,1.358,0,0,0,.236.913,1.268,1.268,0,0,0,.935.258,5.311,5.311,0,0,0,.9-.064V-.1A6.681,6.681,0,0,1,153.8.215a3.792,3.792,0,0,1-2.761-.881,3.61,3.61,0,0,1-.892-2.675V-9.109h-1.482v-2.514h1.482v-2.89Zm2.557,8.594a6.86,6.86,0,0,1,.677-3.1,4.84,4.84,0,0,1,1.944-2.089,5.856,5.856,0,0,1,2.976-.73,5.344,5.344,0,0,1,4.114,1.617,6.2,6.2,0,0,1,1.5,4.4v.129a6.019,6.019,0,0,1-1.509,4.313,5.359,5.359,0,0,1-4.087,1.6,5.42,5.42,0,0,1-3.985-1.488,5.819,5.819,0,0,1-1.622-4.034Zm3.62.226a4.325,4.325,0,0,0,.5,2.363,1.682,1.682,0,0,0,1.493.752q1.934,0,1.977-2.976v-.365q0-3.126-2-3.126-1.815,0-1.966,2.7Z" transform="translate(1078.531 5700)" fill="#12263f"/>
    <g id="sincronizar" transform="translate(649.578 5595.281)">
      <g id="Grupo_81190" data-name="Grupo 81190" transform="translate(22.275 15.17)">
        <g id="Grupo_81189" data-name="Grupo 81189">
          <path id="Trazado_114223" data-name="Trazado 114223" d="M184.068,110.288c0-2.59-6.5-4.69-14.507-4.69s-14.507,2.1-14.507,4.69v33.931c0,6.144,29.015,6.145,29.015,0Z" transform="translate(-155.053 -105.598)" fill="#ffe177" fill-rule="evenodd"/>
          <path id="Trazado_114224" data-name="Trazado 114224" d="M270.508,110.288c0-2.59-6.5-4.69-14.507-4.69v43.23c7.254,0,14.507-1.536,14.507-4.608Z" transform="translate(-241.494 -105.598)" fill="#ffd064" fill-rule="evenodd"/>
          <path id="Trazado_114225" data-name="Trazado 114225" d="M184.068,138.234v8.483c0,6.145-29.015,6.144-29.015,0v-8.483C155.053,144.379,184.068,144.379,184.068,138.234Z" transform="translate(-155.053 -133.544)" fill="#ffd064" fill-rule="evenodd"/>
          <path id="Trazado_114226" data-name="Trazado 114226" d="M270.508,138.234v8.483c0,3.072-7.254,4.608-14.507,4.608v-8.483C263.255,142.842,270.508,141.306,270.508,138.234Z" transform="translate(-241.494 -133.544)" fill="#ffc344" fill-rule="evenodd"/>
          <path id="Trazado_114227" data-name="Trazado 114227" d="M184.068,256.285v8.483c0,6.145-29.015,6.144-29.015,0v-8.483C155.053,262.43,184.068,262.43,184.068,256.285Z" transform="translate(-155.053 -234.629)" fill="#ffd064" fill-rule="evenodd"/>
          <path id="Trazado_114228" data-name="Trazado 114228" d="M270.508,256.285v8.483c0,3.072-7.254,4.608-14.507,4.608v-8.483C263.255,260.894,270.508,259.357,270.508,256.285Z" transform="translate(-241.494 -234.629)" fill="#ffc344" fill-rule="evenodd"/>
        </g>
      </g>
      <path id="Trazado_114229" data-name="Trazado 114229" d="M50.139,53.79V48.634a13.232,13.232,0,0,1-3.071,1.236,39.545,39.545,0,0,1-10.285,1.2A39.553,39.553,0,0,1,26.5,49.87a13.238,13.238,0,0,1-3.071-1.236V53.79c0,.8,1.417,1.706,3.7,2.35a37.841,37.841,0,0,0,9.66,1.108,37.852,37.852,0,0,0,9.661-1.108c2.279-.644,3.7-1.545,3.7-2.35ZM23.426,45.308V40.152A13.3,13.3,0,0,0,26.5,41.388a39.606,39.606,0,0,0,10.285,1.2,39.6,39.6,0,0,0,10.285-1.2,13.3,13.3,0,0,0,3.071-1.236V45.31c0,.8-1.418,1.7-3.7,2.348a37.857,37.857,0,0,1-9.661,1.108,37.785,37.785,0,0,1-9.66-1.109C24.843,47.014,23.426,46.113,23.426,45.308Zm0-8.483c0,.806,1.417,1.706,3.7,2.35a37.792,37.792,0,0,0,9.66,1.109,37.789,37.789,0,0,0,9.661-1.109c2.277-.643,3.693-1.542,3.7-2.347V31.67a13.3,13.3,0,0,1-3.071,1.236,39.614,39.614,0,0,1-10.285,1.2,39.622,39.622,0,0,1-10.285-1.2,13.3,13.3,0,0,1-3.071-1.236v5.155Zm0-8.482V23.188A13.3,13.3,0,0,0,26.5,24.424c.765.216,1.607.4,2.5.563a40.767,40.767,0,0,0,7.782.714,40.844,40.844,0,0,0,7.779-.713c.9-.161,1.738-.349,2.506-.565a13.3,13.3,0,0,0,3.071-1.236v5.158c0,.8-1.418,1.7-3.7,2.347A37.852,37.852,0,0,1,36.782,31.8a37.843,37.843,0,0,1-9.66-1.109c-2.28-.644-3.7-1.544-3.7-2.35Zm0-8.482v.006c.007.385.733,1.338,3.454,2.217a21.983,21.983,0,0,0,2.145.568,42.5,42.5,0,0,0,7.758.667,42.6,42.6,0,0,0,7.742-.664,21.728,21.728,0,0,0,2.161-.571c2.72-.88,3.446-1.832,3.453-2.217v-.006c0-.382-.721-1.339-3.453-2.222a33.574,33.574,0,0,0-9.9-1.318,33.569,33.569,0,0,0-9.9,1.318c-2.733.883-3.454,1.84-3.454,2.222Zm29.013,0V53.79c0,2.021-1.807,3.556-5.371,4.561a39.544,39.544,0,0,1-10.285,1.2,39.546,39.546,0,0,1-10.285-1.2c-3.564-1.006-5.371-2.541-5.371-4.561V19.861c0-3.834,7.877-5.839,15.656-5.839s15.657,2,15.657,5.839ZM68.593,18.3A36.8,36.8,0,0,1,36.851,73.577a37.127,37.127,0,0,1-3.92-.207,36.6,36.6,0,0,1-17.964-6.96l.8,2.792a1.15,1.15,0,1,1-2.212.631l-1.8-6.322a1.15,1.15,0,0,1,1.064-1.464l6.571-.237a1.15,1.15,0,0,1,.083,2.3l-3.564.128A34.487,34.487,0,0,0,66.6,19.459,1.152,1.152,0,0,1,68.593,18.3ZM6.962,54.111a1.15,1.15,0,0,1-1.988,1.157A36.787,36.787,0,0,1,40.634.2,36.574,36.574,0,0,1,58.6,7.162l-.8-2.793a1.15,1.15,0,1,1,2.212-.631l1.8,6.322a1.15,1.15,0,0,1-1.063,1.464l-6.571.236a.4.4,0,0,1-.043,0,1.15,1.15,0,0,1-.04-2.3l3.564-.128a34.489,34.489,0,0,0-50.7,44.778Z" transform="translate(0 0)" fill-rule="evenodd"/>
    </g>
    <g id="XMLID_1239_" transform="translate(1144.645 5597.813)">
      <path id="XMLID_3760_" d="M65.145,23.546A16.264,16.264,0,0,0,35.473,17.4,13.359,13.359,0,0,0,17.017,29.744a13.447,13.447,0,0,0,.172,2.143A10.444,10.444,0,0,0,20.45,52.252H64.943a14.354,14.354,0,0,0,.2-28.706Z" transform="translate(-8.592 -8.592)" fill="#fff"/>
      <circle id="XMLID_3934_" cx="3.38" cy="3.38" r="3.38" transform="translate(32.68 63.941)" fill="#ff9b9b"/>
      <path id="XMLID_3309_" d="M149.75,338.407H114.823a2.817,2.817,0,0,1-2.817-2.817v-6.76a2.817,2.817,0,0,1,2.817-2.817H149.75a2.817,2.817,0,0,1,2.817,2.817v6.76A2.817,2.817,0,0,1,149.75,338.407Z" transform="translate(-96.226 -280.099)" fill="#79dfef"/>
      <path id="XMLID_3135_" d="M149.75,250.407H114.823a2.817,2.817,0,0,1-2.817-2.817v-6.76a2.817,2.817,0,0,1,2.817-2.817H149.75a2.817,2.817,0,0,1,2.817,2.817v6.76A2.817,2.817,0,0,1,149.75,250.407Z" transform="translate(-96.226 -204.492)" fill="#e5fff4"/>
      <path id="XMLID_1752_" d="M149.75,162.407H114.823a2.817,2.817,0,0,1-2.817-2.817v-6.76a2.817,2.817,0,0,1,2.817-2.817H149.75a2.817,2.817,0,0,1,2.817,2.817v6.76A2.817,2.817,0,0,1,149.75,162.407Z" transform="translate(-96.226 -128.886)" fill="#13b770"/>
      <g id="XMLID_296_" transform="translate(0.006 0)">
        <path id="XMLID_297_" d="M162.24,360.013H149.33a1.408,1.408,0,1,0,0,2.817h12.91a1.408,1.408,0,1,0,0-2.817Z" transform="translate(-127.09 -309.31)"/>
        <path id="XMLID_298_" d="M293.114,360.016a1.409,1.409,0,1,0,1,.413A1.413,1.413,0,0,0,293.114,360.016Z" transform="translate(-250.624 -309.313)"/>
        <path id="XMLID_299_" d="M345.494,360.016a1.409,1.409,0,1,0,1,.413A1.413,1.413,0,0,0,345.494,360.016Z" transform="translate(-295.627 -309.313)"/>
        <path id="XMLID_300_" d="M162.24,272.013H149.33a1.408,1.408,0,1,0,0,2.817h12.91a1.408,1.408,0,1,0,0-2.817Z" transform="translate(-127.09 -233.704)"/>
        <path id="XMLID_301_" d="M293.114,272.016a1.409,1.409,0,1,0,1,.413A1.413,1.413,0,0,0,293.114,272.016Z" transform="translate(-250.624 -233.706)"/>
        <path id="XMLID_302_" d="M345.494,272.016a1.409,1.409,0,1,0,1,.413A1.413,1.413,0,0,0,345.494,272.016Z" transform="translate(-295.627 -233.706)"/>
        <path id="XMLID_303_" d="M162.24,184.013H149.33a1.408,1.408,0,1,0,0,2.817h12.91a1.408,1.408,0,0,0,0-2.817Z" transform="translate(-127.09 -158.097)"/>
        <path id="XMLID_304_" d="M293.114,186.833a1.409,1.409,0,1,0-1-.413A1.419,1.419,0,0,0,293.114,186.833Z" transform="translate(-250.624 -158.1)"/>
        <path id="XMLID_305_" d="M345.494,186.833a1.409,1.409,0,1,0-1-.413A1.422,1.422,0,0,0,345.494,186.833Z" transform="translate(-295.627 -158.1)"/>
        <path id="XMLID_308_" d="M72.114,29.306a15.764,15.764,0,0,0-14.4-15.7,17.672,17.672,0,0,0-31.368-6.49A14.77,14.77,0,0,0,7.017,21.152c0,.407.017.815.051,1.222a11.853,11.853,0,0,0,4.79,22.694h3a4.24,4.24,0,0,0,.59.846,4.208,4.208,0,0,0-1.079,2.817v6.76A4.23,4.23,0,0,0,18.6,59.716H34.652v3.028a4.809,4.809,0,0,0-3.168,3.168H15.78a1.408,1.408,0,0,0,0,2.817h15.7a4.789,4.789,0,0,0,9.153,0h15.7a1.408,1.408,0,1,0,0-2.817h-15.7a4.809,4.809,0,0,0-3.168-3.168V59.716H53.524a4.23,4.23,0,0,0,4.225-4.225v-6.76a4.208,4.208,0,0,0-1.079-2.817,4.242,4.242,0,0,0,.6-.873A15.782,15.782,0,0,0,72.114,29.306ZM36.06,69.293a1.972,1.972,0,1,1,1.972-1.972A1.974,1.974,0,0,1,36.06,69.293ZM17.188,43.1v-6.76A1.41,1.41,0,0,1,18.6,34.929H53.524a1.41,1.41,0,0,1,1.408,1.408V43.1a1.41,1.41,0,0,1-1.408,1.408H18.6A1.41,1.41,0,0,1,17.188,43.1ZM2.823,33.217a9.017,9.017,0,0,1,6.214-8.584,1.408,1.408,0,0,0,.951-1.562A11.951,11.951,0,0,1,21.778,9.208a11.872,11.872,0,0,1,4.564.9,1.408,1.408,0,0,0,1.719-.533,14.855,14.855,0,0,1,27.1,5.609,1.408,1.408,0,0,0,1.369,1.175,12.945,12.945,0,0,1,1.215,25.814V36.337a4.208,4.208,0,0,0-1.079-2.817A4.208,4.208,0,0,0,57.749,30.7v-6.76a4.23,4.23,0,0,0-4.225-4.225h-11.1a1.408,1.408,0,1,0,0,2.817h11.1a1.41,1.41,0,0,1,1.408,1.408V30.7a1.41,1.41,0,0,1-1.408,1.408H18.6A1.41,1.41,0,0,1,17.188,30.7v-6.76A1.41,1.41,0,0,1,18.6,22.535H29.753a1.408,1.408,0,1,0,0-2.817H18.6a4.23,4.23,0,0,0-4.225,4.225V30.7a4.208,4.208,0,0,0,1.079,2.817,4.208,4.208,0,0,0-1.079,2.817v5.915H11.858a9.046,9.046,0,0,1-9.035-9.035ZM54.932,55.491A1.41,1.41,0,0,1,53.524,56.9H18.6a1.41,1.41,0,0,1-1.408-1.408v-6.76A1.41,1.41,0,0,1,18.6,47.323H53.524a1.41,1.41,0,0,1,1.408,1.408Z" transform="translate(-0.006 0)"/>
        <path id="XMLID_312_" d="M247.634,142.923a1.407,1.407,0,1,0-1-.413A1.419,1.419,0,0,0,247.634,142.923Z" transform="translate(-211.549 -120.374)"/>
      </g>
    </g>
    <g id="Layer_33" data-name="Layer 33" transform="translate(388 5599)">
      <path id="Trazado_114230" data-name="Trazado 114230" d="M16,47V59.5c0,2.761,8.952,5,20,5s20-2.238,20-5V47Z" transform="translate(3.496 11.238)" fill="#eecf52"/>
      <ellipse id="Elipse_4726" data-name="Elipse 4726" cx="19.603" cy="4.815" rx="19.603" ry="4.815" transform="translate(19.895 53.586)" fill="#eecf52"/>
      <path id="Trazado_114231" data-name="Trazado 114231" d="M42.5,25.5H25V3H35l7.5,7.5Z" transform="translate(5.744 0.25)" fill="#fff"/>
      <path id="Trazado_114232" data-name="Trazado 114232" d="M33,3v7.5h7.5Z" transform="translate(7.741 0.25)" fill="#baced3"/>
      <path id="Trazado_114233" data-name="Trazado 114233" d="M43,3H65.5V25.5H43Z" transform="translate(10.239 0.25)" fill="#fff"/>
      <g id="Grupo_81191" data-name="Grupo 81191" transform="translate(3.25 3.25)">
        <path id="Trazado_114234" data-name="Trazado 114234" d="M3,3H25.5V25.5H3Z" transform="translate(-3 -3)" fill="#fff"/>
      </g>
      <path id="Trazado_114235" data-name="Trazado 114235" d="M3,16.5,10.5,9l15,15H3Z" transform="translate(0.25 1.748)" fill="#13b770"/>
      <path id="Trazado_114236" data-name="Trazado 114236" d="M13,14l5-5,5,5V24Z" transform="translate(2.747 1.748)" fill="#13b770"/>
      <path id="Trazado_114237" data-name="Trazado 114237" d="M36.245,42C28.9,42,15,43.306,15,48.249v12.5c0,4.943,13.9,6.249,21.245,6.249s21.245-1.306,21.245-6.249v-12.5C57.491,43.306,43.594,42,36.245,42Zm0,22.5C24.068,64.5,17.5,61.834,17.5,60.746V51.437C21.772,53.787,30.587,54.5,36.245,54.5a72.315,72.315,0,0,0,10.178-.682l-.36-2.472A70.209,70.209,0,0,1,36.245,52C24.518,52,17.809,49.566,17.5,48.261v-.012c0-1.089,6.569-3.749,18.746-3.749s18.746,2.661,18.746,3.749c-.045.3-1.276,1.625-6.5,2.673l.5,2.451a21.854,21.854,0,0,0,6-1.936v9.309c0,1.089-6.569,3.749-18.746,3.749Z" transform="translate(3.246 9.989)"/>
      <path id="Trazado_114238" data-name="Trazado 114238" d="M25.25,26.994h7.5V45.223l-1.616-1.616-1.767,1.767,3.749,3.749a1.25,1.25,0,0,0,1.767,0l3.749-3.749-1.767-1.767-1.616,1.616V26.994h7.5A1.25,1.25,0,0,0,44,25.745v-15a1.25,1.25,0,0,0-.366-.883l-7.5-7.5A1.25,1.25,0,0,0,35.248,2h-10A1.25,1.25,0,0,0,24,3.25v22.5a1.25,1.25,0,0,0,1.25,1.25ZM36.5,6.267,39.729,9.5H36.5ZM26.5,4.5H34v6.249A1.25,1.25,0,0,0,35.248,12H41.5V24.5h-15Z" transform="translate(5.494 0)"/>
      <path id="Trazado_114239" data-name="Trazado 114239" d="M28,12H38v2.5H28Z" transform="translate(6.493 2.497)"/>
      <path id="Trazado_114240" data-name="Trazado 114240" d="M28,16H38v2.5H28Z" transform="translate(6.493 3.496)"/>
      <path id="Trazado_114241" data-name="Trazado 114241" d="M66.67,2h-22.5a1.25,1.25,0,0,0-1.25,1.25v22.5a1.25,1.25,0,0,0,1.25,1.25h10v10H42.926a1.25,1.25,0,0,0-1.25,1.25v6.981L40.06,43.607l-1.767,1.767,3.749,3.749a1.25,1.25,0,0,0,1.767,0l3.749-3.749-1.767-1.767-1.616,1.616V39.492H55.423a1.25,1.25,0,0,0,1.25-1.25V26.994h10a1.25,1.25,0,0,0,1.25-1.25V3.25A1.25,1.25,0,0,0,66.67,2Zm-1.25,22.5h-20V4.5h20Z" transform="translate(9.063 0)"/>
      <path id="Trazado_114242" data-name="Trazado 114242" d="M48.749,22.5A3.749,3.749,0,0,0,52.5,18.747V12.352l7.5-.937v2.563a3.707,3.707,0,0,0-1.25-.23A3.749,3.749,0,1,0,62.5,17.5V6.25a1.25,1.25,0,0,0-1.4-1.24l-10,1.25A1.25,1.25,0,0,0,50,7.5v7.728a3.707,3.707,0,0,0-1.25-.23,3.749,3.749,0,1,0,0,7.5Zm10-3.749A1.25,1.25,0,1,1,60,17.5,1.25,1.25,0,0,1,58.747,18.747ZM60,7.666V8.9l-7.5.937V8.6ZM48.749,17.5a1.25,1.25,0,1,1-1.25,1.25A1.25,1.25,0,0,1,48.749,17.5Z" transform="translate(10.738 0.749)"/>
      <path id="Trazado_114243" data-name="Trazado 114243" d="M25.745,45.223l-1.616-1.616-1.767,1.767,3.749,3.749a1.25,1.25,0,0,0,1.767,0l3.749-3.749L29.86,43.607l-1.616,1.616V38.242a1.25,1.25,0,0,0-1.25-1.25H15.747v-10h10a1.25,1.25,0,0,0,1.25-1.25V3.25A1.25,1.25,0,0,0,25.745,2H3.25A1.25,1.25,0,0,0,2,3.25v22.5a1.25,1.25,0,0,0,1.25,1.25h10V38.242a1.25,1.25,0,0,0,1.25,1.25H25.745Zm-1.25-22.5-.366-.366-6.615-6.615,3.232-3.232L24.5,16.264ZM24.5,4.5V12.73L21.629,9.865a1.25,1.25,0,0,0-1.767,0L15.747,13.98,11.632,9.865a1.25,1.25,0,0,0-1.767,0L4.5,15.23V4.5ZM4.5,18.764l6.249-6.249,4.115,4.115,7.5,7.5.366.366H4.5Z" transform="translate(0 0)"/>
    </g>
    <g id="Layer_33-2" data-name="Layer 33" transform="translate(901.391 5590.951)">
      <path id="Trazado_114247" data-name="Trazado 114247" d="M26.77,12.745A26.212,26.212,0,0,0,25.1,60.032L37.225,36.791Z" transform="translate(2.24 2.674)" fill="#79dfef"/>
      <path id="Trazado_114248" data-name="Trazado 114248" d="M34.083,11a26.133,26.133,0,0,0-10.455,2.179L34.083,37.225H60.309A26.225,26.225,0,0,0,34.083,11Z" transform="translate(5.382 2.239)" fill="#eecf52"/>
      <path id="Trazado_114249" data-name="Trazado 114249" d="M22.29,55.241A26.205,26.205,0,0,0,60.642,32H34.416Z" transform="translate(5.049 7.465)" fill="#13b770"/>
      <path id="Trazado_114250" data-name="Trazado 114250" d="M37,49h9.991V63.986H37Z" transform="translate(8.709 11.695)" fill="#79dfef"/>
      <path id="Trazado_114251" data-name="Trazado 114251" d="M45,43h9.991V65.479H45Z" transform="translate(10.7 10.202)" fill="#eecf52"/>
      <path id="Trazado_114252" data-name="Trazado 114252" d="M53,37h9.991V66.972H53Z" transform="translate(12.69 8.709)" fill="#e5fff4"/>
      <path id="Trazado_114253" data-name="Trazado 114253" d="M63.737,2H51.249A1.249,1.249,0,0,0,50,3.249v5a1.249,1.249,0,0,0,1.249,1.249H63.737a1.249,1.249,0,0,0,1.249-1.249v-5A1.249,1.249,0,0,0,63.737,2ZM62.488,7H52.5V4.5h9.991Z" transform="translate(11.944 0)"/>
      <path id="Trazado_114254" data-name="Trazado 114254" d="M3.249,15.493H15.737a1.249,1.249,0,0,0,1.249-1.249v-5A1.249,1.249,0,0,0,15.737,8H3.249A1.249,1.249,0,0,0,2,9.249v5a1.249,1.249,0,0,0,1.249,1.249Zm1.249-5h9.991V13H4.5Z" transform="translate(0 1.493)"/>
      <path id="Trazado_114255" data-name="Trazado 114255" d="M15.737,56H3.249A1.249,1.249,0,0,0,2,57.249v5a1.249,1.249,0,0,0,1.249,1.249H15.737a1.249,1.249,0,0,0,1.249-1.249v-5A1.249,1.249,0,0,0,15.737,56Zm-1.249,5H4.5V58.5h9.991Z" transform="translate(0 13.437)"/>
      <path id="Trazado_114256" data-name="Trazado 114256" d="M52.781,10.366,40.293,22.854l1.766,1.766L54.181,12.5H67.4V10H53.664a1.249,1.249,0,0,0-.883.366Z" transform="translate(9.528 1.991)"/>
      <path id="Trazado_114257" data-name="Trazado 114257" d="M54,14h9.991v2.5H54Z" transform="translate(12.939 2.986)"/>
      <path id="Trazado_114258" data-name="Trazado 114258" d="M52,18H64.488v2.5H52Z" transform="translate(12.441 3.981)"/>
      <path id="Trazado_114259" data-name="Trazado 114259" d="M27.342,30.62l1.766-1.766L16.62,16.366A1.249,1.249,0,0,0,15.737,16H2v2.5H15.22Z" transform="translate(0 3.484)"/>
      <path id="Trazado_114260" data-name="Trazado 114260" d="M2,20h8.742v2.5H2Z" transform="translate(0 4.479)"/>
      <path id="Trazado_114261" data-name="Trazado 114261" d="M26.385,15.1l9.707,22.325L24.834,59a24.963,24.963,0,0,1-9.325-33.419l-2.194-1.194a27.513,27.513,0,0,0,15,38.986l.837-2.353c-.711-.25-1.414-.541-2.1-.858L38.232,38.722H63.7a1.249,1.249,0,0,0,1.249-1.249A27.483,27.483,0,0,0,58.41,19.68L56.5,21.3A24.976,24.976,0,0,1,62.42,36.225H38.294L35.487,29.77,28.676,14.1a25.211,25.211,0,0,1,21.882,2.089l1.309-2.123A27.468,27.468,0,0,0,18.26,17.852l1.748,1.786A24.94,24.94,0,0,1,26.385,15.1Z" transform="translate(1.99 1.991)"/>
      <path id="Trazado_114262" data-name="Trazado 114262" d="M68.216,36H58.225a1.249,1.249,0,0,0-1.249,1.249v6.244H48.235a1.249,1.249,0,0,0-1.249,1.249v6.244H38.244A1.249,1.249,0,0,0,37,52.235v3.237a25.129,25.129,0,0,1-5,.51v2.5a27.7,27.7,0,0,0,5-.456v9.2a1.249,1.249,0,0,0,1.249,1.249H68.216a1.249,1.249,0,0,0,1.249-1.249V37.249A1.249,1.249,0,0,0,68.216,36ZM39.493,53.484h7.493V65.972H39.493Zm9.991-1.249V45.991h7.493V65.972H49.484ZM66.967,65.972H59.474V38.5h7.493Z" transform="translate(7.465 8.46)"/>
      <path id="Trazado_114263" data-name="Trazado 114263" d="M25.474,57.669H16v2.5h9.991a1.249,1.249,0,0,0,.883-.366l8.742-8.742-1.766-1.766Z" transform="translate(3.484 11.768)"/>
      <path id="Trazado_114264" data-name="Trazado 114264" d="M16,60h9.991v2.5H16Z" transform="translate(3.484 14.432)"/>
    </g>
  </g>
</svg>
