<svg xmlns="http://www.w3.org/2000/svg" width="105" height="105" viewBox="0 0 105 105">
  <g id="Grupo_85452" data-name="Grupo 85452" transform="translate(-760 -4206)">
    <circle id="Elipse_4744" data-name="Elipse 4744" cx="52.5" cy="52.5" r="52.5" transform="translate(760 4206)" fill="#fff"/>
    <path id="Trazado_119107" data-name="Trazado 119107" d="M-8.035-11.807l1.478-12.365H7.57v4.35H-2.009l-.548,4.8a6.6,6.6,0,0,1,1.569-.617,7.158,7.158,0,0,1,1.9-.267A7.091,7.091,0,0,1,6.45-13.771,8.593,8.593,0,0,1,8.384-7.786,8.578,8.578,0,0,1,7.346-3.578a7.132,7.132,0,0,1-2.914,2.9A9.2,9.2,0,0,1,0,.332,9.9,9.9,0,0,1-4.267-.605,7.654,7.654,0,0,1-7.388-3.176,6.248,6.248,0,0,1-8.5-6.867h5.611a3.174,3.174,0,0,0,.847,2.1,2.687,2.687,0,0,0,2.009.779q2.822,0,2.822-4.175,0-3.86-3.453-3.86A3.446,3.446,0,0,0-3.586-10.76Z" transform="translate(813 4271)" fill="#1a1a52"/>
  </g>
</svg>
