<svg xmlns="http://www.w3.org/2000/svg" width="210" height="210" viewBox="0 0 210 210">
  <g id="Grupo_82594" data-name="Grupo 82594" transform="translate(-985 -4768)">
    <rect id="Rectángulo_35034" data-name="Rectángulo 35034" width="210" height="210" rx="105" transform="translate(985 4768)" fill="#e5fff4"/>
    <g id="_11-best_price" data-name="11-best price" transform="translate(1020 4803.001)">
      <circle id="Elipse_4782" data-name="Elipse 4782" cx="46" cy="46" r="46" transform="translate(46 1.999)" fill="#ebd557"/>
      <ellipse id="Elipse_4783" data-name="Elipse 4783" cx="37" cy="37.5" rx="37" ry="37.5" transform="translate(55 10.999)" fill="#fcea81"/>
      <path id="Trazado_115771" data-name="Trazado 115771" d="M53.743,35.711H49.355a6.581,6.581,0,0,1,0-13.162H64.711a4.387,4.387,0,0,0,0-8.775H55.936V5H47.162v8.95a15.355,15.355,0,0,0,2.194,30.535h4.387a6.581,6.581,0,1,1,0,13.162H38.387a4.387,4.387,0,1,0,0,8.775h8.775V75.2h8.775v-8.95a15.355,15.355,0,0,0-2.194-30.535Z" transform="translate(40.583 5.97)" fill="#d7986c"/>
      <path id="Trazado_115772" data-name="Trazado 115772" d="M70.228,68.873H68.034a6.581,6.581,0,0,1,0,13.162H65.841a6.581,6.581,0,0,1,0,13.162H63.647a6.581,6.581,0,1,1,0,13.162H26.355L11,103.971V64.485c6.581,0,10.968-8.775,10.968-8.775L30.743,25s10.968,0,10.968,13.162L39.517,55.711H70.228a6.581,6.581,0,0,1,0,13.162Z" transform="translate(13.13 29.842)" fill="#e7cea0"/>
      <path id="Trazado_115773" data-name="Trazado 115773" d="M1,41H22.936V89.26H1Z" transform="translate(1.194 48.94)" fill="#13b770"/>
      <path id="Trazado_115774" data-name="Trazado 115774" d="M92.132,63.486a8.775,8.775,0,0,0-8.775-8.775H55.126l1.908-15.092a1.074,1.074,0,0,0,0-.263C57.034,27.2,48.435,24,43.873,24a2.194,2.194,0,0,0-2.194,1.6L32.9,56.072a16.825,16.825,0,0,1-6.581,6.954V61.293A2.194,2.194,0,0,0,24.13,59.1H2.194A2.194,2.194,0,0,0,0,61.293v48.26a2.194,2.194,0,0,0,2.194,2.194H24.13a2.194,2.194,0,0,0,2.194-2.194v-1.47l12.569,3.663a1.755,1.755,0,0,0,.592,0H76.777a8.775,8.775,0,0,0,6.581-14.434A8.775,8.775,0,0,0,85.552,84.15a8.775,8.775,0,0,0,2.194-13.162A8.774,8.774,0,0,0,92.132,63.486Zm-70.2,43.873H4.387V63.486H21.936Zm54.841,0H39.792L26.324,103.52V67.61C32.9,66.1,36.875,58.265,37.05,57.892A2.938,2.938,0,0,0,37.2,57.5l8.27-28.912c2.567.57,7.129,2.7,7.173,10.639L50.453,56.642A2.189,2.189,0,0,0,52.647,59.1H83.358a4.387,4.387,0,0,1,0,8.775H72.39a2.194,2.194,0,0,0,0,4.387h8.775a4.387,4.387,0,1,1,0,8.775H70.2a2.194,2.194,0,0,0,0,4.387h8.775a4.387,4.387,0,1,1,0,8.775H68a2.194,2.194,0,0,0,0,4.387h8.775a4.387,4.387,0,0,1,0,8.775Z" transform="translate(0 28.648)"/>
      <path id="Trazado_115775" data-name="Trazado 115775" d="M14.194,19.775h2.194v2.194a2.194,2.194,0,0,0,4.387,0V19.775h2.194a2.194,2.194,0,1,0,0-4.387H20.775V13.194a2.194,2.194,0,1,0-4.387,0v2.194H14.194a2.194,2.194,0,0,0,0,4.387Z" transform="translate(14.324 13.131)"/>
      <path id="Trazado_115776" data-name="Trazado 115776" d="M59.968,52.387H57.775V50.194a2.194,2.194,0,1,0-4.387,0v2.194H51.194a2.194,2.194,0,0,0,0,4.387h2.194v2.194a2.194,2.194,0,1,0,4.387,0V56.775h2.194a2.194,2.194,0,0,0,0-4.387Z" transform="translate(58.488 57.296)"/>
      <path id="Trazado_115777" data-name="Trazado 115777" d="M68.26,0A48.26,48.26,0,0,0,20,48.261a2.194,2.194,0,1,0,4.387,0,43.873,43.873,0,1,1,52.23,43.083,2.2,2.2,0,0,0,.417,4.387h.417A48.26,48.26,0,0,0,68.26,0Z" transform="translate(23.873 0)"/>
      <path id="Trazado_115778" data-name="Trazado 115778" d="M72.485,52.26A17.549,17.549,0,0,0,54.936,34.711H50.549a4.387,4.387,0,0,1,0-8.775H65.9a6.581,6.581,0,1,0,0-13.162H59.324V6.194A2.194,2.194,0,0,0,57.13,4H48.355a2.194,2.194,0,0,0-2.194,2.194v7.151a17.549,17.549,0,0,0,4.387,34.528h4.387a4.387,4.387,0,0,1,0,8.775H39.581a6.581,6.581,0,1,0,0,13.162h6.581V76.39a2.194,2.194,0,0,0,2.194,2.194H57.13a2.194,2.194,0,0,0,2.194-2.194V69.239A17.549,17.549,0,0,0,72.485,52.26ZM56.823,65.268a2.194,2.194,0,0,0-1.887,2.194V74.2H50.549V67.615a2.194,2.194,0,0,0-2.194-2.194H39.581a2.194,2.194,0,1,1,0-4.387H54.936a8.775,8.775,0,0,0,0-17.549H50.549a13.162,13.162,0,0,1-1.887-26.17,2.194,2.194,0,0,0,1.887-2.194V8.387h4.387v6.581a2.194,2.194,0,0,0,2.194,2.194H65.9a2.194,2.194,0,1,1,0,4.387H50.549a8.775,8.775,0,0,0,0,17.549h4.387a13.162,13.162,0,0,1,1.887,26.17Z" transform="translate(39.39 4.776)"/>
    </g>
  </g>
</svg>
