<svg xmlns="http://www.w3.org/2000/svg" width="105" height="105" viewBox="0 0 105 105">
  <g id="Grupo_85456" data-name="Grupo 85456" transform="translate(-1275 -4206)">
    <circle id="Elipse_4748" data-name="Elipse 4748" cx="52.5" cy="52.5" r="52.5" transform="translate(1275 4206)" fill="#fff"/>
    <path id="Trazado_119111" data-name="Trazado 119111" d="M2.656-9.347A5.909,5.909,0,0,1-1.395-7.72,6.541,6.541,0,0,1-6.607-9.944a8.764,8.764,0,0,1-1.926-5.943A8.92,8.92,0,0,1-7.454-20.2a8.1,8.1,0,0,1,3.03-3.154A8.26,8.26,0,0,1-.116-24.521a8.019,8.019,0,0,1,4.325,1.2,8.1,8.1,0,0,1,3.013,3.4,11.691,11.691,0,0,1,1.112,5.072V-12.7A14.531,14.531,0,0,1,6.765-5.761,10.83,10.83,0,0,1,2.291-1.245,13.98,13.98,0,0,1-4.482.332h-.349V-4.15l1.063-.017Q2.009-4.449,2.656-9.347ZM.116-11.754a2.724,2.724,0,0,0,2.623-1.577v-2.324a6.043,6.043,0,0,0-.78-3.437A2.447,2.447,0,0,0-.149-20.2a2.313,2.313,0,0,0-1.976,1.262,5.605,5.605,0,0,0-.8,3.055,5.026,5.026,0,0,0,.813,3.013A2.6,2.6,0,0,0,.116-11.754Z" transform="translate(1328 4271)" fill="#1a1a52"/>
  </g>
</svg>
