<svg xmlns="http://www.w3.org/2000/svg" width="94.599" height="94.599" viewBox="0 0 94.599 94.599">
  <g id="search" transform="translate(0.001)">
    <g id="Grupo_82456" data-name="Grupo 82456" transform="translate(1.477 1.478)">
      <path id="Trazado_115492" data-name="Trazado 115492" d="M0,0H7.41V10.513H0Z" transform="translate(67.665 66.269) rotate(-45)" fill="#e6e2e6"/>
      <path id="Trazado_115493" data-name="Trazado 115493" d="M0,0H7.41V10.513H0Z" transform="translate(67.665 66.269) rotate(-45)" fill="#ecdaec"/>
      <path id="Trazado_115494" data-name="Trazado 115494" d="M0,0H3.528V10.513H0Z" transform="translate(67.665 66.269) rotate(-45)" fill="#e2cbe2"/>
      <path id="Trazado_115495" data-name="Trazado 115495" d="M8,10.771A2.772,2.772,0,0,1,10.771,8H57.414L74.586,25.171v71.7a2.772,2.772,0,0,1-2.771,2.771H10.771A2.772,2.772,0,0,1,8,96.871Z" transform="translate(-8 -8)" fill="#f9f6f6"/>
      <path id="Trazado_115496" data-name="Trazado 115496" d="M71.814,473.771H10.771A2.771,2.771,0,0,1,8,471v3.326a2.771,2.771,0,0,0,2.771,2.771H71.814a2.771,2.771,0,0,0,2.771-2.771V471A2.771,2.771,0,0,1,71.814,473.771Z" transform="translate(-8 -385.454)" fill="#ecdaec"/>
      <g id="Grupo_82454" data-name="Grupo 82454" transform="translate(33.526)">
        <path id="Trazado_115497" data-name="Trazado 115497" d="M278.216,25.171h14.4L275.445,8V22.4A2.772,2.772,0,0,0,278.216,25.171Z" transform="translate(-259.557 -8)" fill="#e2cbe2"/>
        <path id="Trazado_115498" data-name="Trazado 115498" d="M278.216,25.171h14.4L275.445,8V22.4A2.772,2.772,0,0,0,278.216,25.171Z" transform="translate(-259.557 -8)" fill="#e2cbe2"/>
        <circle id="Elipse_4759" data-name="Elipse 4759" cx="23" cy="23" r="23" transform="translate(0 26.874)" fill="#e2cbe2"/>
      </g>
      <path id="Trazado_115499" data-name="Trazado 115499" d="M228.718,283.539a23,23,0,0,1-39.2-14.6,23,23,0,1,0,45.88,0A22.91,22.91,0,0,1,228.718,283.539Z" transform="translate(-155.928 -220.726)" fill="#dab9d8"/>
      <circle id="Elipse_4760" data-name="Elipse 4760" cx="16.653" cy="16.653" r="16.653" transform="translate(39.873 33.221)" fill="#ffe27a"/>
      <path id="Trazado_115500" data-name="Trazado 115500" d="M252.241,279.05A16.652,16.652,0,0,1,223.9,268.937a16.652,16.652,0,1,0,33.138,0A16.582,16.582,0,0,1,252.241,279.05Z" transform="translate(-183.939 -220.725)" fill="#f9cf58"/>
      <path id="Trazado_115501" data-name="Trazado 115501" d="M276.163,256.529a2.9,2.9,0,0,1-2.03-.824l-3.821-3.716a2.912,2.912,0,1,1,4.06-4.175l1.737,1.689,5.218-5.35a2.912,2.912,0,0,1,4.17,4.066l-7.248,7.432a2.9,2.9,0,0,1-2.085.879Z" transform="translate(-221.127 -199.803)" fill="#98db7c"/>
      <path id="Trazado_115502" data-name="Trazado 115502" d="M285.505,250.4l-7.248,7.432a2.912,2.912,0,0,1-4.115.055l-3.821-3.716a2.926,2.926,0,0,1-.358-.423,2.91,2.91,0,0,0,.358,3.749l3.821,3.716a2.912,2.912,0,0,0,4.115-.055l7.248-7.432a2.912,2.912,0,0,0,.3-3.7,2.924,2.924,0,0,1-.3.372Z" transform="translate(-221.136 -205.307)" fill="#82d361"/>
      <path id="Trazado_115503" data-name="Trazado 115503" d="M416.253,372.946l-7.307,7.307L417.688,389A5.167,5.167,0,0,0,425,381.688Z" transform="translate(-334.866 -305.517)" fill="#13b770"/>
      <g id="Grupo_82455" data-name="Grupo 82455" transform="translate(9.476 25.505)">
        <path id="Trazado_115505" data-name="Trazado 115505" d="M67.062,155.529H61a1.714,1.714,0,0,1-1.714-1.714v-6.062A1.714,1.714,0,0,1,61,146.039h6.062a1.714,1.714,0,0,1,1.714,1.714v6.062A1.714,1.714,0,0,1,67.062,155.529Z" transform="translate(-59.286 -146.039)" fill="#98db7c"/>
        <path id="Trazado_115506" data-name="Trazado 115506" d="M67.062,260.691H61a1.714,1.714,0,0,1-1.714-1.714v-6.062A1.714,1.714,0,0,1,61,251.2h6.062a1.714,1.714,0,0,1,1.714,1.714v6.062A1.714,1.714,0,0,1,67.062,260.691Z" transform="translate(-59.286 -231.771)" fill="#98db7c"/>
        <path id="Trazado_115507" data-name="Trazado 115507" d="M67.062,367.988H61a1.714,1.714,0,0,1-1.714-1.714v-6.062A1.714,1.714,0,0,1,61,358.5h6.062a1.714,1.714,0,0,1,1.714,1.714v6.062A1.714,1.714,0,0,1,67.062,367.988Z" transform="translate(-59.286 -319.243)" fill="#98db7c"/>
      </g>
      <path id="Trazado_115508" data-name="Trazado 115508" d="M67.062,171.842H61a1.714,1.714,0,0,1-1.714-1.714v3.326A1.714,1.714,0,0,0,61,175.168h6.062a1.714,1.714,0,0,0,1.714-1.714v-3.326A1.714,1.714,0,0,1,67.062,171.842Z" transform="translate(-49.81 -140.173)" fill="#82d361"/>
      <path id="Trazado_115509" data-name="Trazado 115509" d="M67.062,277H61a1.714,1.714,0,0,1-1.714-1.714v3.326A1.714,1.714,0,0,0,61,280.329h6.062a1.714,1.714,0,0,0,1.714-1.714v-3.326A1.714,1.714,0,0,1,67.062,277Z" transform="translate(-49.81 -225.904)" fill="#82d361"/>
      <path id="Trazado_115510" data-name="Trazado 115510" d="M67.062,384.3H61a1.714,1.714,0,0,1-1.714-1.714v3.326A1.714,1.714,0,0,0,61,387.626h6.062a1.714,1.714,0,0,0,1.714-1.714v-3.326A1.714,1.714,0,0,1,67.062,384.3Z" transform="translate(-49.81 -313.376)" fill="#82d361"/>
      <path id="Trazado_115511" data-name="Trazado 115511" d="M275.445,85.937v3.326a2.772,2.772,0,0,0,2.771,2.771h14.4V88.708h-14.4A2.772,2.772,0,0,1,275.445,85.937Z" transform="translate(-226.031 -71.537)" fill="#ecdaec"/>
    </g>
    <g id="Grupo_82457" data-name="Grupo 82457" transform="translate(-0.001 0)">
      <path id="Trazado_115512" data-name="Trazado 115512" d="M270.121,251.8a4.274,4.274,0,0,0,3.083-1.3l7.263-7.447a4.306,4.306,0,0,0-6.166-6.013l-4.261,4.368-.746-.726a4.306,4.306,0,1,0-6,6.174l3.829,3.723A4.284,4.284,0,0,0,270.121,251.8Zm-4.926-9.1a1.532,1.532,0,0,1,2.163-.03l1.74,1.692a1.389,1.389,0,0,0,1.962-.026l5.229-5.361a1.529,1.529,0,0,1,2.19,2.135l-7.263,7.447a1.537,1.537,0,0,1-2.161.029l-3.829-3.723a1.531,1.531,0,0,1-.03-2.162Z" transform="translate(-213.582 -192.187)"/>
      <path id="Trazado_115513" data-name="Trazado 115513" d="M222.069,207.468a1.389,1.389,0,0,0-2.217,1.672,18.3,18.3,0,0,0,1.662,1.91,18.062,18.062,0,1,0-4.437-7.27,1.389,1.389,0,0,0,2.646-.844,15.311,15.311,0,1,1,3.756,6.151,15.546,15.546,0,0,1-1.409-1.619Z" transform="translate(-176.263 -146.909)"/>
      <path id="Trazado_115514" data-name="Trazado 115514" d="M92.688,76.727l-8.761-8.759a1.389,1.389,0,0,0-1.964,0l-.054.054L78.538,64.65A24.394,24.394,0,0,0,82.42,52.906a1.389,1.389,0,0,0-2.772-.175,21.64,21.64,0,0,1-21.6,20.275h-.131A21.647,21.647,0,1,1,79.351,47.52a1.389,1.389,0,0,0,2.734-.49A24.451,24.451,0,0,0,69.5,29.784V18.593a1.406,1.406,0,0,0-.407-.982L51.887.407A1.407,1.407,0,0,0,50.905,0H4.165A4.17,4.17,0,0,0,0,4.165v11.67a1.389,1.389,0,0,0,2.777,0V4.165A1.39,1.39,0,0,1,4.165,2.777H49.517v13.04a4.17,4.17,0,0,0,4.166,4.165H66.724v8.544A24.536,24.536,0,0,0,58.3,26.942a.3.3,0,0,0-.041,0h-31a1.389,1.389,0,1,0,0,2.777H46.695a24.339,24.339,0,0,0-5.539,3.977h-13.9a1.389,1.389,0,1,0,0,2.777h11.4A24.169,24.169,0,0,0,34.1,46.4H27.253a1.388,1.388,0,1,0,0,2.777h6.441q-.1,1.086-.1,2.189,0,.9.065,1.8H27.253a1.389,1.389,0,1,0,0,2.777h6.77a24.167,24.167,0,0,0,4.638,10.323H27.253a1.389,1.389,0,1,0,0,2.777H41.161a24.337,24.337,0,0,0,5.53,3.971H27.252a1.389,1.389,0,1,0,0,2.777h30.78A24.552,24.552,0,0,0,66.724,74.2V90.435a1.39,1.39,0,0,1-1.389,1.389H4.165a1.39,1.39,0,0,1-1.389-1.389V21.39A1.389,1.389,0,0,0,0,21.39V90.435A4.17,4.17,0,0,0,4.165,94.6h61.17A4.17,4.17,0,0,0,69.5,90.434v-17.5q.93-.493,1.823-1.072l3.371,3.37a1.4,1.4,0,0,0-.054,2.017l8.761,8.76a6.566,6.566,0,0,0,9.286-9.285ZM53.683,17.205a1.39,1.39,0,0,1-1.389-1.389V4.74L64.76,17.205Zm19.907,53q.889-.735,1.722-1.565t1.565-1.722l3.069,3.069-3.287,3.286ZM90.724,84.048a3.807,3.807,0,0,1-5.358,0L77.587,76.27l5.358-5.358,7.779,7.778A3.806,3.806,0,0,1,90.724,84.048Z" transform="translate(0.001 0)"/>
      <path id="Trazado_115515" data-name="Trazado 115515" d="M54.5,150.6h6.075a3.109,3.109,0,0,0,3.106-3.106v-6.074a3.109,3.109,0,0,0-3.106-3.106H54.5a3.109,3.109,0,0,0-3.106,3.106v6.074A3.109,3.109,0,0,0,54.5,150.6Zm-.329-9.18a.329.329,0,0,1,.329-.329h6.075a.329.329,0,0,1,.329.329v6.074a.329.329,0,0,1-.329.329H54.5a.329.329,0,0,1-.329-.329Z" transform="translate(-41.897 -112.755)"/>
      <path id="Trazado_115516" data-name="Trazado 115516" d="M51.393,252.858a3.109,3.109,0,0,0,3.106,3.105h6.075a3.109,3.109,0,0,0,3.106-3.105v-6.074a3.109,3.109,0,0,0-3.106-3.105H54.5a3.109,3.109,0,0,0-3.106,3.105Zm2.777-6.074a.329.329,0,0,1,.329-.329h6.075a.329.329,0,0,1,.329.329v6.074a.329.329,0,0,1-.329.329H54.5a.329.329,0,0,1-.329-.329Z" transform="translate(-41.897 -198.655)"/>
      <path id="Trazado_115517" data-name="Trazado 115517" d="M51.393,360.365a3.109,3.109,0,0,0,3.106,3.106h6.075a3.109,3.109,0,0,0,3.106-3.106v-6.074a3.109,3.109,0,0,0-3.106-3.106H54.5a3.109,3.109,0,0,0-3.106,3.106Zm2.777-6.074a.329.329,0,0,1,.329-.329h6.075a.329.329,0,0,1,.329.329v6.074a.329.329,0,0,1-.329.329H54.5a.329.329,0,0,1-.329-.329Z" transform="translate(-41.897 -286.299)"/>
    </g>
  </g>
</svg>
