<svg xmlns="http://www.w3.org/2000/svg" width="210" height="178" viewBox="0 0 210 178">
  <g id="Grupo_82415" data-name="Grupo 82415" transform="translate(-1125 -1921)">
    <rect id="Rectángulo_34965" data-name="Rectángulo 34965" width="210" height="178" transform="translate(1125 1921)" fill="#eecf52"/>
    <g id="hoja-de-calculo" transform="translate(1137.41 1956.672)">
      <path id="Trazado_114969" data-name="Trazado 114969" d="M354.789,31.7a24.2,24.2,0,0,0-24.2-24.2h-1.357a10.585,10.585,0,0,1,10.585,10.585v1.589a2.8,2.8,0,0,0,2.8,2.8H344.2a10.585,10.585,0,0,1,10.585,10.585Z" transform="translate(-219.016 -5.938)" fill="#e2dfe2"/>
      <path id="Trazado_114970" data-name="Trazado 114970" d="M88.746,62.5H64.316a4.226,4.226,0,0,0-4.226,4.226V82.378a4.226,4.226,0,0,1,4.226-4.226h24.43a4.226,4.226,0,0,0,4.226-4.226v-7.2A4.226,4.226,0,0,0,88.746,62.5Z" transform="translate(-5.938 -49.481)" fill="#13b770"/>
      <path id="Trazado_114971" data-name="Trazado 114971" d="M158.374,22.47h-1.589a2.8,2.8,0,0,1-2.8-2.8V18.086A10.585,10.585,0,0,0,143.4,7.5H97.3a2.8,2.8,0,0,0-2.8,2.8v8.661h21.486a4.226,4.226,0,0,1,4.226,4.226v7.2a4.226,4.226,0,0,1-4.226,4.226H94.508v73.626a2.8,2.8,0,0,0,2.8,2.8h68.86a2.8,2.8,0,0,0,2.8-2.8V33.056A10.585,10.585,0,0,0,158.374,22.47Z" transform="translate(-33.186 -5.938)" fill="#f9f6f9"/>
      <path id="Trazado_114972" data-name="Trazado 114972" d="M158.459,79.364a10.539,10.539,0,0,1,2.167,6.418V142.95a20.808,20.808,0,0,1-20.808,20.808H94.508v1.371a2.8,2.8,0,0,0,2.8,2.8h68.86a2.8,2.8,0,0,0,2.8-2.8V89.949A10.585,10.585,0,0,0,158.459,79.364Z" transform="translate(-33.186 -62.832)" fill="#efecef"/>
      <path id="Trazado_114973" data-name="Trazado 114973" d="M67.26,146.089H64.316a4.226,4.226,0,0,1,0-8.451H67.26Z" transform="translate(-5.938 -108.967)" fill="#86f1a7"/>
      <path id="Trazado_114974" data-name="Trazado 114974" d="M231.364,197.379v-8.2a2.083,2.083,0,0,0-2.083-2.083H183.859v10.28Z" transform="translate(-103.924 -148.124)" fill="#80e29d"/>
      <path id="Trazado_114975" data-name="Trazado 114975" d="M144.789,187.1h-8.2a2.083,2.083,0,0,0-2.083,2.083v8.2h10.28Z" transform="translate(-64.854 -148.124)" fill="#78d090"/>
      <path id="Trazado_114976" data-name="Trazado 114976" d="M134.508,236.449v45.422a2.083,2.083,0,0,0,2.083,2.083h8.2V236.449Z" transform="translate(-64.854 -187.194)" fill="#80e29d"/>
      <path id="Trazado_114977" data-name="Trazado 114977" d="M183.859,236.449v47.505h45.422a2.083,2.083,0,0,0,2.083-2.083V236.449Z" transform="translate(-103.924 -187.194)" fill="#eecf52"/>
      <path id="Trazado_114978" data-name="Trazado 114978" d="M378.226,401.284a2.083,2.083,0,0,0,2.083-2.083V384.65a20.776,20.776,0,0,1-8.315,16.634Z" transform="translate(-252.869 -304.523)" fill="#86f1a7"/>
      <path id="Trazado_114979" data-name="Trazado 114979" d="M111.574,0H64.118A4.363,4.363,0,0,0,59.76,4.358v7.1H58.378a5.8,5.8,0,0,0-5.788,5.788V32.9a5.8,5.8,0,0,0,5.788,5.788H59.76V102.3a4.363,4.363,0,0,0,4.358,4.358h68.86a4.363,4.363,0,0,0,4.358-4.358V84.34a1.562,1.562,0,1,0-3.125,0V102.3a1.235,1.235,0,0,1-1.233,1.233H64.118a1.235,1.235,0,0,1-1.233-1.233V30.234h6.77a1.562,1.562,0,1,0,0-3.125H58.378a5.752,5.752,0,0,0-2.663.65V17.245a2.667,2.667,0,0,1,2.664-2.664h24.43a2.667,2.667,0,0,1,2.664,2.664v7.2a2.667,2.667,0,0,1-2.664,2.664H76.945a1.562,1.562,0,1,0,0,3.125h5.863A5.8,5.8,0,0,0,88.6,24.445v-7.2a5.8,5.8,0,0,0-5.788-5.788H62.884v-7.1a1.235,1.235,0,0,1,1.233-1.233h46.1a9.033,9.033,0,0,1,9.023,9.023v1.589a4.363,4.363,0,0,0,4.358,4.358h1.589a9.033,9.033,0,0,1,9.023,9.023V77.049a1.562,1.562,0,0,0,3.125,0V25.76A25.789,25.789,0,0,0,111.574,0Zm-53.2,30.234H59.76V35.56H58.378a2.663,2.663,0,1,1,0-5.326Zm66.81-15.264H123.6a1.235,1.235,0,0,1-1.233-1.233V12.147a12.086,12.086,0,0,0-2.585-7.484,22.76,22.76,0,0,1,12.892,12.892,12.087,12.087,0,0,0-7.484-2.586Z" transform="translate(0 0)"/>
      <path id="Trazado_114980" data-name="Trazado 114980" d="M130.653,179.6a3.65,3.65,0,0,0-3.645,3.645v53.619a3.65,3.65,0,0,0,3.645,3.645h53.62a3.65,3.65,0,0,0,3.645-3.645V183.244a3.65,3.65,0,0,0-3.645-3.645ZM164.591,193h4.368v6.376h-12.71V193H157.3a1.562,1.562,0,0,0,0-3.125h-1.052v-7.155h12.71v7.155h-4.368a1.562,1.562,0,0,0,0,3.125Zm-8.343,34.88v-6.376h12.711v6.376Zm12.711,3.125v6.376h-12.71v-6.376Zm-31.671-19v6.376h-7.155v-6.376Zm-7.155-3.125V202.5h7.155v6.376Zm10.28,3.125h12.71v6.376h-12.71Zm15.835,0h12.711v6.376H156.248Zm15.835,0h12.711v6.376H172.083Zm0-3.125V202.5h12.711v6.376Zm-3.125,0h-12.71V202.5h12.71Zm-15.835,0h-12.71V202.5h12.71Zm-12.71-9.5V193h12.71v6.376Zm0-9.5v-7.155h12.71v7.155Zm-3.125,9.5h-7.155V193h7.155Zm-7.155,22.127h7.155v6.376h-7.155Zm10.28,0h12.71v6.376h-12.71Zm31.67,0h12.711v6.376H172.083Zm12.711-22.127H172.083V193h12.711Zm-54.661-16.136a.522.522,0,0,1,.521-.521h6.635v7.155h-7.155Zm0,53.619v-5.856h7.155v6.376h-6.635A.521.521,0,0,1,130.133,236.864Zm10.28-5.856h12.71v6.376h-12.71Zm43.86,6.376h-12.19v-6.376h12.711v5.856A.521.521,0,0,1,184.273,237.385Zm.521-54.14v6.635H172.083v-7.155h12.19A.521.521,0,0,1,184.794,183.244Z" transform="translate(-58.916 -142.187)"/>
    </g>
  </g>
</svg>
