<svg xmlns="http://www.w3.org/2000/svg" width="105" height="105" viewBox="0 0 105 105">
  <g id="Grupo_85450" data-name="Grupo 85450" transform="translate(-503 -4206)">
    <circle id="Elipse_4742" data-name="Elipse 4742" cx="52.5" cy="52.5" r="52.5" transform="translate(503 4206)" fill="#fff"/>
    <path id="Trazado_119105" data-name="Trazado 119105" d="M-3.254-14.427h2.64q3.138,0,3.138-3.071a2.656,2.656,0,0,0-.747-1.951A2.833,2.833,0,0,0-.332-20.2a3.033,3.033,0,0,0-1.934.647,1.975,1.975,0,0,0-.822,1.61H-8.683a5.727,5.727,0,0,1,1.063-3.4,7.017,7.017,0,0,1,2.947-2.333,10.075,10.075,0,0,1,4.142-.838,9.9,9.9,0,0,1,6.342,1.843,6.126,6.126,0,0,1,2.308,5.063,5.106,5.106,0,0,1-.955,2.947,6.8,6.8,0,0,1-2.781,2.25A6.5,6.5,0,0,1,7.4-10.3,5.574,5.574,0,0,1,8.5-6.79,6.237,6.237,0,0,1,6.01-1.61,10.337,10.337,0,0,1-.531.332a10.72,10.72,0,0,1-4.408-.9A6.906,6.906,0,0,1-8.019-3.08,6.517,6.517,0,0,1-9.064-6.724h5.628A2.519,2.519,0,0,0-2.54-4.8a3.165,3.165,0,0,0,2.208.813,3.315,3.315,0,0,0,2.357-.822,2.747,2.747,0,0,0,.88-2.1A3.211,3.211,0,0,0,1.992-9.5,3.817,3.817,0,0,0-.531-10.26H-3.254Z" transform="translate(556 4271)" fill="#1a1a52"/>
  </g>
</svg>
