<svg xmlns="http://www.w3.org/2000/svg" xmlns:xlink="http://www.w3.org/1999/xlink" width="505" height="443" viewBox="0 0 505 443">
  <defs>
    <clipPath id="clip-path">
      <rect id="Rectángulo_33934" data-name="Rectángulo 33934" width="269.364" height="240.066" fill="none"/>
    </clipPath>
    <clipPath id="clip-path-3">
      <rect id="Rectángulo_33857" data-name="Rectángulo 33857" width="136.869" height="11.149" fill="#e6e6e6"/>
    </clipPath>
    <clipPath id="clip-path-4">
      <path id="Trazado_113656" data-name="Trazado 113656" d="M24.067,283.292a6.38,6.38,0,0,0-6.191,6.519v41.264a6.38,6.38,0,0,0,6.191,6.519h43a6.38,6.38,0,0,0,6.191-6.519v-33.46L84.7,288.7l-11.527.066a6.32,6.32,0,0,0-6.111-5.479Z" transform="translate(-17.876 -283.292)" fill="none"/>
    </clipPath>
    <clipPath id="clip-path-5">
      <path id="Trazado_113657" data-name="Trazado 113657" d="M34.551,320.553a22.232,22.232,0,1,0,41.687-10.766L56.8,320.533,67.46,301.049a22.237,22.237,0,0,0-32.909,19.5" transform="translate(-34.551 -298.321)" fill="none"/>
    </clipPath>
    <clipPath id="clip-path-6">
      <path id="Trazado_113658" data-name="Trazado 113658" d="M106.768,322.382l19.256-11.117a22.344,22.344,0,0,0-8.139-8.139Z" transform="translate(-106.768 -303.126)" fill="none"/>
    </clipPath>
    <clipPath id="clip-path-8">
      <path id="Trazado_113660" data-name="Trazado 113660" d="M394.853,0a7.605,7.605,0,0,0-7.654,7.51V55.044a7.6,7.6,0,0,0,7.186,7.5l-1.833,10.984,10.612-10.97h52.32a7.606,7.606,0,0,0,7.654-7.51V7.509A7.606,7.606,0,0,0,455.484,0Z" transform="translate(-387.199 0.001)" fill="#eecf52"/>
    </clipPath>
    <clipPath id="clip-path-10">
      <rect id="Rectángulo_33865" data-name="Rectángulo 33865" width="43.755" height="52.897" fill="none"/>
    </clipPath>
    <clipPath id="clip-path-11">
      <path id="Trazado_113661" data-name="Trazado 113661" d="M467,18.291v3.091a21.877,21.877,0,1,1-9.758,0V18.291h-.011a1.856,1.856,0,0,1-1.853-1.853V13.545a1.856,1.856,0,0,1,1.853-1.853h9.779a1.856,1.856,0,0,1,1.853,1.853v2.893a1.856,1.856,0,0,1-1.853,1.853Z" transform="translate(-440.239 -11.692)" fill="none" clip-rule="evenodd"/>
    </clipPath>
    <linearGradient id="linear-gradient" x1="-3.096" y1="4.324" x2="-3.089" y2="4.324" gradientUnits="objectBoundingBox">
      <stop offset="0" stop-color="#fd90da"/>
      <stop offset="1" stop-color="#8e6dfd"/>
    </linearGradient>
    <clipPath id="clip-path-12">
      <path id="Trazado_113663" data-name="Trazado 113663" d="M440.291,63.886a20.594,20.594,0,1,0,20.593-20.593,20.594,20.594,0,0,0-20.593,20.593" transform="translate(-440.291 -43.293)" fill="none"/>
    </clipPath>
    <clipPath id="clip-path-13">
      <path id="Trazado_113664" data-name="Trazado 113664" d="M449.556,70.12a17.561,17.561,0,1,0,17.561-17.561A17.561,17.561,0,0,0,449.556,70.12" transform="translate(-449.556 -52.559)" fill="none"/>
    </clipPath>
    <linearGradient id="linear-gradient-2" x1="-3.395" y1="5.355" x2="-3.387" y2="5.355" gradientUnits="objectBoundingBox">
      <stop offset="0" stop-color="#e5fff4"/>
      <stop offset="1" stop-color="#273088"/>
    </linearGradient>
    <clipPath id="clip-path-15">
      <path id="Trazado_113669" data-name="Trazado 113669" d="M61.643,53.977a5.988,5.988,0,0,0-5.81,6.118V98.821a5.987,5.987,0,0,0,5.81,6.118h42.5l10.086,13.117-.876-13.117h.091a5.988,5.988,0,0,0,5.81-6.118V60.095a5.988,5.988,0,0,0-5.81-6.118Z" transform="translate(-55.833 -53.977)" fill="#13b770"/>
    </clipPath>
    <clipPath id="clip-path-17">
      <rect id="Rectángulo_33875" data-name="Rectángulo 33875" width="50.119" height="44.473" fill="none"/>
    </clipPath>
    <clipPath id="clip-path-18">
      <path id="Trazado_113670" data-name="Trazado 113670" d="M120.274,68.421v-2.47a1.213,1.213,0,0,0-1.183-1.236h-.552a1.213,1.213,0,0,0-1.183,1.236v2.47H114.3v-2.47a1.213,1.213,0,0,0-1.183-1.236h-.552a1.213,1.213,0,0,0-1.183,1.236v2.47h-2.44v-2.47a1.213,1.213,0,0,0-1.183-1.236h-.552a1.213,1.213,0,0,0-1.183,1.236v2.47h-3.055v-2.47a1.213,1.213,0,0,0-1.183-1.236h-.551a1.213,1.213,0,0,0-1.184,1.236v2.47H96.994v-2.47a1.213,1.213,0,0,0-1.183-1.236h-.552a1.213,1.213,0,0,0-1.183,1.236v2.47H91.444v-2.47a1.213,1.213,0,0,0-1.183-1.236h-.581a1.215,1.215,0,0,0-1.162,1.236v2.47H85.464v-2.47a1.213,1.213,0,0,0-1.183-1.236h-.552a1.213,1.213,0,0,0-1.183,1.236v2.47c-.64,0-1.256-.011-1.894.037a5.339,5.339,0,0,0-4.5,5.382v29.929a5.34,5.34,0,0,0,4.5,5.383v.037h40.515a5.285,5.285,0,0,0,5.1-5.419V73.84c0-2.85-1.917-5.388-4.844-5.388Z" transform="translate(-76.148 -64.715)" fill="none" clip-rule="evenodd"/>
    </clipPath>
    <linearGradient id="linear-gradient-3" x1="-0.306" y1="3.545" x2="-0.301" y2="3.545" gradientUnits="objectBoundingBox">
      <stop offset="0" stop-color="#1c8ef4"/>
      <stop offset="1" stop-color="#00cfdd"/>
    </linearGradient>
    <clipPath id="clip-path-19">
      <path id="Trazado_113671" data-name="Trazado 113671" d="M86.469,78.725a4.437,4.437,0,0,0-4.262,4.57v28.924a4.437,4.437,0,0,0,4.262,4.57h38a4.437,4.437,0,0,0,4.262-4.57V83.295a4.437,4.437,0,0,0-4.262-4.57Z" transform="translate(-82.207 -78.725)" fill="none"/>
    </clipPath>
    <clipPath id="clip-path-21">
      <path id="Trazado_113676" data-name="Trazado 113676" d="M96.908,81.591a1.129,1.129,0,1,0,1.129-1.13,1.129,1.129,0,0,0-1.129,1.13" transform="translate(-96.908 -80.461)" fill="none"/>
    </clipPath>
    <linearGradient id="linear-gradient-4" x1="-13.83" y1="93.257" x2="-13.688" y2="93.257" gradientUnits="objectBoundingBox">
      <stop offset="0" stop-color="#005b90"/>
      <stop offset="1" stop-color="#00345a"/>
    </linearGradient>
    <clipPath id="clip-path-23">
      <path id="Trazado_113678" data-name="Trazado 113678" d="M114.547,81.591a1.13,1.13,0,1,0,1.129-1.13,1.129,1.129,0,0,0-1.129,1.13" transform="translate(-114.547 -80.461)" fill="none"/>
    </clipPath>
    <linearGradient id="linear-gradient-5" x1="-16.349" y1="93.244" x2="-16.206" y2="93.244" xlink:href="#linear-gradient-4"/>
    <clipPath id="clip-path-25">
      <path id="Trazado_113680" data-name="Trazado 113680" d="M132.187,81.591a1.129,1.129,0,1,0,1.129-1.13,1.129,1.129,0,0,0-1.129,1.13" transform="translate(-132.187 -80.461)" fill="none"/>
    </clipPath>
    <linearGradient id="linear-gradient-6" x1="-18.868" y1="93.257" x2="-18.725" y2="93.257" xlink:href="#linear-gradient-4"/>
    <clipPath id="clip-path-27">
      <path id="Trazado_113682" data-name="Trazado 113682" d="M149.827,81.591a1.129,1.129,0,1,0,1.129-1.13,1.129,1.129,0,0,0-1.129,1.13" transform="translate(-149.827 -80.461)" fill="none"/>
    </clipPath>
    <linearGradient id="linear-gradient-7" x1="-21.387" y1="93.27" x2="-21.244" y2="93.27" xlink:href="#linear-gradient-4"/>
    <clipPath id="clip-path-29">
      <path id="Trazado_113684" data-name="Trazado 113684" d="M167.466,81.591a1.129,1.129,0,1,0,1.129-1.13,1.129,1.129,0,0,0-1.129,1.13" transform="translate(-167.466 -80.461)" fill="none"/>
    </clipPath>
    <linearGradient id="linear-gradient-8" x1="-23.905" y1="93.257" x2="-23.763" y2="93.257" xlink:href="#linear-gradient-4"/>
    <clipPath id="clip-path-31">
      <path id="Trazado_113686" data-name="Trazado 113686" d="M185.1,81.591a1.129,1.129,0,1,0,1.129-1.13,1.129,1.129,0,0,0-1.129,1.13" transform="translate(-185.105 -80.461)" fill="none"/>
    </clipPath>
    <linearGradient id="linear-gradient-9" x1="-26.424" y1="93.257" x2="-26.281" y2="93.257" xlink:href="#linear-gradient-4"/>
    <clipPath id="clip-path-33">
      <path id="Trazado_113688" data-name="Trazado 113688" d="M202.744,81.591a1.129,1.129,0,1,0,1.129-1.13,1.129,1.129,0,0,0-1.129,1.13" transform="translate(-202.744 -80.461)" fill="none"/>
    </clipPath>
    <linearGradient id="linear-gradient-10" x1="-28.943" y1="93.257" x2="-28.8" y2="93.257" xlink:href="#linear-gradient-4"/>
    <clipPath id="clip-path-35">
      <path id="Trazado_113699" data-name="Trazado 113699" d="M571.9,295.829l18.982,18.982a26.846,26.846,0,0,0,0-37.965Z" transform="translate(-571.898 -276.847)" fill="none"/>
    </clipPath>
    <clipPath id="clip-path-36">
      <path id="Trazado_113700" data-name="Trazado 113700" d="M486.16,323.039a26.845,26.845,0,0,0,45.827,18.982L513,323.039,487.07,316.09a26.882,26.882,0,0,0-.91,6.949" transform="translate(-486.16 -316.09)" fill="none"/>
    </clipPath>
    <clipPath id="clip-path-37">
      <path id="Trazado_113701" data-name="Trazado 113701" d="M488.941,270.243l25.935,6.949,18.982-18.982a26.849,26.849,0,0,0-44.917,12.033" transform="translate(-488.941 -250.348)" fill="none"/>
    </clipPath>
    <clipPath id="clip-path-39">
      <rect id="Rectángulo_33897" data-name="Rectángulo 33897" width="10.102" height="4.411" fill="none"/>
    </clipPath>
    <clipPath id="clip-path-40">
      <rect id="Rectángulo_33898" data-name="Rectángulo 33898" width="10.553" height="3.788" fill="none"/>
    </clipPath>
    <clipPath id="clip-path-41">
      <path id="Trazado_113706" data-name="Trazado 113706" d="M298.617,386.237c6.8,39.677,17.785,55.95,32.609,91.963,2.686.776,8.835.888,10.976-1.323-10-32.062-14.937-61.616-21.6-94.037Z" transform="translate(-298.617 -382.84)" fill="none"/>
    </clipPath>
    <linearGradient id="linear-gradient-11" x1="-0.632" y1="1.311" x2="-0.629" y2="1.311" gradientUnits="objectBoundingBox">
      <stop offset="0" stop-color="#3e4795"/>
      <stop offset="1" stop-color="#273088"/>
    </linearGradient>
    <clipPath id="clip-path-43">
      <rect id="Rectángulo_33901" data-name="Rectángulo 33901" width="32.609" height="95.431" fill="none"/>
    </clipPath>
    <clipPath id="clip-path-44">
      <path id="Trazado_113708" data-name="Trazado 113708" d="M258.963,378.03c-2.629,11.2-3.629,13.213-3.427,18.913.394,11.115,2.658,23.929,4.776,36.729,2.35,14.2,4.583,27.116,5.837,41.469,4.142,2.383,7.327,1.6,10.655-.215-.446-13.641-.639-27.148-.775-40.746-.214-21.526,3.5-36.934,7.783-57.4Z" transform="translate(-255.51 -376.779)" fill="none"/>
    </clipPath>
    <linearGradient id="linear-gradient-12" x1="-0.703" y1="1.172" x2="-0.699" y2="1.172" xlink:href="#linear-gradient-11"/>
    <clipPath id="clip-path-46">
      <path id="Trazado_113710" data-name="Trazado 113710" d="M299.319,206.571c.971,3.4,4.2,6.016,7.351,5.59,2.718-.368,3.375-4.427,2.445-6.7-.133-1.1-.183-2.035-.215-3.147l-6.865-2-1.77-1.252a66.439,66.439,0,0,1-.947,7.509" transform="translate(-299.319 -199.062)" fill="none"/>
    </clipPath>
    <linearGradient id="linear-gradient-13" x1="-6.99" y1="11.146" x2="-6.967" y2="11.146" gradientUnits="objectBoundingBox">
      <stop offset="0" stop-color="#ff8a78"/>
      <stop offset="1" stop-color="#ffa799"/>
    </linearGradient>
    <clipPath id="clip-path-47">
      <path id="Trazado_113711" data-name="Trazado 113711" d="M299.411,139.611c-3.479-3.116-8.24-.405-8.264,4.232-.005.957.444,1.646.084,3.028-.289,1.112-.849,1.9-.706,3.488a4.839,4.839,0,0,0,.382,1.5c.468,1.1.525.767.6,2.049.075,1.244.346,1.938,2.134,2.1l5.5-2.892,8.51-3.045c2.51-.368,6.586-3.212,4.392-7.838-1.131-2.386-3.449-3.218-6.331-2.422a4.742,4.742,0,0,0-3.3-1.619,4.213,4.213,0,0,0-2.994,1.425" transform="translate(-290.502 -138.186)" fill="none"/>
    </clipPath>
    <linearGradient id="linear-gradient-14" x1="-2.983" y1="6.6" x2="-2.972" y2="6.6" gradientUnits="objectBoundingBox">
      <stop offset="0" stop-color="#5a2d68"/>
      <stop offset="1" stop-color="#22043d"/>
    </linearGradient>
    <clipPath id="clip-path-49">
      <path id="Trazado_113713" data-name="Trazado 113713" d="M300.861,159.4a4.514,4.514,0,0,1-2.778,2.05c-.688,7.366-1.756,4.643-2.129,3.1-.266-1.1-1.521-.653-1.86.749-.368,1.525.969,2.6,1.577,3.92a5.552,5.552,0,0,1,.446,1.306c.162.913-.433,1.743,1.608,3.329a31.819,31.819,0,0,0,4.384,3.089c2.221,1.173,3.472.508,4.518-.834,2.879-3.693,3.45-8.385,4.376-12.861-3.4-.226-5.367-2.314-7.7-4.549a1.534,1.534,0,0,0-1.016-.529c-.561,0-.987.56-1.431,1.228" transform="translate(-294.031 -158.17)" fill="none"/>
    </clipPath>
    <linearGradient id="linear-gradient-15" x1="-3.872" y1="7.559" x2="-3.859" y2="7.559" gradientUnits="objectBoundingBox">
      <stop offset="0" stop-color="#ffb89e"/>
      <stop offset="1" stop-color="#ffa799"/>
    </linearGradient>
    <clipPath id="clip-path-51">
      <path id="Trazado_113715" data-name="Trazado 113715" d="M315.634,239.3c-1.143.139-2.313.256-2.145,1.492.129.95.951,1.636,1.964,2.441l1.2,28.177,4.954,6.237,3.242-7.513-7.539-27.43c.778-2.3.522-2.83.077-3.17-.322-.246-.252-.358-.56-.358-.191,0-.527.043-1.191.123" transform="translate(-313.473 -239.172)" fill="none"/>
    </clipPath>
    <linearGradient id="linear-gradient-16" x1="-4.76" y1="4.053" x2="-4.744" y2="4.053" xlink:href="#linear-gradient-3"/>
    <clipPath id="clip-path-53">
      <path id="Trazado_113718" data-name="Trazado 113718" d="M271.618,293.771l-5.884,30.845A1.6,1.6,0,0,0,267,326.488l19.642,3.792a1.6,1.6,0,0,0,1.873-1.267L294.4,298.17a1.6,1.6,0,0,0-1.266-1.872l-19.642-3.792a1.6,1.6,0,0,0-1.872,1.266" transform="translate(-265.705 -292.476)" fill="none"/>
    </clipPath>
    <linearGradient id="linear-gradient-17" x1="-2.693" y1="3.633" x2="-2.683" y2="3.633" xlink:href="#linear-gradient-11"/>
    <clipPath id="clip-path-55">
      <rect id="Rectángulo_33913" data-name="Rectángulo 33913" width="24.084" height="12.446" fill="none"/>
    </clipPath>
    <clipPath id="clip-path-56">
      <path id="Trazado_113720" data-name="Trazado 113720" d="M299.472,364.132c1.57.112,2.5,2.8,4.68,3.116,2.462.362,7.176.608,8.375-.321.472-.365.7-1.672,1.114-4.158.213-1.292,1.5-4.247-.168-4.754a15.744,15.744,0,0,0-5.171-.053c-2.3.193-4.727.387-6.473-.272-1.178,1.672-3.254,4.317-2.355,6.443" transform="translate(-299.252 -357.689)" fill="none"/>
    </clipPath>
    <linearGradient id="linear-gradient-18" x1="-5.008" y1="6.816" x2="-4.991" y2="6.816" xlink:href="#linear-gradient-15"/>
    <clipPath id="clip-path-58">
      <rect id="Rectángulo_33916" data-name="Rectángulo 33916" width="31.608" height="15.283" fill="none"/>
    </clipPath>
    <clipPath id="clip-path-59">
      <path id="Trazado_113724" data-name="Trazado 113724" d="M482.109,213.181c-.785.876-1.913,1.5-5.259,1.705a10.042,10.042,0,0,1,.979-2.409c.813-1.445,1.7-2.493.515-3.474a15.5,15.5,0,0,1-3.217,3.129c-3.711,2.384-4.587,2.563-4.8,5.415-.3,4.059-.776,4.1-2.5,7.762l4.893,2.792c2.563-3.628,2.462-4.613,6.415-6.546,1.775-.868,3.375-1.767,5.261-2.629,1.394-.636,1.231-.478,2-2.49,1.257-3.275,3.06-5.28,5.464-8.4h-.138c-5.014,0-5.745.829-9.612,5.146" transform="translate(-467.823 -208.035)" fill="none"/>
    </clipPath>
    <linearGradient id="linear-gradient-19" x1="-4.835" y1="5.676" x2="-4.825" y2="5.676" xlink:href="#linear-gradient-15"/>
    <clipPath id="clip-path-61">
      <rect id="Rectángulo_33919" data-name="Rectángulo 33919" width="35.463" height="20.245" fill="none"/>
    </clipPath>
    <clipPath id="clip-path-62">
      <path id="Trazado_113729" data-name="Trazado 113729" d="M123.765,547.438a7.058,7.058,0,1,1,7.058,7.058,7.058,7.058,0,0,1-7.058-7.058m-5.95,0a13.009,13.009,0,1,0,13.008-13.009,13.008,13.008,0,0,0-13.008,13.009" transform="translate(-117.815 -534.429)" fill="none"/>
    </clipPath>
    <linearGradient id="linear-gradient-20" x1="-1.006" y1="2.023" x2="-0.996" y2="2.023" xlink:href="#linear-gradient-3"/>
    <clipPath id="clip-path-64">
      <path id="Trazado_113732" data-name="Trazado 113732" d="M413.389,448.755v20.5a4.689,4.689,0,0,0,4.55,4.791h28.432a4.689,4.689,0,0,0,4.55-4.791V438.926a4.689,4.689,0,0,0-4.55-4.792H417.94a4.664,4.664,0,0,0-4.53,4.349l-13.329-6.472Z" transform="translate(-400.08 -432.011)" fill="none"/>
    </clipPath>
  </defs>
  <g id="Grupo_85447" data-name="Grupo 85447" transform="translate(-810 -7262)">
    <rect id="Rectángulo_34310" data-name="Rectángulo 34310" width="505" height="443" rx="12" transform="translate(810 7262)" fill="#05339e"/>
    <path id="Trazado_119101" data-name="Trazado 119101" d="M10.065-2.922H4.9L4,0H-.032L5.7-15.641H9.249L15.028,0h-4.05ZM5.8-5.833H9.163L7.477-11.258Zm13.009-5.79.118,1.364a3.942,3.942,0,0,1,3.319-1.579,3.316,3.316,0,0,1,2.712,1.085,5.165,5.165,0,0,1,.929,3.266V0H22.258V-7.337A1.961,1.961,0,0,0,21.9-8.631a1.64,1.64,0,0,0-1.289-.414,1.726,1.726,0,0,0-1.579.838V0h-3.62V-11.623ZM34.439,0A4.088,4.088,0,0,1,34.1-1.042,3.366,3.366,0,0,1,31.3.215,4.124,4.124,0,0,1,28.51-.779a3.163,3.163,0,0,1-1.149-2.5,3.251,3.251,0,0,1,1.4-2.857A7.114,7.114,0,0,1,32.817-7.1h1.117v-.615q0-1.608-1.386-1.608A1.133,1.133,0,0,0,31.26-8.05H27.64a3.245,3.245,0,0,1,1.434-2.736,6.027,6.027,0,0,1,3.658-1.051,5.284,5.284,0,0,1,3.513,1.085,3.772,3.772,0,0,1,1.321,2.976v5.146A5.269,5.269,0,0,0,38.06-.183V0ZM32.173-2.363a2.019,2.019,0,0,0,1.123-.29,1.818,1.818,0,0,0,.639-.655V-5.167H32.882q-1.891,0-1.891,1.7a1.036,1.036,0,0,0,.333.8A1.205,1.205,0,0,0,32.173-2.363Zm.9-14.137H36.9l-2.986,3.373-2.954-.005ZM43.388,0H39.757V-16.5h3.631Zm6.048,0H45.8V-11.623h3.631ZM45.59-14.62a1.616,1.616,0,0,1,.559-1.268,2.108,2.108,0,0,1,1.45-.494,2.108,2.108,0,0,1,1.45.494,1.616,1.616,0,0,1,.559,1.268,1.616,1.616,0,0,1-.559,1.268,2.108,2.108,0,0,1-1.45.494,2.108,2.108,0,0,1-1.45-.494A1.616,1.616,0,0,1,45.59-14.62ZM57.75-3.266a.836.836,0,0,0-.483-.741,7.353,7.353,0,0,0-1.837-.58,8.376,8.376,0,0,1-2.234-.79,3.743,3.743,0,0,1-1.343-1.187,2.835,2.835,0,0,1-.462-1.6A3.212,3.212,0,0,1,52.712-10.8a5.443,5.443,0,0,1,3.459-1.037,6.03,6.03,0,0,1,3.7,1.042,3.258,3.258,0,0,1,1.4,2.739H57.632q0-1.4-1.472-1.4a1.459,1.459,0,0,0-.956.317.981.981,0,0,0-.387.79.9.9,0,0,0,.473.784,4.466,4.466,0,0,0,1.509.494,13.042,13.042,0,0,1,1.821.462q2.621.9,2.621,3.233A3.044,3.044,0,0,1,59.829-.784a6.2,6.2,0,0,1-3.658,1,6.322,6.322,0,0,1-2.664-.537,4.455,4.455,0,0,1-1.826-1.461,3.308,3.308,0,0,1-.655-1.944h3.384a1.4,1.4,0,0,0,.537,1.176,2.209,2.209,0,0,0,1.321.371,1.738,1.738,0,0,0,1.112-.3A.962.962,0,0,0,57.75-3.266Zm9,3.266H63.121V-11.623h3.631ZM62.906-14.62a1.616,1.616,0,0,1,.559-1.268,2.108,2.108,0,0,1,1.45-.494,2.108,2.108,0,0,1,1.45.494,1.616,1.616,0,0,1,.559,1.268,1.616,1.616,0,0,1-.559,1.268,2.108,2.108,0,0,1-1.45.494,2.108,2.108,0,0,1-1.45-.494A1.616,1.616,0,0,1,62.906-14.62ZM75.066-3.266a.836.836,0,0,0-.483-.741,7.353,7.353,0,0,0-1.837-.58,8.376,8.376,0,0,1-2.234-.79,3.743,3.743,0,0,1-1.343-1.187,2.834,2.834,0,0,1-.462-1.6A3.212,3.212,0,0,1,70.028-10.8a5.443,5.443,0,0,1,3.459-1.037,6.03,6.03,0,0,1,3.7,1.042,3.258,3.258,0,0,1,1.4,2.739H74.948q0-1.4-1.472-1.4a1.459,1.459,0,0,0-.956.317.981.981,0,0,0-.387.79.9.9,0,0,0,.473.784,4.466,4.466,0,0,0,1.509.494,13.043,13.043,0,0,1,1.821.462q2.621.9,2.621,3.233A3.044,3.044,0,0,1,77.145-.784a6.2,6.2,0,0,1-3.658,1,6.322,6.322,0,0,1-2.664-.537A4.455,4.455,0,0,1,69-1.783a3.308,3.308,0,0,1-.655-1.944h3.384a1.4,1.4,0,0,0,.537,1.176,2.209,2.209,0,0,0,1.321.371,1.738,1.738,0,0,0,1.112-.3A.962.962,0,0,0,75.066-3.266ZM85.271-5.9a7.1,7.1,0,0,1,1.192-4.351,3.925,3.925,0,0,1,3.33-1.59,3.338,3.338,0,0,1,2.621,1.225V-16.5h3.631V0H92.791l-.183-1.246A3.428,3.428,0,0,1,89.772.215a3.918,3.918,0,0,1-3.287-1.59A7.325,7.325,0,0,1,85.271-5.9Zm3.62.226q0,3.094,1.8,3.094a1.782,1.782,0,0,0,1.719-1.01V-8.014a1.734,1.734,0,0,0-1.7-1.031q-1.676,0-1.815,2.707ZM103.727.215A5.975,5.975,0,0,1,99.4-1.38a5.509,5.509,0,0,1-1.654-4.152v-.3A7.138,7.138,0,0,1,98.4-8.98a4.834,4.834,0,0,1,1.928-2.111,5.821,5.821,0,0,1,3.008-.747,5.031,5.031,0,0,1,3.867,1.52,5.973,5.973,0,0,1,1.418,4.238v1.407h-7.2a2.609,2.609,0,0,0,.849,1.536,2.525,2.525,0,0,0,1.7.559,3.254,3.254,0,0,0,2.686-1.2l1.654,1.955A4.624,4.624,0,0,1,106.4-.338,6.48,6.48,0,0,1,103.727.215Zm-.408-9.26q-1.59,0-1.891,2.105h3.652v-.279a1.793,1.793,0,0,0-.44-1.348A1.753,1.753,0,0,0,103.318-9.045ZM121.183.215a5.975,5.975,0,0,1-4.329-1.6A5.509,5.509,0,0,1,115.2-5.532v-.3a7.138,7.138,0,0,1,.661-3.147,4.834,4.834,0,0,1,1.928-2.111,5.821,5.821,0,0,1,3.008-.747,5.031,5.031,0,0,1,3.867,1.52,5.973,5.973,0,0,1,1.418,4.238v1.407h-7.2a2.609,2.609,0,0,0,.849,1.536,2.525,2.525,0,0,0,1.7.559,3.254,3.254,0,0,0,2.686-1.2l1.654,1.955a4.624,4.624,0,0,1-1.917,1.488A6.48,6.48,0,0,1,121.183.215Zm-.408-9.26q-1.59,0-1.891,2.105h3.652v-.279a1.793,1.793,0,0,0-.44-1.348A1.753,1.753,0,0,0,120.774-9.045Zm12.848,5.779a.836.836,0,0,0-.483-.741,7.353,7.353,0,0,0-1.837-.58,8.376,8.376,0,0,1-2.234-.79,3.743,3.743,0,0,1-1.343-1.187,2.834,2.834,0,0,1-.462-1.6,3.212,3.212,0,0,1,1.321-2.637,5.443,5.443,0,0,1,3.459-1.037,6.03,6.03,0,0,1,3.7,1.042,3.258,3.258,0,0,1,1.4,2.739H133.5q0-1.4-1.472-1.4a1.459,1.459,0,0,0-.956.317.981.981,0,0,0-.387.79.9.9,0,0,0,.473.784,4.466,4.466,0,0,0,1.509.494,13.042,13.042,0,0,1,1.821.462q2.621.9,2.621,3.233A3.044,3.044,0,0,1,135.7-.784a6.2,6.2,0,0,1-3.658,1,6.322,6.322,0,0,1-2.664-.537,4.455,4.455,0,0,1-1.826-1.461,3.308,3.308,0,0,1-.655-1.944h3.384a1.4,1.4,0,0,0,.537,1.176,2.209,2.209,0,0,0,1.321.371,1.738,1.738,0,0,0,1.112-.3A.962.962,0,0,0,133.622-3.266Zm10.1.688a1.61,1.61,0,0,0,1.182-.414,1.517,1.517,0,0,0,.408-1.155H148.7a4.018,4.018,0,0,1-1.37,3.137A5.1,5.1,0,0,1,143.806.215a5.158,5.158,0,0,1-4-1.59,6.264,6.264,0,0,1-1.461-4.4v-.15A7.08,7.08,0,0,1,139-9.04a4.732,4.732,0,0,1,1.875-2.073,5.589,5.589,0,0,1,2.9-.725,5.03,5.03,0,0,1,3.6,1.257A4.458,4.458,0,0,1,148.7-7.176H145.31a1.987,1.987,0,0,0-.44-1.386,1.52,1.52,0,0,0-1.182-.483q-1.407,0-1.644,1.794a12.659,12.659,0,0,0-.075,1.568,4.972,4.972,0,0,0,.419,2.428A1.45,1.45,0,0,0,143.72-2.578ZM155.858.215a5.975,5.975,0,0,1-4.329-1.6,5.509,5.509,0,0,1-1.654-4.152v-.3a7.138,7.138,0,0,1,.661-3.147,4.834,4.834,0,0,1,1.928-2.111,5.821,5.821,0,0,1,3.008-.747,5.031,5.031,0,0,1,3.867,1.52,5.973,5.973,0,0,1,1.418,4.238v1.407h-7.2a2.609,2.609,0,0,0,.849,1.536,2.525,2.525,0,0,0,1.7.559,3.254,3.254,0,0,0,2.686-1.2l1.654,1.955a4.624,4.624,0,0,1-1.917,1.488A6.48,6.48,0,0,1,155.858.215Zm-.408-9.26q-1.59,0-1.891,2.105h3.652v-.279a1.793,1.793,0,0,0-.44-1.348A1.753,1.753,0,0,0,155.45-9.045Zm10.087-2.578.118,1.364a3.942,3.942,0,0,1,3.319-1.579,3.316,3.316,0,0,1,2.712,1.085,5.165,5.165,0,0,1,.929,3.266V0h-3.631V-7.337a1.961,1.961,0,0,0-.354-1.294,1.64,1.64,0,0,0-1.289-.414,1.726,1.726,0,0,0-1.579.838V0h-3.62V-11.623ZM181.167,0a4.088,4.088,0,0,1-.344-1.042A3.366,3.366,0,0,1,178.03.215a4.124,4.124,0,0,1-2.793-.994,3.163,3.163,0,0,1-1.149-2.5,3.251,3.251,0,0,1,1.4-2.857,7.114,7.114,0,0,1,4.061-.967h1.117v-.615q0-1.608-1.386-1.608a1.133,1.133,0,0,0-1.289,1.274h-3.62a3.245,3.245,0,0,1,1.434-2.736,6.027,6.027,0,0,1,3.658-1.051,5.284,5.284,0,0,1,3.513,1.085,3.772,3.772,0,0,1,1.321,2.976v5.146a5.269,5.269,0,0,0,.494,2.449V0ZM178.9-2.363a2.019,2.019,0,0,0,1.123-.29,1.818,1.818,0,0,0,.639-.655V-5.167h-1.053q-1.891,0-1.891,1.7a1.036,1.036,0,0,0,.333.8A1.205,1.205,0,0,0,178.9-2.363Zm14.427-5.983-1.192-.086a2.142,2.142,0,0,0-2.191,1.074V0h-3.62V-11.623h3.395l.118,1.493a2.8,2.8,0,0,1,2.546-1.708,3.53,3.53,0,0,1,1.01.129ZM198.451,0H194.82V-11.623h3.631Zm-3.846-14.62a1.616,1.616,0,0,1,.559-1.268,2.108,2.108,0,0,1,1.45-.494,2.108,2.108,0,0,1,1.45.494,1.616,1.616,0,0,1,.559,1.268,1.616,1.616,0,0,1-.559,1.268,2.108,2.108,0,0,1-1.45.494,2.108,2.108,0,0,1-1.45-.494A1.616,1.616,0,0,1,194.605-14.62Zm5.618,8.7a6.86,6.86,0,0,1,.677-3.1,4.84,4.84,0,0,1,1.944-2.089,5.856,5.856,0,0,1,2.976-.73,5.344,5.344,0,0,1,4.114,1.617,6.2,6.2,0,0,1,1.5,4.4v.129a6.019,6.019,0,0,1-1.509,4.313,5.359,5.359,0,0,1-4.087,1.6,5.42,5.42,0,0,1-3.985-1.488,5.819,5.819,0,0,1-1.622-4.034Zm3.62.226a4.325,4.325,0,0,0,.5,2.363,1.682,1.682,0,0,0,1.493.752q1.934,0,1.977-2.976v-.365q0-3.126-2-3.126-1.815,0-1.966,2.7Zm15.275,2.428a.836.836,0,0,0-.483-.741,7.353,7.353,0,0,0-1.837-.58,8.376,8.376,0,0,1-2.234-.79,3.743,3.743,0,0,1-1.343-1.187,2.835,2.835,0,0,1-.462-1.6,3.212,3.212,0,0,1,1.321-2.637,5.443,5.443,0,0,1,3.459-1.037,6.03,6.03,0,0,1,3.7,1.042,3.258,3.258,0,0,1,1.4,2.739H219q0-1.4-1.472-1.4a1.459,1.459,0,0,0-.956.317.981.981,0,0,0-.387.79.9.9,0,0,0,.473.784,4.466,4.466,0,0,0,1.509.494,13.042,13.042,0,0,1,1.821.462q2.621.9,2.621,3.233A3.044,3.044,0,0,1,221.2-.784a6.2,6.2,0,0,1-3.658,1,6.322,6.322,0,0,1-2.664-.537,4.455,4.455,0,0,1-1.826-1.461,3.308,3.308,0,0,1-.655-1.944h3.384a1.4,1.4,0,0,0,.537,1.176,2.209,2.209,0,0,0,1.321.371,1.738,1.738,0,0,0,1.112-.3A.962.962,0,0,0,219.119-3.266Z" transform="translate(860 7336)" fill="#fff"/>
    <g id="Grupo_81276" data-name="Grupo 81276" transform="translate(590.317 5173.852)">
      <g id="Grupo_80450" data-name="Grupo 80450" transform="translate(337.683 2235.121)">
        <g id="Grupo_80449" data-name="Grupo 80449" clip-path="url(#clip-path)">
          <g id="Grupo_80314" data-name="Grupo 80314">
            <g id="Grupo_80313" data-name="Grupo 80313" clip-path="url(#clip-path)">
              <g id="Grupo_80312" data-name="Grupo 80312" transform="translate(44.822 225.732)" opacity="0.996" style="mix-blend-mode: multiply;isolation: isolate">
                <g id="Grupo_80311" data-name="Grupo 80311">
                  <g id="Grupo_80310" data-name="Grupo 80310" clip-path="url(#clip-path-3)">
                    <path id="Trazado_113655" data-name="Trazado 113655" d="M205.386,700.864c37.8,0,68.434-2.5,68.434-5.575s-30.639-5.574-68.434-5.574-68.434,2.5-68.434,5.574,30.639,5.575,68.434,5.575" transform="translate(-136.952 -689.715)" fill="#e6e6e6" fill-rule="evenodd"/>
                  </g>
                </g>
              </g>
            </g>
          </g>
          <g id="Grupo_80316" data-name="Grupo 80316" transform="translate(5.851 92.717)">
            <g id="Grupo_80315" data-name="Grupo 80315" clip-path="url(#clip-path-4)">
              <rect id="Rectángulo_33859" data-name="Rectángulo 33859" width="61.936" height="72.866" transform="translate(-6.476 53.517) rotate(-83.1)" fill="#05339e"/>
            </g>
          </g>
          <g id="Grupo_80318" data-name="Grupo 80318" transform="translate(11.308 97.636)">
            <g id="Grupo_80317" data-name="Grupo 80317" clip-path="url(#clip-path-5)">
              <rect id="Rectángulo_33860" data-name="Rectángulo 33860" width="46.877" height="46.876" transform="translate(-2.478 0.139) rotate(-3.2)" fill="#13b770"/>
            </g>
          </g>
          <g id="Grupo_80320" data-name="Grupo 80320" transform="translate(34.943 99.208)">
            <g id="Grupo_80319" data-name="Grupo 80319" clip-path="url(#clip-path-6)">
              <rect id="Rectángulo_33861" data-name="Rectángulo 33861" width="27.198" height="27.198" transform="matrix(0.742, -0.671, 0.671, 0.742, -9.58, 8.665)" fill="#eecf52"/>
            </g>
          </g>
          <g id="Grupo_80322" data-name="Grupo 80322">
            <g id="Grupo_80321" data-name="Grupo 80321" clip-path="url(#clip-path)">
              <path id="Trazado_113659" data-name="Trazado 113659" d="M656.33,371.465l-.97-7.81H645.347l-.969,7.81a28.313,28.313,0,0,0-8.362,3.2L630,370.01l-7.08,7.08,4.331,5.594a25.9,25.9,0,0,0-3.988,8.9l-6.7.853v10.014l6.7.853a25.879,25.879,0,0,0,3.988,8.9l-4.331,5.594,7.08,7.08,6.012-4.654a28.306,28.306,0,0,0,8.362,3.2l.969,7.81H655.36l.97-7.81a28.3,28.3,0,0,0,8.361-3.2l6.012,4.654,7.08-7.08-4.33-5.594a25.877,25.877,0,0,0,3.988-8.9l6.7-.853V392.434l-6.7-.853a25.876,25.876,0,0,0-3.988-8.9l4.33-5.594-7.08-7.08-6.012,4.654a28.288,28.288,0,0,0-8.361-3.2m-5.976,8.967a17.008,17.008,0,1,1-17.009,17.009,17.009,17.009,0,0,1,17.009-17.009" transform="translate(-414.775 -244.637)" fill="#79dfef" fill-rule="evenodd"/>
            </g>
          </g>
          <g id="Grupo_80324" data-name="Grupo 80324" transform="translate(126.724 0)">
            <g id="Grupo_80323" data-name="Grupo 80323" clip-path="url(#clip-path-8)">
              <rect id="Rectángulo_33863" data-name="Rectángulo 33863" width="80.052" height="77.78" transform="translate(-4.232 0.244) rotate(-3.305)" fill="#eecf52"/>
            </g>
          </g>
          <g id="Grupo_80331" data-name="Grupo 80331">
            <g id="Grupo_80330" data-name="Grupo 80330" clip-path="url(#clip-path)">
              <g id="Grupo_80329" data-name="Grupo 80329" transform="translate(144.083 3.827)" opacity="0.5" style="mix-blend-mode: multiply;isolation: isolate">
                <g id="Grupo_80328" data-name="Grupo 80328">
                  <g id="Grupo_80327" data-name="Grupo 80327" clip-path="url(#clip-path-10)">
                    <g id="Grupo_80326" data-name="Grupo 80326" transform="translate(0 0)">
                      <g id="Grupo_80325" data-name="Grupo 80325" clip-path="url(#clip-path-11)">
                        <rect id="Rectángulo_33864" data-name="Rectángulo 33864" width="46.152" height="54.862" transform="translate(-2.441 0.113) rotate(-2.648)" fill="url(#linear-gradient)"/>
                      </g>
                    </g>
                  </g>
                </g>
              </g>
              <rect id="Rectángulo_33866" data-name="Rectángulo 33866" width="7.622" height="9.194" transform="translate(160.882 8.11)" fill="#13b770"/>
              <rect id="Rectángulo_33867" data-name="Rectángulo 33867" width="7.622" height="4.004" transform="translate(160.882 13.3)" fill="#13b770"/>
              <rect id="Rectángulo_33868" data-name="Rectángulo 33868" width="7.622" height="2.15" transform="translate(160.882 8.61)" fill="#13b770"/>
              <path id="Trazado_113662" data-name="Trazado 113662" d="M486.77,15.717h9.655a.826.826,0,0,1,.824.824V19.4a.827.827,0,0,1-.824.824H486.77a.827.827,0,0,1-.824-.824V16.541a.826.826,0,0,1,.824-.824" transform="translate(-326.904 -10.573)" fill="#13b770" fill-rule="evenodd"/>
            </g>
          </g>
          <g id="Grupo_80333" data-name="Grupo 80333" transform="translate(144.1 14.169)">
            <g id="Grupo_80332" data-name="Grupo 80332" clip-path="url(#clip-path-12)">
              <rect id="Rectángulo_33870" data-name="Rectángulo 33870" width="45.02" height="45.02" transform="translate(-4.011 40.793) rotate(-84.384)" fill="#79dfef"/>
            </g>
          </g>
          <g id="Grupo_80335" data-name="Grupo 80335" transform="translate(147.132 17.202)">
            <g id="Grupo_80334" data-name="Grupo 80334" clip-path="url(#clip-path-13)">
              <rect id="Rectángulo_33871" data-name="Rectángulo 33871" width="42.288" height="42.289" transform="translate(-7.898 33.246) rotate(-76.637)" fill="url(#linear-gradient-2)"/>
            </g>
          </g>
          <g id="Grupo_80337" data-name="Grupo 80337">
            <g id="Grupo_80336" data-name="Grupo 80336" clip-path="url(#clip-path)">
              <path id="Trazado_113665" data-name="Trazado 113665" d="M498.1,83.57a3.145,3.145,0,0,1,1.518,1.519H507.9a1.321,1.321,0,0,1,0,2.641h-8.283a3.131,3.131,0,1,1-4.16-4.16V78.094a1.321,1.321,0,0,1,2.642,0Zm-1.321,1.225a1.614,1.614,0,1,0,1.614,1.614,1.614,1.614,0,0,0-1.614-1.614" transform="translate(-332.086 -51.646)" fill="#fff" fill-rule="evenodd"/>
              <path id="Trazado_113666" data-name="Trazado 113666" d="M475.613,102.292a1.284,1.284,0,1,1-.935,2.163l-11.777,5.16a.509.509,0,0,1-.411-.93l11.842-5.188a1.283,1.283,0,0,1,1.281-1.2" transform="translate(-310.92 -68.813)" fill="#13b770" fill-rule="evenodd"/>
              <path id="Trazado_113667" data-name="Trazado 113667" d="M436.515,40.524a24.053,24.053,0,0,1,4.1-3.477l.591.883a22.747,22.747,0,0,0-2.049,1.55,23.035,23.035,0,0,0-1.869,1.773ZM442.69,35.8q.893-.476,1.785-.86t1.85-.706l.338,1.007q-.883.3-1.768.677t-1.706.818Zm5.552-2.12q.7-.172,1.435-.3c.493-.089.978-.162,1.452-.218l.121,1.057q-.717.084-1.385.206-.684.124-1.372.292Zm4.571-.66c.179-.008.37-.015.571-.02l.571-.009L454.5,33l.543.018L455,34.081l-.518-.018-.523,0-.546,0c-.173,0-.357.011-.55.02Zm3.842.123q.432.049.83.107t.829.139l-.191,1.045c-.24-.044-.5-.087-.792-.13s-.538-.075-.793-.1Zm8.75,2.758A23.957,23.957,0,0,1,477.92,56.958a24.414,24.414,0,0,1-.849,6.43,22.141,22.141,0,0,1-2.487,5.775l-.908-.558a21.071,21.071,0,0,0,2.371-5.5,23.336,23.336,0,0,0,.808-6.151A22.893,22.893,0,0,0,464.9,36.836ZM468.412,76a24.117,24.117,0,0,1-6.852,3.665,23.548,23.548,0,0,1-7.605,1.257,23.854,23.854,0,0,1-11.513-2.942l.512-.933a22.8,22.8,0,0,0,11,2.809,22.483,22.483,0,0,0,7.263-1.2,23.033,23.033,0,0,0,6.548-3.5Zm-32.378-3.133A23.945,23.945,0,0,1,433.9,43.834l.891.583a22.871,22.871,0,0,0,2.036,27.741Z" transform="translate(-289.262 -22.195)" fill="#fff" fill-rule="evenodd"/>
              <path id="Trazado_113668" data-name="Trazado 113668" d="M485.569,71.854h0a1.079,1.079,0,0,1-1.076,1.076h-1.052a1.079,1.079,0,0,1-1.076-1.076h0a1.079,1.079,0,0,1,1.076-1.076h1.052a1.079,1.079,0,0,1,1.076,1.076m-28.538-11.82h0a1.079,1.079,0,0,1,1.522,0l.743.744a1.078,1.078,0,0,1,0,1.522h0a1.079,1.079,0,0,1-1.522,0l-.744-.744a1.079,1.079,0,0,1,0-1.522m21.376,21.376h0a1.079,1.079,0,0,1,1.522,0l.744.744a1.078,1.078,0,0,1,0,1.522h0a1.079,1.079,0,0,1-1.522,0l-.744-.744a1.079,1.079,0,0,1,0-1.522m-9.555-26.272h0a1.079,1.079,0,0,1,1.076,1.076v1.052a1.079,1.079,0,0,1-1.076,1.076h0a1.079,1.079,0,0,1-1.076-1.076V56.213a1.079,1.079,0,0,1,1.076-1.076m0,30.23h0a1.079,1.079,0,0,1,1.076,1.076V87.5a1.079,1.079,0,0,1-1.076,1.076h0a1.079,1.079,0,0,1-1.076-1.076V86.443a1.079,1.079,0,0,1,1.076-1.076m11.821-25.334h0a1.078,1.078,0,0,1,0,1.522l-.744.744a1.079,1.079,0,0,1-1.522,0h0a1.079,1.079,0,0,1,0-1.522l.744-.744a1.079,1.079,0,0,1,1.522,0m-25.334,11.82h0a1.079,1.079,0,0,1-1.076,1.076h-1.052a1.079,1.079,0,0,1-1.076-1.076h0a1.079,1.079,0,0,1,1.076-1.076h1.052a1.079,1.079,0,0,1,1.076,1.076m3.958,9.555h0a1.078,1.078,0,0,1,0,1.522l-.744.744a1.079,1.079,0,0,1-1.522,0h0a1.079,1.079,0,0,1,0-1.522l.744-.744a1.079,1.079,0,0,1,1.522,0" transform="translate(-304.159 -37.092)" fill="#fff" fill-rule="evenodd"/>
            </g>
          </g>
          <g id="Grupo_80339" data-name="Grupo 80339" transform="translate(18.273 17.666)">
            <g id="Grupo_80338" data-name="Grupo 80338" clip-path="url(#clip-path-15)">
              <rect id="Rectángulo_33873" data-name="Rectángulo 33873" width="83.949" height="83.603" transform="translate(-23.295 54.037) rotate(-66.679)" fill="#13b770"/>
            </g>
          </g>
          <g id="Grupo_80346" data-name="Grupo 80346">
            <g id="Grupo_80345" data-name="Grupo 80345" clip-path="url(#clip-path)">
              <g id="Grupo_80344" data-name="Grupo 80344" transform="translate(24.922 21.18)" opacity="0.5" style="mix-blend-mode: multiply;isolation: isolate">
                <g id="Grupo_80343" data-name="Grupo 80343">
                  <g id="Grupo_80342" data-name="Grupo 80342" clip-path="url(#clip-path-17)">
                    <g id="Grupo_80341" data-name="Grupo 80341" transform="translate(0 0)">
                      <g id="Grupo_80340" data-name="Grupo 80340" clip-path="url(#clip-path-18)">
                        <rect id="Rectángulo_33874" data-name="Rectángulo 33874" width="62.008" height="64.588" transform="matrix(0.441, -0.898, 0.898, 0.441, -17.592, 35.837)" fill="url(#linear-gradient-3)"/>
                      </g>
                    </g>
                  </g>
                </g>
              </g>
            </g>
          </g>
          <g id="Grupo_80348" data-name="Grupo 80348" transform="translate(26.905 25.765)">
            <g id="Grupo_80347" data-name="Grupo 80347" clip-path="url(#clip-path-19)">
              <rect id="Rectángulo_33877" data-name="Rectángulo 33877" width="43.342" height="50.729" transform="translate(-4.509 37.521) rotate(-83.147)" fill="#eecf52"/>
            </g>
          </g>
          <g id="Grupo_80352" data-name="Grupo 80352">
            <g id="Grupo_80351" data-name="Grupo 80351" clip-path="url(#clip-path)">
              <path id="Trazado_113673" data-name="Trazado 113673" d="M95.4,116.245a2.945,2.945,0,1,1-2.945,2.945,2.945,2.945,0,0,1,2.945-2.945" transform="translate(-62.194 -78.2)" fill="#fff" fill-rule="evenodd"/>
              <path id="Trazado_113674" data-name="Trazado 113674" d="M113.89,117.625H128.72a.619.619,0,0,1,.617.617v.691a.62.62,0,0,1-.617.617H113.89a.619.619,0,0,1-.617-.617v-.691a.619.619,0,0,1,.617-.617" transform="translate(-76.201 -79.128)" fill="#fff" fill-rule="evenodd"/>
              <path id="Trazado_113675" data-name="Trazado 113675" d="M113.89,126.983h8.253a.619.619,0,0,1,.617.617v.691a.619.619,0,0,1-.617.616H113.89a.619.619,0,0,1-.617-.616V127.6a.618.618,0,0,1,.617-.617" transform="translate(-76.201 -85.424)" fill="#fff" fill-rule="evenodd"/>
            </g>
          </g>
          <g id="Grupo_80354" data-name="Grupo 80354" transform="translate(31.716 26.334)">
            <g id="Grupo_80353" data-name="Grupo 80353" clip-path="url(#clip-path-21)">
              <rect id="Rectángulo_33880" data-name="Rectángulo 33880" width="2.292" height="2.292" transform="translate(-0.033 2.258) rotate(-89.153)" fill="url(#linear-gradient-4)"/>
            </g>
          </g>
          <g id="Grupo_80356" data-name="Grupo 80356">
            <g id="Grupo_80355" data-name="Grupo 80355" clip-path="url(#clip-path)">
              <path id="Trazado_113677" data-name="Trazado 113677" d="M98.089,72.953V68.31a.505.505,0,0,1,.476-.527H99.1a.506.506,0,0,1,.476.527v4.643a.505.505,0,0,1-.476.527h-.534a.505.505,0,0,1-.476-.527" transform="translate(-65.986 -45.599)" fill="#daeafa" fill-rule="evenodd"/>
            </g>
          </g>
          <g id="Grupo_80358" data-name="Grupo 80358" transform="translate(37.489 26.334)">
            <g id="Grupo_80357" data-name="Grupo 80357" clip-path="url(#clip-path-23)">
              <rect id="Rectángulo_33882" data-name="Rectángulo 33882" width="2.292" height="2.292" transform="matrix(0.015, -1, 1, 0.015, -0.033, 2.258)" fill="url(#linear-gradient-5)"/>
            </g>
          </g>
          <g id="Grupo_80360" data-name="Grupo 80360">
            <g id="Grupo_80359" data-name="Grupo 80359" clip-path="url(#clip-path)">
              <path id="Trazado_113679" data-name="Trazado 113679" d="M115.729,72.953V68.31a.505.505,0,0,1,.476-.527h.533a.506.506,0,0,1,.476.527v4.643a.505.505,0,0,1-.476.527h-.533a.5.5,0,0,1-.476-.527" transform="translate(-77.853 -45.599)" fill="#daeafa" fill-rule="evenodd"/>
            </g>
          </g>
          <g id="Grupo_80362" data-name="Grupo 80362" transform="translate(43.263 26.334)">
            <g id="Grupo_80361" data-name="Grupo 80361" clip-path="url(#clip-path-25)">
              <rect id="Rectángulo_33884" data-name="Rectángulo 33884" width="2.292" height="2.292" transform="matrix(0.015, -1, 1, 0.015, -0.033, 2.258)" fill="url(#linear-gradient-6)"/>
            </g>
          </g>
          <g id="Grupo_80364" data-name="Grupo 80364">
            <g id="Grupo_80363" data-name="Grupo 80363" clip-path="url(#clip-path)">
              <path id="Trazado_113681" data-name="Trazado 113681" d="M133.368,72.953V68.31a.505.505,0,0,1,.476-.527h.534a.506.506,0,0,1,.476.527v4.643a.505.505,0,0,1-.476.527h-.534a.505.505,0,0,1-.476-.527" transform="translate(-89.719 -45.599)" fill="#daeafa" fill-rule="evenodd"/>
            </g>
          </g>
          <g id="Grupo_80366" data-name="Grupo 80366" transform="translate(49.036 26.334)">
            <g id="Grupo_80365" data-name="Grupo 80365" clip-path="url(#clip-path-27)">
              <rect id="Rectángulo_33886" data-name="Rectángulo 33886" width="2.292" height="2.292" transform="matrix(0.015, -1, 1, 0.015, -0.033, 2.258)" fill="url(#linear-gradient-7)"/>
            </g>
          </g>
          <g id="Grupo_80368" data-name="Grupo 80368">
            <g id="Grupo_80367" data-name="Grupo 80367" clip-path="url(#clip-path)">
              <path id="Trazado_113683" data-name="Trazado 113683" d="M151.008,72.953V68.31a.505.505,0,0,1,.476-.527h.534a.506.506,0,0,1,.476.527v4.643a.505.505,0,0,1-.476.527h-.534a.5.5,0,0,1-.476-.527" transform="translate(-101.586 -45.599)" fill="#daeafa" fill-rule="evenodd"/>
            </g>
          </g>
          <g id="Grupo_80370" data-name="Grupo 80370" transform="translate(54.809 26.334)">
            <g id="Grupo_80369" data-name="Grupo 80369" clip-path="url(#clip-path-29)">
              <rect id="Rectángulo_33888" data-name="Rectángulo 33888" width="2.292" height="2.292" transform="translate(-0.033 2.258) rotate(-89.153)" fill="url(#linear-gradient-8)"/>
            </g>
          </g>
          <g id="Grupo_80372" data-name="Grupo 80372">
            <g id="Grupo_80371" data-name="Grupo 80371" clip-path="url(#clip-path)">
              <path id="Trazado_113685" data-name="Trazado 113685" d="M168.647,72.953V68.31a.505.505,0,0,1,.476-.527h.534a.506.506,0,0,1,.476.527v4.643a.505.505,0,0,1-.476.527h-.534a.5.5,0,0,1-.476-.527" transform="translate(-113.452 -45.599)" fill="#daeafa" fill-rule="evenodd"/>
            </g>
          </g>
          <g id="Grupo_80374" data-name="Grupo 80374" transform="translate(60.582 26.334)">
            <g id="Grupo_80373" data-name="Grupo 80373" clip-path="url(#clip-path-31)">
              <rect id="Rectángulo_33890" data-name="Rectángulo 33890" width="2.292" height="2.292" transform="translate(-0.033 2.258) rotate(-89.153)" fill="url(#linear-gradient-9)"/>
            </g>
          </g>
          <g id="Grupo_80376" data-name="Grupo 80376">
            <g id="Grupo_80375" data-name="Grupo 80375" clip-path="url(#clip-path)">
              <path id="Trazado_113687" data-name="Trazado 113687" d="M186.286,72.953V68.31a.505.505,0,0,1,.476-.527h.534a.506.506,0,0,1,.476.527v4.643a.505.505,0,0,1-.476.527h-.534a.5.5,0,0,1-.476-.527" transform="translate(-125.318 -45.599)" fill="#daeafa" fill-rule="evenodd"/>
            </g>
          </g>
          <g id="Grupo_80378" data-name="Grupo 80378" transform="translate(66.355 26.334)">
            <g id="Grupo_80377" data-name="Grupo 80377" clip-path="url(#clip-path-33)">
              <rect id="Rectángulo_33892" data-name="Rectángulo 33892" width="2.292" height="2.292" transform="translate(-0.033 2.258) rotate(-89.153)" fill="url(#linear-gradient-10)"/>
            </g>
          </g>
          <g id="Grupo_80380" data-name="Grupo 80380">
            <g id="Grupo_80379" data-name="Grupo 80379" clip-path="url(#clip-path)">
              <path id="Trazado_113689" data-name="Trazado 113689" d="M203.926,72.953V68.31a.505.505,0,0,1,.476-.527h.533a.506.506,0,0,1,.476.527v4.643a.505.505,0,0,1-.476.527H204.4a.5.5,0,0,1-.476-.527" transform="translate(-137.184 -45.599)" fill="#daeafa" fill-rule="evenodd"/>
              <path id="Trazado_113690" data-name="Trazado 113690" d="M93.8,94.712h20.642a1.352,1.352,0,0,1,1.347,1.347v1.509a1.353,1.353,0,0,1-1.347,1.346H93.8a1.352,1.352,0,0,1-1.346-1.346V96.059A1.35,1.35,0,0,1,93.8,94.712" transform="translate(-62.193 -63.714)" fill="#fff" fill-rule="evenodd"/>
              <path id="Trazado_113691" data-name="Trazado 113691" d="M172.488,94.712h11.484a1.353,1.353,0,0,1,1.346,1.347v1.509a1.355,1.355,0,0,1-1.346,1.346H172.488a1.353,1.353,0,0,1-1.346-1.346V96.059a1.35,1.35,0,0,1,1.346-1.347" transform="translate(-115.13 -63.714)" fill="#fff" fill-rule="evenodd"/>
              <path id="Trazado_113692" data-name="Trazado 113692" d="M172.488,116.245h11.484a1.355,1.355,0,0,1,1.346,1.346v19.826a1.36,1.36,0,0,1-1.346,1.346H172.488a1.355,1.355,0,0,1-1.346-1.346V117.591a1.35,1.35,0,0,1,1.346-1.346" transform="translate(-115.13 -78.2)" fill="#fff" fill-rule="evenodd"/>
              <path id="Trazado_113693" data-name="Trazado 113693" d="M95.4,141.63a2.945,2.945,0,1,1-2.945,2.945A2.945,2.945,0,0,1,95.4,141.63" transform="translate(-62.194 -95.277)" fill="#fff" fill-rule="evenodd"/>
              <path id="Trazado_113694" data-name="Trazado 113694" d="M113.89,143.01H128.72a.619.619,0,0,1,.617.616v.691a.62.62,0,0,1-.617.617H113.89a.619.619,0,0,1-.617-.617v-.691a.618.618,0,0,1,.617-.616" transform="translate(-76.201 -96.205)" fill="#fff" fill-rule="evenodd"/>
              <path id="Trazado_113695" data-name="Trazado 113695" d="M113.89,152.367h8.253a.619.619,0,0,1,.617.617v.691a.619.619,0,0,1-.617.616H113.89a.619.619,0,0,1-.617-.616v-.691a.618.618,0,0,1,.617-.617" transform="translate(-76.201 -102.5)" fill="#fff" fill-rule="evenodd"/>
              <path id="Trazado_113696" data-name="Trazado 113696" d="M95.4,167.014a2.945,2.945,0,1,1-2.945,2.945,2.945,2.945,0,0,1,2.945-2.945" transform="translate(-62.194 -112.353)" fill="#fff" fill-rule="evenodd"/>
              <path id="Trazado_113697" data-name="Trazado 113697" d="M113.89,168.394H128.72a.619.619,0,0,1,.617.617v.691a.62.62,0,0,1-.617.617H113.89a.619.619,0,0,1-.617-.617v-.691a.618.618,0,0,1,.617-.617" transform="translate(-76.201 -113.281)" fill="#fff" fill-rule="evenodd"/>
              <path id="Trazado_113698" data-name="Trazado 113698" d="M113.89,177.752h8.253a.619.619,0,0,1,.617.616v.691a.619.619,0,0,1-.617.617H113.89a.619.619,0,0,1-.617-.617v-.691a.618.618,0,0,1,.617-.616" transform="translate(-76.201 -119.577)" fill="#fff" fill-rule="evenodd"/>
            </g>
          </g>
          <g id="Grupo_80382" data-name="Grupo 80382" transform="translate(187.173 90.607)">
            <g id="Grupo_80381" data-name="Grupo 80381" clip-path="url(#clip-path-35)">
              <rect id="Rectángulo_33894" data-name="Rectángulo 33894" width="28.323" height="38.995" transform="matrix(0.999, -0.04, 0.04, 0.999, -1.499, 0.059)" fill="#13b770"/>
            </g>
          </g>
          <g id="Grupo_80384" data-name="Grupo 80384" transform="translate(159.112 103.451)">
            <g id="Grupo_80383" data-name="Grupo 80383" clip-path="url(#clip-path-36)">
              <rect id="Rectángulo_33895" data-name="Rectángulo 33895" width="52.404" height="56.645" transform="translate(-14.798 25.052) rotate(-59.43)" fill="#eecf52"/>
            </g>
          </g>
          <g id="Grupo_80386" data-name="Grupo 80386" transform="translate(160.022 81.935)">
            <g id="Grupo_80385" data-name="Grupo 80385" clip-path="url(#clip-path-37)">
              <rect id="Rectángulo_33896" data-name="Rectángulo 33896" width="33.781" height="48.679" transform="translate(-4.3 26.137) rotate(-80.657)" fill="#79dfef"/>
            </g>
          </g>
          <g id="Grupo_80394" data-name="Grupo 80394">
            <g id="Grupo_80393" data-name="Grupo 80393" clip-path="url(#clip-path)">
              <path id="Trazado_113702" data-name="Trazado 113702" d="M278.368,684.02c2.624,2.077,3.513,2.943,6.853,3.013a6.6,6.6,0,0,0,5.177-1.819c1.707-1.331,2.237-2.162,2.2-3.341-.064-2.252-1.311-4.284-1.5-7.106l-5.465.326-2.379-1c-1.033,1.318-3.232,3.752-4.772,5.891-.759,1.054-.479,2.933-.117,4.033" transform="translate(-187.018 -453.475)" fill="#1c2372" fill-rule="evenodd"/>
              <g id="Grupo_80389" data-name="Grupo 80389" transform="translate(94.589 220.62)" opacity="0.5" style="mix-blend-mode: multiply;isolation: isolate">
                <g id="Grupo_80388" data-name="Grupo 80388">
                  <g id="Grupo_80387" data-name="Grupo 80387" clip-path="url(#clip-path-39)">
                    <path id="Trazado_113703" data-name="Trazado 113703" d="M299.114,677.9a14.542,14.542,0,0,1-.608-3.129l-5.465.326-2.379-1c-.407.519-.994,1.211-1.651,1.989,2.177,2.1,8.736,3.182,10.1,1.812" transform="translate(-289.011 -674.095)" fill="#1c2372" fill-rule="evenodd"/>
                  </g>
                </g>
              </g>
              <path id="Trazado_113704" data-name="Trazado 113704" d="M399.311,669.437c-.448,2.228-1.807,3.929-2.021,5.566-.369,2.82,1.256,5.653,4.591,5.682l21.815.194c-1.155-7.453-12.817-3.321-16.733-11.585l-5.077.286Z" transform="translate(-267.228 -450.245)" fill="#1c2372" fill-rule="evenodd"/>
              <g id="Grupo_80392" data-name="Grupo 80392" transform="translate(131.424 219.049)" opacity="0.5" style="mix-blend-mode: multiply;isolation: isolate">
                <g id="Grupo_80391" data-name="Grupo 80391">
                  <g id="Grupo_80390" data-name="Grupo 80390" clip-path="url(#clip-path-40)">
                    <path id="Trazado_113705" data-name="Trazado 113705" d="M402.218,669.437a10.382,10.382,0,0,1-.658,2.029c2.043,1.418,5.987,2.377,10.553.809a8.952,8.952,0,0,1-2.243-2.98l-5.078.286Z" transform="translate(-401.56 -669.294)" fill="#1c2372" fill-rule="evenodd"/>
                  </g>
                </g>
              </g>
            </g>
          </g>
          <g id="Grupo_80396" data-name="Grupo 80396" transform="translate(97.732 125.297)">
            <g id="Grupo_80395" data-name="Grupo 80395" clip-path="url(#clip-path-41)">
              <rect id="Rectángulo_33900" data-name="Rectángulo 33900" width="105.569" height="82.166" transform="translate(-38.619 76.836) rotate(-63.315)" fill="url(#linear-gradient-11)"/>
            </g>
          </g>
          <g id="Grupo_80401" data-name="Grupo 80401">
            <g id="Grupo_80400" data-name="Grupo 80400" clip-path="url(#clip-path)">
              <g id="Grupo_80399" data-name="Grupo 80399" transform="translate(97.732 125.225)" opacity="0.3" style="mix-blend-mode: multiply;isolation: isolate">
                <g id="Grupo_80398" data-name="Grupo 80398">
                  <g id="Grupo_80397" data-name="Grupo 80397" clip-path="url(#clip-path-43)">
                    <path id="Trazado_113707" data-name="Trazado 113707" d="M308.52,382.62c2.1,19.127,6.99,35.625,11.245,51.988,2.716,10.442,7.01,21.455,11.46,43.443-14.823-36.013-25.813-52.286-32.608-91.963Z" transform="translate(-298.617 -382.62)" fill="#1c2475" fill-rule="evenodd"/>
                  </g>
                </g>
              </g>
            </g>
          </g>
          <g id="Grupo_80403" data-name="Grupo 80403" transform="translate(83.624 123.314)">
            <g id="Grupo_80402" data-name="Grupo 80402" clip-path="url(#clip-path-44)">
              <rect id="Rectángulo_33903" data-name="Rectángulo 33903" width="81.225" height="98.803" transform="matrix(0.818, -0.575, 0.575, 0.818, -47.569, 33.303)" fill="url(#linear-gradient-12)"/>
            </g>
          </g>
          <g id="Grupo_80405" data-name="Grupo 80405">
            <g id="Grupo_80404" data-name="Grupo 80404" clip-path="url(#clip-path)">
              <path id="Trazado_113709" data-name="Trazado 113709" d="M258.267,241.926c-.031,3.312-1.179,23.4-2.888,34.364,9.745,4.71,26.158,4.78,36.355.569-1.219-9.575-3.014-23.217-2.16-32.639.148-1.632,13.449-9.778,2.641-18.9-4.11-3.47-14.734-6.691-20-6.48-9.319.373-14.22,3.368-19.515,8.663Z" transform="translate(-169.995 -147.208)" fill="#c9deff" fill-rule="evenodd"/>
            </g>
          </g>
          <g id="Grupo_80407" data-name="Grupo 80407" transform="translate(97.962 65.15)">
            <g id="Grupo_80406" data-name="Grupo 80406" clip-path="url(#clip-path-46)">
              <rect id="Rectángulo_33905" data-name="Rectángulo 33905" width="13.795" height="15.796" transform="translate(-3.306 0.863) rotate(-14.631)" fill="url(#linear-gradient-13)"/>
            </g>
          </g>
          <g id="Grupo_80409" data-name="Grupo 80409" transform="translate(95.076 45.226)">
            <g id="Grupo_80408" data-name="Grupo 80408" clip-path="url(#clip-path-47)">
              <rect id="Rectángulo_33906" data-name="Rectángulo 33906" width="30.69" height="30.627" transform="matrix(0.714, -0.7, 0.7, 0.714, -9.872, 7.864)" fill="url(#linear-gradient-14)"/>
            </g>
          </g>
          <g id="Grupo_80411" data-name="Grupo 80411">
            <g id="Grupo_80410" data-name="Grupo 80410" clip-path="url(#clip-path)">
              <path id="Trazado_113712" data-name="Trazado 113712" d="M293.643,165.964c-1.788-.158-2.059-.852-2.134-2.1-.077-1.282-.134-.951-.6-2.049a4.841,4.841,0,0,1-.382-1.5c-.143-1.592.417-2.376.707-3.488l.011-.045c.544,2.107,2.683,3.087,3.611.6a5.072,5.072,0,0,0,2.9-2.681c.65-1.558,1.582-2.259,3.245-1.238,3.848,2.362,6.654,5.514,11.311,3.064a6.337,6.337,0,0,1-4.657,3.49l-8.51,3.045Z" transform="translate(-195.425 -102.921)" fill="#24053e" fill-rule="evenodd"/>
            </g>
          </g>
          <g id="Grupo_80413" data-name="Grupo 80413" transform="translate(96.232 51.766)">
            <g id="Grupo_80412" data-name="Grupo 80412" clip-path="url(#clip-path-49)">
              <rect id="Rectángulo_33908" data-name="Rectángulo 33908" width="23.915" height="25.261" transform="translate(-7.739 3.325) rotate(-24.097)" fill="url(#linear-gradient-15)"/>
            </g>
          </g>
          <g id="Grupo_80415" data-name="Grupo 80415">
            <g id="Grupo_80414" data-name="Grupo 80414" clip-path="url(#clip-path)">
              <path id="Trazado_113714" data-name="Trazado 113714" d="M311.777,163.248q-.136.655-.263,1.315c-4.47-.469-6.073-2.943-8.306-5.439a12.852,12.852,0,0,1-3.6,2.774c-.1.5-.356,3.338-1.073,4.565-.584,1-1.117.682-1.556-.148-.294-.557-.657-2.791-1.794-1.761.5-.776,1.335-.875,1.547,0,.373,1.54,1.441,4.263,2.129-3.1a4.514,4.514,0,0,0,2.778-2.05c.677-1.019,1.313-1.786,2.447-.7,2.329,2.235,4.3,4.323,7.7,4.549" transform="translate(-198.572 -106.403)" fill="#ff9484" fill-rule="evenodd"/>
            </g>
          </g>
          <g id="Grupo_80417" data-name="Grupo 80417" transform="translate(102.594 78.277)">
            <g id="Grupo_80416" data-name="Grupo 80416" clip-path="url(#clip-path-51)">
              <rect id="Rectángulo_33910" data-name="Rectángulo 33910" width="20.573" height="40.12" transform="translate(-9.263 2.295) rotate(-14.137)" fill="url(#linear-gradient-16)"/>
            </g>
          </g>
          <g id="Grupo_80419" data-name="Grupo 80419">
            <g id="Grupo_80418" data-name="Grupo 80418" clip-path="url(#clip-path)">
              <path id="Trazado_113716" data-name="Trazado 113716" d="M295.853,218.482c-.988.33-1.726.662-1.9,1.3-.6,2.185,3.179,8.351,5.635,8.929a8.6,8.6,0,0,1,3-3.433c-4.068-1.2-6.3-3.191-6.74-6.793" transform="translate(-197.706 -146.976)" fill="#dae8ff" fill-rule="evenodd"/>
              <path id="Trazado_113717" data-name="Trazado 113717" d="M323.219,219.362a6.423,6.423,0,0,1,1.665.623c1.04,1.159.786,5.855-.881,8.647a13.34,13.34,0,0,0-3.9-2.73c3.638-2.178,3.475-4.291,3.112-6.54" transform="translate(-215.341 -147.568)" fill="#dae8ff" fill-rule="evenodd"/>
            </g>
          </g>
          <g id="Grupo_80421" data-name="Grupo 80421" transform="translate(86.961 95.723)">
            <g id="Grupo_80420" data-name="Grupo 80420" clip-path="url(#clip-path-53)">
              <rect id="Rectángulo_33912" data-name="Rectángulo 33912" width="31.729" height="40.016" transform="translate(-2.943 0.209) rotate(-4.25)" fill="url(#linear-gradient-17)"/>
            </g>
          </g>
          <g id="Grupo_80426" data-name="Grupo 80426">
            <g id="Grupo_80425" data-name="Grupo 80425" clip-path="url(#clip-path)">
              <g id="Grupo_80424" data-name="Grupo 80424" transform="translate(87.399 116.813)" opacity="0.5" style="mix-blend-mode: multiply;isolation: isolate">
                <g id="Grupo_80423" data-name="Grupo 80423">
                  <g id="Grupo_80422" data-name="Grupo 80422" clip-path="url(#clip-path-55)">
                    <path id="Trazado_113719" data-name="Trazado 113719" d="M268.743,356.917l-1.7,8.9a68.06,68.06,0,0,1,11.142,1.543c2.106,1.561,4.824,2.581,11.87,1.644l1.072-5.619-5.568.08Z" transform="translate(-267.045 -356.917)" fill="#262e7b" fill-rule="evenodd"/>
                  </g>
                </g>
              </g>
            </g>
          </g>
          <g id="Grupo_80428" data-name="Grupo 80428" transform="translate(97.94 117.066)">
            <g id="Grupo_80427" data-name="Grupo 80427" clip-path="url(#clip-path-56)">
              <rect id="Rectángulo_33915" data-name="Rectángulo 33915" width="19.16" height="18.675" transform="matrix(0.744, -0.668, 0.668, 0.744, -5.764, 4.499)" fill="url(#linear-gradient-18)"/>
            </g>
          </g>
          <g id="Grupo_80433" data-name="Grupo 80433">
            <g id="Grupo_80432" data-name="Grupo 80432" clip-path="url(#clip-path)">
              <path id="Trazado_113721" data-name="Trazado 113721" d="M313.045,374.709c-.237,1.248-.45,1.96-.778,2.214-1.2.929-5.913.683-8.375.321-2.183-.321-3.11-3-4.679-3.116-.9-2.125.1.093,1.283-1.579,3.541,2.854,7.487,2.131,12.55,2.161" transform="translate(-201.052 -250.619)" fill="#ff8e7e" fill-rule="evenodd"/>
              <path id="Trazado_113722" data-name="Trazado 113722" d="M234.2,249.835c-4.021,5.172-8.479,8.915-7.526,11.972,1.538,4.931,8.337,7.619,19.34,11.6.5,1.623-.712,5.557-2.967,7.569-9.177-2.438-25.452-5.094-28.529-15.283-1.593-5.276-.323-14.309,4.8-20.969,4.177-5.432,9.265-10.649,12.239-12.269,2.778-1.514,5.6,13.576,2.642,17.375" transform="translate(-143.875 -156.308)" fill="#c9deff" fill-rule="evenodd"/>
              <g id="Grupo_80431" data-name="Grupo 80431" transform="translate(70.642 109.39)" opacity="0.5" style="mix-blend-mode: multiply;isolation: isolate">
                <g id="Grupo_80430" data-name="Grupo 80430">
                  <g id="Grupo_80429" data-name="Grupo 80429" clip-path="url(#clip-path-58)">
                    <path id="Trazado_113723" data-name="Trazado 113723" d="M243.942,340.707q1.623.6,3.4,1.242c.5,1.623-.712,5.557-2.967,7.57-9.178-2.438-25.452-5.094-28.529-15.283,5.315,8.725,23.966,13.426,28.1,6.471" transform="translate(-215.842 -334.236)" fill="#c9deff" fill-rule="evenodd"/>
                  </g>
                </g>
              </g>
            </g>
          </g>
          <g id="Grupo_80435" data-name="Grupo 80435" transform="translate(153.111 68.086)">
            <g id="Grupo_80434" data-name="Grupo 80434" clip-path="url(#clip-path-59)">
              <rect id="Rectángulo_33918" data-name="Rectángulo 33918" width="30.951" height="31.299" transform="translate(-9.956 11.272) rotate(-48.545)" fill="url(#linear-gradient-19)"/>
            </g>
          </g>
          <g id="Grupo_80440" data-name="Grupo 80440">
            <g id="Grupo_80439" data-name="Grupo 80439" clip-path="url(#clip-path)">
              <path id="Trazado_113725" data-name="Trazado 113725" d="M482.189,233.111c1.88-4.457,3.472-4.74,9.046-6.344l3.083,1.86-2.625-.994c-3.839,1.827-7.547,1.6-9.5,5.478" transform="translate(-324.376 -152.55)" fill="#ff8e7e" fill-rule="evenodd"/>
              <path id="Trazado_113726" data-name="Trazado 113726" d="M349.747,230.468C360.92,234.08,364.382,250,370.288,249.75c5.193-.221,9.9-4.545,16.624-14.216,1.708-.07,4.881,2.107,6.256,4.82-4.743,8.3-11.531,23.437-22.236,23.8-5.543.186-14.143-4.241-19.3-10.945-8.76-11.393-6.13-11.214-1.888-22.738" transform="translate(-232.633 -155.04)" fill="#c9deff" fill-rule="evenodd"/>
              <g id="Grupo_80438" data-name="Grupo 80438" transform="translate(118.544 88.872)" opacity="0.5" style="mix-blend-mode: multiply;isolation: isolate">
                <g id="Grupo_80437" data-name="Grupo 80437">
                  <g id="Grupo_80436" data-name="Grupo 80436" clip-path="url(#clip-path-61)">
                    <path id="Trazado_113727" data-name="Trazado 113727" d="M362.207,271.544c7.026,12.765,13.443,15.629,19.254,16.707,3.038.564,8.8-1.634,16.21-8.823-4.051,6.352-9.143,12.134-15.709,12.354-5.544.186-14.143-4.241-19.3-10.944Z" transform="translate(-362.207 -271.544)" fill="#c9deff" fill-rule="evenodd"/>
                  </g>
                </g>
              </g>
              <rect id="Rectángulo_33920" data-name="Rectángulo 33920" width="31.597" height="31.132" transform="translate(35.769 172.353)" fill="#fff"/>
              <path id="Trazado_113728" data-name="Trazado 113728" d="M115.022,520.506H119.9v1.039h-4.881Zm6.894,0h3.594v1.039h-3.594Zm6.344,0h2.416v1.039h-2.416Zm5.215,0h1.33v1.039h-1.33Zm3.805,0v1.039h2.377v33.868h-34.9V521.545h7.466v-1.039h-8.505v35.946H140.7V520.506Z" transform="translate(-69.773 -350.153)" fill="#dde4ff" fill-rule="evenodd"/>
            </g>
          </g>
          <g id="Grupo_80442" data-name="Grupo 80442" transform="translate(38.559 174.91)">
            <g id="Grupo_80441" data-name="Grupo 80441" clip-path="url(#clip-path-62)">
              <rect id="Rectángulo_33922" data-name="Rectángulo 33922" width="34.243" height="34.243" transform="translate(-9.526 21.868) rotate(-66.462)" fill="url(#linear-gradient-20)"/>
            </g>
          </g>
          <g id="Grupo_80444" data-name="Grupo 80444">
            <g id="Grupo_80443" data-name="Grupo 80443" clip-path="url(#clip-path)">
              <path id="Trazado_113730" data-name="Trazado 113730" d="M157.562,534.429a13.009,13.009,0,0,1,13.009,13.008H164.62a7.058,7.058,0,0,0-7.058-7.057Z" transform="translate(-105.995 -359.519)" fill="#00cedc" fill-rule="evenodd"/>
              <path id="Trazado_113731" data-name="Trazado 113731" d="M145.144,567.391c0,.068,0,.126-.006.177s-.008.1-.015.14a.884.884,0,0,1-.027.122c-.01.038-.024.081-.04.125l-1.211,3.46a.209.209,0,0,1-.043.073.187.187,0,0,1-.076.044.51.51,0,0,1-.123.022c-.051,0-.113,0-.187,0a1.857,1.857,0,0,1-.239-.012.321.321,0,0,1-.129-.04.078.078,0,0,1-.044-.065.226.226,0,0,1,.019-.1l1.3-3.54h-1.547c-.04,0-.07-.032-.089-.1a1.131,1.131,0,0,1-.03-.306,1.4,1.4,0,0,1,.009-.179.65.65,0,0,1,.024-.125.171.171,0,0,1,.037-.069.07.07,0,0,1,.049-.021h2.189a.244.244,0,0,1,.085.012.1.1,0,0,1,.054.054.408.408,0,0,1,.03.119,1.664,1.664,0,0,1,.01.2m2.918,2.672a1.942,1.942,0,0,1-.1.656,1.367,1.367,0,0,1-.293.488,1.275,1.275,0,0,1-.454.3,1.583,1.583,0,0,1-.59.105,1.886,1.886,0,0,1-.324-.026,2.077,2.077,0,0,1-.276-.067,1.476,1.476,0,0,1-.2-.081.42.42,0,0,1-.1-.067.179.179,0,0,1-.036-.058.457.457,0,0,1-.019-.075c0-.03-.007-.067-.009-.111s0-.1,0-.158,0-.121.006-.166a.576.576,0,0,1,.018-.11.133.133,0,0,1,.03-.06.051.051,0,0,1,.04-.018.178.178,0,0,1,.086.041,1.523,1.523,0,0,0,.154.088,1.371,1.371,0,0,0,.231.088,1.147,1.147,0,0,0,.327.041,1.039,1.039,0,0,0,.3-.042.57.57,0,0,0,.229-.135.624.624,0,0,0,.145-.233,1.1,1.1,0,0,0,.009-.635.544.544,0,0,0-.134-.222.559.559,0,0,0-.236-.136,1.222,1.222,0,0,0-.352-.045,1.91,1.91,0,0,0-.3.022,1.8,1.8,0,0,1-.256.02.134.134,0,0,1-.118-.05.352.352,0,0,1-.036-.188v-1.966a.355.355,0,0,1,.044-.2.163.163,0,0,1,.141-.061h1.744a.072.072,0,0,1,.048.021.154.154,0,0,1,.038.066.547.547,0,0,1,.023.122c0,.05.007.11.007.181a1.114,1.114,0,0,1-.03.3c-.02.063-.049.094-.087.094h-1.311v.968a1.935,1.935,0,0,1,.2-.018c.065,0,.134,0,.206,0a1.525,1.525,0,0,1,.531.086,1.011,1.011,0,0,1,.39.253,1.086,1.086,0,0,1,.241.413,1.781,1.781,0,0,1,.083.572m2.131-1.946a2.291,2.291,0,0,1-.049.5,1.105,1.105,0,0,1-.155.379.742.742,0,0,1-.268.245.814.814,0,0,1-.391.087.837.837,0,0,1-.4-.087.689.689,0,0,1-.259-.243,1.068,1.068,0,0,1-.136-.373,2.693,2.693,0,0,1-.04-.48,2.262,2.262,0,0,1,.048-.48,1.134,1.134,0,0,1,.152-.379.72.72,0,0,1,.267-.25.937.937,0,0,1,.81.005.7.7,0,0,1,.257.254,1.125,1.125,0,0,1,.131.374,2.7,2.7,0,0,1,.037.448m-.565.023a2.964,2.964,0,0,0-.016-.328.893.893,0,0,0-.052-.217.264.264,0,0,0-.089-.123.233.233,0,0,0-.132-.038.209.209,0,0,0-.125.037.266.266,0,0,0-.088.119.817.817,0,0,0-.052.214,2.571,2.571,0,0,0-.017.319,2.722,2.722,0,0,0,.02.355.783.783,0,0,0,.057.216.22.22,0,0,0,.09.109.242.242,0,0,0,.123.03.212.212,0,0,0,.135-.041.272.272,0,0,0,.086-.123.859.859,0,0,0,.046-.215,3.053,3.053,0,0,0,.014-.313m2.785,2.243a2.3,2.3,0,0,1-.05.5,1.089,1.089,0,0,1-.155.379.733.733,0,0,1-.268.245.81.81,0,0,1-.39.087.833.833,0,0,1-.4-.087.685.685,0,0,1-.26-.242,1.065,1.065,0,0,1-.135-.373,2.685,2.685,0,0,1-.04-.479,2.221,2.221,0,0,1,.049-.481,1.135,1.135,0,0,1,.152-.379.719.719,0,0,1,.267-.25.8.8,0,0,1,.393-.09.821.821,0,0,1,.417.094.694.694,0,0,1,.256.255,1.111,1.111,0,0,1,.132.374,2.709,2.709,0,0,1,.037.448m-.565.023a2.884,2.884,0,0,0-.017-.328.847.847,0,0,0-.051-.217.27.27,0,0,0-.09-.123.234.234,0,0,0-.132-.038.21.21,0,0,0-.124.037.261.261,0,0,0-.088.118.811.811,0,0,0-.052.214,2.577,2.577,0,0,0-.017.319,2.665,2.665,0,0,0,.02.355.817.817,0,0,0,.056.216.223.223,0,0,0,.091.109.244.244,0,0,0,.123.03.216.216,0,0,0,.136-.04.28.28,0,0,0,.086-.123.872.872,0,0,0,.046-.215,3.055,3.055,0,0,0,.014-.313m-2.43,1.108,2.622-4.422a.24.24,0,0,0,.034-.087.076.076,0,0,0-.018-.067.153.153,0,0,0-.08-.042.615.615,0,0,0-.149-.014,1.131,1.131,0,0,0-.141.008.387.387,0,0,0-.1.024.205.205,0,0,0-.067.045.655.655,0,0,0-.051.067l-2.622,4.423a.248.248,0,0,0-.036.09.08.08,0,0,0,.02.064.154.154,0,0,0,.08.042.636.636,0,0,0,.15.014,1.209,1.209,0,0,0,.14-.007.422.422,0,0,0,.1-.024.233.233,0,0,0,.067-.045.389.389,0,0,0,.052-.068" transform="translate(-95.967 -381.35)" fill="#1c8eaa" fill-rule="evenodd"/>
            </g>
          </g>
          <g id="Grupo_80446" data-name="Grupo 80446" transform="translate(130.94 141.39)">
            <g id="Grupo_80445" data-name="Grupo 80445" clip-path="url(#clip-path-64)">
              <rect id="Rectángulo_33924" data-name="Rectángulo 33924" width="62.638" height="65.412" transform="matrix(0.532, -0.847, 0.847, 0.532, -18.933, 30.144)" fill="#05339e"/>
            </g>
          </g>
          <g id="Grupo_80448" data-name="Grupo 80448">
            <g id="Grupo_80447" data-name="Grupo 80447" clip-path="url(#clip-path)">
              <path id="Trazado_113733" data-name="Trazado 113733" d="M459.981,448.171h16.191a2.843,2.843,0,0,1,2.014.838l0,0a2.844,2.844,0,0,1,.838,2.014v21.722a2.844,2.844,0,0,1-.838,2.014l0,0a2.843,2.843,0,0,1-2.014.838H459.981a2.843,2.843,0,0,1-2.014-.838l0,0a2.843,2.843,0,0,1-.838-2.014V451.026a2.843,2.843,0,0,1,.838-2.014l0,0a2.843,2.843,0,0,1,2.014-.838m5.92,6.935h9.253a.948.948,0,0,0,0-1.9H465.9a.948.948,0,0,0,0,1.9m-5.278-3.741H459.9l2.8,4.159,2.251-3.348h-.443l-1.468,1.576Zm5.328,9.508H475.2a.948.948,0,1,0,0-1.9h-9.252a.948.948,0,1,0,0,1.9m-5.278-3.741h-.722l2.8,4.159L465,457.944h-.444l-1.468,1.577ZM466,466.642h9.253a.948.948,0,1,0,0-1.9H466a.948.948,0,1,0,0,1.9m-5.278-3.741H460l2.8,4.159,2.251-3.349h-.444l-1.468,1.577Zm5.328,9.508H475.3a.948.948,0,1,0,0-1.9h-9.253a.948.948,0,1,0,0,1.9m10.121-22.751H459.981a1.369,1.369,0,0,0-1.368,1.368v21.722a1.369,1.369,0,0,0,1.368,1.368h16.191a1.369,1.369,0,0,0,1.368-1.368V451.026a1.369,1.369,0,0,0-1.368-1.368" transform="translate(-305.062 -298.417)" fill="#fff" fill-rule="evenodd"/>
              <rect id="Rectángulo_33925" data-name="Rectángulo 33925" width="8.616" height="21.324" transform="translate(144.768 197.889)" fill="#05339e"/>
              <rect id="Rectángulo_33926" data-name="Rectángulo 33926" width="8.616" height="28.682" transform="translate(157.213 190.531)" fill="#13b770"/>
              <rect id="Rectángulo_33927" data-name="Rectángulo 33927" width="8.616" height="12.914" transform="translate(169.658 206.299)" fill="#13b770"/>
              <rect id="Rectángulo_33928" data-name="Rectángulo 33928" width="8.616" height="25.528" transform="translate(182.103 193.685)" fill="#05339e"/>
              <rect id="Rectángulo_33929" data-name="Rectángulo 33929" width="8.616" height="36.544" transform="translate(194.543 182.669)" fill="#13b770"/>
              <rect id="Rectángulo_33930" data-name="Rectángulo 33930" width="8.616" height="12.914" transform="translate(206.988 206.299)" fill="#eecf52"/>
              <rect id="Rectángulo_33931" data-name="Rectángulo 33931" width="8.616" height="19.858" transform="translate(219.433 199.355)" fill="#13b770"/>
              <path id="Trazado_113734" data-name="Trazado 113734" d="M.54,218.736a4.74,4.74,0,0,1,1.857-6.4l9.687,6.911Z" transform="translate(0 -173.832)" fill="#05339e" fill-rule="evenodd"/>
              <path id="Trazado_113735" data-name="Trazado 113735" d="M695.942,147.96l-5.494,7.714,9.477-.816a26.411,26.411,0,0,0-3.983-6.9" transform="translate(-464.476 -78.465)" fill="#13b770" fill-rule="evenodd"/>
              <path id="Trazado_113736" data-name="Trazado 113736" d="M46.806,663.466l6.069,9.784,3.782-16.476c-3.23.773-6.861,3.219-9.852,6.691" transform="translate(-31.487 -441.823)" fill="#eecf52" fill-rule="evenodd"/>
              <path id="Trazado_113737" data-name="Trazado 113737" d="M792.046,617.595,782.91,615.1l4.036,8.613a26.416,26.416,0,0,0,5.1-6.12" transform="translate(-526.676 -413.789)" fill="#79dfef" fill-rule="evenodd"/>
            </g>
          </g>
        </g>
      </g>
    </g>
  </g>
</svg>
