<svg xmlns="http://www.w3.org/2000/svg" xmlns:xlink="http://www.w3.org/1999/xlink" width="505" height="443" viewBox="0 0 505 443">
  <defs>
    <clipPath id="clip-path">
      <rect id="Rectángulo_34341" data-name="Rectángulo 34341" width="247.253" height="244.944" fill="none"/>
    </clipPath>
    <clipPath id="clip-path-3">
      <path id="Trazado_114311" data-name="Trazado 114311" d="M294.961,428.1l1.46,13.552c1.109,10.292,8.328,18.825,18.507,18.838h1.458c10.179-.013,17.4-8.546,18.508-18.838l1.461-13.552Z" transform="translate(-294.961 -428.099)" fill="none"/>
    </clipPath>
    <clipPath id="clip-path-4">
      <path id="Trazado_114312" data-name="Trazado 114312" d="M224.647,161.467c2.925,8.919,7.6,16.383,13.449,28.439,5.706,11.758,5.779,17.6,16.724,20.729a35.86,35.86,0,0,0,20.777,0,20.117,20.117,0,0,0,6.647-3.065c4.719-3.52,5.862-8.979,10.076-17.663,5.494-11.322,9.831-18.427,12.727-26.222,12.006-32.312-1.742-63.954-39.839-64.1-37.192.141-51.1,29.749-40.561,61.881" transform="translate(-221.229 -99.586)" fill="none"/>
    </clipPath>
    <clipPath id="clip-path-6">
      <path id="Trazado_114322" data-name="Trazado 114322" d="M543.758,98.748l-10.233,14.376,13.035,3.552,59.018-30.2-.01.006-51.935,34.282,6.179,7.538,24.783-5.975,21.425-36.094L606,86.224l-.013-.008Z" transform="translate(-533.525 -86.216)" fill="none"/>
    </clipPath>
    <clipPath id="clip-path-8">
      <rect id="Rectángulo_34316" data-name="Rectángulo 34316" width="192.399" height="16.964" fill="#b7b7b7"/>
    </clipPath>
    <clipPath id="clip-path-9">
      <rect id="Rectángulo_34317" data-name="Rectángulo 34317" width="115.437" height="10.795" fill="none"/>
    </clipPath>
    <clipPath id="clip-path-10">
      <rect id="Rectángulo_34318" data-name="Rectángulo 34318" width="9.583" height="4.588" fill="none"/>
    </clipPath>
    <clipPath id="clip-path-11">
      <rect id="Rectángulo_34319" data-name="Rectángulo 34319" width="10.046" height="3.606" fill="none"/>
    </clipPath>
    <clipPath id="clip-path-12">
      <path id="Trazado_114331" data-name="Trazado 114331" d="M153.009,415.786c3.9,21.357,6.06,34.753,6.963,51.875.717,13.592.864,27.771,1.274,41.529a13.84,13.84,0,0,0,9.94-.068c2.546-23.762,6.371-50.695,6.637-74.478a88.734,88.734,0,0,0-1.054-16.271l-7.693-3.132Z" transform="translate(-153.009 -415.241)" fill="none"/>
    </clipPath>
    <linearGradient id="linear-gradient" x1="-0.118" y1="1.816" x2="-0.115" y2="1.816" gradientUnits="objectBoundingBox">
      <stop offset="0" stop-color="#3e4795"/>
      <stop offset="1" stop-color="#273088"/>
    </linearGradient>
    <clipPath id="clip-path-14">
      <rect id="Rectángulo_34322" data-name="Rectángulo 34322" width="12.984" height="90.817" fill="none"/>
    </clipPath>
    <clipPath id="clip-path-15">
      <path id="Trazado_114333" data-name="Trazado 114333" d="M84.79,418.968c-1.271,3.848-2.944,6.754-4.7,14.624-1.9,8.552-2.445,16.615-3.873,24.93a512.148,512.148,0,0,1-11.173,50.445c2.818,2.345,8.333,2.347,10.348,1.634,6.019-13.693,9.721-27.05,15.021-40.934,7.261-19.022,15.182-38.074,21.468-56.146Z" transform="translate(-65.048 -413.522)" fill="none"/>
    </clipPath>
    <linearGradient id="linear-gradient-2" x1="-0.045" y1="1.105" x2="-0.041" y2="1.105" xlink:href="#linear-gradient"/>
    <clipPath id="clip-path-16">
      <path id="Trazado_114334" data-name="Trazado 114334" d="M95.517,267.595c-6.97.28-14.894,2.207-19.876,8.265-5.285,6.425-12.287,21.285-11.438,29.751.422,4.211,3.117,7.893,16.2,22.807l.885-10.62c-7.676-14.2-7.3-12.527,1.5-26.415-.1,10.328.7,20.605.1,30.7,11.235,2.407,23.282,3.291,34.141-.409-.138-6.7-1.706-16.691-3.3-25.943-1.094-6.339.106-12.343-1.178-17.954-1.134-4.952-3.89-7.983-7.868-9.139a28.409,28.409,0,0,0-7.883-1.071q-.638,0-1.278.026" transform="translate(-64.132 -267.569)" fill="none"/>
    </clipPath>
    <linearGradient id="linear-gradient-3" x1="-0.137" y1="2.424" x2="-0.133" y2="2.424" gradientUnits="objectBoundingBox">
      <stop offset="0" stop-color="#1c8ef4"/>
      <stop offset="1" stop-color="#00cfdd"/>
    </linearGradient>
    <clipPath id="clip-path-18">
      <rect id="Rectángulo_34327" data-name="Rectángulo 34327" width="15.296" height="41.253" fill="none"/>
    </clipPath>
    <clipPath id="clip-path-19">
      <path id="Trazado_114335" data-name="Trazado 114335" d="M194.94,309.614c-.552-3.9-1.287-8.273-2.009-12.453-1.094-6.34-.064-13.228-1.348-18.839-1.134-4.952-3.889-7.983-7.868-9.139a26.585,26.585,0,0,0-3.968-.821l-.1.119a23.283,23.283,0,0,0,4.9,5.65c-.443,18.017.759,20.492,10.394,35.483" transform="translate(-179.644 -268.361)" fill="none" clip-rule="evenodd"/>
    </clipPath>
    <linearGradient id="linear-gradient-4" x1="-0.999" y1="7.241" x2="-0.992" y2="7.241" xlink:href="#linear-gradient-3"/>
    <clipPath id="clip-path-20">
      <rect id="Rectángulo_34329" data-name="Rectángulo 34329" width="6.124" height="28.706" fill="none"/>
    </clipPath>
    <clipPath id="clip-path-21">
      <path id="Trazado_114336" data-name="Trazado 114336" d="M104.3,398.064l.885-10.621c-5.587-10.331-7.044-12.37-3.645-18.086-3.772,4.709-2.34,7.523-1.5,13.01.542,3.538,1.113,7.2-.583,10.135,1.43,1.66,3.037,3.5,4.841,5.56" transform="translate(-99.063 -369.358)" fill="none" clip-rule="evenodd"/>
    </clipPath>
    <linearGradient id="linear-gradient-5" x1="-0.654" y1="12.336" x2="-0.643" y2="12.336" xlink:href="#linear-gradient-3"/>
    <clipPath id="clip-path-22">
      <path id="Trazado_114337" data-name="Trazado 114337" d="M147.206,252.178a42.738,42.738,0,0,1-.612,5.888,6.592,6.592,0,0,0,6.948,4.955c2.588-.35,3.263-3.848,2.379-6.01-.127-1.051-.175-1.938-.2-3l-6.535-1.906Z" transform="translate(-146.594 -252.11)" fill="none"/>
    </clipPath>
    <linearGradient id="linear-gradient-6" x1="-3.886" y1="13.117" x2="-3.859" y2="13.117" gradientUnits="objectBoundingBox">
      <stop offset="0" stop-color="#ff8a78"/>
      <stop offset="1" stop-color="#ffa799"/>
    </linearGradient>
    <clipPath id="clip-path-23">
      <path id="Trazado_114338" data-name="Trazado 114338" d="M139.931,185.3c-2.088-1.2-4.378-1.149-5.821,1.447-3.993-1.957-7.655,1.755-6.48,6.011.243.878.831,1.394.859,2.753a7.794,7.794,0,0,0,.253,3.379,4.611,4.611,0,0,0,.737,1.273c.712.886.679.568,1.081,1.723.39,1.121.818,1.687,2.5,1.37l4.289-4.069,7.012-4.987c2.205-.985,5.206-4.643,2-8.316a4.268,4.268,0,0,0-3.289-1.571,6.121,6.121,0,0,0-3.137.986" transform="translate(-127.407 -184.313)" fill="none"/>
    </clipPath>
    <linearGradient id="linear-gradient-7" x1="-1.29" y1="6.462" x2="-1.279" y2="6.462" gradientUnits="objectBoundingBox">
      <stop offset="0" stop-color="#5a2d68"/>
      <stop offset="1" stop-color="#22043d"/>
    </linearGradient>
    <clipPath id="clip-path-25">
      <path id="Trazado_114340" data-name="Trazado 114340" d="M141,207.874a4.3,4.3,0,0,1-2.016,2.6c1.271,6.927-.411,4.707-1.15,3.393-.529-.94-1.562-.206-1.511,1.166.056,1.492,1.558,2.13,2.457,3.185a5.26,5.26,0,0,1,.745,1.082c.385.8.053,1.709,2.333,2.635a30.3,30.3,0,0,0,4.815,1.7c2.338.5,3.312-.431,3.925-1.93,1.686-4.127,1-8.573.691-12.914-3.17.67-5.516-.735-8.227-2.182a1.811,1.811,0,0,0-.83-.254c-.681,0-.964.7-1.231,1.526" transform="translate(-136.32 -206.348)" fill="none"/>
    </clipPath>
    <linearGradient id="linear-gradient-8" x1="-2.122" y1="8.716" x2="-2.106" y2="8.716" gradientUnits="objectBoundingBox">
      <stop offset="0" stop-color="#ffb89e"/>
      <stop offset="1" stop-color="#ffa799"/>
    </linearGradient>
    <clipPath id="clip-path-27">
      <path id="Trazado_114342" data-name="Trazado 114342" d="M185.461,246.957a2,2,0,0,0-1.629,1.958,4.26,4.26,0,0,0,.677,2.375,10.455,10.455,0,0,1,.265,1.765,7.778,7.778,0,0,1-.836-2.218,3.057,3.057,0,0,0-1.88-3c-.013.708-.065,1.4-.054,2.1.06,3.68.265,5.384,3.58,7.335a6.594,6.594,0,0,1,2.192,2.358l1.736.221,3-1.566a9.142,9.142,0,0,1-.031-5.067,2.658,2.658,0,0,0-.979-2.868l-2.639-2.569a3.7,3.7,0,0,0-2.487-.953,3.183,3.183,0,0,0-.911.128" transform="translate(-182.002 -246.829)" fill="none"/>
    </clipPath>
    <linearGradient id="linear-gradient-9" x1="-4.533" y1="11.613" x2="-4.507" y2="11.613" xlink:href="#linear-gradient-8"/>
    <clipPath id="clip-path-29">
      <path id="Trazado_114344" data-name="Trazado 114344" d="M199,280.507c.455,8.035,1.119,14.214,3.93,19.614,3.707,7.122,8.423,9.686,10.669,8.317,1.516-.924,2.092-5.038.512-11.49-1.545-6.313-5.464-12.751-9.938-18.688-1.762.644-3.677,1.1-5.174,2.247" transform="translate(-198.995 -278.26)" fill="none"/>
    </clipPath>
    <linearGradient id="linear-gradient-10" x1="-3.24" y1="4.818" x2="-3.223" y2="4.818" xlink:href="#linear-gradient-3"/>
    <clipPath id="clip-path-30">
      <path id="Trazado_114345" data-name="Trazado 114345" d="M162.707,286.791c-1.089.132-2.2.243-2.042,1.421.123.9.9,1.558,1.869,2.323,1.748,8.942,1.256,18.349.21,27.291l4.717,5.938,3.086-7.153c-.753-8.158-1.767-17.179-6.246-26.578.741-2.193.5-2.694.074-3.018-.307-.234-.24-.34-.533-.34-.182,0-.5.041-1.134.117" transform="translate(-160.649 -286.674)" fill="none"/>
    </clipPath>
    <linearGradient id="linear-gradient-11" x1="-2.194" y1="4.039" x2="-2.179" y2="4.039" xlink:href="#linear-gradient"/>
  </defs>
  <g id="Grupo_85446" data-name="Grupo 85446" transform="translate(-285 -7262)">
    <rect id="Rectángulo_34309" data-name="Rectángulo 34309" width="505" height="443" rx="12" transform="translate(285 7262)" fill="#13b770"/>
    <path id="Trazado_119100" data-name="Trazado 119100" d="M4.952,17.693V23H1.182V7.359H7.423A7.269,7.269,0,0,1,10.6,8.02,4.979,4.979,0,0,1,12.735,9.9a5.134,5.134,0,0,1,.757,2.766,4.526,4.526,0,0,1-1.638,3.658,6.8,6.8,0,0,1-4.5,1.37Zm0-2.911H7.423a2.33,2.33,0,0,0,1.67-.548,2.035,2.035,0,0,0,.575-1.547,2.516,2.516,0,0,0-.591-1.751,2.092,2.092,0,0,0-1.611-.666H4.952Zm17.413-.129-1.192-.086a2.142,2.142,0,0,0-2.191,1.074V23h-3.62V11.377h3.395l.118,1.493a2.8,2.8,0,0,1,2.546-1.708,3.53,3.53,0,0,1,1.01.129Zm.462,2.428a6.86,6.86,0,0,1,.677-3.1,4.84,4.84,0,0,1,1.944-2.089,5.856,5.856,0,0,1,2.976-.73,5.344,5.344,0,0,1,4.114,1.617,6.2,6.2,0,0,1,1.5,4.4v.129a6.019,6.019,0,0,1-1.509,4.313,5.359,5.359,0,0,1-4.087,1.6,5.42,5.42,0,0,1-3.985-1.488,5.819,5.819,0,0,1-1.622-4.034Zm3.62.226a4.325,4.325,0,0,0,.5,2.363,1.682,1.682,0,0,0,1.493.752q1.934,0,1.977-2.976v-.365q0-3.126-2-3.126-1.815,0-1.966,2.7Zm14.1,3.115a1.61,1.61,0,0,0,1.182-.414,1.517,1.517,0,0,0,.408-1.155h3.395a4.018,4.018,0,0,1-1.37,3.137,5.1,5.1,0,0,1-3.529,1.225,5.158,5.158,0,0,1-4-1.59,6.264,6.264,0,0,1-1.461-4.4v-.15a7.08,7.08,0,0,1,.65-3.11,4.732,4.732,0,0,1,1.875-2.073,5.589,5.589,0,0,1,2.9-.725,5.03,5.03,0,0,1,3.6,1.257,4.458,4.458,0,0,1,1.332,3.405H42.142a1.987,1.987,0,0,0-.44-1.386,1.52,1.52,0,0,0-1.182-.483q-1.407,0-1.644,1.794a12.659,12.659,0,0,0-.075,1.568,4.972,4.972,0,0,0,.419,2.428A1.45,1.45,0,0,0,40.552,20.422ZM52.69,23.215a5.975,5.975,0,0,1-4.329-1.6,5.509,5.509,0,0,1-1.654-4.152v-.3a7.138,7.138,0,0,1,.661-3.147A4.834,4.834,0,0,1,49.3,11.909a5.821,5.821,0,0,1,3.008-.747,5.031,5.031,0,0,1,3.867,1.52,5.973,5.973,0,0,1,1.418,4.238v1.407h-7.2a2.609,2.609,0,0,0,.849,1.536,2.525,2.525,0,0,0,1.7.559,3.254,3.254,0,0,0,2.686-1.2l1.654,1.955a4.624,4.624,0,0,1-1.917,1.488A6.48,6.48,0,0,1,52.69,23.215Zm-.408-9.26q-1.59,0-1.891,2.105h3.652v-.279a1.793,1.793,0,0,0-.44-1.348A1.753,1.753,0,0,0,52.282,13.955ZM58.588,17.1a7.1,7.1,0,0,1,1.192-4.351,3.925,3.925,0,0,1,3.33-1.59,3.338,3.338,0,0,1,2.621,1.225V6.5h3.631V23H66.107l-.183-1.246a3.428,3.428,0,0,1-2.836,1.461,3.918,3.918,0,0,1-3.287-1.59A7.325,7.325,0,0,1,58.588,17.1Zm3.62.226q0,3.094,1.8,3.094a1.782,1.782,0,0,0,1.719-1.01V14.986a1.734,1.734,0,0,0-1.7-1.031q-1.676,0-1.815,2.707ZM75.238,23H71.607V11.377h3.631ZM71.393,8.38a1.616,1.616,0,0,1,.559-1.268,2.375,2.375,0,0,1,2.9,0A1.616,1.616,0,0,1,75.41,8.38a1.616,1.616,0,0,1-.559,1.268,2.375,2.375,0,0,1-2.9,0A1.616,1.616,0,0,1,71.393,8.38Zm9.5,3,.118,1.364a4,4,0,0,1,3.319-1.579A2.942,2.942,0,0,1,87.3,12.913a3.868,3.868,0,0,1,3.416-1.751q3.534,0,3.631,4.275V23H90.718V15.663a2.216,2.216,0,0,0-.3-1.3,1.28,1.28,0,0,0-1.1-.408,1.715,1.715,0,0,0-1.6.956l.011.15V23H84.1V15.685a2.329,2.329,0,0,0-.29-1.321,1.277,1.277,0,0,0-1.106-.408,1.736,1.736,0,0,0-1.59.956V23h-3.62V11.377ZM100.235,23H96.6V11.377h3.631ZM96.39,8.38a1.616,1.616,0,0,1,.559-1.268,2.375,2.375,0,0,1,2.9,0,1.616,1.616,0,0,1,.559,1.268,1.616,1.616,0,0,1-.559,1.268,2.375,2.375,0,0,1-2.9,0A1.616,1.616,0,0,1,96.39,8.38Zm11.7,14.835a5.975,5.975,0,0,1-4.329-1.6,5.509,5.509,0,0,1-1.654-4.152v-.3a7.138,7.138,0,0,1,.661-3.147,4.834,4.834,0,0,1,1.928-2.111,5.821,5.821,0,0,1,3.008-.747,5.031,5.031,0,0,1,3.867,1.52,5.973,5.973,0,0,1,1.418,4.238v1.407h-7.2a2.609,2.609,0,0,0,.849,1.536,2.525,2.525,0,0,0,1.7.559,3.254,3.254,0,0,0,2.686-1.2l1.654,1.955a4.624,4.624,0,0,1-1.917,1.488A6.48,6.48,0,0,1,108.088,23.215Zm-.408-9.26q-1.59,0-1.891,2.105h3.652v-.279a1.793,1.793,0,0,0-.44-1.348A1.753,1.753,0,0,0,107.68,13.955Zm10.087-2.578.118,1.364a3.942,3.942,0,0,1,3.319-1.579,3.316,3.316,0,0,1,2.712,1.085,5.165,5.165,0,0,1,.929,3.266V23h-3.631V15.663a1.961,1.961,0,0,0-.354-1.294,1.64,1.64,0,0,0-1.289-.414,1.726,1.726,0,0,0-1.579.838V23h-3.62V11.377Zm13.3-2.89v2.89h1.912v2.514h-1.912v5.317a1.358,1.358,0,0,0,.236.913,1.268,1.268,0,0,0,.935.258,5.311,5.311,0,0,0,.9-.064V22.9a6.681,6.681,0,0,1-2.041.312,3.792,3.792,0,0,1-2.761-.881,3.61,3.61,0,0,1-.892-2.675V13.891h-1.482V11.377h1.482V8.487Zm2.557,8.594a6.86,6.86,0,0,1,.677-3.1,4.84,4.84,0,0,1,1.944-2.089,5.856,5.856,0,0,1,2.976-.73,5.344,5.344,0,0,1,4.114,1.617,6.2,6.2,0,0,1,1.5,4.4v.129a6.019,6.019,0,0,1-1.509,4.313,5.359,5.359,0,0,1-4.087,1.6,5.42,5.42,0,0,1-3.985-1.488,5.819,5.819,0,0,1-1.622-4.034Zm3.62.226a4.325,4.325,0,0,0,.5,2.363,1.682,1.682,0,0,0,1.493.752q1.934,0,1.977-2.976v-.365q0-3.126-2-3.126-1.815,0-1.966,2.7Zm14.212-.2a7.1,7.1,0,0,1,1.192-4.351,3.925,3.925,0,0,1,3.33-1.59,3.338,3.338,0,0,1,2.621,1.225V6.5h3.631V23h-3.255l-.183-1.246a3.428,3.428,0,0,1-2.836,1.461,3.918,3.918,0,0,1-3.287-1.59A7.325,7.325,0,0,1,151.454,17.1Zm3.62.226q0,3.094,1.8,3.094a1.782,1.782,0,0,0,1.719-1.01V14.986a1.734,1.734,0,0,0-1.7-1.031q-1.676,0-1.815,2.707Zm14.835,5.887a5.975,5.975,0,0,1-4.329-1.6,5.509,5.509,0,0,1-1.654-4.152v-.3a7.138,7.138,0,0,1,.661-3.147,4.834,4.834,0,0,1,1.928-2.111,5.821,5.821,0,0,1,3.008-.747,5.031,5.031,0,0,1,3.867,1.52,5.973,5.973,0,0,1,1.418,4.238v1.407h-7.2a2.609,2.609,0,0,0,.849,1.536,2.525,2.525,0,0,0,1.7.559,3.254,3.254,0,0,0,2.686-1.2l1.654,1.955a4.624,4.624,0,0,1-1.917,1.488A6.48,6.48,0,0,1,169.909,23.215Zm-.408-9.26q-1.59,0-1.891,2.105h3.652v-.279a1.793,1.793,0,0,0-.44-1.348A1.753,1.753,0,0,0,169.5,13.955ZM6.639,48.215a5.975,5.975,0,0,1-4.329-1.6A5.509,5.509,0,0,1,.655,42.468v-.3a7.138,7.138,0,0,1,.661-3.147,4.834,4.834,0,0,1,1.928-2.111,5.821,5.821,0,0,1,3.008-.747,5.031,5.031,0,0,1,3.867,1.52,5.973,5.973,0,0,1,1.418,4.238v1.407H4.34a2.609,2.609,0,0,0,.849,1.536,2.525,2.525,0,0,0,1.7.559,3.254,3.254,0,0,0,2.686-1.2l1.654,1.955a4.624,4.624,0,0,1-1.917,1.488A6.48,6.48,0,0,1,6.639,48.215Zm-.408-9.26q-1.59,0-1.891,2.105H7.992v-.279a1.793,1.793,0,0,0-.44-1.348A1.753,1.753,0,0,0,6.23,38.955Zm11.258,4.737,1.837-7.315h3.813L19.347,48h-3.7L11.859,36.377h3.824ZM30.6,48a4.087,4.087,0,0,1-.344-1.042,3.366,3.366,0,0,1-2.793,1.257,4.124,4.124,0,0,1-2.793-.994,3.163,3.163,0,0,1-1.149-2.5,3.251,3.251,0,0,1,1.4-2.857,7.114,7.114,0,0,1,4.061-.967H30.1v-.615q0-1.608-1.386-1.608a1.133,1.133,0,0,0-1.289,1.274H23.8a3.245,3.245,0,0,1,1.434-2.736A6.027,6.027,0,0,1,28.9,36.162a5.284,5.284,0,0,1,3.513,1.085,3.772,3.772,0,0,1,1.321,2.976v5.146a5.269,5.269,0,0,0,.494,2.449V48Zm-2.267-2.363a2.019,2.019,0,0,0,1.123-.29,1.818,1.818,0,0,0,.639-.655V42.833H29.047q-1.891,0-1.891,1.7a1.036,1.036,0,0,0,.333.8A1.205,1.205,0,0,0,28.338,45.637ZM39.553,48H35.922V31.5h3.631Zm9.152-1.257a3.732,3.732,0,0,1-3.1,1.472,3.661,3.661,0,0,1-2.9-1.112,4.676,4.676,0,0,1-.983-3.2v-7.53h3.62v7.552a1.3,1.3,0,0,0,1.45,1.493,1.892,1.892,0,0,0,1.772-.892V36.377h3.642V48H48.813ZM60.736,48a4.088,4.088,0,0,1-.344-1.042A3.366,3.366,0,0,1,57.6,48.215a4.124,4.124,0,0,1-2.793-.994,3.163,3.163,0,0,1-1.149-2.5,3.251,3.251,0,0,1,1.4-2.857,7.114,7.114,0,0,1,4.061-.967h1.117v-.615q0-1.608-1.386-1.608a1.133,1.133,0,0,0-1.289,1.274h-3.62a3.245,3.245,0,0,1,1.434-2.736,6.027,6.027,0,0,1,3.658-1.051,5.284,5.284,0,0,1,3.513,1.085,3.772,3.772,0,0,1,1.321,2.976v5.146a5.269,5.269,0,0,0,.494,2.449V48ZM58.47,45.637a2.019,2.019,0,0,0,1.123-.29,1.818,1.818,0,0,0,.639-.655V42.833H59.179q-1.891,0-1.891,1.7a1.036,1.036,0,0,0,.333.8A1.205,1.205,0,0,0,58.47,45.637Zm12.311-.215a1.61,1.61,0,0,0,1.182-.414,1.517,1.517,0,0,0,.408-1.155h3.395A4.018,4.018,0,0,1,74.4,46.99a5.1,5.1,0,0,1-3.529,1.225,5.158,5.158,0,0,1-4-1.59,6.264,6.264,0,0,1-1.461-4.4v-.15a7.08,7.08,0,0,1,.65-3.11,4.732,4.732,0,0,1,1.875-2.073,5.589,5.589,0,0,1,2.9-.725,5.03,5.03,0,0,1,3.6,1.257,4.458,4.458,0,0,1,1.332,3.405H72.37a1.987,1.987,0,0,0-.44-1.386,1.52,1.52,0,0,0-1.182-.483q-1.407,0-1.644,1.794a12.658,12.658,0,0,0-.075,1.568,4.972,4.972,0,0,0,.419,2.428A1.45,1.45,0,0,0,70.78,45.422ZM81.114,48H77.483V36.377h3.631ZM77.269,33.38a1.616,1.616,0,0,1,.559-1.268,2.375,2.375,0,0,1,2.9,0,1.718,1.718,0,0,1,0,2.535,2.375,2.375,0,0,1-2.9,0A1.616,1.616,0,0,1,77.269,33.38Zm5.618,8.7a6.86,6.86,0,0,1,.677-3.1,4.84,4.84,0,0,1,1.944-2.089,5.856,5.856,0,0,1,2.976-.73A5.344,5.344,0,0,1,92.6,37.779a6.2,6.2,0,0,1,1.5,4.4v.129a6.019,6.019,0,0,1-1.509,4.313,5.359,5.359,0,0,1-4.087,1.6,5.42,5.42,0,0,1-3.985-1.488A5.819,5.819,0,0,1,82.9,42.693Zm3.62.226a4.325,4.325,0,0,0,.5,2.363,1.682,1.682,0,0,0,1.493.752q1.934,0,1.977-2.976v-.365q0-3.126-2-3.126-1.815,0-1.966,2.7ZM88.978,31.5H92.8l-2.986,3.373-2.954-.005Zm10.044,4.877.118,1.364a3.942,3.942,0,0,1,3.319-1.579,3.316,3.316,0,0,1,2.712,1.085,5.165,5.165,0,0,1,.929,3.266V48H102.47V40.663a1.961,1.961,0,0,0-.354-1.294,1.64,1.64,0,0,0-1.289-.414,1.726,1.726,0,0,0-1.579.838V48h-3.62V36.377Zm14.1,5.726a7.1,7.1,0,0,1,1.192-4.351,3.925,3.925,0,0,1,3.33-1.59,3.338,3.338,0,0,1,2.621,1.225V31.5H123.9V48h-3.255l-.183-1.246a3.428,3.428,0,0,1-2.836,1.461,3.918,3.918,0,0,1-3.287-1.59A7.325,7.325,0,0,1,113.126,42.1Zm3.62.226q0,3.094,1.8,3.094a1.782,1.782,0,0,0,1.719-1.01V39.986a1.734,1.734,0,0,0-1.7-1.031q-1.676,0-1.815,2.707Zm14.835,5.887a5.975,5.975,0,0,1-4.329-1.6,5.509,5.509,0,0,1-1.654-4.152v-.3a7.138,7.138,0,0,1,.661-3.147,4.834,4.834,0,0,1,1.928-2.111,5.821,5.821,0,0,1,3.008-.747,5.031,5.031,0,0,1,3.867,1.52,5.973,5.973,0,0,1,1.418,4.238v1.407h-7.2a2.609,2.609,0,0,0,.849,1.536,2.525,2.525,0,0,0,1.7.559,3.254,3.254,0,0,0,2.686-1.2l1.654,1.955a4.624,4.624,0,0,1-1.917,1.488A6.48,6.48,0,0,1,131.581,48.215Zm-.408-9.26q-1.59,0-1.891,2.105h3.652v-.279a1.793,1.793,0,0,0-.44-1.348A1.753,1.753,0,0,0,131.173,38.955Zm19.271.7-1.192-.086a2.142,2.142,0,0,0-2.191,1.074V48h-3.62V36.377h3.395l.118,1.493a2.8,2.8,0,0,1,2.546-1.708,3.53,3.53,0,0,1,1.01.129ZM155.568,48h-3.631V36.377h3.631Zm-3.846-14.62a1.616,1.616,0,0,1,.559-1.268,2.375,2.375,0,0,1,2.9,0,1.718,1.718,0,0,1,0,2.535,2.375,2.375,0,0,1-2.9,0A1.616,1.616,0,0,1,151.723,33.38Zm11.7,14.835a5.975,5.975,0,0,1-4.329-1.6,5.509,5.509,0,0,1-1.654-4.152v-.3a7.138,7.138,0,0,1,.661-3.147,4.834,4.834,0,0,1,1.928-2.111,5.821,5.821,0,0,1,3.008-.747,5.031,5.031,0,0,1,3.867,1.52,5.973,5.973,0,0,1,1.418,4.238v1.407h-7.2a2.609,2.609,0,0,0,.849,1.536,2.525,2.525,0,0,0,1.7.559,3.254,3.254,0,0,0,2.686-1.2l1.654,1.955a4.624,4.624,0,0,1-1.917,1.488A6.48,6.48,0,0,1,163.421,48.215Zm-.408-9.26q-1.59,0-1.891,2.105h3.652v-.279a1.793,1.793,0,0,0-.44-1.348A1.753,1.753,0,0,0,163.013,38.955Zm12.848,5.779a.836.836,0,0,0-.483-.741,7.353,7.353,0,0,0-1.837-.58,8.376,8.376,0,0,1-2.234-.79,3.743,3.743,0,0,1-1.343-1.187,2.835,2.835,0,0,1-.462-1.6,3.212,3.212,0,0,1,1.321-2.637,5.443,5.443,0,0,1,3.459-1.037,6.03,6.03,0,0,1,3.7,1.042,3.258,3.258,0,0,1,1.4,2.739h-3.631q0-1.4-1.472-1.4a1.459,1.459,0,0,0-.956.317.981.981,0,0,0-.387.79.9.9,0,0,0,.473.784,4.466,4.466,0,0,0,1.509.494,13.042,13.042,0,0,1,1.821.462q2.621.9,2.621,3.233a3.044,3.044,0,0,1-1.413,2.589,6.2,6.2,0,0,1-3.658,1,6.322,6.322,0,0,1-2.664-.537,4.455,4.455,0,0,1-1.826-1.461,3.308,3.308,0,0,1-.655-1.944h3.384a1.4,1.4,0,0,0,.537,1.176,2.209,2.209,0,0,0,1.321.371,1.738,1.738,0,0,0,1.112-.3A.962.962,0,0,0,175.86,44.734Zm4.759-2.632a7.848,7.848,0,0,1,.58-3.115,4.67,4.67,0,0,1,1.665-2.089,4.389,4.389,0,0,1,2.524-.736,3.49,3.49,0,0,1,2.836,1.225l.129-1.01h3.287V47.56a4.9,4.9,0,0,1-.714,2.669,4.584,4.584,0,0,1-2.068,1.74,7.6,7.6,0,0,1-3.137.607,6.557,6.557,0,0,1-2.476-.483,4.47,4.47,0,0,1-1.832-1.257l1.515-2.127a3.319,3.319,0,0,0,2.664,1.192A2.156,2.156,0,0,0,188,47.431v-.365a3.4,3.4,0,0,1-2.632,1.149,4.2,4.2,0,0,1-3.437-1.627,6.743,6.743,0,0,1-1.311-4.356Zm3.631.226a4.135,4.135,0,0,0,.537,2.261,1.7,1.7,0,0,0,1.5.833A1.923,1.923,0,0,0,188,44.638V39.75a1.875,1.875,0,0,0-1.687-.795,1.706,1.706,0,0,0-1.515.865A4.715,4.715,0,0,0,184.25,42.328Zm8.991-.247a6.86,6.86,0,0,1,.677-3.1,4.84,4.84,0,0,1,1.944-2.089,5.856,5.856,0,0,1,2.976-.73,5.344,5.344,0,0,1,4.114,1.617,6.2,6.2,0,0,1,1.5,4.4v.129a6.019,6.019,0,0,1-1.509,4.313,5.359,5.359,0,0,1-4.087,1.6,5.42,5.42,0,0,1-3.985-1.488,5.819,5.819,0,0,1-1.622-4.034Zm3.62.226a4.325,4.325,0,0,0,.5,2.363,1.682,1.682,0,0,0,1.493.752q1.934,0,1.977-2.976v-.365q0-3.126-2-3.126-1.815,0-1.966,2.7Zm15.275,2.428a.836.836,0,0,0-.483-.741,7.353,7.353,0,0,0-1.837-.58,8.376,8.376,0,0,1-2.234-.79,3.743,3.743,0,0,1-1.343-1.187,2.835,2.835,0,0,1-.462-1.6A3.212,3.212,0,0,1,207.1,37.2a5.443,5.443,0,0,1,3.459-1.037,6.03,6.03,0,0,1,3.7,1.042,3.258,3.258,0,0,1,1.4,2.739h-3.631q0-1.4-1.472-1.4a1.459,1.459,0,0,0-.956.317.981.981,0,0,0-.387.79.9.9,0,0,0,.473.784,4.466,4.466,0,0,0,1.509.494,13.042,13.042,0,0,1,1.821.462q2.621.9,2.621,3.233a3.044,3.044,0,0,1-1.413,2.589,6.2,6.2,0,0,1-3.658,1,6.322,6.322,0,0,1-2.664-.537,4.455,4.455,0,0,1-1.826-1.461,3.308,3.308,0,0,1-.655-1.944H208.8a1.4,1.4,0,0,0,.537,1.176,2.209,2.209,0,0,0,1.321.371,1.738,1.738,0,0,0,1.112-.3A.962.962,0,0,0,212.137,44.734Z" transform="translate(335 7316)" fill="#fff"/>
    <g id="Grupo_81275" data-name="Grupo 81275" transform="translate(414 7407)">
      <g id="Grupo_81274" data-name="Grupo 81274" clip-path="url(#clip-path)">
        <g id="Grupo_81208" data-name="Grupo 81208">
          <g id="Grupo_81207" data-name="Grupo 81207" clip-path="url(#clip-path)">
            <path id="Trazado_114301" data-name="Trazado 114301" d="M489.963,469.661a13.881,13.881,0,0,0,27.13-4.142v-63.59a13.881,13.881,0,1,0-27.759.256c-.44-.044-.882-.068-1.327-.068a13.882,13.882,0,0,0-13.188,18.214,13.882,13.882,0,0,0,2.2,24.351,16.008,16.008,0,0,0,12.941,24.98m54.651,0a13.882,13.882,0,0,1-27.131-4.142v-63.59a13.881,13.881,0,1,1,27.759.256c.44-.044.882-.068,1.327-.068a13.882,13.882,0,0,1,13.188,18.214,13.883,13.883,0,0,1-2.2,24.351,16.008,16.008,0,0,1-12.941,24.98m9.368-23.992a13.97,13.97,0,0,1-5.157-.27,13.825,13.825,0,0,1-3.093-1.158,1.728,1.728,0,0,1,1.586-3.071,10.423,10.423,0,0,0,10.937-17.677,13.893,13.893,0,0,1-11.684,6.385,1.731,1.731,0,1,1,0-3.461,10.419,10.419,0,1,0-1.858-20.676,13.867,13.867,0,0,1-.883,2.294c-1.8,3.667-3.8,5.111-7.576,6.47a10.78,10.78,0,0,0-5.68,4.276,10.167,10.167,0,0,0,1.586,12.471,10.386,10.386,0,0,0,7.368,3.052,1.731,1.731,0,0,1,0,3.461,13.841,13.841,0,0,1-9.815-4.065,13.617,13.617,0,0,1-2.038-16.8,14.214,14.214,0,0,1,7.412-5.646c2.8-1.007,4.3-2.014,5.642-4.739a10.423,10.423,0,1,0-19.783-4.587v63.59A10.384,10.384,0,0,0,524,472.885a10.421,10.421,0,0,0,17.066-3.547,15.984,15.984,0,0,1-8.088-4.363c-4.717-4.717-6.271-12.135-2.791-18.016a14.408,14.408,0,0,1,5.194-5.124,1.726,1.726,0,1,1,1.721,2.993,10.946,10.946,0,0,0-3.939,3.891c-2.669,4.512-1.33,10.217,2.262,13.809a12.553,12.553,0,0,0,17.749,0,12.57,12.57,0,0,0,.811-16.861m-73.386,0a13.978,13.978,0,0,0,5.157-.27,13.839,13.839,0,0,0,3.093-1.158,1.728,1.728,0,1,0-1.585-3.071,10.415,10.415,0,0,1-12.9-2.7,10.42,10.42,0,0,1,1.962-14.972,13.895,13.895,0,0,0,11.685,6.385,1.731,1.731,0,1,0,0-3.461,10.419,10.419,0,1,1,1.858-20.676,13.914,13.914,0,0,0,.884,2.294c1.8,3.667,3.8,5.111,7.576,6.47a10.782,10.782,0,0,1,5.68,4.276,10.169,10.169,0,0,1-1.586,12.472,10.386,10.386,0,0,1-7.368,3.051,1.731,1.731,0,0,0,0,3.461,13.84,13.84,0,0,0,9.815-4.065,13.616,13.616,0,0,0,2.038-16.8,14.216,14.216,0,0,0-7.412-5.646c-2.8-1.007-4.3-2.014-5.642-4.739a10.422,10.422,0,1,1,19.782-4.586v63.59a10.385,10.385,0,0,1-3.051,7.367,10.421,10.421,0,0,1-17.066-3.547,15.983,15.983,0,0,0,8.089-4.363c4.717-4.717,6.271-12.135,2.791-18.016a14.41,14.41,0,0,0-5.195-5.124,1.726,1.726,0,1,0-1.721,2.993,10.945,10.945,0,0,1,3.939,3.891c2.669,4.512,1.33,10.217-2.262,13.809a12.553,12.553,0,0,1-17.75,0,12.571,12.571,0,0,1-.811-16.861" transform="translate(-320.633 -265.529)" fill="#fff" fill-rule="evenodd"/>
            <path id="Trazado_114302" data-name="Trazado 114302" d="M682.662,262.725l-.487-3.919H677.15l-.487,3.919a14.2,14.2,0,0,0-4.2,1.606L669.451,262l-3.553,3.553,2.173,2.807a12.988,12.988,0,0,0-2,4.464l-3.361.428v5.025l3.361.428a12.985,12.985,0,0,0,2,4.464l-2.173,2.807,3.553,3.553,3.017-2.336a14.2,14.2,0,0,0,4.2,1.606l.487,3.919h5.025l.487-3.919a14.192,14.192,0,0,0,4.2-1.606l3.017,2.336,3.553-3.553-2.173-2.807a12.984,12.984,0,0,0,2-4.464l3.361-.428v-5.025l-3.361-.428a12.981,12.981,0,0,0-2-4.464l2.173-2.807L689.875,262l-3.017,2.336a14.189,14.189,0,0,0-4.2-1.606m-3,4.5a8.535,8.535,0,1,1-8.535,8.536,8.536,8.536,0,0,1,8.535-8.536" transform="translate(-453.446 -177.083)" fill="#fff" fill-rule="evenodd"/>
            <path id="Trazado_114303" data-name="Trazado 114303" d="M336.147,579.749l-.487-3.919h-5.025l-.487,3.919a14.2,14.2,0,0,0-4.2,1.606l-3.017-2.336-3.553,3.553,2.173,2.807a12.987,12.987,0,0,0-2,4.464l-3.361.428V595.3l3.361.428a12.984,12.984,0,0,0,2,4.464L319.382,603l3.553,3.553,3.017-2.335a14.2,14.2,0,0,0,4.2,1.606l.487,3.919h5.025l.487-3.919a14.2,14.2,0,0,0,4.2-1.606l3.017,2.335L346.913,603l-2.173-2.807a12.984,12.984,0,0,0,2-4.464l3.361-.428v-5.025l-3.361-.428a12.981,12.981,0,0,0-2-4.464l2.173-2.807-3.553-3.553-3.017,2.336a14.193,14.193,0,0,0-4.2-1.606m-3,4.5a8.535,8.535,0,1,1-8.535,8.536,8.535,8.535,0,0,1,8.535-8.536" transform="translate(-216.349 -394.001)" fill="#fff" fill-rule="evenodd"/>
            <path id="Trazado_114304" data-name="Trazado 114304" d="M51.9,116.887v1.249a1.136,1.136,0,0,1-1.132,1.133h-1.88a1.135,1.135,0,0,1-1.132-1.133v-1.249h-.176a2.715,2.715,0,0,1-2.707-2.707v-5.013a2.679,2.679,0,0,1,.314-1.262h-.624l-.26-.661c-.389-.99-.883-2.08-1.4-3.225-1.712-3.769-3.7-8.14-3.446-12.19A8.737,8.737,0,0,1,42.367,85.7a11.03,11.03,0,0,1,6.77-2.627l.468-.017a12,12,0,0,1,6.919,1.9,8.292,8.292,0,0,1,3.688,6.65l.012.375c.1,4.85-2.513,10.321-4.378,14.232l-.8,1.687h-.571a2.685,2.685,0,0,1,.315,1.263v5.013a2.714,2.714,0,0,1-2.706,2.707ZM39.186,85.159a1.052,1.052,0,0,0-.146-1.295L34.928,80.55c-.394-.318-1.1-.321-1.294.147v0a1.051,1.051,0,0,0,.147,1.294l4.112,3.315c.4.318,1.1.321,1.294-.147Zm21.924.433v0c.194.468.9.464,1.294.147l4.112-3.315a1.051,1.051,0,0,0,.147-1.294v0c-.194-.467-.9-.465-1.294-.147L61.257,84.3a1.051,1.051,0,0,0-.147,1.294m-.47,13.883h0c0-.507.652-.774,1.139-.632l5.068,1.486c.486.142.631.632.631,1.139h0c0,.507-.653.775-1.139.632l-5.068-1.486c-.485-.143-.631-.632-.631-1.139m-21.617,0h0c0-.507-.652-.774-1.139-.632l-5.068,1.486c-.486.142-.631.632-.631,1.139h0c0,.507.653.775,1.139.632l5.068-1.486c.486-.143.631-.632.631-1.139M50.234,71.726h0a.924.924,0,0,1,.922.921v7.488a.922.922,0,0,1-1.844,0V72.647a.924.924,0,0,1,.922-.921m-1.667,34.1V96.9a.692.692,0,0,1,.69-.691h1.148a.692.692,0,0,1,.69.691v8.925h2.625l.238-.5c1.78-3.736,4.271-8.956,4.184-13.3l-.012-.3a6.28,6.28,0,0,0-2.782-5.042,9.885,9.885,0,0,0-5.694-1.543l-.4.017a8.948,8.948,0,0,0-5.5,2.1,6.689,6.689,0,0,0-2.214,4.7c-.22,3.535,1.652,7.656,3.267,11.21.421.928.827,1.821,1.177,2.661Z" transform="translate(-22.021 -49.077)" fill="#dde4ff" fill-rule="evenodd"/>
            <path id="Trazado_114305" data-name="Trazado 114305" d="M48.668,501.614a5.969,5.969,0,1,1-5.969,5.97,5.97,5.97,0,0,1,5.969-5.97" transform="translate(-29.216 -343.22)" fill="#dde4ff" fill-rule="evenodd"/>
            <path id="Trazado_114306" data-name="Trazado 114306" d="M40.743,23.348c.613-2.225,3.383-5.624,5.528-5.332l2.549,9.266Z" transform="translate(-27.878 -12.315)" fill="#05339e" fill-rule="evenodd"/>
            <path id="Trazado_114307" data-name="Trazado 114307" d="M645.217,14.76l-1.332,7.532,6.63-3.881a21.345,21.345,0,0,0-5.3-3.65" transform="translate(-440.567 -10.099)" fill="#273087" fill-rule="evenodd"/>
            <path id="Trazado_114308" data-name="Trazado 114308" d="M34.524,603.946l4.088,6.59,3.479-10.165c-2.292,1.219-4.04,2.052-7.567,3.575" transform="translate(-23.622 -410.793)" fill="#00daea" fill-rule="evenodd"/>
            <path id="Trazado_114309" data-name="Trazado 114309" d="M755.161,395.627l-7.509,1.453,6,4.8a21.341,21.341,0,0,0,1.512-6.253" transform="translate(-511.567 -270.701)" fill="#eecf52" fill-rule="evenodd"/>
            <path id="Trazado_114310" data-name="Trazado 114310" d="M767.033,688.757l-7.379-2.014,3.26,6.956a21.336,21.336,0,0,0,4.119-4.942" transform="translate(-519.78 -469.892)" fill="#4d4bfd" fill-rule="evenodd"/>
          </g>
        </g>
        <g id="Grupo_81210" data-name="Grupo 81210" transform="translate(93.139 135.18)">
          <g id="Grupo_81209" data-name="Grupo 81209" clip-path="url(#clip-path-3)">
            <rect id="Rectángulo_34312" data-name="Rectángulo 34312" width="42.069" height="33.259" transform="translate(-0.684 0.014) rotate(-1.211)" fill="#05339e"/>
          </g>
        </g>
        <g id="Grupo_81212" data-name="Grupo 81212" transform="translate(69.857 31.446)">
          <g id="Grupo_81211" data-name="Grupo 81211" clip-path="url(#clip-path-4)">
            <rect id="Rectángulo_34313" data-name="Rectángulo 34313" width="107.784" height="117.487" transform="translate(-12.053 0.216) rotate(-2.503)" fill="#eecf52"/>
          </g>
        </g>
        <g id="Grupo_81214" data-name="Grupo 81214">
          <g id="Grupo_81213" data-name="Grupo 81213" clip-path="url(#clip-path)">
            <path id="Trazado_114313" data-name="Trazado 114313" d="M358.486,2.667,356.78,25.656,355.071,2.616c-.257-3.479,3.679-3.515,3.415.051" transform="translate(-242.943 0)" fill="#05339e" fill-rule="evenodd"/>
            <path id="Trazado_114314" data-name="Trazado 114314" d="M112.379,265.377l22.989,1.705-23.041,1.709c-3.479.258-3.515-3.679.051-3.415" transform="translate(-75.068 -181.571)" fill="#fb8fd9" fill-rule="evenodd"/>
            <path id="Trazado_114315" data-name="Trazado 114315" d="M553.034,268.793l-22.99-1.705,23.041-1.709c3.478-.258,3.515,3.678-.051,3.414" transform="translate(-362.674 -181.572)" fill="#05339e" fill-rule="evenodd"/>
            <path id="Trazado_114316" data-name="Trazado 114316" d="M182.909,405.741l17.462-15.05-15.084,17.5c-2.277,2.642-5.086-.116-2.378-2.451" transform="translate(-124.391 -267.323)" fill="#fb8fd9" fill-rule="evenodd"/>
            <path id="Trazado_114317" data-name="Trazado 114317" d="M497.854,95.624l-17.462,15.05,15.084-17.5c2.277-2.642,5.086.116,2.378,2.451" transform="translate(-328.7 -63.014)" fill="#05339e" fill-rule="evenodd"/>
            <path id="Trazado_114318" data-name="Trazado 114318" d="M495.434,408.16,480.384,390.7l17.5,15.084c2.642,2.277-.116,5.087-2.451,2.378" transform="translate(-328.694 -267.328)" fill="#05339e" fill-rule="evenodd"/>
            <path id="Trazado_114319" data-name="Trazado 114319" d="M185.318,93.216l15.05,17.462-17.5-15.084c-2.642-2.277.116-5.087,2.451-2.378" transform="translate(-124.386 -63.02)" fill="#05339e" fill-rule="evenodd"/>
            <path id="Trazado_114320" data-name="Trazado 114320" d="M633.837,87.014,577.27,129.3,574.8,117.223l58.141-29.8Z" transform="translate(-393.3 -59.538)" fill="#078be0" fill-rule="evenodd"/>
            <path id="Trazado_114321" data-name="Trazado 114321" d="M639.6,86.882l-52.041,34.336-4.452,7.861,54.859-40.972Z" transform="translate(-398.979 -59.447)" fill="#0f6eee" fill-rule="evenodd"/>
          </g>
        </g>
        <g id="Grupo_81216" data-name="Grupo 81216" transform="translate(168.47 27.224)">
          <g id="Grupo_81215" data-name="Grupo 81215" clip-path="url(#clip-path-6)">
            <rect id="Rectángulo_34315" data-name="Rectángulo 34315" width="77.444" height="83.158" transform="translate(-20.299 26.584) rotate(-52.635)" fill="#79dfef"/>
          </g>
        </g>
        <g id="Grupo_81230" data-name="Grupo 81230">
          <g id="Grupo_81229" data-name="Grupo 81229" clip-path="url(#clip-path)">
            <path id="Trazado_114323" data-name="Trazado 114323" d="M273.555,103.011c1.064,2.52,2.037,4.513,3.012,7.279a37.807,37.807,0,0,0-.92-7.959Zm27.568,10.277-2.862,2.893,1.591,1.519,1.744-1.787Zm-7.356,7.783q-1.465,1.654-2.9,3.337l1.674,1.427q1.421-1.666,2.871-3.308Zm-7.142,8.414c-.932,1.131-1.853,2.28-2.793,3.4l1.7,1.394q1.387-1.7,2.789-3.4Zm-6.984,8.487q-1.4,1.685-2.831,3.346l1.667,1.435q1.439-1.674,2.853-3.371Zm-7.194,8.236q-1.488,1.595-3.027,3.136l1.551,1.56q1.573-1.569,3.083-3.194Zm-7.8,7.567c-1.094.939-2.219,1.848-3.371,2.715l1.319,1.761q1.784-1.346,3.48-2.8ZM255.9,160.1q-1.852,1.1-3.791,2.039l.951,1.984c1.345-.65,2.672-1.365,3.956-2.127Zm-9.77,4.471c-1.363.454-2.742.838-4.139,1.175l.507,2.14c1.459-.351,2.9-.752,4.323-1.227Zm-10.506,2.276c-1.437.155-2.859.261-4.3.318l.079,2.2c1.5-.06,2.975-.169,4.468-.33Zm-10.78.224-.841-.063-.579-.051-.575-.056-.572-.062-.569-.067-.566-.072-.584-.081-.334,2.174.628.087.588.075.591.07.595.064.6.058.6.052.862.064Zm-10.628-1.747-.672-.184-.518-.149-.515-.154-.512-.159-.509-.163-.506-.168-.5-.173-.377-.134-.747,2.069.4.141.524.18.527.175.531.171.534.165.537.16.541.156.694.19Zm-10.032-3.84-.387-.2-.452-.238-.448-.243-.446-.247-.441-.25-.438-.255-.435-.258-.7-.431-1.172,1.861.289.18.451.274.454.27.458.266.462.262.465.257.468.253.472.249.387.2ZM195.2,155.6l-.539-.449-.375-.32-.371-.323-.367-.327-.363-.33-.36-.333-.357-.336-.47-.454-1.549,1.562.5.485.372.351.375.348.38.344.383.341.387.338.391.334.556.462Zm-7.514-7.677-.4-.52-.292-.384-.572-.776-.28-.391-.548-.79-.42-.629-1.842,1.2.443.663.284.414.288.411.292.409.3.406.3.4.3.4.417.536Zm-5.717-9.092-.195-.4-.4-.863-.2-.434-.191-.435-.371-.876c-.126-.31-.253-.62-.373-.932l-2.056.781.209.53.187.46.191.458.2.456.2.454.2.453.208.451.213.449.195.4Zm-3.684-10.1c-.085-.342-.165-.685-.244-1.029l-.2-.923-.093-.463c-.115-.6-.222-1.2-.32-1.8l-2.173.342.154.919.088.484.093.484.1.483.208.963c.083.357.165.714.254,1.069Zm-1.447-10.638-.013-.661,0-.94.016-.94.015-.47.02-.47.047-.819-2.195-.148-.023.371-.025.491-.021.491-.016.492-.018.983v.492l0,.491.013.683Zm.944-10.679.155-.726.105-.461.111-.46.115-.459.12-.458.125-.457.13-.456.2-.684-2.1-.658-.219.729-.136.478-.131.479-.126.481-.121.481-.116.482-.111.482-.16.748Zm3.4-10.164.214-.445.215-.434.219-.432.225-.43.23-.429.235-.427.24-.425L183,93.8l.2-.337-1.886-1.133-.212.358-.257.444-.252.446-.247.449-.241.45-.236.452-.231.454-.225.455-.224.466Zm5.712-9.057.413-.5.329-.39.334-.388.34-.385.345-.383.351-.38.356-.378.383-.4-1.559-1.552-.416.431-.373.4-.367.4-.362.4-.356.4-.35.406-.344.408-.429.522Zm7.652-7.516.376-.294.439-.336.445-.332.45-.329.456-.326.461-.323.467-.319.4-.271-1.214-1.835-.423.284-.486.333-.481.336-.474.339-.468.343-.464.346-.457.35-.377.294Zm9.088-5.779c1.309-.66,2.584-1.2,3.92-1.789l-.826-2.039c-1.379.556-2.756,1.194-4.084,1.862Zm10.04-3.885q2.077-.578,4.2-.989l-.417-2.16c-1.472.291-2.921.626-4.366,1.029Zm10.6-1.83c1.439-.094,2.861-.135,4.3-.114l.037-2.2c-1.5-.025-2.992.021-4.49.119ZM235,69.59c1.422.21,2.825.485,4.222.819l.516-2.138q-2.188-.525-4.413-.857Zm10.363,2.754c1.337.526,2.642,1.108,3.927,1.752l.99-1.964c-1.343-.674-2.707-1.282-4.105-1.832Zm9.444,5.056q1.762,1.238,3.4,2.627l1.424-1.676c-1.149-.97-2.328-1.883-3.559-2.747Zm8.04,7.11c.966,1.067,1.878,2.164,2.752,3.307l1.754-1.327c-.878-1.183-1.884-2.361-2.873-3.454Zm6.333,8.682c.715,1.238,1.39,2.517,2,3.813l1.993-.931c-.641-1.357-1.332-2.681-2.083-3.981Z" transform="translate(-119.48 -45.75)" fill="#e5fff4" fill-rule="evenodd"/>
            <g id="Grupo_81219" data-name="Grupo 81219" transform="translate(0 227.981)" opacity="0.5" style="mix-blend-mode: multiply;isolation: isolate">
              <g id="Grupo_81218" data-name="Grupo 81218">
                <g id="Grupo_81217" data-name="Grupo 81217" clip-path="url(#clip-path-8)">
                  <path id="Trazado_114324" data-name="Trazado 114324" d="M96.2,738.952c-53.13,0-96.2-3.8-96.2-8.482s43.07-8.482,96.2-8.482,96.2,3.8,96.2,8.482-43.07,8.482-96.2,8.482" transform="translate(0 -721.988)" fill="#b7b7b7" fill-rule="evenodd"/>
                </g>
              </g>
            </g>
            <g id="Grupo_81222" data-name="Grupo 81222" transform="translate(0 231.065)" opacity="0.5" style="mix-blend-mode: multiply;isolation: isolate">
              <g id="Grupo_81221" data-name="Grupo 81221">
                <g id="Grupo_81220" data-name="Grupo 81220" clip-path="url(#clip-path-9)">
                  <path id="Trazado_114325" data-name="Trazado 114325" d="M57.719,742.552c-31.877,0-57.719-2.417-57.719-5.4s25.842-5.4,57.719-5.4,57.719,2.417,57.719,5.4-25.841,5.4-57.719,5.4" transform="translate(0 -731.757)" fill="#5f7ffb" fill-rule="evenodd"/>
                </g>
              </g>
            </g>
            <path id="Trazado_114326" data-name="Trazado 114326" d="M103.626,432.725l2.723-8.646-4.771-6.75-5.494,6.439c2.136,2.558,4.492,5.48,7.542,8.957" transform="translate(-65.744 -285.55)" fill="#0f6eee" fill-rule="evenodd"/>
            <path id="Trazado_114327" data-name="Trazado 114327" d="M55.862,725.457c2.46,2.156,3.291,3.052,6.468,3.18a6.057,6.057,0,0,0,4.961-1.761c1.65-1.324,2.169-2.16,2.158-3.359-.02-2.291-1.17-4.379-1.3-7.25l-5.208.238L60.7,715.449c-1.007,1.323-3.145,3.76-4.649,5.909-.741,1.059-.509,2.975-.185,4.1" transform="translate(-38.012 -489.533)" fill="#1c2372" fill-rule="evenodd"/>
            <g id="Grupo_81225" data-name="Grupo 81225" transform="translate(21.076 225.916)" opacity="0.5" style="mix-blend-mode: multiply;isolation: isolate">
              <g id="Grupo_81224" data-name="Grupo 81224">
                <g id="Grupo_81223" data-name="Grupo 81223" clip-path="url(#clip-path-10)">
                  <path id="Trazado_114328" data-name="Trazado 114328" d="M76.33,719.458a15.678,15.678,0,0,1-.522-3.192L70.6,716.5l-2.247-1.055c-.4.521-.968,1.214-1.607,1.995,2.034,2.169,8.258,3.384,9.583,2.014" transform="translate(-66.747 -715.449)" fill="#1c2372" fill-rule="evenodd"/>
                </g>
              </g>
            </g>
            <path id="Trazado_114329" data-name="Trazado 114329" d="M178.916,711.6c-.427,2.121-1.72,3.74-1.924,5.3-.352,2.684,1.2,5.381,4.37,5.409l20.769.184c-1.1-7.1-12.2-3.161-15.93-11.029l-4.834.272Z" transform="translate(-121.07 -486.807)" fill="#1c2372" fill-rule="evenodd"/>
            <g id="Grupo_81228" data-name="Grupo 81228" transform="translate(57.22 224.658)" opacity="0.5" style="mix-blend-mode: multiply;isolation: isolate">
              <g id="Grupo_81227" data-name="Grupo 81227">
                <g id="Grupo_81226" data-name="Grupo 81226" clip-path="url(#clip-path-11)">
                  <path id="Trazado_114330" data-name="Trazado 114330" d="M181.833,711.6a9.894,9.894,0,0,1-.626,1.931c1.945,1.35,5.7,2.262,10.046.77a8.525,8.525,0,0,1-2.136-2.837l-4.834.272Z" transform="translate(-181.207 -711.465)" fill="#1c2372" fill-rule="evenodd"/>
                </g>
              </g>
            </g>
          </g>
        </g>
        <g id="Grupo_81232" data-name="Grupo 81232" transform="translate(48.315 131.12)">
          <g id="Grupo_81231" data-name="Grupo 81231" clip-path="url(#clip-path-12)">
            <rect id="Rectángulo_34321" data-name="Rectángulo 34321" width="98.346" height="50.363" transform="translate(-25.415 87.825) rotate(-73.86)" fill="url(#linear-gradient)"/>
          </g>
        </g>
        <g id="Grupo_81237" data-name="Grupo 81237">
          <g id="Grupo_81236" data-name="Grupo 81236" clip-path="url(#clip-path)">
            <g id="Grupo_81235" data-name="Grupo 81235" transform="translate(49.69 134.252)" opacity="0.4" style="mix-blend-mode: multiply;isolation: isolate">
              <g id="Grupo_81234" data-name="Grupo 81234">
                <g id="Grupo_81233" data-name="Grupo 81233" clip-path="url(#clip-path-14)">
                  <path id="Trazado_114332" data-name="Trazado 114332" d="M169.535,425.16c.848,5.09.852,19.743.782,26.074-.237,21.206-3.484,43.753-6.093,64.743-.41-13.758-.557-27.937-1.274-41.529-.791-14.995-2.544-27.132-5.588-44.263Z" transform="translate(-157.361 -425.16)" fill="#1c2475" fill-rule="evenodd"/>
                </g>
              </g>
            </g>
          </g>
        </g>
        <g id="Grupo_81239" data-name="Grupo 81239" transform="translate(20.54 130.577)">
          <g id="Grupo_81238" data-name="Grupo 81238" clip-path="url(#clip-path-15)">
            <rect id="Rectángulo_34324" data-name="Rectángulo 34324" width="80.72" height="108.275" transform="translate(-34.598 14.345) rotate(-22.519)" fill="url(#linear-gradient-2)"/>
          </g>
        </g>
        <g id="Grupo_81241" data-name="Grupo 81241" transform="translate(20.251 84.49)">
          <g id="Grupo_81240" data-name="Grupo 81240" clip-path="url(#clip-path-16)">
            <rect id="Rectángulo_34325" data-name="Rectángulo 34325" width="72.669" height="67.597" transform="translate(-15.994 56.769) rotate(-74.995)" fill="url(#linear-gradient-3)"/>
          </g>
        </g>
        <g id="Grupo_81253" data-name="Grupo 81253">
          <g id="Grupo_81252" data-name="Grupo 81252" clip-path="url(#clip-path)">
            <g id="Grupo_81246" data-name="Grupo 81246" transform="translate(56.726 84.74)" opacity="0.5" style="mix-blend-mode: multiply;isolation: isolate">
              <g id="Grupo_81245" data-name="Grupo 81245">
                <g id="Grupo_81244" data-name="Grupo 81244" clip-path="url(#clip-path-18)">
                  <g id="Grupo_81243" data-name="Grupo 81243" transform="translate(0 0)">
                    <g id="Grupo_81242" data-name="Grupo 81242" clip-path="url(#clip-path-19)">
                      <rect id="Rectángulo_34326" data-name="Rectángulo 34326" width="42.935" height="20.705" transform="translate(-5.497 40.507) rotate(-82.271)" fill="url(#linear-gradient-4)"/>
                    </g>
                  </g>
                </g>
              </g>
            </g>
            <g id="Grupo_81251" data-name="Grupo 81251" transform="translate(31.281 116.631)" opacity="0.5" style="mix-blend-mode: multiply;isolation: isolate">
              <g id="Grupo_81250" data-name="Grupo 81250">
                <g id="Grupo_81249" data-name="Grupo 81249" clip-path="url(#clip-path-20)">
                  <g id="Grupo_81248" data-name="Grupo 81248" transform="translate(0 0)">
                    <g id="Grupo_81247" data-name="Grupo 81247" clip-path="url(#clip-path-21)">
                      <rect id="Rectángulo_34328" data-name="Rectángulo 34328" width="29.196" height="9.629" transform="translate(-3.521 28.532) rotate(-85.535)" fill="url(#linear-gradient-5)"/>
                    </g>
                  </g>
                </g>
              </g>
            </g>
          </g>
        </g>
        <g id="Grupo_81255" data-name="Grupo 81255" transform="translate(46.29 79.608)">
          <g id="Grupo_81254" data-name="Grupo 81254" clip-path="url(#clip-path-22)">
            <rect id="Rectángulo_34331" data-name="Rectángulo 34331" width="11.718" height="12.657" transform="matrix(0.99, -0.142, 0.142, 0.99, -1.595, 0.229)" fill="url(#linear-gradient-6)"/>
          </g>
        </g>
        <g id="Grupo_81257" data-name="Grupo 81257" transform="translate(40.231 58.2)">
          <g id="Grupo_81256" data-name="Grupo 81256" clip-path="url(#clip-path-23)">
            <rect id="Rectángulo_34332" data-name="Rectángulo 34332" width="28.392" height="29.735" transform="matrix(0.498, -0.867, 0.867, 0.498, -9.359, 14.434)" fill="url(#linear-gradient-7)"/>
          </g>
        </g>
        <g id="Grupo_81259" data-name="Grupo 81259">
          <g id="Grupo_81258" data-name="Grupo 81258" clip-path="url(#clip-path)">
            <path id="Trazado_114339" data-name="Trazado 114339" d="M135.25,215.078c-1.679.317-2.106-.249-2.5-1.37-.4-1.155-.368-.837-1.081-1.723a4.608,4.608,0,0,1-.737-1.273,7.792,7.792,0,0,1-.253-3.379l0-.044c1.042,1.79,3.256,2.136,3.465-.379a4.829,4.829,0,0,0,1.961-3.2c.194-1.6.867-2.478,2.654-1.972,4.136,1.171,7.521,3.335,11.155-.112a6.031,6.031,0,0,1-3.367,4.4l-7.012,4.987Z" transform="translate(-89.371 -137.935)" fill="#24053e" fill-rule="evenodd"/>
          </g>
        </g>
        <g id="Grupo_81261" data-name="Grupo 81261" transform="translate(43.046 65.158)">
          <g id="Grupo_81260" data-name="Grupo 81260" clip-path="url(#clip-path-25)">
            <rect id="Rectángulo_34334" data-name="Rectángulo 34334" width="19.451" height="20.801" transform="translate(-3.773 0.817) rotate(-12.376)" fill="url(#linear-gradient-8)"/>
          </g>
        </g>
        <g id="Grupo_81263" data-name="Grupo 81263">
          <g id="Grupo_81262" data-name="Grupo 81262" clip-path="url(#clip-path)">
            <path id="Trazado_114341" data-name="Trazado 114341" d="M151.5,208.785q.045.636.1,1.273c-4.217.724-6.325-1.13-9.015-2.841a12.247,12.247,0,0,1-2.587,3.472c.035.48.535,3.15.195,4.46-.277,1.066-.848.914-1.464.266-.413-.435-1.322-2.388-2.1-1.151.262-.841,1-1.147,1.417-.4.739,1.315,2.42,3.534,1.15-3.393a4.3,4.3,0,0,0,2.016-2.6c.357-1.108.742-1.976,2.062-1.272,2.711,1.447,5.057,2.852,8.227,2.182" transform="translate(-93.483 -141.19)" fill="#ff9484" fill-rule="evenodd"/>
          </g>
        </g>
        <g id="Grupo_81265" data-name="Grupo 81265" transform="translate(57.47 77.941)">
          <g id="Grupo_81264" data-name="Grupo 81264" clip-path="url(#clip-path-27)">
            <rect id="Rectángulo_34336" data-name="Rectángulo 34336" width="12.48" height="14.441" transform="translate(-1.886 0.276) rotate(-8.373)" fill="url(#linear-gradient-9)"/>
          </g>
        </g>
        <g id="Grupo_81267" data-name="Grupo 81267">
          <g id="Grupo_81266" data-name="Grupo 81266" clip-path="url(#clip-path)">
            <path id="Trazado_114343" data-name="Trazado 114343" d="M188.75,258.608a20.035,20.035,0,0,0,3.24,3.162c1.671,1.571,1.67.778,3.227-.813.056,1.34-.468,1.811-.98,2.879-.429.895.206,2.812.5,3.826-.92-1.57-1.956-3.066-2.947-4.445a21.332,21.332,0,0,1-3.044-4.61" transform="translate(-129.149 -176.948)" fill="#ff9484" fill-rule="evenodd"/>
          </g>
        </g>
        <g id="Grupo_81269" data-name="Grupo 81269" transform="translate(62.836 87.866)">
          <g id="Grupo_81268" data-name="Grupo 81268" clip-path="url(#clip-path-29)">
            <rect id="Rectángulo_34338" data-name="Rectángulo 34338" width="19.034" height="32.721" transform="translate(-2.385 0.181) rotate(-4.348)" fill="url(#linear-gradient-10)"/>
          </g>
        </g>
        <g id="Grupo_81271" data-name="Grupo 81271" transform="translate(50.728 90.522)">
          <g id="Grupo_81270" data-name="Grupo 81270" clip-path="url(#clip-path-30)">
            <rect id="Rectángulo_34339" data-name="Rectángulo 34339" width="20.637" height="38.397" transform="translate(-10.694 3.293) rotate(-17.336)" fill="url(#linear-gradient-11)"/>
          </g>
        </g>
        <g id="Grupo_81273" data-name="Grupo 81273">
          <g id="Grupo_81272" data-name="Grupo 81272" clip-path="url(#clip-path)">
            <path id="Trazado_114346" data-name="Trazado 114346" d="M143.2,266.258c-.941.314-1.643.631-1.807,1.235-.567,2.081,3.026,7.951,5.365,8.5a8.19,8.19,0,0,1,2.859-3.268c-3.872-1.14-5.993-3.038-6.416-6.467" transform="translate(-96.702 -182.182)" fill="#00daea" fill-rule="evenodd"/>
            <path id="Trazado_114347" data-name="Trazado 114347" d="M170.013,267.127a2.747,2.747,0,0,1,1.441.389c.99,1.1,1.037,5.778-.549,8.436a12.7,12.7,0,0,0-3.71-2.6c3.464-2.073,3.163-4.085,2.818-6.226" transform="translate(-114.4 -182.777)" fill="#00daea" fill-rule="evenodd"/>
          </g>
        </g>
      </g>
    </g>
  </g>
</svg>
