<svg xmlns="http://www.w3.org/2000/svg" xmlns:xlink="http://www.w3.org/1999/xlink" width="1030" height="555.796" viewBox="0 0 1030 555.796">
  <defs>
    <clipPath id="clip-path">
      <rect id="Rectángulo_33953" data-name="Rectángulo 33953" width="269.492" height="555.796" fill="none"/>
    </clipPath>
    <clipPath id="clip-path-2">
      <path id="Trazado_113738" data-name="Trazado 113738" d="M140.072,72.205c-.11,35.792,25.225,79.679,56.388,97.669,31.146,17.987,56.644,3.461,56.753-32.352l-56.67-32.639L142.068,56.4a60.126,60.126,0,0,0-2,15.8" fill="none"/>
    </clipPath>
    <clipPath id="clip-path-3">
      <path id="Trazado_113739" data-name="Trazado 113739" d="M196.008,101.443l57.068,33.417c-.21-35.686-25.415-79.127-56.384-97a55.9,55.9,0,0,0-20.2-7.362Z" fill="none"/>
    </clipPath>
    <linearGradient id="linear-gradient" x1="-1.387" y1="5.75" x2="-1.378" y2="5.75" gradientUnits="objectBoundingBox">
      <stop offset="0" stop-color="#fdd24c"/>
      <stop offset="1" stop-color="#fabd23"/>
    </linearGradient>
    <clipPath id="clip-path-4">
      <path id="Trazado_113740" data-name="Trazado 113740" d="M134.78,43.65l54.476,48.481L169.34,19.722a37.859,37.859,0,0,0-5.1-.354c-14.283,0-25.167,8.7-29.459,24.282" fill="none"/>
    </clipPath>
    <clipPath id="clip-path-6">
      <path id="Trazado_113752" data-name="Trazado 113752" d="M81.1,281.853c-4.28,6.364-10.143,18.272-10.36,27.268-.423,17.528.952,29.223-4.4,58.525-15.916,53.579-7.66,51.718-13.75,87.32-.513,3.8,11.183,6.819,15.162,4.451l24.93-83.995,25.187-73,.821-20.046c.13-3.239-1.6-5.617-2.616-8.151-13.277,3.912-20.707,8.127-34.972,7.625" fill="none"/>
    </clipPath>
    <linearGradient id="linear-gradient-2" x1="0.071" y1="1.754" x2="0.076" y2="1.754" gradientUnits="objectBoundingBox">
      <stop offset="0" stop-color="#3e4795"/>
      <stop offset="1" stop-color="#273088"/>
    </linearGradient>
    <clipPath id="clip-path-8">
      <rect id="Rectángulo_33941" data-name="Rectángulo 33941" width="49.034" height="173.532" transform="translate(69.658 274.229)" fill="none"/>
    </clipPath>
    <clipPath id="clip-path-9">
      <path id="Trazado_113757" data-name="Trazado 113757" d="M96.2,294.3c-3.284,6.363-6.129,14.876-4.939,23.874,2.316,17.527,8.34,31.863,10.284,61.918-4.93,35.024-1.313,58.654-.593,92.6.081,3.8,12.25,6.819,15.86,4.45,7.548-39.777,12.2-78.288,19.669-117.17,3.713-19.332,3.624-30.489,2.382-44.72-.478-8.149.37-12.151-2.314-20.048a47.918,47.918,0,0,0-3.89-8.151c-12.665,3.91-22.113,7.751-36.459,7.249" fill="none"/>
    </clipPath>
    <linearGradient id="linear-gradient-3" x1="-0.084" y1="1.962" x2="-0.078" y2="1.962" xlink:href="#linear-gradient-2"/>
    <clipPath id="clip-path-11">
      <path id="Trazado_113759" data-name="Trazado 113759" d="M74.183,231.507c13.418,29.944,4.738,34.574,5.97,48.221l-.279,5.5c12.751,18.985,49.7,17.5,54.19,3.782-.24-.853-.426-4.459-.747-5.354.872-12.038-4.9-21.52-3.783-29.72,1.879-13.776,9.374-18.62,5.34-30.4-2.953-4.054-10.941-10.554-19.245-15.1-11.685-6.4-24.736-10.41-31.742-11.2a12.646,12.646,0,0,0-1.416-.082c-13.41,0-13.278,23.228-8.288,34.361" fill="none"/>
    </clipPath>
    <linearGradient id="linear-gradient-4" x1="-0.387" y1="4.019" x2="-0.379" y2="4.019" gradientUnits="objectBoundingBox">
      <stop offset="0" stop-color="#1c8ef4"/>
      <stop offset="1" stop-color="#00cfdd"/>
    </linearGradient>
    <clipPath id="clip-path-12">
      <path id="Trazado_113760" data-name="Trazado 113760" d="M206.727,133.422c-2.356,2.975-5.961,7.792-8.47,10.865-4.819,2.956-9.467,12.66-13.515,18.486,2.052,3.445,4.619,7.58,9.143,7.67,1.455-2.721,6.135-2.814,8.457-6.466,2.617-4.118,7.027-10.148,6.333-13.043a11.761,11.761,0,0,0-4.174-6.451c.062-.06.122-.123.18-.185.012-.014,3.728-5.381,5.066-7.465,1.06-1.65-.306-4.1-1.776-4.1a1.587,1.587,0,0,0-1.244.69" fill="none"/>
    </clipPath>
    <linearGradient id="linear-gradient-5" x1="-3.865" y1="9.506" x2="-3.843" y2="9.506" gradientUnits="objectBoundingBox">
      <stop offset="0" stop-color="#ffb89e"/>
      <stop offset="1" stop-color="#ffa799"/>
    </linearGradient>
    <clipPath id="clip-path-13">
      <path id="Trazado_113761" data-name="Trazado 113761" d="M182.984,165.061c-.578.821-2.094,1.467-2.815,2.528-6.543,9.617-17.27,28.161-18.245,32.265-7.9,2.192-17.195,7.04-25,10.24-4.729,1.942-11.207,2.418-14.528,4.956-6.611,5.055-6.752,13.888-.1,20.445,2.86,2.817,6.2,4.585,14,1.51,10.616-4.185,24.156-13.423,30-17.032,2.658-1.644,9.352-6.234,11.087-8.6,1.811-2.469,2.571-5.754,3.246-6.861,4.677-7.684,8.518-17.784,12.4-27.733.359-.919.1-3.3.476-4.189.482-1.15.976-2.269,1.485-3.348-2.787-3.012-7.531-6.314-10.281-6.544-.423.541-1.014,1.35-1.727,2.363" fill="none"/>
    </clipPath>
    <linearGradient id="linear-gradient-6" x1="-1.086" y1="4.169" x2="-1.076" y2="4.169" xlink:href="#linear-gradient-4"/>
    <clipPath id="clip-path-15">
      <rect id="Rectángulo_33948" data-name="Rectángulo 33948" width="62.988" height="102.249" transform="translate(71.076 197.146)" fill="none"/>
    </clipPath>
    <clipPath id="clip-path-16">
      <path id="Trazado_113763" data-name="Trazado 113763" d="M82.614,173.84c1.856,5.476,6.657,9.368,9.056,12.934a11.243,11.243,0,0,1,1.256,4.9h0c-.691,3.86-2.158,7.557-4.287,12.3-1.148,4.872,16.634,10.133,22.726,7.485l.129-1.18c1.572-7.266,3.115-13.44,4.2-18.545,2.833,1.208,9.786,1.562,10.4.589C111.525,180.681,95.029,171.4,87.085,171.4c-2.272,0-3.844.759-4.471,2.44" fill="none"/>
    </clipPath>
    <linearGradient id="linear-gradient-7" x1="-1.402" y1="7.177" x2="-1.384" y2="7.177" gradientUnits="objectBoundingBox">
      <stop offset="0" stop-color="#ff8a78"/>
      <stop offset="1" stop-color="#ffa799"/>
    </linearGradient>
    <clipPath id="clip-path-18">
      <path id="Trazado_113766" data-name="Trazado 113766" d="M69.2,151.2c-6.507,10.477-2.972,23.65-12.428,31.559-11.9,9.947-18.6,27.86-13.183,38.021,4.9,9.209,16.865,14.628,13.185,20.458-3.043,4.818-10.205,9.652-1.684,17.43,4.385,4.006,15.1,14.752,36.965,9.186,21.313-5.427,43.683-23.837,25.723-43.969-18.9-21.187-7.842-25.871,3-42.532,5.732-8.811,10.856-26.218,5.947-32.693-5.186-6.839-9.3-6.433-13.587-6.028-2.676.253-5.419.507-8.533-1a31.645,31.645,0,0,0-13.775-3.456c-9.175,0-16.661,5.03-21.627,13.025" fill="none"/>
    </clipPath>
    <linearGradient id="linear-gradient-8" x1="-0.048" y1="3.104" x2="-0.042" y2="3.104" gradientUnits="objectBoundingBox">
      <stop offset="0" stop-color="#5a2d68"/>
      <stop offset="1" stop-color="#22043d"/>
    </linearGradient>
  </defs>
  <g id="Grupo_85447" data-name="Grupo 85447" transform="translate(-285 -2717)">
    <rect id="Rectángulo_33954" data-name="Rectángulo 33954" width="1030" height="415" rx="21" transform="translate(285 2770)" fill="#e5fff4"/>
    <g id="Grupo_80489" data-name="Grupo 80489" transform="translate(322.508 2717)">
      <g id="Grupo_80488" data-name="Grupo 80488" clip-path="url(#clip-path)">
        <g id="Grupo_80453" data-name="Grupo 80453">
          <g id="Grupo_80452" data-name="Grupo 80452" clip-path="url(#clip-path-2)">
            <rect id="Rectángulo_33936" data-name="Rectángulo 33936" width="162.411" height="151.584" transform="translate(97.473 172.282) rotate(-69.864)" fill="#a2e8ca"/>
          </g>
        </g>
        <g id="Grupo_80455" data-name="Grupo 80455">
          <g id="Grupo_80454" data-name="Grupo 80454" clip-path="url(#clip-path-3)">
            <rect id="Rectángulo_33937" data-name="Rectángulo 33937" width="113.846" height="90.121" transform="translate(162.37 132.912) rotate(-82.147)" fill="url(#linear-gradient)"/>
          </g>
        </g>
        <g id="Grupo_80457" data-name="Grupo 80457">
          <g id="Grupo_80456" data-name="Grupo 80456" clip-path="url(#clip-path-4)">
            <rect id="Rectángulo_33938" data-name="Rectángulo 33938" width="76.607" height="59.729" transform="translate(129.392 91.73) rotate(-85.741)" fill="#13b770"/>
          </g>
        </g>
        <g id="Grupo_80459" data-name="Grupo 80459">
          <g id="Grupo_80458" data-name="Grupo 80458" clip-path="url(#clip-path)">
            <path id="Trazado_113741" data-name="Trazado 113741" d="M178.878,6.7a9.872,9.872,0,0,1,4.471,7.745c-.008,2.84-2.03,3.992-4.5,2.566a9.878,9.878,0,0,1-4.471-7.745c.007-2.841,2.029-3.993,4.5-2.566" fill="#f9bc23" fill-rule="evenodd"/>
            <path id="Trazado_113742" data-name="Trazado 113742" d="M187.852.167a2.707,2.707,0,0,1,1.224,2.12c0,.776-.557,1.092-1.232.7A2.7,2.7,0,0,1,186.621.87c0-.778.555-1.093,1.231-.7" fill="#f9bc23" fill-rule="evenodd"/>
            <path id="Trazado_113743" data-name="Trazado 113743" d="M163.388.637a5.646,5.646,0,0,1,2.557,4.431c0,1.625-1.16,2.284-2.574,1.467a5.648,5.648,0,0,1-2.557-4.429c0-1.626,1.161-2.284,2.574-1.469" fill="#f9bc23" fill-rule="evenodd"/>
            <path id="Trazado_113744" data-name="Trazado 113744" d="M124.205,76.372a4.177,4.177,0,0,1,1.891,3.275c0,1.2-.859,1.688-1.9,1.085a4.176,4.176,0,0,1-1.891-3.274c0-1.2.858-1.689,1.9-1.086" fill="#00cedc" fill-rule="evenodd"/>
            <path id="Trazado_113745" data-name="Trazado 113745" d="M181.637,170.306a4.179,4.179,0,0,1,1.891,3.275c-.005,1.2-.859,1.688-1.9,1.086a4.175,4.175,0,0,1-1.891-3.276c0-1.2.858-1.688,1.9-1.085" fill="#00cedc" fill-rule="evenodd"/>
            <path id="Trazado_113746" data-name="Trazado 113746" d="M267.991,97.2a3.315,3.315,0,0,1,1.5,2.6c0,.953-.682,1.34-1.512.861a3.32,3.32,0,0,1-1.5-2.6c0-.954.681-1.341,1.511-.862" fill="#1c8df3" fill-rule="evenodd"/>
            <path id="Trazado_113747" data-name="Trazado 113747" d="M162.278,515.515l-86.042-49c-9.38-4.287-22.805-7.7-32.361-2.725-8.709,4.532-23.053,13.807-29.4,17.423-4.816,2.748-21.54,12.767-11.124,18.431C34,516.3,64.318,535.043,95.433,551.968c5.884,3.2,14.493,4.357,23.53,3.608a62.3,62.3,0,0,0,25.482-7.59q7.758-4.511,15.26-8.881c6.748-3.929,10.326-8.578,10.682-12.873.346-4.2-2.351-8.087-8.109-10.717" fill="#f0f5ff" fill-rule="evenodd"/>
            <path id="Trazado_113748" data-name="Trazado 113748" d="M55.927,443.725c-.6,5.9-1.661,11.384-3.73,15.418-1.028,1.123-2.312,1.8-2.914,3.079-3.223,6.856-3.932,13.462-1.688,48.649l8.26.174,1.057-12.428c1.022-5.039,3.85-12.412,5-16.977,2.492-9.947,2.733-14.934,4.26-22.255Z" fill="#ffa799" fill-rule="evenodd"/>
            <path id="Trazado_113749" data-name="Trazado 113749" d="M38.6,486.1a13.18,13.18,0,0,1-2.8-.409c-.427-.474-1.23-2.808-.647-3.247,1.043-.691,3.161,2.981,3.442,3.656" fill="#1f202b" fill-rule="evenodd"/>
            <path id="Trazado_113750" data-name="Trazado 113750" d="M43.187,472.034c.984,3.145-.415,6.179-1.4,9.444-3.456,11.407-5.48,12.048-4.016,17.21a23.061,23.061,0,0,0,5.049,9.057c2.239,2.551,2.912,4.383,5.786,6.368,4.327,2.989,8.179,4.387,7.238-1.612a28.754,28.754,0,0,0-1.412-5.564c-3.065-7.12-6.633-10.243-4.7-19.131,1.436-6.6,3.718-10.945.754-15.39Z" fill="#161a40" fill-rule="evenodd"/>
            <path id="Trazado_113751" data-name="Trazado 113751" d="M43.87,464.921c-1.3,5.958-3.24,10.953-8.715,17.527.688-.182,2.449,1.616,3.419,3.608,7.138-8.209,10.611-12.2,12.808-8.663a112.514,112.514,0,0,1-2.207,12.52c-.3,1.377-.632,4.415.239,6.507,2.8,6.729,7.944,16.556,5.981,19.771.692-.864,1.469-3.235,1.458-6.427-.013-4.646-.8-10.937-.9-14.8-.133-5.226,1.842-9.758,2.158-16.876a56.957,56.957,0,0,0-.013-5.96c-.3-5.031-.851-11.706-4.388-13.594-1.261-.673-4.536-.187-6.231.673-2.378,1.207-3.11,3.425-3.608,5.716" fill="#161f69" fill-rule="evenodd"/>
          </g>
        </g>
        <g id="Grupo_80461" data-name="Grupo 80461">
          <g id="Grupo_80460" data-name="Grupo 80460" clip-path="url(#clip-path-6)">
            <rect id="Rectángulo_33940" data-name="Rectángulo 33940" width="197.431" height="149.748" transform="matrix(0.478, -0.878, 0.878, 0.478, -28.343, 418.908)" fill="url(#linear-gradient-2)"/>
          </g>
        </g>
        <g id="Grupo_80466" data-name="Grupo 80466">
          <g id="Grupo_80465" data-name="Grupo 80465" clip-path="url(#clip-path)">
            <g id="Grupo_80464" data-name="Grupo 80464" opacity="0.3" style="mix-blend-mode: multiply;isolation: isolate">
              <g id="Grupo_80463" data-name="Grupo 80463">
                <g id="Grupo_80462" data-name="Grupo 80462" clip-path="url(#clip-path-8)">
                  <path id="Trazado_113753" data-name="Trazado 113753" d="M92.676,375.423l25.188-73,.82-20.047c.131-3.238-1.6-5.616-2.615-8.15-2.683.789-5.128,1.593-7.44,2.368L93.815,300.272c-5.687,11.6-7.124,26.564-11.235,30.024,4.678,11.337,2.657,34.128.983,46.643-4.79-1.6-9.193-2.279-13.906-4.039,3.238,2.691,9.193,5.385,12.508,8.777-6.031,21.65-8.937,43.769-10.958,66.085Z" fill="#1e2353" fill-rule="evenodd"/>
                </g>
              </g>
            </g>
            <path id="Trazado_113754" data-name="Trazado 113754" d="M102.5,473.056c-.2,5.6-5.52,11.022-6.142,14.655-1.428,8.348,4.618,4.006,11.464,14.736,2.741-.023,8.777,9.853,16.945,10.374,1.876.119,5.228-4.434,1.52-7.653-1.653-.962-3.128-.25-4.485-1.431-2.834-2.505-6.171-23.073-5.511-28.994Z" fill="#ffa799" fill-rule="evenodd"/>
            <path id="Trazado_113755" data-name="Trazado 113755" d="M99.385,481.308c6.634.814,12.825,17.012,17.956,24.049,2.492,3.419,7.774-.106,5.631-1.022,1.092.077,5.106-.4,8.066.077,4.16.669,2.7,4.837-.127,6.792-6.3,4.349-11.884,6.8-17.594,3.917a27.1,27.1,0,0,1-3.5-2.329,17.675,17.675,0,0,1-2.333-1.889c-1.846-2.214-2.556-5.781-4.243-8.813-.558-1.005-1.016-1.221-1.375-.947-.693.97.023,15.528.368,18.445-.187.836-3.027,1.493-3.593.86l-5.27-25.866a9.229,9.229,0,0,1,.69-6.625c1.587-3.031,4.621-5.376,5.323-6.649" fill="#161f69" fill-rule="evenodd"/>
            <path id="Trazado_113756" data-name="Trazado 113756" d="M116.7,516.247a11.738,11.738,0,0,1-3.379-1.126,27.084,27.084,0,0,1-3.5-2.328,17.672,17.672,0,0,1-2.333-1.89c-2-2.4-2.977-6.852-5.2-9.905.742-.457,2.679-.409,4.622,2.789,2.919,5.365,4.922,9.316,8.774,11.918a5.8,5.8,0,0,0,1.016.542" fill="#161a40" fill-rule="evenodd"/>
          </g>
        </g>
        <g id="Grupo_80468" data-name="Grupo 80468">
          <g id="Grupo_80467" data-name="Grupo 80467" clip-path="url(#clip-path-9)">
            <rect id="Rectángulo_33943" data-name="Rectángulo 33943" width="197.304" height="118.04" transform="translate(23.682 452.937) rotate(-68.19)" fill="url(#linear-gradient-3)"/>
          </g>
        </g>
        <g id="Grupo_80470" data-name="Grupo 80470">
          <g id="Grupo_80469" data-name="Grupo 80469" clip-path="url(#clip-path)">
            <path id="Trazado_113758" data-name="Trazado 113758" d="M69.911,238.678l25.3,5.776c5.077,2.274,1.232,13.043-3.788,14.306l-35.31-4.569c-9-1.911-10.973-7.841-9.021-12.464.042-.1.088-.189.133-.283.611-2.862,18.6-28.722,21.187-32.226a37.671,37.671,0,0,1,8.94-8.951,9.784,9.784,0,0,1,9.743.269c3.638,2.231,4.854,5.932,3.435,9.33-2.588,6.212-12.418,18.377-20.616,28.812" fill="#107cce" fill-rule="evenodd"/>
          </g>
        </g>
        <g id="Grupo_80472" data-name="Grupo 80472">
          <g id="Grupo_80471" data-name="Grupo 80471" clip-path="url(#clip-path-11)">
            <rect id="Rectángulo_33945" data-name="Rectángulo 33945" width="117.198" height="86.698" transform="translate(51.484 301.241) rotate(-80.416)" fill="url(#linear-gradient-4)"/>
          </g>
        </g>
        <g id="Grupo_80474" data-name="Grupo 80474">
          <g id="Grupo_80473" data-name="Grupo 80473" clip-path="url(#clip-path-12)">
            <rect id="Rectángulo_33946" data-name="Rectángulo 33946" width="45.306" height="44.853" transform="translate(165.915 152.625) rotate(-46.577)" fill="url(#linear-gradient-5)"/>
          </g>
        </g>
        <g id="Grupo_80476" data-name="Grupo 80476">
          <g id="Grupo_80475" data-name="Grupo 80475" clip-path="url(#clip-path-13)">
            <rect id="Rectángulo_33947" data-name="Rectángulo 33947" width="97.917" height="96.587" transform="translate(94.748 168.829) rotate(-16.348)" fill="url(#linear-gradient-6)"/>
          </g>
        </g>
        <g id="Grupo_80481" data-name="Grupo 80481">
          <g id="Grupo_80480" data-name="Grupo 80480" clip-path="url(#clip-path)">
            <g id="Grupo_80479" data-name="Grupo 80479" opacity="0.5">
              <g id="Grupo_80478" data-name="Grupo 80478">
                <g id="Grupo_80477" data-name="Grupo 80477" clip-path="url(#clip-path-15)">
                  <path id="Trazado_113762" data-name="Trazado 113762" d="M83.887,197.228c-14.829-1.676-14.862,22.767-9.7,34.28,13.417,29.943,4.737,34.573,5.969,48.221l-.278,5.5c12.75,18.985,49.7,17.5,54.189,3.782-.222-.783-.394-3.878-.67-5.076-13.45,12.858-32.922,9.456-44.429,2.591-1.067-5.042-.415-7.281.27-9.356,9.259-9.97,32.139-6.389,37.7-33.755,1.615-7.945-3.631-14.927-8.732-21.233-2.443-3.022-4.262-4.6-7.54-9.165-5.35,1.262-15.313-.51-16.5-2.692-.416-.762,1.694-7.448,1.354-8.264-9.166-4.038-6.241-4.221-11.629-4.829" fill="#0960ac" fill-rule="evenodd"/>
                </g>
              </g>
            </g>
          </g>
        </g>
        <g id="Grupo_80483" data-name="Grupo 80483">
          <g id="Grupo_80482" data-name="Grupo 80482" clip-path="url(#clip-path-16)">
            <rect id="Rectángulo_33950" data-name="Rectángulo 33950" width="54.855" height="54.365" transform="translate(69.68 175.762) rotate(-18.641)" fill="url(#linear-gradient-7)"/>
          </g>
        </g>
        <g id="Grupo_80485" data-name="Grupo 80485">
          <g id="Grupo_80484" data-name="Grupo 80484" clip-path="url(#clip-path)">
            <path id="Trazado_113764" data-name="Trazado 113764" d="M126,192.406c-1.616,1.054-13.091-2.762-14.017-2.716-8.929.442-18.537-.283-20.309-2.916-2.4-3.566-7.2-7.459-9.055-12.934-2.969-8.75-2.391-18.622,5.611-25.492,13.914-11.947,35.739-3.191,38.865,10.339,1.281,5.552-.308,6.01-.044,9.728.484,6.85,1.258,4.269.629,15.106-.241,4.129-.608,8.185-1.68,8.885" fill="#ffa799" fill-rule="evenodd"/>
            <path id="Trazado_113765" data-name="Trazado 113765" d="M91.21,197.445c.488,4.432,12.962,7.556,20.531,5.793.81-.189,1.312-.343,1.6-.858,1.112.611,4.142,4.984,4.487,7.164-6.541,6.3-27.2,2.608-29.714-4.776-.6-1.767-1.154-5.1,3.093-7.323" fill="#00cedc" fill-rule="evenodd"/>
          </g>
        </g>
        <g id="Grupo_80487" data-name="Grupo 80487">
          <g id="Grupo_80486" data-name="Grupo 80486" clip-path="url(#clip-path-18)">
            <rect id="Rectángulo_33952" data-name="Rectángulo 33952" width="158.693" height="134.424" transform="translate(-1.395 260.627) rotate(-72.091)" fill="url(#linear-gradient-8)"/>
          </g>
        </g>
      </g>
    </g>
  </g>
</svg>
