<svg id="control-de-calidad" xmlns="http://www.w3.org/2000/svg" width="92" height="92" viewBox="0 0 92 92">
  <g id="Grupo_81277" data-name="Grupo 81277" transform="translate(1.347 1.347)">
    <circle id="Elipse_4729" data-name="Elipse 4729" cx="44.653" cy="44.653" r="44.653" fill="#13b770"/>
  </g>
  <g id="Grupo_81279" data-name="Grupo 81279" transform="translate(15.775 15.775)">
    <circle id="Elipse_4730" data-name="Elipse 4730" cx="30.225" cy="30.225" r="30.225" fill="#faf7f7"/>
  </g>
  <g id="Grupo_81280" data-name="Grupo 81280" transform="translate(31.299 18.038)">
    <path id="Trazado_114349" data-name="Trazado 114349" d="M219.111,128.35a30.233,30.233,0,0,1-44.926,26.414,30.232,30.232,0,0,0,26.2-54.376,30.232,30.232,0,0,1,18.728,27.962Z" transform="translate(-174.185 -100.388)" fill="#ede1dd"/>
  </g>
  <g id="Grupo_81282" data-name="Grupo 81282" transform="translate(26.117 20.556)">
    <g id="Grupo_81281" data-name="Grupo 81281">
      <path id="Trazado_114350" data-name="Trazado 114350" d="M162.951,155.894h-.038a5.863,5.863,0,0,1-4.414-2.047l-11.743-13.7a5.862,5.862,0,1,1,8.9-7.63l7.349,8.573,21.677-24.7a5.863,5.863,0,1,1,8.8,7.744L167.352,153.9A5.863,5.863,0,0,1,162.951,155.894Z" transform="translate(-145.345 -114.398)" fill="#eecf52"/>
    </g>
  </g>
  <g id="Grupo_81285" data-name="Grupo 81285">
    <path id="Trazado_114352" data-name="Trazado 114352" d="M78.527,13.473A46,46,0,0,0,13.058,78.107a1.348,1.348,0,1,0,1.93-1.881A43.3,43.3,0,0,1,76.621,15.379,43.3,43.3,0,0,1,46,89.3a42.886,42.886,0,0,1-26.49-9.044,1.348,1.348,0,0,0-1.65,2.131A46,46,0,0,0,92,46,45.7,45.7,0,0,0,78.527,13.473Z"/>
    <path id="Trazado_114353" data-name="Trazado 114353" d="M80.289,111.862a31.573,31.573,0,1,0,59.958-13.809l.887-1.01A7.21,7.21,0,0,0,131.039,86.8a31.556,31.556,0,0,0-50.75,25.064Zm31.573-28.878a28.724,28.724,0,0,1,17.335,5.8l-7.2,8.2a1.347,1.347,0,1,0,2.025,1.778l8.3-9.463a4.515,4.515,0,1,1,6.779,5.965l-26.135,29.77a4.515,4.515,0,0,1-3.39,1.533h-.029a4.513,4.513,0,0,1-3.4-1.577l-11.743-13.7a4.515,4.515,0,0,1,6.856-5.876l7.348,8.573a1.347,1.347,0,0,0,2.036.012l9.235-10.523a1.347,1.347,0,1,0-2.025-1.778l-8.21,9.355-6.337-7.394a7.21,7.21,0,1,0-10.949,9.385l11.743,13.7a7.207,7.207,0,0,0,5.427,2.518h.047A7.212,7.212,0,0,0,115,126.813l23.308-26.55a28.877,28.877,0,1,1-26.445-17.279Z" transform="translate(-65.862 -65.862)"/>
    <circle id="Elipse_4731" data-name="Elipse 4731" cx="1.348" cy="1.348" r="1.348" transform="translate(44.652 7.729)"/>
    <circle id="Elipse_4732" data-name="Elipse 4732" cx="1.348" cy="1.348" r="1.348" transform="translate(44.652 81.576)"/>
    <path id="Trazado_114354" data-name="Trazado 114354" d="M147.778,73.057a1.348,1.348,0,1,0-1.841-.493A1.348,1.348,0,0,0,147.778,73.057Z" transform="translate(-119.566 -57.866)"/>
    <path id="Trazado_114355" data-name="Trazado 114355" d="M351.916,426.637a1.348,1.348,0,1,0,1.841.493A1.348,1.348,0,0,0,351.916,426.637Z" transform="translate(-288.128 -349.827)"/>
    <path id="Trazado_114356" data-name="Trazado 114356" d="M72.564,145.937a1.348,1.348,0,1,0,.493,1.841A1.348,1.348,0,0,0,72.564,145.937Z" transform="translate(-57.866 -119.565)"/>
    <path id="Trazado_114357" data-name="Trazado 114357" d="M427.13,353.758a1.348,1.348,0,1,0-.493-1.841A1.348,1.348,0,0,0,427.13,353.758Z" transform="translate(-349.827 -288.129)"/>
    <path id="Trazado_114358" data-name="Trazado 114358" d="M43.014,249.848a1.348,1.348,0,1,0,1.348-1.348A1.348,1.348,0,0,0,43.014,249.848Z" transform="translate(-35.285 -203.848)"/>
    <circle id="Elipse_4733" data-name="Elipse 4733" cx="1.348" cy="1.348" r="1.348" transform="translate(81.576 44.652)"/>
    <path id="Trazado_114359" data-name="Trazado 114359" d="M70.724,353.264a1.348,1.348,0,1,0,.493-1.841A1.348,1.348,0,0,0,70.724,353.264Z" transform="translate(-57.867 -288.128)"/>
    <path id="Trazado_114360" data-name="Trazado 114360" d="M145.937,427.13a1.348,1.348,0,1,0,1.841-.493A1.348,1.348,0,0,0,145.937,427.13Z" transform="translate(-119.565 -349.827)"/>
    <path id="Trazado_114361" data-name="Trazado 114361" d="M353.758,72.564a1.348,1.348,0,1,0-1.841.493A1.348,1.348,0,0,0,353.758,72.564Z" transform="translate(-288.129 -57.866)"/>
  </g>
</svg>
