<svg xmlns="http://www.w3.org/2000/svg" width="112" height="112" viewBox="0 0 112 112">
  <g id="Grupo_85447" data-name="Grupo 85447" transform="translate(-652 -2794)">
    <circle id="Elipse_4721" data-name="Elipse 4721" cx="56" cy="56" r="56" transform="translate(652 2794)" fill="#05339e"/>
    <path id="Trazado_119100" data-name="Trazado 119100" d="M8.78-5.713H3.524v3.938H9.668V0H1.3V-12.8H9.606V-11H3.524v3.533H8.78Zm5.906-.668L16.5-9.51H18.87L15.961-4.825,18.967,0H16.611l-1.9-3.252L12.823,0H10.45l3.006-4.825-2.9-4.685h2.355ZM26.007,0a3.3,3.3,0,0,1-.246-.888,3.325,3.325,0,0,1-2.5,1.063,3.355,3.355,0,0,1-2.338-.817,2.615,2.615,0,0,1-.905-2.021A2.7,2.7,0,0,1,21.151-5a5.473,5.473,0,0,1,3.23-.813h1.31v-.624a1.666,1.666,0,0,0-.413-1.182,1.638,1.638,0,0,0-1.257-.444,1.881,1.881,0,0,0-1.2.365,1.129,1.129,0,0,0-.466.927H20.224a2.37,2.37,0,0,1,.519-1.463A3.455,3.455,0,0,1,22.153-9.3a4.955,4.955,0,0,1,1.991-.387,3.99,3.99,0,0,1,2.663.839,2.993,2.993,0,0,1,1.02,2.36V-2.2a4.861,4.861,0,0,0,.36,2.048V0ZM23.66-1.538a2.429,2.429,0,0,0,1.191-.308,2.055,2.055,0,0,0,.839-.826V-4.465H24.539a3.148,3.148,0,0,0-1.784.413,1.338,1.338,0,0,0-.6,1.169,1.248,1.248,0,0,0,.409.98A1.583,1.583,0,0,0,23.66-1.538Zm10.31.009A1.931,1.931,0,0,0,35.3-2a1.591,1.591,0,0,0,.563-1.151h2.013a3.137,3.137,0,0,1-.554,1.657A3.632,3.632,0,0,1,35.912-.272,4.191,4.191,0,0,1,34,.176a4.055,4.055,0,0,1-3.164-1.292,5.124,5.124,0,0,1-1.169-3.568V-4.9a5.039,5.039,0,0,1,1.16-3.476,4.018,4.018,0,0,1,3.164-1.305,3.907,3.907,0,0,1,2.764.989,3.542,3.542,0,0,1,1.121,2.6H35.859A1.956,1.956,0,0,0,35.3-7.444a1.8,1.8,0,0,0-1.332-.527,1.879,1.879,0,0,0-1.6.751A3.834,3.834,0,0,0,31.8-4.939V-4.6a3.9,3.9,0,0,0,.558,2.307A1.878,1.878,0,0,0,33.97-1.529Zm8.191-10.292V-9.51H43.84v1.582H42.161v5.309a1.169,1.169,0,0,0,.215.787,1,1,0,0,0,.769.242,3.29,3.29,0,0,0,.747-.088V-.026a5.26,5.26,0,0,1-1.406.2q-2.461,0-2.461-2.716V-7.928H38.461V-9.51h1.564v-2.312ZM47.742,0H45.606V-9.51h2.136ZM45.475-11.979a1.133,1.133,0,0,1,.312-.817,1.179,1.179,0,0,1,.892-.325,1.193,1.193,0,0,1,.9.325,1.125,1.125,0,0,1,.316.817,1.1,1.1,0,0,1-.316.8,1.2,1.2,0,0,1-.9.321,1.188,1.188,0,0,1-.892-.321A1.107,1.107,0,0,1,45.475-11.979Zm7.269.158V-9.51h1.679v1.582H52.743v5.309a1.169,1.169,0,0,0,.215.787,1,1,0,0,0,.769.242,3.29,3.29,0,0,0,.747-.088V-.026a5.26,5.26,0,0,1-1.406.2q-2.461,0-2.461-2.716V-7.928H49.043V-9.51h1.564v-2.312Zm9.07,10.89A3.312,3.312,0,0,1,59.142.176,2.952,2.952,0,0,1,56.8-.729,3.851,3.851,0,0,1,56-3.349V-9.51H58.14v6.135q0,1.811,1.5,1.811a2.111,2.111,0,0,0,2.1-1.116V-9.51h2.136V0H61.866Zm3.841-3.894a5.654,5.654,0,0,1,1.02-3.529,3.267,3.267,0,0,1,2.733-1.332,3.1,3.1,0,0,1,2.443,1.055V-13.5h2.136V0H72.053l-.105-.984A3.148,3.148,0,0,1,69.39.176a3.248,3.248,0,0,1-2.7-1.345A5.861,5.861,0,0,1,65.654-4.825Zm2.136.185a3.958,3.958,0,0,0,.558,2.263,1.811,1.811,0,0,0,1.586.813,2.017,2.017,0,0,0,1.916-1.169V-6.794a1.986,1.986,0,0,0-1.9-1.143,1.824,1.824,0,0,0-1.6.822A4.408,4.408,0,0,0,67.79-4.641Z" transform="translate(671 2857)" fill="#fff"/>
  </g>
</svg>
